<svg width="360" height="488" viewBox="0 0 360 488" fill="none" xmlns="http://www.w3.org/2000/svg">
    <g clip-path="url(#clip0_93_3652)">
        <path d="M115.5 45.384L139.5 76.616" stroke="#191919" stroke-width="2.4"
            stroke-linecap="round" stroke-linejoin="round" />
        <path d="M140.5 54.168L164.5 85.4" stroke="#78C04C" stroke-width="2.4"
            stroke-linecap="round" stroke-linejoin="round" />
        <path fill-rule="evenodd" clip-rule="evenodd"
            d="M253 52.216L247.71 54.9304L248.72 49.1812L244.44 45.1096L250.355 44.2708L253 39.04L255.645 44.2708L261.56 45.1096L257.28 49.1812L258.29 54.9304L253 52.216Z"
            fill="#FCC202" />
        <path fill-rule="evenodd" clip-rule="evenodd" d="M285 108.336L292 122H278L285 108.336Z"
            fill="#78C04C" />
        <ellipse cx="242" cy="94.672" rx="6" ry="5.856" fill="#767676" />
        <path fill-rule="evenodd" clip-rule="evenodd"
            d="M87 170.312L81.7099 173.026L82.7202 167.277L78.4405 163.206L84.355 162.367L87 157.136L89.645 162.367L95.5595 163.206L91.2798 167.277L92.2901 173.026L87 170.312Z"
            fill="#E71D36" />
        <path fill-rule="evenodd" clip-rule="evenodd" d="M117 212.768L124 226.432H110L117 212.768Z"
            fill="#332DA1" />
        <ellipse cx="115" cy="182.512" rx="4" ry="3.904" fill="#78C04C" />
        <ellipse cx="98" cy="84.912" rx="6" ry="5.856" fill="#FFB800" />
        <path d="M213.319 170.731H231.918V156.729H213.319V170.731Z" fill="#EBEBEB" />
        <path d="M214.648 169.508H216.89V167.036H214.648V169.508Z" fill="white" />
        <path d="M226.246 156.764H224.133V159.751H226.246V156.764Z" fill="#FAFAFA" />
        <path d="M226.246 167.702H224.133V170.689H226.246V167.702Z" fill="#FAFAFA" />
        <path
            d="M217.96 170.827C217.927 170.827 217.901 167.747 217.901 163.949C217.901 160.15 217.927 157.071 217.96 157.071C217.994 157.071 218.02 160.15 218.02 163.949C218.02 167.747 217.994 170.827 217.96 170.827Z"
            fill="#E0E0E0" />
        <path d="M205.735 194.842H237.825V170.684H205.735V194.842Z" fill="#EBEBEB" />
        <path d="M208.028 192.734H211.894V188.469H208.028V192.734Z" fill="white" />
        <path d="M228.034 170.746H224.39V175.901H228.034V170.746Z" fill="#FAFAFA" />
        <path d="M228.034 189.614H224.39V194.769H228.034V189.614Z" fill="#FAFAFA" />
        <path
            d="M213.745 195.008C213.688 195.008 213.642 189.695 213.642 183.141C213.642 176.587 213.688 171.274 213.745 171.274C213.801 171.274 213.845 176.587 213.845 183.141C213.845 189.695 213.801 195.008 213.745 195.008Z"
            fill="#E0E0E0" />
        <path
            d="M236.806 120.437L238.525 123.836L242.368 124.381L239.588 127.029L240.245 130.764L236.806 129.001L233.367 130.764L234.024 127.029L231.244 124.381L235.087 123.836L236.806 120.437Z"
            fill="#EBEBEB" />
        <path
            d="M134.442 164.338L135.526 166.481L137.948 166.823L136.195 168.491L136.609 170.847L134.442 169.734L132.275 170.847L132.689 168.491L130.937 166.823L133.358 166.481L134.442 164.338Z"
            fill="#EBEBEB" />
        <path
            d="M135.786 145.671L138.192 150.429L143.572 151.192L139.68 154.895L140.599 160.125L135.786 157.656L130.975 160.125L131.894 154.895L128 151.192L133.379 150.429L135.786 145.671Z"
            fill="#EBEBEB" />
        <path
            d="M235.274 135.789L236.311 137.841L238.631 138.17L236.952 139.765L237.349 142.018L235.274 140.956L233.2 142.018L233.596 139.765L231.918 138.17L234.237 137.841L235.274 135.789Z"
            fill="#EBEBEB" />
        <path
            d="M201.243 102.567L202.28 104.616L204.6 104.946L202.921 106.543L203.318 108.797L201.243 107.731L199.169 108.797L199.565 106.543L197.887 104.946L200.206 104.616L201.243 102.567Z"
            fill="#EBEBEB" />
        <path
            d="M224.966 124.507L225.646 125.848L227.165 126.064L226.065 127.109L226.325 128.584L224.966 127.888L223.61 128.584L223.87 127.109L222.771 126.064L224.29 125.848L224.966 124.507Z"
            fill="#EBEBEB" />
        <path
            d="M162.345 192.257L163.668 194.87L166.623 195.289L164.484 197.324L164.991 200.198L162.345 198.841L159.702 200.198L160.206 197.324L158.067 195.289L161.025 194.87L162.345 192.257Z"
            fill="#EBEBEB" />
        <path
            d="M165.835 189.657L166.381 190.737L167.603 190.911L166.718 191.752L166.926 192.94L165.835 192.378L164.744 192.94L164.952 191.752L164.067 190.911L165.289 190.737L165.835 189.657Z"
            fill="#EBEBEB" />
        <path
            d="M214.648 179.649L215.811 181.948L218.411 182.317L216.529 184.105L216.975 186.633L214.648 185.439L212.324 186.633L212.769 184.105L210.887 182.317L213.487 181.948L214.648 179.649Z"
            fill="#E71D36" />
        <path
            d="M220.194 177.612L220.742 178.694L221.965 178.868L221.08 179.712L221.288 180.903L220.194 180.34L219.098 180.903L219.309 179.712L218.421 178.868L219.646 178.694L220.194 177.612Z"
            fill="#E71D36" />
        <path
            d="M212.926 117.787L213.842 115.009C212.969 113.292 212.704 111.342 213.088 109.462C213.473 107.583 214.485 105.882 215.966 104.624C217.448 103.366 219.315 102.624 221.275 102.513C223.235 102.402 225.178 102.929 226.798 104.011C228.419 105.093 229.626 106.67 230.23 108.493C230.834 110.316 230.802 112.284 230.137 114.087C229.473 115.89 228.215 117.428 226.559 118.458C224.904 119.489 222.945 119.954 220.99 119.782C219.082 119.655 217.276 118.892 215.876 117.621L212.926 117.787Z"
            fill="#FAFAFA" />
        <path
            d="M212.926 117.787L213.122 117.772L213.691 117.732L215.876 117.586C216.959 118.564 218.293 119.238 219.736 119.536C220.182 119.632 220.635 119.695 221.09 119.724L221.811 119.752C222.053 119.752 222.303 119.724 222.552 119.711C224.81 119.511 226.902 118.471 228.395 116.805C229.236 115.88 229.86 114.787 230.225 113.602C230.598 112.336 230.674 111.004 230.446 109.706C230.39 109.372 230.31 109.042 230.209 108.719C230.164 108.555 230.108 108.394 230.042 108.236C229.978 108.076 229.921 107.915 229.852 107.757C229.565 107.118 229.202 106.514 228.771 105.958C228.556 105.681 228.323 105.417 228.073 105.169C227.952 105.043 227.823 104.923 227.687 104.812C227.556 104.699 227.43 104.576 227.291 104.473L226.868 104.167L226.657 104.016L226.431 103.885L225.986 103.634C225.834 103.551 225.674 103.489 225.52 103.413C224.337 102.867 223.043 102.586 221.735 102.592C220.426 102.599 219.135 102.891 217.958 103.448C215.917 104.405 214.333 106.092 213.533 108.158C213.49 108.274 213.449 108.39 213.407 108.503C213.361 108.614 213.324 108.729 213.297 108.847C213.238 109.078 213.181 109.306 213.124 109.53C213.046 109.968 212.993 110.41 212.965 110.854C212.907 112.29 213.217 113.717 213.866 115.006L213.176 117.061L212.993 117.594C212.952 117.714 212.929 117.777 212.929 117.777C212.929 117.777 212.944 117.719 212.983 117.601L213.147 117.074L213.809 114.991V115.011C213.143 113.719 212.821 112.284 212.872 110.839C212.896 110.39 212.947 109.943 213.024 109.5C213.081 109.274 213.14 109.043 213.196 108.809C213.224 108.69 213.26 108.574 213.304 108.46C213.348 108.344 213.389 108.229 213.433 108.111C213.863 106.984 214.528 105.956 215.386 105.093C216.243 104.23 217.276 103.55 218.417 103.097C219.558 102.643 220.783 102.426 222.014 102.458C223.246 102.49 224.457 102.772 225.571 103.285C225.728 103.358 225.89 103.423 226.045 103.509L226.498 103.772L226.724 103.906L226.941 104.059L227.368 104.368C227.509 104.476 227.638 104.599 227.772 104.712C227.909 104.825 228.04 104.946 228.163 105.074C228.416 105.327 228.652 105.595 228.871 105.878C229.311 106.437 229.681 107.045 229.975 107.689C230.045 107.849 230.101 108.015 230.166 108.176C230.234 108.34 230.291 108.508 230.338 108.678C230.44 109.008 230.519 109.344 230.575 109.683C230.807 111.001 230.73 112.353 230.348 113.637C229.983 114.844 229.351 115.959 228.498 116.903C226.983 118.584 224.863 119.633 222.578 119.832C222.321 119.832 222.063 119.867 221.826 119.867L221.098 119.837C220.638 119.806 220.181 119.74 219.731 119.641C218.282 119.331 216.948 118.642 215.871 117.647H215.891L213.685 117.76L213.124 117.785C212.988 117.787 212.926 117.787 212.926 117.787Z"
            fill="#263238" />
        <path
            d="M216.753 110.839L218.213 109.603L220.671 112.067L226.184 107.586L227.35 109.005L220.287 114.617L216.753 110.839Z"
            fill="#E71D36" />
        <path
            d="M197.656 179.541L148.3 190.277C148.014 190.341 147.718 190.349 147.43 190.301C147.141 190.252 146.865 190.149 146.617 189.996C146.369 189.843 146.155 189.644 145.987 189.41C145.818 189.176 145.699 188.911 145.636 188.632L129.629 118.483C129.566 118.205 129.559 117.917 129.609 117.637C129.659 117.356 129.766 117.088 129.922 116.848C130.079 116.607 130.282 116.4 130.521 116.236C130.76 116.073 131.03 115.957 131.315 115.895L180.671 105.159C180.956 105.097 181.251 105.09 181.538 105.139C181.826 105.188 182.101 105.292 182.347 105.445C182.594 105.597 182.807 105.796 182.975 106.029C183.142 106.263 183.261 106.526 183.324 106.804L199.341 176.953C199.405 177.231 199.412 177.519 199.362 177.799C199.312 178.08 199.205 178.348 199.049 178.589C198.892 178.829 198.688 179.037 198.449 179.2C198.21 179.364 197.94 179.479 197.656 179.541Z"
            fill="#E0E0E0" />
        <path
            d="M197.656 179.541L197.82 179.496C197.98 179.445 198.135 179.378 198.281 179.297C198.521 179.16 198.733 178.98 198.906 178.767C199.143 178.476 199.298 178.13 199.357 177.762C199.394 177.54 199.394 177.314 199.357 177.092C199.316 176.858 199.251 176.612 199.195 176.356C199.076 175.853 198.937 175.281 198.809 174.673C198.529 173.455 198.207 172.054 197.843 170.47C196.394 164.147 194.299 154.998 191.71 143.691C190.423 138.039 189.002 131.847 187.481 125.198C186.723 121.875 185.938 118.442 185.126 114.898C184.723 113.126 184.313 111.33 183.896 109.51C183.685 108.601 183.476 107.684 183.263 106.762C183.147 106.302 182.876 105.894 182.493 105.603C182.111 105.312 181.64 105.155 181.155 105.157C180.913 105.162 180.673 105.196 180.439 105.257L179.719 105.413L178.27 105.729L175.346 106.365L169.395 107.661L157.133 110.336L131.333 115.943C130.788 116.061 130.31 116.38 129.999 116.833C129.688 117.285 129.568 117.838 129.663 118.375C129.897 119.443 130.149 120.513 130.389 121.578C130.876 123.705 131.359 125.819 131.838 127.921L134.669 140.333C136.527 148.469 138.319 156.307 140.025 163.793C141.731 171.279 143.35 178.363 144.869 185.022C145.058 185.86 145.246 186.684 145.433 187.494C145.528 187.901 145.613 188.313 145.713 188.713C145.821 189.106 146.043 189.461 146.352 189.735C146.658 190.005 147.036 190.186 147.443 190.257C147.644 190.29 147.85 190.295 148.053 190.275C148.254 190.25 148.457 190.202 148.658 190.157L151.054 189.637L160.147 187.663L187.589 181.711L195.053 180.099L196.994 179.682L197.656 179.541L196.997 179.692L195.056 180.119L187.592 181.749L160.155 187.735L151.072 189.717L148.676 190.24C148.475 190.283 148.274 190.333 148.063 190.36C147.852 190.381 147.639 190.375 147.43 190.34C147.004 190.268 146.608 190.079 146.289 189.794C145.97 189.51 145.741 189.142 145.628 188.735C145.525 188.331 145.44 187.924 145.345 187.517C145.158 186.701 144.969 185.877 144.779 185.045C143.26 178.396 141.636 171.291 139.927 163.816C138.218 156.34 136.427 148.492 134.566 140.355L131.735 127.946C131.256 125.846 130.773 123.73 130.286 121.598C130.044 120.533 129.794 119.468 129.557 118.39C129.458 117.827 129.585 117.249 129.911 116.775C130.238 116.301 130.739 115.968 131.31 115.845L157.113 110.231L169.382 107.573L175.33 106.279L178.254 105.644L179.706 105.312L180.426 105.157C180.664 105.096 180.909 105.064 181.155 105.061C181.657 105.062 182.145 105.227 182.541 105.528C182.937 105.83 183.219 106.251 183.343 106.727C183.554 107.651 183.765 108.565 183.973 109.477C184.394 111.299 184.807 113.093 185.214 114.858C186.018 118.4 186.802 121.833 187.564 125.158C189.08 131.807 190.49 137.999 191.78 143.654C194.353 154.958 196.438 164.115 197.88 170.44C198.237 172.02 198.556 173.427 198.834 174.643C198.971 175.253 199.092 175.813 199.215 176.328C199.272 176.579 199.336 176.831 199.375 177.064C199.414 177.289 199.414 177.518 199.375 177.742C199.316 178.116 199.158 178.469 198.917 178.765C198.741 178.977 198.527 179.157 198.286 179.295C198.138 179.376 197.981 179.441 197.818 179.488L197.656 179.541Z"
            fill="#263238" />
        <g opacity="0.3">
            <path
                d="M150.801 187.793L195.771 177.76L194.351 169.159L191.8 164.338L148.781 180.83L150.801 187.793Z"
                fill="black" />
        </g>
        <g opacity="0.3">
            <path
                d="M169.578 107.731L171.279 110.472L171.608 111.927L170.455 112.178L169.578 107.731Z"
                fill="black" />
        </g>
        <path
            d="M132.19 118.89L147.793 187.218L196.698 176.582L193.908 164.363L181.095 108.251L132.19 118.89Z"
            fill="white" />
        <path
            d="M132.19 118.89L181.093 108.211H181.134V108.254C185.474 127.243 190.886 150.939 196.744 176.582V176.635H196.693L147.79 187.268H147.744V187.22C138.558 146.872 132.283 119.299 132.188 118.892C132.283 119.309 138.599 146.874 147.839 187.22L147.78 187.185L196.683 176.542L196.642 176.604C190.791 150.966 185.384 127.27 181.052 108.277L181.103 108.309L132.19 118.89Z"
            fill="#263238" />
        <path
            d="M145.961 110.76L167.529 106.07C167.951 105.978 168.393 106.054 168.757 106.28C169.122 106.506 169.38 106.865 169.474 107.276L170.719 112.734L145.966 118.117L144.722 112.664C144.674 112.459 144.669 112.248 144.706 112.041C144.742 111.834 144.821 111.637 144.936 111.46C145.051 111.283 145.201 111.13 145.377 111.01C145.553 110.89 145.752 110.805 145.961 110.76Z"
            fill="#263238" />
        <path d="M159.295 105.099L152.997 106.468L154.935 111.577L159.679 110.545L159.295 105.099Z"
            fill="#263238" />
        <path
            d="M167.529 106.066C167.529 106.094 162.713 107.166 156.76 108.462C150.807 109.759 145.971 110.791 145.963 110.763C145.955 110.736 150.779 109.663 156.737 108.367C162.695 107.071 167.514 106.046 167.529 106.066Z"
            fill="#455A64" />
        <path
            d="M146.269 116.868C146.241 116.868 145.991 115.888 145.713 114.667C145.435 113.446 145.229 112.449 145.26 112.442C145.291 112.434 145.538 113.421 145.816 114.645C146.094 115.868 146.297 116.868 146.269 116.868Z"
            fill="#455A64" />
        <path
            d="M169.539 111.251C169.332 110.59 169.16 109.919 169.024 109.241C168.854 108.578 168.718 107.908 168.617 107.232C168.824 107.888 168.996 108.555 169.132 109.229C169.303 109.895 169.439 110.57 169.539 111.251Z"
            fill="#455A64" />
        <path
            d="M168.559 112.444C168.559 112.472 163.614 113.572 157.504 114.901C151.394 116.23 146.436 117.287 146.424 117.257C146.411 117.227 151.365 116.129 157.491 114.8C163.617 113.471 168.543 112.416 168.559 112.444Z"
            fill="#455A64" />
        <path
            d="M155.532 132.319C155.532 132.35 152.199 133.098 148.068 133.997C143.937 134.897 140.604 135.598 140.586 135.57C140.568 135.542 143.932 134.791 148.05 133.894C152.168 132.998 155.525 132.292 155.532 132.319Z"
            fill="#263238" />
        <path
            d="M180.424 129.584C180.424 129.614 171.706 131.536 160.94 133.877C150.174 136.218 141.436 138.095 141.43 138.067C141.425 138.039 150.145 136.115 160.917 133.774C171.688 131.433 180.419 129.556 180.424 129.584Z"
            fill="#263238" />
        <path
            d="M180.962 131.94C180.962 131.968 172.242 133.889 161.475 136.233C150.709 138.577 141.973 140.451 141.966 140.421C141.958 140.391 150.683 138.471 161.452 136.13C172.221 133.789 180.954 131.905 180.962 131.94Z"
            fill="#263238" />
        <path
            d="M181.497 134.281C181.497 134.309 172.779 136.231 162.013 138.572C151.247 140.913 142.509 142.792 142.501 142.762C142.493 142.732 151.219 140.813 161.99 138.469C172.761 136.125 181.489 134.254 181.497 134.281Z"
            fill="#263238" />
        <path
            d="M182.033 136.63C182.033 136.658 173.315 138.579 162.549 140.921C151.782 143.262 143.044 145.138 143.039 145.111C143.034 145.083 151.754 143.161 162.526 140.818C173.297 138.474 182.027 136.6 182.033 136.63Z"
            fill="#263238" />
        <path
            d="M182.57 138.974C182.57 139.004 173.85 140.926 163.084 143.267C152.317 145.608 143.577 147.487 143.577 147.46C143.577 147.432 152.294 145.51 163.063 143.166C173.832 140.823 182.562 138.949 182.57 138.974Z"
            fill="#263238" />
        <path
            d="M151.136 155.506C151.126 155.481 151.118 155.454 151.113 155.428L151.056 155.204C151.007 155.001 150.938 154.717 150.853 154.363C150.681 153.637 150.439 152.617 150.15 151.396L150.207 151.431L145.986 152.356C145.986 152.356 146.063 152.237 146.027 152.293V152.31V152.345L146.042 152.416L146.076 152.557L146.138 152.835C146.181 153.021 146.223 153.205 146.264 153.388C146.346 153.75 146.429 154.106 146.506 154.453C146.663 155.144 146.809 155.797 146.946 156.397L146.889 156.362L149.939 155.722L150.807 155.546L151.038 155.503L151.121 155.488C151.121 155.488 151.1 155.488 151.049 155.511L150.83 155.563L149.98 155.759L146.923 156.47H146.876V156.425L146.429 154.483C146.349 154.137 146.266 153.78 146.171 153.418C146.13 153.235 146.086 153.051 146.045 152.865C146.022 152.775 146.001 152.68 145.981 152.587L145.947 152.446L145.932 152.376V152.34V152.323V152.31C145.896 152.368 145.981 152.235 145.973 152.248L150.197 151.336H150.243V151.381L150.907 154.395C150.982 154.747 151.041 155.028 151.085 155.229C151.103 155.32 151.115 155.39 151.128 155.448C151.134 155.467 151.136 155.486 151.136 155.506Z"
            fill="#263238" />
        <path d="M182.511 145.349L153.063 151.753L153.61 154.151L183.059 147.747L182.511 145.349Z"
            fill="#E0E0E0" />
        <path
            d="M152.768 162.655C152.758 162.629 152.75 162.602 152.745 162.575C152.729 162.517 152.711 162.441 152.688 162.351C152.639 162.148 152.57 161.866 152.485 161.512C152.312 160.783 152.07 159.754 151.782 158.543L151.839 158.578L147.618 159.502C147.618 159.517 147.695 159.384 147.659 159.442V159.455V159.472V159.507L147.674 159.578L147.708 159.718C147.728 159.814 147.749 159.907 147.772 160L147.896 160.55C147.978 160.914 148.06 161.268 148.138 161.615C148.295 162.306 148.441 162.959 148.578 163.559L148.521 163.524L151.574 162.886L152.438 162.71L152.67 162.665C152.697 162.658 152.725 162.653 152.752 162.652L152.683 162.673L152.462 162.725L151.612 162.924L148.542 163.615H148.495V163.569L148.048 161.628C147.968 161.281 147.885 160.924 147.79 160.562C147.749 160.382 147.705 160.196 147.664 160.012C147.643 159.919 147.62 159.826 147.6 159.731L147.566 159.59L147.551 159.52V159.485V159.455L147.592 159.389L151.813 158.49H151.859V158.533C152.132 159.771 152.374 160.794 152.523 161.547C152.598 161.899 152.657 162.18 152.701 162.381C152.719 162.472 152.732 162.542 152.745 162.6C152.755 162.617 152.763 162.636 152.768 162.655Z"
            fill="#263238" />
        <path d="M184.142 152.499L154.693 158.902L155.241 161.3L184.689 154.897L184.142 152.499Z"
            fill="#E0E0E0" />
        <path
            d="M154.4 169.802C154.4 169.802 154.4 169.772 154.377 169.721C154.353 169.671 154.343 169.588 154.32 169.498C154.271 169.294 154.202 169.013 154.117 168.659C153.944 167.933 153.702 166.9 153.414 165.69L153.471 165.725L149.239 166.649C149.239 166.664 149.316 166.531 149.28 166.589V166.606V166.624V166.659L149.296 166.73L149.329 166.87C149.35 166.966 149.37 167.059 149.394 167.152L149.517 167.702C149.6 168.066 149.682 168.42 149.759 168.767L150.199 170.711L150.143 170.678L153.195 170.038L154.06 169.862L154.292 169.817C154.319 169.814 154.347 169.814 154.374 169.817L154.304 169.837L154.083 169.89L153.234 170.088L150.163 170.779H150.117V170.734C149.98 170.136 149.829 169.478 149.669 168.792C149.589 168.445 149.507 168.091 149.412 167.727C149.37 167.546 149.327 167.363 149.286 167.177C149.265 167.084 149.242 166.991 149.221 166.898L149.19 166.757L149.172 166.687V166.649V166.606C149.136 166.662 149.221 166.529 149.213 166.544L153.437 165.632H153.483V165.677L154.147 168.691C154.222 169.043 154.281 169.324 154.325 169.528C154.343 169.616 154.359 169.686 154.369 169.744C154.382 169.762 154.392 169.781 154.4 169.802Z"
            fill="#263238" />
        <path d="M185.776 159.648L156.327 166.052L156.875 168.45L186.323 162.046L185.776 159.648Z"
            fill="#E0E0E0" />
        <path
            d="M147.08 154.031L147.523 153.35L148.838 154.064L150.531 151.572L151.185 152.014L149.002 155.154L147.08 154.031Z"
            fill="#E71D36" />
        <path
            d="M148.658 160.939L149.1 160.258L150.416 160.972L152.107 158.48L152.763 158.922L150.578 162.06L148.658 160.939Z"
            fill="#E71D36" />
        <path
            d="M150.277 168.021L150.719 167.342L152.032 168.056L153.726 165.564L154.379 166.004L152.197 169.144L150.277 168.021Z"
            fill="#E71D36" />
        <path
            d="M163.755 176.906C163.755 176.936 161.274 177.501 158.201 178.162C155.128 178.823 152.631 179.348 152.626 179.32C152.621 179.292 155.105 178.727 158.178 178.064C161.251 177.401 163.748 176.881 163.755 176.906Z"
            fill="#263238" />
        <path
            d="M169.299 175.615C168.628 175.817 167.946 175.984 167.256 176.117C166.577 176.282 165.889 176.414 165.197 176.511C165.868 176.31 166.549 176.142 167.238 176.009C168.368 175.765 169.294 175.587 169.299 175.615Z"
            fill="#263238" />
        <path
            d="M187.661 169.975C187.661 170.003 185.43 170.515 182.665 171.116C179.901 171.716 177.652 172.181 177.646 172.153C177.641 172.125 179.875 171.615 182.642 171.013C185.409 170.41 187.656 169.947 187.661 169.975Z"
            fill="#263238" />
        <path
            d="M185.273 176.587C185.273 176.587 185.296 176.519 185.322 176.388C185.356 176.195 185.345 175.997 185.291 175.808C185.199 175.509 185.08 175.219 184.936 174.941C184.73 174.573 184.61 174.165 184.583 173.746C184.589 173.488 184.65 173.234 184.763 173.001C184.876 172.768 185.037 172.56 185.237 172.392C185.471 172.202 185.751 172.074 186.05 172.02C186.349 171.966 186.658 171.987 186.946 172.083C187.262 172.177 187.545 172.357 187.759 172.603C187.874 172.735 187.941 172.9 187.952 173.072C187.955 173.165 187.927 173.257 187.873 173.333C187.819 173.41 187.741 173.467 187.651 173.497C187.483 173.55 187.311 173.591 187.136 173.62L186.622 173.723C186.277 173.791 185.927 173.851 185.566 173.896C184.868 173.995 184.16 173.999 183.461 173.909C183.145 173.843 182.815 173.895 182.537 174.055C182.316 174.272 182.128 174.52 181.981 174.791C181.891 174.924 181.767 175.031 181.621 175.102C181.472 175.166 181.304 175.174 181.15 175.122C180.885 175.007 180.633 174.866 180.398 174.7C180.289 174.63 180.165 174.584 180.035 174.567C179.914 174.554 179.791 174.583 179.69 174.65C179.512 174.809 179.365 174.998 179.255 175.208C179.138 175.388 178.978 175.537 178.789 175.644C178.6 175.751 178.387 175.811 178.169 175.821C177.839 175.834 177.516 175.722 177.268 175.509C177.112 175.378 176.99 175.213 176.911 175.027C176.883 174.963 176.863 174.897 176.851 174.828C176.851 174.828 176.874 174.896 176.931 175.019C177.015 175.197 177.139 175.353 177.294 175.477C177.536 175.677 177.847 175.779 178.164 175.763C178.372 175.752 178.575 175.693 178.754 175.589C178.933 175.485 179.084 175.341 179.194 175.168C179.307 174.948 179.46 174.75 179.646 174.585C179.764 174.505 179.906 174.469 180.048 174.482C180.189 174.502 180.324 174.551 180.444 174.625C180.675 174.785 180.922 174.922 181.18 175.034C181.313 175.078 181.457 175.072 181.585 175.017C181.716 174.953 181.825 174.855 181.901 174.733C182.054 174.455 182.248 174.201 182.478 173.979C182.62 173.88 182.787 173.819 182.962 173.803C183.133 173.786 183.305 173.786 183.476 173.803C184.168 173.891 184.868 173.887 185.559 173.791C185.914 173.746 186.261 173.683 186.606 173.618L187.121 173.517C187.286 173.487 187.449 173.448 187.61 173.399C187.68 173.377 187.742 173.333 187.784 173.275C187.827 173.216 187.849 173.145 187.847 173.072C187.835 172.922 187.776 172.779 187.677 172.663C187.474 172.427 187.206 172.253 186.905 172.161C186.632 172.07 186.34 172.049 186.056 172.099C185.772 172.149 185.506 172.269 185.283 172.447C185.091 172.606 184.936 172.803 184.827 173.025C184.718 173.246 184.658 173.487 184.65 173.733C184.673 174.143 184.786 174.543 184.979 174.906C185.122 175.188 185.236 175.483 185.322 175.786C185.372 175.98 185.377 176.182 185.335 176.378C185.323 176.45 185.302 176.52 185.273 176.587Z"
            fill="#263238" />
        <path
            d="M190.593 173.371C190.55 173.388 190.505 173.402 190.459 173.412L190.068 173.502L188.632 173.826C187.422 174.102 185.749 174.489 183.909 174.944C182.068 175.399 180.408 175.838 179.211 176.16L177.791 176.542L177.402 176.642C177.357 176.656 177.312 176.666 177.266 176.672C177.307 176.65 177.351 176.633 177.397 176.622L177.778 176.504C178.11 176.401 178.591 176.253 179.188 176.089C180.385 175.748 182.04 175.298 183.883 174.833C185.726 174.369 187.399 174.002 188.616 173.748C189.224 173.62 189.718 173.52 190.06 173.454L190.454 173.381C190.5 173.374 190.546 173.371 190.593 173.371Z"
            fill="#263238" />
        <path d="M169.482 118.251L149.492 122.598L150.329 126.264L170.319 121.917L169.482 118.251Z"
            fill="#E0E0E0" />
        <path
            d="M188.392 177.737L194.85 211.037L200.752 200.394L211.938 206.802L200.065 174.376L188.392 177.737Z"
            fill="#E71D36" />
        <g opacity="0.3">
            <path
                d="M190.564 188.936C191.179 189.049 191.813 189.015 192.411 188.836C193.009 188.657 193.554 188.339 193.998 187.909C194.587 187.316 194.979 186.507 195.72 186.11C196.386 185.753 197.208 185.804 197.941 186.002C198.675 186.201 199.364 186.53 200.098 186.715C200.822 186.895 201.575 186.933 202.314 186.826C203.053 186.719 203.762 186.47 204.401 186.092L202.538 181.043L193.89 179.988L189.772 184.824L190.564 188.936Z"
                fill="black" />
        </g>
        <path
            d="M200.332 199.072C200.296 199.072 199.334 195.621 198.183 191.348C197.033 187.075 196.124 183.598 196.165 183.59C196.206 183.583 197.161 187.037 198.312 191.315C199.462 195.593 200.368 199.062 200.332 199.072Z"
            fill="#263238" />
        <path
            d="M189.337 179.468L182.879 212.768L176.977 202.127L165.792 208.533L177.665 176.107L189.337 179.468Z"
            fill="#E71D36" />
        <g opacity="0.3">
            <path
                d="M174.113 185.806C174.113 185.806 175.95 187.281 178.141 186.602C180.331 185.924 181.692 185.778 182.879 186.602C184.066 187.426 187.275 190.107 187.275 190.107L188.019 186.266L183.708 180.488L179.209 181.375L176.007 181.679L174.815 183.882L174.113 185.806Z"
                fill="black" />
        </g>
        <path
            d="M227.2 149.409C227.2 151.798 224.073 153.855 223.615 156.114C223.144 158.44 225.218 161.507 224.31 163.65C223.401 165.793 219.677 166.561 218.357 168.498C217.036 170.435 217.731 174.062 216.04 175.715C214.349 177.368 210.635 176.672 208.646 177.976C206.656 179.28 205.91 182.882 203.678 183.786C201.485 184.673 198.342 182.648 195.957 183.108C193.64 183.555 191.535 186.607 189.087 186.607C186.639 186.607 184.529 183.555 182.215 183.108C179.832 182.648 176.689 184.673 174.493 183.786C172.298 182.9 171.513 179.265 169.528 177.976C167.544 176.687 163.827 177.366 162.131 175.715C160.435 174.065 161.151 170.44 159.815 168.498C158.479 166.556 154.788 165.828 153.864 163.65C152.94 161.472 155.03 158.442 154.559 156.114C154.101 153.853 150.971 151.798 150.971 149.409C150.971 147.02 154.101 144.96 154.559 142.702C155.03 140.376 152.953 137.308 153.864 135.166C154.775 133.023 158.497 132.254 159.815 130.32C161.133 128.386 160.44 124.756 162.131 123.1C163.822 121.445 167.536 122.143 169.528 120.839C171.521 119.536 172.262 115.933 174.493 115.031C176.725 114.13 179.829 116.169 182.215 115.71C184.531 115.263 186.639 112.208 189.087 112.208C191.535 112.208 193.643 115.263 195.957 115.71C198.34 116.169 201.483 114.142 203.678 115.031C205.91 115.933 206.661 119.553 208.646 120.839C210.63 122.126 214.347 121.45 216.04 123.1C217.734 124.751 217.021 128.376 218.357 130.32C219.692 132.264 223.383 132.988 224.31 135.166C225.236 137.344 223.144 140.373 223.615 142.702C224.073 144.96 227.2 147.012 227.2 149.409Z"
            fill="#E71D36" />
        <path
            d="M180.169 128.556C180.169 128.556 180.14 128.524 180.099 128.453C180.058 128.383 179.994 128.27 179.924 128.147C179.772 127.881 179.564 127.489 179.317 127.001C178.82 126.027 178.177 124.655 177.556 123.108C176.936 121.56 176.46 120.123 176.148 119.088C175.994 118.563 175.876 118.139 175.801 117.832C175.767 117.697 175.739 117.581 175.719 117.491C175.705 117.452 175.698 117.411 175.698 117.37C175.718 117.407 175.734 117.446 175.744 117.486L175.85 117.82C175.95 118.129 176.081 118.546 176.238 119.051C176.573 120.088 177.065 121.513 177.68 123.07C178.295 124.628 178.928 125.987 179.402 126.971L179.971 128.134L180.122 128.451C180.141 128.485 180.157 128.52 180.169 128.556Z"
            fill="#263238" />
        <path
            d="M183.561 127.298C183.516 127.21 183.482 127.117 183.461 127.022C183.407 126.841 183.335 126.577 183.25 126.25C183.08 125.6 182.869 124.69 182.678 123.68C182.488 122.671 182.354 121.749 182.277 121.081C182.236 120.746 182.21 120.475 182.194 120.287C182.183 120.19 182.183 120.092 182.194 119.995C182.224 120.089 182.244 120.185 182.254 120.282L182.377 121.068C182.48 121.734 182.635 122.651 182.817 123.658C183 124.665 183.203 125.575 183.347 126.23C183.417 126.537 183.474 126.798 183.52 127.009C183.543 127.104 183.557 127.2 183.561 127.298Z"
            fill="#263238" />
        <path
            d="M189.545 126.718C189.507 126.718 189.412 123.899 189.332 120.425C189.252 116.951 189.216 114.13 189.252 114.127C189.288 114.125 189.386 116.943 189.466 120.422C189.545 123.902 189.581 126.718 189.545 126.718Z"
            fill="#263238" />
        <path
            d="M195.568 120.927C195.604 120.927 195.187 122.347 194.639 124.075C194.091 125.803 193.609 127.192 193.584 127.182C193.558 127.172 193.965 125.763 194.513 124.035C195.061 122.306 195.529 120.917 195.568 120.927Z"
            fill="#263238" />
        <path
            d="M198.023 128.21C198.028 128.168 198.04 128.127 198.057 128.089L198.173 127.758C198.276 127.471 198.43 127.059 198.636 126.552C199.04 125.547 199.617 124.143 200.276 122.61C200.934 121.078 201.547 119.699 201.997 118.704C202.219 118.222 202.402 117.825 202.541 117.528L202.692 117.212C202.731 117.142 202.752 117.104 202.757 117.106C202.747 117.146 202.734 117.185 202.718 117.222L202.587 117.549L202.085 118.742C201.645 119.762 201.055 121.138 200.399 122.663C199.743 124.188 199.161 125.565 198.724 126.587L198.222 127.778L198.08 128.099C198.066 128.138 198.047 128.175 198.023 128.21Z"
            fill="#263238" />
        <path
            d="M201.23 129.848C201.27 129.759 201.319 129.674 201.377 129.596C201.48 129.436 201.635 129.207 201.825 128.928C202.211 128.373 202.767 127.614 203.413 126.805C204.059 125.997 204.679 125.298 205.138 124.796C205.367 124.545 205.557 124.346 205.691 124.211C205.755 124.135 205.829 124.068 205.91 124.01C205.86 124.095 205.799 124.175 205.73 124.246C205.591 124.411 205.416 124.615 205.215 124.856C204.775 125.374 204.17 126.09 203.524 126.898C202.878 127.707 202.314 128.453 201.907 128.996L201.426 129.637C201.369 129.713 201.303 129.784 201.23 129.848Z"
            fill="#263238" />
        <path
            d="M205.92 133.591C205.894 133.565 207.933 131.676 210.468 129.373C213.003 127.069 215.083 125.223 215.101 125.248C215.119 125.273 213.091 127.165 210.553 129.468C208.015 131.772 205.946 133.618 205.92 133.591Z"
            fill="#263238" />
        <path
            d="M214.099 134.372C213.851 134.525 213.593 134.663 213.327 134.784C212.843 135.035 212.187 135.384 211.461 135.789C210.736 136.193 210.066 136.53 209.57 136.756C209.312 136.869 209.122 136.957 208.978 137.007C208.907 137.043 208.832 137.068 208.754 137.082C209.002 136.929 209.26 136.791 209.526 136.67C210.01 136.419 210.666 136.07 211.392 135.665C212.118 135.261 212.787 134.912 213.284 134.698C213.541 134.585 213.731 134.497 213.876 134.447C213.946 134.41 214.021 134.385 214.099 134.372Z"
            fill="#263238" />
        <path
            d="M221.664 137.434C221.677 137.469 219.252 138.333 216.259 139.366C213.266 140.398 210.813 141.205 210.803 141.172C210.792 141.139 213.212 140.273 216.208 139.24C219.203 138.208 221.651 137.401 221.664 137.434Z"
            fill="#263238" />
        <path
            d="M224.073 150.866C224.073 150.901 221.435 150.688 218.19 150.386C214.944 150.085 212.313 149.811 212.319 149.773C212.324 149.736 214.954 149.954 218.202 150.256C221.451 150.557 224.076 150.831 224.073 150.866Z"
            fill="#263238" />
        <path
            d="M222.135 162.914C222.12 162.946 219.657 161.841 216.635 160.449C213.613 159.058 211.176 157.9 211.191 157.867C211.207 157.834 213.67 158.937 216.692 160.331C219.713 161.726 222.151 162.881 222.135 162.914Z"
            fill="#263238" />
        <path
            d="M214.033 174.376C214.004 174.399 212.231 172.387 210.066 169.885C207.902 167.383 206.172 165.33 206.206 165.308C206.239 165.285 208.007 167.295 210.172 169.799C212.336 172.304 214.061 174.351 214.033 174.376Z"
            fill="#263238" />
        <path
            d="M207.269 175.901C207.189 175.814 207.117 175.72 207.055 175.62C206.924 175.434 206.738 175.16 206.517 174.821C206.069 174.14 205.47 173.188 204.836 172.12C204.203 171.053 203.663 170.068 203.292 169.357C203.104 168.998 202.952 168.707 202.855 168.503C202.796 168.4 202.748 168.291 202.71 168.179C202.783 168.273 202.847 168.373 202.901 168.478C203.024 168.699 203.184 168.98 203.377 169.314C203.776 170.02 204.332 170.995 204.963 172.063C205.593 173.13 206.18 174.087 206.607 174.778C206.808 175.11 206.978 175.384 207.109 175.6C207.174 175.694 207.227 175.795 207.269 175.901Z"
            fill="#263238" />
        <path
            d="M203.068 181.654C203.068 181.654 203.042 181.621 203.001 181.551L202.834 181.244C202.687 180.975 202.489 180.584 202.252 180.096C201.779 179.119 201.169 177.747 200.589 176.195C200.01 174.643 199.573 173.211 199.303 172.176C199.161 171.653 199.045 171.226 198.989 170.932C198.96 170.797 198.937 170.681 198.916 170.591C198.906 170.551 198.9 170.511 198.898 170.47C198.919 170.506 198.934 170.545 198.942 170.586L199.04 170.92C199.13 171.231 199.248 171.646 199.393 172.151C199.696 173.188 200.147 174.615 200.726 176.17C201.305 177.725 201.897 179.089 202.35 180.076L202.89 181.239C202.947 181.365 202.996 181.47 203.037 181.556C203.052 181.587 203.062 181.62 203.068 181.654Z"
            fill="#263238" />
        <path
            d="M194.559 177.612C194.503 177.323 194.466 177.031 194.448 176.738C194.389 176.198 194.294 175.451 194.155 174.635C194.016 173.819 193.854 173.085 193.73 172.555C193.649 172.271 193.587 171.983 193.545 171.691C193.583 171.761 193.613 171.835 193.632 171.912C193.684 172.058 193.748 172.269 193.823 172.532C193.97 173.057 194.145 173.788 194.286 174.615C194.409 175.315 194.495 176.021 194.544 176.73C194.562 177.001 194.572 177.232 194.572 177.376C194.579 177.455 194.574 177.534 194.559 177.612Z"
            fill="#263238" />
        <path
            d="M188.992 184.844C188.986 184.801 188.986 184.758 188.992 184.716C188.992 184.615 188.992 184.492 188.992 184.347C188.992 184.025 188.992 183.56 188.992 182.988C189.013 181.84 189.067 180.257 189.159 178.511C189.252 176.765 189.368 175.183 189.463 174.04C189.509 173.467 189.553 173.005 189.587 172.686C189.605 172.54 189.617 172.417 189.628 172.319C189.631 172.275 189.639 172.232 189.653 172.191C189.66 172.234 189.66 172.278 189.653 172.321C189.653 172.419 189.653 172.542 189.635 172.691C189.615 173.03 189.589 173.487 189.556 174.045C189.486 175.208 189.394 176.78 189.298 178.516C189.203 180.252 189.136 181.845 189.092 182.99C189.072 183.548 189.054 183.995 189.041 184.347C189.041 184.495 189.025 184.615 189.02 184.716C189.017 184.76 189.008 184.803 188.992 184.844Z"
            fill="#263238" />
        <path
            d="M184.467 172.191C184.465 172.407 184.439 172.623 184.39 172.834C184.323 173.226 184.215 173.766 184.073 174.356C183.932 174.946 183.783 175.479 183.664 175.863C183.613 176.074 183.538 176.277 183.44 176.471C183.463 176.257 183.507 176.045 183.571 175.838L183.942 174.331C184.076 173.766 184.199 173.253 184.297 172.824C184.333 172.608 184.39 172.396 184.467 172.191Z"
            fill="#263238" />
        <path
            d="M176.285 168.365C175.948 168.909 175.572 169.43 175.16 169.922C174.783 170.441 174.371 170.935 173.927 171.402C174.264 170.857 174.64 170.337 175.052 169.845C175.428 169.325 175.84 168.83 176.285 168.365Z"
            fill="#263238" />
        <path
            d="M171.994 165.541C172.02 165.564 170.424 167.395 168.427 169.628C166.43 171.862 164.785 173.648 164.757 173.63C164.728 173.613 166.327 171.776 168.324 169.543C170.321 167.31 171.966 165.516 171.994 165.541Z"
            fill="#263238" />
        <path
            d="M169.845 162.424C169.214 163.018 168.552 163.58 167.861 164.107C166.741 165.006 165.815 165.715 165.802 165.687C166.433 165.094 167.096 164.533 167.786 164.006C168.445 163.446 169.132 162.917 169.845 162.424Z"
            fill="#263238" />
        <path
            d="M167.333 157.724C167.349 157.757 165.125 158.837 162.363 160.133C159.602 161.429 157.355 162.457 157.337 162.424C157.319 162.391 159.545 161.314 162.307 160.015C165.068 158.716 167.318 157.691 167.333 157.724Z"
            fill="#263238" />
        <path
            d="M166.324 155.38C166.25 155.412 166.172 155.434 166.093 155.445C165.941 155.481 165.722 155.526 165.452 155.574C164.909 155.674 164.152 155.785 163.313 155.867C162.474 155.95 161.709 155.986 161.156 155.993C160.881 155.993 160.657 155.993 160.502 155.993C160.422 155.998 160.341 155.991 160.263 155.97C160.558 155.931 160.856 155.908 161.153 155.903C161.704 155.87 162.464 155.82 163.3 155.737C164.137 155.654 164.891 155.558 165.436 155.486C165.729 155.43 166.026 155.395 166.324 155.38Z"
            fill="#263238" />
        <path
            d="M165.508 149.967C165.358 149.979 165.208 149.979 165.058 149.967L163.833 149.906C162.803 149.856 161.372 149.811 159.794 149.818C158.217 149.826 156.786 149.889 155.754 149.949L154.531 150.022C154.381 150.039 154.231 150.044 154.081 150.037C154.227 150.003 154.376 149.981 154.526 149.972C154.814 149.939 155.231 149.899 155.746 149.856C156.775 149.773 158.212 149.698 159.792 149.688C161.372 149.678 162.806 149.741 163.841 149.813C164.355 149.851 164.775 149.886 165.063 149.916C165.213 149.923 165.361 149.94 165.508 149.967Z"
            fill="#263238" />
        <path
            d="M166.013 145.214C166.013 145.249 164.337 144.824 162.291 144.267C160.245 143.709 158.595 143.232 158.605 143.197C158.616 143.161 160.281 143.584 162.327 144.141C164.373 144.699 166.023 145.179 166.013 145.214Z"
            fill="#263238" />
        <path
            d="M167.091 141.235C167.05 141.232 167.009 141.224 166.97 141.21L166.628 141.109C166.335 141.019 165.91 140.878 165.393 140.695C164.041 140.21 162.716 139.657 161.424 139.037C160.132 138.416 158.875 137.728 157.658 136.977C157.192 136.688 156.819 136.447 156.567 136.273L156.279 136.07C156.214 136.022 156.181 135.997 156.183 135.992C156.222 136.007 156.26 136.027 156.294 136.05L156.598 136.231C156.855 136.391 157.236 136.62 157.707 136.899C158.652 137.457 159.975 138.193 161.483 138.909C162.991 139.624 164.397 140.207 165.426 140.599C165.941 140.793 166.355 140.946 166.646 141.051L166.978 141.174C167.018 141.191 167.055 141.212 167.091 141.235Z"
            fill="#263238" />
        <path
            d="M169.513 137.215C169.493 137.243 168.19 136.384 166.605 135.294C165.019 134.203 163.75 133.297 163.774 133.266C163.797 133.236 165.096 134.098 166.685 135.188C168.273 136.278 169.534 137.193 169.513 137.215Z"
            fill="#263238" />
        <path
            d="M164.394 125.012C164.394 125.012 164.43 125.032 164.492 125.08L164.749 125.301L165.699 126.12L168.816 128.835L171.945 131.536L172.893 132.357L173.15 132.586C173.181 132.611 173.209 132.639 173.232 132.671C173.232 132.671 173.196 132.654 173.132 132.606L172.875 132.397C172.64 132.214 172.308 131.943 171.899 131.606C171.081 130.933 169.964 129.991 168.741 128.933C167.518 127.876 166.425 126.901 165.652 126.188C165.261 125.831 164.947 125.542 164.731 125.336L164.486 125.1C164.425 125.045 164.389 125.014 164.394 125.012Z"
            fill="#263238" />
        <path
            d="M172.422 125.24C172.422 125.24 172.491 125.296 172.597 125.414C172.702 125.532 172.854 125.705 173.032 125.916C173.389 126.353 173.866 126.971 174.36 127.675C174.854 128.378 175.268 129.036 175.554 129.521C175.698 129.772 175.811 129.961 175.883 130.099C175.928 130.168 175.963 130.242 175.986 130.32C175.798 130.08 175.626 129.828 175.472 129.566C175.165 129.094 174.738 128.448 174.246 127.745C173.755 127.042 173.292 126.421 172.96 125.971C172.766 125.738 172.586 125.494 172.422 125.24Z"
            fill="#263238" />
        <g opacity="0.2">
            <path
                d="M162.134 123.103L173.333 132.671L176.115 130.498L169.619 120.782C169.619 120.782 169.119 121.138 167.817 121.5C166.574 121.849 162.88 121.942 162.134 123.103Z"
                fill="black" />
        </g>
        <g opacity="0.2">
            <path
                d="M174.599 115.009L180.066 128.365L183.561 127.298L182.395 115.712C182.395 115.712 181.796 115.85 180.46 115.685C179.165 115.524 176.028 114.326 174.599 115.009Z"
                fill="black" />
        </g>
        <g opacity="0.3">
            <path
                d="M189.177 112.213L189.545 126.718L192.819 126.871L196.134 115.737C195.446 115.604 194.79 115.339 194.206 114.959C193.074 114.25 190.763 112.095 189.177 112.213Z"
                fill="black" />
        </g>
        <g opacity="0.2">
            <path
                d="M203.457 114.954L198.023 128.325L200.973 129.704L208.45 120.696C207.888 120.233 207.409 119.682 207.032 119.066C206.327 117.953 205.112 115.398 203.457 114.954Z"
                fill="black" />
        </g>
        <g opacity="0.2">
            <path
                d="M216.218 123.296L206.097 133.596L208.352 136.562L218.241 130.121C217.915 129.536 217.695 128.9 217.59 128.242C217.353 126.986 217.319 124.705 216.218 123.296Z"
                fill="black" />
        </g>
        <g opacity="0.2">
            <path
                d="M224.207 134.917L210.579 140.391L211.709 143.789L223.566 142.533C223.566 142.533 223.492 142.177 223.649 140.873C223.798 139.609 225.167 136.786 224.207 134.917Z"
                fill="black" />
        </g>
        <g opacity="0.2">
            <path
                d="M227.226 149.409L212.367 149.911L212.244 153.109L223.569 156.345C223.644 155.884 223.795 155.439 224.017 155.026C224.861 153.489 227.226 151.318 227.226 149.409Z"
                fill="black" />
        </g>
        <g opacity="0.2">
            <path
                d="M224.485 163.12L210.805 157.917L209.423 160.829L218.732 168.021C219.222 167.563 219.763 167.162 220.346 166.825C221.479 166.119 224.171 164.976 224.485 163.12Z"
                fill="black" />
        </g>
        <g opacity="0.2">
            <path
                d="M204.365 162.914L200.978 165.677C201.235 165.928 205.747 173.424 208.53 178.051C208.566 178.021 208.604 177.992 208.643 177.966C210.473 176.77 213.731 177.25 215.569 176.067L204.365 162.914Z"
                fill="black" />
            <path
                d="M198.142 168.159L193.087 169.842L195.48 183.236C195.636 183.183 195.795 183.14 195.956 183.108C198.34 182.648 201.483 184.673 203.678 183.786C203.979 183.661 204.258 183.491 204.507 183.284L198.142 168.159Z"
                fill="black" />
            <path
                d="M188.912 186.602L189.718 169.103L185.342 168.021L182.091 183.093L182.21 183.113C184.475 183.543 186.536 186.452 188.912 186.602Z"
                fill="black" />
            <path
                d="M177.922 166.132C177.922 166.132 172.146 173.683 169.125 177.747C169.264 177.816 169.4 177.892 169.531 177.976C171.516 179.272 172.265 182.882 174.496 183.786C174.599 183.827 174.705 183.859 174.81 183.889L182.879 168.983L177.922 166.132Z"
                fill="black" />
            <path
                d="M171.994 160.053L159.676 168.315C159.722 168.375 159.774 168.433 159.815 168.496C161.153 170.445 160.44 174.06 162.131 175.713C162.288 175.862 162.46 175.995 162.646 176.107C166.999 171.319 174.813 162.723 175.096 162.424L171.994 160.053Z"
                fill="black" />
            <path
                d="M169.171 154.152L154.606 156.448C154.84 158.729 152.997 161.607 153.864 163.647C153.917 163.772 153.979 163.892 154.052 164.006C159.148 161.53 169.796 156.377 170.239 156.35L169.171 154.152Z"
                fill="black" />
            <path
                d="M168.375 146.234L154.608 142.358C154.595 142.473 154.58 142.589 154.559 142.702C154.101 144.963 150.971 147.02 150.971 149.409C150.972 149.568 150.986 149.727 151.012 149.884H167.817L168.375 146.234Z"
                fill="black" />
            <path
                d="M153.921 135.063C159.069 137.753 169.124 143.197 169.124 143.197L171.601 138.607L159.972 130.066C159.92 130.154 159.872 130.244 159.815 130.317C158.505 132.224 154.92 132.968 153.921 135.063Z"
                fill="black" />
        </g>
        <path
            d="M227.2 149.409L227.185 149.248C227.179 149.091 227.156 148.934 227.118 148.781C226.968 148.179 226.706 147.608 226.346 147.098C225.903 146.405 225.234 145.628 224.544 144.646C224.155 144.124 223.856 143.542 223.659 142.925C223.491 142.205 223.491 141.457 223.659 140.737C223.803 139.971 224.037 139.182 224.24 138.346C224.444 137.509 224.634 136.605 224.444 135.681C224.336 135.213 224.116 134.776 223.803 134.407C223.467 134.031 223.083 133.698 222.66 133.417C221.806 132.824 220.822 132.352 219.883 131.734C219.397 131.428 218.955 131.06 218.57 130.639C218.192 130.182 217.918 129.652 217.765 129.084C217.435 127.941 217.361 126.72 217.111 125.499C217.002 124.878 216.787 124.278 216.475 123.726C216.137 123.17 215.623 122.735 215.011 122.487C214.379 122.239 213.717 122.071 213.042 121.985C212.36 121.874 211.66 121.796 210.959 121.676C210.242 121.575 209.547 121.36 208.9 121.04C208.26 120.664 207.717 120.148 207.315 119.533C206.888 118.935 206.52 118.292 206.128 117.657C205.754 117.006 205.305 116.4 204.79 115.848C204.26 115.29 203.536 114.943 202.759 114.876C201.966 114.847 201.172 114.938 200.407 115.145C199.635 115.328 198.842 115.551 198.031 115.7C197.212 115.888 196.357 115.873 195.545 115.654C194.754 115.351 194.013 114.934 193.349 114.416C192.662 113.914 191.993 113.411 191.259 112.964C190.526 112.517 189.695 112.193 188.83 112.288H188.668C188.614 112.288 188.562 112.311 188.511 112.321C188.405 112.346 188.297 112.364 188.194 112.394C187.987 112.458 187.784 112.535 187.587 112.625C187.188 112.81 186.806 113.026 186.444 113.271C185.713 113.773 185.02 114.321 184.269 114.818C183.895 115.074 183.499 115.297 183.085 115.486C182.661 115.671 182.207 115.783 181.744 115.815C180.815 115.821 179.891 115.693 179 115.436C178.104 115.186 177.189 115.002 176.264 114.886C175.802 114.841 175.336 114.872 174.885 114.976C174.435 115.098 174.02 115.32 173.672 115.624C172.962 116.23 172.468 117.044 171.974 117.842C171.507 118.679 170.962 119.471 170.345 120.209C170.018 120.574 169.625 120.878 169.186 121.106C168.738 121.312 168.268 121.469 167.784 121.573C166.816 121.781 165.827 121.869 164.852 122.04C163.876 122.211 162.88 122.48 162.175 123.148C161.835 123.502 161.572 123.92 161.403 124.376C161.233 124.837 161.108 125.312 161.03 125.796C160.85 126.765 160.772 127.76 160.515 128.737C160.404 129.233 160.22 129.711 159.967 130.154C159.7 130.593 159.351 130.98 158.937 131.292C158.124 131.93 157.2 132.402 156.315 132.93C155.871 133.19 155.445 133.479 155.041 133.794C154.638 134.108 154.299 134.493 154.042 134.929C153.797 135.374 153.673 135.872 153.682 136.376C153.691 136.884 153.752 137.388 153.864 137.884C154.08 138.888 154.407 139.876 154.582 140.898C154.686 141.423 154.707 141.96 154.644 142.491C154.571 143.02 154.396 143.532 154.129 143.998C153.591 144.915 152.891 145.721 152.271 146.575C151.953 146.996 151.675 147.445 151.442 147.917C151.187 148.377 151.054 148.891 151.054 149.414C151.054 149.937 151.187 150.451 151.442 150.911C151.675 151.383 151.952 151.832 152.271 152.253C152.891 153.107 153.591 153.913 154.129 154.83C154.392 155.288 154.566 155.788 154.644 156.307C154.71 156.831 154.692 157.361 154.593 157.88C154.42 158.912 154.093 159.902 153.875 160.907C153.763 161.402 153.702 161.907 153.692 162.414C153.682 162.919 153.805 163.418 154.05 163.863C154.305 164.301 154.643 164.687 155.046 165.001C155.451 165.316 155.876 165.605 156.32 165.865C157.205 166.393 158.121 166.87 158.945 167.503C159.358 167.816 159.707 168.202 159.975 168.641C160.229 169.083 160.414 169.56 160.523 170.056C160.765 171.035 160.847 172.03 161.038 173C161.117 173.483 161.243 173.958 161.413 174.419C161.578 174.875 161.837 175.294 162.173 175.65C162.886 176.326 163.889 176.594 164.852 176.765C165.815 176.936 166.816 177.016 167.784 177.232C168.268 177.337 168.74 177.493 169.189 177.7C169.627 177.928 170.02 178.232 170.347 178.597C170.958 179.335 171.498 180.127 171.961 180.963C172.455 181.762 172.949 182.576 173.66 183.181C174.007 183.485 174.42 183.706 174.869 183.829C175.325 183.941 175.796 183.979 176.264 183.94C177.187 183.819 178.1 183.631 178.995 183.379C179.886 183.12 180.812 182.991 181.741 182.998C182.205 183.032 182.658 183.144 183.082 183.329C183.496 183.519 183.892 183.742 184.266 183.997C185.018 184.5 185.708 185.055 186.441 185.542C186.802 185.789 187.184 186.006 187.581 186.19C187.779 186.28 187.982 186.357 188.189 186.422C188.294 186.449 188.4 186.469 188.505 186.494L188.665 186.527H188.825C189.692 186.623 190.526 186.276 191.257 185.851C191.988 185.427 192.66 184.892 193.344 184.399C194.009 183.881 194.75 183.464 195.542 183.161C196.354 182.944 197.209 182.928 198.029 183.116C198.839 183.266 199.622 183.49 200.404 183.673C201.171 183.878 201.965 183.968 202.759 183.942C203.535 183.872 204.257 183.525 204.787 182.967C205.301 182.414 205.749 181.806 206.126 181.156C206.514 180.523 206.883 179.88 207.31 179.28C207.714 178.665 208.257 178.15 208.898 177.773C209.544 177.452 210.24 177.238 210.957 177.14C211.66 177.016 212.357 176.939 213.039 176.831C213.715 176.741 214.377 176.568 215.008 176.316C215.62 176.067 216.133 175.633 216.473 175.077C216.782 174.524 216.996 173.925 217.106 173.304C217.363 172.083 217.43 170.859 217.762 169.716C217.914 169.149 218.188 168.619 218.568 168.164C218.952 167.742 219.393 167.373 219.88 167.069C220.82 166.451 221.803 165.978 222.655 165.386C223.079 165.105 223.465 164.771 223.8 164.393C224.113 164.025 224.332 163.589 224.439 163.122C224.528 162.671 224.541 162.209 224.477 161.753C224.424 161.317 224.343 160.884 224.235 160.457C224.029 159.62 223.798 158.832 223.654 158.065C223.486 157.345 223.486 156.598 223.654 155.877C223.851 155.261 224.15 154.68 224.539 154.157C225.237 153.175 225.908 152.398 226.341 151.705C226.702 151.195 226.963 150.624 227.113 150.022C227.151 149.869 227.174 149.712 227.18 149.555L227.195 149.396C227.195 149.396 227.195 149.449 227.195 149.555C227.19 149.713 227.17 149.87 227.133 150.024C226.987 150.632 226.725 151.207 226.361 151.72C225.921 152.418 225.255 153.197 224.56 154.179C224.173 154.698 223.879 155.276 223.687 155.89C223.52 156.603 223.52 157.343 223.687 158.055C223.831 158.809 224.065 159.605 224.274 160.442C224.386 160.872 224.472 161.308 224.531 161.748C224.595 162.209 224.582 162.678 224.493 163.135C224.385 163.613 224.163 164.059 223.844 164.436C223.505 164.818 223.117 165.156 222.688 165.441C221.829 166.039 220.848 166.514 219.914 167.129C219.437 167.432 219.004 167.796 218.627 168.212C218.255 168.66 217.987 169.181 217.839 169.739C217.512 170.869 217.44 172.09 217.188 173.319C217.079 173.95 216.863 174.559 216.547 175.12C216.2 175.692 215.673 176.139 215.044 176.396C214.406 176.652 213.738 176.827 213.055 176.918C212.37 177.029 211.67 177.107 210.972 177.23C210.264 177.329 209.577 177.54 208.939 177.855C208.316 178.224 207.788 178.727 207.395 179.325C206.973 179.92 206.605 180.561 206.213 181.199C205.835 181.856 205.382 182.469 204.865 183.028C204.317 183.604 203.571 183.962 202.77 184.033C201.964 184.064 201.158 183.973 200.381 183.764C199.596 183.58 198.814 183.359 198.011 183.211C197.209 183.028 196.373 183.043 195.578 183.254C194.798 183.554 194.069 183.966 193.414 184.477C192.732 184.967 192.06 185.495 191.319 185.937C191.126 186.037 190.943 186.155 190.742 186.238C190.642 186.283 190.544 186.331 190.444 186.371L190.132 186.479C189.71 186.621 189.261 186.672 188.817 186.63L188.65 186.618C188.596 186.618 188.541 186.595 188.485 186.585C188.377 186.56 188.266 186.54 188.161 186.509C187.947 186.445 187.738 186.366 187.535 186.273C187.131 186.086 186.744 185.867 186.377 185.618C185.638 185.115 184.946 184.568 184.202 184.073C183.832 183.823 183.442 183.603 183.036 183.415C182.625 183.236 182.185 183.128 181.736 183.096C180.819 183.092 179.905 183.219 179.026 183.475C178.122 183.735 177.198 183.927 176.264 184.05C175.787 184.096 175.305 184.064 174.838 183.957C174.371 183.83 173.939 183.6 173.577 183.284C172.846 182.659 172.347 181.837 171.853 181.036C171.395 180.207 170.859 179.421 170.252 178.689C169.936 178.336 169.555 178.042 169.13 177.823C168.691 177.619 168.23 177.466 167.755 177.366C166.798 177.16 165.812 177.072 164.829 176.898C164.333 176.818 163.847 176.694 163.375 176.527C162.896 176.355 162.458 176.09 162.088 175.748C161.736 175.382 161.467 174.948 161.298 174.474C161.124 174.006 160.995 173.524 160.914 173.032C160.734 172.055 160.657 171.06 160.399 170.096C160.292 169.612 160.112 169.148 159.864 168.717C159.603 168.291 159.263 167.916 158.86 167.614C158.062 166.988 157.141 166.516 156.253 165.986C155.805 165.722 155.375 165.43 154.966 165.112C154.55 164.786 154.2 164.386 153.936 163.934C153.682 163.471 153.555 162.952 153.566 162.426C153.572 161.907 153.634 161.389 153.751 160.881C153.97 159.877 154.297 158.872 154.467 157.867C154.564 157.361 154.58 156.843 154.515 156.332C154.438 155.824 154.263 155.335 154.001 154.89C153.486 153.986 152.776 153.185 152.15 152.323C151.824 151.894 151.539 151.436 151.298 150.956C151.036 150.479 150.899 149.946 150.899 149.404C150.899 148.862 151.036 148.329 151.298 147.851C151.536 147.373 151.818 146.917 152.142 146.49C152.768 145.628 153.465 144.827 153.99 143.925C154.252 143.479 154.427 142.989 154.505 142.481C154.565 141.969 154.548 141.452 154.454 140.946C154.281 139.941 153.954 138.936 153.736 137.931C153.621 137.425 153.559 136.908 153.553 136.389C153.543 135.864 153.671 135.345 153.926 134.882C154.192 134.431 154.541 134.032 154.956 133.706C155.364 133.387 155.794 133.095 156.243 132.832C157.13 132.302 158.044 131.827 158.85 131.204C159.252 130.901 159.591 130.527 159.851 130.101C160.098 129.669 160.277 129.203 160.384 128.72C160.623 127.755 160.706 126.763 160.899 125.786C160.979 125.294 161.107 124.812 161.279 124.344C161.435 123.865 161.705 123.429 162.067 123.072C162.43 122.716 162.875 122.449 163.364 122.294C163.836 122.127 164.323 122.002 164.819 121.922C165.802 121.749 166.787 121.671 167.745 121.457C168.219 121.354 168.68 121.201 169.119 121C169.544 120.779 169.923 120.485 170.239 120.131C170.846 119.399 171.382 118.614 171.84 117.785C172.334 116.983 172.833 116.162 173.567 115.539C173.931 115.219 174.366 114.985 174.838 114.858C175.305 114.752 175.787 114.721 176.264 114.765C177.193 114.886 178.111 115.074 179.011 115.328C179.89 115.585 180.803 115.714 181.721 115.71C182.165 115.675 182.601 115.566 183.008 115.388C183.416 115.203 183.806 114.983 184.174 114.73C184.92 114.228 185.612 113.677 186.351 113.188C186.717 112.937 187.105 112.718 187.509 112.532C187.712 112.44 187.92 112.36 188.132 112.293C188.24 112.263 188.351 112.246 188.459 112.22L188.621 112.185H188.789C189.233 112.144 189.681 112.196 190.104 112.336L190.415 112.444C190.516 112.484 190.613 112.532 190.714 112.577C190.917 112.663 191.1 112.778 191.29 112.879C192.034 113.321 192.703 113.848 193.388 114.338C194.042 114.849 194.771 115.261 195.55 115.562C196.344 115.774 197.181 115.789 197.982 115.604C198.785 115.459 199.568 115.237 200.353 115.054C201.13 114.845 201.936 114.754 202.741 114.783C203.543 114.855 204.289 115.212 204.836 115.788C205.355 116.347 205.808 116.962 206.188 117.619C206.579 118.254 206.944 118.898 207.366 119.49C207.759 120.09 208.287 120.593 208.911 120.962C209.548 121.279 210.236 121.49 210.944 121.588C211.642 121.711 212.342 121.789 213.026 121.899C213.709 121.992 214.378 122.167 215.016 122.422C215.644 122.679 216.172 123.125 216.522 123.696C216.836 124.257 217.052 124.866 217.162 125.497C217.42 126.725 217.487 127.946 217.811 129.076C217.96 129.634 218.228 130.155 218.599 130.604C218.975 131.021 219.408 131.386 219.886 131.689C220.82 132.304 221.803 132.779 222.66 133.377C223.088 133.662 223.477 134 223.816 134.382C224.135 134.758 224.358 135.204 224.467 135.681C224.557 136.139 224.57 136.608 224.506 137.07C224.447 137.509 224.361 137.944 224.248 138.373C224.042 139.213 223.805 139.999 223.661 140.762C223.494 141.475 223.494 142.215 223.661 142.928C223.853 143.541 224.148 144.12 224.534 144.639C225.226 145.623 225.893 146.397 226.336 147.098C226.699 147.611 226.96 148.186 227.108 148.793C227.144 148.948 227.165 149.105 227.169 149.263C227.2 149.354 227.2 149.409 227.2 149.409Z"
            fill="#263238" />
        <path
            d="M181.927 183.94C181.963 183.94 181.013 187.708 179.806 192.335C178.599 196.962 177.59 200.708 177.554 200.7C177.518 200.693 178.468 196.932 179.675 192.302C180.882 187.673 181.901 183.92 181.927 183.94Z"
            fill="#263238" />
        <path
            d="M189.087 172.213C201.991 172.213 212.452 162.004 212.452 149.409C212.452 136.814 201.991 126.605 189.087 126.605C176.183 126.605 165.722 136.814 165.722 149.409C165.722 162.004 176.183 172.213 189.087 172.213Z"
            fill="white" />
        <path
            d="M174.699 141.506C174.378 141.82 172.607 144.965 172.445 147.56C172.283 150.155 172.666 164.72 172.666 164.72L172.736 165.687C176.941 170.488 192.23 177.632 206 165.662L206.772 156.701L204.499 137.733L196.598 135.846L194.747 132.92L182.413 135.738L181.312 138.276L174.699 141.506Z"
            fill="#455A64" />
        <path
            d="M193.9 125.293C194.443 123.321 194.976 121.337 195.164 119.304C195.352 117.272 195.179 115.172 194.351 113.298C194.224 113.014 193.182 111.118 192.868 111.165C192.644 111.198 193.318 112.982 193.216 113.175C192.225 115.052 192.044 117.255 192.33 119.347C192.625 121.379 193.151 123.373 193.9 125.291"
            fill="#263238" />
        <path
            d="M193.694 117.506C193.596 112.389 190.461 108.181 185.224 108.42L184.74 108.47C182.397 108.711 180.233 109.804 178.679 111.531C177.124 113.259 176.292 115.494 176.349 117.792C176.462 122.226 176.643 127.124 176.928 129.481C177.518 134.357 182.591 134.603 182.591 134.603L182.825 137.811L184.974 140.089L194.937 134.06L193.694 117.506Z"
            fill="#FFBF9D" />
        <path
            d="M182.604 134.641C182.604 134.641 185.777 134.497 188.915 132.091C188.915 132.091 187.864 136.515 182.825 136.587L182.604 134.641Z"
            fill="#FF9A6C" />
        <path
            d="M179.229 121.769C179.247 121.952 179.338 122.121 179.483 122.24C179.627 122.358 179.814 122.416 180.002 122.402C180.093 122.4 180.183 122.379 180.267 122.343C180.351 122.306 180.426 122.253 180.488 122.188C180.55 122.122 180.599 122.045 180.63 121.961C180.661 121.877 180.675 121.788 180.671 121.698C180.653 121.515 180.561 121.346 180.417 121.228C180.273 121.11 180.087 121.051 179.899 121.065C179.807 121.067 179.717 121.087 179.633 121.124C179.549 121.16 179.474 121.213 179.411 121.279C179.349 121.344 179.301 121.422 179.269 121.506C179.238 121.59 179.225 121.679 179.229 121.769Z"
            fill="#263238" />
        <path
            d="M177.639 119.709C177.737 119.789 178.236 119.345 179.005 119.267C179.775 119.189 180.377 119.518 180.452 119.405C180.488 119.362 180.38 119.207 180.115 119.056C179.758 118.866 179.35 118.788 178.946 118.832C178.546 118.872 178.17 119.035 177.87 119.297C177.652 119.5 177.59 119.671 177.639 119.709Z"
            fill="#263238" />
        <path
            d="M186.022 121.206C186.039 121.389 186.13 121.559 186.275 121.677C186.419 121.796 186.606 121.854 186.794 121.839C186.886 121.837 186.976 121.817 187.059 121.78C187.143 121.743 187.218 121.691 187.28 121.625C187.343 121.559 187.391 121.482 187.422 121.398C187.454 121.314 187.468 121.225 187.463 121.136C187.445 120.952 187.355 120.783 187.21 120.664C187.066 120.545 186.879 120.486 186.691 120.5C186.599 120.503 186.509 120.523 186.425 120.56C186.342 120.597 186.267 120.65 186.204 120.716C186.142 120.782 186.094 120.859 186.063 120.943C186.031 121.027 186.017 121.117 186.022 121.206Z"
            fill="#263238" />
        <path
            d="M185.203 119.237C185.301 119.32 185.803 118.872 186.57 118.795C187.337 118.717 187.944 119.046 188.016 118.935C188.052 118.89 187.947 118.734 187.682 118.586C187.324 118.395 186.915 118.317 186.511 118.362C186.11 118.401 185.733 118.564 185.435 118.827C185.219 119.028 185.157 119.201 185.203 119.237Z"
            fill="#263238" />
        <path
            d="M183.067 125.288C183.067 125.245 182.581 125.213 181.796 125.195C181.597 125.195 181.407 125.178 181.361 125.05C181.322 124.854 181.346 124.651 181.43 124.469L181.852 122.962C182.434 120.802 182.833 119.033 182.745 119.011C182.658 118.988 182.11 120.721 181.528 122.884L181.132 124.404C181.035 124.645 181.027 124.912 181.111 125.158C181.146 125.223 181.196 125.28 181.257 125.323C181.319 125.367 181.389 125.396 181.464 125.409C181.576 125.422 181.689 125.422 181.801 125.409C182.586 125.376 183.07 125.331 183.067 125.288Z"
            fill="#263238" />
        <path
            d="M185.386 125.575C185.26 125.575 185.347 126.393 184.696 127.047C184.045 127.7 183.152 127.7 183.152 127.815C183.152 127.866 183.365 127.953 183.744 127.923C184.231 127.879 184.687 127.668 185.031 127.328C185.359 126.999 185.544 126.559 185.546 126.1C185.558 125.755 185.443 125.565 185.386 125.575Z"
            fill="#263238" />
        <path
            d="M184.918 116.187C185.015 116.383 185.772 116.207 186.686 116.222C187.6 116.237 188.356 116.401 188.454 116.205C188.498 116.112 188.351 115.933 188.035 115.765C187.615 115.566 187.154 115.463 186.687 115.463C186.22 115.463 185.76 115.566 185.34 115.765C185.015 115.916 184.874 116.094 184.918 116.187Z"
            fill="#263238" />
        <path
            d="M177.688 117.182C177.84 117.338 178.352 117.106 178.988 117.031C179.623 116.956 180.177 117.031 180.274 116.835C180.321 116.742 180.218 116.584 179.966 116.443C179.628 116.282 179.248 116.223 178.876 116.273C178.503 116.322 178.154 116.479 177.873 116.722C177.672 116.921 177.618 117.104 177.688 117.182Z"
            fill="#263238" />
        <path
            d="M193.677 121.166C193.759 121.121 197.007 119.819 197.259 123.176C197.512 126.532 194.024 126.074 194.001 125.979C193.978 125.884 193.677 121.166 193.677 121.166Z"
            fill="#FFBF9D" />
        <path
            d="M194.953 124.635C194.968 124.635 195.015 124.67 195.12 124.708C195.267 124.757 195.427 124.749 195.568 124.685C195.921 124.53 196.183 123.947 196.155 123.341C196.143 123.053 196.065 122.772 195.926 122.517C195.886 122.415 195.821 122.324 195.736 122.252C195.652 122.18 195.551 122.129 195.442 122.103C195.372 122.089 195.3 122.1 195.238 122.134C195.176 122.168 195.128 122.222 195.102 122.286C195.061 122.384 195.089 122.45 195.071 122.457C195.053 122.465 194.994 122.404 195.01 122.266C195.023 122.181 195.066 122.103 195.131 122.045C195.22 121.969 195.336 121.93 195.455 121.937C195.598 121.954 195.734 122.006 195.85 122.089C195.966 122.172 196.058 122.284 196.116 122.412C196.285 122.691 196.381 123.007 196.394 123.331C196.423 124.007 196.116 124.665 195.622 124.839C195.532 124.872 195.436 124.884 195.34 124.876C195.244 124.868 195.151 124.839 195.069 124.791C194.966 124.715 194.943 124.64 194.953 124.635Z"
            fill="#FF9A6C" />
        <path
            d="M178.205 112.095C177.631 111.829 179.183 109.967 180.521 109.276C182.526 108.234 185.641 107.473 187.579 107.88C189.913 108.382 191.89 109.362 193.174 111.326C194.459 113.291 195.048 115.634 195.136 117.963C195.161 118.674 195.136 119.418 194.786 120.041C194.356 120.812 193.465 121.337 193.573 122.357C193.599 122.541 193.587 122.728 193.537 122.908C193.488 123.087 193.402 123.255 193.285 123.402C192.698 124.095 191.89 123.53 191.496 122.937C190.655 121.681 190.467 120.111 190.302 118.609C190.184 117.544 190.068 116.453 190.302 115.408C190.431 114.838 190.667 114.293 190.765 113.718C190.863 113.142 190.804 112.502 190.413 112.06C190.321 111.967 190.222 111.883 190.114 111.809C189.608 111.429 189.007 111.189 188.373 111.112C187.74 111.035 187.097 111.125 186.511 111.371C184.619 112.16 181.384 113.366 180.478 112.778C179.178 111.934 178.838 111.341 178.838 111.341L178.205 112.095Z"
            fill="#263238" />
        <path
            d="M174.699 141.506C174.501 141.775 171.688 142.687 170.62 144.423C169.552 146.158 168.496 153.951 168.496 153.951L167.817 159.07C169.155 161.135 170.952 163.871 172.856 165.8L174.699 141.506Z"
            fill="#455A64" />
        <g opacity="0.3">
            <path
                d="M195.838 149.022C195.914 150.073 196.118 151.111 196.446 152.114C196.814 153.102 197.46 154.031 198.404 154.541C198.798 154.752 199.244 154.893 199.576 155.194C199.908 155.496 200.108 155.983 200.43 156.337C200.833 156.727 201.329 157.011 201.874 157.164C203.407 157.712 205.034 157.968 206.666 157.917C206.718 157.38 206.721 155.405 206.772 154.865L195.838 149.022Z"
                fill="black" />
        </g>
        <path
            d="M204.499 137.733C204.499 137.733 208.046 138.758 209.086 140.232C210.126 141.707 211.966 147.424 212.344 148.485C212.723 149.545 212.391 152.001 211.683 153.76C210.975 155.518 209.745 157.048 207.621 157.277C205.498 157.505 202.142 156.31 201.385 155.518C200.628 154.727 200.317 152.976 200.317 152.976C201.26 152.815 202.19 152.587 203.099 152.295"
            fill="#455A64" />
        <path
            d="M203.099 152.313L203.055 152.33L202.921 152.378C202.803 152.418 202.626 152.476 202.391 152.544C201.715 152.742 201.027 152.903 200.332 153.026L200.361 152.989C200.447 153.42 200.568 153.844 200.723 154.257C200.808 154.491 200.911 154.719 201.03 154.938C201.152 155.172 201.313 155.385 201.506 155.569C201.724 155.751 201.964 155.906 202.221 156.031C202.493 156.17 202.772 156.295 203.058 156.405C203.67 156.644 204.3 156.839 204.942 156.988C205.635 157.154 206.344 157.242 207.058 157.252C207.243 157.253 207.429 157.245 207.614 157.226C207.8 157.206 207.985 157.174 208.167 157.131C208.541 157.049 208.9 156.913 209.233 156.727C209.925 156.336 210.506 155.782 210.924 155.116C211.365 154.425 211.703 153.675 211.927 152.891C212.111 152.288 212.247 151.672 212.337 151.049C212.432 150.446 212.463 149.835 212.429 149.226C212.409 148.932 212.347 148.643 212.246 148.366C212.149 148.085 212.053 147.806 211.961 147.53L211.407 145.915C211.042 144.865 210.682 143.872 210.321 142.95C210.005 142.093 209.624 141.259 209.181 140.456C208.976 140.115 208.703 139.817 208.378 139.582C208.095 139.362 207.793 139.164 207.477 138.991C206.969 138.709 206.444 138.457 205.905 138.238C205.462 138.059 205.112 137.934 204.875 137.851L204.605 137.758C204.573 137.75 204.542 137.738 204.512 137.723C204.545 137.727 204.577 137.735 204.607 137.745L204.883 137.826C205.125 137.901 205.48 138.019 205.928 138.19C206.472 138.4 207.002 138.642 207.516 138.916C207.838 139.089 208.145 139.286 208.435 139.506C208.77 139.746 209.051 140.05 209.263 140.398C209.716 141.205 210.105 142.045 210.427 142.91C210.795 143.83 211.158 144.824 211.526 145.874C211.709 146.4 211.894 146.94 212.084 147.49C212.18 147.764 212.275 148.042 212.37 148.324C212.476 148.61 212.541 148.909 212.563 149.213C212.6 149.832 212.569 150.452 212.473 151.064C212.382 151.694 212.243 152.316 212.059 152.926C211.829 153.724 211.482 154.485 211.029 155.187C210.6 155.87 210.002 156.438 209.289 156.837C208.946 157.028 208.575 157.167 208.19 157.252C208.003 157.295 207.813 157.328 207.621 157.35C207.431 157.35 207.24 157.382 207.055 157.375C206.332 157.362 205.613 157.269 204.911 157.098C204.263 156.947 203.629 156.748 203.012 156.503C202.724 156.39 202.443 156.261 202.17 156.119C201.905 155.989 201.658 155.828 201.434 155.639C201.235 155.446 201.069 155.223 200.945 154.978C200.825 154.756 200.723 154.525 200.639 154.287C200.488 153.867 200.37 153.436 200.286 152.999V152.966H200.319C201.225 152.813 201.92 152.639 202.391 152.514L202.927 152.366L203.063 152.328C203.084 152.313 203.099 152.31 203.099 152.313Z"
            fill="#263238" />
        <path
            d="M209.608 150.461C209.583 150.461 209.5 150.034 209.204 149.396C208.815 148.567 208.273 147.815 207.603 147.178C207.232 146.834 206.813 146.543 206.358 146.314L206.046 146.178C205.943 146.133 205.835 146.113 205.737 146.08C205.552 146.024 205.362 145.985 205.168 145.965L205.04 145.947H204.69C204.569 145.946 204.448 145.956 204.329 145.977C204.226 145.998 204.121 146.009 204.015 146.01C204.113 145.971 204.215 145.943 204.319 145.927C204.439 145.894 204.563 145.876 204.687 145.874H204.919H205.045L205.179 145.89C205.378 145.903 205.576 145.937 205.768 145.99C205.876 146.016 205.983 146.048 206.087 146.085L206.412 146.221C206.884 146.449 207.318 146.745 207.699 147.1C208.382 147.745 208.925 148.52 209.292 149.376C209.357 149.522 209.414 149.671 209.462 149.823C209.501 149.938 209.534 150.054 209.559 150.173C209.585 150.267 209.601 150.364 209.608 150.461Z"
            fill="#263238" />
        <path
            d="M211.544 147.354C211.398 146.988 211.218 146.636 211.008 146.302C210.475 145.507 209.677 144.917 208.749 144.631C207.66 144.307 206.602 144.407 205.863 144.475L204.981 144.578C204.874 144.597 204.765 144.606 204.656 144.606C204.758 144.567 204.864 144.541 204.973 144.528C205.179 144.488 205.488 144.435 205.853 144.385C206.829 144.218 207.829 144.26 208.787 144.505C209.312 144.659 209.799 144.916 210.218 145.259C210.562 145.544 210.856 145.882 211.088 146.259C211.247 146.506 211.374 146.772 211.467 147.05C211.504 147.148 211.53 147.25 211.544 147.354Z"
            fill="#263238" />
        <path
            d="M208.87 143.639C207.482 143.319 206.032 143.375 204.674 143.8C204.852 143.686 205.048 143.601 205.253 143.548C205.741 143.402 206.245 143.318 206.754 143.297C207.263 143.279 207.773 143.325 208.27 143.433C208.479 143.472 208.681 143.541 208.87 143.639Z"
            fill="#263238" />
        <path
            d="M203.13 138.597C203.151 138.597 203.099 138.951 203.058 139.519C202.95 140.973 203.079 142.435 203.439 143.85L203.346 143.88C203.241 143.591 203.158 143.355 203.104 143.189C203.071 143.108 203.046 143.024 203.032 142.938C203.085 143.016 203.126 143.1 203.156 143.189C203.225 143.347 203.32 143.578 203.439 143.865L203.346 143.892C203.142 143.197 203.007 142.485 202.942 141.765C202.875 141.02 202.882 140.27 202.963 139.527C202.996 139.243 203.035 139.024 203.066 138.856C203.074 138.767 203.096 138.68 203.13 138.597Z"
            fill="#263238" />
        <path
            d="M198.114 132.154C198.114 132.154 196.273 132.154 196.042 134.311C195.864 135.969 196.042 137.577 196.042 138.306C196.042 139.034 195.715 141.614 195.715 141.614C195.715 141.614 194.459 142.702 194.479 144.008C194.5 145.314 195.457 145.721 195.457 145.721C195.297 146.126 195.261 146.568 195.356 146.992C195.45 147.416 195.67 147.804 195.988 148.108C195.988 148.108 195.455 149.311 195.892 150.117C196.144 150.518 196.538 150.816 196.999 150.954C196.924 151.113 196.884 151.285 196.883 151.46C196.881 151.635 196.918 151.809 196.992 151.968C197.065 152.128 197.172 152.271 197.307 152.386C197.441 152.502 197.6 152.589 197.771 152.639C198.39 152.826 199.037 152.904 199.684 152.868L201.058 152.843L202.268 153.496C202.268 153.496 204.342 152.614 204.394 151.421L204.448 150.228C204.448 150.228 203.853 148.268 203.804 147.64C203.755 147.012 204.283 145.513 203.964 144.84C203.645 144.166 202.53 143.769 202.636 142.83C202.741 141.89 202.53 141.368 202.051 140.848C201.573 140.328 199.46 139.293 199.46 139.293C199.46 139.293 198.917 137.786 198.917 136.753C198.917 135.721 199.974 132.548 198.114 132.154Z"
            fill="#FFBF9D" />
        <path
            d="M199.354 139.685C199.196 139.811 199.023 139.919 198.839 140.006C198.515 140.192 198.067 140.438 197.553 140.705C197.038 140.971 196.59 141.207 196.266 141.37C196.09 141.474 195.904 141.558 195.71 141.622C195.867 141.494 196.04 141.385 196.224 141.298C196.549 141.112 196.997 140.865 197.511 140.599C198.026 140.333 198.474 140.097 198.798 139.933C198.973 139.83 199.16 139.747 199.354 139.685Z"
            fill="#FF9A6C" />
        <path
            d="M200.564 143.747C200.564 143.747 200.512 143.805 200.402 143.887C200.248 144.005 200.088 144.115 199.923 144.217C199.38 144.556 198.802 144.841 198.199 145.066C197.595 145.294 196.97 145.462 196.333 145.568C196.075 145.606 195.887 145.628 195.751 145.636C195.679 145.649 195.606 145.649 195.535 145.636C195.535 145.616 195.833 145.576 196.307 145.478C196.931 145.349 197.545 145.175 198.142 144.955C198.738 144.73 199.314 144.46 199.866 144.146C200.092 144.002 200.325 143.868 200.564 143.747Z"
            fill="#FF9A6C" />
        <path
            d="M202.144 142.453C202.178 142.466 202.108 142.704 201.887 142.888C201.665 143.071 201.429 143.126 201.421 143.094C201.413 143.061 201.604 142.966 201.797 142.79C201.99 142.614 202.108 142.438 202.144 142.453Z"
            fill="#FF9A6C" />
        <path
            d="M201.385 147.301C201.138 147.419 200.879 147.511 200.613 147.578C199.979 147.762 199.335 147.905 198.682 148.007C198.03 148.111 197.371 148.171 196.711 148.188C196.437 148.209 196.162 148.2 195.89 148.163C196.16 148.125 196.433 148.104 196.706 148.098C197.22 148.062 197.902 147.997 198.662 147.879C199.421 147.761 200.098 147.608 200.587 147.487C200.849 147.41 201.115 147.348 201.385 147.301Z"
            fill="#FF9A6C" />
        <path
            d="M203.068 147.012C203.107 146.882 203.154 146.753 203.21 146.628C203.312 146.321 203.346 145.997 203.31 145.676C203.269 145.356 203.157 145.048 202.981 144.774C202.897 144.665 202.821 144.551 202.751 144.433C202.751 144.42 202.898 144.513 203.06 144.721C203.268 144.997 203.4 145.321 203.441 145.661C203.483 146.001 203.433 146.345 203.297 146.661C203.192 146.889 203.081 147.012 203.068 147.012Z"
            fill="#FF9A6C" />
        <path
            d="M201.488 150.939C201.277 151.015 201.057 151.065 200.834 151.089C200.299 151.172 199.759 151.213 199.218 151.213C198.675 151.212 198.134 151.167 197.599 151.079C197.375 151.055 197.156 151.003 196.945 150.926C197.169 150.93 197.392 150.951 197.612 150.989C198.145 151.048 198.681 151.079 199.218 151.082C199.753 151.081 200.289 151.052 200.821 150.997C201.042 150.96 201.264 150.941 201.488 150.939Z"
            fill="#FF9A6C" />
        <path
            d="M198.214 136.778C198.214 136.793 198.129 136.861 197.957 136.922C197.73 136.996 197.489 137.02 197.251 136.992C197.013 136.964 196.785 136.885 196.582 136.761C196.428 136.663 196.356 136.577 196.366 136.565C196.651 136.704 196.954 136.804 197.267 136.861C197.585 136.878 197.904 136.85 198.214 136.778Z"
            fill="#FF9A6C" />
        <path
            d="M203.449 147.156C203.472 147.218 203.483 147.283 203.48 147.349C203.48 147.528 203.458 147.706 203.416 147.879C203.367 148.098 203.282 148.351 203.199 148.633C203.1 148.927 203.067 149.239 203.104 149.547C203.148 149.866 203.392 150.122 203.431 150.446C203.457 150.72 203.385 150.995 203.228 151.223C203.132 151.374 203.02 151.515 202.896 151.645C202.808 151.738 202.754 151.783 202.746 151.778C202.739 151.773 202.924 151.557 203.145 151.177C203.278 150.964 203.335 150.713 203.307 150.464C203.277 150.19 203.029 149.934 202.97 149.57C202.931 149.243 202.969 148.911 203.081 148.6C203.171 148.316 203.264 148.068 203.323 147.846C203.382 147.62 203.424 147.389 203.449 147.156Z"
            fill="#FF9A6C" />
        <path
            d="M204.141 148.733C204.183 148.807 204.213 148.887 204.229 148.969C204.275 149.123 204.337 149.349 204.394 149.63C204.463 149.961 204.505 150.297 204.517 150.635C204.539 151.057 204.46 151.479 204.285 151.866C204.083 152.236 203.814 152.569 203.493 152.848C203.237 153.076 202.964 153.285 202.677 153.473C202.432 153.637 202.226 153.757 202.082 153.835C202.011 153.882 201.934 153.919 201.853 153.946C201.84 153.928 202.149 153.737 202.625 153.398C202.901 153.202 203.165 152.989 203.413 152.76C203.719 152.487 203.975 152.165 204.17 151.808C204.335 151.438 204.413 151.038 204.399 150.635C204.393 150.302 204.362 149.971 204.306 149.643C204.206 149.082 204.121 148.738 204.141 148.733Z"
            fill="#263238" />
        <path
            d="M184.722 140.371C184.615 140.309 184.515 140.237 184.423 140.155L183.651 139.524L183.116 139.084C183.024 139.001 182.922 138.929 182.812 138.871C182.759 138.844 182.7 138.83 182.64 138.83C182.58 138.83 182.521 138.844 182.467 138.871C182.246 138.984 182.097 139.26 181.909 139.491C181.721 139.722 181.535 139.994 181.34 140.245C181.031 140.652 180.73 141.041 180.454 141.403L180.287 141.619L180.341 141.353C180.489 140.606 180.703 139.873 180.982 139.162C181.085 138.911 181.178 138.695 181.239 138.557C181.268 138.483 181.307 138.413 181.355 138.348C181.338 138.425 181.313 138.5 181.281 138.572C181.227 138.715 181.147 138.924 181.054 139.19C180.802 139.904 180.605 140.635 180.465 141.378L180.349 141.328L181.232 140.167L181.801 139.413L182.073 139.059C182.16 138.933 182.277 138.83 182.413 138.758C182.485 138.727 182.562 138.713 182.64 138.716C182.718 138.719 182.795 138.739 182.864 138.775C182.98 138.84 183.089 138.918 183.185 139.009L183.7 139.461L184.452 140.122C184.548 140.198 184.639 140.281 184.722 140.371Z"
            fill="#263238" />
        <path
            d="M195.589 138.248C195.559 138.281 195.525 138.31 195.488 138.336L195.185 138.567L194.05 139.398L190.264 142.119L190.207 142.159L190.168 142.101C190.137 142.056 190.107 142.006 190.073 141.958L188.174 139.029L188.243 139.052C187.511 139.335 186.805 139.679 186.133 140.079C185.891 140.222 185.703 140.33 185.574 140.423C185.511 140.469 185.444 140.509 185.373 140.541C185.428 140.486 185.488 140.436 185.553 140.393C185.677 140.305 185.86 140.177 186.099 140.024C186.763 139.602 187.466 139.242 188.199 138.949L188.243 138.931L188.269 138.969C188.827 139.815 189.484 140.818 190.186 141.888C190.22 141.936 190.251 141.986 190.282 142.031L190.184 142.013L193.996 139.326L195.154 138.524L195.473 138.313C195.548 138.265 195.586 138.243 195.589 138.248Z"
            fill="#263238" />
        <path
            d="M172.489 148.238C172.5 148.296 172.506 148.355 172.504 148.414C172.504 148.545 172.504 148.713 172.517 148.917C172.517 149.371 172.54 150.007 172.553 150.786C172.584 152.363 172.648 154.554 172.733 156.953C172.818 159.352 172.867 161.542 172.872 163.122C172.872 163.914 172.872 164.552 172.872 164.994C172.872 165.202 172.872 165.373 172.859 165.496C172.862 165.556 172.858 165.616 172.846 165.675C172.843 165.615 172.843 165.556 172.846 165.496C172.846 165.368 172.846 165.197 172.831 164.994C172.831 164.537 172.81 163.901 172.795 163.125C172.767 161.545 172.7 159.357 172.617 156.955C172.535 154.554 172.483 152.366 172.478 150.786C172.478 149.997 172.478 149.356 172.478 148.917C172.478 148.706 172.478 148.537 172.478 148.414C172.478 148.355 172.481 148.297 172.489 148.238Z"
            fill="#263238" />
        <path
            d="M184.807 170.927C184.798 170.905 184.793 170.881 184.791 170.857C184.791 170.802 184.791 170.731 184.768 170.643C184.748 170.445 184.719 170.171 184.686 169.822C184.614 169.108 184.531 168.063 184.449 166.795C184.367 165.526 184.297 163.989 184.254 162.296C184.21 160.603 184.205 158.736 184.254 156.769C184.302 154.802 184.393 152.951 184.511 151.26C184.629 149.57 184.768 148.047 184.907 146.774C185.046 145.5 185.165 144.468 185.278 143.759C185.329 143.41 185.368 143.139 185.396 142.943C185.412 142.855 185.422 142.785 185.432 142.729C185.434 142.705 185.439 142.682 185.448 142.659C185.452 142.683 185.452 142.708 185.448 142.732C185.448 142.787 185.435 142.858 185.427 142.945C185.404 143.141 185.373 143.415 185.332 143.764C185.244 144.478 185.131 145.508 185.005 146.779C184.879 148.05 184.748 149.575 184.637 151.265C184.526 152.956 184.441 154.817 184.395 156.772C184.349 158.726 184.362 160.588 184.395 162.281C184.429 163.974 184.493 165.496 184.565 166.775C184.637 168.053 184.701 169.091 184.758 169.804C184.781 170.154 184.802 170.43 184.815 170.628C184.815 170.716 184.815 170.787 184.827 170.842C184.823 170.871 184.816 170.899 184.807 170.927Z"
            fill="#263238" />
        <path
            d="M177.137 129.81L176.864 129.986L176.061 130.488C175.706 130.712 175.289 131.031 174.8 131.382C174.543 131.563 174.306 131.782 174.028 132.003L173.608 132.347C173.464 132.468 173.328 132.598 173.181 132.736C171.758 134.033 170.507 135.499 169.459 137.1L169.001 137.818C168.839 138.057 168.715 138.321 168.566 138.572C168.417 138.823 168.27 139.094 168.136 139.371C168.002 139.647 167.879 139.931 167.74 140.217C167.676 140.361 167.604 140.501 167.542 140.649C167.48 140.798 167.426 140.948 167.367 141.102C167.251 141.403 167.127 141.707 167.014 142.021C166.824 142.657 166.582 143.3 166.438 143.985C165.704 146.953 165.581 150.033 166.077 153.046C166.723 156.927 168.388 160.579 170.91 163.644C173.432 166.71 176.726 169.085 180.469 170.538C184.213 171.991 188.278 172.471 192.268 171.933C196.259 171.395 200.039 169.857 203.238 167.468C204.046 166.862 204.814 166.208 205.539 165.509L206.054 164.976C206.229 164.8 206.399 164.622 206.569 164.434L207.058 163.883C207.212 163.692 207.364 163.502 207.518 163.313C209.847 160.386 211.4 156.945 212.041 153.293C212.191 152.445 212.294 151.589 212.347 150.73C212.373 150.306 212.373 149.886 212.388 149.474C212.404 149.062 212.357 148.643 212.342 148.233C212.342 148.03 212.324 147.824 212.316 147.62C212.308 147.417 212.27 147.218 212.249 147.017C212.198 146.618 212.149 146.221 212.1 145.829C212.051 145.437 211.945 145.056 211.868 144.674C211.804 144.295 211.718 143.92 211.611 143.551L211.292 142.463C211.242 142.285 211.181 142.109 211.109 141.938C211.042 141.765 210.975 141.591 210.911 141.421C210.774 141.081 210.653 140.735 210.507 140.416C210.36 140.097 210.2 139.773 210.049 139.459C208.929 137.188 207.428 135.116 205.606 133.329C204.226 131.991 202.686 130.819 201.02 129.84L200.036 129.29C199.888 129.205 199.735 129.128 199.578 129.059L199.146 128.858L198.374 128.501C198.142 128.386 197.913 128.32 197.72 128.25L196.824 127.913L196.52 127.793L196.829 127.901L197.728 128.227C197.923 128.303 198.152 128.368 198.387 128.479L199.159 128.83L199.594 129.031C199.751 129.098 199.905 129.174 200.054 129.257L201.04 129.805C202.718 130.778 204.267 131.947 205.655 133.287C207.487 135.072 208.999 137.145 210.128 139.419C210.28 139.738 210.435 140.057 210.592 140.383C210.749 140.71 210.849 141.054 210.998 141.388L211.199 141.905C211.271 142.078 211.332 142.254 211.382 142.433C211.49 142.795 211.598 143.156 211.706 143.526C211.818 143.896 211.908 144.273 211.976 144.654C212.054 145.035 212.146 145.407 212.213 145.812C212.28 146.216 212.311 146.605 212.362 147.007C212.386 147.208 212.419 147.409 212.432 147.613C212.445 147.816 212.45 148.022 212.458 148.228C212.473 148.64 212.496 149.055 212.507 149.484C212.517 149.914 212.494 150.326 212.465 150.74C212.202 155.339 210.512 159.75 207.619 163.389L207.15 163.961L206.656 164.516C206.497 164.705 206.324 164.886 206.141 165.062L205.627 165.599C204.897 166.302 204.124 166.96 203.31 167.569C200.095 169.967 196.298 171.512 192.289 172.052C188.28 172.592 184.196 172.11 180.436 170.651C176.675 169.192 173.365 166.807 170.83 163.728C168.295 160.65 166.62 156.982 165.969 153.084C165.708 151.513 165.622 149.918 165.712 148.329C165.777 146.863 165.993 145.407 166.358 143.983C166.502 143.295 166.746 142.652 166.937 142.011C167.053 141.699 167.179 141.393 167.297 141.089C167.356 140.938 167.416 140.788 167.472 140.637C167.529 140.486 167.609 140.348 167.673 140.202C167.809 139.916 167.93 139.635 168.072 139.356C168.214 139.077 168.365 138.818 168.507 138.554C168.649 138.291 168.782 138.029 168.944 137.788L169.408 137.07C170.461 135.466 171.721 134.001 173.158 132.711C173.305 132.578 173.441 132.443 173.585 132.322L174.007 131.978C174.285 131.759 174.522 131.543 174.779 131.362C175.281 131.011 175.693 130.697 176.051 130.476L176.862 129.973C177.037 129.863 177.137 129.81 177.137 129.81Z"
            fill="#263238" />
    </g>
    <defs>
        <clipPath id="clip0_93_3652">
            <rect width="360" height="488" fill="white" />
        </clipPath>
    </defs>
</svg>
