<svg width="214" height="188" viewBox="0 0 214 188" fill="none" xmlns="http://www.w3.org/2000/svg">
<path d="M37.5 6.384L61.5 37.616" stroke="#191919" stroke-width="2.4" stroke-linecap="round" stroke-linejoin="round"/>
<path d="M62.5 15.168L86.5 46.4" stroke="#78C04C" stroke-width="2.4" stroke-linecap="round" stroke-linejoin="round"/>
<path fill-rule="evenodd" clip-rule="evenodd" d="M175 13.216L169.71 15.9304L170.72 10.1812L166.44 6.1096L172.355 5.27081L175 0.0400085L177.645 5.27081L183.56 6.1096L179.28 10.1812L180.29 15.9304L175 13.216Z" fill="#FCC202"/>
<path fill-rule="evenodd" clip-rule="evenodd" d="M207 69.336L214 83H200L207 69.336Z" fill="#78C04C"/>
<ellipse cx="164" cy="55.672" rx="6" ry="5.856" fill="#767676"/>
<path fill-rule="evenodd" clip-rule="evenodd" d="M9 131.312L3.70993 134.026L4.72025 128.277L0.440491 124.206L6.35497 123.367L9 118.136L11.645 123.367L17.5595 124.206L13.2798 128.277L14.2901 134.026L9 131.312Z" fill="#E71D36"/>
<path fill-rule="evenodd" clip-rule="evenodd" d="M39 173.768L46 187.432H32L39 173.768Z" fill="#332DA1"/>
<ellipse cx="37" cy="143.512" rx="4" ry="3.904" fill="#78C04C"/>
<ellipse cx="20" cy="45.912" rx="6" ry="5.856" fill="#FFB800"/>
<path d="M135.319 131.731H153.918V117.729H135.319V131.731Z" fill="#EBEBEB"/>
<path d="M136.648 130.508H138.89V128.036H136.648V130.508Z" fill="white"/>
<path d="M148.246 117.764H146.133V120.751H148.246V117.764Z" fill="#FAFAFA"/>
<path d="M148.246 128.702H146.133V131.689H148.246V128.702Z" fill="#FAFAFA"/>
<path d="M139.96 131.827C139.927 131.827 139.901 128.747 139.901 124.949C139.901 121.15 139.927 118.071 139.96 118.071C139.994 118.071 140.02 121.15 140.02 124.949C140.02 128.747 139.994 131.827 139.96 131.827Z" fill="#E0E0E0"/>
<path d="M127.735 155.842H159.825V131.684H127.735V155.842Z" fill="#EBEBEB"/>
<path d="M130.028 153.734H133.894V149.469H130.028V153.734Z" fill="white"/>
<path d="M150.034 131.746H146.39V136.901H150.034V131.746Z" fill="#FAFAFA"/>
<path d="M150.034 150.614H146.39V155.769H150.034V150.614Z" fill="#FAFAFA"/>
<path d="M135.745 156.008C135.688 156.008 135.642 150.695 135.642 144.141C135.642 137.587 135.688 132.274 135.745 132.274C135.801 132.274 135.845 137.587 135.845 144.141C135.845 150.695 135.801 156.008 135.745 156.008Z" fill="#E0E0E0"/>
<path d="M158.806 81.4374L160.525 84.8362L164.368 85.3813L161.588 88.029L162.245 91.7645L158.806 90.001L155.367 91.7645L156.024 88.029L153.244 85.3813L157.087 84.8362L158.806 81.4374Z" fill="#EBEBEB"/>
<path d="M56.4421 125.338L57.5257 127.481L59.9476 127.823L58.1949 129.491L58.6092 131.847L56.4421 130.734L54.2749 131.847L54.6893 129.491L52.9365 127.823L55.3585 127.481L56.4421 125.338Z" fill="#EBEBEB"/>
<path d="M57.7858 106.671L60.1924 111.429L65.5717 112.192L61.68 115.895L62.5989 121.125L57.7858 118.656L52.9753 121.125L53.8942 115.895L50 112.192L55.3793 111.429L57.7858 106.671Z" fill="#EBEBEB"/>
<path d="M157.274 96.7886L158.311 98.8409L160.631 99.17L158.952 100.765L159.349 103.018L157.274 101.956L155.2 103.018L155.596 100.765L153.918 99.17L156.237 98.8409L157.274 96.7886Z" fill="#EBEBEB"/>
<path d="M123.243 63.5666L124.28 65.6165L126.6 65.9456L124.921 67.5432L125.318 69.7965L123.243 68.7314L121.169 69.7965L121.565 67.5432L119.887 65.9456L122.206 65.6165L123.243 63.5666Z" fill="#EBEBEB"/>
<path d="M146.966 85.5069L147.646 86.8484L149.165 87.0644L148.065 88.1094L148.325 89.584L146.966 88.8882L145.61 89.584L145.87 88.1094L144.771 87.0644L146.29 86.8484L146.966 85.5069Z" fill="#EBEBEB"/>
<path d="M84.3451 153.257L85.668 155.87L88.6228 156.289L86.4839 158.324L86.991 161.198L84.3451 159.841L81.7018 161.198L82.2062 158.324L80.0674 156.289L83.0247 155.87L84.3451 153.257Z" fill="#EBEBEB"/>
<path d="M87.8351 150.657L88.3808 151.737L89.6033 151.911L88.7179 152.752L88.9264 153.94L87.8351 153.378L86.7438 153.94L86.9523 152.752L86.0669 151.911L87.2895 151.737L87.8351 150.657Z" fill="#EBEBEB"/>
<path d="M136.648 140.649L137.811 142.948L140.411 143.317L138.529 145.105L138.975 147.633L136.648 146.439L134.324 147.633L134.769 145.105L132.887 143.317L135.487 142.948L136.648 140.649Z" fill="#E71D36"/>
<path d="M142.194 138.612L142.742 139.694L143.965 139.868L143.08 140.712L143.288 141.903L142.194 141.34L141.098 141.903L141.309 140.712L140.421 139.868L141.646 139.694L142.194 138.612Z" fill="#E71D36"/>
<path d="M134.926 78.787L135.842 76.0087C134.969 74.2923 134.704 72.3417 135.088 70.4624C135.473 68.5832 136.485 66.8815 137.966 65.6239C139.448 64.3664 141.315 63.624 143.275 63.5131C145.235 63.4023 147.178 63.9291 148.798 65.0112C150.419 66.0933 151.626 67.6695 152.23 69.4928C152.834 71.3162 152.802 73.2836 152.137 75.0869C151.473 76.8903 150.215 78.4276 148.559 79.4582C146.904 80.4887 144.945 80.9541 142.99 80.7816C141.082 80.6547 139.276 79.892 137.876 78.6212L134.926 78.787Z" fill="#FAFAFA"/>
<path d="M134.926 78.7872L135.122 78.7721L135.691 78.7319L137.876 78.5862C138.959 79.564 140.293 80.2375 141.736 80.5356C142.182 80.6322 142.635 80.6952 143.09 80.724L143.811 80.7516C144.053 80.7516 144.303 80.724 144.552 80.7114C146.81 80.5114 148.902 79.4706 150.395 77.805C151.236 76.8797 151.86 75.7868 152.225 74.6021C152.598 73.3362 152.674 72.0043 152.446 70.7059C152.39 70.3721 152.31 70.0423 152.209 69.7187C152.164 69.5547 152.108 69.3937 152.042 69.2363C151.978 69.0756 151.921 68.9148 151.852 68.7565C151.565 68.1176 151.202 67.5139 150.771 66.9579C150.556 66.6807 150.323 66.4173 150.073 66.1691C149.952 66.0426 149.823 65.9235 149.687 65.8124C149.556 65.6994 149.43 65.5763 149.291 65.4733L148.868 65.1668L148.657 65.0161L148.431 64.8855L147.986 64.6343C147.834 64.5514 147.674 64.4886 147.52 64.4132C146.337 63.8668 145.043 63.5864 143.735 63.5924C142.426 63.5985 141.135 63.891 139.958 64.4484C137.917 65.4048 136.333 67.0916 135.533 69.1585C135.49 69.274 135.449 69.3896 135.407 69.5026C135.361 69.6142 135.324 69.7293 135.297 69.8468C135.238 70.0779 135.181 70.3065 135.124 70.5301C135.046 70.9681 134.993 71.4101 134.965 71.8539C134.907 73.2896 135.217 74.7167 135.866 76.0063L135.176 78.0612L134.993 78.5938C134.952 78.7143 134.929 78.7771 134.929 78.7771C134.929 78.7771 134.944 78.7194 134.983 78.6013L135.147 78.0738L135.809 75.9913V76.0114C135.143 74.7193 134.821 73.2844 134.872 71.8388C134.896 71.39 134.947 70.943 135.024 70.4999C135.081 70.2738 135.14 70.0427 135.196 69.8091C135.224 69.6903 135.26 69.5736 135.304 69.4599C135.348 69.3444 135.389 69.2288 135.433 69.1107C135.863 67.9839 136.528 66.9563 137.386 66.0932C138.243 65.2302 139.276 64.5503 140.417 64.0967C141.558 63.643 142.783 63.4256 144.014 63.458C145.246 63.4904 146.457 63.7721 147.571 64.2851C147.728 64.3579 147.89 64.4232 148.045 64.5087L148.498 64.7724L148.724 64.9056L148.941 65.0588L149.368 65.3678C149.509 65.4758 149.638 65.5989 149.772 65.7119C149.909 65.8253 150.04 65.9461 150.163 66.0737C150.416 66.3269 150.652 66.5954 150.871 66.8775C151.311 67.4367 151.681 68.0447 151.975 68.6887C152.045 68.8495 152.101 69.0153 152.166 69.1761C152.234 69.3398 152.291 69.5076 152.338 69.6785C152.44 70.0079 152.519 70.3436 152.575 70.6833C152.807 72.001 152.73 73.3531 152.348 74.6373C151.983 75.8445 151.351 76.9591 150.498 77.9029C148.983 79.5844 146.863 80.6331 144.578 80.832C144.321 80.832 144.063 80.8672 143.826 80.8672L143.098 80.837C142.638 80.8056 142.181 80.7401 141.731 80.6411C140.282 80.3314 138.948 79.6418 137.871 78.6465H137.891L135.685 78.7596L135.124 78.7847C134.988 78.7872 134.926 78.7872 134.926 78.7872Z" fill="#263238"/>
<path d="M138.753 71.8389L140.213 70.6029L142.671 73.0672L148.184 68.5857L149.35 70.005L142.287 75.617L138.753 71.8389Z" fill="#E71D36"/>
<path d="M119.656 140.541L70.2998 151.277C70.0142 151.341 69.7184 151.349 69.4296 151.301C69.1407 151.252 68.8646 151.149 68.6169 150.996C68.3693 150.843 68.1552 150.644 67.9868 150.41C67.8184 150.176 67.6992 149.911 67.6359 149.632L51.6293 79.4828C51.5655 79.2049 51.5586 78.9174 51.6088 78.6368C51.6591 78.3562 51.7656 78.0881 51.9222 77.8477C52.0788 77.6074 52.2824 77.3995 52.5215 77.2361C52.7605 77.0727 53.0302 76.9569 53.3151 76.8954L102.671 66.1589C102.956 66.0966 103.251 66.0898 103.538 66.1388C103.826 66.1878 104.101 66.2917 104.347 66.4446C104.594 66.5974 104.807 66.7961 104.975 67.0295C105.142 67.2628 105.261 67.5261 105.324 67.8043L121.341 137.953C121.405 138.231 121.412 138.519 121.362 138.799C121.312 139.08 121.205 139.348 121.049 139.589C120.892 139.829 120.688 140.037 120.449 140.2C120.21 140.364 119.94 140.479 119.656 140.541Z" fill="#E0E0E0"/>
<path d="M119.656 140.541L119.82 140.496C119.98 140.445 120.135 140.378 120.281 140.297C120.521 140.16 120.733 139.98 120.906 139.767C121.143 139.476 121.298 139.13 121.357 138.762C121.394 138.54 121.394 138.314 121.357 138.092C121.316 137.858 121.251 137.612 121.195 137.356C121.076 136.853 120.937 136.281 120.809 135.673C120.529 134.455 120.207 133.054 119.843 131.47C118.394 125.147 116.299 115.998 113.71 104.691C112.423 99.0394 111.002 92.8471 109.481 86.1977C108.723 82.8751 107.938 79.442 107.126 75.8983C106.723 74.1265 106.313 72.3303 105.896 70.5099C105.685 69.6006 105.476 68.6837 105.263 67.7618C105.147 67.3022 104.876 66.8941 104.493 66.603C104.111 66.3119 103.64 66.1546 103.155 66.1566C102.913 66.1618 102.673 66.1955 102.439 66.257L101.719 66.4128L100.27 66.7293L97.3457 67.3649L91.395 68.6611L79.1333 71.3364L53.3332 76.9433C52.7879 77.0613 52.31 77.3798 51.999 77.8326C51.6879 78.2854 51.5675 78.8378 51.6628 79.375C51.897 80.4426 52.1493 81.5128 52.3886 82.5779C52.8759 84.7047 53.359 86.819 53.8377 88.9208L56.6689 101.333C58.5272 109.469 60.3186 117.307 62.025 124.793C63.7315 132.279 65.3504 139.363 66.869 146.022C67.0577 146.86 67.2456 147.684 67.4327 148.494C67.5279 148.901 67.6128 149.313 67.7132 149.713C67.8213 150.106 68.0429 150.461 68.3515 150.735C68.6582 151.005 69.0362 151.186 69.4428 151.257C69.6445 151.29 69.8496 151.295 70.0528 151.275C70.2536 151.25 70.4569 151.202 70.6577 151.157L73.0539 150.637L82.1472 148.663L109.589 142.711L117.053 141.099L118.994 140.682L119.656 140.541L118.997 140.692L117.056 141.119L109.592 142.749L82.1549 148.735L73.0719 150.717L70.6757 151.24C70.4749 151.283 70.2742 151.333 70.0631 151.36C69.8521 151.381 69.6391 151.375 69.4299 151.34C69.0041 151.268 68.6083 151.079 68.2891 150.794C67.9699 150.51 67.7406 150.142 67.6283 149.735C67.5253 149.331 67.4404 148.924 67.3451 148.517C67.1581 147.701 66.9694 146.877 66.7789 146.045C65.2603 139.396 63.6363 132.291 61.9272 124.816C60.2182 117.34 58.4268 109.492 56.566 101.355L53.7347 88.9459C53.256 86.8458 52.773 84.7299 52.2857 82.598C52.0437 81.5328 51.7941 80.4677 51.5573 79.3901C51.4582 78.8273 51.585 78.2489 51.9114 77.7751C52.2378 77.3012 52.7387 76.9682 53.3101 76.8454L79.1127 71.2309L91.3821 68.5732L97.3302 67.2794L100.254 66.6439L101.706 66.3123L102.426 66.1566C102.664 66.0963 102.909 66.0643 103.155 66.0611C103.657 66.0622 104.145 66.2265 104.541 66.5281C104.937 66.8297 105.219 67.2513 105.343 67.7266C105.554 68.651 105.765 69.5654 105.973 70.4773C106.394 72.2994 106.807 74.093 107.214 75.8581C108.018 79.4001 108.802 82.8333 109.564 86.1575C111.08 92.807 112.49 98.9992 113.78 104.654C116.353 115.958 118.438 125.115 119.88 131.44C120.237 133.02 120.556 134.427 120.834 135.643C120.971 136.253 121.092 136.813 121.215 137.328C121.272 137.579 121.336 137.831 121.375 138.064C121.414 138.289 121.414 138.518 121.375 138.742C121.316 139.116 121.158 139.469 120.917 139.765C120.741 139.977 120.527 140.157 120.286 140.295C120.138 140.376 119.981 140.441 119.818 140.488L119.656 140.541Z" fill="#263238"/>
<g opacity="0.3">
<path d="M72.8015 148.793L117.771 138.76L116.351 130.159L113.8 125.338L70.781 141.83L72.8015 148.793Z" fill="black"/>
</g>
<g opacity="0.3">
<path d="M91.5776 68.7314L93.2789 71.472L93.6084 72.9265L92.4553 73.1777L91.5776 68.7314Z" fill="black"/>
</g>
<path d="M54.1902 79.89L69.7927 148.218L118.698 137.582L115.908 125.363L103.095 69.2514L54.1902 79.89Z" fill="white"/>
<path d="M54.1903 79.8899L103.093 69.2112H103.134V69.2539C107.474 88.2425 112.886 111.939 118.744 137.582V137.635H118.693L69.7903 148.268H69.744V148.22C60.558 107.872 54.283 80.2994 54.1877 79.8925C54.283 80.3095 60.5991 107.874 69.8392 148.22L69.78 148.185L118.683 137.542L118.642 137.604C112.791 111.966 107.384 88.2702 103.052 69.2765L103.103 69.3092L54.1903 79.8899Z" fill="#263238"/>
<path d="M67.9615 71.7598L89.529 67.0701C89.9508 66.9783 90.3926 67.0539 90.7572 67.2801C91.1219 67.5064 91.3796 67.8647 91.4735 68.2763L92.7195 73.7344L67.9664 79.1168L66.7216 73.6637C66.6743 73.4592 66.6688 73.2476 66.7055 73.041C66.7423 72.8344 66.8205 72.637 66.9358 72.46C67.051 72.2831 67.2009 72.1301 67.377 72.01C67.553 71.8898 67.7517 71.8048 67.9615 71.7598Z" fill="#263238"/>
<path d="M81.2952 66.0986L74.9971 67.4677L76.9352 72.5772L81.6787 71.5448L81.2952 66.0986Z" fill="#263238"/>
<path d="M89.529 67.0659C89.529 67.0935 84.7134 68.1662 78.7601 69.4624C72.8068 70.7586 67.9706 71.7911 67.9629 71.7634C67.9552 71.7358 72.7785 70.6632 78.7369 69.3669C84.6954 68.0707 89.5136 67.0458 89.529 67.0659Z" fill="#455A64"/>
<path d="M68.2691 77.8678C68.2408 77.8678 67.9911 76.888 67.7131 75.6672C67.4352 74.4463 67.2293 73.449 67.2601 73.4415C67.291 73.434 67.5381 74.4212 67.8161 75.6446C68.0941 76.868 68.2974 77.8678 68.2691 77.8678Z" fill="#455A64"/>
<path d="M91.5389 72.2508C91.3321 71.59 91.1603 70.9192 91.0241 70.2412C90.8538 69.5784 90.718 68.9077 90.6174 68.2315C90.8238 68.8882 90.9956 69.5548 91.1322 70.2286C91.303 70.8955 91.4387 71.5704 91.5389 72.2508Z" fill="#455A64"/>
<path d="M90.5585 73.444C90.5585 73.4717 85.6142 74.5719 79.5039 75.9008C73.3937 77.2297 68.4365 78.2873 68.4236 78.2571C68.4107 78.227 73.3654 77.1292 79.4911 75.8003C85.6168 74.4715 90.5431 73.4164 90.5585 73.444Z" fill="#455A64"/>
<path d="M77.5322 93.3194C77.5322 93.3495 74.1991 94.0981 70.0681 94.9974C65.9371 95.8968 62.604 96.5976 62.586 96.57C62.568 96.5423 65.932 95.7912 70.0501 94.8944C74.1682 93.9976 77.5245 93.2917 77.5322 93.3194Z" fill="#263238"/>
<path d="M102.424 90.5838C102.424 90.6139 93.7064 92.5356 82.94 94.8769C72.1737 97.2181 63.4356 99.0946 63.4304 99.067C63.4253 99.0393 72.1454 97.1151 82.9169 94.7739C93.6883 92.4326 102.419 90.5561 102.424 90.5838Z" fill="#263238"/>
<path d="M102.962 92.9401C102.962 92.9677 94.2415 94.8894 83.4752 97.2332C72.7089 99.5769 63.9733 101.451 63.9656 101.421C63.9579 101.391 72.6831 99.4714 83.452 97.1302C94.2209 94.7889 102.954 92.9049 102.962 92.9401Z" fill="#263238"/>
<path d="M103.497 95.2813C103.497 95.309 94.7795 97.2307 84.0132 99.5719C73.2468 101.913 64.5087 103.792 64.501 103.762C64.4933 103.732 73.2185 101.813 83.99 99.4689C94.7615 97.1252 103.489 95.2537 103.497 95.2813Z" fill="#263238"/>
<path d="M104.033 97.6301C104.033 97.6577 95.315 99.5794 84.5487 101.921C73.7824 104.262 65.0442 106.138 65.0391 106.111C65.0339 106.083 73.754 104.161 84.5255 101.818C95.297 99.4739 104.027 97.5999 104.033 97.6301Z" fill="#263238"/>
<path d="M104.57 99.9738C104.57 100.004 95.85 101.926 85.0837 104.267C74.3174 106.608 65.5767 108.487 65.5767 108.46C65.5767 108.432 74.2942 106.51 85.0631 104.166C95.832 101.823 104.562 99.9487 104.57 99.9738Z" fill="#263238"/>
<path d="M73.1361 116.506C73.1256 116.481 73.1179 116.454 73.1129 116.428L73.0563 116.204C73.0074 116.001 72.9379 115.717 72.853 115.363C72.6805 114.637 72.4386 113.617 72.1503 112.396L72.2069 112.431L67.9859 113.356C67.9859 113.356 68.0631 113.237 68.027 113.293V113.31V113.345L68.0425 113.416L68.0759 113.557L68.1377 113.835C68.1815 114.021 68.2226 114.205 68.2638 114.388C68.3462 114.75 68.4285 115.106 68.5058 115.453C68.6628 116.144 68.8095 116.797 68.9459 117.397L68.8893 117.362L71.9392 116.722L72.8066 116.546L73.0383 116.503L73.1206 116.488C73.1206 116.488 73.1 116.488 73.0486 116.511L72.8298 116.563L71.9804 116.759L68.9227 117.47H68.8764V117.425L68.4285 115.483C68.3488 115.137 68.2664 114.78 68.1712 114.418C68.13 114.235 68.0862 114.051 68.045 113.865C68.0219 113.775 68.0013 113.68 67.9807 113.587L67.9472 113.446L67.9318 113.376V113.34V113.323V113.31C67.8958 113.368 67.9807 113.235 67.973 113.248L72.1966 112.336H72.243V112.381L72.907 115.395C72.9816 115.747 73.0408 116.028 73.0846 116.229C73.1026 116.32 73.1155 116.39 73.1284 116.448C73.1335 116.467 73.1361 116.486 73.1361 116.506Z" fill="#263238"/>
<path d="M104.511 106.349L75.0627 112.753L75.6101 115.151L105.059 108.747L104.511 106.349Z" fill="#E0E0E0"/>
<path d="M74.7679 123.655C74.7582 123.629 74.7505 123.602 74.7448 123.575C74.7293 123.517 74.7113 123.441 74.6881 123.351C74.6392 123.148 74.5697 122.866 74.4848 122.512C74.3124 121.783 74.0704 120.754 73.7822 119.543L73.8388 119.578L69.6177 120.502C69.6177 120.517 69.6949 120.384 69.6589 120.442V120.455V120.472V120.507L69.6743 120.578L69.7078 120.718C69.7284 120.814 69.749 120.907 69.7721 121L69.8957 121.55C69.978 121.914 70.0604 122.268 70.1376 122.615C70.2946 123.306 70.4413 123.959 70.5777 124.559L70.5211 124.524L73.5737 123.886L74.4385 123.71L74.6701 123.665C74.697 123.658 74.7246 123.653 74.7525 123.652L74.683 123.673L74.4616 123.725L73.6123 123.924L70.5417 124.615H70.4954V124.569L70.0475 122.628C69.9677 122.281 69.8854 121.924 69.7901 121.562C69.749 121.382 69.7052 121.196 69.664 121.012C69.6434 120.919 69.6203 120.826 69.5997 120.731L69.5662 120.59L69.5508 120.52V120.485V120.455L69.592 120.389L73.813 119.49H73.8594V119.533C74.1322 120.771 74.3741 121.794 74.5234 122.547C74.5981 122.899 74.6573 123.18 74.701 123.381C74.719 123.472 74.7319 123.542 74.7448 123.6C74.7549 123.617 74.7627 123.636 74.7679 123.655Z" fill="#263238"/>
<path d="M106.142 113.499L76.6934 119.902L77.2408 122.3L106.689 115.897L106.142 113.499Z" fill="#E0E0E0"/>
<path d="M76.3997 130.802C76.3997 130.802 76.3997 130.772 76.3766 130.721C76.3534 130.671 76.3431 130.588 76.3199 130.498C76.271 130.294 76.2015 130.013 76.1166 129.659C75.9442 128.933 75.7022 127.9 75.4139 126.69L75.4706 126.725L71.2392 127.649C71.2392 127.664 71.3164 127.531 71.2804 127.589V127.606V127.624V127.659L71.2958 127.73L71.3293 127.87C71.3499 127.966 71.3705 128.059 71.3936 128.152L71.5172 128.702C71.5995 129.066 71.6819 129.42 71.7591 129.767L72.1992 131.711L72.1426 131.678L75.1952 131.038L76.06 130.862L76.2916 130.817C76.319 130.814 76.3466 130.814 76.374 130.817L76.3045 130.837L76.0831 130.89L75.2338 131.088L72.1632 131.779H72.1169V131.734C71.9805 131.136 71.8286 130.478 71.669 129.792C71.5892 129.445 71.5069 129.091 71.4116 128.727C71.3705 128.546 71.3267 128.363 71.2855 128.177C71.2649 128.084 71.2418 127.991 71.2212 127.898L71.1903 127.757L71.1723 127.687V127.649V127.606C71.1362 127.662 71.2212 127.529 71.2135 127.544L75.4371 126.632H75.4834V126.677L76.1475 129.691C76.2221 130.043 76.2813 130.324 76.3251 130.528C76.3431 130.616 76.3585 130.686 76.3688 130.744C76.3818 130.762 76.3922 130.781 76.3997 130.802Z" fill="#263238"/>
<path d="M107.776 120.648L78.3274 127.052L78.8748 129.45L108.323 123.046L107.776 120.648Z" fill="#E0E0E0"/>
<path d="M69.0798 115.031L69.5225 114.35L70.8378 115.064L72.5313 112.572L73.1851 113.014L71.0025 116.154L69.0798 115.031Z" fill="#E71D36"/>
<path d="M70.6577 121.939L71.1004 121.258L72.4156 121.972L74.1066 119.48L74.763 119.922L72.5778 123.06L70.6577 121.939Z" fill="#E71D36"/>
<path d="M72.2766 129.021L72.7193 128.342L74.032 129.056L75.7255 126.564L76.3793 127.004L74.1967 130.144L72.2766 129.021Z" fill="#E71D36"/>
<path d="M85.7555 137.906C85.7555 137.936 83.2743 138.501 80.2011 139.162C77.128 139.823 74.6314 140.348 74.6262 140.32C74.6211 140.292 77.1048 139.727 80.178 139.064C83.2511 138.401 85.7477 137.881 85.7555 137.906Z" fill="#263238"/>
<path d="M91.2995 136.615C90.6277 136.817 89.9455 136.984 89.2558 137.117C88.5767 137.282 87.8894 137.414 87.1968 137.511C87.8679 137.31 88.5491 137.142 89.2378 137.009C90.3677 136.765 91.2943 136.587 91.2995 136.615Z" fill="#263238"/>
<path d="M109.661 130.975C109.661 131.003 107.43 131.515 104.665 132.116C101.901 132.716 99.6516 133.181 99.6465 133.153C99.6413 133.125 101.875 132.615 104.642 132.013C107.409 131.41 109.656 130.947 109.661 130.975Z" fill="#263238"/>
<path d="M107.273 137.587C107.273 137.587 107.296 137.519 107.322 137.388C107.356 137.195 107.345 136.997 107.291 136.808C107.199 136.509 107.08 136.219 106.936 135.941C106.73 135.573 106.61 135.165 106.583 134.746C106.589 134.488 106.65 134.234 106.763 134.001C106.876 133.768 107.037 133.56 107.237 133.392C107.471 133.202 107.751 133.074 108.05 133.02C108.349 132.966 108.658 132.987 108.946 133.083C109.262 133.177 109.545 133.357 109.759 133.603C109.874 133.735 109.941 133.9 109.952 134.072C109.955 134.165 109.927 134.257 109.873 134.333C109.819 134.41 109.741 134.467 109.651 134.497C109.483 134.55 109.311 134.591 109.136 134.62L108.622 134.723C108.277 134.791 107.927 134.851 107.566 134.896C106.868 134.995 106.16 134.999 105.461 134.909C105.145 134.843 104.815 134.895 104.537 135.055C104.316 135.272 104.128 135.52 103.981 135.791C103.891 135.924 103.767 136.031 103.621 136.102C103.472 136.166 103.304 136.174 103.15 136.122C102.885 136.007 102.633 135.866 102.398 135.7C102.289 135.63 102.165 135.584 102.035 135.567C101.914 135.554 101.791 135.583 101.69 135.65C101.512 135.809 101.365 135.998 101.255 136.208C101.138 136.388 100.978 136.537 100.789 136.644C100.6 136.751 100.387 136.811 100.169 136.821C99.839 136.834 99.5165 136.722 99.2683 136.509C99.1124 136.378 98.9899 136.213 98.9105 136.027C98.8827 135.963 98.8629 135.897 98.8513 135.828C98.8513 135.828 98.8745 135.896 98.9311 136.019C99.0146 136.197 99.1387 136.353 99.294 136.477C99.5361 136.677 99.8472 136.779 100.164 136.763C100.372 136.752 100.575 136.693 100.754 136.589C100.933 136.485 101.084 136.341 101.194 136.168C101.307 135.948 101.46 135.75 101.646 135.585C101.764 135.505 101.906 135.469 102.048 135.482C102.189 135.502 102.324 135.551 102.444 135.625C102.675 135.785 102.922 135.922 103.18 136.034C103.313 136.078 103.457 136.072 103.585 136.017C103.716 135.953 103.825 135.855 103.901 135.733C104.054 135.455 104.248 135.201 104.478 134.979C104.62 134.88 104.787 134.819 104.962 134.803C105.133 134.786 105.305 134.786 105.476 134.803C106.168 134.891 106.868 134.887 107.559 134.791C107.914 134.746 108.261 134.683 108.606 134.618L109.121 134.517C109.286 134.487 109.449 134.448 109.61 134.399C109.68 134.377 109.742 134.333 109.784 134.275C109.827 134.216 109.849 134.145 109.847 134.072C109.835 133.922 109.776 133.779 109.677 133.663C109.474 133.427 109.206 133.253 108.905 133.161C108.632 133.07 108.34 133.049 108.056 133.099C107.772 133.149 107.506 133.269 107.283 133.447C107.091 133.606 106.936 133.803 106.827 134.025C106.718 134.246 106.658 134.487 106.65 134.733C106.673 135.143 106.786 135.543 106.979 135.906C107.122 136.188 107.236 136.483 107.322 136.786C107.372 136.98 107.377 137.182 107.335 137.378C107.323 137.45 107.302 137.52 107.273 137.587Z" fill="#263238"/>
<path d="M112.593 134.371C112.55 134.388 112.505 134.402 112.459 134.412L112.068 134.502L110.632 134.826C109.422 135.102 107.749 135.489 105.909 135.944C104.068 136.399 102.408 136.838 101.211 137.16L99.7907 137.542L99.402 137.642C99.3575 137.656 99.3119 137.666 99.2656 137.672C99.3071 137.65 99.3512 137.633 99.3969 137.622L99.7778 137.504C100.11 137.401 100.591 137.253 101.188 137.089C102.385 136.748 104.04 136.298 105.883 135.833C107.726 135.369 109.399 135.002 110.616 134.748C111.224 134.62 111.718 134.52 112.06 134.454L112.454 134.381C112.5 134.374 112.546 134.371 112.593 134.371Z" fill="#263238"/>
<path d="M91.4818 79.2512L71.4919 83.5979L72.3287 87.2636L92.3185 82.9169L91.4818 79.2512Z" fill="#E0E0E0"/>
<path d="M110.392 138.737L116.85 172.037L122.752 161.394L133.938 167.802L122.065 135.376L110.392 138.737Z" fill="#E71D36"/>
<g opacity="0.3">
<path d="M112.564 149.936C113.179 150.049 113.813 150.015 114.411 149.836C115.009 149.657 115.554 149.339 115.998 148.909C116.587 148.316 116.979 147.507 117.72 147.11C118.386 146.753 119.208 146.804 119.941 147.002C120.675 147.201 121.364 147.53 122.098 147.715C122.822 147.895 123.575 147.933 124.314 147.826C125.053 147.719 125.762 147.47 126.401 147.092L124.538 142.043L115.89 140.988L111.772 145.824L112.564 149.936Z" fill="black"/>
</g>
<path d="M122.332 160.072C122.296 160.072 121.334 156.621 120.183 152.348C119.033 148.075 118.124 144.598 118.165 144.59C118.206 144.583 119.161 148.037 120.312 152.315C121.462 156.593 122.368 160.062 122.332 160.072Z" fill="#263238"/>
<path d="M111.337 140.468L104.879 173.768L98.9774 163.127L87.7915 169.533L99.6646 137.107L111.337 140.468Z" fill="#E71D36"/>
<g opacity="0.3">
<path d="M96.1125 146.806C96.1125 146.806 97.9503 148.281 100.141 147.602C102.331 146.924 103.692 146.778 104.879 147.602C106.066 148.426 109.275 151.107 109.275 151.107L110.019 147.266L105.708 141.488L101.209 142.375L98.0069 142.679L96.8152 144.882L96.1125 146.806Z" fill="black"/>
</g>
<path d="M149.2 110.409C149.2 112.798 146.073 114.855 145.615 117.114C145.144 119.44 147.218 122.507 146.31 124.65C145.401 126.793 141.677 127.561 140.357 129.498C139.036 131.435 139.731 135.062 138.04 136.715C136.349 138.368 132.635 137.672 130.646 138.976C128.656 140.28 127.91 143.882 125.678 144.786C123.485 145.673 120.342 143.648 117.957 144.108C115.64 144.555 113.535 147.607 111.087 147.607C108.639 147.607 106.529 144.555 104.215 144.108C101.832 143.648 98.6889 145.673 96.4934 144.786C94.2979 143.9 93.5129 140.265 91.5285 138.976C89.5441 137.687 85.8275 138.366 84.1313 136.715C82.4352 135.065 83.1507 131.44 81.8149 129.498C80.479 127.556 76.7882 126.828 75.8642 124.65C74.9402 122.472 77.0301 119.442 76.5591 117.114C76.101 114.853 72.9712 112.798 72.9712 110.409C72.9712 108.02 76.101 105.96 76.5591 103.702C77.0301 101.376 74.953 98.3084 75.8642 96.1656C76.7753 94.0228 80.4971 93.2541 81.8149 91.3198C83.1327 89.3856 82.4403 85.7556 84.1313 84.1002C85.8223 82.4447 89.5363 83.1431 91.5285 81.8393C93.5206 80.5356 94.2619 76.9333 96.4934 76.0315C98.7249 75.1296 101.829 77.1694 104.215 76.7097C106.531 76.2626 108.639 73.2079 111.087 73.2079C113.535 73.2079 115.643 76.2626 117.957 76.7097C120.34 77.1694 123.483 75.1422 125.678 76.0315C127.91 76.9333 128.661 80.5532 130.646 81.8393C132.63 83.1255 136.347 82.4498 138.04 84.1002C139.734 85.7506 139.021 89.3755 140.357 91.3198C141.692 93.2642 145.383 93.9876 146.31 96.1656C147.236 98.3435 145.144 101.373 145.615 103.702C146.073 105.96 149.2 108.012 149.2 110.409Z" fill="#E71D36"/>
<path d="M102.169 89.5564C102.169 89.5564 102.14 89.5237 102.099 89.4534C102.058 89.383 101.994 89.27 101.924 89.1469C101.772 88.8806 101.564 88.4888 101.317 88.0014C100.82 87.0267 100.177 85.6552 99.5563 84.1077C98.936 82.5603 98.4599 81.1234 98.1484 80.0884C97.994 79.5634 97.8756 79.1389 97.8009 78.8324C97.7675 78.6968 97.7392 78.5812 97.7186 78.4908C97.7053 78.4519 97.6983 78.4112 97.698 78.3702C97.718 78.4068 97.7335 78.4456 97.7443 78.4857L97.8499 78.8199C97.9502 79.1288 98.0815 79.5458 98.2385 80.0508C98.5731 81.0882 99.0647 82.5126 99.6798 84.07C100.295 85.6275 100.928 86.9865 101.402 87.9713L101.971 89.1344L102.122 89.4509C102.141 89.4846 102.157 89.5199 102.169 89.5564Z" fill="#263238"/>
<path d="M105.561 88.2978C105.516 88.2101 105.482 88.1173 105.461 88.0215C105.407 87.8406 105.335 87.5769 105.25 87.2503C105.08 86.5997 104.869 85.6903 104.678 84.6805C104.488 83.6706 104.354 82.7487 104.277 82.0805C104.236 81.7464 104.21 81.4751 104.194 81.2867C104.183 81.1899 104.183 81.0921 104.194 80.9953C104.224 81.0886 104.244 81.1845 104.254 81.2817L104.377 82.0679C104.48 82.7336 104.635 83.6505 104.817 84.6579C105 85.6652 105.203 86.5746 105.347 87.2302C105.417 87.5367 105.474 87.7979 105.52 88.009C105.543 88.1037 105.557 88.2004 105.561 88.2978Z" fill="#263238"/>
<path d="M111.545 87.7175C111.507 87.7175 111.412 84.899 111.332 81.4248C111.252 77.9507 111.216 75.1296 111.252 75.1271C111.288 75.1246 111.386 77.9431 111.466 81.4223C111.545 84.9015 111.581 87.7175 111.545 87.7175Z" fill="#263238"/>
<path d="M117.568 81.9273C117.604 81.9273 117.187 83.3466 116.639 85.0749C116.091 86.8032 115.609 88.1923 115.584 88.1823C115.558 88.1722 115.965 86.763 116.513 85.0347C117.061 83.3064 117.529 81.9172 117.568 81.9273Z" fill="#263238"/>
<path d="M120.023 89.2097C120.028 89.1681 120.04 89.1275 120.057 89.0891L120.173 88.7575C120.276 88.4712 120.43 88.0592 120.636 87.5517C121.04 86.5469 121.617 85.1427 122.276 83.6103C122.934 82.078 123.547 80.6989 123.997 79.7041C124.219 79.2218 124.402 78.8249 124.541 78.5284L124.692 78.2119C124.731 78.1416 124.752 78.1039 124.757 78.1064C124.747 78.146 124.734 78.1846 124.718 78.222L124.587 78.5485L124.085 79.7418C123.645 80.7617 123.055 82.1383 122.399 83.6631C121.743 85.1879 121.161 86.5645 120.724 87.5869L120.222 88.7776L120.08 89.0992C120.066 89.1381 120.047 89.1753 120.023 89.2097Z" fill="#263238"/>
<path d="M123.23 90.8476C123.27 90.7587 123.319 90.6744 123.377 90.5963C123.48 90.4356 123.635 90.207 123.825 89.9281C124.211 89.373 124.767 88.6143 125.413 87.8055C126.059 86.9966 126.679 86.2982 127.138 85.7958C127.367 85.5446 127.557 85.3462 127.691 85.2105C127.755 85.1352 127.829 85.0678 127.91 85.0095C127.86 85.0952 127.799 85.1746 127.73 85.2457C127.591 85.4115 127.416 85.6149 127.215 85.8561C126.775 86.3736 126.17 87.0895 125.524 87.8984C124.878 88.7073 124.314 89.4534 123.907 89.996L123.426 90.6365C123.369 90.7133 123.303 90.7841 123.23 90.8476Z" fill="#263238"/>
<path d="M127.92 94.5905C127.894 94.5654 129.933 92.6764 132.468 90.3728C135.003 88.0692 137.083 86.2229 137.101 86.248C137.119 86.2731 135.091 88.1647 132.553 90.4683C130.015 92.7718 127.946 94.6182 127.92 94.5905Z" fill="#263238"/>
<path d="M136.099 95.3718C135.851 95.5249 135.593 95.6626 135.327 95.7837C134.843 96.035 134.187 96.3841 133.461 96.7886C132.736 97.193 132.066 97.5296 131.57 97.7557C131.312 97.8687 131.122 97.9567 130.978 98.0069C130.907 98.0427 130.832 98.0681 130.754 98.0823C131.002 97.9291 131.26 97.7915 131.526 97.6703C132.01 97.4191 132.666 97.0699 133.392 96.6655C134.118 96.261 134.787 95.9119 135.284 95.6983C135.541 95.5853 135.731 95.4974 135.876 95.4471C135.946 95.4103 136.021 95.3848 136.099 95.3718Z" fill="#263238"/>
<path d="M143.664 98.434C143.677 98.4691 141.252 99.3333 138.259 100.366C135.266 101.398 132.813 102.205 132.803 102.172C132.792 102.139 135.212 101.273 138.208 100.24C141.203 99.2077 143.651 98.4013 143.664 98.434Z" fill="#263238"/>
<path d="M146.073 111.866C146.073 111.901 143.435 111.688 140.19 111.386C136.944 111.085 134.313 110.811 134.319 110.773C134.324 110.736 136.954 110.954 140.202 111.256C143.451 111.557 146.076 111.831 146.073 111.866Z" fill="#263238"/>
<path d="M144.135 123.914C144.12 123.946 141.657 122.841 138.635 121.449C135.613 120.058 133.176 118.9 133.191 118.867C133.207 118.834 135.67 119.937 138.692 121.331C141.713 122.726 144.151 123.881 144.135 123.914Z" fill="#263238"/>
<path d="M136.033 135.376C136.004 135.399 134.231 133.387 132.066 130.885C129.902 128.383 128.172 126.33 128.206 126.308C128.239 126.285 130.007 128.295 132.172 130.799C134.336 133.304 136.061 135.351 136.033 135.376Z" fill="#263238"/>
<path d="M129.269 136.901C129.189 136.814 129.117 136.72 129.055 136.62C128.924 136.434 128.738 136.16 128.517 135.821C128.069 135.14 127.47 134.188 126.836 133.12C126.203 132.053 125.663 131.068 125.292 130.357C125.104 129.998 124.952 129.707 124.855 129.503C124.796 129.4 124.748 129.291 124.71 129.179C124.783 129.273 124.847 129.373 124.901 129.478C125.024 129.699 125.184 129.98 125.377 130.314C125.776 131.02 126.332 131.995 126.963 133.063C127.593 134.13 128.18 135.087 128.607 135.778C128.808 136.11 128.978 136.384 129.109 136.6C129.174 136.694 129.227 136.795 129.269 136.901Z" fill="#263238"/>
<path d="M125.068 142.654C125.068 142.654 125.042 142.621 125.001 142.551L124.834 142.244C124.687 141.975 124.489 141.584 124.252 141.096C123.779 140.119 123.169 138.747 122.589 137.195C122.01 135.643 121.573 134.211 121.303 133.176C121.161 132.653 121.045 132.226 120.989 131.932C120.96 131.797 120.937 131.681 120.916 131.591C120.906 131.551 120.9 131.511 120.898 131.47C120.919 131.506 120.934 131.545 120.942 131.586L121.04 131.92C121.13 132.231 121.248 132.646 121.393 133.151C121.696 134.188 122.147 135.615 122.726 137.17C123.305 138.725 123.897 140.089 124.35 141.076L124.89 142.239C124.947 142.365 124.996 142.47 125.037 142.556C125.052 142.587 125.062 142.62 125.068 142.654Z" fill="#263238"/>
<path d="M116.559 138.612C116.503 138.323 116.466 138.031 116.448 137.738C116.389 137.198 116.294 136.451 116.155 135.635C116.016 134.819 115.854 134.085 115.73 133.555C115.649 133.271 115.587 132.983 115.545 132.691C115.583 132.761 115.613 132.835 115.632 132.912C115.684 133.058 115.748 133.269 115.823 133.532C115.97 134.057 116.145 134.788 116.286 135.615C116.409 136.315 116.495 137.021 116.544 137.73C116.562 138.001 116.572 138.232 116.572 138.376C116.579 138.455 116.574 138.534 116.559 138.612Z" fill="#263238"/>
<path d="M110.992 145.844C110.986 145.801 110.986 145.758 110.992 145.716C110.992 145.615 110.992 145.492 110.992 145.347C110.992 145.025 110.992 144.56 110.992 143.988C111.013 142.84 111.067 141.257 111.159 139.511C111.252 137.765 111.368 136.183 111.463 135.04C111.509 134.467 111.553 134.005 111.587 133.686C111.605 133.54 111.617 133.417 111.628 133.319C111.631 133.275 111.639 133.232 111.653 133.191C111.66 133.234 111.66 133.278 111.653 133.321C111.653 133.419 111.653 133.542 111.635 133.691C111.615 134.03 111.589 134.487 111.556 135.045C111.486 136.208 111.394 137.78 111.298 139.516C111.203 141.252 111.136 142.845 111.092 143.99C111.072 144.548 111.054 144.995 111.041 145.347C111.041 145.495 111.025 145.615 111.02 145.716C111.017 145.76 111.008 145.803 110.992 145.844Z" fill="#263238"/>
<path d="M106.467 133.191C106.465 133.407 106.439 133.623 106.39 133.834C106.323 134.226 106.215 134.766 106.073 135.356C105.932 135.946 105.783 136.479 105.664 136.863C105.613 137.074 105.538 137.277 105.44 137.471C105.463 137.257 105.507 137.045 105.571 136.838L105.942 135.331C106.076 134.766 106.199 134.253 106.297 133.824C106.333 133.608 106.39 133.396 106.467 133.191Z" fill="#263238"/>
<path d="M98.2851 129.365C97.9479 129.909 97.5721 130.43 97.1604 130.922C96.7827 131.441 96.3708 131.935 95.9275 132.402C96.264 131.857 96.6399 131.337 97.0523 130.845C97.4282 130.325 97.8401 129.83 98.2851 129.365Z" fill="#263238"/>
<path d="M93.9943 126.541C94.0201 126.564 92.4243 128.395 90.427 130.628C88.4297 132.862 86.785 134.648 86.7567 134.63C86.7284 134.613 88.3268 132.776 90.324 130.543C92.3213 128.31 93.966 126.516 93.9943 126.541Z" fill="#263238"/>
<path d="M91.8452 123.424C91.214 124.018 90.5517 124.58 89.8608 125.107C88.7412 126.006 87.8146 126.715 87.8018 126.687C88.4334 126.094 89.0957 125.533 89.7862 125.006C90.4449 124.446 91.1321 123.917 91.8452 123.424Z" fill="#263238"/>
<path d="M89.3333 118.724C89.3487 118.757 87.1249 119.837 84.3632 121.133C81.6015 122.429 79.3546 123.457 79.3365 123.424C79.3185 123.391 81.5449 122.314 84.3066 121.015C87.0683 119.716 89.3178 118.691 89.3333 118.724Z" fill="#263238"/>
<path d="M88.3243 116.38C88.2504 116.412 88.1725 116.434 88.0927 116.445C87.9408 116.481 87.722 116.526 87.4518 116.574C86.9087 116.674 86.152 116.785 85.3129 116.867C84.4739 116.95 83.7094 116.986 83.1561 116.993C82.8807 116.993 82.6567 116.993 82.5023 116.993C82.4218 116.998 82.341 116.991 82.2629 116.97C82.5582 116.931 82.8555 116.908 83.1535 116.903C83.7043 116.87 84.4636 116.82 85.3001 116.737C86.1366 116.654 86.8907 116.558 87.4363 116.486C87.7294 116.43 88.0261 116.395 88.3243 116.38Z" fill="#263238"/>
<path d="M87.5084 110.967C87.3585 110.979 87.2078 110.979 87.0579 110.967L85.8328 110.906C84.8033 110.856 83.3722 110.811 81.7945 110.818C80.2167 110.826 78.7857 110.889 77.7536 110.949L76.531 111.022C76.3815 111.039 76.2309 111.044 76.0806 111.037C76.2268 111.003 76.3758 110.981 76.5258 110.972C76.8141 110.939 77.2311 110.899 77.7458 110.856C78.7754 110.773 80.2116 110.698 81.7919 110.688C83.3722 110.678 84.8058 110.741 85.8405 110.813C86.3553 110.851 86.7748 110.886 87.0631 110.916C87.2125 110.923 87.3613 110.94 87.5084 110.967Z" fill="#263238"/>
<path d="M88.0127 106.214C88.0127 106.249 86.3372 105.824 84.291 105.267C82.2448 104.709 80.595 104.232 80.6053 104.197C80.6156 104.161 82.2808 104.584 84.327 105.141C86.3732 105.699 88.023 106.179 88.0127 106.214Z" fill="#263238"/>
<path d="M89.0914 102.235C89.05 102.232 89.0092 102.224 88.9704 102.21L88.6281 102.109C88.3347 102.019 87.91 101.878 87.3926 101.695C86.0409 101.21 84.7161 100.657 83.4238 100.037C82.132 99.4159 80.875 98.7283 79.6583 97.9768C79.1924 97.6879 78.8192 97.4467 78.567 97.2734L78.2787 97.0699C78.2144 97.0222 78.1809 96.9971 78.1835 96.9921C78.2224 97.0074 78.2595 97.0267 78.2942 97.0498L78.5979 97.2307C78.8553 97.3915 79.2362 97.6201 79.7072 97.8989C80.6518 98.4566 81.9747 99.1926 83.483 99.9086C84.9913 100.624 86.3966 101.207 87.4261 101.599C87.9409 101.793 88.3553 101.946 88.6461 102.051L88.9781 102.174C89.0175 102.191 89.0554 102.212 89.0914 102.235Z" fill="#263238"/>
<path d="M91.5131 98.2154C91.4925 98.2431 90.1902 97.384 88.6047 96.2937C87.0192 95.2035 85.7503 94.2966 85.7735 94.2665C85.7967 94.2363 87.0965 95.098 88.6845 96.1882C90.2726 97.2784 91.5337 98.1928 91.5131 98.2154Z" fill="#263238"/>
<path d="M86.3938 86.0119C86.3938 86.0119 86.4298 86.032 86.4916 86.0797L86.749 86.3008L87.6987 87.1197L90.8156 89.8352L93.9454 92.5357L94.8926 93.3571L95.15 93.5857C95.181 93.6106 95.2087 93.6393 95.2323 93.6711C95.2323 93.6711 95.1963 93.6535 95.1319 93.6058L94.8746 93.3973C94.6403 93.2139 94.3083 92.9426 93.8991 92.606C93.0806 91.9328 91.9636 90.9908 90.741 89.9332C89.5184 88.8756 88.4245 87.9009 87.6524 87.1875C87.2612 86.8308 86.9472 86.5419 86.731 86.3359L86.4865 86.0998C86.4247 86.0445 86.3886 86.0144 86.3938 86.0119Z" fill="#263238"/>
<path d="M94.4216 86.2405C94.4216 86.2405 94.4911 86.2957 94.5966 86.4138C94.7022 86.5319 94.854 86.7052 95.0316 86.9162C95.3894 87.3533 95.8655 87.9713 96.3597 88.6747C96.8539 89.378 97.2683 90.0362 97.554 90.521C97.6981 90.7722 97.8114 90.9606 97.8834 91.0988C97.928 91.1675 97.9626 91.2419 97.9864 91.3198C97.7977 91.0802 97.6258 90.8284 97.4716 90.5662C97.1653 90.094 96.7381 89.4484 96.2465 88.745C95.7549 88.0416 95.2916 87.4211 94.9596 86.9715C94.7655 86.7385 94.5859 86.4944 94.4216 86.2405Z" fill="#263238"/>
<g opacity="0.2">
<path d="M84.134 84.1027L95.3328 93.6711L98.1151 91.4982L91.6187 81.7816C91.6187 81.7816 91.1194 82.1383 89.817 82.5C88.5739 82.8492 84.8804 82.9421 84.134 84.1027Z" fill="black"/>
</g>
<g opacity="0.2">
<path d="M96.5991 76.0089L102.066 89.3655L105.561 88.2978L104.395 76.7122C104.395 76.7122 103.796 76.8504 102.46 76.6846C101.165 76.5238 98.0276 75.3256 96.5991 76.0089Z" fill="black"/>
</g>
<g opacity="0.3">
<path d="M111.177 73.2129L111.545 87.7176L114.819 87.8708L118.134 76.7374C117.446 76.6039 116.79 76.3393 116.206 75.9586C115.074 75.2502 112.763 73.0949 111.177 73.2129Z" fill="black"/>
</g>
<g opacity="0.2">
<path d="M125.457 75.9536L120.023 89.3253L122.973 90.7044L130.45 81.6962C129.888 81.2331 129.409 80.6822 129.032 80.0658C128.327 78.953 127.112 76.3982 125.457 75.9536Z" fill="black"/>
</g>
<g opacity="0.2">
<path d="M138.218 84.2961L128.097 94.5955L130.352 97.5623L140.241 91.1214C139.915 90.536 139.695 89.9005 139.59 89.2423C139.353 87.9863 139.319 85.7054 138.218 84.2961Z" fill="black"/>
</g>
<g opacity="0.2">
<path d="M146.207 95.9169L132.579 101.391L133.709 104.789L145.566 103.533C145.566 103.533 145.492 103.177 145.649 101.873C145.798 100.609 147.167 97.7859 146.207 95.9169Z" fill="black"/>
</g>
<g opacity="0.2">
<path d="M149.226 110.409L134.367 110.911L134.244 114.109L145.569 117.345C145.644 116.884 145.795 116.439 146.017 116.026C146.861 114.489 149.226 112.318 149.226 110.409Z" fill="black"/>
</g>
<g opacity="0.2">
<path d="M146.485 124.12L132.805 118.917L131.423 121.829L140.732 129.021C141.222 128.563 141.763 128.162 142.346 127.825C143.479 127.119 146.171 125.976 146.485 124.12Z" fill="black"/>
</g>
<g opacity="0.2">
<path d="M126.365 123.914L122.978 126.677C123.235 126.928 127.747 134.424 130.53 139.051C130.566 139.021 130.604 138.992 130.643 138.966C132.473 137.77 135.731 138.25 137.569 137.067L126.365 123.914Z" fill="black"/>
<path d="M120.142 129.159L115.087 130.842L117.48 144.236C117.636 144.183 117.795 144.14 117.956 144.108C120.34 143.648 123.483 145.673 125.678 144.786C125.979 144.661 126.258 144.491 126.507 144.284L120.142 129.159Z" fill="black"/>
<path d="M110.912 147.602L111.718 130.103L107.342 129.021L104.091 144.093L104.21 144.113C106.475 144.543 108.536 147.452 110.912 147.602Z" fill="black"/>
<path d="M99.9219 127.132C99.9219 127.132 94.1462 134.683 91.1245 138.747C91.2643 138.816 91.4001 138.892 91.5312 138.976C93.5156 140.272 94.2646 143.882 96.4961 144.786C96.599 144.827 96.7046 144.859 96.8101 144.889L104.879 129.983L99.9219 127.132Z" fill="black"/>
<path d="M93.9944 121.053L81.676 129.315C81.7224 129.375 81.7738 129.433 81.815 129.496C83.1534 131.445 82.4405 135.06 84.1315 136.713C84.2875 136.862 84.4602 136.995 84.6462 137.107C88.9986 132.319 96.8127 123.723 97.0958 123.424L93.9944 121.053Z" fill="black"/>
<path d="M91.1709 115.152L76.6056 117.448C76.8399 119.729 74.997 122.607 75.8644 124.647C75.9166 124.772 75.9795 124.892 76.0523 125.006C81.1484 122.53 91.7964 117.377 92.2391 117.35L91.1709 115.152Z" fill="black"/>
<path d="M90.3754 107.234L76.608 103.358C76.5951 103.473 76.5797 103.589 76.5591 103.702C76.101 105.963 72.9712 108.02 72.9712 110.409C72.9719 110.568 72.9857 110.727 73.0124 110.884H89.8169L90.3754 107.234Z" fill="black"/>
<path d="M75.9209 96.0626C81.0686 98.753 91.1245 104.197 91.1245 104.197L93.6005 99.6071L81.972 91.0661C81.9205 91.154 81.8716 91.2445 81.815 91.3173C80.5049 93.224 76.9195 93.9675 75.9209 96.0626Z" fill="black"/>
</g>
<path d="M149.2 110.409L149.185 110.248C149.179 110.091 149.156 109.934 149.118 109.781C148.968 109.179 148.706 108.608 148.346 108.098C147.903 107.405 147.234 106.628 146.544 105.646C146.155 105.124 145.856 104.542 145.659 103.925C145.491 103.205 145.491 102.457 145.659 101.737C145.803 100.971 146.037 100.182 146.24 99.3458C146.444 98.5093 146.634 97.605 146.444 96.6806C146.336 96.2126 146.116 95.7762 145.803 95.4069C145.467 95.0309 145.083 94.6983 144.66 94.4172C143.806 93.8243 142.822 93.3521 141.883 92.7341C141.397 92.4283 140.955 92.0599 140.57 91.6389C140.192 91.1819 139.918 90.6519 139.765 90.0839C139.435 88.9409 139.361 87.7201 139.111 86.4992C139.002 85.8776 138.787 85.2781 138.475 84.7257C138.137 84.1695 137.623 83.7351 137.011 83.4872C136.379 83.2394 135.717 83.0706 135.042 82.9848C134.36 82.8743 133.66 82.7964 132.959 82.6758C132.242 82.5749 131.547 82.3602 130.9 82.0403C130.26 81.6643 129.717 81.1484 129.315 80.5331C128.888 79.9352 128.52 79.2921 128.128 78.6566C127.754 78.0063 127.305 77.3995 126.79 76.8479C126.26 76.2898 125.536 75.9435 124.759 75.8757C123.966 75.8471 123.172 75.9377 122.407 76.1445C121.635 76.3279 120.842 76.5515 120.031 76.6997C119.212 76.8882 118.357 76.8726 117.545 76.6544C116.754 76.3515 116.013 75.934 115.349 75.416C114.662 74.9136 113.993 74.4112 113.259 73.964C112.526 73.5169 111.695 73.1928 110.83 73.2883H110.668C110.614 73.2883 110.562 73.3109 110.511 73.321C110.405 73.3461 110.297 73.3637 110.194 73.3938C109.987 73.4582 109.784 73.5353 109.587 73.6249C109.188 73.8097 108.806 74.0256 108.444 74.2705C107.713 74.7729 107.02 75.3205 106.269 75.8179C105.895 76.0736 105.499 76.2972 105.085 76.4861C104.661 76.6712 104.207 76.7826 103.744 76.8152C102.815 76.821 101.891 76.6932 101 76.4359C100.104 76.1861 99.1891 76.0022 98.2643 75.8858C97.8025 75.8414 97.3363 75.872 96.8847 75.9762C96.4349 76.0983 96.02 76.3201 95.6725 76.6243C94.9621 77.2297 94.4679 78.0436 93.9737 78.8424C93.5072 79.6789 92.9618 80.4711 92.3445 81.2088C92.0177 81.5742 91.6252 81.8782 91.1863 82.1056C90.7382 82.3124 90.2676 82.4691 89.7836 82.5729C88.8158 82.7814 87.8274 82.8693 86.852 83.0401C85.8765 83.2109 84.8804 83.4797 84.1752 84.1479C83.8348 84.5018 83.572 84.9198 83.403 85.3763C83.2326 85.8367 83.1077 86.312 83.0298 86.7956C82.8497 87.7653 82.7724 88.76 82.5151 89.7372C82.4045 90.2332 82.2197 90.7105 81.9668 91.154C81.7004 91.5934 81.351 91.9795 80.9373 92.292C80.124 92.9301 79.2 93.4023 78.3146 93.9299C77.871 94.1904 77.4454 94.4791 77.0405 94.794C76.6378 95.1081 76.299 95.4933 76.0419 95.9294C75.7967 96.3737 75.6726 96.8719 75.6816 97.3764C75.6907 97.8835 75.7519 98.3884 75.8643 98.8836C76.0805 99.8884 76.4074 100.876 76.5824 101.898C76.6861 102.423 76.707 102.96 76.6442 103.491C76.5711 104.02 76.3965 104.532 76.1294 104.998C75.5915 105.915 74.8914 106.721 74.2711 107.575C73.9525 107.996 73.6751 108.445 73.4423 108.917C73.1873 109.377 73.0538 109.891 73.0538 110.414C73.0538 110.937 73.1873 111.451 73.4423 111.911C73.6747 112.383 73.9522 112.832 74.2711 113.253C74.8914 114.107 75.5915 114.913 76.1294 115.83C76.3916 116.288 76.566 116.788 76.6442 117.307C76.7096 117.831 76.6922 118.361 76.5927 118.88C76.4202 119.912 76.0934 120.902 75.8746 121.907C75.7631 122.402 75.7019 122.907 75.6918 123.414C75.6817 123.919 75.8049 124.418 76.0496 124.863C76.3047 125.301 76.6428 125.687 77.0457 126.001C77.4505 126.316 77.8761 126.605 78.3197 126.865C79.2051 127.393 80.1214 127.87 80.945 128.503C81.3581 128.816 81.7073 129.202 81.9746 129.641C82.2294 130.083 82.4142 130.56 82.5228 131.056C82.7647 132.035 82.8471 133.03 83.0375 134C83.1175 134.483 83.2433 134.958 83.4133 135.419C83.5783 135.875 83.8367 136.294 84.1726 136.65C84.8856 137.326 85.8894 137.594 86.852 137.765C87.8146 137.936 88.8158 138.016 89.7836 138.232C90.2684 138.337 90.7397 138.493 91.1889 138.7C91.6272 138.928 92.0196 139.232 92.3471 139.597C92.9582 140.335 93.4984 141.127 93.9609 141.963C94.455 142.762 94.9492 143.576 95.6596 144.181C96.0066 144.485 96.4205 144.706 96.8693 144.829C97.3248 144.941 97.7962 144.979 98.2643 144.94C99.1874 144.819 100.1 144.631 100.995 144.379C101.886 144.12 102.812 143.991 103.741 143.998C104.205 144.032 104.658 144.144 105.082 144.329C105.496 144.519 105.892 144.742 106.266 144.997C107.018 145.5 107.708 146.055 108.441 146.542C108.802 146.789 109.184 147.006 109.581 147.19C109.779 147.28 109.982 147.357 110.189 147.422C110.294 147.449 110.4 147.469 110.505 147.494L110.665 147.527H110.825C111.692 147.623 112.526 147.276 113.257 146.851C113.988 146.427 114.66 145.892 115.344 145.399C116.009 144.881 116.75 144.464 117.542 144.161C118.354 143.944 119.209 143.928 120.029 144.116C120.839 144.266 121.622 144.49 122.404 144.673C123.171 144.878 123.965 144.968 124.759 144.942C125.535 144.872 126.257 144.525 126.787 143.967C127.301 143.414 127.749 142.806 128.126 142.156C128.514 141.523 128.883 140.88 129.31 140.28C129.714 139.665 130.257 139.15 130.898 138.773C131.544 138.452 132.24 138.238 132.957 138.14C133.66 138.016 134.357 137.939 135.039 137.831C135.715 137.741 136.377 137.568 137.008 137.316C137.62 137.067 138.133 136.633 138.473 136.077C138.782 135.524 138.996 134.925 139.106 134.304C139.363 133.083 139.43 131.859 139.762 130.716C139.914 130.149 140.188 129.619 140.568 129.164C140.952 128.742 141.393 128.373 141.88 128.069C142.82 127.451 143.803 126.978 144.655 126.386C145.079 126.105 145.465 125.771 145.8 125.393C146.113 125.025 146.332 124.589 146.439 124.122C146.528 123.671 146.541 123.209 146.477 122.753C146.424 122.317 146.343 121.884 146.235 121.457C146.029 120.62 145.798 119.832 145.654 119.065C145.486 118.345 145.486 117.598 145.654 116.877C145.851 116.261 146.15 115.68 146.539 115.157C147.237 114.175 147.908 113.398 148.341 112.705C148.702 112.195 148.963 111.624 149.113 111.022C149.151 110.869 149.174 110.712 149.18 110.555L149.195 110.396C149.195 110.396 149.195 110.449 149.195 110.555C149.19 110.713 149.17 110.87 149.133 111.024C148.987 111.632 148.725 112.207 148.361 112.72C147.921 113.418 147.255 114.197 146.56 115.179C146.173 115.698 145.879 116.276 145.687 116.89C145.52 117.603 145.52 118.343 145.687 119.055C145.831 119.809 146.065 120.605 146.274 121.442C146.386 121.872 146.472 122.308 146.531 122.748C146.595 123.209 146.582 123.678 146.493 124.135C146.385 124.613 146.163 125.059 145.844 125.436C145.505 125.818 145.117 126.156 144.688 126.441C143.829 127.039 142.848 127.514 141.914 128.129C141.437 128.432 141.004 128.796 140.627 129.212C140.255 129.66 139.987 130.181 139.839 130.739C139.512 131.869 139.44 133.09 139.188 134.319C139.079 134.95 138.863 135.559 138.547 136.12C138.2 136.692 137.673 137.139 137.044 137.396C136.406 137.652 135.738 137.827 135.055 137.918C134.37 138.029 133.67 138.107 132.972 138.23C132.264 138.329 131.577 138.54 130.939 138.855C130.316 139.224 129.788 139.727 129.395 140.325C128.973 140.92 128.605 141.561 128.213 142.199C127.835 142.856 127.382 143.469 126.865 144.028C126.317 144.604 125.571 144.962 124.77 145.033C123.964 145.064 123.158 144.973 122.381 144.764C121.596 144.58 120.814 144.359 120.011 144.211C119.209 144.028 118.373 144.043 117.578 144.254C116.798 144.554 116.069 144.966 115.414 145.477C114.732 145.967 114.06 146.495 113.319 146.937C113.126 147.037 112.943 147.155 112.742 147.238C112.642 147.283 112.544 147.331 112.444 147.371L112.132 147.479C111.71 147.621 111.261 147.672 110.817 147.63L110.65 147.618C110.596 147.618 110.541 147.595 110.485 147.585C110.377 147.56 110.266 147.54 110.161 147.509C109.947 147.445 109.738 147.366 109.535 147.273C109.131 147.086 108.744 146.867 108.377 146.618C107.638 146.115 106.946 145.568 106.202 145.073C105.832 144.823 105.442 144.603 105.036 144.415C104.625 144.236 104.185 144.128 103.736 144.096C102.819 144.092 101.905 144.219 101.026 144.475C100.122 144.735 99.1985 144.927 98.2643 145.05C97.787 145.096 97.3053 145.064 96.8384 144.957C96.3708 144.83 95.9393 144.6 95.5772 144.284C94.8463 143.659 94.3469 142.837 93.8528 142.036C93.3948 141.207 92.8589 140.421 92.2519 139.689C91.9356 139.336 91.5552 139.042 91.1297 138.823C90.691 138.619 90.2299 138.466 89.7552 138.366C88.7978 138.16 87.812 138.072 86.8288 137.898C86.3335 137.818 85.8467 137.694 85.3746 137.527C84.8958 137.355 84.4578 137.09 84.0877 136.748C83.7363 136.382 83.4672 135.948 83.2975 135.474C83.1237 135.006 82.9953 134.524 82.914 134.032C82.7338 133.055 82.6566 132.06 82.3992 131.096C82.2924 130.612 82.1119 130.148 81.8639 129.717C81.6034 129.291 81.2628 128.916 80.8601 128.614C80.0622 127.988 79.1408 127.516 78.2528 126.986C77.8048 126.722 77.3749 126.43 76.9659 126.112C76.5495 125.786 76.2002 125.386 75.9364 124.934C75.6822 124.471 75.5546 123.952 75.5657 123.426C75.5718 122.907 75.634 122.389 75.751 121.881C75.9698 120.877 76.2967 119.872 76.4666 118.867C76.5637 118.361 76.5802 117.843 76.5155 117.332C76.4375 116.824 76.2629 116.335 76.0007 115.89C75.4859 114.986 74.7756 114.185 74.1501 113.323C73.8242 112.894 73.539 112.436 73.2982 111.956C73.0364 111.479 72.8994 110.946 72.8994 110.404C72.8994 109.862 73.0364 109.329 73.2982 108.851C73.5357 108.373 73.8184 107.917 74.1424 107.49C74.7678 106.628 75.4654 105.827 75.9904 104.925C76.2524 104.479 76.4269 103.989 76.5052 103.481C76.5652 102.969 76.5479 102.452 76.4537 101.946C76.2813 100.941 75.9544 99.9362 75.7356 98.9314C75.6206 98.4247 75.5594 97.9078 75.5529 97.389C75.5426 96.8636 75.6711 96.3445 75.9261 95.8817C76.1916 95.431 76.5407 95.0323 76.9556 94.7061C77.364 94.3869 77.794 94.0948 78.2425 93.8319C79.1305 93.3018 80.0442 92.8271 80.8498 92.2041C81.2518 91.9013 81.5915 91.5272 81.851 91.1013C82.0978 90.6691 82.2774 90.2034 82.3838 89.7196C82.6232 88.755 82.7055 87.7628 82.8986 86.7856C82.979 86.2943 83.1065 85.8116 83.2795 85.3436C83.4347 84.8647 83.7048 84.4288 84.0675 84.0722C84.4301 83.7157 84.8747 83.4488 85.3643 83.2938C85.8364 83.1269 86.3232 83.0024 86.8185 82.922C87.8017 82.7487 88.7875 82.6708 89.7449 82.4573C90.2187 82.3539 90.6795 82.2006 91.1194 82.0001C91.5436 81.7792 91.923 81.4847 92.239 81.1309C92.846 80.399 93.382 79.6135 93.8399 78.7847C94.3341 77.9833 94.8334 77.1619 95.5669 76.5389C95.9308 76.2186 96.3661 75.9855 96.8384 75.8581C97.3054 75.7522 97.787 75.7208 98.2643 75.7652C99.1927 75.8863 100.111 76.0744 101.011 76.3279C101.89 76.5855 102.803 76.7141 103.721 76.7097C104.165 76.6751 104.601 76.5664 105.008 76.3882C105.416 76.2028 105.806 75.9825 106.174 75.73C106.92 75.2276 107.612 74.6775 108.351 74.1876C108.717 73.9374 109.105 73.718 109.509 73.532C109.712 73.4399 109.92 73.3602 110.132 73.2933C110.24 73.2632 110.351 73.2456 110.459 73.2205L110.621 73.1853H110.789C111.233 73.1443 111.681 73.1957 112.104 73.336L112.415 73.444C112.516 73.4842 112.613 73.532 112.714 73.5772C112.917 73.6626 113.1 73.7781 113.29 73.8786C114.034 74.3207 114.703 74.8483 115.388 75.3381C116.042 75.8486 116.771 76.2609 117.55 76.5615C118.344 76.774 119.181 76.7886 119.982 76.6042C120.785 76.4585 121.568 76.2374 122.353 76.0541C123.13 75.8454 123.936 75.7539 124.741 75.7828C125.543 75.8546 126.289 76.2124 126.836 76.7876C127.355 77.3474 127.808 77.9616 128.188 78.6189C128.579 79.2544 128.944 79.8975 129.366 80.4904C129.759 81.0898 130.287 81.5934 130.911 81.9624C131.548 82.279 132.236 82.4904 132.944 82.5879C133.642 82.711 134.342 82.7889 135.026 82.8994C135.709 82.9919 136.378 83.1674 137.016 83.4219C137.644 83.6786 138.172 84.1249 138.522 84.6955C138.836 85.2571 139.052 85.8658 139.162 86.4967C139.42 87.7251 139.487 88.9459 139.811 90.0764C139.96 90.6341 140.228 91.1546 140.599 91.6037C140.975 92.0211 141.408 92.3862 141.886 92.6889C142.82 93.3043 143.803 93.7791 144.66 94.377C145.088 94.6618 145.477 94.9995 145.816 95.3818C146.135 95.7585 146.358 96.2035 146.467 96.6806C146.557 97.1385 146.57 97.6077 146.506 98.0697C146.447 98.5089 146.361 98.9443 146.248 99.3735C146.042 100.213 145.805 100.999 145.661 101.762C145.494 102.475 145.494 103.215 145.661 103.928C145.853 104.541 146.148 105.12 146.534 105.639C147.226 106.623 147.893 107.397 148.336 108.098C148.699 108.611 148.96 109.186 149.108 109.793C149.144 109.948 149.165 110.105 149.169 110.263C149.2 110.354 149.2 110.409 149.2 110.409Z" fill="#263238"/>
<path d="M103.927 144.94C103.963 144.94 103.013 148.708 101.806 153.335C100.599 157.962 99.59 161.708 99.554 161.7C99.5179 161.693 100.468 157.932 101.675 153.302C102.882 148.673 103.901 144.92 103.927 144.94Z" fill="#263238"/>
<path d="M111.087 133.213C123.991 133.213 134.452 123.004 134.452 110.409C134.452 97.8144 123.991 87.6045 111.087 87.6045C98.1829 87.6045 87.7219 97.8144 87.7219 110.409C87.7219 123.004 98.1829 133.213 111.087 133.213Z" fill="white"/>
<path d="M96.6994 102.506C96.3777 102.82 94.6069 105.965 94.4448 108.56C94.2826 111.155 94.6661 125.72 94.6661 125.72L94.7356 126.687C98.9412 131.488 114.23 138.632 128 126.662L128.772 117.701L126.499 98.7329L118.598 96.8464L116.747 93.9198L104.413 96.7383L103.312 99.2755L96.6994 102.506Z" fill="#455A64"/>
<path d="M115.9 86.2932C116.443 84.3213 116.976 82.3367 117.164 80.3045C117.352 78.2722 117.179 76.1721 116.351 74.2982C116.224 74.0143 115.182 72.1177 114.868 72.1654C114.644 72.1981 115.318 73.9816 115.216 74.1751C114.225 76.0516 114.044 78.2546 114.33 80.3472C114.625 82.3793 115.151 84.3728 115.9 86.2907" fill="#263238"/>
<path d="M115.694 78.5058C115.596 73.3888 112.461 69.1811 107.224 69.4197L106.74 69.47C104.397 69.711 102.233 70.8039 100.679 72.5312C99.1238 74.2585 98.2922 76.4937 98.3492 78.7922C98.4624 83.226 98.6426 88.1245 98.9283 90.4808C99.5177 95.3567 104.591 95.6029 104.591 95.6029L104.825 98.8108L106.974 101.089L116.937 95.0603L115.694 78.5058Z" fill="#FFBF9D"/>
<path d="M104.604 95.6406C104.604 95.6406 107.777 95.4974 110.915 93.0908C110.915 93.0908 109.864 97.5146 104.825 97.5874L104.604 95.6406Z" fill="#FF9A6C"/>
<path d="M101.229 82.7688C101.247 82.9522 101.338 83.1214 101.483 83.2398C101.627 83.3583 101.814 83.4165 102.002 83.4018C102.093 83.3996 102.183 83.3795 102.267 83.3427C102.351 83.3059 102.426 83.2532 102.488 83.1877C102.55 83.1222 102.599 83.0451 102.63 82.9611C102.661 82.8771 102.675 82.7878 102.671 82.6984C102.653 82.5153 102.561 82.3465 102.417 82.2282C102.273 82.1098 102.087 82.0514 101.899 82.0654C101.807 82.0673 101.717 82.0872 101.633 82.1238C101.549 82.1605 101.474 82.2132 101.411 82.2788C101.349 82.3444 101.301 82.4216 101.269 82.5057C101.238 82.5899 101.225 82.6794 101.229 82.7688Z" fill="#263238"/>
<path d="M99.6388 80.7089C99.7366 80.7893 100.236 80.3447 101.005 80.2668C101.775 80.1889 102.377 80.518 102.452 80.405C102.488 80.3623 102.38 80.2065 102.115 80.0558C101.758 79.866 101.35 79.7879 100.946 79.8322C100.546 79.8724 100.17 80.0351 99.8704 80.2969C99.6517 80.5004 99.5899 80.6712 99.6388 80.7089Z" fill="#263238"/>
<path d="M108.022 82.2061C108.039 82.3895 108.13 82.5587 108.275 82.6771C108.419 82.7956 108.606 82.8538 108.794 82.8391C108.886 82.8369 108.976 82.8168 109.059 82.78C109.143 82.7433 109.218 82.6905 109.28 82.625C109.343 82.5595 109.391 82.4824 109.422 82.3984C109.454 82.3144 109.468 82.2251 109.463 82.1358C109.445 81.9522 109.355 81.7827 109.21 81.6639C109.066 81.545 108.879 81.4862 108.691 81.5002C108.599 81.5028 108.509 81.5232 108.425 81.5602C108.342 81.5973 108.267 81.6502 108.204 81.7159C108.142 81.7817 108.094 81.8589 108.063 81.943C108.031 82.0272 108.017 82.1166 108.022 82.2061Z" fill="#263238"/>
<path d="M107.203 80.2366C107.301 80.3195 107.803 79.8724 108.57 79.7945C109.337 79.7166 109.944 80.0457 110.016 79.9352C110.052 79.89 109.947 79.7342 109.682 79.586C109.324 79.3952 108.915 79.3171 108.511 79.3624C108.11 79.4009 107.733 79.5638 107.435 79.8272C107.219 80.0281 107.157 80.2015 107.203 80.2366Z" fill="#263238"/>
<path d="M105.067 86.2882C105.067 86.2455 104.581 86.2128 103.796 86.1953C103.597 86.1953 103.407 86.1777 103.361 86.0496C103.322 85.8538 103.346 85.651 103.43 85.4693L103.852 83.962C104.434 81.8017 104.833 80.0332 104.745 80.0106C104.658 79.988 104.11 81.7213 103.528 83.8842L103.132 85.404C103.035 85.6451 103.027 85.9117 103.111 86.1576C103.146 86.223 103.196 86.2797 103.257 86.3232C103.319 86.3668 103.389 86.3961 103.464 86.4088C103.576 86.4222 103.689 86.4222 103.801 86.4088C104.586 86.3761 105.07 86.3309 105.067 86.2882Z" fill="#263238"/>
<path d="M107.386 86.5746C107.26 86.5746 107.347 87.3935 106.696 88.0466C106.045 88.6997 105.152 88.6997 105.152 88.8153C105.152 88.8655 105.365 88.9535 105.744 88.9233C106.231 88.8787 106.687 88.6679 107.031 88.328C107.359 87.9991 107.544 87.5587 107.546 87.0996C107.558 86.7554 107.443 86.5645 107.386 86.5746Z" fill="#263238"/>
<path d="M106.918 77.187C107.015 77.383 107.772 77.2071 108.686 77.2222C109.6 77.2373 110.356 77.4006 110.454 77.2046C110.498 77.1117 110.351 76.9333 110.035 76.765C109.615 76.5663 109.154 76.463 108.687 76.463C108.22 76.463 107.76 76.5663 107.34 76.765C107.015 76.9157 106.874 77.0941 106.918 77.187Z" fill="#263238"/>
<path d="M99.6878 78.1818C99.8396 78.3375 100.352 78.1064 100.988 78.0311C101.623 77.9557 102.177 78.0311 102.274 77.8351C102.321 77.7422 102.218 77.5839 101.966 77.4433C101.628 77.2824 101.248 77.223 100.876 77.2727C100.503 77.3223 100.154 77.4787 99.8731 77.7221C99.6723 77.9205 99.6183 78.1039 99.6878 78.1818Z" fill="#263238"/>
<path d="M115.677 82.1659C115.759 82.1207 119.007 80.8195 119.259 84.1756C119.512 87.5317 116.024 87.0745 116.001 86.979C115.978 86.8836 115.677 82.1659 115.677 82.1659Z" fill="#FFBF9D"/>
<path d="M116.953 85.635C116.968 85.635 117.015 85.6702 117.12 85.7079C117.267 85.7574 117.427 85.7493 117.568 85.6853C117.921 85.5295 118.183 84.9467 118.155 84.3413C118.143 84.0534 118.065 83.7717 117.926 83.5174C117.886 83.4152 117.821 83.3241 117.736 83.2519C117.652 83.1797 117.551 83.1286 117.442 83.1029C117.372 83.0894 117.3 83.1005 117.238 83.134C117.176 83.1676 117.128 83.2215 117.102 83.2863C117.061 83.3842 117.089 83.4496 117.071 83.4571C117.053 83.4646 116.994 83.4043 117.01 83.2662C117.023 83.1812 117.066 83.1033 117.131 83.0451C117.22 82.9691 117.336 82.9303 117.455 82.9371C117.598 82.9536 117.734 83.006 117.85 83.0892C117.966 83.1725 118.058 83.2836 118.116 83.4119C118.285 83.6912 118.381 84.0071 118.394 84.3313C118.423 85.007 118.116 85.6652 117.622 85.8385C117.532 85.8716 117.436 85.8845 117.34 85.8762C117.244 85.868 117.151 85.8388 117.069 85.7908C116.966 85.7154 116.943 85.6401 116.953 85.635Z" fill="#FF9A6C"/>
<path d="M100.205 73.0949C99.631 72.8286 101.183 70.9672 102.521 70.2764C104.526 69.2339 107.641 68.4727 109.579 68.8797C111.913 69.3821 113.89 70.3618 115.174 72.3262C116.459 74.2906 117.048 76.6344 117.136 78.963C117.161 79.674 117.136 80.4175 116.786 81.0405C116.356 81.8117 115.465 82.3367 115.573 83.3566C115.599 83.5408 115.587 83.7281 115.537 83.9075C115.488 84.087 115.402 84.255 115.285 84.4016C114.698 85.095 113.89 84.5298 113.496 83.9369C112.655 82.6809 112.467 81.1109 112.302 79.6086C112.184 78.5435 112.068 77.4533 112.302 76.4083C112.431 75.838 112.667 75.2929 112.765 74.7177C112.863 74.1424 112.804 73.5018 112.413 73.0597C112.321 72.967 112.222 72.8829 112.114 72.8085C111.608 72.4292 111.007 72.1887 110.373 72.1118C109.74 72.035 109.097 72.1246 108.511 72.3714C106.619 73.1602 103.384 74.366 102.478 73.7782C101.178 72.9341 100.838 72.3413 100.838 72.3413L100.205 73.0949Z" fill="#263238"/>
<path d="M96.6993 102.506C96.5011 102.775 93.6879 103.687 92.6198 105.423C91.5517 107.158 90.4964 114.951 90.4964 114.951L89.8169 120.07C91.1553 122.135 92.9518 124.871 94.8564 126.8L96.6993 102.506Z" fill="#455A64"/>
<g opacity="0.3">
<path d="M117.838 110.022C117.914 111.073 118.118 112.111 118.446 113.114C118.814 114.102 119.46 115.031 120.404 115.541C120.798 115.752 121.244 115.893 121.576 116.194C121.908 116.496 122.108 116.983 122.43 117.337C122.833 117.727 123.329 118.011 123.874 118.164C125.407 118.712 127.034 118.968 128.666 118.917C128.718 118.38 128.721 116.405 128.772 115.865L117.838 110.022Z" fill="black"/>
</g>
<path d="M126.499 98.7329C126.499 98.7329 130.046 99.7578 131.086 101.232C132.126 102.707 133.966 108.424 134.344 109.485C134.723 110.545 134.391 113.001 133.683 114.76C132.975 116.518 131.745 118.048 129.621 118.277C127.498 118.505 124.142 117.31 123.385 116.518C122.628 115.727 122.317 113.976 122.317 113.976C123.26 113.815 124.19 113.587 125.099 113.295" fill="#455A64"/>
<path d="M125.099 113.313L125.055 113.33L124.921 113.378C124.803 113.418 124.626 113.476 124.391 113.544C123.715 113.742 123.027 113.903 122.332 114.026L122.361 113.989C122.447 114.42 122.568 114.844 122.723 115.257C122.808 115.491 122.911 115.719 123.03 115.938C123.152 116.172 123.313 116.385 123.506 116.569C123.724 116.751 123.964 116.906 124.221 117.031C124.493 117.17 124.772 117.295 125.058 117.405C125.67 117.644 126.3 117.839 126.942 117.988C127.635 118.154 128.344 118.242 129.058 118.252C129.243 118.253 129.429 118.245 129.614 118.226C129.8 118.206 129.985 118.174 130.167 118.131C130.541 118.049 130.9 117.913 131.233 117.727C131.925 117.336 132.506 116.782 132.924 116.116C133.365 115.425 133.703 114.675 133.927 113.891C134.111 113.288 134.247 112.672 134.337 112.049C134.432 111.446 134.463 110.835 134.429 110.226C134.409 109.932 134.347 109.643 134.246 109.366C134.149 109.085 134.053 108.806 133.961 108.53L133.407 106.915C133.042 105.865 132.682 104.872 132.321 103.95C132.005 103.093 131.624 102.259 131.181 101.456C130.976 101.115 130.703 100.817 130.378 100.582C130.095 100.362 129.793 100.164 129.477 99.9915C128.969 99.7087 128.444 99.4571 127.905 99.2378C127.462 99.0595 127.112 98.9339 126.875 98.851L126.605 98.758C126.573 98.7497 126.542 98.7379 126.512 98.7229C126.545 98.727 126.577 98.7346 126.607 98.7455L126.883 98.8259C127.125 98.9012 127.48 99.0193 127.928 99.1901C128.472 99.3998 129.002 99.6423 129.516 99.9161C129.838 100.089 130.145 100.286 130.435 100.506C130.77 100.746 131.051 101.05 131.263 101.398C131.716 102.205 132.105 103.045 132.427 103.91C132.795 104.83 133.158 105.824 133.526 106.874C133.709 107.4 133.894 107.94 134.084 108.49C134.18 108.764 134.275 109.042 134.37 109.324C134.476 109.61 134.541 109.909 134.563 110.213C134.6 110.832 134.569 111.452 134.473 112.064C134.382 112.694 134.243 113.316 134.059 113.926C133.829 114.724 133.482 115.485 133.029 116.187C132.6 116.87 132.002 117.438 131.289 117.837C130.946 118.028 130.575 118.167 130.19 118.252C130.003 118.295 129.813 118.328 129.621 118.35C129.431 118.35 129.24 118.382 129.055 118.375C128.332 118.362 127.613 118.269 126.911 118.098C126.263 117.947 125.629 117.748 125.012 117.503C124.724 117.39 124.443 117.261 124.17 117.119C123.905 116.989 123.658 116.828 123.434 116.639C123.235 116.446 123.069 116.223 122.945 115.978C122.825 115.756 122.723 115.525 122.639 115.287C122.488 114.867 122.37 114.436 122.286 113.999V113.966H122.319C123.225 113.813 123.92 113.639 124.391 113.514L124.927 113.366L125.063 113.328C125.084 113.313 125.099 113.31 125.099 113.313Z" fill="#263238"/>
<path d="M131.608 111.461C131.583 111.461 131.5 111.034 131.204 110.396C130.815 109.567 130.273 108.815 129.603 108.178C129.232 107.834 128.813 107.543 128.358 107.314L128.046 107.178C127.943 107.133 127.835 107.113 127.737 107.08C127.552 107.024 127.362 106.985 127.168 106.965L127.04 106.947H126.69C126.569 106.946 126.448 106.956 126.329 106.977C126.226 106.998 126.121 107.009 126.015 107.01C126.113 106.971 126.215 106.943 126.319 106.927C126.439 106.894 126.563 106.876 126.687 106.874H126.919H127.045L127.179 106.89C127.378 106.903 127.576 106.937 127.768 106.99C127.876 107.016 127.983 107.048 128.087 107.085L128.412 107.221C128.884 107.449 129.318 107.745 129.699 108.1C130.382 108.745 130.925 109.52 131.292 110.376C131.357 110.522 131.414 110.671 131.462 110.823C131.501 110.938 131.534 111.054 131.559 111.173C131.585 111.267 131.601 111.364 131.608 111.461Z" fill="#263238"/>
<path d="M133.544 108.354C133.398 107.988 133.218 107.636 133.008 107.302C132.475 106.507 131.677 105.917 130.749 105.631C129.66 105.307 128.602 105.407 127.863 105.475L126.981 105.578C126.874 105.597 126.765 105.606 126.656 105.606C126.758 105.567 126.864 105.541 126.973 105.528C127.179 105.488 127.488 105.435 127.853 105.385C128.829 105.218 129.829 105.26 130.787 105.505C131.312 105.659 131.799 105.916 132.218 106.259C132.562 106.544 132.856 106.882 133.088 107.259C133.247 107.506 133.374 107.772 133.467 108.05C133.504 108.148 133.53 108.25 133.544 108.354Z" fill="#263238"/>
<path d="M130.87 104.639C129.482 104.319 128.032 104.375 126.674 104.8C126.852 104.686 127.048 104.601 127.253 104.548C127.741 104.402 128.245 104.318 128.754 104.297C129.263 104.279 129.773 104.325 130.27 104.433C130.479 104.472 130.681 104.541 130.87 104.639Z" fill="#263238"/>
<path d="M125.13 99.5971C125.151 99.5971 125.099 99.9513 125.058 100.519C124.95 101.973 125.079 103.435 125.439 104.85L125.346 104.88C125.241 104.591 125.158 104.355 125.104 104.189C125.071 104.108 125.046 104.024 125.032 103.938C125.085 104.016 125.126 104.1 125.156 104.189C125.225 104.347 125.32 104.578 125.439 104.865L125.346 104.892C125.142 104.197 125.007 103.485 124.942 102.765C124.875 102.02 124.882 101.27 124.963 100.527C124.996 100.243 125.035 100.024 125.066 99.8558C125.074 99.767 125.096 99.6799 125.13 99.5971Z" fill="#263238"/>
<path d="M120.114 93.1536C120.114 93.1536 118.273 93.1536 118.042 95.3115C117.864 96.9694 118.042 98.5772 118.042 99.3056C118.042 100.034 117.715 102.614 117.715 102.614C117.715 102.614 116.459 103.702 116.479 105.008C116.5 106.314 117.457 106.721 117.457 106.721C117.297 107.126 117.261 107.568 117.356 107.992C117.45 108.416 117.67 108.804 117.988 109.108C117.988 109.108 117.455 110.311 117.892 111.117C118.144 111.518 118.538 111.816 118.999 111.954C118.924 112.113 118.884 112.285 118.883 112.46C118.881 112.635 118.918 112.809 118.992 112.968C119.065 113.128 119.172 113.271 119.307 113.386C119.441 113.502 119.6 113.589 119.771 113.639C120.39 113.826 121.037 113.904 121.684 113.868L123.058 113.843L124.268 114.496C124.268 114.496 126.342 113.614 126.394 112.421L126.448 111.228C126.448 111.228 125.853 109.268 125.804 108.64C125.755 108.012 126.283 106.513 125.964 105.84C125.645 105.166 124.53 104.769 124.636 103.83C124.741 102.89 124.53 102.368 124.051 101.848C123.573 101.328 121.46 100.293 121.46 100.293C121.46 100.293 120.917 98.7857 120.917 97.7532C120.917 96.7207 121.974 93.548 120.114 93.1536Z" fill="#FFBF9D"/>
<path d="M121.354 100.685C121.196 100.811 121.023 100.919 120.839 101.006C120.515 101.192 120.067 101.438 119.553 101.705C119.038 101.971 118.59 102.207 118.266 102.37C118.09 102.474 117.904 102.558 117.71 102.622C117.867 102.494 118.04 102.385 118.224 102.298C118.549 102.112 118.997 101.865 119.511 101.599C120.026 101.333 120.474 101.097 120.798 100.933C120.973 100.83 121.16 100.747 121.354 100.685Z" fill="#FF9A6C"/>
<path d="M122.564 104.747C122.564 104.747 122.512 104.805 122.402 104.887C122.248 105.005 122.088 105.115 121.923 105.217C121.38 105.556 120.802 105.841 120.199 106.066C119.595 106.294 118.97 106.462 118.333 106.568C118.075 106.606 117.887 106.628 117.751 106.636C117.679 106.649 117.606 106.649 117.535 106.636C117.535 106.616 117.833 106.576 118.307 106.478C118.931 106.349 119.545 106.175 120.142 105.955C120.738 105.73 121.314 105.46 121.866 105.146C122.092 105.002 122.325 104.868 122.564 104.747Z" fill="#FF9A6C"/>
<path d="M124.144 103.453C124.178 103.466 124.108 103.704 123.887 103.888C123.665 104.071 123.429 104.126 123.421 104.094C123.413 104.061 123.604 103.966 123.797 103.79C123.99 103.614 124.108 103.438 124.144 103.453Z" fill="#FF9A6C"/>
<path d="M123.385 108.301C123.138 108.419 122.879 108.511 122.613 108.578C121.979 108.762 121.335 108.905 120.682 109.007C120.03 109.111 119.371 109.171 118.711 109.188C118.437 109.209 118.162 109.2 117.89 109.163C118.16 109.125 118.433 109.104 118.706 109.098C119.22 109.062 119.902 108.997 120.662 108.879C121.421 108.761 122.098 108.608 122.587 108.487C122.849 108.41 123.115 108.348 123.385 108.301Z" fill="#FF9A6C"/>
<path d="M125.068 108.012C125.107 107.882 125.154 107.753 125.21 107.628C125.312 107.321 125.346 106.997 125.31 106.676C125.269 106.356 125.157 106.048 124.981 105.774C124.897 105.665 124.821 105.551 124.751 105.433C124.751 105.42 124.898 105.513 125.06 105.721C125.268 105.997 125.4 106.321 125.441 106.661C125.483 107.001 125.433 107.345 125.297 107.661C125.192 107.889 125.081 108.012 125.068 108.012Z" fill="#FF9A6C"/>
<path d="M123.488 111.939C123.277 112.015 123.057 112.065 122.834 112.089C122.299 112.172 121.759 112.213 121.218 112.213C120.675 112.212 120.134 112.167 119.599 112.079C119.375 112.055 119.156 112.003 118.945 111.926C119.169 111.93 119.392 111.951 119.612 111.989C120.145 112.048 120.681 112.079 121.218 112.082C121.753 112.081 122.289 112.052 122.821 111.997C123.042 111.96 123.264 111.941 123.488 111.939Z" fill="#FF9A6C"/>
<path d="M120.214 97.7783C120.214 97.7934 120.129 97.8612 119.957 97.9215C119.73 97.9955 119.489 98.0195 119.251 97.9917C119.013 97.9639 118.785 97.885 118.582 97.7607C118.428 97.6628 118.356 97.5773 118.366 97.5648C118.651 97.7043 118.954 97.8041 119.267 97.8612C119.585 97.8777 119.904 97.8498 120.214 97.7783Z" fill="#FF9A6C"/>
<path d="M125.449 108.156C125.472 108.218 125.483 108.283 125.48 108.349C125.48 108.528 125.458 108.706 125.416 108.879C125.367 109.098 125.282 109.351 125.199 109.633C125.1 109.927 125.067 110.239 125.104 110.547C125.148 110.866 125.392 111.122 125.431 111.446C125.457 111.72 125.385 111.995 125.228 112.223C125.132 112.374 125.02 112.515 124.896 112.645C124.808 112.738 124.754 112.783 124.746 112.778C124.739 112.773 124.924 112.557 125.145 112.177C125.278 111.964 125.335 111.713 125.307 111.464C125.277 111.19 125.029 110.934 124.97 110.57C124.931 110.243 124.969 109.911 125.081 109.6C125.171 109.316 125.264 109.068 125.323 108.846C125.382 108.62 125.424 108.389 125.449 108.156Z" fill="#FF9A6C"/>
<path d="M126.141 109.733C126.183 109.807 126.213 109.887 126.229 109.969C126.275 110.123 126.337 110.349 126.394 110.63C126.463 110.961 126.505 111.297 126.517 111.635C126.539 112.057 126.46 112.479 126.285 112.866C126.083 113.236 125.814 113.569 125.493 113.848C125.237 114.076 124.964 114.285 124.677 114.473C124.432 114.637 124.226 114.757 124.082 114.835C124.011 114.882 123.934 114.919 123.853 114.946C123.84 114.928 124.149 114.737 124.625 114.398C124.901 114.202 125.165 113.989 125.413 113.76C125.719 113.487 125.975 113.165 126.17 112.808C126.335 112.438 126.413 112.038 126.399 111.635C126.393 111.302 126.362 110.971 126.306 110.643C126.206 110.082 126.121 109.738 126.141 109.733Z" fill="#263238"/>
<path d="M106.722 101.371C106.615 101.309 106.515 101.237 106.423 101.155L105.651 100.524L105.116 100.084C105.024 100.001 104.922 99.9291 104.812 99.8709C104.759 99.8442 104.7 99.8303 104.64 99.8303C104.58 99.8303 104.521 99.8442 104.467 99.8709C104.246 99.9839 104.097 100.26 103.909 100.491C103.721 100.722 103.535 100.994 103.34 101.245C103.031 101.652 102.73 102.041 102.454 102.403L102.287 102.619L102.341 102.353C102.489 101.606 102.703 100.873 102.982 100.162C103.085 99.9111 103.178 99.695 103.239 99.5569C103.268 99.4826 103.307 99.4125 103.355 99.3484C103.338 99.425 103.313 99.4998 103.281 99.5719C103.227 99.7151 103.147 99.9236 103.054 100.19C102.802 100.904 102.605 101.635 102.465 102.378L102.349 102.328L103.232 101.167L103.801 100.413L104.073 100.059C104.16 99.9334 104.277 99.83 104.413 99.7578C104.485 99.7272 104.562 99.7129 104.64 99.7159C104.718 99.719 104.795 99.7393 104.864 99.7754C104.98 99.8397 105.089 99.9182 105.185 100.009L105.7 100.461L106.452 101.122C106.548 101.198 106.639 101.281 106.722 101.371Z" fill="#263238"/>
<path d="M117.589 99.2479C117.559 99.2809 117.525 99.3104 117.488 99.3358L117.185 99.5669L116.05 100.398L112.264 103.119L112.207 103.159L112.168 103.101C112.137 103.056 112.107 103.006 112.073 102.958L110.174 100.029L110.243 100.052C109.511 100.335 108.805 100.679 108.133 101.079C107.891 101.222 107.703 101.33 107.574 101.423C107.511 101.469 107.444 101.509 107.373 101.541C107.428 101.486 107.488 101.436 107.553 101.393C107.677 101.305 107.86 101.177 108.099 101.024C108.763 100.602 109.466 100.242 110.199 99.9487L110.243 99.9311L110.269 99.9688C110.827 100.815 111.484 101.818 112.186 102.888C112.22 102.936 112.251 102.986 112.282 103.031L112.184 103.013L115.996 100.326L117.154 99.5242L117.473 99.3132C117.548 99.2654 117.586 99.2428 117.589 99.2479Z" fill="#263238"/>
<path d="M94.4886 109.238C94.5003 109.296 94.5055 109.355 94.504 109.414C94.504 109.545 94.504 109.713 94.5169 109.917C94.5169 110.371 94.5401 111.007 94.5529 111.786C94.5838 113.363 94.6482 115.554 94.7331 117.953C94.8181 120.352 94.867 122.542 94.8721 124.122C94.8721 124.914 94.8721 125.552 94.8721 125.994C94.8721 126.202 94.8721 126.373 94.8592 126.496C94.862 126.556 94.8577 126.616 94.8464 126.675C94.8426 126.615 94.8426 126.556 94.8464 126.496C94.8464 126.368 94.8464 126.197 94.8309 125.994C94.8309 125.537 94.8103 124.901 94.7949 124.125C94.7666 122.545 94.6997 120.357 94.6173 117.955C94.5349 115.554 94.4835 113.366 94.4783 111.786C94.4783 110.997 94.4783 110.356 94.4783 109.917C94.4783 109.706 94.4783 109.537 94.4783 109.414C94.4779 109.355 94.4813 109.297 94.4886 109.238Z" fill="#263238"/>
<path d="M106.807 131.927C106.798 131.905 106.793 131.881 106.791 131.857C106.791 131.802 106.791 131.731 106.768 131.643C106.748 131.445 106.719 131.171 106.686 130.822C106.614 130.108 106.531 129.063 106.449 127.795C106.367 126.526 106.297 124.989 106.254 123.296C106.21 121.603 106.205 119.736 106.254 117.769C106.302 115.802 106.393 113.951 106.511 112.26C106.629 110.57 106.768 109.047 106.907 107.774C107.046 106.5 107.165 105.468 107.278 104.759C107.329 104.41 107.368 104.139 107.396 103.943C107.412 103.855 107.422 103.785 107.432 103.729C107.434 103.705 107.439 103.682 107.448 103.659C107.452 103.683 107.452 103.708 107.448 103.732C107.448 103.787 107.435 103.858 107.427 103.945C107.404 104.141 107.373 104.415 107.332 104.764C107.244 105.478 107.131 106.508 107.005 107.779C106.879 109.05 106.748 110.575 106.637 112.265C106.526 113.956 106.441 115.817 106.395 117.772C106.349 119.726 106.362 121.588 106.395 123.281C106.429 124.974 106.493 126.496 106.565 127.775C106.637 129.053 106.701 130.091 106.758 130.804C106.781 131.154 106.802 131.43 106.815 131.628C106.815 131.716 106.815 131.787 106.827 131.842C106.823 131.871 106.816 131.899 106.807 131.927Z" fill="#263238"/>
<path d="M99.137 90.8099L98.8642 90.9857L98.0611 91.4882C97.7059 91.7117 97.289 92.0308 96.8 92.3824C96.5426 92.5633 96.3058 92.7819 96.0278 93.0029L95.6083 93.3471C95.4641 93.4676 95.3277 93.5983 95.181 93.7364C93.7575 95.0325 92.5071 96.4985 91.4593 98.0999L91.0011 98.8183C90.839 99.057 90.7154 99.3207 90.5661 99.5719C90.4169 99.8231 90.2702 100.094 90.1363 100.371C90.0025 100.647 89.8789 100.931 89.7399 101.217C89.6756 101.361 89.6035 101.501 89.5418 101.649C89.48 101.798 89.4259 101.948 89.3667 102.102C89.2509 102.403 89.1274 102.707 89.0141 103.021C88.8237 103.657 88.5817 104.3 88.4376 104.985C87.7038 107.953 87.5814 111.033 88.0773 114.046C88.7225 117.927 90.3876 121.579 92.91 124.644C95.4324 127.71 98.726 130.085 102.469 131.538C106.213 132.991 110.278 133.471 114.268 132.933C118.259 132.395 122.039 130.857 125.238 128.468C126.046 127.862 126.814 127.208 127.539 126.509L128.054 125.976C128.229 125.8 128.399 125.622 128.569 125.434L129.058 124.883C129.212 124.692 129.364 124.502 129.518 124.313C131.847 121.386 133.4 117.945 134.041 114.293C134.191 113.445 134.294 112.589 134.347 111.73C134.373 111.306 134.373 110.886 134.388 110.474C134.404 110.062 134.357 109.643 134.342 109.233C134.342 109.03 134.324 108.824 134.316 108.62C134.308 108.417 134.27 108.218 134.249 108.017C134.198 107.618 134.149 107.221 134.1 106.829C134.051 106.437 133.945 106.056 133.868 105.674C133.804 105.295 133.718 104.92 133.611 104.551L133.292 103.463C133.242 103.285 133.181 103.109 133.109 102.938C133.042 102.765 132.975 102.591 132.911 102.421C132.774 102.081 132.653 101.735 132.507 101.416C132.36 101.097 132.2 100.773 132.049 100.459C130.929 98.1876 129.428 96.1157 127.606 94.3293C126.226 92.991 124.686 91.8195 123.02 90.84L122.036 90.2899C121.888 90.205 121.735 90.1278 121.578 90.0588L121.146 89.8578L120.374 89.5011C120.142 89.3856 119.913 89.3202 119.72 89.2499L118.824 88.9133L118.52 88.7927L118.829 88.9007L119.728 89.2273C119.923 89.3027 120.152 89.368 120.387 89.4785L121.159 89.8302L121.594 90.0312C121.751 90.0984 121.905 90.1739 122.054 90.2572L123.04 90.8049C124.718 91.7781 126.267 92.9473 127.655 94.2866C129.487 96.0717 130.999 98.1445 132.128 100.419C132.28 100.738 132.435 101.057 132.592 101.383C132.749 101.71 132.849 102.054 132.998 102.388L133.199 102.905C133.271 103.078 133.332 103.254 133.382 103.433C133.49 103.795 133.598 104.156 133.706 104.526C133.818 104.896 133.908 105.273 133.976 105.654C134.054 106.035 134.146 106.407 134.213 106.812C134.28 107.216 134.311 107.605 134.362 108.007C134.386 108.208 134.419 108.409 134.432 108.613C134.445 108.816 134.45 109.022 134.458 109.228C134.473 109.64 134.496 110.055 134.507 110.484C134.517 110.914 134.494 111.326 134.465 111.74C134.202 116.339 132.512 120.75 129.619 124.389L129.15 124.961L128.656 125.516C128.497 125.705 128.324 125.886 128.141 126.062L127.627 126.599C126.897 127.302 126.124 127.96 125.31 128.569C122.095 130.967 118.298 132.512 114.289 133.052C110.28 133.592 106.196 133.11 102.436 131.651C98.6747 130.192 95.3654 127.807 92.8301 124.728C90.2948 121.65 88.6201 117.982 87.9692 114.084C87.708 112.513 87.6217 110.918 87.7118 109.329C87.7767 107.863 87.9931 106.407 88.3578 104.983C88.5019 104.295 88.7464 103.652 88.9369 103.011C89.0527 102.699 89.1789 102.393 89.2973 102.089C89.3564 101.938 89.4156 101.788 89.4723 101.637C89.5289 101.486 89.6087 101.348 89.673 101.202C89.8094 100.916 89.9304 100.635 90.072 100.356C90.2135 100.077 90.3654 99.8181 90.5069 99.5544C90.6485 99.2906 90.7823 99.0293 90.9445 98.7882L91.4078 98.0697C92.4611 96.4659 93.7214 95.0011 95.1579 93.7113C95.3046 93.5782 95.441 93.4425 95.5851 93.322L96.0072 92.9778C96.2852 92.7592 96.522 92.5432 96.7794 92.3623C97.2813 92.0107 97.6931 91.6967 98.0508 91.4756L98.8616 90.9732C99.0366 90.8626 99.137 90.8099 99.137 90.8099Z" fill="#263238"/>
</svg>
