<svg width="24" height="24" viewBox="0 0 24 24" fill="none" xmlns="http://www.w3.org/2000/svg">
<path d="M3.8628 2.5848L11.9964 10.7124L20.0436 2.6664C20.592 2.178 21.1596 2.4696 21.3864 2.7144C21.5319 2.89168 21.6069 3.11635 21.5972 3.34548C21.5874 3.5746 21.4936 3.7921 21.3336 3.9564L13.2852 12.0012L21.3336 20.0436C21.6912 20.3436 21.6912 20.9316 21.4044 21.2604C21.1164 21.588 20.5884 21.7776 20.0904 21.3888L11.9964 13.29L3.8928 21.3924C3.5376 21.7104 2.952 21.6456 2.6628 21.33C2.3724 21.0132 2.262 20.466 2.6328 20.0796L10.7076 12.0012L2.6664 3.9564C2.3724 3.6324 2.2704 3.0396 2.6664 2.6664C3.0624 2.2932 3.6528 2.3448 3.8628 2.5848Z" fill="#E71D36"/>
</svg>
