<?xml version="1.0" encoding="utf-8"?>
<svg width="267px" height="266px" viewBox="0 0 267 266" version="1.1"
    xmlns:xlink="http://www.w3.org/1999/xlink" xmlns="http://www.w3.org/2000/svg">
    <g id="Frame-29">
        <path d="M266 0L266 266L0 266L0 0L266 0Z" id="Frame-29-(Background)" fill="none"
            fill-rule="evenodd" stroke="none" />
        <path
            d="M197.785 203.756C203.247 205.02 208.117 208.102 211.6 212.496C214.279 217.227 215.925 222.472 216.429 227.886"
            id="Vector-11" fill="none" stroke="#BAE0DB" stroke-width="2" stroke-linecap="round"
            stroke-linejoin="round" />
        <path
            d="M58.8601 160.252C54.8378 164.882 44.3099 173.193 34.3653 169.391C21.9355 164.641 22.3003 157.326 26.3226 154.402C30.3449 151.477 35.8226 156.229 36.9246 160.252C38.0266 164.274 36.1931 177.8 26.3226 182.919C16.4521 188.037 3.2908 185.478 0 182.919"
            id="Vector-10" fill="none" stroke="#EFE0FF" stroke-width="2" stroke-linecap="round"
            stroke-linejoin="round" />
        <path
            d="M217.343 30.8333C212.593 30.2234 202.647 33.0258 200.891 49.1131C199.136 65.2004 185.051 68.4893 178.226 68.1227"
            id="Vector-9" fill="none" stroke="#3D5CFF" stroke-width="2" stroke-linecap="round"
            stroke-linejoin="round" />
        <path
            d="M38.2056 105.881C33.3597 105.881 29.4314 101.953 29.4314 97.1071C29.4314 92.2612 33.3597 88.3329 38.2056 88.3329C43.0515 88.3329 46.9798 92.2612 46.9798 97.1071C46.9798 101.953 43.0515 105.881 38.2056 105.881Z"
            id="Ellipse-77" fill="#F99A3D" fill-rule="evenodd" stroke="none" />
        <path
            d="M91.261 35.585C87.2231 35.585 83.9498 32.3117 83.9498 28.2738C83.9498 24.236 87.2231 20.9626 91.261 20.9626C95.2988 20.9626 98.5722 24.236 98.5722 28.2738C98.5722 32.3117 95.2988 35.585 91.261 35.585Z"
            id="Ellipse-78" fill="#FFE7EE" fill-rule="evenodd" stroke="none" />
        <path
            d="M113.561 46.5043C111.152 46.5043 109.199 44.5512 109.199 42.1419C109.199 39.7327 111.152 37.7795 113.561 37.7795C115.971 37.7795 117.924 39.7327 117.924 42.1419C117.924 44.5512 115.971 46.5043 113.561 46.5043Z"
            id="Ellipse-79" fill="#FFE7EE" fill-rule="evenodd" stroke="none" />
        <path
            d="M230.139 132.802C225.798 132.802 222.279 129.283 222.279 124.942C222.279 120.601 225.798 117.082 230.139 117.082C234.48 117.082 237.999 120.601 237.999 124.942C237.999 129.283 234.48 132.802 230.139 132.802Z"
            id="Ellipse-80" fill="#EFE0FF" fill-rule="evenodd" stroke="none" />
        <path
            d="M66.7204 222.006C62.3793 222.006 58.8601 218.486 58.8601 214.145C58.8601 209.804 62.3793 206.285 66.7204 206.285C71.0615 206.285 74.5807 209.804 74.5807 214.145C74.5807 218.486 71.0615 222.006 66.7204 222.006Z"
            id="Ellipse-81" fill="#FFE7EE" fill-rule="evenodd" stroke="none" />
        <path
            d="M164.698 245.039C160.356 245.039 156.837 241.52 156.837 237.179C156.837 232.838 160.356 229.319 164.698 229.319C169.039 229.319 172.558 232.838 172.558 237.179C172.558 241.52 169.039 245.039 164.698 245.039Z"
            id="Ellipse-82" fill="#F9D2DD" fill-rule="evenodd" stroke="none" />
        <path
            d="M140.385 233.679C137.976 233.679 136.023 231.726 136.023 229.317C136.023 226.907 137.976 224.954 140.385 224.954C142.794 224.954 144.747 226.907 144.747 229.317C144.747 231.726 142.794 233.679 140.385 233.679Z"
            id="Ellipse-83" fill="#3D5CFF" fill-rule="evenodd" stroke="none" />
    </g>
    <g transform="scale(0.3),translate(190,190)">
        <path xmlns="http://www.w3.org/2000/svg"
            d="M 274.204 5.071 C 269.325 7.551, 266.071 11.398, 262.799 18.555 C 260.932 22.641, 260.540 25.237, 260.542 33.500 C 260.549 55.911, 267.890 69.770, 284.333 78.410 C 292.104 82.493, 296.455 82.900, 302.500 80.110 C 310.232 76.541, 313.849 70.155, 314.703 58.564 C 314.989 54.679, 314.747 48.961, 314.165 45.857 C 311.495 31.608, 300.628 11.429, 292.855 6.285 C 287.325 2.626, 279.958 2.146, 274.204 5.071 M 325.909 12.711 C 321.465 23.080, 319.809 31.222, 319.267 45.371 C 318.510 65.130, 321.058 75.058, 328.896 82.896 C 337.942 91.942, 347.915 93.542, 359.117 87.743 C 366.363 83.992, 370.721 78.910, 374.090 70.282 L 376.349 64.500 376.255 51.692 C 376.142 36.329, 374.567 25.823, 372.030 23.527 C 370.742 22.361, 368.799 21.972, 365.364 22.191 L 360.517 22.500 360.420 36.500 C 360.311 52.232, 358.626 59.432, 352.932 68.500 C 348.162 76.095, 346.066 78, 342.481 78 C 338.960 78, 336.490 75.841, 335.508 71.904 C 334.625 68.364, 337.648 41.374, 340.049 31.363 C 341.122 26.888, 341.998 21.938, 341.996 20.363 C 341.991 16.403, 338.798 11.544, 334.931 9.616 C 329.634 6.973, 328.151 7.481, 325.909 12.711 M 211.872 16.970 C 209.326 17.426, 206.318 18.295, 205.187 18.900 C 204.057 19.505, 201.805 20, 200.184 20 C 197.972 20, 196.548 20.904, 194.470 23.628 L 191.703 27.256 193.808 37.928 C 197.781 58.063, 208.176 87.989, 211.860 89.897 C 212.762 90.364, 215.525 90.466, 218 90.123 C 221.613 89.623, 222.561 89.074, 222.808 87.336 C 223.054 85.612, 219.549 72.276, 217.281 66.301 C 216.623 64.569, 223.200 62.989, 224.500 64.567 C 226.881 67.456, 255.148 87, 256.946 87 C 258.996 87, 261.273 83.917, 260.831 81.739 C 260.693 81.057, 261.141 79.487, 261.825 78.250 C 262.704 76.663, 262.771 75.441, 262.055 74.102 C 260.591 71.368, 252.635 64.576, 244.773 59.349 C 240.490 56.502, 238.248 54.404, 238.699 53.668 C 239.092 53.025, 240.407 51.031, 241.621 49.237 C 248.248 39.441, 243.572 25.321, 231.823 19.649 C 225.762 16.722, 218.614 15.763, 211.872 16.970 M 278.427 19.765 C 277.837 20.169, 277.064 21.288, 276.708 22.250 C 276.353 23.212, 275.374 24, 274.531 24 C 273.312 24, 273 25.335, 273 30.553 C 273 44.402, 277.971 56.891, 286.862 65.378 L 289.877 68.256 293.084 66.378 C 298.377 63.278, 300.359 59.733, 300.816 52.541 C 301.549 41.033, 295.116 25.480, 287.771 21.002 C 284.446 18.975, 280.370 18.435, 278.427 19.765 M 391.576 28.637 C 390.669 29.662, 388.738 32.011, 387.285 33.857 L 384.642 37.214 385.659 39.909 C 386.440 41.976, 385.563 50.275, 381.892 75.552 L 377.107 108.500 378.904 111 C 381.053 113.990, 384.711 114.770, 386.331 112.584 C 387.311 111.261, 388.142 111.186, 391.484 112.115 C 404.010 115.599, 419.916 107.042, 426.710 93.164 L 429.483 87.500 429.851 76.789 C 430.431 59.888, 426.015 47.658, 416.156 38.866 C 405.495 29.359, 394.857 24.932, 391.576 28.637 M 210 29.290 C 208.625 29.983, 207.355 31.564, 207.177 32.803 C 206.869 34.947, 212.663 54, 213.622 54 C 215.304 54, 222.170 49.600, 223.879 47.426 C 228.753 41.230, 227.233 32.762, 220.690 29.657 C 216.534 27.685, 213.397 27.577, 210 29.290 M 151.737 31.792 C 145.312 34.096, 140.323 38.281, 137.793 43.489 L 135.696 47.805 138.728 53.653 C 140.395 56.869, 146.588 69.850, 152.489 82.500 C 158.391 95.150, 163.932 106.063, 164.803 106.752 C 166.696 108.248, 174.408 107.736, 176.531 105.974 C 178.722 104.156, 178.281 100.286, 175.011 92.618 L 172.075 85.736 177.060 80.143 C 184.521 71.772, 187 66.116, 187 57.463 C 187 37.759, 169.869 25.288, 151.737 31.792 M 158.690 45.792 C 156.045 46.731, 153.909 47.950, 153.943 48.500 C 153.977 49.050, 156.321 53.904, 159.150 59.286 L 164.295 69.072 166.591 66.914 C 172.030 61.805, 173.551 53.056, 170.011 47.250 C 167.724 43.500, 165.830 43.256, 158.690 45.792 M 397.626 48.882 C 398.389 52.694, 396.322 79.334, 394.553 88.500 C 393.810 92.350, 393.361 95.667, 393.556 95.872 C 394.469 96.829, 407.418 93.520, 410.278 91.598 C 415.278 88.238, 420 79.585, 420 73.783 C 420 64.458, 413.172 54.502, 403.091 49.129 L 397.030 45.899 397.626 48.882 M 245.597 97.076 C 195.608 103.947, 148.455 128.179, 124.691 159.209 C 112.236 175.472, 104.193 192.055, 99.395 211.365 C 96.269 223.944, 95.106 246.336, 96.916 259.084 C 102.478 298.250, 124.786 333.904, 156.985 355.089 L 159.400 356.678 151.439 366.589 C 123.431 401.455, 107.792 431.105, 102.493 459.387 C 99.531 475.192, 100.363 481, 105.587 481 C 108.339 481, 110 478.374, 110 474.024 C 110 463.816, 117.452 439.820, 125.522 424.044 C 131.925 411.527, 147.821 387.284, 157.679 375.002 C 166.614 363.870, 181.045 349.688, 188.221 344.986 C 206.621 332.930, 226.712 337.573, 232.579 355.237 C 234.926 362.305, 234.544 374.543, 231.603 386.500 C 224.710 414.521, 203.772 459.335, 183.012 490.500 C 177.126 499.335, 176.929 499.925, 178.559 503.802 C 180.446 508.290, 183.715 508.071, 187.129 503.229 C 193.873 493.665, 209.108 466.614, 217.954 448.500 C 238.299 406.835, 246.982 375.113, 242.652 358.265 C 237.694 338.978, 225.150 328, 208.068 328 C 195.337 328, 185.390 332.435, 171.997 344.084 L 166.004 349.296 158.939 344.598 C 149.620 338.402, 137.225 326.456, 129.799 316.516 C 122.033 306.120, 112.721 287.050, 109.526 275 C 100.416 240.633, 106.711 204.829, 127.284 174 C 134.195 163.645, 151.411 146.838, 163 139.134 C 211.022 107.211, 275.490 97.828, 327.430 115.202 C 380.325 132.895, 418.994 178.908, 425.065 231.377 C 427.303 250.720, 422.592 275.916, 413.264 294.500 C 400.710 319.509, 376.160 342.329, 353.029 350.490 L 348.803 351.981 342.250 346.067 C 323.524 329.166, 305.495 327.925, 292.070 342.614 C 283.390 352.111, 280.157 365.380, 282.031 383.809 C 285.334 416.281, 293.074 443.679, 309.203 480 C 314.648 492.260, 322.903 506.878, 325.023 508.012 C 327.437 509.304, 331 507.717, 331 505.348 C 331 504.479, 326.526 494.707, 321.058 483.633 C 306.175 453.495, 298.132 429.102, 292.988 398.500 C 288.934 374.388, 290.962 358.864, 299.301 350.162 C 309.758 339.251, 323.558 340.717, 337.696 354.239 C 355.338 371.113, 381.251 412.121, 395.670 445.985 C 409.531 478.536, 418.129 490.155, 421.415 480.772 L 422.371 478.044 419.317 473.772 C 415.224 468.046, 412.143 461.830, 402.825 440.500 C 391.186 413.859, 375.534 386.382, 361.375 367.739 C 358.969 364.570, 357 361.645, 357.001 361.239 C 357.002 360.832, 360.489 358.937, 364.751 357.026 C 399.437 341.477, 426.573 305.178, 433.574 264.961 C 436.142 250.212, 435.136 228.020, 431.220 213 C 423.279 182.548, 405.228 154.517, 380.064 133.564 C 359.988 116.847, 335.486 105.296, 307.569 99.387 L 295.500 96.833 274 96.480 C 262.175 96.286, 249.393 96.554, 245.597 97.076 M 99.826 99.979 C 81.516 105.507, 76.462 125.557, 89.974 139.069 C 94.655 143.750, 101.838 147, 107.503 147 C 115.043 147, 123.466 140.904, 126.747 133.073 C 128.751 128.290, 128.626 118.506, 126.495 113.234 C 122.475 103.292, 109.770 96.977, 99.826 99.979 M 99.840 112.022 C 92.474 115.913, 90.091 122.409, 93.566 129.128 C 95.401 132.675, 101.840 135.946, 107.054 135.978 C 111.038 136.003, 116.034 131.738, 117.939 126.685 C 122.328 115.043, 111.195 106.023, 99.840 112.022 M 448.355 118.447 C 443.186 120.696, 437.384 126.680, 435 132.222 C 430.377 142.969, 435.124 157.322, 445.013 162.492 C 447.969 164.038, 463.719 164.438, 467.344 163.059 L 469.802 162.125 470.181 166.099 L 470.560 170.072 463.530 173.463 C 459.663 175.327, 453.913 178.711, 450.750 180.981 C 446.111 184.313, 445 185.649, 445 187.900 C 445 190.767, 447.637 194, 449.975 194 C 450.700 194, 453.702 192.401, 456.646 190.447 C 466.206 184.101, 473.285 180.755, 474.081 182.206 C 474.471 182.918, 475.800 187.325, 477.033 192 C 479.493 201.326, 481.165 204, 484.533 204 C 489.185 204, 489.411 201.901, 486.052 189.871 C 482.524 177.233, 482.584 177.040, 490.027 177.015 C 498.207 176.988, 501.729 182.466, 496.862 187.646 L 494.725 189.922 495.989 192.974 C 497.540 196.717, 500.915 197.757, 504.305 195.536 C 512.553 190.132, 509.105 174.128, 498.500 168.589 C 495.369 166.954, 492.817 166.524, 486.750 166.609 L 479 166.718 479 164.882 C 479 163.872, 477.881 162.313, 476.513 161.417 L 474.026 159.787 477.454 155.783 C 487.061 144.559, 481.347 124.626, 466.782 118.551 C 462.228 116.651, 452.607 116.597, 448.355 118.447 M 56.830 122.027 C 51.242 124.979, 48.631 129.350, 48.212 136.457 L 47.855 142.500 50.672 146.782 C 53.698 151.382, 61.373 156.009, 65.946 155.989 C 67.351 155.983, 70.742 155.298, 73.482 154.467 L 78.464 152.956 80.982 154.827 C 82.367 155.856, 83.638 157.847, 83.807 159.252 C 84.441 164.522, 75.745 166.947, 70.634 162.927 C 67.312 160.314, 64.808 160.761, 63.605 164.182 C 62.330 167.807, 64.913 171.603, 70.328 174.062 C 75.706 176.504, 80.354 176.491, 85.456 174.021 C 96.323 168.761, 96.136 152.847, 85.126 145.865 C 80.120 142.691, 76.190 142.299, 68.093 144.168 C 61.939 145.588, 58.569 144.404, 57.583 140.474 C 56.642 136.726, 59.171 133.284, 64.564 130.972 L 69 129.071 69 126.191 C 69 120.332, 63.561 118.471, 56.830 122.027 M 453.009 128.855 C 444.740 133.290, 440.317 144.465, 444.693 149.869 L 446.595 152.218 454.802 152.687 L 463.010 153.157 466.398 151.063 C 475.460 145.463, 474.300 132.530, 464.364 128.379 C 459.928 126.525, 457.136 126.642, 453.009 128.855 M 307.667 179.667 C 307.300 180.033, 307 187.433, 307 196.110 L 307 211.887 309.223 213.443 C 311.991 215.382, 312.476 215.381, 314.429 213.429 C 316.717 211.140, 316.730 184.487, 314.443 181.223 C 312.966 179.114, 309.106 178.228, 307.667 179.667 M 205.571 184.571 C 204.288 185.855, 204 188.788, 204 200.571 L 204 215 206 217 C 207.100 218.100, 208.585 219, 209.300 219 C 212.499 219, 213 216.613, 213 201.357 L 213 186.113 210.777 184.557 C 208.009 182.618, 207.524 182.619, 205.571 184.571 M 20.453 193.326 C 11.703 196.697, 6.037 202.810, 3.981 211.096 C 2.702 216.248, 3.900 222.842, 6.507 225.006 C 7.452 225.790, 8 228.009, 8 231.046 C 8 237.325, 11.167 241.209, 18.280 243.653 C 24.649 245.842, 46.601 245.955, 54.500 243.839 L 59.500 242.500 59.799 239.449 C 60.001 237.381, 59.445 235.808, 58.074 234.567 L 56.051 232.736 46.428 234.010 C 36.121 235.374, 20.409 234.809, 18.610 233.010 C 17.175 231.575, 18.847 229.006, 22.673 226.765 C 24.709 225.571, 29.676 224.697, 38.567 223.966 C 56.062 222.529, 56 222.546, 56 219.092 C 56 217.513, 55.168 215.195, 54.152 213.940 L 52.304 211.657 43.694 211.206 C 36.997 210.854, 33.179 211.239, 26.511 212.940 C 21.796 214.143, 16.792 214.986, 15.391 214.813 L 12.844 214.500 15.180 211 C 20.249 203.405, 32.105 200.994, 46.545 204.622 C 51.726 205.923, 53.298 205.998, 54.501 204.999 C 56.818 203.077, 56.380 198.295, 53.728 196.557 C 47.987 192.796, 27.095 190.767, 20.453 193.326 M 473.906 231.267 C 468.583 233.888, 460.910 241.323, 458.944 245.764 C 458.156 247.544, 457.257 249, 456.947 249 C 456.636 249, 454.245 246.525, 451.633 243.500 C 446.612 237.684, 445.110 237.033, 442.571 239.571 C 440.113 242.030, 440.681 244.416, 445.031 249.920 C 452.833 259.790, 465.915 268.109, 478.943 271.485 C 489.870 274.317, 495.275 272.146, 491.969 266.255 C 490.396 263.452, 489.434 263.025, 480 260.945 C 475.505 259.954, 467.751 256.869, 466.136 255.430 C 465.401 254.775, 470.171 248.058, 473.315 245.320 C 475.096 243.769, 478.229 241.610, 480.277 240.523 C 483.981 238.556, 485.168 235.295, 483.235 232.400 C 481.243 229.417, 478.371 229.068, 473.906 231.267 M 280.118 249.750 C 276.445 256.912, 269.745 261, 261.680 261 C 256.113 261, 251.297 257.866, 248.175 252.212 C 245.916 248.119, 242.361 246.041, 240.057 247.465 C 236.136 249.888, 243.219 262.386, 251.369 267.424 C 263.430 274.881, 280.750 270.252, 287.059 257.885 C 289.527 253.047, 289.505 250.920, 286.961 248.189 C 284.054 245.068, 282.315 245.464, 280.118 249.750 M 4.571 255.571 C 2.490 257.653, 2.576 261.318, 4.750 263.223 C 5.713 264.066, 8.604 265.058, 11.176 265.428 C 14.096 265.848, 17.245 267.208, 19.563 269.050 C 24.093 272.650, 25.477 272.727, 27.592 269.500 L 29.230 267 27.579 264.480 C 24.961 260.485, 18.334 256.237, 12.900 255.072 C 6.507 253.701, 6.438 253.705, 4.571 255.571 M 65.464 265.402 L 63.546 266.805 64.734 272.152 C 65.387 275.094, 66.193 278.421, 66.524 279.548 L 67.127 281.595 47.314 286.311 C 36.416 288.905, 27.221 291.021, 26.880 291.014 C 26.539 291.006, 25.683 288.863, 24.978 286.250 C 23.431 280.519, 21.443 278, 18.467 278 C 13.476 278, 13.480 279.950, 18.505 296.733 C 23.833 314.525, 25.041 317, 28.401 317 C 32.619 317, 33.478 314.702, 31.656 308.297 C 30.769 305.177, 30.250 302.416, 30.504 302.162 C 30.758 301.909, 38.736 299.821, 48.233 297.522 C 57.730 295.224, 66.669 293.050, 68.097 292.691 L 70.695 292.038 71.883 296.003 C 73.582 301.674, 78.832 304.050, 80.944 300.104 C 82.351 297.476, 73.738 268.252, 70.820 265.750 C 68.354 263.636, 67.919 263.608, 65.464 265.402 M 452.079 274.212 C 444.587 278.221, 441.501 284.517, 443.206 292.315 C 444.410 297.826, 446.462 300.457, 453.076 304.972 C 463.730 312.244, 472.845 312.234, 479.432 304.944 C 487.523 295.988, 484.450 280.273, 473.500 274.609 C 467.313 271.409, 457.652 271.230, 452.079 274.212 M 456.763 284.565 C 451.903 287.202, 451.660 293.864, 456.377 295.125 C 457.959 295.549, 460.114 296.818, 461.166 297.947 C 466.640 303.823, 476.628 295.969, 473.843 287.979 C 473.264 286.317, 471.967 284.517, 470.961 283.979 C 468.241 282.523, 459.890 282.868, 456.763 284.565 M 441.479 314.355 C 431.920 317.442, 427.649 322.951, 427.735 332.081 L 427.790 337.908 424.927 337.335 C 422.584 336.867, 421.867 337.198, 420.973 339.160 C 418.775 343.984, 420.887 346.223, 431.645 350.471 C 437.065 352.611, 445.902 356.560, 451.281 359.248 C 456.661 361.936, 461.836 363.988, 462.781 363.809 C 464.920 363.404, 465.682 357.527, 463.878 355.353 C 463.186 354.519, 459.893 352.466, 456.560 350.791 C 438.334 341.630, 433.208 334.638, 439.850 327.997 C 445.679 322.167, 453.889 323.024, 465.212 330.644 C 472.051 335.246, 474.501 335.746, 476.290 332.905 C 478.336 329.656, 476.200 326.286, 469.104 321.569 C 458.212 314.328, 449.007 311.924, 441.479 314.355"
            stroke="none" fill="#241c14" fill-rule="evenodd" />
        <path xmlns="http://www.w3.org/2000/svg"
            d="M 254.029 121.150 C 218.208 124.889, 185.870 139.996, 161.403 164.422 C 145.172 180.626, 135.602 195.992, 129.126 216.248 C 117.294 253.253, 122.989 292.093, 144.779 323 C 149.895 330.256, 165.740 347, 167.491 347 C 168.112 347, 171.068 344.901, 174.060 342.336 C 185.857 332.222, 195.872 328, 208.068 328 C 225.150 328, 237.694 338.978, 242.652 358.265 C 245.784 370.453, 243.116 385.811, 232.939 414.164 C 226.933 430.900, 211.376 463.145, 200.695 481 L 193.217 493.500 194.675 496.329 C 197.405 501.626, 199.857 501.944, 226.500 500.459 C 239.700 499.723, 263.775 498.617, 280 498.003 L 309.500 496.885 311.344 494.716 C 313.922 491.683, 313.239 488.865, 305.965 472.500 C 293.241 443.874, 285.056 413.541, 282.031 383.809 C 280.157 365.380, 283.390 352.111, 292.070 342.614 C 300.280 333.630, 309.292 330.678, 320.074 333.440 C 328.438 335.583, 334.404 338.986, 342.312 346.123 L 348.927 352.093 355.452 349.482 C 369.217 343.976, 375.072 339.173, 383.911 326.140 C 389.920 317.279, 398.427 299.139, 401.372 288.906 C 404.406 278.361, 407 256.818, 407 242.158 C 407 212.928, 395.229 184.760, 373.585 162.195 C 343.986 131.337, 300.258 116.324, 254.029 121.150 M 307.667 179.667 C 307.300 180.033, 307 187.433, 307 196.110 L 307 211.887 309.223 213.443 C 311.991 215.382, 312.476 215.381, 314.429 213.429 C 316.717 211.140, 316.730 184.487, 314.443 181.223 C 312.966 179.114, 309.106 178.228, 307.667 179.667 M 205.571 184.571 C 204.288 185.855, 204 188.788, 204 200.571 L 204 215 206 217 C 207.100 218.100, 208.585 219, 209.300 219 C 212.499 219, 213 216.613, 213 201.357 L 213 186.113 210.777 184.557 C 208.009 182.618, 207.524 182.619, 205.571 184.571 M 280.118 249.750 C 276.445 256.912, 269.745 261, 261.680 261 C 256.113 261, 251.297 257.866, 248.175 252.212 C 245.916 248.119, 242.361 246.041, 240.057 247.465 C 236.136 249.888, 243.219 262.386, 251.369 267.424 C 263.430 274.881, 280.750 270.252, 287.059 257.885 C 289.527 253.047, 289.505 250.920, 286.961 248.189 C 284.054 245.068, 282.315 245.464, 280.118 249.750 M 190.566 347.531 C 188.403 348.351, 185.928 349.627, 185.066 350.366 C 184.205 351.104, 181.088 352.998, 178.140 354.573 C 166.686 360.694, 138.376 398.371, 124.557 425.886 C 117.122 440.691, 111.405 459.779, 109.689 475.528 L 109.250 479.555 117.875 484.696 C 142.347 499.284, 165.112 507.640, 174 505.298 L 177.500 504.376 177.659 501.277 C 177.755 499.420, 179.793 495.237, 182.747 490.839 C 199.785 465.464, 217.633 429.445, 227.552 400.417 L 231.272 389.528 230.605 378.514 C 229.762 364.586, 228.727 360.810, 224.458 356.085 C 217.165 348.013, 200.432 343.790, 190.566 347.531 M 312.615 357.415 C 307 359.499, 301.335 365.501, 298.887 371.959 L 296.788 377.500 297.343 388 C 297.685 394.463, 299.652 407.149, 302.459 420.996 C 309.962 457.999, 313.867 470.345, 324.559 490.857 C 328.102 497.654, 331 503.830, 331 504.582 C 331 506.304, 336.106 509, 339.369 509 C 340.727 509, 351.436 506.130, 363.169 502.623 C 374.901 499.116, 390.350 494.751, 397.500 492.923 C 407.597 490.343, 411.109 488.998, 413.228 486.900 L 415.955 484.198 411.329 477.349 C 406.495 470.192, 404.407 465.977, 395.046 444.481 C 391.928 437.320, 387.267 428.381, 384.688 424.615 C 382.110 420.849, 380 417.410, 380 416.973 C 380 415.133, 371.223 400.837, 364.962 392.480 C 356.611 381.332, 338.228 363.454, 331.263 359.707 C 324.948 356.309, 317.922 355.446, 312.615 357.415"
            stroke="none" fill="#2393f3" fill-rule="evenodd" />
    </g>
</svg>