<svg width="198" height="148" viewBox="0 0 198 148" fill="none" xmlns="http://www.w3.org/2000/svg">
    <path d="M198 129.65H0V129.749H198V129.65Z" fill="#EBEBEB" />
    <path d="M178.16 133.42H142.164V133.519H178.16V133.42Z" fill="#EBEBEB" />
    <path d="M131.163 132.347H121.307V132.446H131.163V132.347Z" fill="#EBEBEB" />
    <path d="M153.692 137.099H138.41V137.198H153.692V137.099Z" fill="#EBEBEB" />
    <path d="M29.7396 136.434H20.7742V136.533H29.7396V136.434Z" fill="#EBEBEB" />
    <path d="M43.9124 136.434H33.264V136.533H43.9124V136.434Z" fill="#EBEBEB" />
    <path d="M89.1594 134.763H70.6108V134.862H89.1594V134.763Z" fill="#EBEBEB" />
    <path
        d="M93.852 111.989H17.3884C16.7894 111.988 16.2152 111.749 15.792 111.325C15.3688 110.901 15.1312 110.327 15.1312 109.728V2.24136C15.1364 1.64579 15.3764 1.07632 15.799 0.656655C16.2216 0.236989 16.7928 0.00102025 17.3884 0H93.852C94.4517 0 95.0268 0.238229 95.4509 0.662279C95.8749 1.08633 96.1132 1.66146 96.1132 2.26116V109.728C96.1132 110.327 95.8749 110.902 95.4509 111.327C95.0268 111.751 94.4517 111.989 93.852 111.989ZM17.3884 0.0792003C16.8156 0.0802493 16.2667 0.30851 15.862 0.71388C15.4574 1.11925 15.2302 1.66861 15.2302 2.24136V109.728C15.2302 110.3 15.4574 110.85 15.862 111.255C16.2667 111.661 16.8156 111.889 17.3884 111.89H93.852C94.4251 111.889 94.9745 111.661 95.3797 111.255C95.785 110.85 96.0131 110.301 96.0142 109.728V2.24136C96.0131 1.66824 95.785 1.1189 95.3797 0.713638C94.9745 0.308381 94.4251 0.0802471 93.852 0.0792003H17.3884Z"
        fill="#EBEBEB" />
    <path
        d="M179.511 111.989H103.043C102.444 111.988 101.869 111.749 101.445 111.325C101.022 110.902 100.783 110.327 100.782 109.728V2.24136C100.788 1.64543 101.029 1.07596 101.452 0.656407C101.876 0.236851 102.447 0.00100912 103.043 0H179.511C180.106 0.00206098 180.676 0.238491 181.098 0.658044C181.519 1.0776 181.759 1.64647 181.764 2.24136V109.728C181.764 110.326 181.527 110.9 181.105 111.324C180.682 111.748 180.109 111.987 179.511 111.989ZM103.043 0.0792003C102.47 0.0802471 101.921 0.308381 101.515 0.713638C101.11 1.1189 100.882 1.66824 100.881 2.24136V109.728C100.882 110.301 101.11 110.85 101.515 111.255C101.921 111.661 102.47 111.889 103.043 111.89H179.511C180.084 111.889 180.633 111.661 181.038 111.255C181.444 110.85 181.672 110.301 181.673 109.728V2.24136C181.672 1.66824 181.444 1.1189 181.038 0.713638C180.633 0.308381 180.084 0.0802471 179.511 0.0792003H103.043Z"
        fill="#EBEBEB" />
    <path d="M168.775 127.401H176.2V86.2092H168.775V127.401Z" fill="#F0F0F0" />
    <path d="M92.9887 129.65H174.775V127.397L92.9887 127.397V129.65Z" fill="#F0F0F0" />
    <path d="M168.775 86.2053H91.5631V127.397H168.775V86.2053Z" fill="#F5F5F5" />
    <path d="M169.547 86.2053H177.135V84.2411H169.547V86.2053Z" fill="#F0F0F0" />
    <path d="M169.547 84.2411H90.6286V86.2052H169.547V84.2411Z" fill="#FAFAFA" />
    <path
        d="M166.11 101.071H94.248V90.3316H166.11V101.071ZM94.7311 100.584H165.615V90.8424H94.7311V100.584Z"
        fill="#E0E0E0" />
    <path
        d="M166.11 123.275H94.248V104.049H166.11V123.275ZM94.7311 122.76H165.615V104.544H94.7311V122.76Z"
        fill="#E0E0E0" />
    <path
        d="M104.572 92.1769H155.767C156.13 92.1769 156.424 91.8826 156.424 91.5196V91.2344C156.424 90.8714 156.13 90.5771 155.767 90.5771H104.572C104.209 90.5771 103.914 90.8714 103.914 91.2344V91.5196C103.914 91.8826 104.209 92.1769 104.572 92.1769Z"
        fill="#E0E0E0" />
    <path
        d="M104.572 105.898H155.767C156.13 105.898 156.424 105.604 156.424 105.241V104.956C156.424 104.593 156.13 104.298 155.767 104.298H104.572C104.209 104.298 103.914 104.593 103.914 104.956V105.241C103.914 105.604 104.209 105.898 104.572 105.898Z"
        fill="#E0E0E0" />
    <path d="M22.6116 129.65H25.6964L25.6964 77.22H22.6116L22.6116 129.65Z" fill="#E6E6E6" />
    <path d="M21.6414 129.65H23.7838L23.7838 77.22H21.6414L21.6414 129.65Z" fill="#F0F0F0" />
    <path d="M57.6774 77.22H20.9761V81.0097H57.6774V77.22Z" fill="#F0F0F0" />
    <path d="M59.0594 129.65H62.1443L62.1443 81.0137H59.0594L59.0594 129.65Z" fill="#E6E6E6" />
    <path d="M58.0892 129.65H60.2316L60.2316 81.0137H58.0892L58.0892 129.65Z" fill="#F0F0F0" />
    <path d="M78.5862 129.65H81.671V81.0137H78.5862V129.65Z" fill="#E6E6E6" />
    <path d="M77.6081 129.65H79.7504V81.0137H77.6081V129.65Z" fill="#F0F0F0" />
    <path d="M42.1384 129.65H45.2232L45.2232 81.0137H42.1384L42.1384 129.65Z" fill="#E6E6E6" />
    <path d="M41.1642 129.65H43.3066L43.3066 81.0137H41.1642L41.1642 129.65Z" fill="#F0F0F0" />
    <path d="M57.6814 81.0097H81.671V77.22H57.6814V81.0097Z" fill="#E6E6E6" />
    <path d="M54.5688 47.9041H24.9124L27.5378 24.948H51.9433L54.5688 47.9041Z" fill="#EBEBEB" />
    <path d="M41.3543 47.9041H38.1269V77.22H41.3543V47.9041Z" fill="#F5F5F5" />
    <path
        d="M46.332 77.22H33.161C33.161 76.8482 33.3087 76.4916 33.5716 76.2288C33.8345 75.9659 34.1911 75.8182 34.5629 75.8182H44.9183C45.1034 75.8166 45.2869 75.8517 45.4584 75.9214C45.6298 75.9912 45.7858 76.0942 45.9172 76.2245C46.0487 76.3549 46.153 76.5099 46.2242 76.6808C46.2954 76.8516 46.332 77.0349 46.332 77.22Z"
        fill="#F0F0F0" />
    <path d="M41.3543 50.4425L38.1269 48.9021V47.9041H41.3543V50.4425Z" fill="#E0E0E0" />
    <path d="M53.6144 77.1368H67.5418L69.2644 58.2199H55.337L53.6144 77.1368Z" fill="#E6E6E6" />
    <path d="M52.8937 77.1368H66.821L68.5436 58.2199H54.6163L52.8937 77.1368Z" fill="#F0F0F0" />
    <path d="M64.9163 75.042L66.2587 60.3148H56.5211L55.1786 75.042H64.9163Z" fill="white" />
    <path d="M168.217 63.5699H139.946L134.446 83.16H162.716L168.217 63.5699Z" fill="#E6E6E6" />
    <path d="M162.716 83.16L162.606 84.2411H134.327L134.442 83.16H162.716Z" fill="#E6E6E6" />
    <path d="M167.35 63.5699H139.075L133.575 83.16H161.849L167.35 63.5699Z" fill="#F0F0F0" />
    <path
        d="M161.528 81.8809L166.078 64.9163C166.142 64.6747 166.019 64.4649 165.813 64.4649H139.82C139.716 64.4771 139.618 64.5221 139.541 64.5932C139.465 64.6644 139.412 64.7581 139.392 64.8609L134.846 81.8136C134.779 82.0552 134.901 82.2651 135.107 82.2651H161.101C161.204 82.2547 161.3 82.2119 161.377 82.1428C161.454 82.0738 161.507 81.982 161.528 81.8809Z"
        fill="white" />
    <path d="M154.48 83.16L154.365 84.2411H123.231L123.346 83.16H154.48Z" fill="#F0F0F0" />
    <path d="M174.074 12.4502H105.479V54.7866H174.074V12.4502Z" fill="#F0F0F0" />
    <path d="M172.125 14.3986H107.427V52.8422H172.125V14.3986Z" fill="white" />
    <path d="M174.074 54.7906H174.775V12.4542H174.074V54.7906Z" fill="#E6E6E6" />
    <path
        d="M99 147.534C141.405 147.534 175.78 145.527 175.78 143.051C175.78 140.575 141.405 138.568 99 138.568C56.5953 138.568 22.2196 140.575 22.2196 143.051C22.2196 145.527 56.5953 147.534 99 147.534Z"
        fill="#F5F5F5" />
    <path
        d="M83.3303 5.94001C85.1783 4.29529 87.5714 3.21817 90.5098 2.70865C93.4481 2.19913 96.554 2.52253 99.8276 3.67885C103.091 4.83517 106.075 6.92341 108.781 9.94357C111.297 12.7525 112.997 15.6948 113.882 18.7704C114.764 21.6145 114.845 24.6468 114.115 27.5339C113.422 30.21 111.947 32.6186 109.878 34.452C108.406 35.8324 106.609 36.8198 104.655 37.323C102.91 37.7577 101.108 37.9233 99.3128 37.8141C97.5889 37.7032 94.5978 37.4088 90.3395 36.931C89.3426 36.8225 88.3406 36.767 87.3378 36.7647C86.6511 36.7601 85.9663 36.8386 85.2984 36.9983C84.7686 37.1334 84.2538 37.3218 83.7619 37.5606C83.2867 37.7943 82.4828 38.2259 81.3424 38.8635C78.998 40.297 76.96 40.0462 75.2281 38.1111C74.7979 37.6535 74.4626 37.1152 74.2417 36.5272C74.0208 35.9392 73.9186 35.3133 73.9411 34.6856C73.986 33.4105 74.6566 32.1922 75.9528 31.0306C78.5931 28.5006 82.1295 27.1219 85.7855 27.1973C87.8667 27.2668 89.943 27.4412 92.0066 27.72C94.2005 27.9853 95.8201 28.1517 96.8656 28.2071C97.9035 28.2664 98.9445 28.1797 99.9583 27.9497C100.97 27.7256 101.905 27.241 102.671 26.5439C103.421 25.893 104.021 25.088 104.431 24.1838C104.841 23.2797 105.051 22.2976 105.047 21.3048C105.079 19.1928 104.287 17.23 102.671 15.4163C100.762 13.2858 98.8205 12.1994 96.8458 12.1572C94.871 12.115 92.5201 12.6826 89.793 13.86C87.0184 15.1615 84.8074 14.8975 83.16 13.068C82.6912 12.5654 82.3325 11.9705 82.1068 11.3214C81.8811 10.6722 81.7934 9.98309 81.8492 9.29809C81.8612 8.66812 81.9982 8.0468 82.2525 7.47029C82.5067 6.89379 82.8731 6.37361 83.3303 5.94001ZM64.1876 48.5853C63.1529 47.461 62.5753 45.9908 62.568 44.4629C62.5442 42.9 63.2188 41.5021 64.5916 40.2693C65.1565 39.7467 65.8237 39.3471 66.551 39.0956C67.2783 38.844 68.0498 38.7461 68.8169 38.808C69.5938 38.855 70.3533 39.058 71.05 39.405C71.7467 39.752 72.3663 40.2359 72.8719 40.8276C73.3918 41.3904 73.7932 42.052 74.0525 42.7729C74.3117 43.4939 74.4234 44.2596 74.3809 45.0246C74.3384 45.7896 74.1426 46.5383 73.8052 47.2261C73.4677 47.914 72.9955 48.527 72.4165 49.0288C71.0622 50.2405 69.6102 50.758 68.0605 50.5811C66.5634 50.4304 65.1792 49.7171 64.1876 48.5853Z"
        fill="#407BFF" />
    <g opacity="0.5">
        <path
            d="M118.741 32.4918C119.297 31.1706 120.219 30.0358 121.398 29.2208C122.784 28.2335 124.402 27.6223 126.094 27.4468C128.066 27.2346 130.059 27.5262 131.888 28.2942C133.615 28.9332 135.175 29.9554 136.45 31.284C137.555 32.4338 138.322 33.8654 138.667 35.4222C138.986 36.8772 138.862 38.3943 138.311 39.7782C137.937 40.7933 137.313 41.6978 136.497 42.4076C135.766 43.0358 134.944 43.5486 134.058 43.9283C133.208 44.29 131.704 44.8681 129.547 45.6628C129.043 45.8478 128.55 46.062 128.07 46.3043C127.74 46.4661 127.432 46.6683 127.152 46.9062C126.929 47.0968 126.727 47.3105 126.55 47.5438C126.379 47.7695 126.098 48.1694 125.706 48.7318C124.914 49.9831 123.878 50.3527 122.598 49.8406C122.282 49.7247 121.991 49.5475 121.744 49.3192C121.497 49.0908 121.297 48.8158 121.156 48.51C121.015 48.1521 120.95 47.7686 120.965 47.3841C120.98 46.9996 121.075 46.6224 121.243 46.2766C121.9 44.4314 123.261 42.9218 125.029 42.079C126.041 41.6077 127.076 41.1874 128.13 40.8197C129.243 40.4237 130.058 40.1108 130.573 39.8891C131.084 39.6675 131.561 39.3756 131.991 39.0218C132.421 38.6705 132.753 38.2134 132.953 37.6952C133.156 37.2039 133.25 36.6745 133.229 36.1433C133.208 35.6122 133.072 35.0919 132.83 34.6183C132.3 33.5759 131.388 32.7785 130.284 32.3928C128.858 31.8305 127.67 31.7764 126.72 32.2304C125.566 32.8446 124.556 33.6978 123.758 34.7332C122.739 36.0241 121.614 36.4201 120.384 35.9212C120.039 35.7921 119.725 35.5928 119.461 35.3358C119.197 35.0788 118.99 34.7697 118.851 34.4282C118.706 34.1289 118.621 33.8036 118.601 33.4712C118.582 33.1387 118.63 32.8058 118.741 32.4918ZM119.822 57.519C119.056 57.229 118.427 56.6642 118.056 55.935C117.865 55.5516 117.762 55.1308 117.754 54.7028C117.746 54.2749 117.833 53.8505 118.008 53.46C118.151 53.0727 118.373 52.7194 118.66 52.4228C118.947 52.1261 119.293 51.8927 119.675 51.7374C120.059 51.5737 120.472 51.4893 120.889 51.4893C121.306 51.4893 121.719 51.5737 122.103 51.7374C122.487 51.882 122.838 52.1022 123.135 52.3851C123.432 52.6679 123.67 53.0075 123.834 53.3839C123.997 53.7602 124.084 54.1655 124.088 54.5759C124.092 54.9862 124.013 55.3932 123.857 55.7726C123.72 56.1792 123.495 56.5505 123.198 56.8599C122.901 57.1694 122.539 57.4093 122.138 57.5626C121.388 57.8411 120.561 57.8255 119.822 57.519Z"
            fill="#407BFF" />
    </g>
    <g opacity="0.1">
        <path
            d="M145.376 30.1594C145.017 29.5958 144.827 28.9421 144.825 28.2744C144.812 27.4832 145.006 26.7024 145.387 26.0093C145.828 25.202 146.467 24.5205 147.245 24.0293C147.946 23.5356 148.75 23.2079 149.597 23.071C150.33 22.9521 151.082 23.037 151.771 23.3165C152.416 23.5776 152.967 24.0258 153.355 24.6035C153.646 25.0148 153.828 25.4929 153.886 25.9934C153.931 26.439 153.91 26.8887 153.822 27.328C153.735 27.753 153.558 28.4816 153.292 29.5139C153.231 29.7568 153.184 30.0026 153.149 30.2504C153.103 30.5555 153.127 30.8671 153.22 31.1612C153.264 31.288 153.343 31.5018 153.462 31.8028C153.534 31.9261 153.581 32.0625 153.6 32.2041C153.62 32.3458 153.611 32.4898 153.574 32.6279C153.537 32.766 153.473 32.8954 153.386 33.0087C153.299 33.1219 153.19 33.2168 153.066 33.2878C152.808 33.4687 152.489 33.5399 152.179 33.4858C152.004 33.4463 151.839 33.3706 151.695 33.2635C151.551 33.1564 151.431 33.0203 151.343 32.864C151.064 32.469 150.868 32.0219 150.765 31.5493C150.683 31.1397 150.674 30.7188 150.737 30.3059C150.823 29.7935 150.935 29.2859 151.074 28.7852C151.217 28.2506 151.312 27.8586 151.363 27.5972C151.413 27.3364 151.427 27.07 151.407 26.8052C151.384 26.5469 151.295 26.2987 151.149 26.0845C151.014 25.8775 150.836 25.702 150.627 25.5701C150.418 25.4382 150.183 25.353 149.937 25.3202C149.393 25.2461 148.842 25.3883 148.401 25.7162C148.151 25.8551 147.932 26.0444 147.759 26.272C147.586 26.4997 147.462 26.7608 147.395 27.0389C147.326 27.644 147.387 28.2569 147.573 28.8367C147.799 29.5693 147.653 30.1039 147.142 30.4484C147.001 30.5462 146.843 30.6139 146.675 30.6473C146.507 30.6807 146.335 30.6791 146.168 30.6425C146.01 30.6192 145.859 30.5644 145.722 30.4814C145.586 30.3984 145.468 30.2889 145.376 30.1594ZM155.256 36.3607C154.942 36.5754 154.56 36.667 154.183 36.6181C153.983 36.5898 153.793 36.5171 153.626 36.4053C153.459 36.2936 153.319 36.1457 153.216 35.9726C153.106 35.8157 153.029 35.6376 152.991 35.4494C152.953 35.2613 152.954 35.0673 152.995 34.8797C153.033 34.6892 153.109 34.5083 153.219 34.3478C153.328 34.1873 153.469 34.0504 153.632 33.9451C153.789 33.8358 153.966 33.7595 154.154 33.7207C154.341 33.6819 154.534 33.6814 154.721 33.7194C154.909 33.7541 155.088 33.8272 155.247 33.9342C155.406 34.0412 155.541 34.1797 155.644 34.3411C155.763 34.5013 155.846 34.6858 155.886 34.8815C155.927 35.0771 155.924 35.2793 155.877 35.4737C155.789 35.8368 155.567 36.1533 155.256 36.3607Z"
            fill="#407BFF" />
    </g>
    <path d="M73.5728 140.43L70.5791 139.653L72.365 132.807L75.3588 133.583L73.5728 140.43Z"
        fill="#FFC3BD" />
    <path
        d="M70.5474 138.861L73.8896 139.919C73.9174 139.926 73.9436 139.938 73.9665 139.955C73.9894 139.972 74.0086 139.994 74.023 140.019C74.0374 140.043 74.0467 140.071 74.0503 140.099C74.0539 140.128 74.0518 140.156 74.0441 140.184L73.3392 142.778C73.2898 142.914 73.1897 143.026 73.0599 143.09C72.93 143.154 72.7804 143.166 72.6423 143.122C71.4859 142.726 70.9513 142.497 69.4742 142.029C68.5674 141.744 66.3815 141.099 65.1182 140.703C63.855 140.307 64.3262 139.119 64.8767 139.194C67.419 139.459 68.8961 139.245 69.9534 138.877C70.1442 138.807 70.3531 138.801 70.5474 138.861Z"
        fill="#263238" />
    <path opacity="0.2"
        d="M75.3588 133.587L72.3651 132.81L71.4463 136.339L74.4401 137.115L75.3588 133.587Z"
        fill="black" />
    <path
        d="M82.9026 63.5699C82.9026 63.5699 77.422 89.6148 75.9647 98.1407C74.3807 107.478 70.8999 134.212 70.8999 134.212L75.9885 136.062C75.9885 136.062 83.952 107.712 85.1598 98.7347C87.6903 89.9593 94.1015 63.5699 94.1015 63.5699H82.9026Z"
        fill="#407BFF" />
    <path opacity="0.3"
        d="M89.9395 72.072C88.1615 76.3409 87.516 84.1144 87.8249 88.7634C89.2346 83.2748 90.7989 77.0062 92.0106 72.0958C91.6186 70.7454 91.08 69.3277 89.9395 72.072Z"
        fill="black" />
    <path d="M75.8855 136.664L70.4286 135.087L70.6345 132.779L77.1289 134.604L75.8855 136.664Z"
        fill="#263238" />
    <path
        d="M69.3198 139.028C69.5899 139.105 69.8672 139.154 70.1474 139.174C70.1616 139.177 70.1761 139.174 70.1889 139.168C70.2017 139.162 70.2122 139.151 70.2187 139.139C70.2262 139.127 70.2302 139.114 70.2302 139.101C70.2302 139.088 70.2262 139.074 70.2187 139.063C70.1435 138.968 69.4901 138.149 69.0822 138.172C69.0353 138.174 68.9897 138.188 68.9495 138.212C68.9093 138.236 68.8759 138.27 68.8525 138.311C68.8122 138.368 68.7877 138.435 68.7814 138.504C68.7751 138.574 68.7874 138.644 68.8169 138.707C68.9396 138.872 69.1186 138.986 69.3198 139.028ZM69.993 139.028C69.4228 138.96 69.0386 138.822 68.9436 138.632C68.9251 138.591 68.9183 138.545 68.9239 138.501C68.9295 138.456 68.9473 138.414 68.9753 138.378C68.9864 138.358 69.0023 138.341 69.0217 138.329C69.0411 138.316 69.0632 138.309 69.0862 138.307C69.3 138.299 69.7198 138.699 69.993 139.02V139.028Z"
        fill="#407BFF" />
    <path
        d="M70.1316 139.174H70.1672C70.179 139.172 70.1901 139.168 70.1997 139.161C70.2093 139.154 70.2172 139.145 70.2227 139.135C70.2227 139.099 70.587 138.295 70.3811 137.923C70.3529 137.875 70.3151 137.834 70.2701 137.802C70.2251 137.77 70.1739 137.748 70.1197 137.737C70.0602 137.72 69.9967 137.722 69.9388 137.744C69.8809 137.767 69.8318 137.807 69.799 137.86C69.6208 138.153 69.8623 138.889 70.0999 139.15C70.1077 139.162 70.1188 139.17 70.1316 139.174ZM70.1316 137.883C70.1589 137.892 70.1842 137.905 70.206 137.924C70.2278 137.942 70.2456 137.965 70.2583 137.99C70.3299 138.317 70.2895 138.659 70.1435 138.96C69.9574 138.667 69.8148 138.121 69.9336 137.931C69.9336 137.895 69.993 137.856 70.096 137.875L70.1316 137.883Z"
        fill="#407BFF" />
    <path
        d="M87.1438 41.2632C86.8784 41.9047 86.625 42.475 86.3518 43.0611C86.0785 43.6471 85.7855 44.2213 85.4885 44.7955C84.8866 45.94 84.253 47.0686 83.556 48.1694C82.1693 50.4577 80.4921 52.5568 78.5664 54.4144L78.4951 54.4856C78.3941 54.5766 78.2824 54.6551 78.1625 54.7193C77.8327 54.8971 77.4704 55.0062 77.0972 55.0401C76.8837 55.0553 76.6693 55.0553 76.4557 55.0401C76.1362 55.0195 75.8186 54.9758 75.5053 54.9094C74.943 54.7906 74.444 54.6441 73.953 54.4896C72.9788 54.1807 72.072 53.8045 71.181 53.4244C70.29 53.0442 69.4109 52.6324 68.5476 52.1849C67.6843 51.7374 66.8369 51.2899 65.9974 50.7831C65.8027 50.6642 65.6568 50.4798 65.5859 50.263C65.515 50.0462 65.5238 49.8112 65.6106 49.6003C65.6975 49.3893 65.8567 49.2163 66.0597 49.1123C66.2627 49.0083 66.4962 48.9801 66.7181 49.0327C68.5555 49.4763 70.389 49.9712 72.1948 50.4108C73.0937 50.6365 73.9926 50.8345 74.8559 51.0008C75.2628 51.0832 75.6739 51.1427 76.0874 51.1791C76.2431 51.1881 76.3991 51.1881 76.5547 51.1791C76.6141 51.1791 76.6379 51.1791 76.622 51.1791C76.4813 51.1829 76.3443 51.2254 76.226 51.3018L75.83 51.6067C76.5962 50.7587 77.3066 49.8619 77.9566 48.9218C78.6218 47.9596 79.2515 46.9419 79.8574 45.9202C80.4632 44.8985 81.0454 43.8253 81.5958 42.7522C82.1462 41.679 82.6927 40.5742 83.1798 39.5406L83.2036 39.4891C83.4373 38.964 83.87 38.5532 84.4065 38.3471C84.9431 38.141 85.5395 38.1565 86.0647 38.3902C86.5898 38.6239 87.0006 39.0566 87.2067 39.5932C87.4128 40.1297 87.3972 40.7262 87.1636 41.2513L87.1438 41.2632Z"
        fill="#FFC3BD" />
    <path
        d="M86.5339 37.0735C83.9837 37.1448 82.2334 39.9128 80.5622 43.362C81.8432 45.5764 83.6789 47.4188 85.8884 48.708C85.8884 48.708 92.5888 36.9032 86.5339 37.0735Z"
        fill="#E0E0E0" />
    <path
        d="M65.8707 50.7989L63.5739 50.2128L65.3638 47.912C65.3638 47.912 67.3438 48.2249 68.0962 49.892L67.2804 50.4742C67.0825 50.6263 66.8542 50.7341 66.6109 50.7901C66.3677 50.8462 66.1152 50.8492 65.8707 50.7989Z"
        fill="#FFC3BD" />
    <path
        d="M63.0155 47.8606L63.459 47.4646C63.6405 47.3056 63.8721 47.2157 64.1133 47.2106C64.3545 47.2055 64.5897 47.2856 64.7777 47.4368L65.3638 47.9081L63.5739 50.2088L62.8413 49.0684C62.7199 48.8798 62.6708 48.6538 62.7028 48.4319C62.7348 48.21 62.8458 48.0071 63.0155 47.8606Z"
        fill="#FFC3BD" />
    <path d="M100.37 140.073H97.2378L96.4894 133.096H99.6217L100.37 140.073Z" fill="#FFC3BD" />
    <path
        d="M96.9646 139.725H100.485C100.543 139.721 100.6 139.741 100.644 139.78C100.688 139.818 100.715 139.872 100.719 139.931L100.889 142.608C100.886 142.751 100.826 142.888 100.724 142.989C100.621 143.09 100.482 143.146 100.338 143.146C99.1149 143.122 98.5288 143.055 96.9804 143.055C96.03 143.055 93.4164 143.15 92.0898 143.15C90.7632 143.15 90.8107 141.899 91.3691 141.788C93.8679 141.277 95.539 140.576 96.426 139.911C96.5802 139.791 96.7695 139.726 96.9646 139.725Z"
        fill="#263238" />
    <path opacity="0.2" d="M99.6217 133.096H96.4894L96.8775 136.695H100.01L99.6217 133.096Z"
        fill="black" />
    <path
        d="M89.0248 63.5699C89.0248 63.5699 89.7178 89.7534 90.2128 98.3822C90.7672 107.831 95.4598 135.824 95.4598 135.824H101.202C101.202 135.824 99.9425 107.474 98.9921 98.204C99.3881 88.0506 99.6494 63.562 99.6494 63.562L89.0248 63.5699Z"
        fill="#407BFF" />
    <path d="M101.431 135.824H94.9212L94.6123 133.729L101.606 133.848L101.431 135.824Z"
        fill="#263238" />
    <path
        d="M95.8558 140.247C96.1373 140.241 96.4173 140.205 96.6913 140.14C96.7047 140.138 96.717 140.131 96.7263 140.121C96.7355 140.111 96.7413 140.099 96.7428 140.085C96.7466 140.072 96.7459 140.058 96.7409 140.045C96.7359 140.032 96.7268 140.021 96.7151 140.014C96.6161 139.95 95.729 139.364 95.3449 139.511C95.3021 139.527 95.264 139.553 95.2342 139.588C95.2044 139.622 95.1839 139.664 95.1746 139.709C95.1498 139.777 95.1452 139.85 95.1614 139.92C95.1776 139.991 95.2138 140.055 95.2657 140.105C95.4391 140.221 95.6484 140.272 95.8558 140.247ZM96.4894 140.041C95.927 140.148 95.5152 140.129 95.3687 139.99C95.3385 139.957 95.3178 139.916 95.3087 139.872C95.2996 139.828 95.3026 139.783 95.3172 139.74C95.3209 139.719 95.3301 139.698 95.344 139.681C95.3579 139.663 95.3759 139.65 95.3964 139.641C95.6023 139.562 96.125 139.816 96.4894 140.041Z"
        fill="#407BFF" />
    <path
        d="M96.6715 140.144H96.7072C96.7178 140.138 96.7268 140.129 96.7337 140.119C96.7405 140.109 96.745 140.097 96.7468 140.085C96.7468 140.049 96.8181 139.182 96.5013 138.897C96.4607 138.858 96.4117 138.829 96.3581 138.813C96.3044 138.796 96.2477 138.793 96.1924 138.802C96.1312 138.803 96.072 138.824 96.024 138.862C95.976 138.9 95.9419 138.952 95.9271 139.012C95.8558 139.341 96.3231 139.97 96.6359 140.148L96.6715 140.144ZM96.228 138.921C96.2574 138.92 96.2866 138.925 96.3138 138.936C96.3411 138.947 96.3658 138.963 96.3864 138.984C96.5598 139.272 96.6323 139.609 96.5923 139.942C96.3191 139.721 96.0063 139.242 96.0538 139.028C96.0538 138.984 96.0894 138.937 96.1963 138.925L96.228 138.921Z"
        fill="#407BFF" />
    <path
        d="M84.2213 39.0892C84.3902 38.5765 84.6942 38.1188 85.1011 37.7641C85.508 37.4094 86.003 37.1709 86.5339 37.0735C87.3077 36.893 88.092 36.7608 88.8822 36.6775C91.2564 36.5465 93.636 36.5465 96.0102 36.6775C97.2536 36.733 98.5209 36.8795 99.5306 37.022H99.5663C99.8257 37.0522 100.076 37.1349 100.303 37.265C100.529 37.3952 100.727 37.57 100.884 37.779C101.04 37.9879 101.153 38.2266 101.214 38.4804C101.276 38.7343 101.285 38.998 101.241 39.2555C100.451 43.2909 99.9336 47.375 99.693 51.48C99.4475 57.4438 99.7801 62.1245 99.6613 63.562H82.9026C81.8849 49.0169 83.1996 42.4037 84.2213 39.0892Z"
        fill="#E0E0E0" />
    <path
        d="M97.1467 27.8032C97.4391 28.0143 97.6716 28.2977 97.8216 28.6256C97.9715 28.9535 98.0338 29.3148 98.0023 29.674C97.9707 30.0332 97.8465 30.3781 97.6417 30.6749C97.4369 30.9717 97.1585 31.2102 96.8339 31.3672C97.511 32.4878 95.7092 34.4678 93.8956 33.2244C92.0819 31.981 94.644 26.7458 97.1467 27.8032Z"
        fill="#263238" />
    <path
        d="M89.6465 26.5993C89.3977 26.6067 89.1512 26.5493 88.9312 26.4328C88.7112 26.3163 88.5252 26.1446 88.3915 25.9347C88.2578 25.7247 88.1809 25.4836 88.1683 25.235C88.1558 24.9863 88.208 24.7387 88.3199 24.5164C87.4764 24.1877 87.6269 22.3463 89.1475 22.2671C90.6682 22.1879 91.4522 26.136 89.6465 26.5993Z"
        fill="#263238" />
    <path
        d="M89.1515 38.2338C89.0381 38.1298 88.9538 37.9981 88.9067 37.8516C88.8596 37.7051 88.8515 37.5489 88.883 37.3983C88.9146 37.2477 88.9848 37.1079 89.0867 36.9927C89.1886 36.8774 89.3187 36.7906 89.4643 36.7409C90.9929 36.1786 91.2701 35.0698 91.1473 33.862C91.1122 33.5223 91.0567 33.1851 90.981 32.8522L93.5748 30.7811L95.4835 29.2604C95.0083 31.2404 94.4777 34.6896 95.4835 36.436C95.5963 36.6187 95.6399 36.8357 95.6065 37.0478C95.573 37.2599 95.4648 37.4531 95.3014 37.5923C94.644 38.1744 93.2976 38.9268 91.08 38.808C90.0623 38.7565 89.496 38.5229 89.1515 38.2338Z"
        fill="#FFC3BD" />
    <path
        d="M83.362 39.1604C83.5509 38.5903 83.8838 38.0785 84.3285 37.6748C84.7732 37.271 85.3146 36.9889 85.9003 36.8557C86.6519 36.7364 87.4094 36.6571 88.1694 36.6181C88.2487 36.6067 88.3297 36.6153 88.4049 36.6429C88.4801 36.6706 88.5473 36.7166 88.6003 36.7767C88.6534 36.8368 88.6906 36.9092 88.7087 36.9872C88.7268 37.0653 88.7252 37.1467 88.704 37.224C87.3774 42.1502 85.4845 52.0067 86.0706 64.2154C86.0733 64.2914 86.0605 64.3671 86.0329 64.4379C86.0053 64.5088 85.9635 64.5733 85.9101 64.6274C85.8567 64.6815 85.7929 64.7242 85.7224 64.7528C85.6519 64.7813 85.5764 64.7952 85.5004 64.7935H82.174C82.0297 64.796 81.8899 64.7432 81.7832 64.6461C81.6764 64.5489 81.6108 64.4147 81.5998 64.2708C80.5979 49.3535 82.368 41.9206 83.362 39.1604Z"
        fill="#263238" />
    <path
        d="M99.4396 36.7251C98.3748 36.5725 97.3028 36.4747 96.228 36.432C96.0334 36.4178 95.8401 36.4729 95.6822 36.5873C95.5242 36.7018 95.4118 36.8684 95.3647 37.0577C94.1332 42.4829 93.0362 54.5371 92.9887 64.2352C92.9903 64.309 93.0063 64.3818 93.036 64.4495C93.0657 64.5171 93.1085 64.5782 93.1618 64.6294C93.2151 64.6805 93.278 64.7206 93.3468 64.7474C93.4156 64.7742 93.4891 64.7872 93.5629 64.7856H99.5029C99.6501 64.7889 99.7926 64.7343 99.9 64.6336C100.007 64.5329 100.071 64.3941 100.077 64.2471C100.117 62.2948 99.8474 57.721 100.077 52.0423C100.297 47.9958 100.805 43.9701 101.598 39.996C101.804 38.8833 100.616 36.8914 99.4396 36.7251Z"
        fill="#263238" />
    <path
        d="M101.526 38.4476C102.798 40.3643 103.954 42.2849 105.047 44.3005C105.585 45.3103 106.116 46.336 106.595 47.4131C106.833 47.9516 107.067 48.5021 107.284 49.0842C107.524 49.7139 107.71 50.3631 107.839 51.0246C107.936 51.5067 107.958 52.0011 107.902 52.4898C107.837 52.8853 107.735 53.2738 107.597 53.6501C107.371 54.2635 107.094 54.8569 106.77 55.4242C106.187 56.4528 105.537 57.4423 104.825 58.3862C103.455 60.2142 101.957 61.9425 100.342 63.558C100.156 63.745 99.9071 63.8569 99.6434 63.8725C99.3797 63.8881 99.1195 63.8062 98.9122 63.6424C98.7049 63.4786 98.565 63.2444 98.5192 62.9843C98.4733 62.7241 98.5246 62.4562 98.6634 62.2314V62.2076C99.8158 60.3504 100.98 58.4575 102.033 56.5805C102.556 55.6459 103.055 54.6955 103.455 53.7768C103.855 52.8581 104.148 51.8522 103.942 51.8245C103.816 51.4032 103.662 50.9905 103.483 50.589C103.285 50.1376 103.059 49.6703 102.821 49.207C102.338 48.2764 101.82 47.3299 101.277 46.3993C100.192 44.5302 99.0357 42.6452 97.8912 40.8197V40.7959C97.5798 40.3139 97.4727 39.7278 97.5934 39.1668C97.714 38.6057 98.0526 38.1155 98.5347 37.8041C99.0168 37.4927 99.6028 37.3856 100.164 37.5063C100.725 37.627 101.215 37.9656 101.526 38.4476Z"
        fill="#FFC3BD" />
    <path
        d="M99.0634 36.6736C101.614 36.626 102.964 38.7842 104.635 42.2176C102.742 45.7222 99.1307 47.2388 99.1307 47.2388C99.1307 47.2388 94.05 36.7607 99.0634 36.6736Z"
        fill="#E0E0E0" />
    <path
        d="M97.7566 62.1284L96.2874 62.5957L99.0079 64.6628C99.0079 64.6628 101.233 63.5065 100.536 62.4571L100.085 62.2552C99.3502 61.9308 98.5223 61.8858 97.7566 62.1284Z"
        fill="#FFC3BD" />
    <path
        d="M95.4637 64.4094L97.1151 66.0686C97.1684 66.1207 97.232 66.1611 97.3019 66.1873C97.3717 66.2135 97.4462 66.2249 97.5206 66.2208C97.5951 66.2167 97.6679 66.1972 97.7344 66.1635C97.8009 66.1298 97.8597 66.0827 97.9071 66.0251L99.004 64.6628L96.2834 62.5957L95.436 63.756C95.3579 63.8486 95.3174 63.9671 95.3225 64.0881C95.3276 64.2091 95.378 64.3238 95.4637 64.4094Z"
        fill="#FFC3BD" />
    <path opacity="0.2"
        d="M90.981 32.868C91.0567 33.201 91.1122 33.5382 91.1473 33.8778C92.1294 34.1273 93.5233 33.0027 93.654 32.0483C93.6708 31.6296 93.6442 31.2102 93.5748 30.7969L90.981 32.868Z"
        fill="black" />
    <path
        d="M97.1111 26.4489C96.4418 29.3713 96.2042 31.1137 94.4064 32.4166C93.8183 32.8467 93.1267 33.1133 92.402 33.1892C91.6773 33.265 90.9455 33.1475 90.281 32.8484C89.6166 32.5494 89.0432 32.0796 88.6194 31.4869C88.1956 30.8942 87.9365 30.1997 87.8684 29.4743C87.6388 26.734 88.7713 22.4136 91.971 21.6454C95.1707 20.8771 97.7803 23.5224 97.1111 26.4489Z"
        fill="#FFC3BD" />
    <path
        d="M95.7568 29.007C94.9093 29.0506 94.0064 26.0608 95.8756 24.6193C95.5786 24.7817 94.7668 24.4847 94.9093 23.9263C94.3589 24.156 91.9512 24.057 92.5333 23.0789C91.3097 23.3957 88.6406 22.865 88.3555 21.6968C88.0704 20.5286 89.4485 20.489 89.6623 20.6435C89.0564 19.796 89.0683 18.5526 90.6761 18.1012C92.2838 17.6497 94.7074 19.9742 94.7074 19.9742C94.4539 19.3604 95.3449 18.8654 96.2676 19.3921C97.1903 19.9188 97.6219 21.4157 97.6219 21.4157C97.6219 20.9642 99.7762 21.5701 98.7545 23.463C99.8118 23.859 100.295 24.4213 100.228 25.3994C100.16 26.3776 99.491 26.433 99.491 26.433C99.6327 26.7852 99.6523 27.1746 99.5468 27.5392C99.4413 27.9038 99.2167 28.2226 98.9089 28.4447C97.812 29.3278 96.8537 28.2902 95.7568 29.007Z"
        fill="#263238" />
    <path
        d="M97.4358 29.2327C97.0633 29.7777 96.5133 30.1766 95.8795 30.3613C95.0638 30.5791 94.7866 29.8505 95.1192 29.0902C95.4202 28.4051 96.2042 27.4626 96.9725 27.5814C97.7407 27.7002 97.8952 28.5516 97.4358 29.2327Z"
        fill="#FFC3BD" />
    <path
        d="M92.268 26.33C92.2284 26.5676 92.0621 26.7458 91.8997 26.726C91.7374 26.7062 91.6344 26.4924 91.674 26.2508C91.7136 26.0093 91.8799 25.8548 92.0423 25.8548C92.2046 25.8548 92.2878 26.0885 92.268 26.33Z"
        fill="#263238" />
    <path
        d="M89.3693 25.8034C89.3297 26.0449 89.1673 26.2231 89.005 26.1994C88.8426 26.1756 88.7396 25.9657 88.7792 25.7242C88.8188 25.4826 88.9812 25.3282 89.1436 25.3282C89.3059 25.3282 89.4089 25.5658 89.3693 25.8034Z"
        fill="#263238" />
    <path
        d="M90.5137 26.3419C90.0918 27.0388 89.5762 27.6744 88.9812 28.2308C89.1353 28.3756 89.3185 28.4859 89.5186 28.5542C89.7187 28.6225 89.931 28.6472 90.1415 28.6268L90.5137 26.3419Z"
        fill="#ED847E" />
    <path
        d="M90.6563 29.8069C90.9443 29.8395 91.2359 29.8142 91.514 29.7326C91.7921 29.651 92.0512 29.5147 92.2759 29.3317C92.289 29.3178 92.2963 29.2994 92.2963 29.2802C92.2963 29.2611 92.289 29.2427 92.2759 29.2288C92.2616 29.2165 92.2433 29.2097 92.2244 29.2097C92.2056 29.2097 92.1873 29.2165 92.173 29.2288C91.9258 29.4249 91.6374 29.5624 91.3294 29.631C91.0215 29.6996 90.702 29.6975 90.3949 29.6248C90.3856 29.6224 90.3758 29.622 90.3663 29.6236C90.3567 29.6251 90.3476 29.6286 90.3395 29.6338C90.3313 29.639 90.3243 29.6458 90.3189 29.6537C90.3134 29.6617 90.3097 29.6707 90.3078 29.6802C90.3055 29.6893 90.3051 29.6988 90.3067 29.7081C90.3083 29.7174 90.3118 29.7263 90.317 29.7341C90.3223 29.7419 90.3291 29.7486 90.337 29.7536C90.345 29.7587 90.3539 29.762 90.3632 29.7634C90.4597 29.785 90.5577 29.7996 90.6563 29.8069Z"
        fill="#263238" />
    <path
        d="M92.3868 24.6827C92.363 24.689 92.3412 24.7013 92.3234 24.7183C92.3097 24.7313 92.2987 24.7469 92.2912 24.7643C92.2837 24.7817 92.2798 24.8004 92.2798 24.8193C92.2798 24.8382 92.2837 24.8569 92.2912 24.8743C92.2987 24.8917 92.3097 24.9073 92.3234 24.9203C92.4776 25.0927 92.6712 25.2253 92.8878 25.3066C93.1043 25.388 93.3373 25.4158 93.5669 25.3876C93.5859 25.3857 93.6043 25.3799 93.621 25.3705C93.6377 25.3612 93.6522 25.3485 93.6638 25.3332C93.6753 25.318 93.6836 25.3005 93.688 25.2819C93.6925 25.2633 93.693 25.244 93.6896 25.2252C93.6863 25.2062 93.6792 25.188 93.6689 25.1718C93.6585 25.1555 93.645 25.1415 93.6292 25.1304C93.6134 25.1194 93.5955 25.1116 93.5767 25.1075C93.5578 25.1033 93.5384 25.103 93.5194 25.1064C93.3378 25.1224 93.155 25.0948 92.9863 25.026C92.8175 24.9571 92.6677 24.8489 92.5492 24.7104C92.5272 24.6913 92.5005 24.6787 92.4719 24.6738C92.4432 24.6689 92.4138 24.672 92.3868 24.6827Z"
        fill="#263238" />
    <path
        d="M88.5496 23.9659C88.5714 23.9756 88.595 23.9807 88.6189 23.9807C88.6427 23.9807 88.6664 23.9756 88.6882 23.9659C88.8572 23.8816 89.0427 23.8354 89.2316 23.8307C89.4204 23.8259 89.608 23.8626 89.7811 23.9382C89.8149 23.9573 89.8548 23.9627 89.8925 23.9531C89.9301 23.9435 89.9626 23.9197 89.9831 23.8867C90.0003 23.8524 90.0038 23.8127 89.9928 23.7759C89.9817 23.7391 89.957 23.7079 89.9237 23.6887C89.7099 23.5862 89.4758 23.5329 89.2386 23.5329C89.0015 23.5329 88.7673 23.5862 88.5535 23.6887C88.5362 23.6963 88.5206 23.7074 88.5079 23.7213C88.4951 23.7352 88.4854 23.7517 88.4795 23.7696C88.4735 23.7876 88.4713 23.8066 88.4732 23.8254C88.475 23.8442 88.4808 23.8624 88.4902 23.8788C88.4991 23.9139 88.5202 23.9448 88.5496 23.9659Z"
        fill="#263238" />
</svg>
