<svg width="266" height="148" viewBox="0 0 266 148" fill="none" xmlns="http://www.w3.org/2000/svg">
    <path
        d="M238.472 103.7H174.655C173.515 103.7 172.586 102.772 172.586 101.631V8.67846C172.586 7.53804 173.515 6.60947 174.655 6.60947H238.472C239.613 6.60947 240.542 7.53804 240.542 8.67846V101.631C240.542 102.772 239.613 103.7 238.472 103.7ZM174.659 6.69773C173.568 6.69773 172.678 7.58747 172.678 8.67846V101.631C172.678 102.722 173.568 103.612 174.659 103.612H238.476C239.567 103.612 240.457 102.722 240.457 101.631V8.67846C240.457 7.58747 239.567 6.69773 238.476 6.69773H174.659Z"
        fill="#E0E0E0" />
    <path
        d="M164.885 103.7H101.068C99.9276 103.7 98.999 102.772 98.999 101.631V8.67846C98.999 7.53804 99.9276 6.60947 101.068 6.60947H164.885C166.026 6.60947 166.954 7.53804 166.954 8.67846V101.631C166.954 102.772 166.026 103.7 164.885 103.7ZM101.068 6.69773C99.977 6.69773 99.0873 7.58747 99.0873 8.67846V101.631C99.0873 102.722 99.977 103.612 101.068 103.612H164.885C165.976 103.612 166.866 102.722 166.866 101.631V8.67846C166.866 7.58747 165.976 6.69773 164.885 6.69773H101.068Z"
        fill="#E0E0E0" />
    <path
        d="M91.3409 103.7H27.527C26.3866 103.7 25.458 102.772 25.458 101.631V8.67846C25.458 7.53804 26.3866 6.60947 27.527 6.60947H91.3445C92.4849 6.60947 93.4134 7.53804 93.4134 8.67846V101.631C93.4134 102.772 92.4849 103.7 91.3445 103.7H91.3409ZM27.527 6.69773C26.436 6.69773 25.5463 7.58747 25.5463 8.67846V101.631C25.5463 102.722 26.436 103.612 27.527 103.612H91.3445C92.4354 103.612 93.3252 102.722 93.3252 101.631V8.67846C93.3252 7.58747 92.4354 6.69773 91.3445 6.69773H27.527Z"
        fill="#E0E0E0" />
    <path d="M265.401 125.262H0.598633V125.305H265.401V125.262Z" fill="#E0E0E0" />
    <path d="M251.053 135.635H231.376V135.784H251.053V135.635Z" fill="#EBEBEB" />
    <path d="M180.548 137.245H175.383V137.394H180.548V137.245Z" fill="#EBEBEB" />
    <path d="M40.605 131.116H14.9474V131.264H40.605V131.116Z" fill="#EBEBEB" />
    <path d="M49.6616 131.116H45.8978V131.264H49.6616V131.116Z" fill="#EBEBEB" />
    <path d="M117.536 133.626H61.8885V133.775H117.536V133.626Z" fill="#EBEBEB" />
    <path d="M109.789 62.6029H92.1426V68.538H109.789V62.6029Z" fill="#E6E6E6" />
    <path d="M105.813 68.538H88.167V74.4731H105.813V68.538Z" fill="#F0F0F0" />
    <path d="M210.4 57.5964H192.754V63.5315H210.4V57.5964Z" fill="#E6E6E6" />
    <path d="M206.425 63.5315H188.778V69.4666H206.425V63.5315Z" fill="#F0F0F0" />
    <path d="M199.247 6.60947H181.6V12.5446H199.247V6.60947Z" fill="#F0F0F0" />
    <path d="M195.271 12.5411H177.625V18.4762H195.271V12.5411Z" fill="#E6E6E6" />
    <path d="M36.188 86.1456H18.5415V92.0807H36.188V86.1456Z" fill="#F0F0F0" />
    <path d="M32.2126 92.0807H14.5662V98.0158H32.2126V92.0807Z" fill="#E6E6E6" />
    <path d="M246.06 106.377H228.414V112.312H246.06V106.377Z" fill="#F0F0F0" />
    <path d="M242.085 112.308H224.438V118.243H242.085V112.308Z" fill="#E6E6E6" />
    <path d="M43.0239 5.46201H25.3774V11.3971H43.0239V5.46201Z" fill="#F0F0F0" />
    <path d="M39.0481 11.3936H21.4016V17.3287H39.0481V11.3936Z" fill="#E6E6E6" />
    <path d="M117.747 92.861H100.101V98.7961H117.747V92.861Z" fill="#F0F0F0" />
    <path d="M243.709 14.4865H226.062V20.4216H243.709V14.4865Z" fill="#F0F0F0" />
    <path d="M83.3794 112.308H65.7329V118.243H83.3794V112.308Z" fill="#F0F0F0" />
    <path
        d="M239.839 145.875C239.839 147.047 192.005 148 133 148C73.9947 148 26.1608 147.047 26.1608 145.875C26.1608 144.702 73.9947 143.749 133 143.749C192.005 143.749 239.839 144.702 239.839 145.875Z"
        fill="#F5F5F5" />
    <path
        d="M241.343 39.3673C243.723 35.9249 242.865 31.2043 239.423 28.8246C235.98 26.4414 231.26 27.3029 228.88 30.7453C227.041 33.404 227.143 36.8182 228.862 39.3355L228.319 41.5458L230.702 41.2139C230.737 41.2386 230.765 41.2668 230.801 41.2916C234.243 43.6748 238.964 42.8133 241.343 39.3709V39.3673Z"
        fill="#407BFF" />
    <path
        d="M243.592 35.6918C243.592 35.6918 243.585 35.6918 243.578 35.6918C243.529 35.6848 243.497 35.6389 243.504 35.593C243.868 33.1956 242.925 30.6147 241.103 29.0188C241.068 28.987 241.064 28.9305 241.096 28.8952C241.128 28.8599 241.185 28.8564 241.22 28.8882C243.088 30.5229 244.055 33.1674 243.681 35.6248C243.674 35.6671 243.638 35.6989 243.592 35.6989V35.6918Z"
        fill="#407BFF" />
    <path
        d="M243.073 37.8774C243.073 37.8774 243.045 37.8774 243.031 37.8668C242.989 37.8456 242.971 37.7891 242.996 37.7467C243.165 37.429 243.271 37.0688 243.299 36.7052C243.299 36.6557 243.338 36.6169 243.395 36.624C243.444 36.6275 243.48 36.6699 243.476 36.7193C243.448 37.1041 243.335 37.489 243.155 37.8279C243.141 37.8562 243.109 37.8738 243.077 37.8738L243.073 37.8774Z"
        fill="#407BFF" />
    <g opacity="0.7">
        <path
            d="M241.343 39.3673C243.723 35.9249 242.865 31.2043 239.423 28.8246C235.98 26.4414 231.26 27.3029 228.88 30.7453C227.041 33.404 227.143 36.8182 228.862 39.3355L228.319 41.5458L230.702 41.2139C230.737 41.2386 230.765 41.2668 230.801 41.2916C234.243 43.6748 238.964 42.8133 241.343 39.3709V39.3673Z"
            fill="white" />
    </g>
    <path
        d="M234.183 39.1061C233.968 38.9013 233.862 38.6471 233.862 38.3505C233.862 38.0539 233.968 37.8068 234.176 37.609C234.388 37.4113 234.656 37.3125 234.985 37.3125C235.313 37.3125 235.581 37.4113 235.793 37.609C236.005 37.8068 236.107 38.0539 236.107 38.3505C236.107 38.6471 236.002 38.8977 235.786 39.1061C235.571 39.3144 235.306 39.4168 234.985 39.4168C234.663 39.4168 234.399 39.3144 234.183 39.1061ZM233.897 31.1373H236.072L235.709 36.4827H234.257L233.894 31.1373H233.897Z"
        fill="#407BFF" />
    <path
        d="M67.848 22.134C64.2996 19.5142 59.2966 20.2697 56.6769 23.8181C54.6538 26.5579 54.6502 30.1592 56.3838 32.8673L55.7377 35.1799L58.2586 34.908C58.2939 34.9363 58.3257 34.9645 58.361 34.9928C61.9094 37.6125 66.9124 36.857 69.5321 33.3086C72.1519 29.7603 71.3964 24.7573 67.848 22.1375V22.134Z"
        fill="#407BFF" />
    <path opacity="0.7"
        d="M67.848 22.134C64.2996 19.5142 59.2966 20.2697 56.6769 23.8181C54.6538 26.5579 54.6502 30.1592 56.3838 32.8673L55.7377 35.1799L58.2586 34.908C58.2939 34.9363 58.3257 34.9645 58.361 34.9928C61.9094 37.6125 66.9124 36.857 69.5321 33.3086C72.1519 29.7603 71.3964 24.7573 67.848 22.1375V22.134Z"
        fill="white" />
    <path
        d="M72.1022 28.3586C72.0527 28.3586 72.0139 28.3162 72.0174 28.2668C72.0916 25.7106 70.7746 23.1296 68.6633 21.6891C68.6244 21.6609 68.6138 21.6079 68.6385 21.5655C68.6668 21.5232 68.7197 21.5161 68.7621 21.5408C70.9264 23.0131 72.2716 25.6541 72.194 28.2703C72.194 28.3198 72.1516 28.3551 72.1057 28.3551L72.1022 28.3586Z"
        fill="#407BFF" />
    <path
        d="M71.8341 30.71C71.8341 30.71 71.8129 30.71 71.8023 30.703C71.7564 30.6853 71.7352 30.6359 71.7529 30.59C71.8906 30.2334 71.9542 29.8415 71.9365 29.4602C71.9365 29.4107 71.9718 29.3719 72.0212 29.3684C72.0742 29.3613 72.1095 29.4037 72.113 29.4531C72.1307 29.8591 72.0636 30.2722 71.9188 30.6535C71.9047 30.6889 71.8729 30.71 71.8376 30.71H71.8341Z"
        fill="#407BFF" />
    <path
        d="M62.5871 28.9517C62.7212 28.7222 62.9189 28.4715 63.1767 28.1961C63.3673 27.9949 63.505 27.8254 63.5933 27.6877C63.6816 27.55 63.7275 27.3947 63.7275 27.2181C63.7275 26.971 63.6427 26.7733 63.4733 26.6285C63.3038 26.4837 63.0814 26.4131 62.7989 26.4131C62.5164 26.4131 62.2905 26.4802 62.0822 26.6109C61.8739 26.7415 61.6973 26.9251 61.5561 27.1616L60.5181 26.4449C60.7582 26.0142 61.083 25.6823 61.4925 25.4457C61.9021 25.2092 62.3858 25.0927 62.9472 25.0927C63.6039 25.0927 64.1335 25.2586 64.5325 25.587C64.9314 25.9153 65.1292 26.3743 65.1292 26.9569C65.1292 27.2323 65.0903 27.4759 65.0126 27.6842C64.935 27.8925 64.8396 28.069 64.7302 28.2138C64.6172 28.3586 64.4725 28.5245 64.2959 28.7116C64.0841 28.9341 63.9287 29.1212 63.8334 29.2695C63.7345 29.4213 63.6886 29.6049 63.6886 29.8203H62.3929C62.3929 29.4707 62.4599 29.1812 62.5941 28.9517H62.5871ZM62.4494 32.0093C62.2905 31.8504 62.2128 31.6562 62.2128 31.4267C62.2128 31.1972 62.2905 31.0066 62.4458 30.8548C62.6012 30.7029 62.7989 30.6253 63.039 30.6253C63.2791 30.6253 63.4768 30.7029 63.6321 30.8548C63.7875 31.0066 63.8652 31.2008 63.8652 31.4267C63.8652 31.6527 63.7875 31.8504 63.6286 32.0093C63.4697 32.1682 63.2755 32.2494 63.039 32.2494C62.8024 32.2494 62.6082 32.1682 62.4529 32.0093H62.4494Z"
        fill="#407BFF" />
    <path
        d="M100.751 119.74C101.849 118.384 103.974 117.481 106.308 117.046C106.124 117.714 106.262 118.328 106.657 118.48C107.099 118.649 107.688 118.176 107.974 117.424C108.056 117.212 108.101 117 108.119 116.803C110.471 116.612 112.826 116.884 114.393 117.636C114.393 117.636 112.857 119.02 111.117 122.664C111.064 122.664 111.011 122.66 110.954 122.664C109.828 122.674 108.921 123.218 108.928 123.878C108.931 124.362 109.425 124.768 110.128 124.952C110.036 125.185 109.944 125.421 109.853 125.668C108.193 130.156 103.769 126.911 103.808 123.839C103.808 123.839 98.2825 122.777 100.747 119.74H100.751Z"
        fill="#407BFF" />
    <path
        d="M95.2991 113.946C93.9433 112.485 91.4542 111.613 88.7603 111.291C89.018 112.04 88.9086 112.749 88.4708 112.954C87.98 113.18 87.2738 112.686 86.889 111.849C86.7796 111.613 86.7125 111.376 86.6772 111.154C83.9797 111.111 81.3176 111.595 79.584 112.573C79.584 112.573 81.4411 114.038 83.6973 118.06C83.7573 118.053 83.8173 118.049 83.8808 118.045C85.166 117.975 86.2429 118.526 86.2853 119.278C86.317 119.828 85.7839 120.33 84.9965 120.591C85.1166 120.849 85.2402 121.114 85.3637 121.389C87.5916 126.381 92.3934 122.353 92.118 118.854C92.118 118.854 98.3355 117.23 95.3027 113.953L95.2991 113.946Z"
        fill="#407BFF" />
    <path
        d="M92.0082 112.848C92.5837 110.041 94.9951 107.111 98.0669 104.707C98.3069 105.819 98.9742 106.61 99.6627 106.532C100.432 106.444 100.934 105.307 100.786 103.993C100.743 103.623 100.651 103.284 100.524 102.98C103.808 100.918 107.441 99.5305 110.301 99.4387C110.301 99.4387 109.111 102.623 109.333 109.251C109.256 109.289 109.174 109.325 109.097 109.367C107.462 110.239 106.551 111.718 107.063 112.675C107.434 113.374 108.465 113.597 109.626 113.328C109.669 113.738 109.718 114.155 109.771 114.582C110.756 122.381 101.848 121.004 99.578 116.496C99.578 116.496 90.723 119.137 92.0117 112.841L92.0082 112.848Z"
        fill="#407BFF" />
    <path opacity="0.2"
        d="M92.0082 112.848C92.5837 110.041 94.9951 107.111 98.0669 104.707C98.3069 105.819 98.9742 106.61 99.6627 106.532C100.432 106.444 100.934 105.307 100.786 103.993C100.743 103.623 100.651 103.284 100.524 102.98C103.808 100.918 107.441 99.5305 110.301 99.4387C110.301 99.4387 109.111 102.623 109.333 109.251C109.256 109.289 109.174 109.325 109.097 109.367C107.462 110.239 106.551 111.718 107.063 112.675C107.434 113.374 108.465 113.597 109.626 113.328C109.669 113.738 109.718 114.155 109.771 114.582C110.756 122.381 101.848 121.004 99.578 116.496C99.578 116.496 90.723 119.137 92.0117 112.841L92.0082 112.848Z"
        fill="white" />
    <path
        d="M105.736 104.728C105.817 104.636 105.859 104.59 105.859 104.59C105.817 104.636 105.778 104.682 105.736 104.728Z"
        fill="#263238" />
    <path
        d="M98.339 130.657C96.8526 122.388 99.0734 113.519 104.288 106.927L104.426 107.037C99.2429 113.586 97.0327 122.406 98.512 130.625L98.339 130.657Z"
        fill="#263238" />
    <path
        d="M98.0213 127.773C98.0213 127.773 98.0036 127.773 97.993 127.769C97.9648 127.762 97.9436 127.741 97.9365 127.713C96.8808 124.62 93.3184 117.954 87.3797 114.871C87.3374 114.85 87.3197 114.797 87.3409 114.751C87.3621 114.709 87.4186 114.691 87.4609 114.713C93.3784 117.784 96.955 124.376 98.0672 127.54C98.964 126.89 105.87 121.897 109.288 119.708C109.327 119.684 109.383 119.694 109.411 119.737C109.436 119.779 109.425 119.832 109.383 119.86C105.746 122.191 98.1484 127.698 98.0742 127.755C98.0601 127.766 98.0424 127.773 98.0213 127.773Z"
        fill="#263238" />
    <path d="M107.575 133.277H88.8304L88.8375 129.845H107.557L107.575 133.277Z" fill="#263238" />
    <path d="M90.1897 132.158L93.1167 144.342H103.903L106.516 132.158H90.1897Z" fill="#263238" />
    <path opacity="0.3" d="M90.4581 133.277H106.276L105.986 134.626H90.7406L90.4581 133.277Z"
        fill="black" />
    <path
        d="M91.5424 129.227H89.8759C89.8264 129.227 89.7876 129.188 89.7876 129.139C89.7876 129.09 89.8264 129.051 89.8759 129.051H91.5424C91.5918 129.051 91.6306 129.09 91.6306 129.139C91.6306 129.188 91.5918 129.227 91.5424 129.227Z"
        fill="#407BFF" />
    <path
        d="M96.8737 129.227H92.312C92.2626 129.227 92.2238 129.188 92.2238 129.139C92.2238 129.09 92.2626 129.051 92.312 129.051H96.8737C96.9231 129.051 96.962 129.09 96.962 129.139C96.962 129.188 96.9231 129.227 96.8737 129.227Z"
        fill="#407BFF" />
    <g opacity="0.3">
        <path
            d="M99.5044 31.2961C98.8512 32.0729 98.0674 32.659 97.1494 33.058C96.2315 33.4534 95.2181 33.6546 94.106 33.6546C92.9938 33.6546 91.9981 33.5169 91.1155 33.2451C90.2328 32.9697 89.3501 32.5142 88.4674 31.8681C87.5848 31.222 86.5785 30.3111 85.4487 29.1283C83.8952 28.8105 82.5288 28.2068 81.346 27.3135C80.1632 26.4238 79.2417 25.3222 78.5779 24.0158C77.9177 22.7095 77.5858 21.2725 77.5858 19.7013C77.5858 17.8477 78.0342 16.1847 78.9345 14.7124C79.8349 13.2401 81.0777 12.0856 82.6665 11.2559C84.2553 10.4262 86.0454 10.0131 88.0402 10.0131C90.0351 10.0131 91.8251 10.4297 93.414 11.2559C95.0028 12.0856 96.2456 13.2366 97.1459 14.7124C98.0462 16.1847 98.4946 17.8512 98.4946 19.7013C98.4946 21.7315 97.9544 23.5251 96.8811 25.0892C95.8042 26.6497 94.3496 27.8043 92.5136 28.5457C92.7784 28.8282 93.0468 29.0259 93.3222 29.1424C93.594 29.2554 93.9012 29.3154 94.2366 29.3154C95.1546 29.3154 96.009 28.92 96.8034 28.1256L99.5044 31.3032V31.2961ZM85.9359 15.6375C85.311 16.0188 84.8096 16.5555 84.4389 17.251C84.0682 17.9501 83.8846 18.7657 83.8846 19.7013C83.8846 20.6369 84.0682 21.4525 84.4389 22.1516C84.8096 22.8507 85.3075 23.3874 85.9359 23.7651C86.5609 24.1465 87.2635 24.3336 88.0402 24.3336C88.817 24.3336 89.5196 24.1429 90.1445 23.7651C90.7695 23.3874 91.2708 22.8472 91.6415 22.1516C92.0123 21.4561 92.1959 20.6369 92.1959 19.7013C92.1959 18.7657 92.0123 17.9501 91.6415 17.251C91.2708 16.5555 90.773 16.0153 90.1445 15.6375C89.5196 15.2597 88.817 15.069 88.0402 15.069C87.2635 15.069 86.5609 15.2597 85.9359 15.6375Z"
            fill="black" />
        <path
            d="M103 27.0875C101.411 25.5517 100.616 23.3979 100.616 20.6263V10.4332H106.866V20.4392C106.866 21.7985 107.109 22.7871 107.593 23.405C108.077 24.0229 108.779 24.33 109.697 24.33C110.615 24.33 111.318 24.0229 111.802 23.405C112.285 22.7871 112.529 21.7985 112.529 20.4392V10.4332H118.672V20.6263C118.672 23.3979 117.878 25.5517 116.289 27.0875C114.7 28.6234 112.487 29.3895 109.644 29.3895C106.802 29.3895 104.588 28.6234 103 27.0875Z"
            fill="black" />
        <path d="M121.529 10.4332H127.778V28.9659H121.529V10.4332Z" fill="black" />
        <path
            d="M147.158 24.1218V28.9659H130.137V25.128L138.607 15.2809H130.402V10.4368H146.738V14.2746L138.268 24.1218H147.162H147.158Z"
            fill="black" />
    </g>
    <g opacity="0.3">
        <path
            d="M103.985 37.5384C103.561 37.4396 103.211 37.3019 102.94 37.1324L103.526 35.8049C103.783 35.9532 104.069 36.0732 104.391 36.165C104.708 36.2568 105.016 36.2992 105.309 36.2992C105.559 36.2992 105.739 36.2744 105.849 36.225C105.958 36.1756 106.011 36.1014 106.011 36.0061C106.011 35.8931 105.941 35.8084 105.799 35.7519C105.658 35.6954 105.425 35.6319 105.1 35.5683C104.684 35.48 104.338 35.3882 104.059 35.2858C103.78 35.187 103.54 35.021 103.335 34.7916C103.13 34.5621 103.028 34.2514 103.028 33.863C103.028 33.524 103.123 33.2133 103.314 32.9379C103.504 32.659 103.787 32.4401 104.168 32.2812C104.546 32.1223 105.005 32.0411 105.545 32.0411C105.916 32.0411 106.28 32.08 106.636 32.1612C106.993 32.2424 107.311 32.3589 107.582 32.5107L107.035 33.8312C106.506 33.5629 106.004 33.4287 105.531 33.4287C105.058 33.4287 104.829 33.5417 104.829 33.7677C104.829 33.8771 104.899 33.9583 105.037 34.0113C105.175 34.0642 105.404 34.1242 105.725 34.1843C106.138 34.2619 106.484 34.3502 106.767 34.4491C107.049 34.5479 107.296 34.7139 107.505 34.9398C107.713 35.1658 107.819 35.4765 107.819 35.8649C107.819 36.2038 107.724 36.511 107.533 36.7864C107.342 37.0618 107.06 37.2807 106.679 37.4431C106.301 37.6055 105.842 37.6867 105.302 37.6867C104.853 37.6867 104.419 37.6373 103.992 37.5349L103.985 37.5384Z"
            fill="black" />
        <path
            d="M113.673 32.1647V37.5667H111.851V35.5753H110.167V37.5667H108.345V32.1647H110.167V34.0783H111.851V32.1647H113.673Z"
            fill="black" />
        <path
            d="M115.82 37.3266C115.357 37.083 114.994 36.7476 114.732 36.3203C114.471 35.8896 114.34 35.4059 114.34 34.8657C114.34 34.3255 114.471 33.8418 114.732 33.411C114.994 32.9803 115.357 32.6449 115.82 32.4048C116.282 32.1647 116.805 32.0411 117.387 32.0411C117.97 32.0411 118.492 32.1612 118.955 32.4048C119.417 32.6484 119.781 32.9838 120.042 33.411C120.304 33.8418 120.438 34.3255 120.438 34.8657C120.438 35.4059 120.307 35.8896 120.042 36.3203C119.781 36.7511 119.417 37.0865 118.955 37.3266C118.492 37.5667 117.97 37.6903 117.387 37.6903C116.805 37.6903 116.282 37.5702 115.82 37.3266ZM118.002 36.0485C118.185 35.939 118.33 35.7801 118.439 35.5789C118.549 35.3776 118.602 35.1376 118.602 34.8657C118.602 34.5938 118.549 34.3537 118.439 34.1525C118.33 33.9512 118.185 33.7924 118.002 33.6829C117.818 33.5735 117.613 33.517 117.387 33.517C117.161 33.517 116.957 33.5735 116.773 33.6829C116.589 33.7924 116.445 33.9512 116.335 34.1525C116.226 34.3537 116.173 34.5938 116.173 34.8657C116.173 35.1376 116.226 35.3776 116.335 35.5789C116.445 35.7801 116.589 35.939 116.773 36.0485C116.957 36.1579 117.161 36.2144 117.387 36.2144C117.613 36.2144 117.818 36.1579 118.002 36.0485Z"
            fill="black" />
        <path
            d="M129.699 32.1647L127.969 37.5667H126.016L125.144 34.6785L124.226 37.5667H122.274L120.544 32.1647H122.419L123.361 35.2364L124.357 32.1647H126.031L126.973 35.2752L127.969 32.1647H129.699Z"
            fill="black" />
    </g>
    <path
        d="M99.5044 29.619C98.8512 30.3958 98.0674 30.9819 97.1494 31.3809C96.2315 31.7763 95.2181 31.9776 94.106 31.9776C92.9938 31.9776 91.9981 31.8399 91.1155 31.568C90.2328 31.2926 89.3501 30.8371 88.4674 30.191C87.5848 29.5449 86.5785 28.634 85.4487 27.4512C83.8952 27.1334 82.5288 26.5297 81.346 25.6364C80.1632 24.7467 79.2417 23.6451 78.5779 22.3387C77.9177 21.0324 77.5858 19.5954 77.5858 18.0242C77.5858 16.1706 78.0342 14.5076 78.9345 13.0353C79.8349 11.563 81.0777 10.4085 82.6665 9.57877C84.2553 8.74906 86.0454 8.33597 88.0402 8.33597C90.0351 8.33597 91.8251 8.75259 93.414 9.57877C95.0028 10.4085 96.2456 11.5595 97.1459 13.0353C98.0462 14.5076 98.4946 16.1741 98.4946 18.0242C98.4946 20.0544 97.9544 21.8515 96.8811 23.4121C95.8042 24.9726 94.3496 26.1272 92.5136 26.8686C92.7784 27.1511 93.0468 27.3488 93.3222 27.4653C93.594 27.5783 93.9012 27.6383 94.2366 27.6383C95.1546 27.6383 96.009 27.2429 96.8034 26.4485L99.5044 29.6261V29.619ZM85.9359 13.9604C85.311 14.3417 84.8096 14.8784 84.4389 15.5739C84.0682 16.273 83.8846 17.0886 83.8846 18.0242C83.8846 18.9599 84.0682 19.7754 84.4389 20.4745C84.8096 21.1736 85.3075 21.7103 85.9359 22.0881C86.5609 22.4694 87.2635 22.6565 88.0402 22.6565C88.817 22.6565 89.5196 22.4658 90.1445 22.0881C90.7695 21.7103 91.2708 21.1701 91.6415 20.4745C92.0123 19.779 92.1959 18.9599 92.1959 18.0242C92.1959 17.0886 92.0123 16.273 91.6415 15.5739C91.2708 14.8784 90.773 14.3382 90.1445 13.9604C89.5196 13.5826 88.817 13.3919 88.0402 13.3919C87.2635 13.3919 86.5609 13.5826 85.9359 13.9604Z"
        fill="#407BFF" />
    <path
        d="M103 25.4104C101.411 23.8746 100.616 21.7208 100.616 18.9492V8.7561H106.866V18.7621C106.866 20.1214 107.109 21.11 107.593 21.7279C108.077 22.3458 108.779 22.653 109.697 22.653C110.615 22.653 111.318 22.3458 111.802 21.7279C112.285 21.11 112.529 20.1214 112.529 18.7621V8.7561H118.672V18.9492C118.672 21.7208 117.878 23.8746 116.289 25.4104C114.7 26.9463 112.487 27.7124 109.644 27.7124C106.802 27.7124 104.588 26.9463 103 25.4104Z"
        fill="#407BFF" />
    <path d="M121.529 8.75966H127.778V27.2923H121.529V8.75966Z" fill="#407BFF" />
    <path
        d="M147.158 22.4447V27.2888H130.137V23.4509L138.607 13.6038H130.402V8.75966H146.738V12.5975L138.268 22.4447H147.162H147.158Z"
        fill="#407BFF" />
    <path
        d="M103.985 35.8648C103.561 35.766 103.211 35.6283 102.94 35.4588L103.526 34.1313C103.783 34.2796 104.069 34.3996 104.391 34.4914C104.708 34.5832 105.016 34.6256 105.309 34.6256C105.559 34.6256 105.739 34.6008 105.849 34.5514C105.958 34.502 106.011 34.4278 106.011 34.3325C106.011 34.2195 105.941 34.1348 105.799 34.0783C105.658 34.0218 105.425 33.9583 105.1 33.8947C104.684 33.8064 104.338 33.7146 104.059 33.6123C103.78 33.5134 103.54 33.3474 103.335 33.118C103.13 32.8885 103.028 32.5778 103.028 32.1894C103.028 31.8504 103.123 31.5397 103.314 31.2643C103.504 30.9854 103.787 30.7665 104.168 30.6076C104.55 30.4487 105.005 30.3675 105.545 30.3675C105.916 30.3675 106.28 30.4064 106.636 30.4876C106.993 30.5688 107.311 30.6853 107.582 30.8371L107.035 32.1576C106.506 31.8893 106.004 31.7551 105.531 31.7551C105.058 31.7551 104.829 31.8681 104.829 32.0941C104.829 32.2035 104.899 32.2847 105.037 32.3377C105.175 32.3906 105.404 32.4507 105.725 32.5107C106.138 32.5883 106.484 32.6766 106.767 32.7755C107.049 32.8743 107.296 33.0403 107.505 33.2662C107.713 33.4922 107.819 33.8029 107.819 34.1913C107.819 34.5302 107.724 34.8374 107.533 35.1128C107.342 35.3882 107.06 35.6071 106.679 35.7695C106.301 35.9319 105.842 36.0131 105.302 36.0131C104.853 36.0131 104.419 35.9637 103.992 35.8613L103.985 35.8648Z"
        fill="#407BFF" />
    <path
        d="M113.673 30.4876V35.8896H111.851V33.8982H110.167V35.8896H108.345V30.4876H110.167V32.4012H111.851V30.4876H113.673Z"
        fill="#407BFF" />
    <path
        d="M115.82 35.653C115.357 35.4129 114.994 35.0739 114.732 34.6467C114.471 34.216 114.34 33.7323 114.34 33.1921C114.34 32.6519 114.471 32.1682 114.732 31.7374C114.994 31.3067 115.357 30.9713 115.82 30.7312C116.282 30.4911 116.805 30.3675 117.387 30.3675C117.97 30.3675 118.492 30.4876 118.955 30.7312C119.417 30.9748 119.781 31.3102 120.042 31.7374C120.304 32.1682 120.438 32.6519 120.438 33.1921C120.438 33.7323 120.307 34.216 120.042 34.6467C119.781 35.0775 119.417 35.4129 118.955 35.653C118.492 35.8931 117.97 36.0166 117.387 36.0166C116.805 36.0166 116.282 35.8966 115.82 35.653ZM118.002 34.3749C118.185 34.2654 118.33 34.1065 118.439 33.9053C118.549 33.704 118.602 33.4639 118.602 33.1921C118.602 32.9202 118.549 32.6801 118.439 32.4789C118.33 32.2776 118.185 32.1187 118.002 32.0093C117.818 31.8998 117.613 31.8434 117.387 31.8434C117.161 31.8434 116.957 31.8998 116.773 32.0093C116.589 32.1187 116.445 32.2776 116.335 32.4789C116.226 32.6801 116.173 32.9202 116.173 33.1921C116.173 33.4639 116.226 33.704 116.335 33.9053C116.445 34.1065 116.589 34.2654 116.773 34.3749C116.957 34.4843 117.161 34.5408 117.387 34.5408C117.613 34.5408 117.818 34.4843 118.002 34.3749Z"
        fill="#407BFF" />
    <path
        d="M129.699 30.4876L127.969 35.8896H126.016L125.144 33.0014L124.226 35.8896H122.274L120.544 30.4876H122.419L123.361 33.5593L124.357 30.4876H126.031L126.973 33.5981L127.969 30.4876H129.699Z"
        fill="#407BFF" />
    <g opacity="0.5">
        <path
            d="M103.985 35.8648C103.561 35.766 103.211 35.6283 102.94 35.4588L103.526 34.1313C103.783 34.2796 104.069 34.3996 104.391 34.4914C104.708 34.5832 105.016 34.6256 105.309 34.6256C105.559 34.6256 105.739 34.6008 105.849 34.5514C105.958 34.502 106.011 34.4278 106.011 34.3325C106.011 34.2195 105.941 34.1348 105.799 34.0783C105.658 34.0218 105.425 33.9583 105.1 33.8947C104.684 33.8064 104.338 33.7146 104.059 33.6123C103.78 33.5134 103.54 33.3474 103.335 33.118C103.13 32.8885 103.028 32.5778 103.028 32.1894C103.028 31.8504 103.123 31.5397 103.314 31.2643C103.504 30.9854 103.787 30.7665 104.168 30.6076C104.55 30.4487 105.005 30.3675 105.545 30.3675C105.916 30.3675 106.28 30.4064 106.636 30.4876C106.993 30.5688 107.311 30.6853 107.582 30.8371L107.035 32.1576C106.506 31.8893 106.004 31.7551 105.531 31.7551C105.058 31.7551 104.829 31.8681 104.829 32.0941C104.829 32.2035 104.899 32.2847 105.037 32.3377C105.175 32.3906 105.404 32.4507 105.725 32.5107C106.138 32.5883 106.484 32.6766 106.767 32.7755C107.049 32.8743 107.296 33.0403 107.505 33.2662C107.713 33.4922 107.819 33.8029 107.819 34.1913C107.819 34.5302 107.724 34.8374 107.533 35.1128C107.342 35.3882 107.06 35.6071 106.679 35.7695C106.301 35.9319 105.842 36.0131 105.302 36.0131C104.853 36.0131 104.419 35.9637 103.992 35.8613L103.985 35.8648Z"
            fill="white" />
        <path
            d="M113.673 30.4876V35.8896H111.851V33.8982H110.167V35.8896H108.345V30.4876H110.167V32.4012H111.851V30.4876H113.673Z"
            fill="white" />
        <path
            d="M115.82 35.653C115.357 35.4129 114.994 35.0739 114.732 34.6467C114.471 34.216 114.34 33.7323 114.34 33.1921C114.34 32.6519 114.471 32.1682 114.732 31.7374C114.994 31.3067 115.357 30.9713 115.82 30.7312C116.282 30.4911 116.805 30.3675 117.387 30.3675C117.97 30.3675 118.492 30.4876 118.955 30.7312C119.417 30.9748 119.781 31.3102 120.042 31.7374C120.304 32.1682 120.438 32.6519 120.438 33.1921C120.438 33.7323 120.307 34.216 120.042 34.6467C119.781 35.0775 119.417 35.4129 118.955 35.653C118.492 35.8931 117.97 36.0166 117.387 36.0166C116.805 36.0166 116.282 35.8966 115.82 35.653ZM118.002 34.3749C118.185 34.2654 118.33 34.1065 118.439 33.9053C118.549 33.704 118.602 33.4639 118.602 33.1921C118.602 32.9202 118.549 32.6801 118.439 32.4789C118.33 32.2776 118.185 32.1187 118.002 32.0093C117.818 31.8998 117.613 31.8434 117.387 31.8434C117.161 31.8434 116.957 31.8998 116.773 32.0093C116.589 32.1187 116.445 32.2776 116.335 32.4789C116.226 32.6801 116.173 32.9202 116.173 33.1921C116.173 33.4639 116.226 33.704 116.335 33.9053C116.445 34.1065 116.589 34.2654 116.773 34.3749C116.957 34.4843 117.161 34.5408 117.387 34.5408C117.613 34.5408 117.818 34.4843 118.002 34.3749Z"
            fill="white" />
        <path
            d="M129.699 30.4876L127.969 35.8896H126.016L125.144 33.0014L124.226 35.8896H122.274L120.544 30.4876H122.419L123.361 33.5593L124.357 30.4876H126.031L126.973 33.5981L127.969 30.4876H129.699Z"
            fill="white" />
    </g>
    <path
        d="M77.3277 3.28355C78.2344 3.28355 78.9695 2.54851 78.9695 1.64178C78.9695 0.735049 78.2344 0 77.3277 0C76.421 0 75.6859 0.735049 75.6859 1.64178C75.6859 2.54851 76.421 3.28355 77.3277 3.28355Z"
        fill="#407BFF" />
    <path opacity="0.4"
        d="M77.3277 3.28355C78.2344 3.28355 78.9695 2.54851 78.9695 1.64178C78.9695 0.735049 78.2344 0 77.3277 0C76.421 0 75.6859 0.735049 75.6859 1.64178C75.6859 2.54851 76.421 3.28355 77.3277 3.28355Z"
        fill="white" />
    <path
        d="M84.5127 3.28355C85.4195 3.28355 86.1545 2.54851 86.1545 1.64178C86.1545 0.735049 85.4195 0 84.5127 0C83.606 0 82.871 0.735049 82.871 1.64178C82.871 2.54851 83.606 3.28355 84.5127 3.28355Z"
        fill="#407BFF" />
    <path opacity="0.7"
        d="M84.5127 3.28355C85.4195 3.28355 86.1545 2.54851 86.1545 1.64178C86.1545 0.735049 85.4195 0 84.5127 0C83.606 0 82.871 0.735049 82.871 1.64178C82.871 2.54851 83.606 3.28355 84.5127 3.28355Z"
        fill="white" />
    <path
        d="M91.6979 3.28355C92.6047 3.28355 93.3397 2.54851 93.3397 1.64178C93.3397 0.735049 92.6047 0 91.6979 0C90.7912 0 90.0562 0.735049 90.0562 1.64178C90.0562 2.54851 90.7912 3.28355 91.6979 3.28355Z"
        fill="#407BFF" />
    <path opacity="0.4"
        d="M91.6979 3.28355C92.6047 3.28355 93.3397 2.54851 93.3397 1.64178C93.3397 0.735049 92.6047 0 91.6979 0C90.7912 0 90.0562 0.735049 90.0562 1.64178C90.0562 2.54851 90.7912 3.28355 91.6979 3.28355Z"
        fill="white" />
    <path
        d="M98.8793 3.28355C99.7861 3.28355 100.521 2.54851 100.521 1.64178C100.521 0.735049 99.7861 0 98.8793 0C97.9726 0 97.2375 0.735049 97.2375 1.64178C97.2375 2.54851 97.9726 3.28355 98.8793 3.28355Z"
        fill="#407BFF" />
    <path opacity="0.7"
        d="M98.8793 3.28355C99.7861 3.28355 100.521 2.54851 100.521 1.64178C100.521 0.735049 99.7861 0 98.8793 0C97.9726 0 97.2375 0.735049 97.2375 1.64178C97.2375 2.54851 97.9726 3.28355 98.8793 3.28355Z"
        fill="white" />
    <path
        d="M106.064 3.28355C106.971 3.28355 107.706 2.54851 107.706 1.64178C107.706 0.735049 106.971 0 106.064 0C105.158 0 104.423 0.735049 104.423 1.64178C104.423 2.54851 105.158 3.28355 106.064 3.28355Z"
        fill="#407BFF" />
    <path opacity="0.4"
        d="M106.064 3.28355C106.971 3.28355 107.706 2.54851 107.706 1.64178C107.706 0.735049 106.971 0 106.064 0C105.158 0 104.423 0.735049 104.423 1.64178C104.423 2.54851 105.158 3.28355 106.064 3.28355Z"
        fill="white" />
    <path
        d="M113.249 3.28355C114.156 3.28355 114.891 2.54851 114.891 1.64178C114.891 0.735049 114.156 0 113.249 0C112.343 0 111.608 0.735049 111.608 1.64178C111.608 2.54851 112.343 3.28355 113.249 3.28355Z"
        fill="#407BFF" />
    <path opacity="0.7"
        d="M113.249 3.28355C114.156 3.28355 114.891 2.54851 114.891 1.64178C114.891 0.735049 114.156 0 113.249 0C112.343 0 111.608 0.735049 111.608 1.64178C111.608 2.54851 112.343 3.28355 113.249 3.28355Z"
        fill="white" />
    <path
        d="M120.434 3.28355C121.341 3.28355 122.076 2.54851 122.076 1.64178C122.076 0.735049 121.341 0 120.434 0C119.528 0 118.792 0.735049 118.792 1.64178C118.792 2.54851 119.528 3.28355 120.434 3.28355Z"
        fill="#407BFF" />
    <path opacity="0.4"
        d="M120.434 3.28355C121.341 3.28355 122.076 2.54851 122.076 1.64178C122.076 0.735049 121.341 0 120.434 0C119.528 0 118.792 0.735049 118.792 1.64178C118.792 2.54851 119.528 3.28355 120.434 3.28355Z"
        fill="white" />
    <path
        d="M127.619 3.28355C128.526 3.28355 129.261 2.54851 129.261 1.64178C129.261 0.735049 128.526 0 127.619 0C126.712 0 125.977 0.735049 125.977 1.64178C125.977 2.54851 126.712 3.28355 127.619 3.28355Z"
        fill="#407BFF" />
    <path opacity="0.7"
        d="M127.619 3.28355C128.526 3.28355 129.261 2.54851 129.261 1.64178C129.261 0.735049 128.526 0 127.619 0C126.712 0 125.977 0.735049 125.977 1.64178C125.977 2.54851 126.712 3.28355 127.619 3.28355Z"
        fill="white" />
    <path
        d="M134.8 3.28355C135.707 3.28355 136.442 2.54851 136.442 1.64178C136.442 0.735049 135.707 0 134.8 0C133.894 0 133.159 0.735049 133.159 1.64178C133.159 2.54851 133.894 3.28355 134.8 3.28355Z"
        fill="#407BFF" />
    <path opacity="0.4"
        d="M134.8 3.28355C135.707 3.28355 136.442 2.54851 136.442 1.64178C136.442 0.735049 135.707 0 134.8 0C133.894 0 133.159 0.735049 133.159 1.64178C133.159 2.54851 133.894 3.28355 134.8 3.28355Z"
        fill="white" />
    <path
        d="M141.985 3.28355C142.892 3.28355 143.627 2.54851 143.627 1.64178C143.627 0.735049 142.892 0 141.985 0C141.079 0 140.344 0.735049 140.344 1.64178C140.344 2.54851 141.079 3.28355 141.985 3.28355Z"
        fill="#407BFF" />
    <path opacity="0.7"
        d="M141.985 3.28355C142.892 3.28355 143.627 2.54851 143.627 1.64178C143.627 0.735049 142.892 0 141.985 0C141.079 0 140.344 0.735049 140.344 1.64178C140.344 2.54851 141.079 3.28355 141.985 3.28355Z"
        fill="white" />
    <path
        d="M149.171 3.28355C150.078 3.28355 150.813 2.54851 150.813 1.64178C150.813 0.735049 150.078 0 149.171 0C148.264 0 147.529 0.735049 147.529 1.64178C147.529 2.54851 148.264 3.28355 149.171 3.28355Z"
        fill="#407BFF" />
    <path opacity="0.4"
        d="M149.171 3.28355C150.078 3.28355 150.813 2.54851 150.813 1.64178C150.813 0.735049 150.078 0 149.171 0C148.264 0 147.529 0.735049 147.529 1.64178C147.529 2.54851 148.264 3.28355 149.171 3.28355Z"
        fill="white" />
    <path
        d="M77.3278 44.2185C78.2345 44.2185 78.9696 43.4835 78.9696 42.5767C78.9696 41.67 78.2345 40.935 77.3278 40.935C76.4211 40.935 75.686 41.67 75.686 42.5767C75.686 43.4835 76.4211 44.2185 77.3278 44.2185Z"
        fill="#407BFF" />
    <path opacity="0.4"
        d="M77.3278 44.2185C78.2345 44.2185 78.9696 43.4835 78.9696 42.5767C78.9696 41.67 78.2345 40.935 77.3278 40.935C76.4211 40.935 75.686 41.67 75.686 42.5767C75.686 43.4835 76.4211 44.2185 77.3278 44.2185Z"
        fill="white" />
    <path
        d="M84.5127 44.2185C85.4195 44.2185 86.1545 43.4835 86.1545 42.5767C86.1545 41.67 85.4195 40.935 84.5127 40.935C83.606 40.935 82.871 41.67 82.871 42.5767C82.871 43.4835 83.606 44.2185 84.5127 44.2185Z"
        fill="#407BFF" />
    <path opacity="0.7"
        d="M84.5127 44.2185C85.4195 44.2185 86.1545 43.4835 86.1545 42.5767C86.1545 41.67 85.4195 40.935 84.5127 40.935C83.606 40.935 82.871 41.67 82.871 42.5767C82.871 43.4835 83.606 44.2185 84.5127 44.2185Z"
        fill="white" />
    <path
        d="M91.6979 44.2185C92.6047 44.2185 93.3397 43.4835 93.3397 42.5767C93.3397 41.67 92.6047 40.935 91.6979 40.935C90.7912 40.935 90.0562 41.67 90.0562 42.5767C90.0562 43.4835 90.7912 44.2185 91.6979 44.2185Z"
        fill="#407BFF" />
    <path opacity="0.4"
        d="M91.6979 44.2185C92.6047 44.2185 93.3397 43.4835 93.3397 42.5767C93.3397 41.67 92.6047 40.935 91.6979 40.935C90.7912 40.935 90.0562 41.67 90.0562 42.5767C90.0562 43.4835 90.7912 44.2185 91.6979 44.2185Z"
        fill="white" />
    <path
        d="M98.8793 44.2185C99.7861 44.2185 100.521 43.4835 100.521 42.5767C100.521 41.67 99.7861 40.935 98.8793 40.935C97.9726 40.935 97.2375 41.67 97.2375 42.5767C97.2375 43.4835 97.9726 44.2185 98.8793 44.2185Z"
        fill="#407BFF" />
    <path opacity="0.7"
        d="M98.8793 44.2185C99.7861 44.2185 100.521 43.4835 100.521 42.5767C100.521 41.67 99.7861 40.935 98.8793 40.935C97.9726 40.935 97.2375 41.67 97.2375 42.5767C97.2375 43.4835 97.9726 44.2185 98.8793 44.2185Z"
        fill="white" />
    <path
        d="M106.064 44.2185C106.971 44.2185 107.706 43.4835 107.706 42.5767C107.706 41.67 106.971 40.935 106.064 40.935C105.158 40.935 104.423 41.67 104.423 42.5767C104.423 43.4835 105.158 44.2185 106.064 44.2185Z"
        fill="#407BFF" />
    <path opacity="0.4"
        d="M106.064 44.2185C106.971 44.2185 107.706 43.4835 107.706 42.5767C107.706 41.67 106.971 40.935 106.064 40.935C105.158 40.935 104.423 41.67 104.423 42.5767C104.423 43.4835 105.158 44.2185 106.064 44.2185Z"
        fill="white" />
    <path
        d="M113.249 44.2185C114.156 44.2185 114.891 43.4835 114.891 42.5767C114.891 41.67 114.156 40.935 113.249 40.935C112.343 40.935 111.608 41.67 111.608 42.5767C111.608 43.4835 112.343 44.2185 113.249 44.2185Z"
        fill="#407BFF" />
    <path opacity="0.7"
        d="M113.249 44.2185C114.156 44.2185 114.891 43.4835 114.891 42.5767C114.891 41.67 114.156 40.935 113.249 40.935C112.343 40.935 111.608 41.67 111.608 42.5767C111.608 43.4835 112.343 44.2185 113.249 44.2185Z"
        fill="white" />
    <path
        d="M120.434 44.2185C121.341 44.2185 122.076 43.4835 122.076 42.5767C122.076 41.67 121.341 40.935 120.434 40.935C119.528 40.935 118.792 41.67 118.792 42.5767C118.792 43.4835 119.528 44.2185 120.434 44.2185Z"
        fill="#407BFF" />
    <path opacity="0.4"
        d="M120.434 44.2185C121.341 44.2185 122.076 43.4835 122.076 42.5767C122.076 41.67 121.341 40.935 120.434 40.935C119.528 40.935 118.792 41.67 118.792 42.5767C118.792 43.4835 119.528 44.2185 120.434 44.2185Z"
        fill="white" />
    <path
        d="M127.619 44.2185C128.526 44.2185 129.261 43.4835 129.261 42.5767C129.261 41.67 128.526 40.935 127.619 40.935C126.712 40.935 125.977 41.67 125.977 42.5767C125.977 43.4835 126.712 44.2185 127.619 44.2185Z"
        fill="#407BFF" />
    <path opacity="0.7"
        d="M127.619 44.2185C128.526 44.2185 129.261 43.4835 129.261 42.5767C129.261 41.67 128.526 40.935 127.619 40.935C126.712 40.935 125.977 41.67 125.977 42.5767C125.977 43.4835 126.712 44.2185 127.619 44.2185Z"
        fill="white" />
    <path
        d="M134.8 44.2185C135.707 44.2185 136.442 43.4835 136.442 42.5767C136.442 41.67 135.707 40.935 134.8 40.935C133.894 40.935 133.159 41.67 133.159 42.5767C133.159 43.4835 133.894 44.2185 134.8 44.2185Z"
        fill="#407BFF" />
    <path opacity="0.4"
        d="M134.8 44.2185C135.707 44.2185 136.442 43.4835 136.442 42.5767C136.442 41.67 135.707 40.935 134.8 40.935C133.894 40.935 133.159 41.67 133.159 42.5767C133.159 43.4835 133.894 44.2185 134.8 44.2185Z"
        fill="white" />
    <path
        d="M141.985 44.2185C142.892 44.2185 143.627 43.4835 143.627 42.5767C143.627 41.67 142.892 40.935 141.985 40.935C141.079 40.935 140.344 41.67 140.344 42.5767C140.344 43.4835 141.079 44.2185 141.985 44.2185Z"
        fill="#407BFF" />
    <path opacity="0.7"
        d="M141.985 44.2185C142.892 44.2185 143.627 43.4835 143.627 42.5767C143.627 41.67 142.892 40.935 141.985 40.935C141.079 40.935 140.344 41.67 140.344 42.5767C140.344 43.4835 141.079 44.2185 141.985 44.2185Z"
        fill="white" />
    <path
        d="M149.171 44.2185C150.078 44.2185 150.813 43.4835 150.813 42.5767C150.813 41.67 150.078 40.935 149.171 40.935C148.264 40.935 147.529 41.67 147.529 42.5767C147.529 43.4835 148.264 44.2185 149.171 44.2185Z"
        fill="#407BFF" />
    <path opacity="0.4"
        d="M149.171 44.2185C150.078 44.2185 150.813 43.4835 150.813 42.5767C150.813 41.67 150.078 40.935 149.171 40.935C148.264 40.935 147.529 41.67 147.529 42.5767C147.529 43.4835 148.264 44.2185 149.171 44.2185Z"
        fill="white" />
    <path
        d="M222.8 44.5998C223.037 47.0042 223.316 49.5746 224.873 51.5306C226.225 53.2289 228.442 54.0374 230.575 53.6843C230.744 53.6561 230.67 53.4019 230.504 53.4301C228.372 53.7867 226.172 52.8934 224.905 51.1422C223.535 49.2533 223.288 46.8559 223.065 44.6033C223.047 44.4339 222.783 44.4339 222.8 44.6033V44.5998Z"
        fill="#263238" />
    <path
        d="M231.807 55.8663C231.652 55.0507 231.02 54.4964 230.37 54.2775C229.72 54.0586 229.035 54.1045 228.365 54.055C226.751 53.9385 225.099 53.2041 224.071 51.6506C223.03 50.0759 223.305 48.0846 223.196 46.0474C223.086 44.0314 223.015 42.2201 222.362 39.7204C221.96 38.1775 219.485 35.2823 216.876 36.3592L212.565 38.5058C210.711 41.175 210.277 42.8345 209.719 46.2946C209.165 49.7546 209.98 54.4858 211.463 57.4939C212.55 59.7006 214.164 61.4201 215.848 62.9418C217.13 64.0999 218.56 65.205 220.142 65.2262C221.088 65.2403 222.006 64.859 222.903 64.4847C224.322 63.8916 225.745 63.2984 227.164 62.7053C227.831 62.4263 228.527 62.1262 229.025 61.5048C229.523 60.8834 229.752 59.8348 229.35 59.1145C229.971 58.8462 230.61 58.5673 231.111 58.0377C231.613 57.5081 231.959 56.6642 231.807 55.8663Z"
        fill="#263238" />
    <path
        d="M221.024 52.678C221.024 52.678 219.728 53.3135 218.132 54.6905C217.8 54.9765 217.433 55.2237 217.045 55.432C216 55.9863 215.043 56.3076 214.785 55.8027C214.729 55.6932 214.683 55.5732 214.651 55.4461C214.432 54.6022 214.52 53.4124 215.205 52.8687C215.975 52.2543 216.346 51.7318 216.208 50.9021C216.134 50.4325 215.964 49.9452 215.767 49.4757L216.656 48.9425L219.827 45.7437C219.463 47.7033 219.357 51.5199 221.027 52.6815L221.024 52.678Z"
        fill="#B97964" />
    <path opacity="0.2"
        d="M216.233 51.0822C217.105 50.5632 218.062 49.6664 217.945 48.6425C217.896 48.2117 217.8 47.8022 217.698 47.5409L215.929 49.8853C216.074 50.2631 216.127 50.5137 216.233 51.0857V51.0822Z"
        fill="black" />
    <path
        d="M220.438 42.1354C220.141 45.3907 220.081 46.7712 218.401 48.4801C215.873 51.0469 211.985 50.1854 211.314 46.9583C210.711 44.0526 211.3 39.2155 214.499 37.8491C217.649 36.5004 220.734 38.8836 220.438 42.1389V42.1354Z"
        fill="#B97964" />
    <path
        d="M216.222 43.1946C216.204 43.5406 216.021 43.8231 215.805 43.8266C215.59 43.8301 215.431 43.5547 215.445 43.2123C215.463 42.8663 215.646 42.5838 215.862 42.5803C216.077 42.5767 216.236 42.8521 216.222 43.1946Z"
        fill="#263238" />
    <path
        d="M213.009 43.1875C212.992 43.523 212.808 43.7948 212.593 43.8019C212.381 43.8054 212.218 43.5406 212.236 43.2052C212.254 42.8698 212.437 42.5979 212.653 42.5944C212.865 42.5908 213.027 42.8556 213.009 43.1911V43.1875Z"
        fill="#263238" />
    <path
        d="M216.9 41.9976C216.858 42.0011 216.815 41.9906 216.784 41.9588C216.282 41.4927 215.717 41.6587 215.71 41.6587C215.625 41.6834 215.541 41.634 215.523 41.5492C215.505 41.4645 215.558 41.3727 215.643 41.348C215.671 41.3409 216.381 41.1326 217.002 41.7116C217.066 41.7681 217.066 41.8705 217.002 41.9376C216.974 41.9694 216.935 41.9906 216.896 41.9941L216.9 41.9976Z"
        fill="#263238" />
    <path
        d="M211.928 41.5528C211.897 41.5422 211.868 41.5175 211.854 41.4821C211.826 41.408 211.861 41.3162 211.935 41.2738C212.68 40.8572 213.231 41.175 213.256 41.1891C213.323 41.2279 213.337 41.3197 213.291 41.3974C213.245 41.4716 213.153 41.5033 213.09 41.4645C213.069 41.4504 212.638 41.2138 212.045 41.5457C212.006 41.5669 211.967 41.5704 211.932 41.5598L211.928 41.5528Z"
        fill="#263238" />
    <path
        d="M213.885 43.0286C213.885 43.0286 213.376 44.2467 212.801 45.0058C212.702 45.14 212.762 45.3342 212.917 45.3907C213.32 45.539 213.789 45.4048 213.789 45.4048L213.881 43.0286H213.885Z"
        fill="#AE3228" />
    <path d="M215.985 42.5943L215.237 42.4178C215.237 42.4178 215.646 42.9756 215.985 42.5943Z"
        fill="#263238" />
    <path d="M212.73 42.5979L211.982 42.4213C211.982 42.4213 212.391 42.9792 212.73 42.5979Z"
        fill="#263238" />
    <path
        d="M214.471 46.0579C214.69 46.4569 214.88 46.87 215.043 47.2972L215.279 47.2478C216.342 47.0218 216.759 46.5628 216.903 46.125C216.967 45.9097 216.978 45.6837 216.939 45.4648C216.921 45.3377 216.882 45.2141 216.829 45.0976C216.332 45.5601 215.361 45.8426 214.834 45.9767C214.612 46.0368 214.471 46.0579 214.471 46.0579Z"
        fill="black" />
    <path
        d="M214.831 45.9733L215.008 46.3334C216.01 46.118 216.688 45.832 216.939 45.4613C216.921 45.3342 216.882 45.2106 216.829 45.0941C216.332 45.5566 215.361 45.825 214.835 45.9733H214.831Z"
        fill="white" />
    <path
        d="M215.279 47.2443C216.342 47.0183 216.759 46.5593 216.904 46.1215C216.501 46.2168 216.116 46.3828 215.77 46.6087C215.544 46.7605 215.371 46.983 215.279 47.2407V47.2443Z"
        fill="#DE5753" />
    <path
        d="M211.085 42.9439C211.085 42.9439 212.558 38.8413 215.057 38.2269C215.17 38.1987 216.724 41.7753 218.238 42.4708C218.238 42.4708 218.581 44.96 219.079 45.133C219.577 45.306 220.833 42.5873 220.833 42.5873C220.833 42.5873 222.888 38.0998 220.004 36.8817C217.119 35.6636 214.118 35.7872 212.332 38.2269C210.545 40.6666 210.838 42.2696 211.082 42.9439H211.085Z"
        fill="#263238" />
    <path
        d="M221.331 44.7905C220.946 45.4578 220.321 45.8779 219.749 46.0227C218.888 46.238 218.443 44.854 218.736 43.989C219.001 43.2122 219.848 42.6968 220.685 42.8662C221.511 43.0322 221.769 44.0278 221.331 44.7905Z"
        fill="#B97964" />
    <path opacity="0.2"
        d="M219.601 44.7057H219.594C219.545 44.7057 219.509 44.6598 219.513 44.6104C219.534 44.2785 219.693 43.9607 219.944 43.7383C220.201 43.5123 220.646 43.41 220.862 43.4241C220.911 43.4241 220.946 43.47 220.943 43.5194C220.943 43.5688 220.9 43.6077 220.851 43.6006C220.667 43.59 220.279 43.6783 220.06 43.8689C219.845 44.0596 219.707 44.3315 219.689 44.6175C219.689 44.6634 219.647 44.6987 219.601 44.6987V44.7057Z"
        fill="black" />
    <path
        d="M207.657 28.9094L208.335 43.9466L212.395 52.325L210.39 59.3617C210.39 59.3617 205.588 50.1254 204.253 45.6696C202.919 41.2139 205.023 27.6877 205.023 27.6877L207.654 28.9094H207.657Z"
        fill="#B97964" />
    <path
        d="M207.495 29.0895C207.495 29.0895 208.565 28.8564 209.295 28.1962C210.033 27.5324 210.605 26.971 211.022 26.3673C211.438 25.7635 210.478 26.0107 209.994 26.2472C209.511 26.4838 208.96 26.7486 208.84 26.3532C208.72 25.9612 209.511 22.5259 209.285 21.9998C209.059 21.4737 208.755 21.9892 208.755 21.9892C208.755 21.9892 208.925 21.1489 208.61 20.9936C208.529 20.9512 208.271 20.99 208.134 21.3607C207.827 22.194 207.269 23.977 207.269 23.977C207.304 23.8746 207.834 21.6255 207.869 21.2795C207.915 20.8241 207.707 20.5875 207.442 20.5699C207.067 20.5452 206.312 23.3097 206.199 23.405C206.199 23.405 206.686 21.8268 206.347 21.4773C206.008 21.1277 205.648 22.1057 205.493 23.0272C205.352 23.8711 204.85 25.4917 204.79 26.3637C204.716 27.4406 204.907 28.1785 205.796 28.6587C206.686 29.1389 207.488 29.0859 207.488 29.0859L207.495 29.0895Z"
        fill="#B97964" />
    <path opacity="0.3"
        d="M208.208 24.1817C208.208 24.1817 208.19 24.1817 208.18 24.1782C208.134 24.1641 208.109 24.1147 208.123 24.0652C208.335 23.4156 208.519 22.7483 208.67 22.088C208.681 22.0421 208.73 22.0104 208.776 22.021C208.822 22.0315 208.854 22.0774 208.843 22.1269C208.692 22.7942 208.504 23.4615 208.293 24.1182C208.282 24.157 208.247 24.1782 208.208 24.1782V24.1817Z"
        fill="black" />
    <path opacity="0.3"
        d="M208.533 24.7537C208.533 24.7537 208.501 24.7502 208.487 24.7396C207.746 24.2912 206.863 24.0582 205.998 24.097C205.942 24.097 205.91 24.0617 205.906 24.0123C205.903 23.9628 205.942 23.924 205.991 23.9205C206.895 23.8887 207.809 24.1217 208.579 24.5878C208.621 24.6125 208.635 24.669 208.607 24.7078C208.59 24.736 208.561 24.7502 208.533 24.7502V24.7537Z"
        fill="black" />
    <path opacity="0.3"
        d="M206.806 27.776C206.806 27.776 206.792 27.776 206.785 27.776C206.739 27.7619 206.711 27.716 206.722 27.6666C206.82 27.2958 207.05 26.9675 207.364 26.7451C207.678 26.5226 208.06 26.4167 208.445 26.4449C208.494 26.4485 208.529 26.4908 208.526 26.5403C208.526 26.5897 208.48 26.625 208.43 26.6215C208.092 26.5968 207.742 26.6921 207.463 26.8898C207.184 27.0875 206.979 27.3841 206.891 27.7125C206.88 27.7513 206.845 27.7795 206.806 27.7795V27.776Z"
        fill="black" />
    <path
        d="M214.051 81.5557L220.974 110.998L228.746 136.843L231.729 135.939C231.729 135.939 231.154 124.74 229.141 116.16C228.678 114.183 227.538 112.057 227.302 110.458C227.086 109.056 227.372 108.057 227.213 104.788C227.023 100.833 226.497 95.6115 225.112 91.8407C225.112 91.8407 227.831 86.5446 225.151 81.2274L214.051 81.5593V81.5557Z"
        fill="#B97964" />
    <path
        d="M207.244 110.197L207.508 138.351L207.607 141.292L209.761 141.168L210.598 136.038C210.598 136.038 213.069 126.283 213.595 117.484C213.715 115.458 213.232 113.096 213.458 111.496C213.652 110.091 214.206 109.212 214.993 106.045C215.94 102.196 216.918 97.0485 216.678 93.0341C216.678 93.0341 220.794 88.7337 219.739 82.8727L209.005 80.0199L207.244 110.197Z"
        fill="#B97964" />
    <path
        d="M203.345 144.01C203.773 143.756 204.26 143.562 204.779 143.442C204.779 143.442 206.336 142.309 207.144 138.838L209.171 138.464C209.867 138.351 210.587 138.573 210.975 139.025C211.028 139.089 211.071 139.159 211.102 139.23C211.194 139.601 211.258 139.971 211.289 140.345C211.374 141.62 211.357 142.898 211.24 144.169H210.862L210.77 141.768C210.77 140.953 209.884 141.899 209.634 142.771C209.379 143.643 208.857 144.593 206.498 144.593C203.783 144.604 202.639 144.512 203.345 144.01Z"
        fill="#263238" />
    <path
        d="M207.529 137.595C207.529 137.595 207.07 139.18 206.325 140.935C206.018 141.839 205.485 142.69 204.754 143.442C204.754 143.442 206.516 143.703 207.3 142.813C208.084 141.924 209.189 138.863 210.975 139.043C210.841 138.817 210.672 138.601 210.47 138.404C210.181 138.079 207.529 137.592 207.529 137.592V137.595Z"
        fill="#B97964" />
    <path
        d="M227.248 143.82C227.548 143.424 227.926 143.061 228.361 142.75C228.361 142.75 229.374 141.112 228.812 137.595L230.55 136.483C231.153 136.112 231.902 136.049 232.431 136.32C232.506 136.359 232.573 136.405 232.626 136.462C232.852 136.769 233.049 137.09 233.219 137.426C233.777 138.573 234.243 139.763 234.617 140.985L234.267 141.129L233.275 138.94C232.968 138.185 232.506 139.396 232.601 140.3C232.696 141.2 232.569 142.28 230.387 143.17C227.877 144.205 226.786 144.551 227.248 143.82Z"
        fill="#263238" />
    <path
        d="M228.699 136.299C228.699 136.299 228.876 137.941 228.848 139.848C228.904 140.801 228.731 141.79 228.339 142.76C228.339 142.76 230.069 142.337 230.458 141.218C230.846 140.098 230.716 136.847 232.438 136.338C232.227 136.179 231.99 136.045 231.729 135.939C231.34 135.749 228.696 136.299 228.696 136.299H228.699Z"
        fill="#B97964" />
    <path
        d="M206.05 104.029V104.47C206.05 104.47 212.91 106.338 217.454 106.352C221.998 106.366 229.328 104.594 229.328 104.594C229.328 104.594 229.695 89.1926 227.372 82.8126C225.06 76.4574 221.773 74.12 221.773 74.12L209.433 77.1388C208.25 79.7091 207.166 84.7651 206.756 90.22C206.29 94.411 206.174 99.4564 206.054 104.025L206.05 104.029Z"
        fill="#263238" />
    <path
        d="M224.989 61.9003L226.782 53.7303C225.363 52.5934 220.664 51.9896 220.664 51.9896L212.412 52.325L210.961 55.4285C210.961 55.4285 208.889 58.7439 208.684 60.9647C208.497 63.0195 210.312 68.99 210.001 71.525L209.256 77.0682C217.267 82.9398 224.646 77.5449 224.646 77.5449C224.261 76.4786 222.74 74.8933 222.549 73.8447C222.623 72.4995 221.991 71.5003 222.821 68.704C223.446 66.5961 224.985 62.1969 224.978 61.9003H224.989Z"
        fill="#407BFF" />
    <path
        d="M216.141 72.4995C213.874 72.4995 212.035 74.1095 212.035 76.0938H220.244C220.244 74.1095 218.404 72.4995 216.138 72.4995H216.141Z"
        fill="#263238" />
    <path d="M240.475 76.0972H190.805V92.0807H240.475V76.0972Z" fill="#407BFF" />
    <path d="M234.098 78.6429H198.184V89.5315H234.098V78.6429Z" fill="#263238" />
    <path d="M197.404 91.0003L200.684 144.416H231.309L234.098 92.0807L197.404 91.0003Z"
        fill="#407BFF" />
    <path opacity="0.2" d="M197.467 92.0807H234.098L233.929 95.2266H197.662L197.467 92.0807Z"
        fill="black" />
    <path
        d="M211.64 83.4761C211.901 83.6032 212.106 83.7833 212.258 84.0198C212.41 84.2528 212.484 84.5247 212.484 84.8319C212.484 85.1638 212.403 85.4533 212.237 85.704C212.071 85.9546 211.845 86.1488 211.559 86.283C211.273 86.4172 210.955 86.4842 210.605 86.4842C209.91 86.4842 209.366 86.2724 208.974 85.8452C208.582 85.418 208.385 84.8107 208.385 84.0233C208.385 83.462 208.491 82.9783 208.702 82.5758C208.914 82.1733 209.211 81.8696 209.592 81.6613C209.973 81.453 210.415 81.3506 210.916 81.3506C211.181 81.3506 211.435 81.3788 211.679 81.4389C211.922 81.4989 212.131 81.5801 212.3 81.6895L211.877 82.5334C211.629 82.3674 211.322 82.2862 210.948 82.2862C210.528 82.2862 210.192 82.4098 209.949 82.6534C209.702 82.9006 209.571 83.2572 209.55 83.7232C209.843 83.4302 210.252 83.2819 210.778 83.2819C211.096 83.2819 211.382 83.3454 211.643 83.4725L211.64 83.4761ZM211.139 85.425C211.294 85.2944 211.368 85.1143 211.368 84.8848C211.368 84.6553 211.29 84.4753 211.139 84.3411C210.983 84.2069 210.782 84.1399 210.524 84.1399C210.267 84.1399 210.069 84.2105 209.906 84.3482C209.744 84.4894 209.666 84.6659 209.666 84.8848C209.666 85.1037 209.744 85.2803 209.899 85.418C210.055 85.5557 210.266 85.6227 210.538 85.6227C210.786 85.6227 210.983 85.5557 211.139 85.425Z"
        fill="white" />
    <path
        d="M213.931 86.1774C213.61 85.9726 213.359 85.6796 213.175 85.2947C212.992 84.9099 212.904 84.4509 212.904 83.9142C212.904 83.3775 212.995 82.9185 213.175 82.5337C213.356 82.1488 213.61 81.8523 213.931 81.651C214.252 81.4462 214.619 81.3474 215.029 81.3474C215.439 81.3474 215.806 81.4498 216.127 81.651C216.448 81.8558 216.699 82.1488 216.883 82.5337C217.063 82.9185 217.155 83.3775 217.155 83.9142C217.155 84.4509 217.063 84.9099 216.883 85.2947C216.699 85.6796 216.448 85.9761 216.127 86.1774C215.806 86.3822 215.439 86.481 215.029 86.481C214.619 86.481 214.252 86.3786 213.931 86.1774ZM215.742 85.1217C215.915 84.8604 216 84.4579 216 83.9142C216 83.3705 215.915 82.968 215.742 82.7067C215.569 82.4454 215.333 82.3148 215.029 82.3148C214.725 82.3148 214.496 82.4454 214.323 82.7067C214.15 82.968 214.065 83.3705 214.065 83.9142C214.065 84.4579 214.15 84.8604 214.323 85.1217C214.496 85.383 214.732 85.5101 215.029 85.5101C215.326 85.5101 215.569 85.3794 215.742 85.1217Z"
        fill="white" />
    <path
        d="M218.747 86.1774C218.426 85.9726 218.175 85.6796 217.992 85.2947C217.808 84.9099 217.72 84.4509 217.72 83.9142C217.72 83.3775 217.812 82.9185 217.992 82.5337C218.172 82.1488 218.426 81.8523 218.747 81.651C219.068 81.4462 219.436 81.3474 219.845 81.3474C220.255 81.3474 220.622 81.4498 220.943 81.651C221.265 81.8558 221.515 82.1488 221.699 82.5337C221.879 82.9185 221.971 83.3775 221.971 83.9142C221.971 84.4509 221.879 84.9099 221.699 85.2947C221.515 85.6796 221.265 85.9761 220.943 86.1774C220.622 86.3822 220.255 86.481 219.845 86.481C219.436 86.481 219.068 86.3786 218.747 86.1774ZM220.558 85.1217C220.731 84.8604 220.816 84.4579 220.816 83.9142C220.816 83.3705 220.731 82.968 220.558 82.7067C220.385 82.4454 220.149 82.3148 219.845 82.3148C219.542 82.3148 219.312 82.4454 219.139 82.7067C218.966 82.968 218.881 83.3705 218.881 83.9142C218.881 84.4579 218.966 84.8604 219.139 85.1217C219.312 85.383 219.549 85.5101 219.845 85.5101C220.142 85.5101 220.385 85.3794 220.558 85.1217Z"
        fill="white" />
    <path opacity="0.2" d="M212.455 78.6429L201.143 89.5315H206.072L217.561 78.6429H212.455Z"
        fill="white" />
    <path opacity="0.2" d="M219.52 78.6429L208.208 89.5315H210.005L221.494 78.6429H219.52Z"
        fill="white" />
    <path
        d="M225.759 138.411H207.353L204.635 99.2657H228.241L228.23 99.4529L225.759 138.411ZM207.682 138.058H225.427L227.863 99.6188H205.009L207.678 138.058H207.682Z"
        fill="#407BFF" />
    <path
        d="M225.222 52.9005C225.222 52.9005 226.758 52.9818 227.648 54.4682C228.22 55.4215 230.211 61.6355 231.468 65.6429C232.107 67.6836 231.637 69.1806 229.897 70.427L221.028 74.3037L218.814 71.6168L226.864 66.9669C226.864 66.9669 224.177 59.0863 223.803 56.8973C223.428 54.7118 225.219 52.9041 225.219 52.9041L225.222 52.9005Z"
        fill="#B97964" />
    <path opacity="0.2"
        d="M226.868 66.9633C226.868 66.9633 227.895 66.9598 228.527 67.3729C228.527 67.3729 228.167 66.2219 226.546 66.0065L226.868 66.9633Z"
        fill="black" />
    <path
        d="M213.578 72.9973C213.578 72.9973 214.115 71.9381 214.853 71.5921C215.591 71.2461 219.347 71.3096 219.347 71.3096L221.272 74.1271C221.272 74.1271 220.181 75.2358 220.008 74.8827C219.467 73.7811 218.331 73.3539 217.508 73.8482C217.508 73.8482 217.091 74.692 216.477 74.519C216.141 74.4237 216.516 73.4881 216.516 73.4881C216.516 73.4881 216.089 74.4978 215.69 74.4908C215.291 74.4873 215.319 73.7952 215.319 73.7952C215.319 73.7952 214.856 74.4202 214.584 74.3001C214.313 74.1801 214.468 73.5234 214.468 73.5234C214.468 73.5234 213.988 74.0106 213.772 73.9471C213.119 73.7564 213.578 72.9973 213.578 72.9973Z"
        fill="#B97964" />
    <path opacity="0.3"
        d="M216.477 73.7317C216.477 73.7317 216.466 73.7317 216.462 73.7317C216.438 73.7246 216.427 73.6999 216.434 73.6752C216.551 73.3468 216.78 73.0679 217.077 72.8843C217.373 72.7007 217.726 72.6231 218.072 72.6654C218.097 72.6654 218.115 72.6901 218.111 72.7149C218.111 72.7396 218.087 72.7608 218.062 72.7537C217.733 72.7149 217.402 72.789 217.123 72.962C216.844 73.135 216.628 73.3998 216.519 73.707C216.512 73.7246 216.494 73.7352 216.477 73.7352V73.7317Z"
        fill="black" />
    <path opacity="0.3"
        d="M215.319 73.887C215.319 73.887 215.308 73.887 215.305 73.887C215.283 73.88 215.269 73.8517 215.28 73.8306L215.506 73.2303C215.622 72.9055 215.852 72.6231 216.148 72.4395C216.445 72.2559 216.798 72.1782 217.144 72.2206C217.169 72.2206 217.186 72.2453 217.183 72.27C217.179 72.2947 217.158 72.3088 217.133 72.3088C216.805 72.27 216.473 72.3441 216.194 72.5171C215.915 72.6901 215.7 72.9549 215.591 73.2621L215.365 73.8623C215.358 73.88 215.34 73.8906 215.322 73.8906L215.319 73.887Z"
        fill="black" />
    <path opacity="0.3"
        d="M214.446 73.5834C214.446 73.5834 214.436 73.5834 214.432 73.5834C214.411 73.5763 214.397 73.5481 214.408 73.5269L214.634 72.9267C214.75 72.5983 214.98 72.3194 215.276 72.1358C215.573 71.9522 215.926 71.8745 216.272 71.9169C216.297 71.9169 216.314 71.9416 216.311 71.9663C216.307 71.991 216.286 72.0087 216.261 72.0052C215.936 71.9663 215.601 72.0405 215.322 72.2135C215.043 72.3865 214.828 72.6513 214.718 72.9584L214.492 73.5587C214.485 73.5763 214.468 73.5869 214.45 73.5869L214.446 73.5834Z"
        fill="black" />
    <path d="M145.209 133.401L142.406 140.96L139.868 140.141L140.743 132.158L145.209 133.401Z"
        fill="#EBB373" />
    <path
        d="M142.681 144.141L140.379 144.123C140.379 144.123 139.917 143.873 139.641 143.904C139.37 143.936 138.42 144.109 138.42 144.109L132.305 144.063C132.354 143.809 132.418 143.58 132.488 143.378C132.573 143.131 132.672 142.923 132.781 142.75C133.166 142.135 133.682 141.92 134.247 141.888C135.105 141.842 137.809 140.063 137.809 140.063C137.809 140.063 138.791 139.728 138.851 138.69C138.875 138.301 139.454 137.828 139.726 137.789C140.288 137.712 140.595 138.068 140.672 138.63L140.761 139.279L142.053 139.089C142.053 139.089 143.37 138.439 143.303 139.078C143.264 139.445 143.031 141.076 142.883 142.369C142.847 142.669 142.816 142.955 142.787 143.205C142.724 143.76 142.681 144.144 142.681 144.144V144.141Z"
        fill="#263238" />
    <path
        d="M132.304 144.063L138.416 144.109C138.416 144.109 139.366 143.936 139.638 143.904C139.91 143.873 140.376 144.123 140.376 144.123L142.678 144.141C142.678 144.141 142.724 143.76 142.784 143.202L132.485 143.375C132.414 143.576 132.35 143.805 132.301 144.06L132.304 144.063Z"
        fill="#E0E0E0" />
    <path
        d="M136.464 140.716C136.492 140.688 136.534 140.684 136.57 140.709C136.722 140.811 136.845 140.953 136.933 141.133C136.979 141.228 136.842 141.316 136.796 141.221C136.722 141.062 136.609 140.935 136.478 140.847C136.436 140.819 136.428 140.755 136.464 140.72V140.716Z"
        fill="white" />
    <path
        d="M136.951 140.434C136.979 140.405 137.022 140.402 137.057 140.427C137.209 140.529 137.332 140.67 137.421 140.85C137.466 140.946 137.329 141.034 137.283 140.939C137.209 140.78 137.096 140.653 136.965 140.564C136.923 140.536 136.916 140.473 136.951 140.437V140.434Z"
        fill="white" />
    <path
        d="M137.456 140.169C137.484 140.141 137.526 140.137 137.562 140.162C137.714 140.264 137.837 140.405 137.925 140.586C137.971 140.681 137.834 140.769 137.788 140.674C137.714 140.515 137.601 140.388 137.47 140.3C137.428 140.271 137.421 140.208 137.456 140.172V140.169Z"
        fill="white" />
    <path d="M163.491 132.052L164.61 140.282L167.294 140.416L168.162 132.483L163.491 132.052Z"
        fill="#EBB373" />
    <path
        d="M169.575 144.102H163.576C163.576 144.102 163.445 143.851 163.594 143.181C163.615 143.075 163.647 142.962 163.685 142.835C163.685 142.828 163.685 142.82 163.693 142.817C163.749 142.63 163.813 142.404 163.88 142.157C164.155 141.154 164.476 139.841 164.476 139.841C164.476 139.841 165.476 137.704 166.641 138.238C167.665 138.707 167.421 140.045 167.421 140.045C167.421 140.045 167.52 140.833 168.297 141.525C168.777 141.952 169.253 142.284 169.483 142.817C169.525 142.916 169.561 143.022 169.585 143.138C169.585 143.152 169.592 143.166 169.592 143.181C169.642 143.438 169.638 143.738 169.568 144.102H169.575Z"
        fill="#263238" />
    <path
        d="M163.597 143.177C163.449 143.848 163.58 144.099 163.58 144.099H169.578C169.649 143.735 169.649 143.431 169.603 143.177H163.601H163.597Z"
        fill="#E0E0E0" />
    <path
        d="M167.184 140.377C166.846 140.116 166.404 140.148 166.101 140.444C166.019 140.526 165.892 140.398 165.977 140.321C166.355 139.95 166.895 139.932 167.312 140.254C167.4 140.324 167.276 140.448 167.188 140.377H167.184Z"
        fill="white" />
    <path
        d="M167.354 140.939C167.015 140.677 166.574 140.709 166.27 141.006C166.189 141.087 166.062 140.96 166.146 140.882C166.524 140.511 167.064 140.494 167.481 140.815C167.569 140.886 167.446 141.009 167.357 140.939H167.354Z"
        fill="white" />
    <path
        d="M167.523 141.454C167.185 141.193 166.743 141.225 166.44 141.521C166.358 141.602 166.231 141.475 166.316 141.398C166.694 141.027 167.234 141.009 167.651 141.33C167.739 141.401 167.615 141.525 167.527 141.454H167.523Z"
        fill="white" />
    <path
        d="M169.688 79.861L156.741 79.9704L148.86 79.7304C148.86 79.7304 143.324 103.591 142.854 108.082C142.385 112.576 138.349 136.236 138.349 136.236L144.479 137.581C144.479 137.581 151.445 112.283 151.95 109.851C152.387 107.732 157.228 94.1497 158.467 90.6932C158.591 91.3993 158.718 92.1125 158.849 92.8151C159.163 95.9998 160.165 106.154 160.6 109.932C160.6 109.932 161.549 131.515 162.651 137.782L168.417 137.793C169.179 128.895 169.667 97.6416 169.667 97.6416C170.094 90.8521 169.691 79.8539 169.691 79.8539L169.688 79.861Z"
        fill="#263238" />
    <path
        d="M152.091 83.2999C151.36 85.7078 149.4 87.6391 146.985 88.3417C146.855 88.3806 146.911 88.5853 147.042 88.5465C149.527 87.8227 151.54 85.8314 152.295 83.3564C152.334 83.2257 152.133 83.1692 152.091 83.2999Z"
        fill="black" />
    <path
        d="M157.32 89.9588C154.615 95.389 153.058 101.296 151.144 107.03C149.16 112.979 147.575 119.052 146.152 125.156C145.351 128.595 144.602 132.045 143.861 135.494C143.832 135.628 144.037 135.685 144.065 135.551C145.375 129.439 146.717 123.335 148.32 117.293C149.902 111.341 151.858 105.501 153.754 99.6435C154.813 96.3776 155.967 93.14 157.5 90.0612C157.56 89.9411 157.38 89.8317 157.316 89.9553L157.32 89.9588Z"
        fill="black" />
    <path
        d="M138.844 134.516C140.796 135.011 142.752 135.505 144.705 135.999C144.835 136.031 144.892 135.83 144.761 135.794C142.809 135.3 140.853 134.806 138.9 134.311C138.769 134.28 138.713 134.481 138.844 134.516Z"
        fill="black" />
    <path
        d="M158.668 83.2999C158.527 85.4042 158.386 87.5156 158.245 89.6199C158.238 89.754 158.026 89.754 158.033 89.6199C158.107 88.5395 158.178 87.4556 158.252 86.3716C157.733 86.7741 157.125 86.2869 156.956 85.7502C156.677 84.8817 156.783 83.8472 156.998 82.9786C157.034 82.8444 157.235 82.9045 157.203 83.0316C157.051 83.6424 156.984 84.2673 157.03 84.8958C157.051 85.2135 157.08 85.5807 157.231 85.8738C157.397 86.1986 157.817 86.474 158.156 86.181C158.195 86.1492 158.234 86.1457 158.269 86.1633C158.333 85.21 158.4 84.2497 158.464 83.2964C158.471 83.1622 158.682 83.1622 158.675 83.2964L158.668 83.2999Z"
        fill="black" />
    <path
        d="M164.861 83.6565C164.833 86.4493 166.98 88.7866 169.758 89.0055C169.893 89.0161 169.893 88.8078 169.758 88.7972C167.093 88.5853 165.038 86.3257 165.07 83.6565C165.07 83.5223 164.865 83.5223 164.861 83.6565Z"
        fill="black" />
    <path
        d="M159.65 90.2413C160.36 96.1799 160.928 102.133 161.422 108.089C161.917 114.031 162.337 119.98 162.753 125.926C162.99 129.298 163.227 132.673 163.474 136.045C163.484 136.179 163.696 136.179 163.686 136.045C163.248 130.071 162.845 124.09 162.411 118.116C161.977 112.174 161.511 106.232 160.939 100.3C160.617 96.9425 160.261 93.5884 159.858 90.2377C159.841 90.1036 159.632 90.1036 159.646 90.2377L159.65 90.2413Z"
        fill="black" />
    <path
        d="M162.499 136.144C164.48 136.147 166.46 136.155 168.445 136.158C168.582 136.158 168.582 135.946 168.445 135.946C166.464 135.943 164.483 135.936 162.499 135.932C162.361 135.932 162.361 136.144 162.499 136.144Z"
        fill="black" />
    <path
        d="M166.224 110.889C167.089 111.207 168.018 111.214 168.886 110.903C169.01 110.857 168.957 110.659 168.83 110.702C167.993 111.002 167.11 110.995 166.277 110.688C166.15 110.642 166.097 110.843 166.221 110.889H166.224Z"
        fill="black" />
    <path
        d="M137.343 51.107C137.4 51.2447 143.317 59.3512 143.317 59.3512L148.115 51.9614C148.115 51.9614 152.278 56.8161 152.119 56.8691C151.96 56.922 145.834 67.8425 142.265 65.4946C138.695 63.1467 135.165 52.5298 135.165 52.5298L137.343 51.107Z"
        fill="#EBB373" />
    <path
        d="M137.332 52.0355C137.332 52.0355 138.236 51.1952 138.261 50.1713C138.286 49.1509 138.579 48.3389 138.543 47.5798C138.508 46.8207 137.872 47.6257 137.622 48.1235C137.371 48.6213 137.078 49.1827 136.736 48.932C136.393 48.6813 134.9 45.3519 134.384 45.0588C133.869 44.7658 133.943 45.3801 133.943 45.3801C133.943 45.3801 133.558 44.5822 133.201 44.6458C133.11 44.6634 132.919 44.8541 133.039 45.246C133.304 46.1286 133.957 47.947 133.957 47.947C133.922 47.841 132.954 45.652 132.767 45.3413C132.523 44.9388 132.199 44.8717 131.969 45.0235C131.641 45.2354 132.749 47.9929 132.714 48.1411C132.714 48.1411 132.132 46.5347 131.634 46.457C131.136 46.3793 131.45 47.4138 131.898 48.2718C132.308 49.0591 132.908 50.708 133.406 51.4671C134.017 52.4027 134.635 52.8935 135.673 52.7346C136.707 52.5757 137.339 52.032 137.339 52.032L137.332 52.0355Z"
        fill="#EBB373" />
    <path opacity="0.3"
        d="M134.801 47.5515C134.766 47.5515 134.73 47.5304 134.716 47.4915C134.487 46.8242 134.222 46.1604 133.933 45.5179C133.911 45.472 133.933 45.4225 133.975 45.4013C134.021 45.3802 134.07 45.4013 134.091 45.4437C134.384 46.0934 134.649 46.7607 134.882 47.4315C134.896 47.4774 134.875 47.5268 134.829 47.5445C134.819 47.5445 134.812 47.548 134.801 47.548V47.5515Z"
        fill="black" />
    <path opacity="0.3"
        d="M132.919 48.8685C132.894 48.8685 132.869 48.8579 132.852 48.8367C132.82 48.7979 132.827 48.7449 132.862 48.7131C133.583 48.12 134.49 47.7422 135.415 47.6469C135.468 47.6398 135.507 47.6787 135.51 47.7246C135.514 47.774 135.479 47.8163 135.433 47.8199C134.54 47.9117 133.667 48.2753 132.972 48.8473C132.954 48.8614 132.937 48.8685 132.915 48.8685H132.919Z"
        fill="black" />
    <path opacity="0.3"
        d="M135.888 51.3965C135.853 51.3965 135.821 51.3753 135.807 51.34C135.659 50.9728 135.641 50.5597 135.761 50.1819C135.881 49.8076 136.135 49.4722 136.467 49.2604C136.51 49.2357 136.563 49.2463 136.591 49.2851C136.619 49.3275 136.605 49.3804 136.566 49.4087C136.27 49.5993 136.04 49.8994 135.934 50.2349C135.828 50.5703 135.842 50.9481 135.976 51.2764C135.994 51.3223 135.976 51.3717 135.927 51.3929C135.916 51.3965 135.906 51.4 135.895 51.4L135.888 51.3965Z"
        fill="black" />
    <path opacity="0.2"
        d="M143.317 59.3512C143.317 59.3512 143.988 60.654 143.794 61.8121C143.794 61.8121 144.186 61.2683 144.161 60.3327C144.133 59.3935 143.734 58.7156 143.734 58.7156L143.317 59.3547V59.3512Z"
        fill="black" />
    <path
        d="M172.445 51.1069C172.445 51.1069 175.655 64.5201 175.941 67.6024C176.227 70.6847 176.294 85.4113 176.294 85.4113L172.894 85.097L170.984 69.862L167.153 51.9084L172.445 51.1034V51.1069Z"
        fill="#EBB373" />
    <path
        d="M173.137 84.6698C173.137 84.6698 172.075 85.2982 171.831 86.2904C171.587 87.2825 171.128 88.0098 170.998 88.7618C170.867 89.5139 171.661 88.8607 172.014 88.43C172.368 87.9992 172.77 87.512 173.053 87.8297C173.335 88.1475 174.08 91.7206 174.521 92.116C174.963 92.5115 175.023 91.8971 175.023 91.8971C175.023 91.8971 175.227 92.7586 175.591 92.7727C175.686 92.7727 175.909 92.6315 175.881 92.2219C175.81 91.3039 175.563 89.3868 175.563 89.3868C175.573 89.4962 176.05 91.8442 176.167 92.1866C176.318 92.635 176.619 92.7657 176.876 92.6703C177.24 92.5326 176.753 89.6022 176.816 89.4645C176.816 89.4645 177.042 91.1592 177.512 91.3428C177.981 91.5229 177.897 90.4495 177.642 89.5139C177.409 88.6559 177.176 86.9153 176.855 86.0679C176.46 85.0228 175.958 84.412 174.913 84.3449C173.868 84.2779 173.137 84.6768 173.137 84.6768V84.6698Z"
        fill="#EBB373" />
    <path
        d="M153.962 46.2981C156.179 47.9151 156.455 52.4662 149.602 62.2533L144.161 56.5018C145.57 54.0127 146.795 52.7946 148.888 49.8323C152.193 45.2424 153.962 46.2981 153.962 46.2981Z"
        fill="#407BFF" />
    <path
        d="M153.909 46.1251C155.671 46.0156 162.718 45.3095 169.91 46.75L169.49 74.3177C169.49 74.3177 169.677 77.9685 170.143 81.6333C162.623 84.5391 152.952 83.6776 148.161 80.6942C148.302 81.019 150.407 57.4657 152.419 46.5064C152.454 46.3334 153.74 46.1357 153.913 46.1251H153.909Z"
        fill="#407BFF" />
    <path
        d="M169.745 46.7182C169.745 46.7182 172.742 47.2761 173.423 50.8244C174.052 54.0903 175.814 61.3565 175.814 61.3565L168.724 62.2745L167.298 53.7761L169.748 46.7182H169.745Z"
        fill="#407BFF" />
    <path opacity="0.2"
        d="M150.347 61.1694L151.476 52.4097L148.913 61.526L149.602 62.2533L150.347 61.1694Z"
        fill="black" />
    <path opacity="0.2"
        d="M169.437 62.1792L168.724 62.2745L167.294 55.2731L167.958 63.129L169.402 63.4467L169.437 62.1792Z"
        fill="black" />
    <path
        d="M161.373 62.3663C160.434 62.3663 159.495 62.0274 158.792 61.3848C158.764 61.3566 158.732 61.3283 158.704 61.3001C157.92 61.9603 156.984 62.2569 155.893 62.1827C155.844 62.1827 155.808 62.1368 155.812 62.0874C155.812 62.038 155.858 62.0027 155.907 62.0062C156.942 62.0768 157.832 61.7944 158.58 61.1694C157.623 60.1279 157.313 58.5461 157.832 57.2221C157.973 56.8655 158.298 56.2476 158.916 56.0993C159.611 55.9334 160.264 56.4771 160.473 57.0738C160.66 57.614 160.603 58.2495 160.3 58.9698C159.904 59.9125 159.417 60.6504 158.838 61.18C158.863 61.2047 158.887 61.2259 158.912 61.2506C159.964 62.218 161.659 62.4617 162.941 61.8261C162.983 61.8049 163.036 61.8261 163.057 61.865C163.078 61.9073 163.057 61.9603 163.018 61.9815C162.503 62.2357 161.938 62.3593 161.369 62.3593L161.373 62.3663ZM159.166 56.2476C159.096 56.2476 159.028 56.2547 158.958 56.2723C158.418 56.403 158.125 56.9644 157.998 57.2892C157.51 58.532 157.814 60.0714 158.714 61.0564C159.276 60.5445 159.752 59.8242 160.137 58.9062C160.423 58.2284 160.48 57.6317 160.307 57.1338C160.144 56.6678 159.671 56.2476 159.166 56.2476Z"
        fill="#263238" />
    <path opacity="0.3"
        d="M166.884 51.4847C166.884 51.4847 166.87 51.4847 166.867 51.4847C166.821 51.4741 166.789 51.4282 166.8 51.3788C167.17 49.677 168.233 48.1658 169.709 47.2408C169.751 47.2161 169.804 47.2267 169.829 47.269C169.854 47.3114 169.843 47.3644 169.801 47.3891C168.364 48.2894 167.333 49.7582 166.973 51.4141C166.962 51.4564 166.927 51.4847 166.888 51.4847H166.884Z"
        fill="black" />
    <path
        d="M163.668 46.1463C163.668 46.1463 163.375 44.0526 164.6 40.4266C164.6 40.423 164.409 40.3277 164.409 40.3242C164.579 39.8157 164.755 39.3497 164.921 38.9437C164.925 38.9331 164.925 38.9295 164.925 38.9295L159.763 41.8176C159.83 42.9969 159.307 45.2495 159.014 46.1993C159.014 46.1993 158.305 47.9081 160.61 48.0846C162.294 48.2153 163.664 46.1498 163.664 46.1498L163.668 46.1463Z"
        fill="#EBB373" />
    <path opacity="0.2"
        d="M159.608 43.463L162.528 42.9369C162.228 43.8266 161.384 44.8576 159.368 44.8576C159.368 44.8576 159.611 43.8584 159.608 43.463Z"
        fill="black" />
    <path
        d="M156.165 32.6343C155.523 33.7712 155.703 36.6628 157.577 36.2109C159.452 35.759 157.267 30.6783 156.165 32.6343Z"
        fill="#263238" />
    <path
        d="M165.07 36.4863C164.593 39.6569 164.388 41.4576 162.63 42.9369C159.986 45.1613 156.261 43.3959 155.781 40.1371C155.346 37.2031 156.201 32.5072 159.438 31.5469C162.627 30.5971 165.546 33.3158 165.07 36.4863Z"
        fill="#EBB373" />
    <path
        d="M166.789 32.253C165.808 29.4355 161.129 30.4841 159.82 31.275C159.625 31.3915 162.118 32.9344 161.963 32.8638L163.152 33.397C163.347 33.3722 163.696 33.6265 163.837 34.2302C163.837 34.2302 163.071 37.5667 164.332 39.1026C165.772 38.5871 166.005 38.0928 166.457 36.97C167.132 35.2965 167.28 33.5982 166.786 32.2565L166.789 32.253Z"
        fill="#263238" />
    <path
        d="M166.097 39.2579C165.769 40.0559 165.102 40.6243 164.442 40.8856C163.449 41.274 162.835 40.4089 163.015 39.4097C163.178 38.5129 163.887 37.2278 164.932 37.2666C165.96 37.3019 166.472 38.347 166.097 39.2579Z"
        fill="#EBB373" />
    <path
        d="M160.423 37.0053C160.395 37.3301 160.197 37.5808 159.986 37.5596C159.774 37.5384 159.622 37.256 159.65 36.9311C159.678 36.6063 159.876 36.3556 160.088 36.3768C160.3 36.398 160.452 36.6805 160.423 37.0053Z"
        fill="#263238" />
    <path
        d="M157.217 36.7864C157.189 37.1112 156.991 37.3619 156.779 37.3407C156.568 37.3195 156.416 37.0371 156.444 36.7123C156.472 36.3874 156.67 36.1368 156.882 36.1579C157.094 36.1791 157.245 36.4616 157.217 36.7864Z"
        fill="#263238" />
    <path
        d="M158.277 36.6981C158.277 36.6981 157.101 38.2269 156.713 38.8589C157.129 39.3108 157.931 39.1908 157.931 39.1908L158.28 36.6981H158.277Z"
        fill="#E4873E" />
    <path
        d="M161.359 35.5365C161.309 35.5507 161.249 35.5401 161.207 35.5012C160.705 35.0316 160.155 35.1587 160.148 35.1587C160.066 35.1799 159.982 35.127 159.96 35.0458C159.939 34.9646 159.992 34.8798 160.073 34.8622C160.102 34.8551 160.794 34.6962 161.415 35.2788C161.479 35.3353 161.482 35.4341 161.422 35.4942C161.404 35.5154 161.38 35.5259 161.355 35.5365H161.359Z"
        fill="#263238" />
    <path opacity="0.2"
        d="M163.905 39.2261C163.905 39.2261 163.894 39.2261 163.887 39.2261C163.838 39.2155 163.809 39.1696 163.817 39.1237C163.877 38.8377 164.007 38.5694 164.201 38.347C164.332 38.1987 164.551 38.0115 164.833 37.9656C165.116 37.9233 165.395 38.0468 165.518 38.2693C165.543 38.3116 165.525 38.3646 165.483 38.3893C165.441 38.414 165.388 38.3964 165.363 38.354C165.275 38.1987 165.063 38.1069 164.858 38.1386C164.625 38.1739 164.445 38.3328 164.332 38.4599C164.159 38.6577 164.039 38.8977 163.986 39.1555C163.979 39.1979 163.94 39.2261 163.898 39.2261H163.905Z"
        fill="black" />
    <path
        d="M161.052 39.3674L158.238 40.2218C158.393 40.5325 158.548 40.8467 158.778 41.1045C159.007 41.3622 159.304 41.4787 159.65 41.4999C160.144 41.5317 160.617 41.2634 160.84 40.8185C161.059 40.3736 161.084 39.8617 161.052 39.3674Z"
        fill="black" />
    <path
        d="M158.464 40.1512C158.464 40.1512 158.64 40.5043 158.813 40.5643C158.986 40.6208 161.062 39.8829 161.062 39.8829L161.052 39.3674L158.464 40.1512Z"
        fill="white" />
    <path
        d="M159.297 41.4399C159.297 41.4399 159.453 40.9562 160.035 40.7444C160.618 40.5325 160.911 40.6631 160.911 40.6631C160.911 40.6631 160.72 41.2386 160.176 41.4222C159.629 41.6058 159.301 41.4399 159.301 41.4399H159.297Z"
        fill="#DE5753" />
    <path
        d="M155.929 35.2823C155.9 35.2752 155.876 35.2576 155.854 35.2329C155.801 35.1658 155.808 35.0705 155.876 35.0175C156.529 34.4808 157.2 34.6927 157.231 34.6997C157.313 34.7245 157.358 34.8127 157.33 34.8939C157.306 34.9751 157.221 35.0175 157.14 34.9928C157.111 34.9822 156.592 34.8268 156.07 35.2576C156.027 35.2929 155.974 35.3 155.929 35.2858V35.2823Z"
        fill="#263238" />
    <path
        d="M164.522 31.5044C164.039 30.1698 162.771 29.2518 161.475 29.3048C160.656 29.3401 159.876 29.7179 159.082 29.958C158.287 30.1981 157.383 30.2863 156.702 29.785C156.367 29.5378 156.003 29.1424 155.629 29.3225C155.378 29.4425 155.265 29.792 155.307 30.0922C155.346 30.3923 155.502 30.65 155.653 30.9007C155.332 30.8724 155.011 30.8442 154.686 30.8159C154.792 31.8293 155.427 32.6943 156.204 33.2133C156.984 33.7323 157.895 33.9512 158.799 34.0818C159.883 34.2407 160.999 34.2831 162.062 33.9653C163.124 33.644 164.131 32.9238 164.664 31.8434L164.522 31.5009V31.5044Z"
        fill="#263238" />
    <path
        d="M163.414 29.5767C162.951 29.1106 162.287 28.8494 161.631 28.867C161.023 28.8847 160.451 29.1318 159.862 29.273C159.272 29.4143 158.594 29.4319 158.121 29.0541C157.863 28.8494 157.574 28.521 157.281 28.6693C157.058 28.7823 157.041 29.0965 157.111 29.3366C157.288 29.9298 157.835 30.3923 158.446 30.4664L164.113 31.3632C164.137 30.7065 163.876 30.0427 163.414 29.5767Z"
        fill="#263238" />
    <path
        d="M158.227 72.4147C155.96 72.4147 154.121 74.0247 154.121 76.009H162.33C162.33 74.0247 160.49 72.4147 158.224 72.4147H158.227Z"
        fill="#263238" />
    <path d="M182.561 76.0125H132.891V91.996H182.561V76.0125Z" fill="#407BFF" />
    <path opacity="0.2" d="M182.561 76.0125H132.891V91.996H182.561V76.0125Z" fill="black" />
    <path d="M176.184 78.5581H140.27V89.4468H176.184V78.5581Z" fill="#263238" />
    <path d="M139.489 90.9156L142.769 144.332H173.398L176.184 91.996L139.489 90.9156Z"
        fill="#407BFF" />
    <path opacity="0.2" d="M139.489 90.9156L142.769 144.332H173.398L176.184 91.996L139.489 90.9156Z"
        fill="black" />
    <path opacity="0.2" d="M139.557 91.996H176.184L176.018 95.1419H139.748L139.557 91.996Z"
        fill="black" />
    <path
        d="M153.793 83.8542C154.026 84.1084 154.139 84.4191 154.139 84.7934C154.139 85.0829 154.065 85.3477 153.913 85.5913C153.761 85.8349 153.532 86.0291 153.221 86.1774C152.91 86.3257 152.532 86.3963 152.084 86.3963C151.734 86.3963 151.388 86.3504 151.053 86.2586C150.714 86.1668 150.428 86.0362 150.192 85.8667L150.64 84.9876C150.831 85.1288 151.046 85.2383 151.297 85.3159C151.544 85.3936 151.798 85.4324 152.059 85.4324C152.349 85.4324 152.575 85.376 152.741 85.2665C152.907 85.157 152.988 84.9982 152.988 84.7934C152.988 84.3874 152.677 84.1826 152.059 84.1826H151.533V83.4235L152.554 82.2689H150.439V81.3474H153.913V82.0924L152.794 83.3705C153.228 83.4411 153.563 83.6035 153.793 83.8577V83.8542Z"
        fill="white" />
    <path
        d="M155.699 86.0927C155.378 85.8879 155.127 85.5949 154.944 85.21C154.76 84.8252 154.672 84.3662 154.672 83.8295C154.672 83.2928 154.764 82.8339 154.944 82.449C155.124 82.0642 155.378 81.7676 155.699 81.5663C156.02 81.3615 156.388 81.2627 156.797 81.2627C157.207 81.2627 157.574 81.3651 157.895 81.5663C158.217 81.7711 158.467 82.0642 158.651 82.449C158.831 82.8339 158.923 83.2928 158.923 83.8295C158.923 84.3662 158.831 84.8252 158.651 85.21C158.467 85.5949 158.217 85.8914 157.895 86.0927C157.574 86.2975 157.207 86.3963 156.797 86.3963C156.388 86.3963 156.02 86.2939 155.699 86.0927ZM157.51 85.037C157.683 84.7757 157.768 84.3732 157.768 83.8295C157.768 83.2858 157.683 82.8833 157.51 82.6255C157.337 82.3643 157.101 82.2336 156.797 82.2336C156.494 82.2336 156.264 82.3643 156.091 82.6255C155.918 82.8868 155.833 83.2893 155.833 83.8295C155.833 84.3697 155.918 84.7757 156.091 85.037C156.264 85.2983 156.501 85.4254 156.797 85.4254C157.094 85.4254 157.337 85.2948 157.51 85.037Z"
        fill="white" />
    <path
        d="M160.515 86.0927C160.194 85.8879 159.943 85.5949 159.76 85.21C159.576 84.8252 159.488 84.3662 159.488 83.8295C159.488 83.2928 159.58 82.8339 159.76 82.449C159.94 82.0642 160.194 81.7676 160.515 81.5663C160.837 81.3615 161.204 81.2627 161.613 81.2627C162.023 81.2627 162.39 81.3651 162.711 81.5663C163.033 81.7711 163.283 82.0642 163.467 82.449C163.647 82.8339 163.739 83.2928 163.739 83.8295C163.739 84.3662 163.647 84.8252 163.467 85.21C163.283 85.5949 163.033 85.8914 162.711 86.0927C162.39 86.2975 162.023 86.3963 161.613 86.3963C161.204 86.3963 160.837 86.2939 160.515 86.0927ZM162.326 85.037C162.499 84.7757 162.584 84.3732 162.584 83.8295C162.584 83.2858 162.499 82.8833 162.326 82.6255C162.153 82.3643 161.917 82.2336 161.613 82.2336C161.31 82.2336 161.08 82.3643 160.907 82.6255C160.734 82.8868 160.649 83.2893 160.649 83.8295C160.649 84.3697 160.734 84.7757 160.907 85.037C161.08 85.2983 161.317 85.4254 161.613 85.4254C161.91 85.4254 162.153 85.2948 162.326 85.037Z"
        fill="white" />
    <path opacity="0.2" d="M154.541 78.5582L143.232 89.4468H148.158L159.646 78.5582H154.541Z"
        fill="white" />
    <path opacity="0.2" d="M161.606 78.5582L150.297 89.4468H152.091L163.583 78.5582H161.606Z"
        fill="white" />
    <path
        d="M167.848 138.326H149.443L146.724 99.181H170.33L170.32 99.3681L167.848 138.326ZM149.771 137.973H167.516L169.956 99.5341H147.102L149.771 137.973Z"
        fill="#407BFF" />
    <path
        d="M72.7274 44.974C72.7274 44.974 72.625 42.3472 73.0628 41.9871C73.5006 41.6269 73.9843 41.574 73.9843 41.574C73.9843 41.574 76.2369 37.7855 76.7418 38.181C77.0137 38.3928 76.6147 39.4167 75.5237 41.1891C75.5237 41.1891 76.6217 41.0232 76.5476 41.7611C76.5476 41.7611 77.3879 41.7011 77.3985 42.5661C77.3985 42.5661 78.0305 42.9863 77.8504 43.5759C77.6704 44.1655 76.4134 46.2098 75.439 46.9477C75.1459 47.1701 74.927 47.2055 74.5598 47.096C74.5598 47.096 73.6665 48.8508 73.6348 48.9673L71.2374 46.7359L72.7309 44.9705L72.7274 44.974Z"
        fill="#EBB373" />
    <path opacity="0.3"
        d="M74.2595 45.0729C74.2277 45.0729 74.1995 45.0553 74.1818 45.027C74.1571 44.9847 74.1748 44.9317 74.2171 44.907C74.489 44.7587 74.6726 44.4409 74.7008 44.0773C74.7256 43.7313 74.5879 43.1628 74.4396 42.8486C74.4254 42.8168 74.429 42.778 74.4537 42.7533C74.4749 42.7286 74.5137 42.718 74.5455 42.725C74.9727 42.8557 75.7247 42.6862 75.9436 42.3296C76.0566 42.146 76.0425 42.033 75.8872 41.9024C75.8201 41.8459 75.5694 41.8424 75.4352 41.8388C75.3858 41.8388 75.3399 41.8388 75.3046 41.8353C75.0927 41.8212 74.8809 41.7929 74.6761 41.7647C74.4749 41.7364 74.263 41.7082 74.0583 41.6976C74.0088 41.6976 73.9735 41.6517 73.977 41.6023C73.977 41.5528 74.023 41.5175 74.0724 41.5211C74.2842 41.5352 74.4961 41.5634 74.7008 41.5917C74.9021 41.6199 75.1139 41.6482 75.3187 41.6588C75.3505 41.6588 75.3929 41.6588 75.4423 41.6588C75.6859 41.6623 75.8978 41.6729 76.0072 41.7647C76.2261 41.9518 76.2544 42.1601 76.099 42.4179C75.8624 42.8062 75.1704 43.0004 74.6726 42.9263C74.8032 43.2688 74.9092 43.756 74.8844 44.0843C74.8527 44.508 74.6338 44.8788 74.3089 45.0553C74.2948 45.0623 74.2807 45.0659 74.2666 45.0659L74.2595 45.0729Z"
        fill="black" />
    <path opacity="0.3"
        d="M76.8865 44.5998C76.8583 44.5998 76.83 44.5998 76.8053 44.5927C76.5405 44.5398 76.4063 44.2503 76.3957 44.0067C76.3887 43.8866 76.4028 43.7666 76.4381 43.6536C76.3993 43.6748 76.3569 43.6924 76.3181 43.7065C76.0568 43.7983 75.7637 43.7524 75.5766 43.59C75.3612 43.4029 75.3083 43.064 75.4672 42.845C75.4954 42.8062 75.5519 42.7956 75.5907 42.8239C75.6296 42.8521 75.6402 42.9086 75.6119 42.9474C75.5095 43.0887 75.5484 43.3252 75.6967 43.4559C75.8379 43.5794 76.0603 43.6112 76.2651 43.5406C76.3781 43.5018 76.4911 43.4311 76.5935 43.3323C76.6429 43.2581 76.7029 43.1911 76.77 43.131C76.8018 43.1028 76.8547 43.1028 76.8865 43.131C76.9218 43.1628 76.9253 43.2122 76.9006 43.2475C76.8477 43.3217 76.7912 43.3888 76.7312 43.4453C76.6252 43.6077 76.5687 43.8054 76.5793 43.9996C76.5864 44.1832 76.6817 44.388 76.8477 44.4233C76.943 44.4445 77.0525 44.4021 77.1442 44.3174C77.236 44.2326 77.2996 44.1161 77.3632 44.0067C77.3879 43.9643 77.4408 43.9502 77.4832 43.9749C77.5256 43.9996 77.5397 44.0526 77.515 44.0949C77.4444 44.2185 77.3737 44.3456 77.2608 44.4515C77.1513 44.5539 77.0171 44.6069 76.89 44.6069L76.8865 44.5998Z"
        fill="black" />
    <path d="M51.5251 133.581L54.0002 141.977L56.6376 141.122L57.1107 132.836L51.5251 133.581Z"
        fill="#EBB373" />
    <path
        d="M53.7183 145.278L56.1086 145.26C56.1086 145.26 56.5888 144.999 56.8748 145.031C57.1572 145.062 58.1458 145.243 58.1458 145.243L64.494 145.193C64.4411 144.928 64.3775 144.692 64.3034 144.48C64.2151 144.226 64.1127 144.007 63.9997 143.827C63.6008 143.188 63.0641 142.962 62.478 142.93C61.5883 142.881 58.7778 141.034 58.7778 141.034C58.7778 141.034 57.761 140.688 57.6974 139.608C57.6727 139.202 57.0725 138.714 56.7865 138.675C56.204 138.594 55.8862 138.965 55.805 139.548L55.7132 140.222L54.3715 140.024C54.3715 140.024 53.0016 139.346 53.0722 140.014C53.1146 140.395 53.3547 142.086 53.51 143.431C53.5453 143.746 53.5806 144.042 53.6089 144.3C53.676 144.879 53.7219 145.274 53.7219 145.274L53.7183 145.278Z"
        fill="#263238" />
    <g opacity="0.2">
        <path
            d="M64.4937 145.197L58.1455 145.246C58.1455 145.246 57.1604 145.066 56.8744 145.034C56.592 145.002 56.1082 145.264 56.1082 145.264L53.718 145.281C53.718 145.281 53.6721 144.886 53.605 144.307L64.303 144.487C64.3772 144.695 64.4407 144.932 64.4937 145.2V145.197Z"
            fill="white" />
    </g>
    <path
        d="M60.1723 141.722C60.1441 141.694 60.0982 141.691 60.0629 141.715C59.9075 141.821 59.7769 141.97 59.6851 142.157C59.6392 142.256 59.7804 142.347 59.8298 142.248C59.9075 142.083 60.024 141.952 60.1582 141.86C60.2041 141.828 60.2111 141.765 60.1723 141.726V141.722Z"
        fill="#407BFF" />
    <path
        d="M59.6674 141.429C59.6392 141.401 59.5933 141.398 59.558 141.422C59.4026 141.528 59.272 141.677 59.1802 141.864C59.1343 141.963 59.2755 142.054 59.3249 141.955C59.4026 141.79 59.5191 141.659 59.6533 141.567C59.6992 141.535 59.7063 141.472 59.6674 141.433V141.429Z"
        fill="#407BFF" />
    <path
        d="M59.1409 141.154C59.1127 141.126 59.0668 141.122 59.0315 141.147C58.8761 141.253 58.7455 141.401 58.6537 141.588C58.6078 141.687 58.749 141.779 58.7985 141.68C58.8761 141.514 58.9927 141.383 59.1268 141.292C59.1727 141.26 59.1798 141.196 59.1409 141.157V141.154Z"
        fill="#407BFF" />
    <path d="M40.0365 132.913L38.8714 141.458L36.0892 141.599L35.1853 133.358L40.0365 132.913Z"
        fill="#EBB373" />
    <path
        d="M33.7167 145.426H39.9448C39.9448 145.426 40.079 145.165 39.9236 144.469C39.8989 144.36 39.8707 144.24 39.8283 144.113C39.8283 144.106 39.8248 144.099 39.8213 144.092C39.7648 143.897 39.6977 143.661 39.6235 143.407C39.3376 142.365 39.0021 141.002 39.0021 141.002C39.0021 141.002 37.9641 138.785 36.7531 139.336C35.6903 139.823 35.941 141.214 35.941 141.214C35.941 141.214 35.8351 142.03 35.0301 142.75C34.5323 143.195 34.0344 143.541 33.7979 144.092C33.752 144.194 33.7167 144.303 33.692 144.423C33.692 144.438 33.6849 144.452 33.6849 144.469C33.6355 144.738 33.639 145.048 33.7096 145.426H33.7167Z"
        fill="#263238" />
    <g opacity="0.2">
        <path
            d="M39.9271 144.466C40.0824 145.161 39.9483 145.423 39.9483 145.423H33.7201C33.6495 145.045 33.646 144.731 33.6954 144.466H39.9306H39.9271Z"
            fill="white" />
    </g>
    <path
        d="M36.1987 141.56C36.5482 141.288 37.0072 141.323 37.325 141.631C37.4097 141.712 37.5403 141.585 37.4556 141.5C37.0637 141.115 36.5023 141.094 36.0716 141.429C35.9798 141.504 36.1104 141.631 36.2022 141.56H36.1987Z"
        fill="#407BFF" />
    <path
        d="M36.0223 142.143C36.3718 141.871 36.8308 141.906 37.1486 142.213C37.2333 142.294 37.3639 142.167 37.2792 142.083C36.8873 141.698 36.3259 141.677 35.8952 142.012C35.8034 142.086 35.934 142.213 36.0258 142.143H36.0223Z"
        fill="#407BFF" />
    <path
        d="M35.8456 142.676C36.1952 142.404 36.6542 142.439 36.9719 142.746C37.0567 142.827 37.1873 142.7 37.1026 142.616C36.7107 142.231 36.1493 142.21 35.7185 142.545C35.6267 142.619 35.7574 142.746 35.8492 142.676H35.8456Z"
        fill="#407BFF" />
    <path
        d="M33.5999 78.7029L47.0484 78.8159L54.8689 77.446C54.8689 77.446 57.1144 104.541 57.6016 109.208C58.0889 113.876 58.2124 138.901 58.2124 138.901L51.7724 139.053C51.7724 139.053 49.4634 113.237 48.9443 110.709C48.4889 108.509 46.5435 93.5424 45.2583 89.9552C45.1277 90.6896 44.997 91.4275 44.8629 92.1584C44.538 95.4667 43.4965 106.013 43.0445 109.935C43.0445 109.935 42.0595 132.352 40.9155 138.863L34.9239 138.873C34.1331 129.63 33.6246 97.1685 33.6246 97.1685C33.1798 90.1176 33.5964 78.6958 33.5964 78.6958L33.5999 78.7029Z"
        fill="#263238" />
    <g opacity="0.5">
        <path
            d="M51.8221 82.2759C52.3941 84.7757 53.9229 86.7847 55.8047 87.5155C55.9071 87.5543 55.8648 87.7662 55.7624 87.7274C53.8205 86.9753 52.2529 84.9098 51.6632 82.336C51.6315 82.2018 51.7903 82.1418 51.8221 82.2759Z"
            fill="black" />
        <path
            d="M45.0467 82.2759C45.195 84.4614 45.3397 86.654 45.488 88.8395C45.4951 88.9807 45.714 88.9807 45.7069 88.8395C45.6292 87.7168 45.5551 86.594 45.481 85.4677C46.0212 85.8843 46.6531 85.3794 46.8297 84.8216C47.1192 83.9177 47.0097 82.8444 46.7838 81.9441C46.7485 81.8064 46.5366 81.8664 46.5719 82.0005C46.7308 82.6361 46.7979 83.2857 46.752 83.9389C46.7308 84.2708 46.699 84.6521 46.5437 84.9557C46.3707 85.2947 45.9329 85.5807 45.5833 85.2735C45.5445 85.2417 45.5021 85.2382 45.4668 85.2559C45.3997 84.2637 45.3327 83.2681 45.2656 82.2795C45.2585 82.1382 45.0396 82.1382 45.0467 82.2795V82.2759Z"
            fill="black" />
        <path
            d="M38.614 82.6467C38.6458 85.5454 36.4144 87.9745 33.5262 88.2005C33.3885 88.2111 33.3885 87.9957 33.5262 87.9851C36.2943 87.7662 38.4269 85.4183 38.3986 82.6467C38.3986 82.509 38.614 82.509 38.614 82.6467Z"
            fill="black" />
    </g>
    <path opacity="0.6"
        d="M53.7348 79.1043L49.1219 79.5281L49.3061 81.5322L53.9189 81.1083L53.7348 79.1043Z"
        fill="black" />
    <path opacity="0.6"
        d="M43.7303 80.0703L39.1017 80.2537L39.1814 82.2647L43.81 82.0812L43.7303 80.0703Z"
        fill="black" />
    <path opacity="0.6"
        d="M48.6448 79.6174L44.032 80.0413L44.2161 82.0453L48.829 81.6214L48.6448 79.6174Z"
        fill="black" />
    <g opacity="0.1">
        <path
            d="M33.5999 78.7029L47.0484 78.8159L54.8689 77.446C54.8689 77.446 57.1144 104.541 57.6016 109.208C58.0889 113.876 58.2124 138.901 58.2124 138.901L51.7724 139.053C51.7724 139.053 49.4634 113.237 48.9443 110.709C48.4889 108.509 46.5435 93.5424 45.2583 89.9552C45.1277 90.6896 44.997 91.4275 44.8629 92.1584C44.538 95.4667 43.4965 106.013 43.0445 109.935C43.0445 109.935 42.0595 132.352 40.9155 138.863L34.9239 138.873C34.1331 129.63 33.6246 97.1685 33.6246 97.1685C33.1798 90.1176 33.5964 78.6958 33.5964 78.6958L33.5999 78.7029Z"
            fill="white" />
    </g>
    <path
        d="M41.477 43.4806C41.477 43.4806 41.7701 41.3834 40.5414 37.7503C40.5414 37.7468 40.732 37.6514 40.732 37.6479C40.5626 37.1395 40.386 36.6699 40.2201 36.2639C40.2166 36.2533 40.2166 36.2497 40.2166 36.2497L45.3855 39.1414C45.3184 40.3242 45.841 42.5768 46.134 43.5265C46.134 43.5265 46.8084 44.7446 44.4993 44.9211C42.8116 45.0518 41.477 43.4771 41.477 43.4771V43.4806Z"
        fill="#EBB373" />
    <path opacity="0.2"
        d="M45.5409 40.7937L42.6174 40.2676C42.9211 41.1574 43.7649 42.1883 45.7845 42.1883C45.7845 42.1883 45.5409 41.1892 45.5444 40.7937H45.5409Z"
        fill="black" />
    <path
        d="M40.0683 33.81C40.5449 36.9877 40.7532 38.7883 42.5115 40.2677C45.1595 42.4956 48.888 40.7302 49.3681 37.4643C49.8024 34.5268 48.948 29.8239 45.7033 28.86C42.508 27.9102 39.5881 30.6324 40.0647 33.8065L40.0683 33.81Z"
        fill="#EBB373" />
    <path
        d="M44.8597 26.8157C43.5498 26.0248 39.6731 27.9526 39.3906 29.7497C37.2969 30.0675 36.8979 32.2494 37.5758 33.9265C38.0278 35.0493 39.4506 37.5208 40.6122 37.9657C41.8727 36.4263 41.3007 31.5433 41.3007 31.5433C41.442 30.936 41.795 30.6818 41.9857 30.7101C41.9857 30.7101 44.4748 31.1902 45.9577 31.1902C47.4406 31.1902 48.0656 30.6712 48.0656 30.6712C48.0656 30.6712 49.8344 30.2828 49.1212 28.3763C47.8078 24.8562 44.8561 26.8157 44.8561 26.8157H44.8597Z"
        fill="#263238" />
    <path
        d="M39.0445 36.5816C39.3728 37.3796 40.0401 37.9516 40.7004 38.2093C41.696 38.5977 41.9573 37.5243 41.7808 36.5287C41.6184 35.6319 41.2582 34.5515 40.2131 34.5868C39.1822 34.6221 38.6702 35.6672 39.0445 36.5816Z"
        fill="#EBB373" />
    <path
        d="M44.722 34.3255C44.7502 34.6539 44.9479 34.901 45.1598 34.8798C45.3751 34.8587 45.5234 34.5762 45.4952 34.2514C45.4669 33.923 45.2692 33.6759 45.0574 33.6971C44.842 33.7182 44.6937 34.0007 44.722 34.3255Z"
        fill="#263238" />
    <path
        d="M47.9312 34.1066C47.9594 34.435 48.1571 34.6821 48.369 34.6609C48.5844 34.6397 48.7327 34.3573 48.7044 34.0325C48.6762 33.7041 48.4784 33.4569 48.2666 33.4781C48.0512 33.4993 47.9029 33.7818 47.9312 34.1066Z"
        fill="#263238" />
    <path
        d="M46.876 34.1137C46.876 34.1137 48.0552 35.646 48.4436 36.278C48.0235 36.7299 47.2255 36.6099 47.2255 36.6099L46.876 34.1137Z"
        fill="#E4873E" />
    <path
        d="M43.7862 32.8568C43.8357 32.8709 43.8957 32.8603 43.9381 32.8215C44.4394 32.3519 44.9937 32.479 44.9973 32.479C45.0785 32.5002 45.1632 32.4472 45.1844 32.366C45.2056 32.2848 45.1526 32.2001 45.0714 32.1824C45.0432 32.1753 44.3512 32.0165 43.7262 32.599C43.6627 32.6555 43.6591 32.7544 43.7192 32.8144C43.7368 32.8356 43.7615 32.8462 43.7862 32.8568Z"
        fill="#263238" />
    <path
        d="M46.099 37.7468C45.5553 37.7468 45.128 37.4678 44.7785 37.1854C44.7397 37.1536 44.7361 37.1007 44.7644 37.0618C44.7962 37.023 44.8491 37.0194 44.888 37.0477C45.3893 37.4537 45.7918 37.6055 46.2332 37.5632C46.2826 37.5632 46.325 37.595 46.3285 37.6444C46.332 37.6938 46.2967 37.7362 46.2473 37.7397C46.1943 37.7432 46.1449 37.7468 46.0919 37.7468H46.099Z"
        fill="#263238" />
    <path opacity="0.2"
        d="M41.237 36.5499C41.1947 36.5499 41.1593 36.5216 41.1523 36.4792C41.0993 36.2215 40.9793 35.9814 40.8063 35.7837C40.6933 35.6566 40.5097 35.4977 40.2802 35.4624C40.0719 35.4306 39.8601 35.5224 39.7753 35.6778C39.7506 35.7201 39.6976 35.7343 39.6553 35.7131C39.6129 35.6884 39.5988 35.6354 39.62 35.593C39.7435 35.3706 40.026 35.247 40.3085 35.2894C40.5944 35.3318 40.8098 35.5189 40.9404 35.6707C41.1346 35.8896 41.2688 36.1615 41.3253 36.4475C41.3359 36.4969 41.3041 36.5428 41.2547 36.5499C41.2476 36.5499 41.2441 36.5499 41.237 36.5499Z"
        fill="black" />
    <path
        d="M49.2235 32.6025C49.2518 32.5954 49.2765 32.5778 49.2977 32.5531C49.3506 32.486 49.3436 32.3907 49.2765 32.3377C48.6233 31.7975 47.9489 32.0129 47.9172 32.0164C47.836 32.0411 47.7901 32.1294 47.8183 32.2106C47.843 32.2918 47.9277 32.3342 48.009 32.3094C48.0372 32.2989 48.5562 32.14 49.0823 32.5743C49.1247 32.6096 49.1776 32.6166 49.2235 32.6025Z"
        fill="#263238" />
    <path d="M70.9476 46.2204L71.8939 45.2707L74.7078 48.5719L73.5815 49.4793L70.9476 46.2204Z"
        fill="white" />
    <path
        d="M52.3834 45.6485C52.3834 45.6485 52.9695 44.8576 53.2873 45.0024C55.1374 45.8427 62.7743 51.6719 62.7743 51.6719L70.7784 45.6344C70.8419 45.8074 74.0619 49.4758 74.0619 49.4758C74.0619 49.4758 67.9326 57.5081 65.1257 58.4579C62.3153 59.4076 53.3508 54.62 53.3508 54.62L52.3834 45.645V45.6485Z"
        fill="#263238" />
    <path opacity="0.2"
        d="M62.7742 51.6719C62.7742 51.6719 63.2755 52.8476 63.2791 53.9209C63.2791 53.9209 63.8334 52.6287 63.5121 51.1176L62.7742 51.6754V51.6719Z"
        fill="black" />
    <path opacity="0.2"
        d="M54.3076 55.1073C54.3076 55.1073 52.5669 51.1387 52.6658 51.0823C52.7647 51.0258 56.6943 56.2441 56.6943 56.2441L54.3111 55.1037L54.3076 55.1073Z"
        fill="black" />
    <path
        d="M49.9754 44.2821C48.1465 44.1691 41.2934 44.0385 33.8224 45.5355L35.4889 69.456C35.4889 69.456 35.0016 73.4845 34.5179 77.2906C42.3314 80.3094 50.505 79.6844 55.4797 76.5845C55.4797 76.5456 54.6112 74.0353 54.1275 69.4525C53.2695 61.3777 53.3154 52.3709 51.9843 45.1083C51.949 44.9282 50.159 44.2891 49.9754 44.2785V44.2821Z"
        fill="white" />
    <path
        d="M43.9838 46.9761L44.8912 48.3354L46.0775 48.2718L46.4023 46.7077L44.9724 45.1789L43.9838 46.9761Z"
        fill="#407BFF" />
    <path opacity="0.2"
        d="M44.8913 48.3354L43.7792 73.5835L47.2357 77.2942L49.0046 73.3328L45.7281 48.4802L44.8913 48.3354Z"
        fill="black" />
    <path
        d="M44.8911 48.3353L44.7146 73.5481L47.2355 77.2942L49.3928 73.3327L46.0845 48.2435L44.8911 48.3353Z"
        fill="#407BFF" />
    <path opacity="0.2"
        d="M41.3992 46.7324L43.5671 48.3354L45.0429 45.6768L46.6882 47.6045L46.9742 44.7976C46.9742 44.7976 46.1586 46.3617 46.1374 46.2911C46.1127 46.2205 45.0571 45.2495 45.0571 45.2495L43.0799 46.5206C43.0799 46.5206 41.3816 45.5285 41.3816 45.5496C41.3816 45.5673 41.3992 46.7289 41.3992 46.7289V46.7324Z"
        fill="black" />
    <path
        d="M41.4379 41.5776L44.905 44.2574L45.9607 41.7683L47.0552 44.388L46.5539 47.1067L44.9757 45.1789C44.9757 45.1789 43.5316 47.7775 43.4116 47.8269C43.295 47.8764 41.3743 45.7297 41.3743 45.7297C41.2967 44.3916 41.3602 43.0358 41.4379 41.5776Z"
        fill="white" />
    <path
        d="M54.4206 69.5831C54.4206 69.5831 54.6889 49.79 53.2872 45.0023C53.2872 45.0023 49.8519 44.2326 47.8394 43.6819L46.24 42.4426C47.744 49.3416 47.8005 57.4516 45.9752 63.7539C44.4923 58.5461 41.3358 42.5379 41.3358 42.5379L39.3904 44.0808C34.0308 45.2495 33.1622 45.5955 33.1622 45.5955C33.1622 45.5955 33.3635 52.3391 33.42 58.1683C33.42 60.0431 35.1747 68.3368 35.1747 69.6749L32.6079 84.9628C32.6679 86.2233 42.3809 86.4351 45.4138 86.1033L46.4447 79.2608L47.7264 85.902C47.7264 85.902 56.9768 85.8844 57.57 84.7439C57.8983 84.1225 54.4241 69.5796 54.4241 69.5796L54.4206 69.5831Z"
        fill="#263238" />
    <path opacity="0.2"
        d="M41.3426 42.5627L39.3937 44.0844L38.7546 53.1195L41.3391 54.6024L40.1916 56.2194L46.0067 65.7029L45.9785 63.7539L41.3426 42.5627Z"
        fill="black" />
    <path opacity="0.2"
        d="M47.8394 43.6819L49.972 51.9755L48.3373 53.7585L49.3894 55.5415L46.007 65.7029L45.9752 63.7574C45.9752 63.7574 47.9453 55.7604 47.2675 49.9912C46.5896 44.2221 46.24 42.4426 46.24 42.4426L47.8394 43.6819Z"
        fill="black" />
    <path opacity="0.2"
        d="M46.1797 65.5337L45.8268 65.5434L46.2126 79.6185L46.5655 79.6089L46.1797 65.5337Z"
        fill="black" />
    <path opacity="0.2"
        d="M35.1502 51.5483C35.1502 51.5483 30.0166 47.4739 30.0378 52.0214C30.0519 54.5529 32.8835 67.1187 34.5924 68.3439C36.2977 69.569 37.7771 70.028 39.2106 68.531C40.5381 67.147 45.4034 58.9804 45.4034 58.9804L40.3898 55.0649L36.845 58.0236L35.1502 51.5518V51.5483Z"
        fill="black" />
    <path d="M46.6321 57.1268H45.5164L44.8702 49.391H47.2746L46.6321 57.1268Z" fill="#263238" />
    <path opacity="0.5" d="M46.6321 57.1268H45.5164L44.8702 49.391H47.2746L46.6321 57.1268Z"
        fill="white" />
    <path
        d="M46.0738 49.79C47.2477 49.79 48.1993 48.8383 48.1993 47.6645C48.1993 46.4906 47.2477 45.539 46.0738 45.539C44.9 45.539 43.9484 46.4906 43.9484 47.6645C43.9484 48.8383 44.9 49.79 46.0738 49.79Z"
        fill="#263238" />
    <path opacity="0.3"
        d="M46.0738 49.79C47.2477 49.79 48.1993 48.8383 48.1993 47.6645C48.1993 46.4906 47.2477 45.539 46.0738 45.539C44.9 45.539 43.9484 46.4906 43.9484 47.6645C43.9484 48.8383 44.9 49.79 46.0738 49.79Z"
        fill="white" />
    <path
        d="M42.8785 53.6738C42.8785 53.6738 44.2343 50.6303 44.6969 50.7186C45.1594 50.8068 45.5442 50.9234 45.5442 50.9234C45.5442 50.9234 47.3802 49.7123 47.7297 50.2172C48.0793 50.7221 47.8251 51.0928 47.8251 51.0928C47.8251 51.0928 48.7219 51.0469 48.6583 51.7284C48.5947 52.4098 48.4747 52.6922 48.4747 52.6922C48.4747 52.6922 49.0714 52.9147 49.0149 53.4584C48.9549 54.0021 48.5418 54.1681 48.5418 54.1681C48.5418 54.1681 49.4033 54.6306 48.9302 55.1496C48.457 55.6686 45.2794 56.6537 44.5062 56.403C43.7294 56.1523 42.8785 53.6738 42.8785 53.6738Z"
        fill="#EBB373" />
    <path d="M40.9932 56.2689L43.0339 53.4584L44.6651 56.3006L43.8213 58.6697L40.9932 56.2689Z"
        fill="#EBB373" />
    <path d="M41.9325 54.394L41.0145 55.4532L44.7641 58.6097L45.7068 57.4904L41.9325 54.394Z"
        fill="white" />
    <path
        d="M33.1655 45.5991C33.1655 45.5991 29.7796 46.7642 29.8008 51.3082C29.8149 53.8397 31.4214 66.6032 33.1302 67.8284C34.8391 69.0535 36.608 69.2301 38.0414 67.733C39.369 66.349 45.2229 58.6733 45.2229 58.6733L40.7459 55.1779L36.5267 59.3017L35.1568 51.5518L33.1726 45.5991H33.1655Z"
        fill="#263238" />
    <path opacity="0.2"
        d="M36.5196 59.2982C36.5196 59.2982 34.9449 60.2762 35.6087 63.648C35.7605 62.0274 36.0324 60.5375 36.5196 59.2982Z"
        fill="black" />
    <path opacity="0.2"
        d="M54.3463 55.0648C54.2227 52.9676 54.0991 50.8704 53.972 48.7731C53.9614 48.6037 53.6966 48.6037 53.7072 48.7731C53.8308 50.8704 53.9544 52.9676 54.0815 55.0648C54.0921 55.2343 54.3569 55.2343 54.3463 55.0648Z"
        fill="black" />
</svg>
