<svg width="198" height="148" viewBox="0 0 198 148" fill="none" xmlns="http://www.w3.org/2000/svg">
    <path d="M198 129.65H0V129.749H198V129.65Z" fill="#EBEBEB" />
    <path d="M178.16 136.022H165.045V136.121H178.16V136.022Z" fill="#EBEBEB" />
    <path d="M131.163 137.099H127.722V137.198H131.163V137.099Z" fill="#EBEBEB" />
    <path d="M164.649 132.347H157.05V132.446H164.649V132.347Z" fill="#EBEBEB" />
    <path d="M37.8774 133.012H20.7742V133.111H37.8774V133.012Z" fill="#EBEBEB" />
    <path d="M43.9124 133.012H41.4058V133.111H43.9124V133.012Z" fill="#EBEBEB" />
    <path d="M89.1594 134.684H52.0621V134.783H89.1594V134.684Z" fill="#EBEBEB" />
    <path
        d="M93.852 111.989H17.3884C16.7894 111.988 16.2152 111.749 15.792 111.325C15.3688 110.901 15.1312 110.327 15.1312 109.728V2.24136C15.1364 1.64579 15.3764 1.07632 15.799 0.656655C16.2216 0.236989 16.7928 0.00102025 17.3884 0H93.852C94.4517 0 95.0268 0.238229 95.4509 0.662279C95.8749 1.08633 96.1132 1.66146 96.1132 2.26116V109.728C96.1132 110.327 95.8749 110.902 95.4509 111.327C95.0268 111.751 94.4517 111.989 93.852 111.989ZM17.3884 0.0792003C16.8156 0.0802493 16.2667 0.30851 15.862 0.71388C15.4574 1.11925 15.2302 1.66861 15.2302 2.24136V109.728C15.2302 110.3 15.4574 110.85 15.862 111.255C16.2667 111.661 16.8156 111.889 17.3884 111.89H93.852C94.4251 111.889 94.9745 111.661 95.3797 111.255C95.785 110.85 96.0131 110.301 96.0142 109.728V2.24136C96.0131 1.66824 95.785 1.1189 95.3797 0.713638C94.9745 0.308381 94.4251 0.0802471 93.852 0.0792003H17.3884Z"
        fill="#EBEBEB" />
    <path
        d="M179.511 111.989H103.043C102.444 111.988 101.869 111.749 101.445 111.325C101.022 110.902 100.783 110.327 100.782 109.728V2.24136C100.788 1.64543 101.029 1.07596 101.452 0.656407C101.876 0.236851 102.447 0.00100912 103.043 0H179.511C180.106 0.00206098 180.676 0.238491 181.098 0.658044C181.519 1.0776 181.759 1.64647 181.764 2.24136V109.728C181.764 110.326 181.527 110.9 181.105 111.324C180.682 111.748 180.109 111.987 179.511 111.989ZM103.043 0.0792003C102.47 0.0802471 101.921 0.308381 101.515 0.713638C101.11 1.1189 100.882 1.66824 100.881 2.24136V109.728C100.882 110.301 101.11 110.85 101.515 111.255C101.921 111.661 102.47 111.889 103.043 111.89H179.511C180.084 111.889 180.633 111.661 181.038 111.255C181.444 110.85 181.672 110.301 181.673 109.728V2.24136C181.672 1.66824 181.444 1.1189 181.038 0.713638C180.633 0.308381 180.084 0.0802471 179.511 0.0792003H103.043Z"
        fill="#EBEBEB" />
    <path
        d="M118.337 15.5113C118.337 15.004 118.135 14.5175 117.776 14.1589C117.418 13.8002 116.931 13.5986 116.424 13.5986C116.238 13.5986 116.052 13.6253 115.874 13.6778C115.959 13.1023 115.919 12.5151 115.757 11.9563C115.595 11.3975 115.314 10.8804 114.933 10.4401C114.553 9.99989 114.082 9.64695 113.553 9.40543C113.023 9.16391 112.448 9.0395 111.866 9.04068C111.616 9.04094 111.367 9.06346 111.122 9.108C110.725 8.44559 110.123 7.93099 109.407 7.6426C108.69 7.35421 107.9 7.30785 107.155 7.51058C106.41 7.7133 105.751 8.154 105.28 8.76553C104.809 9.37706 104.55 10.1259 104.544 10.8979H104.485C103.619 10.8979 102.789 11.2417 102.177 11.8536C101.565 12.4656 101.222 13.2955 101.222 14.161C101.222 15.0264 101.565 15.8563 102.177 16.4683C102.789 17.0802 103.619 17.424 104.485 17.424H116.468C116.968 17.4136 117.444 17.2074 117.793 16.8497C118.143 16.492 118.338 16.0114 118.337 15.5113Z"
        fill="#F5F5F5" />
    <path
        d="M91.3691 25.344C91.3691 25.0909 91.2685 24.8481 91.0896 24.6692C90.9106 24.4902 90.6679 24.3896 90.4147 24.3896C90.3222 24.3886 90.23 24.402 90.1415 24.4292C90.1541 24.3321 90.1607 24.2342 90.1613 24.1362C90.1618 23.8701 90.1099 23.6066 90.0084 23.3606C89.9069 23.1146 89.758 22.8911 89.57 22.7028C89.3821 22.5144 89.1588 22.365 88.913 22.2631C88.6673 22.1611 88.4038 22.1087 88.1377 22.1087C88.0115 22.1084 87.8855 22.1203 87.7615 22.1443C87.5621 21.8159 87.2611 21.5613 86.9042 21.419C86.5473 21.2767 86.1538 21.2544 85.7831 21.3555C85.4124 21.4566 85.0846 21.6755 84.8493 21.9792C84.614 22.283 84.4839 22.6551 84.4787 23.0393H84.451C84.0183 23.0393 83.6033 23.2112 83.2973 23.5171C82.9914 23.8231 82.8195 24.2381 82.8195 24.6708C82.8195 25.1035 82.9914 25.5185 83.2973 25.8245C83.6033 26.1304 84.0183 26.3023 84.451 26.3023H90.4425C90.6918 26.2961 90.9286 26.1921 91.102 26.0129C91.2753 25.8336 91.3713 25.5934 91.3691 25.344Z"
        fill="#F5F5F5" />
    <path
        d="M37.3666 57.5151C37.3666 57.2653 37.2688 57.0255 37.0941 56.8471C36.9194 56.6687 36.6817 56.5659 36.432 56.5607C36.3394 56.5593 36.2472 56.5727 36.1588 56.6003C36.1648 56.5027 36.1648 56.4048 36.1588 56.3073C36.1588 55.7695 35.9452 55.2538 35.5649 54.8736C35.1847 54.4933 34.669 54.2797 34.1312 54.2797C34.0063 54.2796 33.8817 54.2916 33.759 54.3154C33.5566 53.9942 33.2563 53.7466 32.9025 53.6091C32.5486 53.4717 32.1599 53.4516 31.7938 53.5519C31.4276 53.6522 31.1035 53.8675 30.8691 54.1662C30.6347 54.4648 30.5025 54.8308 30.492 55.2103H30.4643C30.0316 55.2103 29.6166 55.3822 29.3106 55.6882C29.0047 55.9942 28.8328 56.4091 28.8328 56.8418C28.8328 57.2746 29.0047 57.6895 29.3106 57.9955C29.6166 58.3015 30.0316 58.4734 30.4643 58.4734H36.432C36.6827 58.4692 36.9216 58.3661 37.0966 58.1866C37.2717 58.0072 37.3687 57.7658 37.3666 57.5151Z"
        fill="#F5F5F5" />
    <path
        d="M166.542 57.9031C166.542 57.649 166.441 57.4052 166.261 57.2255C166.081 57.0458 165.838 56.9448 165.583 56.9448C165.491 56.9451 165.398 56.9598 165.31 56.9884C165.323 56.8899 165.329 56.7907 165.33 56.6914C165.33 56.1547 165.117 55.64 164.737 55.2605C164.358 54.881 163.843 54.6678 163.306 54.6678C163.18 54.6675 163.054 54.6795 162.93 54.7035C162.732 54.3741 162.431 54.1184 162.074 53.9754C161.717 53.8324 161.323 53.8098 160.952 53.9111C160.581 54.0123 160.254 54.2319 160.019 54.5365C159.784 54.841 159.655 55.2139 159.651 55.5984H159.62C159.187 55.5984 158.772 55.7703 158.466 56.0763C158.16 56.3822 157.988 56.7972 157.988 57.2299C157.988 57.6626 158.16 58.0776 158.466 58.3836C158.772 58.6896 159.187 58.8615 159.62 58.8615H165.611C165.86 58.8542 166.097 58.7501 166.271 58.5712C166.445 58.3922 166.542 58.1526 166.542 57.9031Z"
        fill="#F5F5F5" />
    <path
        d="M65.8469 15.5984C65.8469 15.4338 65.8144 15.2707 65.7512 15.1186C65.6881 14.9666 65.5956 14.8284 65.4789 14.7122C65.3623 14.5959 65.2239 14.5038 65.0716 14.4412C64.9194 14.3785 64.7562 14.3466 64.5915 14.3471C64.4695 14.3456 64.3479 14.363 64.2312 14.3986C64.251 14.2675 64.2603 14.1351 64.2589 14.0026C64.2594 13.6535 64.191 13.3077 64.0577 12.9851C63.9243 12.6625 63.7286 12.3693 63.4818 12.1225C63.235 11.8757 62.9418 11.6799 62.6192 11.5466C62.2966 11.4132 61.9508 11.3449 61.6017 11.3454C61.4382 11.3451 61.2751 11.361 61.1147 11.3929C60.8526 10.961 60.4568 10.6264 59.9873 10.4399C59.5178 10.2534 59.0003 10.2252 58.5133 10.3596C58.0263 10.494 57.5965 10.7837 57.2891 11.1846C56.9817 11.5855 56.8135 12.0757 56.8101 12.5809H56.7705C56.2034 12.5809 55.6595 12.8062 55.2585 13.2072C54.8574 13.6083 54.6321 14.1522 54.6321 14.7193C54.6321 15.2865 54.8574 15.8304 55.2585 16.2314C55.6595 16.6324 56.2034 16.8577 56.7705 16.8577H64.6272C64.9546 16.8484 65.2654 16.7115 65.4933 16.4763C65.7211 16.241 65.848 15.926 65.8469 15.5984Z"
        fill="#F5F5F5" />
    <path
        d="M159.588 45.6865C159.653 45.4433 159.692 45.1937 159.703 44.942C159.794 43.3976 161.267 43.6432 162.518 43.4333C163.496 43.2709 160.907 40.7999 162.879 40C163.263 39.897 163.599 39.6631 163.829 39.3386C163.929 39.0963 163.942 38.8265 163.863 38.5761C163.785 38.3257 163.622 38.1107 163.401 37.9685C162.95 37.6986 162.43 37.5678 161.905 37.5923C161.58 37.1963 161.845 36.6142 162.154 36.2142C162.463 35.8142 162.847 35.3588 162.728 34.8678C162.55 34.1233 161.513 34.0758 160.748 34.2421C160.471 33.7907 160.475 33.2284 160.352 32.7175C160.229 32.2067 159.814 31.6721 159.287 31.7354C158.76 31.7988 158.495 32.3532 158.008 32.468C157.446 32.6027 156.959 32.1037 156.519 31.7315C156.079 31.3592 155.303 31.1256 155.002 31.6166C154.82 31.9097 154.927 32.3215 154.737 32.6106C154.412 33.1135 153.632 32.8007 153.153 32.4443C152.674 32.0879 151.902 31.7671 151.569 32.2621C151.483 32.4245 151.419 32.5976 151.379 32.7769C151.153 33.4343 150.44 33.763 149.886 34.1867C149.332 34.6104 148.892 35.4499 149.359 35.9647C149.593 36.2182 150.001 36.3211 150.116 36.6458C150.258 37.0418 149.846 37.4141 149.518 37.6913C148.971 38.1546 148.872 39.5446 149.593 39.9208C149.898 40.0831 150.341 40.1306 150.413 40.4633C150.484 40.7959 150.179 40.9939 149.977 41.2236C149.849 41.3869 149.759 41.5761 149.711 41.7779C149.664 41.9797 149.661 42.1895 149.703 42.3925C149.745 42.5956 149.83 42.7871 149.954 42.9538C150.077 43.1205 150.235 43.2585 150.417 43.358C150.587 43.4412 150.813 43.5085 150.864 43.6907C150.891 43.8237 150.877 43.9616 150.824 44.0867C150.751 44.3438 150.727 44.6126 150.753 44.8787C150.753 44.9683 150.787 45.0545 150.848 45.1202C150.916 45.166 150.997 45.1882 151.078 45.1836C152.119 45.2311 152.618 44.8628 153.256 45.7657C153.31 45.8589 153.385 45.9388 153.474 45.9994C153.563 46.0434 153.66 46.0677 153.759 46.0706C154.476 46.13 154.947 45.6746 155.596 45.5994C156.503 45.4846 156.697 45.9518 157.493 46.328C158.729 46.9062 159.338 46.5419 159.588 45.6865Z"
        fill="#F5F5F5" />
    <path
        d="M147.585 44.3876C147.651 44.1458 147.689 43.8975 147.7 43.6471C147.791 42.1027 149.264 42.3483 150.516 42.1384C151.494 41.976 148.904 39.505 150.876 38.7051C151.26 38.6021 151.596 38.3682 151.826 38.0437C151.927 37.8015 151.94 37.5314 151.862 37.2808C151.784 37.0303 151.62 36.8153 151.399 36.6736C150.95 36.3968 150.429 36.259 149.902 36.2776C149.577 35.8816 149.838 35.2995 150.151 34.8995C150.464 34.4995 150.844 34.0441 150.726 33.5531C150.547 32.8086 149.51 32.7809 148.746 32.9274C148.468 32.476 148.472 31.9137 148.35 31.4028C148.227 30.892 147.811 30.3574 147.284 30.4207C146.758 30.4841 146.492 31.0385 146.005 31.1533C145.443 31.284 144.956 30.789 144.512 30.4168C144.069 30.0445 143.301 29.8109 142.996 30.3019C142.813 30.595 142.924 31.0068 142.734 31.2959C142.406 31.7988 141.629 31.486 141.15 31.1296C140.671 30.7732 139.899 30.4524 139.566 30.9434C139.481 31.1074 139.417 31.2818 139.376 31.4622C139.15 32.1196 138.438 32.4482 137.883 32.872C137.329 33.2957 136.889 34.1312 137.357 34.65C137.59 34.9034 137.998 35.0064 138.113 35.3311C138.255 35.7271 137.84 36.0994 137.515 36.3766C136.968 36.8399 136.869 38.2299 137.59 38.6061C137.895 38.7684 138.339 38.8159 138.41 39.1486C138.481 39.4812 138.176 39.6792 137.974 39.9089C137.847 40.0722 137.756 40.2613 137.709 40.4632C137.661 40.665 137.658 40.8747 137.7 41.0778C137.742 41.2809 137.828 41.4724 137.951 41.6391C138.074 41.8058 138.232 41.9438 138.414 42.0433C138.584 42.1265 138.81 42.1938 138.861 42.376C138.889 42.5089 138.875 42.647 138.822 42.772C138.748 43.0291 138.724 43.2978 138.75 43.564C138.75 43.6549 138.784 43.7428 138.846 43.8095C138.913 43.8552 138.994 43.8775 139.075 43.8728C140.113 43.9204 140.616 43.5521 141.253 44.455C141.306 44.5467 141.379 44.6252 141.467 44.6846C141.557 44.7294 141.656 44.755 141.756 44.7599C142.473 44.8153 142.944 44.3639 143.594 44.2886C144.5 44.1698 144.69 44.6411 145.49 45.0133C146.742 45.6113 147.352 45.247 147.585 44.3876Z"
        fill="#F5F5F5" />
    <path
        d="M146.433 36.7567C146.495 36.513 146.532 36.2635 146.544 36.0122C146.635 34.4678 148.108 34.7134 149.359 34.5035C150.337 34.3411 147.748 31.8701 149.72 31.0702C150.104 30.9662 150.442 30.7326 150.674 30.4088C150.772 30.1659 150.783 29.8962 150.704 29.6462C150.626 29.3962 150.462 29.1814 150.242 29.0387C149.792 28.7682 149.27 28.6386 148.746 28.6664C148.425 28.2704 148.686 27.6844 148.995 27.2844C149.304 26.8844 149.688 26.433 149.573 25.938C149.395 25.1935 148.353 25.1698 147.593 25.3123C147.316 24.8648 147.324 24.3025 147.197 23.7917C147.07 23.2808 146.655 22.7423 146.132 22.8056C145.609 22.869 145.34 23.4234 144.849 23.5382C144.287 23.6729 143.799 23.1739 143.36 22.8017C142.92 22.4294 142.144 22.1958 141.843 22.6868C141.661 22.9799 141.768 23.3917 141.578 23.6808C141.253 24.1837 140.473 23.8709 139.994 23.5145C139.515 23.1581 138.743 22.8373 138.41 23.3323C138.325 23.4948 138.263 23.668 138.224 23.8471C137.994 24.5045 137.281 24.8332 136.727 25.2569C136.173 25.6806 135.733 26.5201 136.204 27.0349C136.434 27.2884 136.842 27.3913 136.957 27.716C137.099 28.112 136.687 28.4843 136.359 28.7615C135.812 29.2248 135.713 30.6148 136.434 30.9949C136.739 31.1533 137.182 31.2008 137.258 31.5335C137.333 31.8661 137.02 32.0641 136.818 32.2978C136.692 32.4612 136.602 32.6501 136.556 32.8514C136.509 33.0527 136.507 33.2616 136.548 33.464C136.59 33.6663 136.675 33.8572 136.797 34.0237C136.92 34.1901 137.077 34.3281 137.258 34.4282C137.432 34.5114 137.654 34.5787 137.705 34.7609C137.732 34.8939 137.718 35.0318 137.665 35.1569C137.594 35.4077 137.57 35.6695 137.594 35.9291C137.598 36.018 137.631 36.1031 137.689 36.1706C137.757 36.2148 137.838 36.237 137.919 36.234C138.96 36.2815 139.463 35.9132 140.097 36.8201C140.151 36.9121 140.226 36.9906 140.315 37.0498C140.403 37.0937 140.501 37.1181 140.6 37.121C141.317 37.1804 141.788 36.725 142.437 36.6498C143.344 36.535 143.538 37.0022 144.338 37.3784C145.585 37.9764 146.195 37.62 146.433 36.7567Z"
        fill="#F5F5F5" />
    <path
        d="M138.537 40.5583C138.599 40.3147 138.636 40.0652 138.648 39.8138C138.739 38.2734 140.212 38.515 141.463 38.309C142.441 38.1427 139.851 35.6717 141.823 34.8757C142.208 34.769 142.545 34.5343 142.778 34.2104C142.877 33.9681 142.888 33.6989 142.809 33.4494C142.73 33.1998 142.566 32.9857 142.346 32.8442C141.897 32.5708 141.375 32.4396 140.849 32.468C140.529 32.072 140.79 31.486 141.099 31.086C141.408 30.686 141.792 30.2346 141.673 29.7396C141.495 28.9951 140.457 28.9714 139.693 29.1139C139.416 28.6664 139.424 28.1041 139.297 27.5933C139.17 27.0824 138.754 26.5439 138.232 26.6112C137.709 26.6785 137.44 27.229 136.949 27.3398C136.386 27.4745 135.899 26.9755 135.46 26.6033C135.02 26.231 134.244 25.9974 133.943 26.4884C133.761 26.7815 133.868 27.1933 133.678 27.4824C133.353 27.9853 132.573 27.6725 132.094 27.3161C131.615 26.9597 130.842 26.6389 130.51 27.1339C130.425 27.2964 130.362 27.4696 130.324 27.6487C130.094 28.3061 129.381 28.6348 128.827 29.0585C128.272 29.4822 127.833 30.3217 128.304 30.8365C128.534 31.09 128.942 31.1929 129.056 31.5176C129.199 31.9136 128.787 32.2859 128.458 32.567C127.912 33.0304 127.813 34.4164 128.534 34.7965C128.839 34.9549 129.282 35.0024 129.357 35.339C129.433 35.6756 129.12 35.8697 128.918 36.0994C128.791 36.2626 128.701 36.4514 128.654 36.6529C128.607 36.8543 128.604 37.0635 128.646 37.266C128.688 37.4686 128.773 37.6596 128.896 37.826C129.019 37.9924 129.176 38.1302 129.357 38.2298C129.528 38.313 129.753 38.3803 129.805 38.5625C129.831 38.6955 129.818 38.8334 129.765 38.9585C129.694 39.2093 129.67 39.4711 129.694 39.7307C129.698 39.8196 129.731 39.9047 129.789 39.9722C129.857 40.0164 129.937 40.0386 130.019 40.0356C131.06 40.0831 131.559 39.7148 132.197 40.6217C132.251 40.7137 132.325 40.7922 132.414 40.8514C132.503 40.8971 132.6 40.9216 132.7 40.9226C133.416 40.982 133.888 40.5266 134.537 40.4514C135.444 40.3366 135.638 40.8038 136.438 41.18C137.689 41.778 138.299 41.4137 138.537 40.5583Z"
        fill="#F5F5F5" />
    <path
        d="M130.553 38.808C130.615 38.5654 130.653 38.3174 130.668 38.0675C130.759 36.5231 132.232 36.7686 133.484 36.5587C134.462 36.3964 131.872 33.9253 133.844 33.1254C134.227 33.02 134.562 32.7866 134.794 32.4641C134.896 32.2218 134.908 31.9517 134.83 31.7012C134.752 31.4506 134.588 31.2356 134.367 31.0939C133.915 30.8245 133.395 30.6937 132.87 30.7177C132.545 30.3217 132.806 29.7396 133.119 29.3396C133.432 28.9397 133.812 28.4843 133.694 27.9932C133.515 27.2488 132.478 27.2012 131.714 27.3676C131.436 26.9161 131.44 26.3538 131.318 25.843C131.195 25.3321 130.779 24.7975 130.252 24.8609C129.726 24.9242 129.46 25.4786 128.973 25.5935C128.411 25.7242 127.924 25.2292 127.48 24.8569C127.037 24.4847 126.269 24.2471 125.964 24.7421C125.781 25.0351 125.892 25.447 125.702 25.736C125.374 26.239 124.597 25.9261 124.118 25.5697C123.639 25.2133 122.867 24.8886 122.534 25.3836C122.45 25.5477 122.387 25.7221 122.348 25.9024C122.122 26.5597 121.41 26.8884 120.855 27.3121C120.301 27.7358 119.861 28.5714 120.329 29.0902C120.562 29.3436 120.966 29.4466 121.085 29.7713C121.227 30.1673 120.812 30.5395 120.487 30.8167C119.94 31.28 119.841 32.67 120.562 33.0462C120.863 33.2086 121.311 33.2561 121.382 33.5887C121.453 33.9214 121.148 34.1194 120.946 34.349C120.819 34.5124 120.729 34.7013 120.682 34.9028C120.634 35.1044 120.631 35.3137 120.673 35.5165C120.714 35.7194 120.799 35.9108 120.921 36.0777C121.044 36.2446 121.201 36.3831 121.382 36.4835C121.556 36.5666 121.778 36.634 121.833 36.8161C121.861 36.9491 121.847 37.0872 121.794 37.2121C121.723 37.463 121.699 37.7247 121.722 37.9843C121.722 38.0753 121.756 38.1631 121.817 38.2298C121.884 38.275 121.963 38.2972 122.043 38.2932C123.085 38.3407 123.588 37.9724 124.225 38.8753C124.278 38.9671 124.351 39.0456 124.439 39.105C124.529 39.1504 124.628 39.1748 124.728 39.1763C125.445 39.2357 125.916 38.7803 126.566 38.709C127.472 38.5902 127.662 39.0575 128.462 39.4337C129.71 40.0237 130.32 39.6594 130.553 38.808Z"
        fill="#F5F5F5" />
    <path
        d="M130.45 47.3378C130.5 47.1461 130.529 46.9497 130.537 46.7518C130.609 45.54 131.769 45.7301 132.755 45.5638C133.527 45.4331 131.488 43.4887 133.04 42.8591C133.343 42.7767 133.607 42.592 133.789 42.3364C133.868 42.1459 133.877 41.9336 133.816 41.7367C133.754 41.5397 133.626 41.3707 133.452 41.2592C133.094 41.0439 132.681 40.9405 132.264 40.9622C132.011 40.6573 132.216 40.194 132.462 39.8772C132.707 39.5604 133.008 39.204 132.913 38.8159C132.775 38.2298 131.955 38.21 131.365 38.3249C131.202 37.9462 131.094 37.5461 131.044 37.1369C130.937 36.7409 130.617 36.3132 130.205 36.3647C129.793 36.4162 129.579 36.8518 129.199 36.9389C128.755 37.0458 128.371 36.6538 128.011 36.3568C127.651 36.0598 127.057 35.8816 126.823 36.2696C126.68 36.4993 126.767 36.824 126.617 37.0616C126.36 37.4576 125.75 37.2121 125.37 36.931C124.989 36.6498 124.384 36.4003 124.114 36.7884C124.05 36.914 124 37.047 123.968 37.1844C123.79 37.7032 123.227 37.9764 122.78 38.2972C122.332 38.6179 121.988 39.2911 122.364 39.695C122.55 39.897 122.867 39.9762 122.958 40.2336C123.073 40.5504 122.748 40.8395 122.491 41.0573C122.059 41.4216 121.98 42.5146 122.55 42.8116C122.788 42.9383 123.136 42.9779 123.196 43.2392C123.255 43.5006 123.009 43.659 122.851 43.8412C122.751 43.9698 122.68 44.1185 122.643 44.2771C122.607 44.4357 122.604 44.6004 122.637 44.7599C122.67 44.9194 122.737 45.07 122.833 45.2012C122.929 45.3324 123.053 45.4413 123.196 45.5202C123.334 45.5836 123.5 45.639 123.552 45.7816C123.573 45.8883 123.561 45.999 123.516 46.0984C123.462 46.2954 123.444 46.5008 123.465 46.7042C123.463 46.7391 123.469 46.7738 123.481 46.8065C123.494 46.8391 123.512 46.869 123.536 46.8943C123.589 46.9314 123.654 46.9496 123.718 46.9458C124.538 46.9814 124.93 46.6924 125.433 47.4052C125.476 47.4775 125.534 47.5397 125.603 47.5873C125.673 47.6237 125.75 47.6428 125.829 47.6428C126.391 47.6903 126.76 47.3378 127.274 47.2745C127.991 47.1834 128.142 47.5517 128.771 47.8447C129.785 48.312 130.284 48.011 130.45 47.3378Z"
        fill="#F5F5F5" />
    <path
        d="M125.979 44.3876C126.042 44.1453 126.079 43.8971 126.09 43.6471C126.181 42.1027 127.655 42.3483 128.906 42.1384C129.884 41.976 127.294 39.505 129.266 38.7051C129.651 38.6011 129.988 38.3675 130.221 38.0437C130.32 37.8009 130.331 37.531 130.252 37.2808C130.173 37.0305 130.009 36.8158 129.789 36.6736C129.34 36.3968 128.819 36.259 128.292 36.2776C127.971 35.8816 128.233 35.2995 128.542 34.8995C128.85 34.4995 129.235 34.0441 129.12 33.5531C128.942 32.8086 127.9 32.7809 127.14 32.9274C126.863 32.476 126.87 31.9137 126.744 31.4028C126.617 30.892 126.201 30.3574 125.679 30.4207C125.156 30.4841 124.887 31.0385 124.395 31.1533C123.833 31.284 123.346 30.789 122.907 30.4168C122.467 30.0445 121.695 29.8109 121.39 30.3019C121.208 30.595 121.315 31.0068 121.128 31.2959C120.8 31.7988 120.024 31.486 119.544 31.1296C119.065 30.7732 118.293 30.4524 117.96 30.9434C117.876 31.1076 117.814 31.282 117.774 31.4622C117.545 32.1196 116.832 32.4482 116.277 32.872C115.723 33.2957 115.284 34.1312 115.755 34.65C115.984 34.9034 116.392 35.0064 116.507 35.3311C116.65 35.7271 116.238 36.0994 115.909 36.3766C115.363 36.8399 115.268 38.2299 115.984 38.6061C116.289 38.7684 116.733 38.8159 116.808 39.1486C116.883 39.4812 116.571 39.6792 116.369 39.9089C116.242 40.0727 116.153 40.2619 116.106 40.4634C116.06 40.665 116.057 40.8743 116.099 41.0769C116.14 41.2796 116.225 41.4708 116.348 41.6376C116.47 41.8044 116.627 41.9428 116.808 42.0433C116.982 42.1265 117.204 42.1938 117.256 42.376C117.283 42.5089 117.269 42.647 117.216 42.772C117.142 43.029 117.119 43.2981 117.149 43.564C117.147 43.6544 117.179 43.7422 117.24 43.8095C117.308 43.8537 117.388 43.8758 117.469 43.8728C118.511 43.9204 119.014 43.5521 119.647 44.455C119.702 44.5469 119.776 44.6254 119.865 44.6846C119.954 44.7299 120.051 44.7556 120.15 44.7599C120.867 44.8153 121.338 44.3639 121.988 44.2886C122.895 44.1698 123.089 44.6411 123.889 45.0133C125.136 45.6113 125.742 45.247 125.979 44.3876Z"
        fill="#F5F5F5" />
    <path
        d="M138.537 31.1692C138.599 30.9254 138.636 30.676 138.648 30.4247C138.739 28.8803 140.212 29.1258 141.463 28.9159C142.441 28.7536 139.851 26.2825 141.823 25.4826C142.208 25.3786 142.545 25.145 142.778 24.8213C142.876 24.5783 142.887 24.3087 142.808 24.0587C142.729 23.8086 142.566 23.5938 142.346 23.4511C141.897 23.1743 141.376 23.0365 140.849 23.0551C140.529 22.6591 140.79 22.077 141.099 21.677C141.408 21.2771 141.792 20.8217 141.673 20.3306C141.495 19.5862 140.457 19.5386 139.693 19.705C139.416 19.2535 139.424 18.6952 139.297 18.1843C139.17 17.6735 138.754 17.1349 138.232 17.1983C137.709 17.2616 137.44 17.816 136.949 17.9309C136.386 18.0655 135.899 17.5666 135.46 17.1943C135.02 16.8221 134.244 16.5884 133.943 17.0795C133.761 17.3725 133.868 17.7844 133.678 18.0734C133.353 18.5764 132.573 18.2635 132.094 17.9071C131.615 17.5507 130.842 17.23 130.51 17.725C130.425 17.8874 130.362 18.0606 130.324 18.2398C130.094 18.8971 129.381 19.2258 128.827 19.6495C128.272 20.0732 127.833 20.9128 128.304 21.4276C128.534 21.681 128.942 21.784 129.056 22.1087C129.199 22.5047 128.787 22.8769 128.458 23.1541C127.912 23.6174 127.813 25.0074 128.534 25.3876C128.839 25.546 129.282 25.5935 129.357 25.9261C129.433 26.2588 129.12 26.4568 128.918 26.6904C128.791 26.8536 128.701 27.0425 128.654 27.2439C128.607 27.4453 128.604 27.6545 128.646 27.857C128.688 28.0596 128.773 28.2507 128.896 28.4171C129.019 28.5835 129.176 28.7212 129.357 28.8209C129.528 28.904 129.753 28.9714 129.805 29.1535C129.831 29.2865 129.818 29.4244 129.765 29.5495C129.694 29.8003 129.67 30.0621 129.694 30.3217C129.698 30.4106 129.731 30.4957 129.789 30.5633C129.857 30.6075 129.937 30.6296 130.019 30.6266C131.06 30.6742 131.559 30.3059 132.197 31.2088C132.251 31.3019 132.325 31.3818 132.414 31.4424C132.503 31.4864 132.601 31.5107 132.7 31.5137C133.416 31.5731 133.888 31.1177 134.537 31.0424C135.444 30.9276 135.638 31.3949 136.438 31.7711C137.689 32.3888 138.299 32.0245 138.537 31.1692Z"
        fill="#F5F5F5" />
    <path
        d="M148.789 31.68C148.852 31.4363 148.889 31.1868 148.9 30.9355C148.991 29.3951 150.464 29.6406 151.716 29.4307C152.694 29.2644 150.104 26.7934 152.076 25.9974C152.46 25.8906 152.797 25.656 153.03 25.3321C153.129 25.0898 153.14 24.8206 153.061 24.571C152.982 24.3215 152.819 24.1074 152.599 23.9659C152.15 23.6874 151.629 23.5494 151.102 23.5699C150.781 23.1739 151.042 22.5878 151.351 22.1918C151.66 21.7958 152.044 21.3365 151.925 20.8415C151.747 20.101 150.71 20.0732 149.945 20.2158C149.668 19.7683 149.676 19.206 149.549 18.6952C149.423 18.1843 149.007 17.6497 148.484 17.7131C147.961 17.7764 147.692 18.3308 147.201 18.4457C146.639 18.5764 146.152 18.0774 145.712 17.7052C145.273 17.3329 144.496 17.0993 144.195 17.5903C144.013 17.8873 144.12 18.2952 143.93 18.5843C143.605 19.0872 142.825 18.7744 142.346 18.4219C141.867 18.0695 141.095 17.7408 140.762 18.2358C140.677 18.3983 140.615 18.5714 140.576 18.7506C140.346 19.4119 139.634 19.7366 139.079 20.1604C138.525 20.5841 138.085 21.4236 138.556 21.9384C138.786 22.1918 139.194 22.2948 139.309 22.6195C139.451 23.0155 139.04 23.3878 138.711 23.6689C138.164 24.1322 138.065 25.5182 138.786 25.8984C139.091 26.0568 139.535 26.1083 139.61 26.4409C139.685 26.7736 139.372 26.9716 139.17 27.2012C139.043 27.3645 138.953 27.5533 138.906 27.7547C138.859 27.9562 138.857 28.1653 138.898 28.3679C138.94 28.5704 139.026 28.7615 139.148 28.9279C139.271 29.0943 139.429 29.2321 139.61 29.3317C139.78 29.4149 140.006 29.4862 140.057 29.6644C140.084 29.7974 140.07 29.9353 140.018 30.0604C139.944 30.3175 139.92 30.5862 139.946 30.8524C139.946 30.9421 139.98 31.0286 140.041 31.0939C140.108 31.1427 140.189 31.1652 140.271 31.1573C141.313 31.2048 141.812 30.8365 142.449 31.7434C142.502 31.8361 142.577 31.9149 142.667 31.973C142.755 32.0188 142.853 32.0432 142.952 32.0443C143.669 32.1037 144.14 31.6483 144.789 31.5731C145.696 31.4582 145.89 31.9255 146.69 32.3017C147.942 32.9116 148.551 32.5472 148.789 31.68Z"
        fill="#F5F5F5" />
    <path
        d="M155.014 35.8855C155.076 35.6429 155.114 35.3949 155.129 35.145C155.22 33.6006 156.689 33.8461 157.945 33.6362C158.923 33.4739 156.333 31.0028 158.305 30.2029C158.689 30.099 159.025 29.8653 159.255 29.5416C159.355 29.2992 159.367 29.0296 159.289 28.7794C159.21 28.5292 159.047 28.3142 158.828 28.1714C158.377 27.8945 157.855 27.7568 157.327 27.7754C157.006 27.3794 157.267 26.7973 157.58 26.3974C157.893 25.9974 158.273 25.542 158.154 25.051C157.976 24.3065 156.939 24.259 156.174 24.4253C155.897 23.9738 155.901 23.4115 155.778 22.9007C155.656 22.3898 155.24 21.8552 154.713 21.9186C154.187 21.982 153.921 22.5364 153.434 22.6512C152.872 22.7858 152.385 22.2869 151.941 21.9146C151.498 21.5424 150.729 21.3088 150.425 21.7998C150.242 22.0928 150.353 22.5047 150.163 22.7938C149.835 23.2967 149.058 22.9838 148.579 22.6274C148.1 22.271 147.328 21.9503 146.995 22.4413C146.911 22.6054 146.848 22.7798 146.809 22.9601C146.579 23.6174 145.871 23.9461 145.316 24.3698C144.762 24.7936 144.322 25.6331 144.789 26.1479C145.023 26.4013 145.427 26.5043 145.542 26.829C145.688 27.225 145.273 27.5972 144.948 27.8744C144.401 28.3378 144.302 29.7277 145.023 30.1039C145.324 30.2663 145.768 30.3138 145.843 30.6464C145.918 30.9791 145.605 31.1771 145.407 31.4068C145.28 31.5701 145.19 31.759 145.142 31.9605C145.095 32.1621 145.092 32.3714 145.134 32.5743C145.175 32.7771 145.26 32.9685 145.382 33.1354C145.505 33.3024 145.662 33.4408 145.843 33.5412C146.017 33.6244 146.239 33.6917 146.294 33.8738C146.322 34.0071 146.307 34.1458 146.251 34.2698C146.181 34.5277 146.158 34.7959 146.183 35.0618C146.184 35.1514 146.218 35.2377 146.278 35.3034C146.345 35.3485 146.424 35.3708 146.504 35.3668C147.546 35.4143 148.049 35.046 148.682 35.9489C148.739 36.0403 148.813 36.1197 148.9 36.1825C148.99 36.226 149.089 36.2503 149.189 36.2538C149.902 36.3092 150.377 35.8578 151.026 35.7826C151.933 35.6638 152.123 36.135 152.923 36.5072C154.171 37.1092 154.781 36.7448 155.014 35.8855Z"
        fill="#F5F5F5" />
    <path
        d="M153.125 41.184C153.125 41.184 150.524 44.8628 149.625 46.031C148.726 47.1992 144.235 54.4738 143.625 59.2852C143.558 59.8 143.495 60.2395 143.431 60.6276C145.364 73.3748 145.063 122.043 144.991 126.035H137.071C138.576 96.125 138.299 55.0282 138.105 53.7728C137.903 52.4423 135.333 47.3774 131.393 45.2984C127.453 43.2194 124.027 36.333 124.027 36.333H125.286C125.286 36.333 127.623 40.5544 130.945 42.8908C131.423 43.2173 131.922 43.5123 132.438 43.7738C132.43 41.2344 132.878 38.7141 133.761 36.333L134.442 36.9626C133.523 40.7207 133.65 43.1284 133.923 44.5104C135.177 45.0997 136.335 45.8754 137.357 46.8112C140.806 42.3284 142.742 32.08 142.742 32.08L143.625 32.5631C143.373 34.6791 142.992 36.7778 142.485 38.8476C141.839 41.5008 139.938 46.4944 139.055 48.7476C140.112 50.2682 140.986 51.9085 141.657 53.6342C141.752 53.4893 141.863 53.3564 141.99 53.2382C144.235 51.2068 148.456 41.6156 148.456 41.6156C149.478 39.3862 147.918 33.5333 147.918 33.5333H149.106L149.633 38.6536L152.595 35.4182L153.133 35.8697L149.993 39.9089L148.373 45.0292L152.587 40.392L153.125 41.184Z"
        fill="#F5F5F5" />
    <path
        d="M34.0124 48.4902C33.9536 48.262 33.9178 48.0286 33.9055 47.7932C33.8224 46.3399 32.4324 46.5696 31.2523 46.3716C30.3336 46.2172 32.773 43.8887 30.9157 43.1402C30.5542 43.0389 30.2374 42.8184 30.0168 42.5146C29.9227 42.2869 29.9107 42.0335 29.983 41.798C30.0553 41.5624 30.2072 41.3594 30.4128 41.2236C30.8383 40.9676 31.3307 40.8449 31.8265 40.8712C32.1275 40.5029 31.882 39.9485 31.5889 39.5723C31.2959 39.1961 30.9355 38.7803 31.0464 38.3011C31.2167 37.6002 32.1948 37.5764 32.9036 37.715C33.165 37.2913 33.1571 36.7607 33.2996 36.2776C33.4422 35.7944 33.8105 35.2915 34.3055 35.3549C34.8005 35.4182 35.0539 35.937 35.4935 36.0439C36.0241 36.1667 36.4835 35.6994 36.8993 35.347C37.3151 34.9945 38.0398 34.7767 38.3288 35.24C38.4991 35.5172 38.3962 35.9014 38.5744 36.1746C38.8832 36.6498 39.6158 36.3568 40.0712 36.0202C40.5266 35.6836 41.2592 35.3826 41.5681 35.8459C41.6479 36.0001 41.7078 36.1637 41.7463 36.333C41.9602 36.9547 42.6294 37.2636 43.1521 37.6596C43.6748 38.0556 44.0906 38.8476 43.6471 39.3347C43.4293 39.5762 43.0452 39.6713 42.9383 39.9762C42.7997 40.3722 43.1917 40.7009 43.5006 40.9622C44.0114 41.4018 44.1065 42.7086 43.4293 43.065C43.1442 43.2155 42.7244 43.259 42.6373 43.5758C42.5502 43.8926 42.863 44.0748 43.0333 44.2926C43.1539 44.4452 43.2399 44.6221 43.2855 44.8112C43.3312 45.0002 43.3353 45.1969 43.2977 45.3877C43.2601 45.5785 43.1815 45.7588 43.0675 45.9164C42.9535 46.0739 42.8068 46.2049 42.6373 46.3003C42.475 46.3795 42.273 46.4429 42.2136 46.6132C42.1842 46.746 42.1981 46.8848 42.2532 47.0092C42.319 47.2447 42.3418 47.4902 42.3205 47.7338C42.32 47.8191 42.2875 47.9011 42.2294 47.9635C42.168 48.0091 42.0918 48.0303 42.0156 48.0229C41.0335 48.0665 40.5623 47.722 39.9643 48.5734C39.9117 48.6596 39.8415 48.7338 39.7584 48.7912C39.6748 48.8334 39.5828 48.8564 39.4891 48.8585C38.8159 48.9139 38.3724 48.4942 37.7586 48.415C36.9032 48.3041 36.7211 48.7476 35.9687 49.1C34.8084 49.6426 34.2342 49.298 34.0124 48.4902Z"
        fill="#F5F5F5" />
    <path
        d="M45.3024 47.2705C45.2428 47.0413 45.2083 46.8063 45.1995 46.5696C45.1123 45.1202 43.7263 45.3499 42.5463 45.1519C41.6236 44.9975 44.0629 42.669 42.2057 41.9166C41.8443 41.8171 41.5274 41.5979 41.3068 41.2949C41.2127 41.0672 41.2007 40.8138 41.273 40.5783C41.3452 40.3428 41.4972 40.1397 41.7028 40.0039C42.1268 39.7478 42.6179 39.625 43.1125 39.6515C43.4175 39.2832 43.168 38.7288 42.8749 38.3526C42.5819 37.9764 42.2215 37.5606 42.3324 37.0814C42.5027 36.3805 43.4808 36.3568 44.1897 36.4914C44.451 36.0716 44.4471 35.541 44.5857 35.0579C44.7243 34.5748 45.0925 34.0718 45.5875 34.1312C46.0825 34.1906 46.336 34.7134 46.7755 34.8242C47.3062 34.947 47.7655 34.4797 48.1813 34.1273C48.5971 33.7748 49.3258 33.557 49.6109 34.0204C49.7812 34.2976 49.6782 34.6817 49.8564 34.9549C50.1653 35.4301 50.8979 35.1371 51.3533 34.8005C51.8087 34.4639 52.5413 34.1629 52.8502 34.6262C52.9317 34.7796 52.9917 34.9435 53.0284 35.1133C53.2422 35.7311 53.9154 36.0439 54.4342 36.4399C54.9529 36.8359 55.3727 37.6279 54.9292 38.115C54.7114 38.3566 54.3273 38.4516 54.2203 38.7565C54.0857 39.1525 54.4738 39.4812 54.7827 39.7426C55.2975 40.1782 55.3885 41.485 54.7114 41.8453C54.4263 41.9958 54.0065 42.0394 53.9392 42.3562C53.8719 42.673 54.1609 42.8551 54.3352 43.0729C54.4557 43.2255 54.5418 43.4024 54.5874 43.5915C54.633 43.7805 54.6372 43.9772 54.5995 44.168C54.5619 44.3588 54.4834 44.5391 54.3694 44.6967C54.2554 44.8542 54.1086 44.9852 53.9392 45.0806C53.7768 45.1598 53.5788 45.2232 53.5194 45.3935C53.4907 45.526 53.5031 45.6642 53.5551 45.7895C53.6228 46.0247 53.6457 46.2705 53.6224 46.5142C53.6235 46.5997 53.5907 46.6823 53.5313 46.7438C53.4682 46.7859 53.3932 46.8067 53.3175 46.8032C52.3393 46.8468 51.8641 46.5023 51.2662 47.3537C51.2136 47.4399 51.1434 47.5141 51.0603 47.5715C50.9768 47.6142 50.8847 47.6372 50.791 47.6388C50.1178 47.6942 49.6782 47.2745 49.0605 47.1953C48.2051 47.0844 48.0269 47.5279 47.2745 47.8804C46.0984 48.4229 45.54 48.0784 45.3024 47.2705Z"
        fill="#F5F5F5" />
    <path
        d="M46.3914 40.0792C46.3323 39.8511 46.2965 39.6175 46.2845 39.3822C46.2013 37.9289 44.8114 38.1586 43.6313 37.9606C42.7126 37.8061 45.1519 35.4776 43.2947 34.7292C42.9329 34.6284 42.616 34.4078 42.3958 34.1035C42.3017 33.8758 42.2897 33.6225 42.362 33.3869C42.4342 33.1514 42.5862 32.9483 42.7918 32.8126C43.218 32.5584 43.7098 32.4358 44.2055 32.4601C44.5064 32.0918 44.2609 31.5374 43.9679 31.1612C43.6748 30.785 43.3145 30.3692 43.4254 29.8901C43.5957 29.1931 44.5738 29.1654 45.2826 29.304C45.544 28.8803 45.536 28.3496 45.6786 27.8665C45.8212 27.3834 46.1894 26.8805 46.6844 26.9438C47.1794 27.0072 47.4329 27.526 47.8724 27.6329C48.4031 27.7556 48.8625 27.2884 49.2783 26.9359C49.6941 26.5835 50.4187 26.3657 50.7078 26.829C50.8781 27.1062 50.7751 27.4943 50.9533 27.7636C51.2622 28.2388 51.9948 27.9457 52.4502 27.6091C52.9056 27.2725 53.6382 26.9716 53.9471 27.4349C54.0269 27.589 54.0868 27.7527 54.1253 27.922C54.3391 28.5437 55.0084 28.8526 55.5311 29.2486C56.0538 29.6446 56.4696 30.4366 56.0261 30.9236C55.8083 31.1652 55.4242 31.2602 55.3173 31.5652C55.1826 31.9612 55.5707 32.2898 55.8796 32.5512C56.3944 32.9908 56.4854 34.2976 55.8083 34.654C55.5232 34.8044 55.1034 34.848 55.0163 35.1648C54.9292 35.4816 55.242 35.6638 55.4123 35.8816C55.5322 36.0344 55.6177 36.2113 55.6629 36.4003C55.7082 36.5892 55.7122 36.7856 55.6746 36.9762C55.637 37.1668 55.5587 37.347 55.4451 37.5046C55.3315 37.6622 55.1852 37.7934 55.0163 37.8893C54.8539 37.9685 54.6559 38.0318 54.5926 38.2021C54.5632 38.335 54.5771 38.4737 54.6322 38.5981C54.6982 38.835 54.721 39.0818 54.6995 39.3268C54.6987 39.4108 54.6662 39.4915 54.6084 39.5525C54.5469 39.5981 54.4707 39.6193 54.3946 39.6119C53.4125 39.6554 52.9412 39.3109 52.3433 40.1623C52.2907 40.2486 52.2205 40.3228 52.1374 40.3801C52.0537 40.4223 51.9617 40.4453 51.8681 40.4474C51.1949 40.5029 50.7514 40.0831 50.1376 40.0039C49.2822 39.897 49.1 40.3366 48.3476 40.689C47.1874 41.2315 46.6132 40.887 46.3914 40.0792Z"
        fill="#F5F5F5" />
    <path
        d="M53.8282 43.663C53.7706 43.4333 53.7361 43.1985 53.7253 42.962C53.6382 41.5087 52.2522 41.7384 51.0721 41.5444C50.1494 41.3899 52.5888 39.0614 50.7315 38.309C50.3696 38.2107 50.0532 37.9895 49.8366 37.6834C49.742 37.4564 49.7297 37.2034 49.8021 36.9683C49.8744 36.7333 50.0267 36.5309 50.2326 36.3964C50.657 36.1409 51.1475 36.0169 51.6423 36.04C51.9473 35.6717 51.6978 35.1173 51.4047 34.7411C51.1117 34.3649 50.7513 33.9491 50.8662 33.4739C51.0325 32.773 52.0106 32.7492 52.7195 32.8838C52.9808 32.4601 52.9769 31.9295 53.1155 31.4503C53.2541 30.9712 53.6223 30.4643 54.1173 30.5237C54.6123 30.5831 54.8658 31.1058 55.3053 31.2127C55.832 31.3394 56.2914 30.8682 56.7072 30.5197C57.123 30.1712 57.8516 29.9455 58.1367 30.4088C58.307 30.686 58.204 31.0741 58.3822 31.3474C58.6911 31.8186 59.4237 31.5256 59.8791 31.1929C60.3345 30.8603 61.0671 30.5514 61.376 31.0187C61.4575 31.1707 61.5175 31.3333 61.5542 31.5018C61.7681 32.1235 62.4413 32.4324 62.964 32.8324C63.4867 33.2323 63.8985 34.0204 63.455 34.5074C63.2372 34.745 62.8531 34.844 62.7462 35.149C62.6115 35.545 62.9996 35.8697 63.3085 36.135C63.8233 36.5706 63.9144 37.8774 63.2372 38.2338C62.9521 38.3843 62.5323 38.4318 62.465 38.7446C62.3977 39.0575 62.6868 39.2436 62.861 39.4614C62.981 39.6146 63.0665 39.7918 63.1118 39.981C63.1571 40.1702 63.1611 40.367 63.1235 40.5579C63.0859 40.7488 63.0076 40.9293 62.894 41.0873C62.7804 41.2452 62.6341 41.3768 62.465 41.4731C62.2987 41.5483 62.1007 41.6117 62.0413 41.782C62.0123 41.9145 62.0247 42.0527 62.0769 42.178C62.1444 42.4145 62.1673 42.6616 62.1442 42.9066C62.1452 42.9914 62.1141 43.0734 62.0571 43.1363C61.9918 43.1768 61.9162 43.1974 61.8393 43.1957C60.8612 43.2392 60.386 42.8908 59.788 43.7461C59.7354 43.8323 59.6653 43.9066 59.5821 43.9639C59.498 44.0047 59.4063 44.0276 59.3129 44.0312C58.6397 44.0867 58.2001 43.663 57.5823 43.5877C56.727 43.4768 56.5488 43.9164 55.7964 44.2728C54.648 44.8114 54.054 44.4708 53.8282 43.663Z"
        fill="#F5F5F5" />
    <path
        d="M61.3483 42.0077C61.2873 41.7786 61.2515 41.5436 61.2414 41.3068C61.1543 39.8534 59.7683 40.0871 58.5882 39.8891C57.6655 39.7346 60.1089 37.4062 58.2477 36.6538C57.8858 36.5554 57.5694 36.3342 57.3527 36.0281C57.2589 35.801 57.2471 35.5483 57.3193 35.3134C57.3916 35.0785 57.5434 34.8762 57.7487 34.7411C58.1729 34.4854 58.6639 34.3627 59.1585 34.3886C59.4634 34.0204 59.2179 33.466 58.9248 33.0898C58.6318 32.7136 58.2714 32.2978 58.3823 31.8186C58.5486 31.1177 59.5267 31.0939 60.2356 31.2286C60.4969 30.8049 60.493 30.2782 60.6316 29.7951C60.7702 29.3119 61.1424 28.809 61.6335 28.8684C62.1245 28.9278 62.3859 29.4505 62.8413 29.5614C63.3719 29.6842 63.8273 29.2169 64.2431 28.8645C64.6589 28.512 65.3875 28.2942 65.6727 28.7575C65.8469 29.0347 65.7439 29.4188 65.9221 29.6921C66.231 30.1673 66.9636 29.8742 67.4151 29.5376C67.8665 29.201 68.6031 28.8961 68.9159 29.3634C68.995 29.5174 69.0536 29.6812 69.0901 29.8505C69.3079 30.4683 69.9772 30.7771 70.4999 31.1771C71.0226 31.577 71.4345 32.3651 70.9949 32.8522C70.7771 33.0898 70.393 33.1888 70.2821 33.4937C70.1475 33.8897 70.5395 34.2184 70.8444 34.4797C71.3592 34.9153 71.4543 36.2221 70.7731 36.5825C70.488 36.729 70.0722 36.7765 69.9811 37.0933C69.8901 37.4101 70.2029 37.5923 70.3771 37.8061C70.4977 37.9591 70.5838 38.1363 70.6295 38.3256C70.6751 38.515 70.6793 38.7119 70.6417 38.903C70.6041 39.0941 70.5256 39.2748 70.4115 39.4327C70.2975 39.5906 70.1507 39.722 69.9811 39.8178C69.8188 39.8931 69.6168 39.9604 69.5574 40.1306C69.5312 40.2571 69.5451 40.3886 69.597 40.5068C69.6614 40.744 69.6828 40.9908 69.6604 41.2355C69.6613 41.3203 69.6302 41.4023 69.5733 41.4652C69.5087 41.5073 69.4325 41.5281 69.3555 41.5246C68.3773 41.5681 67.9021 41.2236 67.3042 42.075C67.2541 42.1619 67.1851 42.2364 67.1022 42.2928C67.0172 42.3351 66.9239 42.3581 66.829 42.3601C66.1558 42.4156 65.7162 41.9958 65.1024 41.9166C64.2471 41.8057 64.0649 42.2493 63.3125 42.6017C62.1443 43.164 61.5701 42.8155 61.3483 42.0077Z"
        fill="#F5F5F5" />
    <path
        d="M61.4434 50.0504C61.4039 49.8695 61.3827 49.6851 61.38 49.5C61.3127 48.3595 60.2237 48.5377 59.2931 48.3833C58.5684 48.2645 60.4811 46.431 59.0238 45.837C58.7393 45.7595 58.4903 45.586 58.3189 45.346C58.2456 45.1661 58.2375 44.9663 58.2961 44.7811C58.3547 44.596 58.4763 44.4371 58.6397 44.3322C58.9726 44.1292 59.359 44.0312 59.7485 44.051C59.9861 43.762 59.7921 43.3264 59.5624 43.0294C59.3327 42.7324 59.0476 42.3958 59.1347 42.0314C59.2693 41.477 60.0376 41.4572 60.5959 41.5681C60.751 41.2073 60.8524 40.8258 60.8969 40.4356C60.9999 40.0594 61.2929 39.6436 61.6889 39.7069C62.0849 39.7703 62.2789 40.1663 62.6393 40.2494C62.9997 40.3326 63.4313 39.9802 63.7441 39.703C64.057 39.4258 64.6431 39.2555 64.8688 39.6198C65.0034 39.8376 64.9242 40.1425 65.0628 40.3564C65.3044 40.7286 65.8825 40.4989 66.2508 40.2336C66.6191 39.9683 67.1814 39.7307 67.4388 40.095C67.5035 40.2198 67.5501 40.3531 67.5774 40.491C67.7477 40.9781 68.2783 41.2236 68.6862 41.5364C69.0941 41.8493 69.4267 42.475 69.0822 42.8551C68.908 43.0452 68.607 43.1204 68.5239 43.362C68.4407 43.6036 68.7219 43.9322 68.9634 44.154C69.3594 44.4985 69.4426 45.5281 68.908 45.8093C68.6823 45.9241 68.3536 45.9637 68.2981 46.2053C68.2427 46.4468 68.4763 46.6013 68.6229 46.7716C68.7183 46.8924 68.7861 47.0327 68.8217 47.1825C68.8573 47.3324 68.8597 47.4882 68.8288 47.6391C68.7978 47.7899 68.7343 47.9322 68.6427 48.056C68.551 48.1797 68.4334 48.282 68.2981 48.3556C68.1714 48.4189 68.013 48.4664 67.9655 48.6011C67.9446 48.7023 67.9557 48.8074 67.9972 48.902C68.048 49.0876 68.0654 49.2807 68.0487 49.4723C68.0486 49.5398 68.0231 49.6048 67.9774 49.6544C67.9266 49.6868 67.8673 49.7033 67.8071 49.702C67.0151 49.7336 66.6627 49.4604 66.1914 50.1336C66.1515 50.2012 66.0975 50.2592 66.033 50.3039C65.9669 50.3384 65.8937 50.3573 65.8192 50.3593C65.2885 50.4029 64.9401 50.0702 64.4569 50.0069C63.7837 49.9237 63.6412 50.2682 63.0472 50.5494C62.073 50.9533 61.6216 50.688 61.4434 50.0504Z"
        fill="#F5F5F5" />
    <path
        d="M65.6568 47.2705C65.5977 47.0411 65.5619 46.8062 65.5499 46.5696C65.4667 45.1202 64.0767 45.3499 62.8967 45.1519C61.9779 44.9975 64.4173 42.669 62.5601 41.9166C62.1987 41.8171 61.8818 41.5979 61.6612 41.2949C61.567 41.0672 61.5551 40.8138 61.6273 40.5783C61.6996 40.3428 61.8516 40.1397 62.0572 40.0039C62.4826 39.7479 62.975 39.6252 63.4709 39.6515C63.7718 39.2832 63.5263 38.7288 63.2333 38.3526C62.9402 37.9764 62.5799 37.5606 62.6907 37.0814C62.861 36.3805 63.8391 36.3568 64.548 36.4914C64.8093 36.0716 64.8014 35.541 64.944 35.0579C65.0865 34.5748 65.4548 34.0718 65.9498 34.1312C66.4448 34.1906 66.6983 34.7134 67.1378 34.8242C67.6685 34.947 68.1278 34.4797 68.5436 34.1273C68.9594 33.7748 69.6841 33.557 69.9732 34.0204C70.1435 34.2976 70.0405 34.6817 70.2187 34.9549C70.5276 35.4301 71.2602 35.1371 71.7156 34.8005C72.171 34.4639 72.9036 34.1629 73.2125 34.6262C73.2923 34.7804 73.3522 34.9441 73.3907 35.1133C73.6045 35.7311 74.2738 36.0439 74.7965 36.4399C75.3192 36.8359 75.735 37.6279 75.2915 38.115C75.0737 38.3566 74.6895 38.4516 74.5826 38.7565C74.448 39.1525 74.8361 39.4812 75.1449 39.7426C75.6597 40.1782 75.7508 41.485 75.0737 41.8453C74.7885 41.9958 74.3688 42.0394 74.2817 42.3562C74.1945 42.673 74.5074 42.8551 74.6975 43.0729C74.8166 43.227 74.9009 43.4051 74.9447 43.5949C74.9885 43.7847 74.9907 43.9817 74.9512 44.1724C74.9117 44.3631 74.8314 44.543 74.7159 44.6998C74.6003 44.8566 74.4522 44.9865 74.2817 45.0806C74.1193 45.1598 73.9213 45.2232 73.8579 45.3935C73.8286 45.5263 73.8424 45.6651 73.8975 45.7895C73.9633 46.025 73.9861 46.2705 73.9649 46.5142C73.9643 46.5994 73.9318 46.6814 73.8738 46.7438C73.8106 46.7859 73.7357 46.8067 73.6599 46.8032C72.6779 46.8468 72.2066 46.5023 71.6087 47.3537C71.5561 47.4399 71.4859 47.5141 71.4027 47.5715C71.3191 47.6137 71.2271 47.6367 71.1335 47.6388C70.4603 47.6942 70.0167 47.2745 69.4029 47.1953C68.5476 47.0844 68.3654 47.5279 67.613 47.8804C66.4528 48.4229 65.8785 48.0784 65.6568 47.2705Z"
        fill="#F5F5F5" />
    <path
        d="M53.8283 34.8163C53.7706 34.5867 53.7361 34.3519 53.7253 34.1154C53.6382 32.666 52.2522 32.8957 51.0721 32.6977C50.1494 32.5433 52.5888 30.2148 50.7316 29.4624C50.3707 29.3642 50.0546 29.1446 49.8366 28.8407C49.7417 28.6131 49.7294 28.3595 49.8017 28.1238C49.874 27.888 50.0264 27.685 50.2326 27.5497C50.6566 27.2936 51.1477 27.1708 51.6424 27.1973C51.9473 26.829 51.6978 26.2746 51.4048 25.8984C51.1117 25.5222 50.7514 25.1064 50.8662 24.6273C51.0325 23.9263 52.0106 23.9026 52.7195 24.0372C52.9808 23.6174 52.9769 23.0868 53.1155 22.6037C53.2541 22.1206 53.6224 21.6177 54.1174 21.681C54.6124 21.7444 54.8658 22.2631 55.3054 22.37C55.832 22.4928 56.2914 22.0255 56.7072 21.6731C57.123 21.3207 57.8516 21.1028 58.1368 21.5662C58.307 21.8434 58.2041 22.2275 58.3823 22.5007C58.6912 22.9759 59.4238 22.6829 59.8792 22.3463C60.3346 22.0097 61.0672 21.7087 61.376 22.172C61.4576 22.3254 61.5175 22.4893 61.5542 22.6591C61.7681 23.2809 62.4413 23.5897 62.964 23.9857C63.4867 24.3817 63.8986 25.1737 63.455 25.6608C63.2372 25.9024 62.8531 25.9974 62.7462 26.3023C62.6116 26.6983 62.9996 27.027 63.3085 27.2884C63.8233 27.724 63.9144 29.0308 63.2372 29.3911C62.9521 29.5416 62.5324 29.5852 62.465 29.902C62.3977 30.2188 62.6868 30.4009 62.861 30.6187C62.9809 30.7716 63.0664 30.9485 63.1117 31.1374C63.1569 31.3263 63.1609 31.5228 63.1233 31.7134C63.0857 31.904 63.0075 32.0842 62.8939 32.2418C62.7803 32.3994 62.634 32.5306 62.465 32.6265C62.2987 32.7057 62.1007 32.769 62.0413 32.9393C62.0126 33.0718 62.025 33.21 62.077 33.3353C62.1536 33.5674 62.1858 33.8119 62.172 34.056C62.1729 34.1408 62.1418 34.2228 62.0849 34.2857C62.0209 34.3291 61.9443 34.35 61.8671 34.3451C60.889 34.3886 60.4138 34.0441 59.8158 34.8955C59.7643 34.9826 59.6939 35.057 59.6099 35.1133C59.5264 35.156 59.4343 35.1791 59.3406 35.1806C58.6674 35.2361 58.2278 34.8163 57.6101 34.7371C56.7547 34.6263 56.5765 35.0698 55.8241 35.4222C54.648 35.9687 54.054 35.64 53.8283 34.8163Z"
        fill="#F5F5F5" />
    <path
        d="M44.1738 35.3113C44.1128 35.0823 44.0769 34.8472 44.0669 34.6104C43.9797 33.1571 42.5937 33.3868 41.4137 33.1927C40.491 33.0383 42.9343 30.7098 41.0731 29.9574C40.7112 29.859 40.3948 29.6378 40.1781 29.3317C40.0843 29.1046 40.0725 28.8519 40.1448 28.617C40.217 28.3822 40.3689 28.1798 40.5741 28.0447C40.9983 27.7891 41.4893 27.6663 41.9839 27.6923C42.2888 27.32 42.0433 26.7656 41.7503 26.3894C41.4572 26.0132 41.0969 25.5974 41.2077 25.1222C41.3741 24.4213 42.3561 24.3976 43.061 24.5322C43.3224 24.1085 43.3184 23.5818 43.457 23.0987C43.5956 22.6156 43.9679 22.1126 44.4589 22.172C44.9499 22.2314 45.2113 22.7542 45.6469 22.8611C46.1775 22.9878 46.6369 22.5205 47.0527 22.1681C47.4685 21.8156 48.1932 21.5978 48.4783 22.0612C48.6525 22.3384 48.5496 22.7225 48.7278 22.9957C49.0367 23.4709 49.7693 23.1739 50.2207 22.8413C50.6721 22.5086 51.4087 22.1998 51.7215 22.667C51.8024 22.8203 51.8611 22.9843 51.8958 23.1541C52.1136 23.7719 52.7828 24.0808 53.3055 24.4807C53.8283 24.8807 54.2401 25.6687 53.8005 26.1558C53.5827 26.3934 53.1986 26.4924 53.0877 26.7973C52.9531 27.1933 53.3451 27.522 53.654 27.7834C54.1649 28.219 54.2599 29.5258 53.5788 29.8822C53.2937 30.0326 52.8779 30.0802 52.7868 30.393C52.6957 30.7058 53.0085 30.8959 53.1828 31.1098C53.3034 31.2627 53.3894 31.4399 53.4351 31.6293C53.4808 31.8186 53.4849 32.0156 53.4473 32.2067C53.4097 32.3978 53.3312 32.5784 53.2172 32.7363C53.1032 32.8942 52.9563 33.0256 52.7868 33.1214C52.6244 33.1967 52.4225 33.264 52.3631 33.4343C52.3369 33.5608 52.3507 33.6922 52.4027 33.8105C52.467 34.0477 52.4885 34.2944 52.466 34.5391C52.467 34.6239 52.4358 34.706 52.3789 34.7688C52.3155 34.8104 52.2408 34.8311 52.1651 34.8282C51.183 34.8718 50.7117 34.5233 50.1098 35.3786C50.0598 35.4655 49.9907 35.54 49.9079 35.5964C49.824 35.6381 49.7322 35.6611 49.6386 35.6638C48.9614 35.7192 48.5219 35.2955 47.9081 35.2202C47.0527 35.1094 46.8705 35.5489 46.1181 35.9053C44.9697 36.4597 44.3955 36.1192 44.1738 35.3113Z"
        fill="#F5F5F5" />
    <path
        d="M38.3051 39.2634C38.2474 39.0338 38.2129 38.799 38.2021 38.5625C38.115 37.1092 36.729 37.3388 35.5489 37.1448C34.6262 36.9904 37.0656 34.6619 35.2083 33.9095C34.8464 33.8111 34.53 33.5899 34.3134 33.2838C34.2188 33.0568 34.2066 32.8038 34.2789 32.5688C34.3512 32.3337 34.5035 32.1314 34.7094 31.9968C35.1334 31.7407 35.6245 31.6179 36.1191 31.6444C36.4241 31.2721 36.1746 30.7177 35.8815 30.3415C35.5885 29.9653 35.2321 29.5495 35.343 29.0743C35.5093 28.3734 36.4874 28.3496 37.1963 28.4843C37.4576 28.0606 37.4537 27.5339 37.5923 27.0508C37.7309 26.5676 38.0991 26.0647 38.5941 26.1241C39.0891 26.1835 39.3426 26.7062 39.7821 26.8132C40.3088 26.9399 40.7682 26.4726 41.184 26.1202C41.5998 25.7677 42.3284 25.5499 42.6135 26.0132C42.7838 26.2904 42.6809 26.6746 42.8591 26.9478C43.1679 27.423 43.9005 27.126 44.3559 26.7934C44.8113 26.4607 45.5439 26.1518 45.8568 26.6191C45.9359 26.7732 45.9945 26.9369 46.031 27.1062C46.2449 27.724 46.9181 28.0328 47.4408 28.4328C47.9635 28.8328 48.3753 29.6208 47.9318 30.1079C47.714 30.3455 47.3299 30.4445 47.223 30.7494C47.0883 31.1454 47.4764 31.4741 47.7853 31.7354C48.3001 32.171 48.3912 33.4778 47.714 33.8342C47.4289 33.9847 47.0091 34.0322 46.922 34.3451C46.8349 34.6579 47.1438 34.848 47.318 35.0618C47.438 35.215 47.5235 35.3923 47.5688 35.5815C47.6141 35.7707 47.6181 35.9674 47.5805 36.1583C47.5429 36.3492 47.4646 36.5298 47.351 36.6877C47.2374 36.8456 47.0911 36.9772 46.922 37.0735C46.7557 37.1488 46.5577 37.2161 46.4983 37.3864C46.4688 37.5189 46.4812 37.6573 46.5339 37.7824C46.6015 38.0189 46.6243 38.266 46.6013 38.511C46.6022 38.5958 46.5711 38.6778 46.5141 38.7407C46.4488 38.7812 46.3732 38.8018 46.2963 38.8001C45.3182 38.8436 44.843 38.4952 44.2451 39.3505C44.1939 39.4366 44.125 39.5108 44.0431 39.5683C43.9581 39.6106 43.8648 39.6336 43.7699 39.6356C43.0967 39.6911 42.6571 39.2674 42.0393 39.1921C41.184 39.0812 41.0058 39.5208 40.2534 39.8772C39.105 40.4118 38.5308 40.0712 38.3051 39.2634Z"
        fill="#F5F5F5" />
    <path
        d="M40.0871 44.257C40.0871 44.257 42.5383 47.7259 43.3858 48.8268C44.2332 49.9277 48.4585 56.7785 49.0367 61.3087C49.0961 61.7918 49.1555 62.2116 49.2149 62.572C47.3973 74.5826 47.6824 123.085 47.7457 126.843H55.8875C54.9965 89.69 54.054 57.3012 54.2322 56.1172C54.4263 54.8658 56.8339 50.094 60.5682 48.1338C64.3025 46.1736 67.5061 39.6911 67.5061 39.6911H66.3181C66.3181 39.6911 64.1164 43.6511 60.988 45.8647C60.5378 46.1754 60.0668 46.4545 59.5782 46.7003C59.5881 44.3082 59.1669 41.9338 58.3348 39.6911L57.6933 40.2811C58.5605 43.8253 58.4457 46.0904 58.1843 47.4091C57.0009 47.9627 55.9087 48.6931 54.945 49.5752C51.7018 45.3539 49.8762 35.7152 49.8762 35.7152L49.0446 36.1706C49.2799 38.1708 49.6383 40.1546 50.1178 42.1106C50.7237 44.6094 52.4938 49.3139 53.3491 51.4523C52.3522 52.884 51.5281 54.4286 50.8939 56.0538C50.8075 55.9146 50.7022 55.788 50.5811 55.6776C48.4665 53.7649 44.4906 44.7322 44.4906 44.7322C43.5323 42.6334 45.0015 37.121 45.0015 37.121H43.8887L43.3937 41.9404L40.6217 38.8951L40.1148 39.3188L43.0729 43.1244L44.5698 47.916L40.6098 43.5164L40.0871 44.257Z"
        fill="#F5F5F5" />
    <path d="M24.6035 98.8139L166.538 98.8139V94.0025L24.6035 94.0025V98.8139Z" fill="#E0E0E0" />
    <path d="M163.2 123.881H169.884V81.679L166.542 79.303L163.2 81.679V123.881Z" fill="#E6E6E6" />
    <path d="M151.371 123.881H158.055V81.679L154.713 79.303L151.371 81.679V123.881Z"
        fill="#E6E6E6" />
    <path d="M139.542 123.881H146.227V81.679L142.885 79.303L139.542 81.679V123.881Z"
        fill="#E6E6E6" />
    <path d="M127.714 123.881H134.398V81.679L131.056 79.303L127.714 81.679V123.881Z"
        fill="#E6E6E6" />
    <path d="M115.885 123.881H122.57V81.679L119.228 79.303L115.885 81.679V123.881Z"
        fill="#E6E6E6" />
    <path d="M104.057 123.881H110.741V81.679L107.399 79.303L104.057 81.679V123.881Z"
        fill="#E6E6E6" />
    <path d="M92.2324 123.881H98.9168V81.679L95.5746 79.303L92.2324 81.679V123.881Z"
        fill="#E6E6E6" />
    <path d="M80.4039 123.881H87.0884V81.679L83.7461 79.303L80.4039 81.679V123.881Z"
        fill="#E6E6E6" />
    <path d="M68.5753 123.881H75.2598V81.679L71.9176 79.303L68.5753 81.679V123.881Z"
        fill="#E6E6E6" />
    <path d="M56.7468 123.881H63.4313V81.679L60.0891 79.303L56.7468 81.679V123.881Z"
        fill="#E6E6E6" />
    <path d="M44.9222 123.881H51.6028V81.679L48.2605 79.303L44.9222 81.679V123.881Z"
        fill="#E6E6E6" />
    <path d="M33.0938 123.881H39.7782V81.679L36.436 79.303L33.0938 81.679V123.881Z"
        fill="#E6E6E6" />
    <path d="M21.2652 123.881H27.9497V81.679L24.6074 79.303L21.2652 81.679V123.881Z"
        fill="#E6E6E6" />
    <path
        d="M26.3459 124.344C26.3459 124.344 25.2411 120.637 27.4785 119.897C29.7159 119.156 31.0425 117.426 30.9712 115.466C30.8999 113.505 33.2521 111.597 35.0183 113.434C36.7845 115.272 36.5508 112.02 38.907 111.232C41.2632 110.444 43.263 112.357 42.6136 114.111C41.9641 115.866 44.2926 116.955 47.0765 115.466C49.8604 113.977 52.9254 116.685 52.3354 118.808C51.7453 120.93 52.2285 121.164 53.9907 120.455C55.7529 119.746 58.9011 121.75 57.7962 124.344C56.6914 126.938 26.3459 124.344 26.3459 124.344Z"
        fill="#E0E0E0" />
    <path
        d="M145.277 123.809C145.277 123.809 144.421 120.93 146.156 120.356C147.89 119.782 148.928 118.44 148.868 116.915C148.809 115.39 150.638 113.913 152.009 115.331C153.379 116.749 153.197 114.234 155.026 113.62C156.856 113.007 158.408 114.495 157.905 115.858C157.402 117.22 159.208 118.063 161.37 116.907C163.532 115.751 165.908 117.858 165.453 119.501C164.997 121.144 165.37 121.33 166.736 120.78C168.102 120.23 170.549 121.79 169.694 123.801C168.839 125.813 145.277 123.809 145.277 123.809Z"
        fill="#E0E0E0" />
    <path
        d="M102.291 124.15C100.311 122.17 102.093 118.804 104.073 118.408C106.053 118.012 108.033 114.527 108.136 112.31C108.239 110.092 111.795 103.269 117.339 107.482C122.883 111.696 121.196 108.1 125.207 106.92C129.219 105.74 131.749 109.142 129.987 111.696C129.987 111.696 134.018 110.686 135.678 114.448C137.337 118.21 135.678 120.546 135.678 120.546C135.678 120.546 143.253 120.321 142.572 125.005C141.891 129.69 102.291 124.15 102.291 124.15Z"
        fill="#E0E0E0" />
    <path
        d="M172.711 124.269V129.694H19.8555V124.269C19.8437 124.052 19.8758 123.835 19.9497 123.631C20.0236 123.427 20.1379 123.24 20.2858 123.081C20.4336 122.922 20.612 122.794 20.8102 122.706C21.0084 122.618 21.2224 122.57 21.4395 122.566H171.112C171.33 122.568 171.546 122.614 171.746 122.701C171.946 122.789 172.126 122.916 172.276 123.075C172.425 123.234 172.541 123.422 172.616 123.627C172.691 123.833 172.723 124.051 172.711 124.269Z"
        fill="#EBEBEB" />
    <path d="M38.0714 122.566H28.5674V129.694H38.0714V122.566Z" fill="#F5F5F5" />
    <path d="M55.8914 122.566H46.7834V129.694H55.8914V122.566Z" fill="#F5F5F5" />
    <path d="M74.1075 122.566H64.6035V129.694H74.1075V122.566Z" fill="#F5F5F5" />
    <path d="M91.9275 122.566H82.8195V129.694H91.9275V122.566Z" fill="#F5F5F5" />
    <path d="M109.747 122.566H100.639V129.694H109.747V122.566Z" fill="#F5F5F5" />
    <path d="M127.963 122.566H118.459V129.694H127.963V122.566Z" fill="#F5F5F5" />
    <path d="M145.783 122.566H136.675V129.694H145.783V122.566Z" fill="#F5F5F5" />
    <path d="M163.999 122.566H154.495V129.694H163.999V122.566Z" fill="#F5F5F5" />
    <path
        d="M99 147.534C141.405 147.534 175.78 145.527 175.78 143.051C175.78 140.575 141.405 138.568 99 138.568C56.5953 138.568 22.2195 140.575 22.2195 143.051C22.2195 145.527 56.5953 147.534 99 147.534Z"
        fill="#F5F5F5" />
    <path d="M168.522 102.113H155.145V111.462H168.522V102.113Z" fill="#263238" />
    <path
        d="M150.844 99.994V143.431H169.31V99.994H150.844ZM167.298 108.73H161.425V105.189C161.425 104.794 161.583 104.414 161.863 104.134C162.143 103.854 162.522 103.697 162.918 103.697H165.805C166.201 103.697 166.581 103.854 166.861 104.134C167.141 104.414 167.298 104.794 167.298 105.189V108.73Z"
        fill="#407BFF" />
    <path opacity="0.6"
        d="M150.844 99.994V143.431H169.31V99.994H150.844ZM167.298 108.73H161.425V105.189C161.425 104.794 161.583 104.414 161.863 104.134C162.143 103.854 162.522 103.697 162.918 103.697H165.805C166.201 103.697 166.581 103.854 166.861 104.134C167.141 104.414 167.298 104.794 167.298 105.189V108.73Z"
        fill="white" />
    <path opacity="0.4" d="M158.764 99.994H150.844V143.435H158.764V99.994Z" fill="white" />
    <path d="M169.745 98.4337H150.369V101.293H169.745V98.4337Z" fill="#407BFF" />
    <path opacity="0.2" d="M159.311 98.4337H150.369V101.293H159.311V98.4337Z" fill="white" />
    <path
        d="M39.105 131.096C39.105 131.096 41.5325 125.805 38.7605 120.586C35.9885 115.367 35.1965 114.139 36.9508 113.062C38.7051 111.985 39.5287 117.236 39.5287 117.236C39.5287 117.236 41.0177 113.628 39.7901 109.854C38.5625 106.08 37.7863 99.9306 39.4654 99.2732C41.1444 98.6159 39.7861 106.944 41.2434 109.783C41.9853 107.789 42.4645 105.707 42.669 103.59C42.871 100.556 42.5581 95.7172 43.8847 94.4816C45.2113 93.2461 46.0588 94.0856 44.7559 100.79C43.9729 104.788 43.5396 108.846 43.461 112.919C43.461 112.919 46.332 104.148 48.2724 103.887C50.2128 103.625 50.2009 106.473 48.5496 108.94C46.8983 111.407 43.7065 115.822 43.1838 118.095C43.1838 118.095 46.3518 111.49 49.1832 113.513C52.0146 115.537 46.728 119.529 44.352 120.97C41.976 122.412 40.3366 131.448 40.3366 131.448L39.105 131.096Z"
        fill="#407BFF" />
    <path opacity="0.2"
        d="M39.105 131.096C39.105 131.096 41.5325 125.805 38.7605 120.586C35.9885 115.367 35.1965 114.139 36.9508 113.062C38.7051 111.985 39.5287 117.236 39.5287 117.236C39.5287 117.236 41.0177 113.628 39.7901 109.854C38.5625 106.08 37.7863 99.9306 39.4654 99.2732C41.1444 98.6159 39.7861 106.944 41.2434 109.783C41.9853 107.789 42.4645 105.707 42.669 103.59C42.871 100.556 42.5581 95.7172 43.8847 94.4816C45.2113 93.2461 46.0588 94.0856 44.7559 100.79C43.9729 104.788 43.5396 108.846 43.461 112.919C43.461 112.919 46.332 104.148 48.2724 103.887C50.2128 103.625 50.2009 106.473 48.5496 108.94C46.8983 111.407 43.7065 115.822 43.1838 118.095C43.1838 118.095 46.3518 111.49 49.1832 113.513C52.0146 115.537 46.728 119.529 44.352 120.97C41.976 122.412 40.3366 131.448 40.3366 131.448L39.105 131.096Z"
        fill="black" />
    <path
        d="M41.0216 133.27C41.0216 133.27 38.6456 127.94 41.4929 122.764C44.3401 117.588 45.144 116.373 43.3897 115.276C41.6354 114.179 40.7642 119.41 40.7642 119.41C40.7642 119.41 39.3188 115.782 40.5939 112.024C41.8691 108.266 42.7125 102.124 41.0414 101.447C39.3703 100.77 40.6454 109.114 39.1367 111.929C38.4205 109.931 37.9666 107.847 37.7863 105.732C37.62 102.699 37.9922 97.8595 36.6815 96.6002C35.3707 95.3409 34.5114 96.2042 35.735 102.897C36.4707 106.904 36.855 110.968 36.8834 115.042C36.8834 115.042 34.1114 106.223 32.1789 105.934C30.2465 105.645 30.1989 108.492 31.8423 110.983C33.4857 113.474 36.5943 117.937 37.1012 120.218C37.1012 120.218 34.0203 113.565 31.1612 115.545C28.3021 117.525 33.561 121.596 35.9132 123.069C38.2655 124.542 39.8019 133.606 39.8019 133.606L41.0216 133.27Z"
        fill="#407BFF" />
    <path d="M30.1237 129.468H49.6386L48.0586 143.435H31.7038L30.1237 129.468Z" fill="#263238" />
    <path
        d="M141.483 67.9378C141.483 65.6172 140.271 63.5224 138.315 62.0176C138.378 61.7128 138.41 61.4023 138.41 61.0909C138.41 57.9982 135.27 55.4875 131.365 55.4162C130.177 52.4304 126.641 50.2682 122.455 50.2682C119.117 50.2682 116.19 51.6503 114.535 53.7214C114.118 53.6641 113.697 53.635 113.276 53.6342C109.288 53.6342 106.057 56.1726 106.057 59.3089C106.057 59.8416 106.153 60.3698 106.338 60.8692C103.796 62.2037 102.125 64.4767 102.125 67.0547C102.125 69.5416 103.677 71.7433 106.061 73.0937C106.061 73.1175 106.061 73.1452 106.061 73.1729C106.061 76.2142 109.106 78.7169 112.927 78.8396C115.038 80.8988 118.269 82.2175 121.889 82.2175C124.274 82.2382 126.623 81.6319 128.7 80.4593C129.026 80.4959 129.354 80.5144 129.682 80.5147C133.666 80.5147 136.897 77.9724 136.897 74.8401V74.7806C139.665 73.2877 141.483 70.7771 141.483 67.9378Z"
        fill="#407BFF" />
    <path
        d="M89.5238 64.0055C89.5238 64.5242 88.9218 64.944 88.1813 64.944C87.4408 64.944 86.8389 64.5242 86.8389 64.0055C86.8389 63.4867 87.4368 63.067 88.1813 63.067C88.9258 63.067 89.5238 63.4867 89.5238 64.0055Z"
        fill="#407BFF" />
    <path
        d="M100.01 63.36C100.01 64.8608 98.2635 66.0766 96.1092 66.0766C93.955 66.0766 92.2086 64.8608 92.2086 63.36C92.2086 61.8592 93.955 60.6434 96.1092 60.6434C98.2635 60.6434 100.01 61.8592 100.01 63.36Z"
        fill="#407BFF" />
    <path opacity="0.7"
        d="M141.483 67.9378C141.483 65.6172 140.271 63.5224 138.315 62.0176C138.378 61.7128 138.41 61.4023 138.41 61.0909C138.41 57.9982 135.27 55.4875 131.365 55.4162C130.177 52.4304 126.641 50.2682 122.455 50.2682C119.117 50.2682 116.19 51.6503 114.535 53.7214C114.118 53.6641 113.697 53.635 113.276 53.6342C109.288 53.6342 106.057 56.1726 106.057 59.3089C106.057 59.8416 106.153 60.3698 106.338 60.8692C103.796 62.2037 102.125 64.4767 102.125 67.0547C102.125 69.5416 103.677 71.7433 106.061 73.0937C106.061 73.1175 106.061 73.1452 106.061 73.1729C106.061 76.2142 109.106 78.7169 112.927 78.8396C115.038 80.8988 118.269 82.2175 121.889 82.2175C124.274 82.2382 126.623 81.6319 128.7 80.4593C129.026 80.4959 129.354 80.5144 129.682 80.5147C133.666 80.5147 136.897 77.9724 136.897 74.8401V74.7806C139.665 73.2877 141.483 70.7771 141.483 67.9378Z"
        fill="white" />
    <path opacity="0.7"
        d="M89.5238 64.0055C89.5238 64.5242 88.9218 64.944 88.1813 64.944C87.4408 64.944 86.8389 64.5242 86.8389 64.0055C86.8389 63.4867 87.4368 63.067 88.1813 63.067C88.9258 63.067 89.5238 63.4867 89.5238 64.0055Z"
        fill="white" />
    <path opacity="0.7"
        d="M100.01 63.36C100.01 64.8608 98.2635 66.0766 96.1092 66.0766C93.955 66.0766 92.2086 64.8608 92.2086 63.36C92.2086 61.8592 93.955 60.6434 96.1092 60.6434C98.2635 60.6434 100.01 61.8592 100.01 63.36Z"
        fill="white" />
    <path
        d="M117.216 33.3234C117.216 30.4801 115.204 28.0408 112.317 26.9518C112.416 26.5231 112.466 26.0848 112.468 25.645C112.468 22.2473 109.589 19.4198 105.78 18.7942C103.178 15.3014 98.6515 12.9848 93.5035 12.9848C88.3555 12.9848 83.8966 15.2579 81.283 18.6991C77.0893 19.0397 73.8144 22.0176 73.8144 25.645C73.8146 26.3014 73.9244 26.9532 74.1391 27.5735C71.977 28.8328 70.5751 30.9395 70.5751 33.3234C70.5751 36.6696 73.3471 39.4614 77.0814 40.1425C77.6517 43.5323 81.085 46.138 85.2549 46.1419C88.0313 48.0878 91.3433 49.1241 94.7337 49.1078C98.1242 49.0915 101.426 48.0234 104.184 46.0508C107.799 45.5836 110.638 43.1402 111.11 40.0633C114.614 39.2713 117.216 36.5587 117.216 33.3234Z"
        fill="#407BFF" />
    <path
        d="M88.1456 56.236C90.3655 56.236 92.165 54.9062 92.165 53.266C92.165 51.6257 90.3655 50.296 88.1456 50.296C85.9258 50.296 84.1262 51.6257 84.1262 53.266C84.1262 54.9062 85.9258 56.236 88.1456 56.236Z"
        fill="#407BFF" />
    <path
        d="M85.0727 58.6634C85.0727 59.1782 84.4708 59.602 83.7303 59.602C82.9897 59.602 82.3878 59.1782 82.3878 58.6634C82.3878 58.1486 82.9897 57.7249 83.7303 57.7249C84.4708 57.7249 85.0727 58.1447 85.0727 58.6634Z"
        fill="#407BFF" />
    <path opacity="0.7"
        d="M117.216 33.3234C117.216 30.4801 115.204 28.0408 112.317 26.9518C112.416 26.5231 112.466 26.0848 112.468 25.645C112.468 22.2473 109.589 19.4198 105.78 18.7942C103.178 15.3014 98.6515 12.9848 93.5035 12.9848C88.3555 12.9848 83.8966 15.2579 81.283 18.6991C77.0893 19.0397 73.8144 22.0176 73.8144 25.645C73.8146 26.3014 73.9244 26.9532 74.1391 27.5735C71.977 28.8328 70.5751 30.9395 70.5751 33.3234C70.5751 36.6696 73.3471 39.4614 77.0814 40.1425C77.6517 43.5323 81.085 46.138 85.2549 46.1419C88.0313 48.0878 91.3433 49.1241 94.7337 49.1078C98.1242 49.0915 101.426 48.0234 104.184 46.0508C107.799 45.5836 110.638 43.1402 111.11 40.0633C114.614 39.2713 117.216 36.5587 117.216 33.3234Z"
        fill="white" />
    <path opacity="0.7"
        d="M88.1456 56.236C90.3655 56.236 92.165 54.9062 92.165 53.266C92.165 51.6257 90.3655 50.296 88.1456 50.296C85.9258 50.296 84.1262 51.6257 84.1262 53.266C84.1262 54.9062 85.9258 56.236 88.1456 56.236Z"
        fill="white" />
    <path opacity="0.7"
        d="M85.0727 58.6634C85.0727 59.1782 84.4708 59.602 83.7303 59.602C82.9897 59.602 82.3878 59.1782 82.3878 58.6634C82.3878 58.1486 82.9897 57.7249 83.7303 57.7249C84.4708 57.7249 85.0727 58.1447 85.0727 58.6634Z"
        fill="white" />
    <path
        d="M71.3354 54.2164C71.3354 55.3014 70.1474 56.1964 68.6743 56.1964C67.2012 56.1964 66.0132 55.3172 66.0132 54.2164C66.0132 53.1155 67.2012 52.2364 68.6743 52.2364C70.1474 52.2364 71.3354 53.1313 71.3354 54.2164Z"
        fill="#407BFF" />
    <path
        d="M74.8915 57.816C74.8915 58.3348 74.2935 58.7545 73.549 58.7545C72.8046 58.7545 72.2066 58.3348 72.2066 57.816C72.2066 57.2972 72.8085 56.8775 73.549 56.8775C74.2896 56.8775 74.8915 57.2933 74.8915 57.816Z"
        fill="#407BFF" />
    <path opacity="0.7"
        d="M71.3354 54.2164C71.3354 55.3014 70.1474 56.1964 68.6743 56.1964C67.2012 56.1964 66.0132 55.3172 66.0132 54.2164C66.0132 53.1155 67.2012 52.2364 68.6743 52.2364C70.1474 52.2364 71.3354 53.1313 71.3354 54.2164Z"
        fill="white" />
    <path opacity="0.7"
        d="M74.8915 57.816C74.8915 58.3348 74.2935 58.7545 73.549 58.7545C72.8046 58.7545 72.2066 58.3348 72.2066 57.816C72.2066 57.2972 72.8085 56.8775 73.549 56.8775C74.2896 56.8775 74.8915 57.2933 74.8915 57.816Z"
        fill="white" />
    <path
        d="M66.429 46.827C66.3425 46.176 66.1062 45.5539 65.7386 45.0097C65.3709 44.4655 64.882 44.014 64.3104 43.6907C64.3282 43.5156 64.3282 43.3391 64.3104 43.164C64.1282 41.4295 62.2195 40.2059 60.0257 40.392C59.1901 38.7842 57.0755 37.7744 54.7272 38.016C53.8876 38.0768 53.072 38.3233 52.3393 38.7376C51.6065 39.1519 50.9749 39.7238 50.49 40.4118C50.2521 40.404 50.014 40.412 49.7772 40.4356C47.5398 40.6692 45.8766 42.2809 46.0587 44.0392C46.0908 44.3376 46.1738 44.6282 46.3043 44.8985C44.9579 45.7974 44.154 47.1676 44.3243 48.6169C44.4945 50.0663 45.4687 51.1553 46.8824 51.7849C46.8802 51.7994 46.8802 51.8141 46.8824 51.8285C47.0606 53.5353 48.9099 54.751 51.0642 54.6005C52.5637 55.7131 54.4348 56.2039 56.2874 55.9706C57.6249 55.8447 58.9059 55.3694 60.0019 54.5926C60.1857 54.5963 60.3695 54.5884 60.5523 54.5688C62.7897 54.3352 64.4529 52.7234 64.2708 50.9613C64.2708 50.9613 64.2708 50.9612 64.2708 50.9296C65.736 49.9356 66.5953 48.4229 66.429 46.827Z"
        fill="#407BFF" />
    <path opacity="0.7"
        d="M66.429 46.827C66.3425 46.176 66.1062 45.5539 65.7386 45.0097C65.3709 44.4655 64.882 44.014 64.3104 43.6907C64.3282 43.5156 64.3282 43.3391 64.3104 43.164C64.1282 41.4295 62.2195 40.2059 60.0257 40.392C59.1901 38.7842 57.0755 37.7744 54.7272 38.016C53.8876 38.0768 53.072 38.3233 52.3393 38.7376C51.6065 39.1519 50.9749 39.7238 50.49 40.4118C50.2521 40.404 50.014 40.412 49.7772 40.4356C47.5398 40.6692 45.8766 42.2809 46.0587 44.0392C46.0908 44.3376 46.1738 44.6282 46.3043 44.8985C44.9579 45.7974 44.154 47.1676 44.3243 48.6169C44.4945 50.0663 45.4687 51.1553 46.8824 51.7849C46.8802 51.7994 46.8802 51.8141 46.8824 51.8285C47.0606 53.5353 48.9099 54.751 51.0642 54.6005C52.5637 55.7131 54.4348 56.2039 56.2874 55.9706C57.6249 55.8447 58.9059 55.3694 60.0019 54.5926C60.1857 54.5963 60.3695 54.5884 60.5523 54.5688C62.7897 54.3352 64.4529 52.7234 64.2708 50.9613C64.2708 50.9613 64.2708 50.9612 64.2708 50.9296C65.736 49.9356 66.5953 48.4229 66.429 46.827Z"
        fill="white" />
    <path
        d="M124.368 64.8965C124.443 63.8392 123.576 63.0551 122.13 62.9521C121.542 62.8774 120.943 62.9508 120.39 63.1659C119.837 63.381 119.346 63.7308 118.962 64.1837L117.216 62.861C118.376 61.5028 120.142 60.7543 122.503 60.9246C125.275 61.1226 127.041 62.5086 126.886 64.6945C126.665 67.7754 123.413 67.8269 123.251 70.0564L120.851 69.8861C121.037 67.0903 124.229 66.7854 124.368 64.8965ZM120.317 72.9036C120.364 72.5199 120.558 72.1691 120.857 71.9237C121.156 71.6784 121.537 71.5572 121.923 71.5851C122.309 71.6131 122.669 71.7881 122.929 72.0739C123.19 72.3598 123.33 72.7348 123.322 73.1214C123.275 73.5051 123.081 73.8559 122.782 74.1013C122.483 74.3466 122.102 74.4678 121.716 74.4399C121.33 74.4119 120.97 74.2369 120.71 73.9511C120.449 73.6652 120.309 73.2902 120.317 72.9036Z"
        fill="#407BFF" />
    <path
        d="M96.8814 41.1325C96.8259 42.2136 95.2974 43.0175 93.4639 42.9224C91.6304 42.8274 90.189 41.877 90.2444 40.792C90.2998 39.7069 91.8284 38.907 93.6619 39.002C95.4954 39.0971 96.9368 40.0475 96.8814 41.1325Z"
        fill="#263238" />
    <path
        d="M98.497 37.62C98.6859 37.4599 98.8052 37.2328 98.8297 36.9864C98.8851 35.9251 96.6675 34.947 93.8797 34.8044C91.0918 34.6619 88.7871 35.4103 88.7317 36.4716C88.7318 36.718 88.8269 36.9548 88.997 37.1329C88.9361 37.2352 88.9008 37.3507 88.894 37.4695C88.8948 37.7142 88.9915 37.9488 89.1633 38.1229C89.0995 38.2256 89.0628 38.3428 89.0564 38.4635C89.0567 38.5852 89.0817 38.7055 89.1301 38.8172C89.1784 38.9288 89.249 39.0295 89.3376 39.1129C89.2673 39.2163 89.2262 39.3367 89.2188 39.4614C89.2203 39.583 89.2468 39.703 89.2965 39.8141C89.3462 39.9251 89.4182 40.0247 89.5078 40.1069C89.4346 40.2108 89.3908 40.3326 89.3811 40.4593C89.3336 41.3424 91.179 42.1542 93.4956 42.273C95.8122 42.3918 97.7328 41.774 97.7763 40.887C97.7806 40.7607 97.749 40.6358 97.6852 40.5266C97.7838 40.4549 97.8662 40.3631 97.9269 40.2573C97.9877 40.1516 98.0254 40.0342 98.0377 39.9128C98.0442 39.7891 98.0168 39.6658 97.9585 39.5564C98.0544 39.4818 98.1343 39.3887 98.1935 39.2825C98.2526 39.1764 98.2899 39.0595 98.303 38.9387C98.3072 38.8168 98.2813 38.6958 98.2278 38.5862C98.3225 38.5103 98.401 38.4162 98.4588 38.3094C98.5167 38.2026 98.5525 38.0854 98.5644 37.9645C98.5697 37.846 98.5466 37.7278 98.497 37.62Z"
        fill="#263238" />
    <path opacity="0.3"
        d="M98.497 37.62C98.6859 37.4599 98.8052 37.2328 98.8297 36.9864C98.8851 35.9251 96.6675 34.947 93.8797 34.8044C91.0918 34.6619 88.7871 35.4103 88.7317 36.4716C88.7318 36.718 88.8269 36.9548 88.997 37.1329C88.9361 37.2352 88.9008 37.3507 88.894 37.4695C88.8948 37.7142 88.9915 37.9488 89.1633 38.1229C89.0995 38.2256 89.0628 38.3428 89.0564 38.4635C89.0567 38.5852 89.0817 38.7055 89.1301 38.8172C89.1784 38.9288 89.249 39.0295 89.3376 39.1129C89.2673 39.2163 89.2262 39.3367 89.2188 39.4614C89.2203 39.583 89.2468 39.703 89.2965 39.8141C89.3462 39.9251 89.4182 40.0247 89.5078 40.1069C89.4346 40.2108 89.3908 40.3326 89.3811 40.4593C89.3336 41.3424 91.179 42.1542 93.4956 42.273C95.8122 42.3918 97.7328 41.774 97.7763 40.887C97.7806 40.7607 97.749 40.6358 97.6852 40.5266C97.7838 40.4549 97.8662 40.3631 97.9269 40.2573C97.9877 40.1516 98.0254 40.0342 98.0377 39.9128C98.0442 39.7891 98.0168 39.6658 97.9585 39.5564C98.0544 39.4818 98.1343 39.3887 98.1935 39.2825C98.2526 39.1764 98.2899 39.0595 98.303 38.9387C98.3072 38.8168 98.2813 38.6958 98.2278 38.5862C98.3225 38.5103 98.401 38.4162 98.4588 38.3094C98.5167 38.2026 98.5525 38.0854 98.5644 37.9645C98.5697 37.846 98.5466 37.7278 98.497 37.62Z"
        fill="white" />
    <path
        d="M103.166 28.3892C103.243 26.8828 102.938 25.3815 102.279 24.0247C101.62 22.6679 100.628 21.4998 99.3966 20.629C98.165 19.7581 96.7332 19.2128 95.2344 19.0438C93.7355 18.8748 92.2182 19.0875 90.8236 19.6622C89.4291 20.2368 88.2024 21.1548 87.2578 22.3308C86.3131 23.5067 85.6812 24.9024 85.4207 26.3881C85.1602 27.8738 85.2796 29.4012 85.7677 30.8284C86.2559 32.2556 87.0971 33.5361 88.2129 34.551C88.3921 34.7115 88.5291 34.9134 88.612 35.1392C88.6948 35.365 88.721 35.6077 88.6881 35.8459C88.6862 35.8696 88.6862 35.8935 88.6881 35.9172C88.6327 36.9983 90.8859 37.9883 93.7173 38.1348C96.5487 38.2813 98.8891 37.521 98.9445 36.4439V36.3726C98.936 36.1292 98.988 35.8875 99.0958 35.6691C99.2036 35.4507 99.3639 35.2625 99.5623 35.1212C100.623 34.3351 101.496 33.3237 102.12 32.1596C102.743 30.9956 103.1 29.7079 103.166 28.3892Z"
        fill="#407BFF" />
    <path opacity="0.3"
        d="M103.166 28.3892C103.243 26.8828 102.938 25.3815 102.279 24.0247C101.62 22.6679 100.628 21.4998 99.3966 20.629C98.165 19.7581 96.7332 19.2128 95.2344 19.0438C93.7355 18.8748 92.2182 19.0875 90.8236 19.6622C89.4291 20.2368 88.2024 21.1548 87.2578 22.3308C86.3131 23.5067 85.6812 24.9024 85.4207 26.3881C85.1602 27.8738 85.2796 29.4012 85.7677 30.8284C86.2559 32.2556 87.0971 33.5361 88.2129 34.551C88.3921 34.7115 88.5291 34.9134 88.612 35.1392C88.6948 35.365 88.721 35.6077 88.6881 35.8459C88.6862 35.8696 88.6862 35.8935 88.6881 35.9172C88.6327 36.9983 90.8859 37.9883 93.7173 38.1348C96.5487 38.2813 98.8891 37.521 98.9445 36.4439V36.3726C98.936 36.1292 98.988 35.8875 99.0958 35.6691C99.2036 35.4507 99.3639 35.2625 99.5623 35.1212C100.623 34.3351 101.496 33.3237 102.12 32.1596C102.743 30.9956 103.1 29.7079 103.166 28.3892Z"
        fill="white" />
    <path
        d="M95.3449 36.7528H95.3211C95.3073 36.7499 95.2942 36.7444 95.2826 36.7365C95.2709 36.7286 95.2609 36.7185 95.2532 36.7067C95.2455 36.6949 95.2402 36.6817 95.2375 36.6679C95.2349 36.654 95.2351 36.6398 95.238 36.626C95.2696 36.4558 96.03 32.5829 98.1565 31.1771L96.8338 31.1098C96.8127 31.1086 96.7924 31.1012 96.7755 31.0885C96.7586 31.0758 96.7458 31.0584 96.7388 31.0385L96.3428 29.9693L95.2261 32.0206C95.2165 32.0379 95.2024 32.0523 95.1854 32.0624C95.1683 32.0725 95.1489 32.0778 95.1291 32.0778C95.1093 32.0778 95.0898 32.0725 95.0728 32.0624C95.0557 32.0523 95.0416 32.0379 95.032 32.0206L94.1212 29.8386L93.0164 31.6444C93.0081 31.662 92.9945 31.6765 92.9774 31.6857C92.9602 31.695 92.9406 31.6985 92.9214 31.6958C92.902 31.6959 92.8831 31.6903 92.8669 31.6798C92.8508 31.6692 92.838 31.6541 92.8303 31.6364L91.9195 29.7356L91.4166 30.7732C91.4077 30.7925 91.393 30.8086 91.3745 30.8192C91.3561 30.8299 91.3348 30.8345 91.3136 30.8326L89.888 30.7613C90.4503 31.4266 92.1967 33.7273 92.0541 36.4874C92.0541 36.5158 92.0429 36.543 92.0228 36.563C92.0028 36.5831 91.9756 36.5944 91.9472 36.5944C91.9189 36.5944 91.8917 36.5831 91.8716 36.563C91.8516 36.543 91.8403 36.5158 91.8403 36.4874C92.0026 33.3194 89.5831 30.7534 89.5593 30.7256C89.5471 30.7083 89.5405 30.6875 89.5405 30.6662C89.5405 30.645 89.5471 30.6242 89.5593 30.6068C89.5681 30.5871 89.5826 30.5705 89.601 30.5592C89.6194 30.5479 89.6407 30.5424 89.6623 30.5435L91.274 30.6266L91.8442 29.4386C91.8534 29.4212 91.867 29.4065 91.8837 29.396C91.9004 29.3856 91.9196 29.3798 91.9393 29.3792C91.9596 29.3795 91.9794 29.3852 91.9968 29.3956C92.0142 29.406 92.0285 29.4209 92.0383 29.4386L92.957 31.3632L94.0698 29.5416C94.0801 29.5251 94.0949 29.512 94.1124 29.5035C94.1299 29.4951 94.1495 29.4919 94.1688 29.4941C94.1884 29.4948 94.2074 29.5012 94.2236 29.5124C94.2397 29.5237 94.2523 29.5393 94.2598 29.5574L95.1627 31.7275L96.2874 29.6604C96.297 29.6428 96.3114 29.6283 96.3289 29.6185C96.3464 29.6087 96.3663 29.604 96.3864 29.605C96.4073 29.6066 96.4274 29.6142 96.4442 29.6268C96.4611 29.6394 96.474 29.6566 96.4814 29.6762L96.9289 30.8999L98.5406 30.983C98.5639 30.9842 98.5862 30.9929 98.6041 31.008C98.622 31.023 98.6344 31.0434 98.6396 31.0662C98.6456 31.0894 98.6434 31.1139 98.6332 31.1356C98.6231 31.1572 98.6058 31.1747 98.5842 31.185C96.327 32.3532 95.4716 36.63 95.4637 36.6696C95.458 36.6959 95.4426 36.719 95.4205 36.7344C95.3985 36.7498 95.3715 36.7564 95.3449 36.7528Z"
        fill="#263238" />
    <path opacity="0.4"
        d="M97.0873 21.6889C97.8793 23.4947 96.4062 25.8628 93.8203 26.9834C91.2344 28.1041 88.502 27.5458 87.7219 25.744C86.9418 23.9422 88.403 21.5662 90.9889 20.4455C93.5748 19.3248 96.3032 19.8832 97.0873 21.6889Z"
        fill="white" />
    <path opacity="0.4"
        d="M96.228 28.1556C96.5408 28.8803 95.9508 29.8307 94.9132 30.2821C93.8757 30.7336 92.7788 30.5078 92.466 29.7832C92.1531 29.0585 92.7392 28.1081 93.7767 27.6566C94.8142 27.2052 95.9191 27.4309 96.228 28.1556Z"
        fill="white" />
    <path
        d="M57.2893 50.5256L57.8596 50.9969L58.8694 49.9871L58.3981 49.4168C58.6638 49.0163 58.8506 48.5687 58.9486 48.0982L59.6812 48.0269V46.6013L58.9486 46.53C58.8506 46.0594 58.6638 45.6119 58.3981 45.2113L58.8694 44.6411L57.8596 43.6313L57.2893 44.1025C56.8881 43.839 56.4407 43.6536 55.9706 43.556L55.9033 42.8195H54.4738L54.4064 43.556C53.9364 43.6536 53.489 43.839 53.0878 44.1025L52.5175 43.6313L51.5077 44.6411L51.979 45.2113C51.7133 45.6119 51.5264 46.0594 51.4285 46.53L50.6959 46.6013V48.0269L51.4285 48.0982C51.5264 48.5687 51.7133 49.0163 51.979 49.4168L51.5077 49.9871L52.5175 50.9969L53.0878 50.5256C53.489 50.7892 53.9364 50.9746 54.4064 51.0721L54.4738 51.8087H55.9033L55.9706 51.0721C56.4407 50.9746 56.8881 50.7892 57.2893 50.5256ZM53.2541 47.3141C53.2533 46.9309 53.3662 46.5561 53.5785 46.2372C53.7908 45.9182 54.093 45.6694 54.4467 45.5222C54.8005 45.3751 55.19 45.3361 55.5659 45.4104C55.9418 45.4847 56.2872 45.6688 56.5584 45.9395C56.8296 46.2101 57.0144 46.5551 57.0895 46.9309C57.1645 47.3066 57.1264 47.6962 56.9799 48.0503C56.8335 48.4043 56.5853 48.707 56.2668 48.9199C55.9482 49.1329 55.5737 49.2466 55.1905 49.2466C54.9364 49.2471 54.6847 49.1975 54.4498 49.1006C54.2149 49.0037 54.0014 48.8615 53.8215 48.682C53.6416 48.5025 53.4989 48.2892 53.4016 48.0545C53.3042 47.8198 53.2541 47.5682 53.2541 47.3141Z"
        fill="#407BFF" />
    <path d="M57.0636 143.435H54.45L59.796 115.244H62.4096L57.0636 143.435Z" fill="#407BFF" />
    <path d="M114.547 143.435H111.929L117.275 115.244H119.893L114.547 143.435Z" fill="#407BFF" />
    <path opacity="0.3" d="M57.0636 143.435H54.45L59.796 115.244H62.4096L57.0636 143.435Z"
        fill="white" />
    <path opacity="0.3" d="M114.547 143.435H111.929L117.275 115.244H119.893L114.547 143.435Z"
        fill="white" />
    <path d="M137.293 128.348H58.4298V130.997H137.293V128.348Z" fill="#407BFF" />
    <path opacity="0.5" d="M137.293 128.348H58.4298V130.997H137.293V128.348Z" fill="white" />
    <path d="M81.18 143.435H83.7936L78.4476 115.244H75.834L81.18 143.435Z" fill="#407BFF" />
    <path d="M138.659 143.435H141.273L135.927 115.244H133.313L138.659 143.435Z" fill="#407BFF" />
    <path opacity="0.3" d="M81.18 143.435H83.7936L78.4476 115.244H75.834L81.18 143.435Z"
        fill="white" />
    <path opacity="0.3" d="M138.659 143.435H141.273L135.927 115.244H133.313L138.659 143.435Z"
        fill="white" />
    <path d="M114.947 114.072H112.345L107.989 89.8564H110.591L114.947 114.072Z" fill="#407BFF" />
    <path opacity="0.3" d="M114.947 114.072H112.345L107.989 89.8564H110.591L114.947 114.072Z"
        fill="white" />
    <path d="M63.2728 114.072H60.6711L56.3151 89.8564H58.9168L63.2728 114.072Z" fill="#407BFF" />
    <path d="M89.1119 114.072H86.5062L82.1502 89.8564H84.7559L89.1119 114.072Z" fill="#407BFF" />
    <path opacity="0.3" d="M63.2728 114.072H60.6711L56.3151 89.8564H58.9168L63.2728 114.072Z"
        fill="white" />
    <path opacity="0.3" d="M89.1119 114.072H86.5062L82.1502 89.8564H84.7559L89.1119 114.072Z"
        fill="white" />
    <path d="M119.442 91.5077H51.1038L50.288 86.9775H118.626L119.442 91.5077Z" fill="#407BFF" />
    <path d="M120.915 99.7088H52.5769L51.7612 95.1746H120.099L120.915 99.7088Z" fill="#407BFF" />
    <path d="M122.388 107.906H54.054L53.2382 103.372H121.576L122.388 107.906Z" fill="#407BFF" />
    <path d="M141.819 113.355H54.7272V116.491H141.819V113.355Z" fill="#407BFF" />
    <path opacity="0.5" d="M119.442 91.5077H51.1038L50.288 86.9775H118.626L119.442 91.5077Z"
        fill="white" />
    <path opacity="0.5" d="M120.915 99.7088H52.5769L51.7612 95.1746H120.099L120.915 99.7088Z"
        fill="white" />
    <path opacity="0.5" d="M122.388 107.906H54.054L53.2382 103.372H121.576L122.388 107.906Z"
        fill="white" />
    <path opacity="0.5" d="M141.819 113.355H54.7272V116.491H141.819V113.355Z" fill="white" />
    <path opacity="0.2" d="M141.819 113.355H76.1112V116.491H141.819V113.355Z" fill="white" />
    <path
        d="M89.4524 74.2183C92.4066 74.5391 95.7528 75.1054 98.6198 74.7846C98.2501 75.0285 97.985 75.4018 97.8765 75.8312C97.7681 76.2606 97.8241 76.715 98.0337 77.1052C98.1565 77.2913 98.1723 77.2715 98.1644 77.2636C97.4492 76.6804 96.6724 76.1772 95.8478 75.7627C94.1371 74.8044 89.7851 72.6739 87.9753 71.7552L88.7396 69.6564C91.7068 70.3686 94.6184 71.295 97.4516 72.4284C99.0356 73.1729 101.55 73.9451 101.863 76.0162C102.053 79.3307 97.1903 79.204 94.9766 79.2317C92.901 79.1965 90.8308 79.0073 88.7832 78.6654L89.4683 74.2025L89.4524 74.2183Z"
        fill="#EBC0BB" />
    <path
        d="M95.436 79.9049L93.4084 80.1385L91.6343 80.3405L90.6087 77.6794L89.1871 73.9847L93.4282 74.448L95.2538 75.1846C95.5438 76.7408 95.6052 78.331 95.436 79.9049Z"
        fill="#407BFF" />
    <path opacity="0.2"
        d="M93.4006 80.1385L91.6265 80.3405L90.6008 77.6794C91.4443 78.0674 92.7313 78.8436 93.4006 80.1385Z"
        fill="black" />
    <path
        d="M75.8023 77.616C76.0743 76.763 76.5489 75.9886 77.1854 75.359C77.8219 74.7293 78.6015 74.2632 79.4574 74.0005C82.4076 73.0976 85.6469 73.854 86.7953 74.6896C87.9437 75.5251 82.071 79.0337 75.8023 77.616Z"
        fill="#407BFF" />
    <path
        d="M89.1792 73.9847C89.1792 73.9847 94.7232 81.9047 94.6083 97.1111L78.9901 99.9266C78.7089 98.8733 78.3842 95.7092 77.5764 91.6106C77.2318 89.8564 76.7844 87.9318 76.2458 85.928C75.4622 83.0376 74.4424 80.2166 73.1966 77.4932C73.1966 77.4932 78.8673 75.7073 80.9226 75.2558C82.863 74.844 89.1792 73.9847 89.1792 73.9847Z"
        fill="#263238" />
    <path
        d="M77.517 68.5516C77.6714 68.9238 77.8338 69.3436 77.9882 69.8188C78.6931 71.9215 79.2871 74.7252 78.2931 76.1548C79.0852 76.7097 79.988 77.0866 80.9395 77.2595C81.8911 77.4325 82.8688 77.3974 83.8054 77.1566C85.631 76.7606 85.4805 75.442 84.934 74.8123C84.2038 74.8399 83.4922 74.5781 82.954 74.0837C82.2808 73.3867 82.1937 72.2858 82.2531 71.2008L77.517 68.5516Z"
        fill="#EEC1BB" />
    <path opacity="0.2"
        d="M77.517 68.5516C77.6507 68.9823 77.808 69.4053 77.9882 69.8188C78.7089 71.4701 80.281 74.0995 82.958 74.0639C82.2848 73.3669 82.1977 72.266 82.2571 71.181L77.517 68.5516Z"
        fill="black" />
    <path
        d="M125.576 133.88C125.576 133.88 118.994 110.052 117.909 108.686C116.131 106.449 99.099 104.085 99.099 104.085L94.644 96.3824L78.5585 98.6357C78.5585 98.6357 79.7465 109.949 81.7265 112.864C83.7065 115.779 109.625 115.291 111.351 115.858C113.078 116.424 119.592 135.036 119.592 135.036L125.576 133.88Z"
        fill="#263238" />
    <path opacity="0.4"
        d="M83.5916 98.3862L78.5585 99.0158L78.7485 100.544L84.1144 99.9108L83.5916 98.3862Z"
        fill="white" />
    <path opacity="0.4"
        d="M84.3559 98.2476L84.8865 99.788L95.2538 98.1446L94.6083 96.7626L84.3559 98.2476Z"
        fill="white" />
    <path
        d="M89.8167 97.8556L90.1692 98.8733C90.2149 98.9966 90.3017 99.1005 90.4148 99.1675C90.528 99.2345 90.6608 99.2607 90.7909 99.2416L92.5689 98.9327C92.6277 98.9246 92.6839 98.9033 92.7334 98.8706C92.7828 98.8378 92.8243 98.7943 92.8547 98.7434C92.8851 98.6925 92.9037 98.6353 92.9091 98.5763C92.9144 98.5172 92.9065 98.4576 92.8857 98.402L92.5333 97.3843C92.4868 97.2607 92.3993 97.1567 92.2855 97.0897C92.1716 97.0227 92.0383 96.9967 91.9076 97.016L90.1296 97.3249C90.0712 97.3336 90.0154 97.3552 89.9664 97.3882C89.9174 97.4211 89.8764 97.4647 89.8464 97.5155C89.8164 97.5664 89.7982 97.6234 89.7931 97.6822C89.7879 97.741 89.796 97.8003 89.8167 97.8556Z"
        fill="white" />
    <path opacity="0.2" d="M99.099 104.085L93.2897 103.431L98.4773 103.011L99.099 104.085Z"
        fill="black" />
    <path
        d="M83.4767 62.4334C84.3361 63.1937 83.647 64.4134 83.8054 65.2687C83.9638 66.1241 84.2687 67.1972 83.0134 66.1835C81.7581 65.1697 82.1581 61.38 83.4767 62.4334Z"
        fill="#263238" />
    <path
        d="M84.7202 70.092C84.7682 70.542 84.6808 70.9961 84.4691 71.3961C84.2575 71.7961 83.9313 72.1238 83.5322 72.3373C82.2769 73.0145 80.2573 72.7333 78.6258 71.68C76.8953 70.5514 77.2002 70.0168 76.424 67.2408C76.2326 66.5945 76.2094 65.9099 76.3565 65.2521C76.5037 64.5943 76.8163 63.9849 77.2648 63.4817C77.7133 62.9784 78.2828 62.598 78.9195 62.3765C79.5561 62.1549 80.2388 62.0995 80.9028 62.2156C83.6748 62.6789 84.5064 66.7418 84.6885 69.4584C84.7044 69.696 84.7123 69.89 84.7202 70.092Z"
        fill="#EEC1BB" />
    <path
        d="M77.117 69.0862C78.507 69.6723 78.6614 67.8111 78.5545 67.6843C78.0793 67.1339 78.0238 66.6112 78.3169 65.3796C78.6099 64.1481 76.0795 63.1422 74.4598 63.8907C72.963 64.5797 74.7212 65.5697 74.6658 66.6151C74.5707 68.4803 75.9963 68.611 77.117 69.0862Z"
        fill="#263238" />
    <path
        d="M75.5409 69.395C75.9102 69.9488 76.4766 70.341 77.1249 70.492C77.9486 70.6583 78.206 69.8346 77.8536 69.0268C77.5328 68.2981 76.721 67.3358 75.9528 67.5378C75.1845 67.7398 75.0578 68.6902 75.5409 69.395Z"
        fill="#EEC1BB" />
    <path
        d="M80.0632 66.326C80.1266 66.5636 80.2375 66.5636 80.3959 66.5201C80.5543 66.4765 80.6889 66.4171 80.6295 66.1795C80.5701 65.9419 80.3919 65.7835 80.2335 65.8231C80.0751 65.8627 79.9919 66.0884 80.0632 66.326Z"
        fill="#263238" />
    <path
        d="M82.8669 65.9617C82.9263 66.2033 83.0412 66.1993 83.1996 66.1597C83.358 66.1201 83.4926 66.0528 83.4293 65.8152C83.3659 65.5776 83.1956 65.4192 83.0333 65.4588C82.8709 65.4984 82.8075 65.736 82.8669 65.9617Z"
        fill="#263238" />
    <path
        d="M82.3917 66.3419C82.7201 66.8649 83.12 67.3394 83.5797 67.7516C83.4713 67.8674 83.339 67.9582 83.192 68.0177C83.0449 68.0772 82.8867 68.104 82.7283 68.0962L82.3917 66.3419Z"
        fill="#ED847E" />
    <path
        d="M79.2 65.8152C79.1765 65.8205 79.1522 65.8205 79.1287 65.8152C79.096 65.7954 79.0723 65.7637 79.0627 65.7267C79.0531 65.6897 79.0583 65.6504 79.0772 65.6172C79.1887 65.416 79.3461 65.2439 79.5368 65.1152C79.7274 64.9865 79.9459 64.9048 80.1742 64.8767C80.1932 64.8751 80.2124 64.8773 80.2305 64.8832C80.2487 64.8892 80.2655 64.8987 80.2799 64.9113C80.2943 64.9238 80.3061 64.9392 80.3144 64.9564C80.3228 64.9735 80.3276 64.9922 80.3286 65.0113C80.3297 65.0306 80.3269 65.0498 80.3205 65.068C80.3141 65.0862 80.3042 65.103 80.2913 65.1173C80.2785 65.1317 80.2629 65.1433 80.2455 65.1516C80.2281 65.16 80.2092 65.1648 80.19 65.1658C80.0093 65.1908 79.8371 65.258 79.6871 65.3619C79.5372 65.4658 79.4137 65.6034 79.3267 65.7637C79.3112 65.7817 79.2916 65.7957 79.2695 65.8047C79.2475 65.8136 79.2237 65.8172 79.2 65.8152Z"
        fill="#263238" />
    <path
        d="M83.7342 64.944C83.7134 64.9548 83.6903 64.9604 83.6669 64.9604C83.6434 64.9604 83.6204 64.9548 83.5995 64.944C83.4547 64.8357 83.2861 64.7634 83.1077 64.7331C82.9294 64.7028 82.7464 64.7154 82.5739 64.7698C82.5562 64.7767 82.5374 64.7801 82.5184 64.7797C82.4994 64.7793 82.4807 64.7751 82.4633 64.7673C82.446 64.7596 82.4304 64.7485 82.4174 64.7346C82.4044 64.7207 82.3944 64.7044 82.3878 64.6866C82.3745 64.6513 82.3754 64.6123 82.3901 64.5777C82.4049 64.543 82.4324 64.5154 82.467 64.5005C82.6842 64.4287 82.9155 64.4099 83.1414 64.4457C83.3674 64.4815 83.5815 64.5709 83.7659 64.7064C83.7962 64.7293 83.8168 64.7629 83.8234 64.8004C83.83 64.8378 83.8222 64.8764 83.8015 64.9084C83.7827 64.9261 83.7594 64.9384 83.7342 64.944Z"
        fill="#263238" />
    <path
        d="M80.4315 63.3838C80.4315 63.3838 82.7125 64.0213 83.3896 62.0136C84.0668 60.0059 81.3621 59.2416 81.3621 59.2416C81.4854 59.4324 81.5661 59.6475 81.5989 59.8723C81.6317 60.0971 81.6158 60.3264 81.5522 60.5444C81.5522 60.5444 80.9226 59.2535 79.1762 59.9465C77.4298 60.6395 74.6737 61.6136 74.2222 62.6591C74.1036 62.906 74.0494 63.1789 74.0646 63.4524C74.0799 63.7259 74.1641 63.9911 74.3093 64.2233L77.3388 64.5044C77.4673 64.2269 77.6494 63.9776 77.8748 63.7709C78.1001 63.5641 78.3642 63.404 78.6517 63.2999C78.9392 63.1957 79.2445 63.1495 79.55 63.1639C79.8555 63.1783 80.1551 63.253 80.4315 63.3838Z"
        fill="#263238" />
    <path
        d="M82.7323 69.5138C82.0385 69.5222 81.3635 69.2883 80.8236 68.8525C80.7977 68.8253 80.7832 68.7891 80.7832 68.7515C80.7832 68.714 80.7977 68.6778 80.8236 68.6506C80.8368 68.6373 80.8525 68.6267 80.8699 68.6195C80.8872 68.6123 80.9058 68.6086 80.9245 68.6086C80.9433 68.6086 80.9619 68.6123 80.9792 68.6195C80.9965 68.6267 81.0123 68.6373 81.0255 68.6506C81.6134 69.1034 82.3564 69.3056 83.0926 69.2129C83.1303 69.2095 83.1678 69.2208 83.1973 69.2444C83.2268 69.268 83.2461 69.3021 83.251 69.3396C83.2555 69.3768 83.2452 69.4144 83.2222 69.444C83.1992 69.4737 83.1655 69.4931 83.1283 69.498C82.9967 69.5111 82.8645 69.5164 82.7323 69.5138Z"
        fill="#263238" />
    <path opacity="0.2"
        d="M125.576 133.876L119.592 135.036C119.592 135.036 113.062 116.424 111.335 115.858C109.609 115.291 83.6827 115.779 81.7146 112.864C79.7464 109.949 78.5466 98.6357 78.5466 98.6357L94.644 96.3824L95.9587 98.6555L96.6952 99.9266L99.099 104.085C99.099 104.085 116.127 106.461 117.909 108.686C118.998 110.052 125.576 133.876 125.576 133.876Z"
        fill="white" />
    <path
        d="M87.0289 103.011C87.0289 103.011 105.708 95.8558 110.789 97.8397C115.87 99.8237 131.951 117.762 131.951 117.762L128.324 122.364C128.324 122.364 112.044 106.888 110.139 106.005C108.235 105.122 89.0999 114.737 89.0999 114.737L87.0289 103.011Z"
        fill="#263238" />
    <path opacity="0.2"
        d="M87.0289 103.011C87.0289 103.011 105.708 95.8558 110.789 97.8397C115.87 99.8237 131.951 117.762 131.951 117.762L128.324 122.364C128.324 122.364 112.044 106.888 110.139 106.005C108.235 105.122 89.0999 114.737 89.0999 114.737L87.0289 103.011Z"
        fill="white" />
    <path d="M134.632 124.954L136.256 122.229L131.329 117.628L129.714 120.352L134.632 124.954Z"
        fill="#EEC1BB" />
    <path opacity="0.2"
        d="M129.714 120.352L131.333 117.632L134.149 120.261L132.422 122.891L129.714 120.352Z"
        fill="black" />
    <path
        d="M136.576 121.897C136.576 121.897 136.576 121.897 136.6 121.897C136.601 121.889 136.601 121.881 136.6 121.873C136.832 121.715 137.047 121.533 137.242 121.33C137.4 121.189 137.502 120.995 137.527 120.784C137.523 120.709 137.497 120.637 137.454 120.576C137.41 120.515 137.351 120.468 137.281 120.439C137.24 120.417 137.194 120.406 137.147 120.406C137.1 120.406 137.053 120.417 137.012 120.439C136.81 120.542 136.679 120.895 136.592 121.231C136.559 120.961 136.43 120.711 136.228 120.527C136.174 120.494 136.111 120.481 136.048 120.489C135.986 120.497 135.928 120.525 135.883 120.57C135.841 120.605 135.808 120.65 135.786 120.7C135.764 120.75 135.754 120.804 135.757 120.859C135.757 121.299 136.497 121.825 136.549 121.857L136.572 121.81L136.553 121.861C136.551 121.878 136.551 121.895 136.553 121.913C136.562 121.909 136.57 121.904 136.576 121.897ZM136.521 121.608C136.521 121.637 136.521 121.66 136.521 121.679C136.295 121.485 135.939 121.128 135.931 120.887C135.929 120.858 135.933 120.828 135.942 120.8C135.952 120.772 135.967 120.747 135.986 120.725L136.014 120.701C136.093 120.63 136.149 120.645 136.184 120.669C136.403 120.933 136.522 121.265 136.521 121.608ZM136.675 121.671C136.747 121.239 136.905 120.669 137.103 120.57C137.123 120.559 137.146 120.554 137.168 120.554C137.191 120.554 137.214 120.559 137.234 120.57C137.277 120.59 137.315 120.62 137.343 120.658C137.371 120.696 137.39 120.741 137.396 120.788C137.412 121.002 137.135 121.323 136.675 121.671Z"
        fill="#407BFF" />
    <path
        d="M136.105 121.806L133.729 124.443C133.708 124.464 133.691 124.489 133.68 124.516C133.668 124.544 133.662 124.574 133.662 124.603C133.662 124.633 133.668 124.663 133.68 124.69C133.691 124.718 133.708 124.743 133.729 124.764L135.709 126.783C135.763 126.834 135.827 126.873 135.896 126.898C135.965 126.924 136.039 126.935 136.113 126.932C136.186 126.929 136.259 126.911 136.326 126.879C136.392 126.847 136.452 126.803 136.501 126.748C137.321 125.813 137.665 125.326 138.703 124.158C139.678 123.167 140.582 122.108 141.408 120.99C142.132 119.873 141.012 119.188 140.616 119.596C139.653 120.558 137.757 121.342 136.636 121.536C136.433 121.562 136.245 121.657 136.105 121.806Z"
        fill="#263238" />
    <path d="M128.906 123.821L133.595 118.669L131.638 116.349L126.601 122.103L128.906 123.821Z"
        fill="#407BFF" />
    <path opacity="0.2"
        d="M128.906 123.821L133.595 118.669L131.638 116.349L126.601 122.103L128.906 123.821Z"
        fill="white" />
    <path
        d="M126.72 139.218C126.72 139.218 126.72 139.218 126.744 139.218H126.767C127.048 139.194 127.326 139.139 127.595 139.055C127.802 139.012 127.984 138.892 128.106 138.719C128.139 138.652 128.152 138.577 128.145 138.503C128.137 138.428 128.109 138.358 128.062 138.299C128.039 138.258 128.006 138.223 127.966 138.197C127.926 138.172 127.88 138.157 127.833 138.153C127.611 138.153 127.322 138.39 127.088 138.632C127.189 138.379 127.197 138.098 127.112 137.84C127.081 137.785 127.032 137.743 126.974 137.719C126.916 137.695 126.852 137.692 126.791 137.709C126.737 137.719 126.686 137.741 126.642 137.774C126.598 137.807 126.563 137.85 126.538 137.899C126.34 138.295 126.712 139.107 126.732 139.15L126.775 139.123L126.728 139.154C126.728 139.154 126.688 139.19 126.688 139.194L126.72 139.218ZM126.819 138.941C126.802 138.959 126.786 138.979 126.771 139C126.624 138.688 126.582 138.336 126.653 137.998C126.665 137.972 126.682 137.948 126.704 137.929C126.726 137.91 126.752 137.896 126.779 137.887H126.815C126.918 137.867 126.962 137.907 126.981 137.947C127.045 138.286 126.989 138.637 126.823 138.941H126.819ZM126.918 139.067C127.195 138.731 127.607 138.307 127.829 138.319C127.852 138.32 127.875 138.327 127.895 138.34C127.916 138.352 127.932 138.369 127.944 138.39C127.971 138.428 127.988 138.472 127.994 138.519C127.999 138.565 127.993 138.612 127.975 138.655C127.884 138.842 127.512 138.996 126.922 139.067H126.918Z"
        fill="#407BFF" />
    <path d="M123.536 140.936L126.284 139.352L124.095 132.688L121.354 134.276L123.536 140.936Z"
        fill="#EEC1BB" />
    <path opacity="0.2"
        d="M121.354 134.276L124.098 132.692L125.346 136.501L122.554 137.947L121.354 134.276Z"
        fill="black" />
    <path
        d="M126.36 138.909L122.99 140.049C122.961 140.057 122.934 140.07 122.911 140.089C122.888 140.107 122.868 140.13 122.854 140.155C122.84 140.181 122.831 140.21 122.827 140.239C122.824 140.268 122.827 140.298 122.835 140.327L123.576 143.051C123.623 143.19 123.723 143.305 123.854 143.371C123.985 143.437 124.137 143.449 124.277 143.403C125.445 142.988 125.983 142.73 127.464 142.215C128.371 141.907 130.201 141.38 131.377 140.762C132.553 140.144 131.908 138.996 131.357 139.154C130.042 139.527 128.003 139.281 126.934 138.905C126.747 138.843 126.545 138.844 126.36 138.909Z"
        fill="#263238" />
    <path d="M119.834 137.155L126.443 134.945L125.869 131.963L118.661 134.525L119.834 137.155Z"
        fill="#407BFF" />
    <path opacity="0.2"
        d="M119.834 137.155L126.443 134.945L125.869 131.963L118.661 134.525L119.834 137.155Z"
        fill="white" />
    <path opacity="0.2"
        d="M90.9335 113.83C90.9335 113.83 107.565 105.459 110.591 104.326C113.616 103.194 120.119 106.793 121.224 115.691L119.893 114.23C119.893 114.23 118.341 109.371 117.913 108.686C117.485 108.001 109.502 106.817 109.502 106.817C109.502 106.817 97.1705 112.999 90.9335 113.83Z"
        fill="black" />
    <path opacity="0.2"
        d="M96.6953 99.9266L89.1 102.247C89.1 102.247 93.5233 99.7603 95.9468 98.6555L96.6953 99.9266Z"
        fill="black" />
    <path
        d="M75.0974 82.0393C73.7867 82.5225 71.9769 83.2036 70.7097 83.7263C69.2881 84.3282 67.6684 84.9579 66.4765 85.8251C66.4052 85.8726 66.3656 85.9241 66.429 85.8251C66.5191 85.6414 66.5706 85.4412 66.5801 85.2368C66.5896 85.0325 66.5571 84.8283 66.4844 84.6371C66.3961 84.3593 66.2067 84.1247 65.9538 83.9797C66.4488 84.3045 67.3477 84.8311 67.8902 85.144C69.2445 85.936 70.6622 86.6963 72.0403 87.52L71.3235 89.6386C69.2291 89.3458 67.175 88.8144 65.2014 88.0546C63.6174 87.5318 62.1324 86.5379 62.5007 84.5816C63.0907 81.4136 70.8167 78.7842 73.6401 77.7863L75.0974 82.0591V82.0393Z"
        fill="#EBC0BB" />
    <path
        d="M79.596 102.663L76.618 104.334C76.618 104.334 75.43 94.2678 74.4519 86.4468C74.3173 85.3657 74.1866 84.3242 74.0559 83.362C73.6599 80.2375 73.3233 77.909 73.1966 77.4853L77.5051 76.0082C77.5051 76.0082 80.4988 86.0587 79.596 102.663Z"
        fill="#407BFF" />
    <path
        d="M78.408 74.448C77.8338 75.636 78.408 77.7467 78.408 77.7467L76.2735 79.2C76.2735 79.2 75.7825 78.602 75.9369 77.22C76.0914 75.838 78.408 74.448 78.408 74.448Z"
        fill="#407BFF" />
    <path opacity="0.5"
        d="M78.408 74.448C77.8338 75.636 78.408 77.7467 78.408 77.7467L76.2735 79.2C76.2735 79.2 75.7825 78.602 75.9369 77.22C76.0914 75.838 78.408 74.448 78.408 74.448Z"
        fill="white" />
    <path
        d="M72.0046 87.4012L74.5034 89.096L71.2206 91.0523C71.2206 91.0523 69.4227 89.1356 70.3414 88.0704L72.0046 87.4012Z"
        fill="#EEC1BB" />
    <path d="M75.2637 91.4522L72.4719 92.9412L71.2206 91.0523L74.5034 89.096L75.2637 91.4522Z"
        fill="#EEC1BB" />
    <path
        d="M85.7894 74.25C85.7894 74.25 88.5614 76.8161 91.3334 84.2332C93.6183 90.3276 92.9174 97.0913 96.0617 98.8614L94.9766 95.5627C94.9766 95.5627 94.3153 79.5089 89.1634 73.9847L85.7894 74.25Z"
        fill="#407BFF" />
    <path
        d="M83.2946 73.6204C83.2946 73.6204 85.0727 73.7075 86.823 75.7588L88.803 76.0082C87.3539 74.5166 85.3739 73.6583 83.2946 73.6204Z"
        fill="#407BFF" />
    <path opacity="0.5"
        d="M83.2946 73.6204C83.2946 73.6204 85.0727 73.7075 86.823 75.7588L88.803 76.0082C87.3539 74.5166 85.3739 73.6583 83.2946 73.6204Z"
        fill="white" />
    <path opacity="0.2"
        d="M74.448 86.4468C74.3134 85.3657 74.1827 84.3243 74.052 83.362C74.5034 82.368 74.8796 81.6116 74.8796 81.6116C74.8796 81.6116 75.3548 84.443 74.448 86.4468Z"
        fill="black" />
    <path
        d="M73.1966 77.4853C73.1966 77.4853 69.3791 79.0693 66.2864 80.6929L69.4544 85.3142L74.2737 84.9539C74.8199 83.7348 75.0086 82.3856 74.818 81.0634C74.6273 79.7413 74.065 78.5004 73.1966 77.4853Z"
        fill="#407BFF" />
    <path opacity="0.1"
        d="M84.7202 70.092C84.7682 70.542 84.6808 70.9961 84.4692 71.3961C84.2575 71.7961 83.9313 72.1239 83.5322 72.3373C83.3293 71.5176 83.0413 70.7213 82.6729 69.9613L84.6886 69.4703C84.7044 69.696 84.7123 69.89 84.7202 70.092Z"
        fill="black" />
    <path
        d="M88.7634 69.6723L85.7894 69.0624L86.6012 72.3294C86.6012 72.3294 89.2861 72.7254 89.4247 71.3196L88.7634 69.6723Z"
        fill="#EEC1BB" />
    <path d="M82.962 70.0801L84.6133 72.6502L86.6012 72.3294L85.7894 69.0624L82.962 70.0801Z"
        fill="#EEC1BB" />
</svg>
