<svg width="198" height="148" viewBox="0 0 198 148" fill="none" xmlns="http://www.w3.org/2000/svg">
    <path d="M198 129.65H0V129.749H198V129.65Z" fill="#EBEBEB" />
    <path d="M178.16 136.022H165.045V136.121H178.16V136.022Z" fill="#EBEBEB" />
    <path d="M131.163 137.099H127.722V137.198H131.163V137.099Z" fill="#EBEBEB" />
    <path d="M164.649 132.347H157.05V132.446H164.649V132.347Z" fill="#EBEBEB" />
    <path d="M37.8774 133.012H20.7742V133.111H37.8774V133.012Z" fill="#EBEBEB" />
    <path d="M43.9124 133.012H41.4058V133.111H43.9124V133.012Z" fill="#EBEBEB" />
    <path d="M89.1594 134.684H52.0621V134.783H89.1594V134.684Z" fill="#EBEBEB" />
    <path
        d="M93.852 111.989H17.3884C16.7894 111.988 16.2152 111.749 15.792 111.325C15.3688 110.901 15.1312 110.327 15.1312 109.728V2.24136C15.1364 1.64579 15.3764 1.07632 15.799 0.656655C16.2216 0.236989 16.7928 0.00102025 17.3884 0H93.852C94.4517 0 95.0268 0.238229 95.4509 0.662279C95.8749 1.08633 96.1132 1.66146 96.1132 2.26116V109.728C96.1132 110.327 95.8749 110.902 95.4509 111.327C95.0268 111.751 94.4517 111.989 93.852 111.989ZM17.3884 0.0792003C16.8156 0.0802493 16.2667 0.30851 15.862 0.71388C15.4574 1.11925 15.2302 1.66861 15.2302 2.24136V109.728C15.2302 110.3 15.4574 110.85 15.862 111.255C16.2667 111.661 16.8156 111.889 17.3884 111.89H93.852C94.4251 111.889 94.9745 111.661 95.3797 111.255C95.785 110.85 96.0131 110.301 96.0142 109.728V2.24136C96.0131 1.66824 95.785 1.1189 95.3797 0.713638C94.9745 0.308381 94.4251 0.0802471 93.852 0.0792003H17.3884Z"
        fill="#EBEBEB" />
    <path
        d="M179.511 111.989H103.043C102.444 111.988 101.869 111.749 101.445 111.325C101.022 110.902 100.783 110.327 100.782 109.728V2.24136C100.788 1.64543 101.029 1.07596 101.452 0.656407C101.876 0.236851 102.447 0.00100912 103.043 0H179.511C180.106 0.00206098 180.676 0.238491 181.098 0.658044C181.519 1.0776 181.759 1.64647 181.764 2.24136V109.728C181.764 110.326 181.527 110.9 181.105 111.324C180.682 111.748 180.109 111.987 179.511 111.989ZM103.043 0.0792003C102.47 0.0802471 101.921 0.308381 101.515 0.713638C101.11 1.1189 100.882 1.66824 100.881 2.24136V109.728C100.882 110.301 101.11 110.85 101.515 111.255C101.921 111.661 102.47 111.889 103.043 111.89H179.511C180.084 111.889 180.633 111.661 181.038 111.255C181.444 110.85 181.672 110.301 181.673 109.728V2.24136C181.672 1.66824 181.444 1.1189 181.038 0.713638C180.633 0.308381 180.084 0.0802471 179.511 0.0792003H103.043Z"
        fill="#EBEBEB" />
    <path
        d="M61.8037 98.7466L56.3191 103.332L64.152 114.69L70.3929 111.205C73.7383 114.418 77.66 116.97 81.9522 118.729L81.3186 125.825L94.8737 128.332L96.818 121.473C101.448 121.365 106.016 120.385 110.282 118.582L114.868 124.067L126.225 116.254L122.74 110.009C125.954 106.666 128.507 102.745 130.264 98.4535L137.36 99.0832L139.859 85.536L133.001 83.5877C132.893 78.9577 131.912 74.3898 130.11 70.1237L135.594 65.538L127.781 54.1847L121.536 57.6655C118.192 54.4529 114.272 51.9002 109.981 50.1415L110.615 43.0412L97.0596 40.5346L95.1113 47.3933C90.4816 47.5033 85.914 48.484 81.6473 50.2841L77.0457 44.7876L65.6924 52.6007L69.1733 58.8416C65.9606 62.1872 63.408 66.1089 61.6493 70.4009L54.549 69.7673L52.0463 83.3184L58.901 85.2667C59.0105 89.9028 59.9954 94.4763 61.8037 98.7466ZM77.616 81.0335C78.2861 77.4041 80.0174 74.055 82.591 71.4097C85.1646 68.7643 88.4649 66.9416 92.0745 66.172C95.6841 65.4025 99.4408 65.7206 102.87 67.0862C106.298 68.4518 109.245 70.8035 111.337 73.8439C113.429 76.8844 114.573 80.4769 114.623 84.1673C114.673 87.8577 113.628 91.48 111.62 94.5763C109.611 97.6726 106.729 100.104 103.339 101.562C99.9488 103.021 96.2021 103.441 92.5729 102.77C87.7074 101.87 83.3983 99.0751 80.5935 94.9988C77.7886 90.9226 76.7176 85.8993 77.616 81.0335Z"
        fill="#F0F0F0" />
    <path
        d="M152.416 104.477L156.697 105.269L157.315 103.099C158.78 103.066 160.226 102.757 161.576 102.188L163.025 103.918L166.613 101.451L165.512 99.4713C166.526 98.4135 167.332 97.1751 167.888 95.8201L170.13 96.0181L170.922 91.7334L168.755 91.1196C168.722 89.6544 168.411 88.2087 167.841 86.8587L169.575 85.4093L167.112 81.8215L165.132 82.9224C164.072 81.9101 162.832 81.1043 161.477 80.5464L161.679 78.3051L157.394 77.5131L156.776 79.6792C155.311 79.7134 153.866 80.0237 152.515 80.5939L151.066 78.8595L147.478 81.3305L148.579 83.3105C147.563 84.3678 146.757 85.608 146.203 86.9656L143.958 86.7636L143.166 91.0483L145.332 91.6661C145.368 93.1311 145.678 94.5763 146.247 95.927L144.54 97.3685L147.007 100.956L148.987 99.8554C150.045 100.87 151.285 101.676 152.642 102.231L152.416 104.477ZM151.248 90.3197C151.46 89.173 152.008 88.1149 152.821 87.2793C153.634 86.4436 154.677 85.8678 155.817 85.6248C156.958 85.3817 158.145 85.4823 159.228 85.9138C160.312 86.3453 161.243 87.0884 161.904 88.049C162.565 89.0096 162.926 90.1447 162.942 91.3107C162.958 92.4767 162.628 93.6213 161.994 94.5997C161.359 95.5781 160.449 96.3465 159.378 96.8076C158.307 97.2687 157.123 97.4019 155.976 97.1903C155.215 97.0502 154.488 96.7613 153.838 96.3401C153.188 95.9189 152.627 95.3736 152.188 94.7354C151.749 94.0973 151.44 93.3788 151.278 92.6211C151.117 91.8634 151.107 91.0813 151.248 90.3197Z"
        fill="#F0F0F0" />
    <path
        d="M32.967 103.942L36.23 104.544L36.7013 102.893C37.8163 102.864 38.9163 102.628 39.9445 102.196L41.0494 103.514L43.7857 101.633L42.9462 100.129C43.7189 99.327 44.3329 98.3865 44.7559 97.3566L46.4666 97.5071L47.0686 94.244L45.4172 93.7768C45.3927 92.66 45.1562 91.558 44.7203 90.5296L46.0429 89.4247L44.158 86.6923L42.6571 87.516C41.8532 86.7463 40.9132 86.1326 39.8851 85.7063L40.0396 83.9995L36.7726 83.3936L36.3053 85.045C35.189 85.0734 34.0877 85.3097 33.0581 85.7419L31.9572 84.4232L29.209 86.328L30.0485 87.8328C29.275 88.6337 28.6608 89.5744 28.2388 90.6048L26.532 90.4464L25.9301 93.7094L27.5814 94.1767C27.6057 95.2906 27.8409 96.3897 28.2744 97.416L26.9518 98.5208L28.8328 101.253L30.3376 100.414C31.1396 101.187 32.08 101.802 33.1096 102.227L32.967 103.942ZM32.076 93.159C32.238 92.2859 32.6552 91.4804 33.2749 90.8444C33.8946 90.2083 34.689 89.7703 35.5576 89.5857C36.4262 89.401 37.33 89.4781 38.1549 89.807C38.9797 90.136 39.6885 90.7021 40.1916 91.4339C40.6947 92.1656 40.9696 93.0301 40.9815 93.918C40.9934 94.8059 40.7418 95.6775 40.2585 96.4224C39.7751 97.1673 39.0818 97.7523 38.2661 98.1032C37.4503 98.4542 36.5489 98.5554 35.6756 98.3941C34.5044 98.1767 33.4673 97.5032 32.7923 96.5216C32.1174 95.5399 31.8597 94.3305 32.076 93.159Z"
        fill="#F0F0F0" />
    <path
        d="M91.2384 31.2286L93.7094 31.684L94.0619 30.4326C94.9077 30.4157 95.7425 30.2369 96.521 29.9059L97.3566 30.9078L99.4237 29.4822L98.7901 28.3457C99.375 27.7357 99.8398 27.021 100.16 26.239L101.451 26.3538L101.907 23.8867L100.659 23.5303C100.638 22.6862 100.46 21.8535 100.133 21.0751L101.13 20.2396L99.7088 18.1724L98.5723 18.806C97.9633 18.2169 97.2486 17.748 96.4656 17.424L96.5804 16.1291L94.1094 15.6737L93.757 16.925C92.9124 16.9416 92.0788 17.1204 91.3018 17.4517L90.4662 16.4498L88.3951 17.8754L89.0327 19.012C88.4467 19.6211 87.9817 20.336 87.6625 21.1187L86.3676 21.0038L85.932 23.4828L87.1794 23.8392C87.2002 24.6833 87.3788 25.516 87.7061 26.2944L86.7082 27.13L88.1338 29.1971L89.2703 28.5635C89.8783 29.1489 90.5919 29.6139 91.373 29.9336L91.2384 31.2286ZM90.5692 23.067C90.6915 22.4063 91.007 21.7968 91.4757 21.3154C91.9445 20.834 92.5454 20.5024 93.2026 20.3625C93.8597 20.2226 94.5436 20.2807 95.1678 20.5294C95.792 20.7781 96.3284 21.2063 96.7092 21.7599C97.0901 22.3134 97.2982 22.9674 97.3074 23.6393C97.3166 24.3111 97.1264 24.9706 96.7608 25.5343C96.3952 26.0981 95.8707 26.5408 95.2536 26.8065C94.6364 27.0721 93.9544 27.1489 93.2936 27.027C92.8547 26.946 92.4359 26.7793 92.0614 26.5365C91.6869 26.2936 91.3639 25.9793 91.1109 25.6115C90.8578 25.2438 90.6798 24.8298 90.5868 24.3932C90.4939 23.9566 90.4879 23.5059 90.5692 23.067Z"
        fill="#F0F0F0" />
    <path
        d="M152.096 56.426L153.743 56.7309L153.981 55.8994C154.543 55.8859 155.098 55.7663 155.616 55.5469L156.175 56.2122L157.557 55.2657L157.133 54.5054C157.523 54.1008 157.833 53.6249 158.044 53.1036L158.907 53.1788L159.212 51.5315L158.38 51.2939C158.366 50.7314 158.247 50.1766 158.028 49.6584L158.693 49.1L157.743 47.7219L156.986 48.1417C156.579 47.7524 156.102 47.4434 155.581 47.2309L155.66 46.3676L154.012 46.0627L153.775 46.8983C153.213 46.9103 152.658 47.0286 152.139 47.2467L151.581 46.5815L150.199 47.5319L150.623 48.2882C150.232 48.6944 149.923 49.1716 149.712 49.694L148.849 49.6188L148.544 51.2622L149.375 51.4998C149.389 52.0636 149.508 52.6198 149.728 53.1392L149.062 53.6936L150.013 55.0757L150.769 54.6519C151.176 55.0424 151.653 55.3528 152.175 55.5667L152.096 56.426ZM151.668 50.985C151.749 50.5435 151.96 50.1359 152.272 49.814C152.585 49.492 152.987 49.2701 153.426 49.1763C153.865 49.0825 154.322 49.1211 154.739 49.2871C155.156 49.4531 155.514 49.7392 155.769 50.109C156.023 50.4788 156.163 50.9158 156.169 51.3647C156.175 51.8136 156.047 52.2543 155.803 52.6308C155.558 53.0074 155.208 53.303 154.795 53.4802C154.383 53.6574 153.927 53.7082 153.486 53.6263C152.895 53.5166 152.371 53.1769 152.03 52.6817C151.69 52.1864 151.559 51.5762 151.668 50.985Z"
        fill="#F0F0F0" />
    <path
        d="M132.007 111.019C132.03 112.002 132.238 112.972 132.62 113.878L131.472 114.84L133.131 117.248L134.454 116.507C135.164 117.184 135.996 117.722 136.905 118.091L136.771 119.596L139.645 120.127L140.041 118.673C141.025 118.65 141.994 118.441 142.901 118.059L143.871 119.22L146.278 117.564L145.542 116.242C146.22 115.532 146.757 114.7 147.126 113.791L148.631 113.925L149.161 111.05L147.708 110.654C147.687 109.671 147.479 108.701 147.094 107.795L148.258 106.825L146.603 104.417L145.277 105.154C144.569 104.475 143.738 103.938 142.829 103.57L142.96 102.061L140.089 101.53L139.693 102.988C138.71 103.009 137.74 103.216 136.834 103.598L135.86 102.437L133.452 104.093L134.193 105.415C133.516 106.126 132.979 106.958 132.609 107.866L131.104 107.732L130.573 110.607L132.007 111.019ZM135.967 110.124C136.108 109.353 136.474 108.641 137.02 108.078C137.566 107.516 138.267 107.128 139.033 106.964C139.8 106.8 140.598 106.867 141.326 107.157C142.054 107.447 142.68 107.946 143.125 108.592C143.569 109.238 143.811 110.001 143.822 110.785C143.832 111.569 143.609 112.338 143.182 112.995C142.755 113.652 142.142 114.168 141.422 114.476C140.701 114.785 139.905 114.873 139.135 114.729C138.105 114.536 137.195 113.943 136.602 113.08C136.009 112.216 135.782 111.154 135.971 110.124H135.967Z"
        fill="#F0F0F0" />
    <path
        d="M60.2356 58.4932C60.5959 60.2752 58.4377 62.2195 55.4162 62.8294C52.3948 63.4392 49.6545 62.4849 49.2941 60.7029C48.9337 58.9209 51.0919 56.9725 54.1134 56.3469C57.1349 55.7212 59.8752 56.7072 60.2356 58.4932Z"
        fill="#E0E0E0" />
    <path
        d="M61.4038 52.0898C61.6445 51.7513 61.7426 51.3318 61.677 50.9216C61.3246 49.1674 57.321 48.5021 52.7116 49.4287C48.1021 50.3554 44.6728 52.5334 45.0252 54.2837C45.1284 54.686 45.3821 55.0333 45.734 55.2539C45.6797 55.4445 45.6702 55.6451 45.7063 55.84C45.8085 56.2387 46.0649 56.5806 46.4191 56.7904C46.3583 56.9864 46.3461 57.1944 46.3835 57.3962C46.4355 57.5937 46.5269 57.7785 46.6521 57.9398C46.7773 58.1011 46.9338 58.2354 47.1121 58.3348C47.0439 58.5319 47.0275 58.7433 47.0646 58.9486C47.1175 59.1462 47.2105 59.3309 47.3379 59.491C47.4653 59.6511 47.6244 59.7832 47.8051 59.8792C47.7273 60.0781 47.7068 60.2948 47.7457 60.5048C48.0388 61.9621 51.377 62.5165 55.1984 61.7443C59.0198 60.9721 61.8829 59.1664 61.5899 57.7091C61.5414 57.5005 61.4374 57.309 61.2889 57.1547C61.4191 56.9975 61.5148 56.8148 61.5701 56.6184C61.6253 56.422 61.6388 56.2162 61.6097 56.0142C61.5662 55.8091 61.4692 55.6192 61.3285 55.4638C61.4534 55.3024 61.5448 55.1176 61.5971 54.9204C61.6495 54.7232 61.6619 54.5174 61.6334 54.3154C61.5902 54.1157 61.4991 53.9296 61.3681 53.7728C61.6131 53.4421 61.717 53.0277 61.6572 52.6205C61.6139 52.4267 61.5272 52.2453 61.4038 52.0898Z"
        fill="#EBEBEB" />
    <path
        d="M65.1618 35.1331C64.6678 32.6404 63.5506 30.3134 61.9143 28.3691C60.2781 26.4248 58.1761 24.9265 55.8043 24.014C53.4326 23.1015 50.8685 22.8045 48.351 23.1507C45.8334 23.4969 43.4446 24.475 41.4072 25.9937C39.3698 27.5125 37.7502 29.5225 36.6995 31.8363C35.6488 34.1501 35.2011 36.6923 35.3982 39.2258C35.5954 41.7594 36.4309 44.2017 37.8269 46.3251C39.223 48.4485 41.134 50.1838 43.3818 51.3691C43.742 51.5548 44.0508 51.8266 44.2808 52.1602C44.5108 52.4939 44.655 52.8791 44.7005 53.2818C44.7005 53.3214 44.7005 53.361 44.7005 53.4006C45.0608 55.1826 49.1396 55.8598 53.8085 54.9173C58.4773 53.9748 61.97 51.7493 61.6097 49.9871C61.6097 49.9475 61.6097 49.9118 61.582 49.8722C61.4684 49.4795 61.4535 49.0648 61.5384 48.6648C61.6234 48.2649 61.8056 47.8921 62.069 47.5794C63.4713 45.8617 64.4758 43.8549 65.0106 41.7029C65.5453 39.551 65.5969 37.3074 65.1618 35.1331Z"
        fill="#F5F5F5" />
    <path
        d="M55.9112 52.0067H55.8756C55.8279 52.0089 55.7813 51.9922 55.7458 51.9604C55.7102 51.9285 55.6886 51.884 55.6855 51.8364C55.6855 51.5434 55.3172 44.9222 58.1684 41.7503L55.9825 42.1898C55.9481 42.1984 55.9119 42.1956 55.8791 42.1821C55.8463 42.1686 55.8187 42.1449 55.8004 42.1146L54.7153 40.5306L53.757 44.352C53.748 44.3848 53.7305 44.4146 53.7061 44.4382C53.6817 44.4619 53.6514 44.4786 53.6184 44.4866C53.5848 44.4937 53.5498 44.4912 53.5176 44.4793C53.4854 44.4674 53.4572 44.4466 53.4362 44.4193L51.0602 41.2513L50.0148 44.653C50.0075 44.6854 49.9902 44.7147 49.9653 44.7367C49.9404 44.7587 49.9093 44.7724 49.8762 44.7757C49.8445 44.781 49.812 44.7784 49.7816 44.768C49.7512 44.7576 49.7238 44.7399 49.702 44.7163L47.421 41.976L47.025 43.8768C47.0196 43.9116 47.0032 43.9438 46.9783 43.9687C46.9534 43.9936 46.9212 44.01 46.8864 44.0154L44.5104 44.4906C45.6984 45.342 49.504 48.3556 50.4227 52.9096C50.4274 52.9327 50.4274 52.9565 50.4229 52.9797C50.4184 53.0029 50.4093 53.0249 50.3963 53.0446C50.3832 53.0643 50.3664 53.0812 50.3468 53.0944C50.3272 53.1076 50.3052 53.1167 50.2821 53.1214C50.259 53.1261 50.2351 53.1262 50.212 53.1216C50.1888 53.1171 50.1667 53.1081 50.1471 53.095C50.1274 53.082 50.1105 53.0652 50.0973 53.0456C50.0841 53.026 50.0749 53.004 50.0702 52.9808C49.009 47.7378 44.0114 44.5817 43.96 44.554C43.9292 44.5347 43.9049 44.5066 43.8902 44.4734C43.8754 44.4402 43.871 44.4033 43.8774 44.3676C43.8838 44.3318 43.9007 44.2988 43.926 44.2727C43.9513 44.2467 43.9838 44.2288 44.0194 44.2213L46.6765 43.6867L47.12 41.5404C47.126 41.5071 47.1416 41.4763 47.1648 41.4517C47.188 41.427 47.2178 41.4097 47.2507 41.4018C47.2835 41.3923 47.3185 41.3929 47.3509 41.4035C47.3834 41.414 47.412 41.4342 47.4329 41.4612L49.7297 44.2055L50.8068 40.788C50.8158 40.7556 50.8339 40.7264 50.8588 40.7038C50.8838 40.6812 50.9146 40.6662 50.9477 40.6604C50.9809 40.6546 51.015 40.6583 51.0461 40.6711C51.0772 40.6838 51.1041 40.7052 51.1236 40.7326L53.4996 43.9006L54.4658 40.0712C54.4745 40.038 54.4926 40.0081 54.5179 39.9849C54.5431 39.9617 54.5746 39.9463 54.6084 39.9406C54.6422 39.9335 54.6774 39.937 54.7092 39.9504C54.7411 39.9639 54.768 39.9867 54.7866 40.0158L56.03 41.8216L58.6832 41.287C58.7221 41.2777 58.763 41.2821 58.7991 41.2994C58.8352 41.3167 58.8642 41.3458 58.8812 41.382C58.8985 41.4172 58.904 41.457 58.8969 41.4955C58.8897 41.534 58.8704 41.5692 58.8416 41.5958C55.6538 44.4352 56.0419 51.7493 56.0459 51.8245C56.0473 51.8656 56.0348 51.906 56.0103 51.9391C55.9859 51.9721 55.951 51.996 55.9112 52.0067Z"
        fill="#E0E0E0" />
    <path
        d="M99 147.534C141.405 147.534 175.78 145.527 175.78 143.051C175.78 140.575 141.405 138.568 99 138.568C56.5954 138.568 22.2196 140.575 22.2196 143.051C22.2196 145.527 56.5954 147.534 99 147.534Z"
        fill="#F5F5F5" />
    <path
        d="M146.274 37.8378C146.274 35.5212 145.063 33.4264 143.106 31.9216C143.171 31.6156 143.205 31.3037 143.205 30.991C143.205 27.9022 140.065 25.3915 136.157 25.3202C134.969 22.3304 131.436 20.1722 127.247 20.1722C123.912 20.1722 120.986 21.5503 119.327 23.6214C118.908 23.5641 118.486 23.535 118.063 23.5343C114.08 23.5343 110.848 26.0766 110.848 29.2129C110.848 29.744 110.942 30.2709 111.126 30.7692C108.587 32.1037 106.912 34.3768 106.912 36.9587C106.912 39.4456 108.464 41.6434 110.848 42.9937V43.0729C110.848 46.1182 113.89 48.6169 117.715 48.7436C119.822 50.8028 123.053 52.1215 126.676 52.1215C129.056 52.1421 131.399 51.5386 133.472 50.3712C133.798 50.4078 134.126 50.4263 134.454 50.4266C138.438 50.4266 141.669 47.8843 141.669 44.748V44.6926C144.457 43.1878 146.274 40.6811 146.274 37.8378Z"
        fill="#407BFF" />
    <path
        d="M106.599 54.5134C106.599 55.0321 105.997 55.4519 105.257 55.4519C104.516 55.4519 103.914 55.0321 103.914 54.5134C103.914 53.9946 104.516 53.5748 105.257 53.5748C105.997 53.5748 106.599 53.9946 106.599 54.5134Z"
        fill="#407BFF" />
    <path
        d="M115.897 52.272C115.897 53.7728 114.151 54.9886 111.997 54.9886C109.842 54.9886 108.108 53.7808 108.108 52.272C108.108 50.7632 109.854 49.5554 112.009 49.5554C114.163 49.5554 115.897 50.783 115.897 52.272Z"
        fill="#407BFF" />
    <path opacity="0.7"
        d="M146.274 37.8378C146.274 35.5212 145.063 33.4264 143.106 31.9216C143.171 31.6156 143.205 31.3037 143.205 30.991C143.205 27.9022 140.065 25.3915 136.157 25.3202C134.969 22.3304 131.436 20.1722 127.247 20.1722C123.912 20.1722 120.986 21.5503 119.327 23.6214C118.908 23.5641 118.486 23.535 118.063 23.5343C114.08 23.5343 110.848 26.0766 110.848 29.2129C110.848 29.744 110.942 30.2709 111.126 30.7692C108.587 32.1037 106.912 34.3768 106.912 36.9587C106.912 39.4456 108.464 41.6434 110.848 42.9937V43.0729C110.848 46.1182 113.89 48.6169 117.715 48.7436C119.822 50.8028 123.053 52.1215 126.676 52.1215C129.056 52.1421 131.399 51.5386 133.472 50.3712C133.798 50.4078 134.126 50.4263 134.454 50.4266C138.438 50.4266 141.669 47.8843 141.669 44.748V44.6926C144.457 43.1878 146.274 40.6811 146.274 37.8378Z"
        fill="white" />
    <path opacity="0.7"
        d="M106.599 54.5134C106.599 55.0321 105.997 55.4519 105.257 55.4519C104.516 55.4519 103.914 55.0321 103.914 54.5134C103.914 53.9946 104.516 53.5748 105.257 53.5748C105.997 53.5748 106.599 53.9946 106.599 54.5134Z"
        fill="white" />
    <path opacity="0.7"
        d="M115.897 52.272C115.897 53.7728 114.151 54.9886 111.997 54.9886C109.842 54.9886 108.108 53.7808 108.108 52.272C108.108 50.7632 109.854 49.5554 112.009 49.5554C114.163 49.5554 115.897 50.783 115.897 52.272Z"
        fill="white" />
    <path
        d="M126.791 25.9063C130.644 25.9063 133.028 27.716 133.028 30.9355C133.028 35.2915 128.601 35.8499 128.601 39.2119H124.78C124.78 34.7886 128.316 34.5272 128.316 31.7711C128.316 30.5831 127.567 30.0168 126.304 30.0168C124.894 30.0168 124.146 30.8484 124.118 32.575H120.182C120.21 28.3496 122.681 25.9063 126.791 25.9063ZM129.096 43.8728C129.096 44.525 128.837 45.1505 128.376 45.6117C127.915 46.0729 127.289 46.332 126.637 46.332C125.985 46.332 125.359 46.0729 124.898 45.6117C124.437 45.1505 124.178 44.525 124.178 43.8728C124.178 43.2206 124.437 42.5951 124.898 42.1339C125.359 41.6728 125.985 41.4137 126.637 41.4137C127.289 41.4137 127.915 41.6728 128.376 42.1339C128.837 42.5951 129.096 43.2206 129.096 43.8728Z"
        fill="#407BFF" />
    <path
        d="M40.4514 118.238C40.4514 118.238 37.8655 115.161 36.2142 116.598C34.5629 118.036 35.3945 121.077 37.3032 121.176C38.4401 121.243 39.5636 120.902 40.4712 120.214L40.4514 118.238Z"
        fill="#407BFF" />
    <path opacity="0.2"
        d="M40.4514 118.238C40.4514 118.238 37.8655 115.161 36.2142 116.598C34.5629 118.036 35.3945 121.077 37.3032 121.176C38.4401 121.243 39.5636 120.902 40.4712 120.214L40.4514 118.238Z"
        fill="white" />
    <path
        d="M51.0009 110.436C51.0009 110.436 53.1709 108.159 54.5173 108.548C55.8637 108.936 55.7053 114.365 51.5513 112.167L51.0009 110.436Z"
        fill="#407BFF" />
    <path opacity="0.3"
        d="M51.0009 110.436C51.0009 110.436 53.1709 108.159 54.5173 108.548C55.8637 108.936 55.7053 114.365 51.5513 112.167L51.0009 110.436Z"
        fill="white" />
    <path
        d="M43.2432 127.405C43.2432 127.405 36.1152 117.644 41.9008 115.668C47.6863 113.692 48.7239 123.52 47.0488 126.257C45.3737 128.993 43.2432 127.405 43.2432 127.405Z"
        fill="#407BFF" />
    <path
        d="M46.5538 107.419C46.5538 107.419 50.981 97.1428 44.4233 96.8339C37.8655 96.525 37.1527 107.023 44.6965 108.548L46.5538 107.419Z"
        fill="#407BFF" />
    <path opacity="0.3"
        d="M43.2432 127.405C43.2432 127.405 36.1152 117.644 41.9008 115.668C47.6863 113.692 48.7239 123.52 47.0488 126.257C45.3737 128.993 43.2432 127.405 43.2432 127.405Z"
        fill="white" />
    <path opacity="0.3"
        d="M46.5538 107.419C46.5538 107.419 50.981 97.1428 44.4233 96.8339C37.8655 96.525 37.1527 107.023 44.6965 108.548L46.5538 107.419Z"
        fill="white" />
    <path
        d="M44.9817 115.834C44.9817 115.834 42.8314 106.762 46.9617 106.037C51.0919 105.312 55.1826 113.509 46.6251 117.632C46.629 117.632 45.1638 116.721 44.9817 115.834Z"
        fill="#407BFF" />
    <path opacity="0.2"
        d="M44.9817 115.834C44.9817 115.834 42.8314 106.762 46.9617 106.037C51.0919 105.312 55.1826 113.509 46.6251 117.632C46.629 117.632 45.1638 116.721 44.9817 115.834Z"
        fill="white" />
    <path
        d="M44.352 106.686C41.881 104.881 40.1742 101.396 41.6275 98.4575C41.5681 98.7307 41.4969 99.0277 41.4295 99.301C40.9425 102.073 42.4671 104.742 44.352 106.686Z"
        fill="#407BFF" />
    <path
        d="M42.768 97.8675C45.5915 98.4179 46.8825 101.487 46.5379 104.12C46.4746 104.493 46.4191 104.869 46.3479 105.233C46.3842 104.489 46.3749 103.743 46.3201 103C46.1419 100.81 44.9381 98.6713 42.7561 97.8516L42.768 97.8675Z"
        fill="#407BFF" />
    <path
        d="M47.7814 106.686C49.5159 107.3 50.5138 109.276 50.3673 111.042C50.2247 112.341 49.4961 113.509 48.6882 114.484C48.0368 115.268 47.2936 115.971 46.4746 116.578C46.8389 116.222 47.1953 115.866 47.524 115.485C48.5061 114.377 49.4763 113.157 49.9 111.723C50.1659 110.766 50.1019 109.746 49.7183 108.829C49.3348 107.912 48.654 107.15 47.7853 106.667L47.7814 106.686Z"
        fill="#407BFF" />
    <path
        d="M46.5538 107.419C46.9815 108.746 47.3458 110.337 46.6647 111.644C46.0865 112.492 46.0271 113.601 46.0113 114.61C46.0113 114.963 46.0113 115.311 46.035 115.668C45.8653 114.975 45.7881 114.262 45.8053 113.549C45.7931 112.813 45.9939 112.09 46.3835 111.466C47.0211 110.242 46.7161 108.746 46.5538 107.419Z"
        fill="#407BFF" />
    <path
        d="M43.6432 116.598C45.3143 117.501 45.9756 123.168 45.9162 125.021C45.8647 124.653 45.8093 124.289 45.738 123.924C45.4212 122.111 45.0925 120.289 44.6134 118.515C44.3876 117.846 44.2451 117.034 43.6432 116.598Z"
        fill="#407BFF" />
    <path
        d="M41.6157 116.911C41.2134 118.218 41.1517 119.605 41.4366 120.942C41.7214 122.279 42.3433 123.521 43.2432 124.55C42.9793 124.324 42.7294 124.082 42.4948 123.825C41.6884 122.885 41.1753 121.729 41.0191 120.5C40.8628 119.271 41.0702 118.023 41.6157 116.911Z"
        fill="#407BFF" />
    <path
        d="M52.668 111.541C53.4046 111.421 54.0914 111.092 54.648 110.595C54.5134 111.446 53.4323 111.846 52.668 111.541Z"
        fill="#407BFF" />
    <path
        d="M52.2403 110.044C52.5967 109.316 53.8243 108.856 54.3352 109.648C53.6065 109.328 52.8937 109.728 52.2403 110.044Z"
        fill="#407BFF" />
    <path
        d="M39.2713 118.697C38.4397 118.111 37.5764 117.113 36.4993 117.632C37.3784 116.59 38.8753 117.762 39.2713 118.697Z"
        fill="#407BFF" />
    <path
        d="M39.2713 120.21C38.1744 120.606 36.0241 120.645 35.8697 119.117C36.4954 120.36 38.0873 120.087 39.2713 120.21Z"
        fill="#407BFF" />
    <path d="M34.4124 123.378H56.5765L54.7233 137.559H36.2617L34.4124 123.378Z" fill="#263238" />
    <g opacity="0.2">
        <path
            d="M56.5765 123.378L55.9271 128.336L55.8875 128.649L55.5192 131.468L55.4242 132.201L55.1509 134.288L54.9331 135.959L54.7233 137.559H36.2617L36.0519 135.959L35.8341 134.288L35.5648 132.201L35.4658 131.468L35.1015 128.649L35.0579 128.336L34.4124 123.378H56.5765Z"
            fill="#FAFAFA" />
    </g>
    <path opacity="0.2" d="M55.1509 134.288L54.9331 135.959H36.0518L35.834 134.288H55.1509Z"
        fill="#FAFAFA" />
    <path opacity="0.2" d="M55.5192 131.468L55.4242 132.201H35.5648L35.4658 131.468H55.5192Z"
        fill="#FAFAFA" />
    <path opacity="0.2" d="M55.9271 128.336L55.8875 128.649H35.1015L35.0579 128.336H55.9271Z"
        fill="#FAFAFA" />
    <path d="M151.708 116.373H147.086V125.849H151.708V116.373Z" fill="#263238" />
    <path
        d="M162.467 131.472C162.467 128.177 159.944 125.294 156.171 123.702V121.703H142.619V123.702C138.846 125.286 136.327 128.177 136.327 131.472C136.348 133.012 136.878 134.502 137.836 135.709V137.388H160.958V135.709C161.916 134.502 162.446 133.012 162.467 131.472Z"
        fill="#263238" />
    <path opacity="0.6"
        d="M162.467 131.472C162.467 128.177 159.944 125.294 156.171 123.702V121.703H142.619V123.702C138.846 125.286 136.327 128.177 136.327 131.472C136.348 133.012 136.878 134.502 137.836 135.709V137.388H160.958V135.709C161.916 134.502 162.446 133.012 162.467 131.472Z"
        fill="#FAFAFA" />
    <path
        d="M156.511 123.619H142.279C142.063 123.619 141.857 123.534 141.705 123.382C141.553 123.229 141.467 123.023 141.467 122.808V100.786H141.863V122.808C141.86 122.863 141.869 122.918 141.889 122.97C141.909 123.022 141.939 123.069 141.978 123.108C142.018 123.147 142.065 123.178 142.116 123.197C142.168 123.217 142.223 123.226 142.279 123.223H156.511C156.565 123.223 156.618 123.213 156.667 123.191C156.717 123.17 156.761 123.139 156.798 123.1C156.835 123.062 156.864 123.016 156.883 122.965C156.901 122.915 156.91 122.861 156.907 122.808V100.786H157.303V122.808C157.303 123.019 157.22 123.223 157.072 123.375C156.924 123.526 156.723 123.614 156.511 123.619Z"
        fill="#263238" />
    <path d="M163.251 119.117H135.543L141.621 95.5865H157.172L163.251 119.117Z" fill="#407BFF" />
    <path opacity="0.2" d="M160.958 135.705H137.836V137.384H160.958V135.705Z" fill="black" />
    <path opacity="0.2" d="M156.171 121.699H142.619V123.699H156.171V121.699Z" fill="black" />
    <path opacity="0.6" d="M163.251 119.117H135.543L141.621 95.5865H157.172L163.251 119.117Z"
        fill="#FAFAFA" />
    <path
        d="M106.5 85.0608C110.009 89.6188 113.751 94.4064 118.281 97.8714C119.086 98.5019 119.993 98.9907 120.962 99.3168C121.029 99.3366 120.962 99.3722 120.883 99.4277C120.804 99.4831 120.835 99.4752 120.835 99.5069C120.835 99.5386 120.713 99.6178 120.681 99.6455C120.273 100.027 120.021 100.546 119.972 101.103C119.972 101.214 119.996 101.206 119.996 101.134C119.754 99.3129 118.65 97.519 117.715 95.8201C113.933 89.4326 109.177 83.4649 104.611 77.5249L108.175 74.0322C112.187 77.4444 115.971 81.1166 119.501 85.0252C122.225 88.0744 124.887 91.274 126.954 94.9529C129.009 98.4733 130.236 103.467 126.577 106.568C124.958 107.924 122.913 108.668 120.8 108.67C113.87 108.575 107.534 102.041 103.285 97.3447C101.473 95.2803 99.7822 93.1132 98.2199 90.8543L106.488 85.0608H106.5Z"
        fill="#DC897C" />
    <path
        d="M96.426 69.8465L100.604 69.6445C101.068 69.6241 101.528 69.7486 101.919 70.0009L108.389 74.1946L107.316 78.705C103.285 81.2473 99.8435 78.9109 98.7901 78.0437C98.5465 77.8413 98.2612 77.6953 97.9546 77.616L95.6657 77.0022C95.1546 76.8656 94.7089 76.5515 94.4085 76.1161C94.1081 75.6807 93.9725 75.1525 94.0262 74.6262L94.3114 71.8542C94.3632 71.3211 94.6056 70.8246 94.9941 70.4558C95.3825 70.087 95.8909 69.8707 96.426 69.8465Z"
        fill="#E4897B" />
    <path
        d="M118.768 97.8635L114.579 111.213C114.579 111.213 114.107 110.963 113.339 110.532C111.316 109.395 107.221 107.011 104.196 104.647C102.437 103.277 101.028 101.915 100.632 100.806C99.2257 97.0834 107.593 83.8847 107.593 83.8847C110.223 84.542 113.414 89.3099 113.414 89.3099C113.414 89.3099 117.759 95.436 118.768 97.8635Z"
        fill="#407BFF" />
    <path opacity="0.2"
        d="M113.339 110.532C111.316 109.395 107.221 107.011 104.196 104.647C104.118 102.765 104.263 100.88 104.627 99.0317C104.627 99.0317 111.351 102.841 113.339 110.532Z"
        fill="black" />
    <path
        d="M107.589 83.8887C107.589 83.8887 115.699 104.782 107.855 143.641L70.884 143.55C70.6425 137.875 73.2125 111.304 67.8031 84.546C67.8031 84.546 69.3198 82.6927 81.2473 81.9047C85.9677 81.5918 92.8145 81.5562 96.9646 81.9443C100.551 82.3139 104.104 82.964 107.589 83.8887Z"
        fill="#263238" />
    <path opacity="0.6"
        d="M111.193 116.266C111.141 117.679 111.07 119.133 110.975 120.622C110.892 121.837 110.801 123.085 110.69 124.36C110.551 125.88 110.393 127.445 110.195 129.048C110.044 130.368 109.873 131.704 109.68 133.056C109.445 134.701 109.181 136.382 108.888 138.101C108.579 139.899 108.239 141.744 107.855 143.645L70.884 143.554C70.8286 142.318 70.9078 140.093 71.0107 137.095C71.0543 135.907 71.0978 134.569 71.1414 133.135C71.1691 132.094 71.1968 130.985 71.2206 129.833C71.2444 128.55 71.2681 127.199 71.276 125.785C71.276 124.69 71.276 123.557 71.276 122.388C71.276 121.037 71.2562 119.643 71.2246 118.214C71.2246 117.153 71.177 116.076 71.1414 114.979C71.0107 111.078 70.7771 106.948 70.389 102.675C69.8533 96.5894 68.9874 90.5375 67.7952 84.546C67.7952 84.546 69.3158 82.6927 81.2592 81.9047C85.9795 81.5918 92.8224 81.5522 96.9804 81.9443C100.567 82.3167 104.119 82.9668 107.605 83.8886C107.605 83.8886 111.929 95.0598 111.193 116.266Z"
        fill="#FAFAFA" />
    <path opacity="0.2"
        d="M74.9945 100.98C74.9945 100.98 74.6658 109.803 71.1414 114.987C71.0107 111.086 70.7771 106.956 70.389 102.683C71.8344 101.578 73.4065 100.925 74.9945 100.98Z"
        fill="black" />
    <g opacity="0.6">
        <path
            d="M111.193 116.266C111.141 117.679 111.07 119.133 110.975 120.622L107.094 125.191L101.519 118.634L95.9508 125.203L90.3791 118.646L84.8074 125.203L79.2356 118.646L73.656 125.203L71.28 122.388C71.28 121.037 71.2602 119.643 71.2285 118.214L73.6718 121.089L79.2396 114.527L84.8113 121.089L90.383 114.527L95.9548 121.089L101.523 114.527L107.098 121.089L111.193 116.266Z"
            fill="#FAFAFA" />
    </g>
    <g opacity="0.6">
        <path
            d="M110.69 124.372C110.551 125.892 110.393 127.457 110.195 129.06L107.094 132.719L101.519 126.158L95.9508 132.719L90.3791 126.158L84.8074 132.719L79.2357 126.158L73.656 132.719L71.2048 129.833C71.2285 128.55 71.2523 127.199 71.2602 125.785L73.656 128.601L79.2238 122.043L84.7955 128.601L90.3672 122.043L95.9389 128.601L101.507 122.043L107.082 128.601L110.69 124.372Z"
            fill="#FAFAFA" />
    </g>
    <g opacity="0.6">
        <path
            d="M109.692 133.056C109.457 134.701 109.193 136.382 108.9 138.101L107.106 140.216L101.53 133.662L95.9508 140.228L90.3791 133.674L84.8074 140.228L79.2356 133.674L73.656 140.228L70.9949 137.095C71.0384 135.907 71.082 134.569 71.1256 133.135L73.656 136.117L79.2238 129.555L84.7955 136.117L90.3672 129.555L95.9389 136.117L101.507 129.555L107.082 136.117L109.692 133.056Z"
            fill="#FAFAFA" />
    </g>
    <path
        d="M80.784 65.5934C82.2413 70.5395 84.0906 79.6712 80.883 83.362C85.9003 84.946 89.5118 86.0152 93.951 89.302C95.1152 86.0746 96.5369 81.8888 96.5369 81.8888C90.7949 81.0731 90.5494 76.8953 91.1632 72.8917L80.784 65.5934Z"
        fill="#E4897B" />
    <path opacity="0.2"
        d="M84.9974 68.5753L91.1394 72.8957C90.9801 73.8268 90.9059 74.7706 90.9176 75.7152C88.7436 75.6083 85.5756 73.5293 85.1361 71.3038C84.9246 70.4102 84.8777 69.4857 84.9974 68.5753Z"
        fill="black" />
    <path
        d="M76.5666 82.2809L80.1108 78.9505L89.6069 82.2096L93.757 88.5892L95.3053 82.1225L97.4517 80.186L101.21 82.4868L100.628 86.5854L97.911 85.2548L94.6282 90.6286L87.2903 86.3201L85.243 88.2842L76.5666 82.2809Z"
        fill="#407BFF" />
    <path opacity="0.2"
        d="M94.6282 90.6286L96.5448 83.9124L100.628 86.5854L97.911 85.2548L94.6282 90.6286Z"
        fill="black" />
    <path opacity="0.2"
        d="M94.6282 90.6286L88.1615 84.2926L85.243 88.2842L87.2903 86.3201L94.6282 90.6286Z"
        fill="black" />
    <path
        d="M78.9861 95.238C81.3621 98.1011 84.6093 102.077 87.017 104.809C89.888 108.001 92.7432 111.391 96.2161 113.838C96.3507 113.921 96.1963 113.838 96.129 113.838C96.0921 113.825 96.0534 113.817 96.0141 113.814C95.9825 113.814 96.0141 113.814 96.0141 113.834C97.5744 114.179 99.3287 113.814 100.996 113.589C106.077 112.733 111.074 111.296 116.163 109.985L118.162 114.567C116.234 115.755 114.313 116.765 112.317 117.735C107.316 120.079 98.208 124.312 92.6877 122.237C90.6481 121.29 88.747 120.07 87.0368 118.61C84.4071 116.422 81.9204 114.067 79.592 111.561C77.3071 109.134 75.1449 106.651 73.062 104.061C72.3611 103.198 71.7037 102.35 71.0067 101.424L78.9861 95.238Z"
        fill="#DC897C" />
    <path
        d="M64.5242 89.1238C60.4732 101.962 78.6733 114.531 78.6733 114.531L88.3991 103.475C88.3991 103.475 84.1144 95.5548 79.2594 88.5139C74.1787 81.1483 66.6587 82.368 64.5242 89.1238Z"
        fill="#407BFF" />
    <path
        d="M115.367 110.579L122.21 103.475L127.381 110.373C127.381 110.373 123.299 116.028 117.743 114.555L115.367 110.579Z"
        fill="#E4897B" />
    <path d="M128.882 101.297L131.508 107.364L127.381 110.373L122.21 103.475L128.882 101.297Z"
        fill="#E4897B" />
    <path
        d="M93.9906 47.223C97.511 48.605 99.9306 58.2041 95.6498 60.5167C91.3691 62.8294 87.318 44.6094 93.9906 47.223Z"
        fill="#263238" />
    <path
        d="M78.804 58.5209C80.6256 65.2529 81.3542 69.2485 85.536 72.1433C91.8086 76.4993 99.594 71.9453 99.8197 64.8925C100.026 58.5565 97.0081 48.6209 89.7613 47.0725C82.6254 45.54 76.9903 51.8047 78.804 58.5209Z"
        fill="#E4897B" />
    <path
        d="M84.8153 49.8643L84.0708 43.956C82.614 44.7491 80.9441 45.0623 79.299 44.851C72.171 43.6273 67.0824 48.4546 70.587 52.1928C67.3635 53.8283 69.4703 58.2556 71.8621 61.0117C75.1845 64.849 78.5941 66.5557 80.7325 64.5757C82.7125 63.463 82.6016 56.43 81.774 53.8837C80.5226 50.0267 84.8153 49.8643 84.8153 49.8643Z"
        fill="#263238" />
    <path
        d="M77.616 65.6885C78.7817 66.9598 80.3517 67.7882 82.0591 68.0328C84.2173 68.2902 84.5975 66.2785 83.4134 64.4173C82.3442 62.7422 79.9326 60.592 78.0476 61.1939C76.1627 61.7958 76.1389 64.0926 77.616 65.6885Z"
        fill="#E4897B" />
    <path
        d="M89.1198 58.6476C89.2347 59.198 89.6227 59.598 89.9871 59.5346C90.3514 59.4713 90.5533 58.9723 90.4385 58.4219C90.3237 57.8714 89.9356 57.4715 89.5713 57.5309C89.2069 57.5903 89.0089 58.0932 89.1198 58.6476Z"
        fill="#263238" />
    <path
        d="M95.4083 57.5705C95.5231 58.1249 95.9072 58.5209 96.2716 58.4575C96.6359 58.3942 96.8378 57.8992 96.723 57.3448C96.6082 56.7904 96.2201 56.3944 95.8597 56.4577C95.4994 56.5211 95.2934 57.024 95.4083 57.5705Z"
        fill="#263238" />
    <path
        d="M93.9114 58.1882C93.9114 58.1882 95.8359 61.1582 97.5467 62.4611C96.7547 63.5422 94.9925 63.4115 94.9925 63.4115L93.9114 58.1882Z"
        fill="#DE5753" />
    <path
        d="M91.1354 55.7489C91.1883 55.7694 91.2347 55.8036 91.2701 55.8479C91.2969 55.8825 91.3167 55.922 91.3282 55.9642C91.3397 56.0064 91.3428 56.0505 91.3373 56.0939C91.3318 56.1373 91.3178 56.1792 91.296 56.2171C91.2743 56.2551 91.2453 56.2884 91.2107 56.3152C90.8066 56.6451 90.3274 56.8701 89.8155 56.9702C89.3036 57.0704 88.7749 57.0426 88.2763 56.8894C88.235 56.8752 88.197 56.8529 88.1645 56.8238C88.132 56.7946 88.1057 56.7592 88.0872 56.7196C88.0688 56.6801 88.0584 56.6372 88.0569 56.5935C88.0554 56.5499 88.0626 56.5064 88.0783 56.4657C88.1087 56.3835 88.1702 56.3167 88.2495 56.2796C88.3288 56.2426 88.4196 56.2383 88.502 56.2677C88.8952 56.3821 89.3104 56.3986 89.7114 56.3158C90.1124 56.2329 90.4871 56.0533 90.8028 55.7925C90.8488 55.7552 90.9042 55.7314 90.963 55.7237C91.0217 55.716 91.0814 55.7247 91.1354 55.7489Z"
        fill="#263238" />
    <path
        d="M97.222 54.5569C97.1698 54.571 97.115 54.5719 97.0625 54.5594C97.0099 54.547 96.9613 54.5216 96.921 54.4856C96.6108 54.1965 96.2389 53.9817 95.8334 53.8575C95.428 53.7334 94.9996 53.703 94.5806 53.7689C94.5369 53.7849 94.4903 53.7915 94.4438 53.7884C94.3974 53.7853 94.3521 53.7724 94.3109 53.7507C94.2697 53.7289 94.2336 53.6987 94.2048 53.6621C94.176 53.6255 94.1552 53.5833 94.1438 53.5381C94.1324 53.493 94.1306 53.4459 94.1385 53.4C94.1464 53.3542 94.1638 53.3104 94.1897 53.2717C94.2156 53.233 94.2493 53.2001 94.2887 53.1753C94.328 53.1504 94.3722 53.1341 94.4183 53.1274C94.9408 53.0331 95.4782 53.0621 95.9876 53.2119C96.497 53.3618 96.9644 53.6284 97.3526 53.9906C97.4185 54.0486 97.4587 54.1302 97.4647 54.2178C97.4706 54.3053 97.4417 54.3916 97.3843 54.4579C97.3404 54.5053 97.2842 54.5396 97.222 54.5569Z"
        fill="#263238" />
    <path
        d="M78.9228 45.6232C78.9228 45.6232 83.8411 36.1192 92.9966 38.0635C92.9966 38.0635 91.2463 38.4595 90.5018 39.1208C90.5018 39.1208 98.4931 38.4239 100.984 44.0392L99.4554 43.1402C99.4554 43.1402 101.491 47.7932 99.1069 50.8583L98.6594 49.3178C98.6594 49.3178 95.3885 53.3768 90.5058 52.2245L92.1927 51.3691C92.1927 51.3691 83.7817 51.1117 81.6987 48.9654C79.6158 46.8191 78.9228 45.6232 78.9228 45.6232Z"
        fill="#263238" />
    <path
        d="M95.832 66.3142C95.7951 66.3142 95.7586 66.3068 95.7246 66.2925C95.6906 66.2783 95.6598 66.2573 95.634 66.231C94.3945 64.8886 92.2205 65.4034 92.2007 65.4073C92.1352 65.416 92.0688 65.4002 92.0142 65.3631C91.9596 65.3261 91.9205 65.2702 91.9043 65.2061C91.8882 65.1421 91.8962 65.0744 91.9267 65.0158C91.9573 64.9573 92.0083 64.912 92.07 64.8886C92.173 64.8648 94.5688 64.2946 96.03 65.8667C96.0791 65.917 96.1066 65.9845 96.1066 66.0548C96.1066 66.1251 96.0791 66.1926 96.03 66.2429C96.0034 66.2673 95.9721 66.2861 95.9381 66.2983C95.9042 66.3106 95.8681 66.316 95.832 66.3142Z"
        fill="#263238" />
    <path d="M164.649 137.384H30.4128V143.641H164.649V137.384Z" fill="#407BFF" />
    <path opacity="0.2" d="M164.649 137.384H30.4128V143.641H164.649V137.384Z" fill="#FAFAFA" />
    <path
        d="M166.657 137.384H28.7892C28.3725 137.384 27.9726 137.548 27.6761 137.841C27.3796 138.134 27.2104 138.532 27.2052 138.948C27.2104 139.365 27.3796 139.763 27.6761 140.056C27.9726 140.349 28.3725 140.513 28.7892 140.513H166.657C167.07 140.508 167.465 140.341 167.757 140.049C168.049 139.757 168.216 139.362 168.221 138.948C168.216 138.535 168.049 138.14 167.757 137.848C167.465 137.556 167.07 137.389 166.657 137.384Z"
        fill="#407BFF" />
    <path opacity="0.4"
        d="M166.657 137.384H28.7892C28.3725 137.384 27.9726 137.548 27.6761 137.841C27.3796 138.134 27.2104 138.532 27.2052 138.948C27.2104 139.365 27.3796 139.763 27.6761 140.056C27.9726 140.349 28.3725 140.513 28.7892 140.513H166.657C167.07 140.508 167.465 140.341 167.757 140.049C168.049 139.757 168.216 139.362 168.221 138.948C168.216 138.535 168.049 138.14 167.757 137.848C167.465 137.556 167.07 137.389 166.657 137.384Z"
        fill="#FAFAFA" />
</svg>
