<svg width="24" height="24" viewBox="0 0 24 24" fill="none" xmlns="http://www.w3.org/2000/svg">
<g clip-path="url(#clip0_346_1185)">
<path d="M4.79995 9.6V7.2C4.79995 5.29044 5.55852 3.45909 6.90878 2.10883C8.25904 0.758569 10.0904 0 12 0C13.9095 0 15.7409 0.758569 17.0911 2.10883C18.4414 3.45909 19.2 5.29044 19.2 7.2V9.6H20.4C21.0365 9.6 21.6469 9.85286 22.097 10.3029C22.5471 10.753 22.8 11.3635 22.8 12V21.6C22.8 22.2365 22.5471 22.847 22.097 23.2971C21.6469 23.7471 21.0365 24 20.4 24H3.59995C2.96343 24 2.35298 23.7471 1.90289 23.2971C1.45281 22.847 1.19995 22.2365 1.19995 21.6V12C1.19995 10.68 2.27995 9.6 3.59995 9.6H4.79995ZM10.8 17.676V20.4H13.2V17.676C13.6575 17.4118 14.0151 17.0041 14.2173 16.516C14.4194 16.0279 14.4549 15.4867 14.3182 14.9764C14.1814 14.4661 13.8801 14.0151 13.461 13.6935C13.0418 13.3719 12.5283 13.1975 12 13.1975C11.4716 13.1975 10.9581 13.3719 10.5389 13.6935C10.1198 14.0151 9.81847 14.4661 9.68173 14.9764C9.54499 15.4867 9.58046 16.0279 9.78264 16.516C9.98482 17.0041 10.3424 17.4118 10.8 17.676ZM8.39995 7.2V9.6H15.6V7.2C15.6 6.24522 15.2207 5.32955 14.5455 4.65442C13.8704 3.97929 12.9547 3.6 12 3.6C11.0452 3.6 10.1295 3.97929 9.45437 4.65442C8.77924 5.32955 8.39995 6.24522 8.39995 7.2Z" fill="#FF2844"/>
</g>
<defs>
<clipPath id="clip0_346_1185">
<rect width="24" height="24" fill="white"/>
</clipPath>
</defs>
</svg>
