<svg width="257" height="184" viewBox="0 0 257 184" fill="none" xmlns="http://www.w3.org/2000/svg">
    <path opacity="0.1"
        d="M149.018 41.0831C132.629 40.5157 117.018 35.2478 102.113 29.4832C87.2086 23.7185 72.4457 17.331 56.4495 14.2772C46.161 12.3128 34.3937 12.0354 26.1057 17.5277C18.1266 22.8233 15.5488 31.9393 14.1637 40.4073C13.1204 46.7771 12.5076 53.4799 15.3665 59.4438C17.3492 63.5844 20.8716 67.0644 23.305 71.0437C31.7804 84.8425 25.7917 101.859 16.6073 115.333C12.3025 121.655 7.30128 127.689 3.97898 134.412C0.656686 141.135 -0.882915 148.849 2.0241 155.713C4.90832 162.522 11.7783 167.626 19.218 171.219C34.3329 178.519 52.1371 180.607 69.5108 181.79C107.958 184.41 146.607 183.275 185.156 182.141C199.422 181.72 213.75 181.293 227.783 179.097C235.578 177.876 243.623 175.942 249.282 171.267C256.464 165.333 258.244 155.284 253.432 147.845C245.357 135.365 223.046 132.266 217.394 118.871C214.289 111.5 217.48 103.289 221.992 96.45C231.675 81.7837 247.905 68.9153 248.76 52.1509C249.348 40.6342 241.544 29.1049 229.48 23.6555C216.836 17.9236 199.298 18.6499 189.974 28.1038C180.367 37.8452 163.487 41.5824 149.018 41.0831Z"
        fill="#181C71" />
    <path d="M251 161.081H5V161.204H251V161.081Z" fill="#EBEBEB" />
    <path d="M226.351 168.997H210.056V169.12H226.351V168.997Z" fill="#EBEBEB" />
    <path d="M167.96 170.335H163.685V170.458H167.96V170.335Z" fill="#EBEBEB" />
    <path d="M209.564 164.431H200.122V164.554H209.564V164.431Z" fill="#EBEBEB" />
    <path d="M52.0598 165.258H30.8103V165.381H52.0598V165.258Z" fill="#EBEBEB" />
    <path d="M59.558 165.258H56.4436V165.381H59.558V165.258Z" fill="#EBEBEB" />
    <path d="M115.774 167.334H69.6833V167.457H115.774V167.334Z" fill="#EBEBEB" />
    <path
        d="M121.604 139.138H26.604C25.8597 139.136 25.1464 138.84 24.6207 138.313C24.0949 137.786 23.7996 137.072 23.7996 136.328V2.78473C23.806 2.04478 24.1042 1.33726 24.6293 0.815859C25.1544 0.294457 25.864 0.00128284 26.604 1.52588e-05H121.604C122.349 1.52588e-05 123.064 0.295996 123.591 0.822846C124.118 1.3497 124.414 2.06426 124.414 2.80933V136.328C124.414 137.073 124.118 137.788 123.591 138.315C123.064 138.842 122.349 139.138 121.604 139.138ZM26.604 0.0984156C25.8924 0.0997189 25.2103 0.383315 24.7076 0.886957C24.2049 1.3906 23.9226 2.07313 23.9226 2.78473V136.328C23.9226 137.04 24.2049 137.722 24.7076 138.226C25.2103 138.73 25.8924 139.013 26.604 139.015H121.604C122.316 139.013 122.999 138.73 123.502 138.226C124.006 137.723 124.289 137.04 124.291 136.328V2.78473C124.289 2.07268 124.006 1.39016 123.502 0.886656C122.999 0.383155 122.316 0.0997162 121.604 0.0984156H26.604Z"
        fill="#EBEBEB" />
    <path
        d="M228.028 139.138H133.023C132.279 139.136 131.565 138.84 131.038 138.313C130.512 137.787 130.215 137.073 130.214 136.328V2.78473C130.222 2.04433 130.521 1.33682 131.047 0.815551C131.573 0.294285 132.283 0.00126902 133.023 1.52588e-05H228.028C228.768 0.00257587 229.476 0.296322 230 0.817585C230.524 1.33885 230.821 2.04563 230.828 2.78473V136.328C230.828 137.072 230.533 137.785 230.009 138.311C229.484 138.838 228.772 139.135 228.028 139.138ZM133.023 0.0984156C132.311 0.0997162 131.629 0.383155 131.125 0.886656C130.622 1.39016 130.338 2.07268 130.337 2.78473V136.328C130.338 137.04 130.622 137.723 131.125 138.226C131.629 138.73 132.311 139.013 133.023 139.015H228.028C228.74 139.013 229.423 138.73 229.926 138.226C230.43 137.723 230.713 137.04 230.715 136.328V2.78473C230.713 2.07268 230.43 1.39016 229.926 0.886656C229.423 0.383155 228.74 0.0997162 228.028 0.0984156H133.023Z"
        fill="#EBEBEB" />
    <path
        d="M121.604 62.0461V70.6856L126.032 71.1038C126.626 73.951 127.753 76.6603 129.353 79.089L126.494 82.533L132.605 88.6436L136.049 85.7851C138.476 87.3837 141.184 88.5088 144.029 89.1012L144.448 93.5292H153.141L153.559 89.1012C156.406 88.5089 159.116 87.3837 161.545 85.7851L164.989 88.6436L171.099 82.533L168.241 79.089C169.839 76.66 170.964 73.9507 171.557 71.1038L176.009 70.6856V62.0461L171.557 61.623C170.968 58.7735 169.847 56.0609 168.251 53.628L171.109 50.184L164.998 44.0783L161.554 46.9368C159.129 45.3403 156.425 44.2138 153.584 43.6158L153.166 39.1878H144.497L144.079 43.6158C141.234 44.212 138.526 45.3387 136.098 46.9368L132.654 44.0783L126.524 50.184L129.383 53.628C127.784 56.0557 126.657 58.7631 126.062 61.6082L121.604 62.0461ZM148.802 54.6661C151.116 54.6661 153.378 55.3523 155.302 56.6379C157.226 57.9235 158.725 59.7507 159.611 61.8886C160.496 64.0264 160.728 66.3789 160.277 68.6484C159.825 70.9179 158.711 73.0026 157.075 74.6389C155.439 76.2751 153.354 77.3894 151.084 77.8408C148.815 78.2923 146.462 78.0606 144.324 77.175C142.187 76.2895 140.359 74.7899 139.074 72.8659C137.788 70.9419 137.102 68.6799 137.102 66.3659C137.102 64.8278 137.405 63.3048 137.994 61.884C138.584 60.4633 139.447 59.1726 140.536 58.0859C141.624 56.9992 142.916 56.1379 144.338 55.551C145.76 54.9642 147.283 54.6635 148.821 54.6661H148.802Z"
        fill="#F0F0F0" />
    <path
        d="M107.021 100.717L109.481 102.774L113.875 98.3803L111.818 95.9203C112.978 94.1715 113.795 92.218 114.224 90.1639L117.422 89.8638V83.64L114.224 83.3399C113.798 81.2941 112.989 79.3475 111.838 77.6032L113.895 75.1432L109.501 70.7496L107.041 72.8062C105.296 71.6575 103.349 70.848 101.304 70.42L101.004 67.222H94.7755L94.4753 70.42C92.4295 70.851 90.4833 71.6639 88.7386 72.816L86.2786 70.7595L81.8851 75.153L83.9416 77.613C82.791 79.3574 81.9813 81.3039 81.5554 83.3497L78.3574 83.6498V89.8589L81.5554 90.159C81.9813 92.2048 82.791 94.1514 83.9416 95.8957L81.8851 98.3557L86.2786 102.749L88.7386 100.693C90.484 101.841 92.4302 102.651 94.4753 103.079L94.7755 106.277H100.984L101.285 103.079C103.328 102.658 105.274 101.857 107.021 100.717ZM89.4766 86.7593C89.4766 85.0961 89.9699 83.4702 90.894 82.0874C91.8181 80.7045 93.1316 79.6268 94.6683 78.9906C96.205 78.3543 97.8959 78.1881 99.5271 78.5129C101.158 78.8378 102.656 79.6391 103.832 80.8155C105.008 81.9919 105.808 83.4906 106.132 85.1219C106.456 86.7533 106.289 88.4441 105.652 89.9804C105.015 91.5167 103.936 92.8296 102.553 93.7529C101.169 94.6762 99.5432 95.1685 97.88 95.1676C96.776 95.1676 95.6829 94.95 94.663 94.5274C93.6432 94.1048 92.7166 93.4854 91.9362 92.7045C91.1558 91.9237 90.5369 90.9967 90.1149 89.9766C89.6929 88.9565 89.476 87.8632 89.4766 86.7593Z"
        fill="#F5F5F5" />
    <path
        d="M134.617 142.778C137.052 142.272 139.37 141.309 141.446 139.94L144.398 142.4L149.648 137.16L147.188 134.208C148.557 132.131 149.52 129.814 150.027 127.379L153.835 127.025V119.645L150.027 119.285C149.523 116.843 148.559 114.519 147.188 112.437L149.648 109.485L144.403 104.255L141.451 106.715C139.373 105.348 137.057 104.385 134.622 103.876L134.263 100.073H126.883L126.524 103.861C124.089 104.37 121.773 105.333 119.695 106.7L116.743 104.24L111.513 109.47L113.973 112.422C112.606 114.5 111.643 116.816 111.134 119.251L107.326 119.61V126.99L111.134 127.344C111.642 129.779 112.605 132.096 113.973 134.173L111.513 137.125L116.743 142.35L119.695 139.89C121.768 141.277 124.085 142.257 126.524 142.778L126.883 146.586H134.263L134.617 142.778ZM120.556 123.32C120.557 121.341 121.145 119.406 122.245 117.761C123.345 116.116 124.908 114.834 126.737 114.078C128.566 113.321 130.578 113.124 132.518 113.51C134.459 113.897 136.242 114.851 137.641 116.25C139.04 117.65 139.993 119.433 140.378 121.374C140.764 123.315 140.566 125.327 139.808 127.155C139.051 128.984 137.768 130.546 136.122 131.646C134.477 132.745 132.542 133.332 130.563 133.332C129.249 133.332 127.947 133.073 126.732 132.57C125.518 132.067 124.414 131.329 123.485 130.399C122.556 129.469 121.819 128.366 121.316 127.151C120.814 125.936 120.555 124.634 120.556 123.32Z"
        fill="#FAFAFA" />
    <path d="M74.6001 53.3173L51.9668 50.2249L48.8745 72.8582L71.5078 75.9505L74.6001 53.3173Z"
        fill="#F5F5F5" />
    <path d="M55.2958 56.4309L55.0959 57.8933L69.8322 59.9067L70.032 58.4443L55.2958 56.4309Z"
        fill="#E0E0E0" />
    <path d="M54.6664 61.0218L54.4666 62.4843L69.2028 64.4976L69.4026 63.0352L54.6664 61.0218Z"
        fill="#E0E0E0" />
    <path d="M54.0221 65.767L53.8223 67.2294L62.4993 68.4149L62.6991 66.9525L54.0221 65.767Z"
        fill="#E0E0E0" />
    <path d="M201.318 28.175L178.474 28.2547L178.554 51.0982L201.397 51.0184L201.318 28.175Z"
        fill="#F0F0F0" />
    <path d="M197.52 33.852L182.647 33.9065L182.653 35.3825L197.526 35.328L197.52 33.852Z"
        fill="#E0E0E0" />
    <path d="M197.542 38.4866L182.669 38.5411L182.675 40.0171L197.548 39.9626L197.542 38.4866Z"
        fill="#E0E0E0" />
    <path d="M191.439 43.301L182.682 43.3331L182.687 44.8091L191.445 44.777L191.439 43.301Z"
        fill="#E0E0E0" />
    <path d="M215.026 83.8858L192.364 86.7567L195.235 109.419L217.897 106.548L215.026 83.8858Z"
        fill="#F5F5F5" />
    <path d="M211.958 90.0082L197.203 91.8774L197.388 93.3417L212.144 91.4725L211.958 90.0082Z"
        fill="#E0E0E0" />
    <path d="M212.541 94.6023L197.786 96.4715L197.971 97.9358L212.726 96.0666L212.541 94.6023Z"
        fill="#E0E0E0" />
    <path d="M207.075 100.122L198.387 101.223L198.572 102.687L207.26 101.587L207.075 100.122Z"
        fill="#E0E0E0" />
    <path d="M93.5143 120.668L70.6709 120.748L70.7506 143.591L93.5941 143.511L93.5143 120.668Z"
        fill="#F0F0F0" />
    <path d="M89.7429 126.364L74.8699 126.418L74.8753 127.894L89.7483 127.84L89.7429 126.364Z"
        fill="#E0E0E0" />
    <path d="M89.76 130.998L74.887 131.053L74.8924 132.529L89.7654 132.474L89.76 130.998Z"
        fill="#E0E0E0" />
    <path d="M83.6621 135.813L74.9045 135.845L74.91 137.321L83.6675 137.289L83.6621 135.813Z"
        fill="#E0E0E0" />
    <path d="M194.408 131.853L171.564 131.933L171.644 154.776L194.488 154.696L194.408 131.853Z"
        fill="#F0F0F0" />
    <path d="M190.634 137.531L175.76 137.586L175.766 139.062L190.639 139.007L190.634 137.531Z"
        fill="#E0E0E0" />
    <path d="M190.656 142.166L175.782 142.22L175.788 143.696L190.661 143.642L190.656 142.166Z"
        fill="#E0E0E0" />
    <path d="M184.553 146.98L175.795 147.012L175.801 148.488L184.558 148.456L184.553 146.98Z"
        fill="#E0E0E0" />
    <path d="M98.148 26.6829L75.8477 31.6349L80.7997 53.9352L103.1 48.9832L98.148 26.6829Z"
        fill="#F0F0F0" />
    <path d="M95.6508 33.0749L81.1313 36.2991L81.4513 37.74L95.9708 34.5158L95.6508 33.0749Z"
        fill="#E0E0E0" />
    <path d="M96.6574 37.6008L82.1379 40.825L82.4579 42.2659L96.9774 39.0417L96.6574 37.6008Z"
        fill="#E0E0E0" />
    <path d="M91.7244 43.6015L83.175 45.5L83.495 46.9409L92.0444 45.0424L91.7244 43.6015Z"
        fill="#E0E0E0" />
    <path d="M53.826 52.6932H53.4176L52.8518 50.0856H54.3868L53.826 52.6932Z" fill="#E0E0E0" />
    <path
        d="M53.6195 52.0487C54.7661 52.0487 55.6957 51.3152 55.6957 50.4103C55.6957 49.5055 54.7661 48.772 53.6195 48.772C52.4728 48.772 51.5432 49.5055 51.5432 50.4103C51.5432 51.3152 52.4728 52.0487 53.6195 52.0487Z"
        fill="#E6E6E6" />
    <path d="M95.5625 29.9284H95.1541L94.5933 27.3257H96.1283L95.5625 29.9284Z" fill="#E0E0E0" />
    <path
        d="M95.3607 29.2888C96.5101 29.2888 97.4419 28.5552 97.4419 27.6504C97.4419 26.7456 96.5101 26.012 95.3607 26.012C94.2113 26.012 93.2795 26.7456 93.2795 27.6504C93.2795 28.5552 94.2113 29.2888 95.3607 29.2888Z"
        fill="#E6E6E6" />
    <path d="M189.569 30.5827H189.161L188.595 27.98H190.13L189.569 30.5827Z" fill="#E0E0E0" />
    <path
        d="M189.362 29.9431C190.509 29.9431 191.439 29.2096 191.439 28.3048C191.439 27.3999 190.509 26.6664 189.362 26.6664C188.216 26.6664 187.286 27.3999 187.286 28.3048C187.286 29.2096 188.216 29.9431 189.362 29.9431Z"
        fill="#E6E6E6" />
    <path d="M212.919 87.1578H212.511L211.95 84.5552H213.485L212.919 87.1578Z" fill="#E0E0E0" />
    <path
        d="M212.717 86.5183C213.864 86.5183 214.794 85.7847 214.794 84.8799C214.794 83.9751 213.864 83.2415 212.717 83.2415C211.571 83.2415 210.641 83.9751 210.641 84.8799C210.641 85.7847 211.571 86.5183 212.717 86.5183Z"
        fill="#E6E6E6" />
    <path d="M183.394 134.449H182.981L182.42 131.841H183.955L183.394 134.449Z" fill="#E0E0E0" />
    <path
        d="M183.188 133.804C184.334 133.804 185.264 133.071 185.264 132.166C185.264 131.261 184.334 130.528 183.188 130.528C182.041 130.528 181.111 131.261 181.111 132.166C181.111 133.071 182.041 133.804 183.188 133.804Z"
        fill="#E6E6E6" />
    <path d="M81.4963 122.739H81.088L80.5271 120.132H82.0621L81.4963 122.739Z" fill="#E0E0E0" />
    <path
        d="M81.2945 122.095C82.4412 122.095 83.3707 121.361 83.3707 120.456C83.3707 119.552 82.4412 118.818 81.2945 118.818C80.1478 118.818 79.2183 119.552 79.2183 120.456C79.2183 121.361 80.1478 122.095 81.2945 122.095Z"
        fill="#E6E6E6" />
    <path
        d="M128 183.3C180.685 183.3 223.394 180.806 223.394 177.73C223.394 174.654 180.685 172.161 128 172.161C75.3155 172.161 32.6062 174.654 32.6062 177.73C32.6062 180.806 75.3155 183.3 128 183.3Z"
        fill="#F5F5F5" />
    <path
        d="M75.6858 95.3693C75.6858 92.127 77.8162 89.4653 80.4385 89.4653C83.0609 89.4653 85.1912 92.1024 85.1912 95.3693C85.1912 98.6362 83.0609 101.244 80.4385 101.244C77.8162 101.244 75.6858 98.6116 75.6858 95.3693ZM76.6698 95.3693C76.6698 98.0655 78.3623 100.26 80.4385 100.26C82.5148 100.26 84.2072 98.0655 84.2072 95.3693C84.2072 92.6732 82.5197 90.4493 80.4385 90.4493C78.3574 90.4493 76.6698 92.6732 76.6698 95.3693Z"
        fill="#263238" />
    <path
        d="M66.3328 95.3693C66.3328 92.127 68.4631 89.4653 71.0855 89.4653C73.7078 89.4653 75.8382 92.1024 75.8382 95.3693C75.8382 98.6362 73.7078 101.244 71.0855 101.244C68.4631 101.244 66.3328 98.6116 66.3328 95.3693ZM67.3168 95.3693C67.3168 98.0655 69.0043 100.26 71.0855 100.26C73.1666 100.26 74.8542 98.0655 74.8542 95.3693C74.8542 92.6732 73.1617 90.4493 71.0855 90.4493C69.0092 90.4493 67.3168 92.6732 67.3168 95.3693Z"
        fill="#263238" />
    <path
        d="M56.9746 95.3693C56.9746 92.127 59.1099 89.4653 61.7322 89.4653C64.3546 89.4653 66.485 92.1024 66.485 95.3693C66.485 98.6362 64.3497 101.244 61.7322 101.244C59.1148 101.244 56.9746 98.6116 56.9746 95.3693ZM57.9586 95.3693C57.9586 98.0655 59.6511 100.26 61.7322 100.26C63.8134 100.26 65.501 98.0655 65.501 95.3693C65.501 92.6732 63.8085 90.4493 61.7322 90.4493C59.656 90.4493 57.9586 92.6732 57.9586 95.3693Z"
        fill="#263238" />
    <path
        d="M47.6221 95.3693C47.6221 92.127 49.7574 89.4653 52.3797 89.4653C55.0021 89.4653 57.1324 92.1024 57.1324 95.3693C57.1324 98.6362 54.9972 101.244 52.3797 101.244C49.7623 101.244 47.6221 98.6116 47.6221 95.3693ZM48.6061 95.3693C48.6061 98.0655 50.2986 100.26 52.3797 100.26C54.4609 100.26 56.1484 98.0655 56.1484 95.3693C56.1484 92.6732 54.456 90.4493 52.3797 90.4493C50.3035 90.4493 48.6061 92.6732 48.6061 95.3693Z"
        fill="#263238" />
    <path
        d="M85.0386 95.3693C85.0386 92.127 87.1689 89.4653 89.7913 89.4653C92.4137 89.4653 94.5489 92.1024 94.5489 95.3693C94.5489 98.6362 92.4137 101.244 89.7913 101.244C87.1689 101.244 85.0386 98.6116 85.0386 95.3693ZM86.0226 95.3693C86.0226 98.0655 87.7151 100.26 89.7913 100.26C91.8675 100.26 93.5649 98.0655 93.5649 95.3693C93.5649 92.6732 91.8725 90.4493 89.7913 90.4493C87.7101 90.4493 86.0226 92.6732 86.0226 95.3693Z"
        fill="#263238" />
    <path d="M41.4375 176.525H100.025L100.025 95.4825L41.4375 95.4825L41.4375 176.525Z"
        fill="#263238" />
    <path opacity="0.7"
        d="M41.4375 176.525H100.025L100.025 95.4825L41.4375 95.4825L41.4375 176.525Z"
        fill="white" />
    <path opacity="0.6" d="M46.7167 176.525H100.025L100.025 95.4825H46.7167L46.7167 176.525Z"
        fill="white" />
    <path opacity="0.2" d="M43.1937 176.525L42.9477 100.786L42.7017 176.525H43.1937Z"
        fill="black" />
    <path opacity="0.2" d="M45.6441 176.525L45.3981 105.505L45.1521 176.525H45.6441Z"
        fill="black" />
    <path opacity="0.2" d="M43.927 95.5415L44.173 152.481L44.419 95.5415H43.927Z" fill="black" />
    <path
        d="M91.2082 99.3349C91.2586 99.5972 91.3827 99.8397 91.5658 100.034C91.749 100.229 91.9837 100.367 92.2426 100.433C92.5014 100.499 92.7737 100.49 93.0275 100.407C93.2814 100.323 93.5064 100.17 93.6762 99.9637C93.846 99.7575 93.9536 99.5072 93.9864 99.2422C94.0193 98.9771 93.976 98.7081 93.8616 98.4667C93.7473 98.2254 93.5666 98.0215 93.3406 97.879C93.1147 97.7365 92.8529 97.6613 92.5858 97.6621C92.1826 97.7044 91.8122 97.9035 91.5545 98.2164C91.2968 98.5294 91.1724 98.9311 91.2082 99.3349Z"
        fill="#263238" />
    <path
        d="M92.6745 99.8318C92.7448 99.8311 92.8141 99.8153 92.8777 99.7856C92.9414 99.7559 92.9979 99.7129 93.0435 99.6596C94.0349 98.4513 94.568 96.932 94.5491 95.3693C94.5491 92.127 92.4138 89.4653 89.7914 89.4653C87.8628 89.4653 86.1359 90.8921 85.3979 93.0914C85.3772 93.1527 85.3688 93.2176 85.3732 93.2822C85.3776 93.3468 85.3947 93.41 85.4234 93.468C85.4522 93.526 85.4922 93.5778 85.5409 93.6204C85.5897 93.663 85.6464 93.6955 85.7078 93.7162C85.7692 93.7369 85.8341 93.7453 85.8987 93.7409C85.9633 93.7365 86.0264 93.7194 86.0844 93.6906C86.1425 93.6618 86.1943 93.6219 86.2368 93.5731C86.2794 93.5243 86.312 93.4676 86.3327 93.4062C86.9329 91.6104 88.3007 90.4542 89.7767 90.4542C91.8578 90.4542 93.5503 92.6535 93.5503 95.3742C93.5712 96.7004 93.1234 97.9915 92.2859 99.02C92.2232 99.0913 92.1825 99.1793 92.1687 99.2732C92.1549 99.3672 92.1686 99.4631 92.2081 99.5495C92.2477 99.6359 92.3113 99.7089 92.3915 99.7599C92.4716 99.8108 92.5648 99.8375 92.6598 99.8367L92.6745 99.8318Z"
        fill="#263238" />
    <g opacity="0.4">
        <path
            d="M92.6745 99.8318C92.7448 99.8311 92.8141 99.8153 92.8777 99.7856C92.9414 99.7559 92.9979 99.7129 93.0435 99.6596C94.0349 98.4513 94.568 96.932 94.5491 95.3693C94.5491 92.127 92.4138 89.4653 89.7914 89.4653C87.8628 89.4653 86.1359 90.8921 85.3979 93.0914C85.3772 93.1527 85.3688 93.2176 85.3732 93.2822C85.3776 93.3468 85.3947 93.41 85.4234 93.468C85.4522 93.526 85.4922 93.5778 85.5409 93.6204C85.5897 93.663 85.6464 93.6955 85.7078 93.7162C85.7692 93.7369 85.8341 93.7453 85.8987 93.7409C85.9633 93.7365 86.0264 93.7194 86.0844 93.6906C86.1425 93.6618 86.1943 93.6219 86.2368 93.5731C86.2794 93.5243 86.312 93.4676 86.3327 93.4062C86.9329 91.6104 88.3007 90.4542 89.7767 90.4542C91.8578 90.4542 93.5503 92.6535 93.5503 95.3742C93.5712 96.7004 93.1234 97.9915 92.2859 99.02C92.2232 99.0913 92.1825 99.1793 92.1687 99.2732C92.1549 99.3672 92.1686 99.4631 92.2081 99.5495C92.2477 99.6359 92.3113 99.7089 92.3915 99.7599C92.4716 99.8108 92.5648 99.8375 92.6598 99.8367L92.6745 99.8318Z"
            fill="white" />
    </g>
    <path
        d="M81.8554 99.3349C81.9067 99.5955 82.0309 99.8363 82.2137 100.029C82.3965 100.222 82.6303 100.359 82.8879 100.424C83.1455 100.489 83.4163 100.479 83.6687 100.396C83.9211 100.314 84.1447 100.161 84.3136 99.9557C84.4825 99.7506 84.5897 99.5017 84.6226 99.2381C84.6556 98.9745 84.6129 98.7069 84.4997 98.4666C84.3865 98.2263 84.2073 98.0231 83.983 97.8806C83.7588 97.7382 83.4987 97.6624 83.233 97.6621C82.8298 97.7044 82.4594 97.9035 82.2017 98.2164C81.944 98.5293 81.8196 98.931 81.8554 99.3349Z"
        fill="#263238" />
    <path
        d="M83.3166 99.8318C83.3877 99.8318 83.4579 99.8164 83.5224 99.7866C83.587 99.7569 83.6443 99.7136 83.6905 99.6596C84.6804 98.4509 85.2119 96.9315 85.1911 95.3693C85.1911 92.127 83.0608 89.4653 80.4384 89.4653C78.5048 89.4653 76.7828 90.8921 76.0448 93.0914C76.0031 93.2153 76.0123 93.3508 76.0704 93.468C76.1286 93.5852 76.2308 93.6744 76.3548 93.7162C76.4788 93.758 76.6142 93.7488 76.7314 93.6906C76.8486 93.6325 76.9379 93.5302 76.9796 93.4062C77.5799 91.6104 78.9477 90.4542 80.4237 90.4542C82.5048 90.4542 84.1924 92.6535 84.1924 95.3742C84.215 96.6999 83.769 97.991 82.9328 99.02C82.8704 99.091 82.8298 99.1785 82.8159 99.272C82.8019 99.3655 82.8152 99.4611 82.8541 99.5472C82.893 99.6334 82.956 99.7065 83.0354 99.7579C83.1148 99.8092 83.2073 99.8366 83.3018 99.8367L83.3166 99.8318Z"
        fill="#263238" />
    <g opacity="0.4">
        <path
            d="M83.3166 99.8318C83.3877 99.8318 83.4579 99.8164 83.5224 99.7866C83.587 99.7569 83.6443 99.7136 83.6905 99.6596C84.6804 98.4509 85.2119 96.9315 85.1911 95.3693C85.1911 92.127 83.0608 89.4653 80.4384 89.4653C78.5048 89.4653 76.7828 90.8921 76.0448 93.0914C76.0031 93.2153 76.0123 93.3508 76.0704 93.468C76.1286 93.5852 76.2308 93.6744 76.3548 93.7162C76.4788 93.758 76.6142 93.7488 76.7314 93.6906C76.8486 93.6325 76.9379 93.5302 76.9796 93.4062C77.5799 91.6104 78.9477 90.4542 80.4237 90.4542C82.5048 90.4542 84.1924 92.6535 84.1924 95.3742C84.215 96.6999 83.769 97.991 82.9328 99.02C82.8704 99.091 82.8298 99.1785 82.8159 99.272C82.8019 99.3655 82.8152 99.4611 82.8541 99.5472C82.893 99.6334 82.956 99.7065 83.0354 99.7579C83.1148 99.8092 83.2073 99.8366 83.3018 99.8367L83.3166 99.8318Z"
            fill="white" />
    </g>
    <path
        d="M72.4975 99.3349C72.5479 99.597 72.6718 99.8393 72.8548 100.034C73.0377 100.228 73.2721 100.366 73.5307 100.432C73.7893 100.499 74.0614 100.49 74.3151 100.407C74.5689 100.324 74.7939 100.171 74.964 99.9656C75.134 99.7599 75.242 99.51 75.2754 99.2452C75.3088 98.9804 75.2662 98.7116 75.1526 98.4701C75.0389 98.2286 74.8589 98.0244 74.6336 97.8813C74.4083 97.7382 74.147 97.6622 73.8801 97.6621C73.4765 97.7044 73.1056 97.9033 72.8471 98.2161C72.5886 98.5289 72.4631 98.9306 72.4975 99.3349Z"
        fill="#263238" />
    <path
        d="M73.9636 99.8318C74.0347 99.8318 74.1049 99.8164 74.1694 99.7866C74.234 99.7569 74.2913 99.7136 74.3375 99.6596C75.3186 98.4475 75.8412 96.9284 75.8135 95.3693C75.8135 92.127 73.6832 89.4653 71.0608 89.4653C69.1272 89.4653 67.4052 90.8921 66.6672 93.0914C66.6464 93.1527 66.6379 93.2176 66.6422 93.2823C66.6465 93.347 66.6636 93.4101 66.6924 93.4682C66.7212 93.5263 66.7612 93.5781 66.81 93.6206C66.8589 93.6632 66.9157 93.6957 66.9772 93.7162C67.0386 93.737 67.1035 93.7455 67.1681 93.7412C67.2328 93.7369 67.296 93.7199 67.354 93.6911C67.4121 93.6623 67.4639 93.6223 67.5065 93.5734C67.549 93.5245 67.5815 93.4677 67.602 93.4062C68.2023 91.6104 69.57 90.4542 71.046 90.4542C73.1223 90.4542 74.8148 92.6535 74.8148 95.3742C74.8382 96.7009 74.3901 97.9927 73.5503 99.02C73.4876 99.0913 73.4469 99.1793 73.4331 99.2732C73.4194 99.3672 73.433 99.4631 73.4726 99.5495C73.5121 99.6359 73.5758 99.7089 73.6559 99.7599C73.7361 99.8108 73.8293 99.8375 73.9242 99.8367L73.9636 99.8318Z"
        fill="#263238" />
    <g opacity="0.4">
        <path
            d="M73.9636 99.8318C74.0347 99.8318 74.1049 99.8164 74.1694 99.7866C74.234 99.7569 74.2913 99.7136 74.3375 99.6596C75.3186 98.4475 75.8412 96.9284 75.8135 95.3693C75.8135 92.127 73.6832 89.4653 71.0608 89.4653C69.1272 89.4653 67.4052 90.8921 66.6672 93.0914C66.6464 93.1527 66.6379 93.2176 66.6422 93.2823C66.6465 93.347 66.6636 93.4101 66.6924 93.4682C66.7212 93.5263 66.7612 93.5781 66.81 93.6206C66.8589 93.6632 66.9157 93.6957 66.9772 93.7162C67.0386 93.737 67.1035 93.7455 67.1681 93.7412C67.2328 93.7369 67.296 93.7199 67.354 93.6911C67.4121 93.6623 67.4639 93.6223 67.5065 93.5734C67.549 93.5245 67.5815 93.4677 67.602 93.4062C68.2023 91.6104 69.57 90.4542 71.046 90.4542C73.1223 90.4542 74.8148 92.6535 74.8148 95.3742C74.8382 96.7009 74.3901 97.9927 73.5503 99.02C73.4876 99.0913 73.4469 99.1793 73.4331 99.2732C73.4194 99.3672 73.433 99.4631 73.4726 99.5495C73.5121 99.6359 73.5758 99.7089 73.6559 99.7599C73.7361 99.8108 73.8293 99.8375 73.9242 99.8367L73.9636 99.8318Z"
            fill="white" />
    </g>
    <path
        d="M63.1445 99.3349C63.1949 99.597 63.3188 99.8393 63.5017 100.034C63.6847 100.228 63.9191 100.366 64.1777 100.432C64.4363 100.499 64.7083 100.49 64.9621 100.407C65.2159 100.324 65.4409 100.171 65.6109 99.9656C65.781 99.7599 65.889 99.51 65.9224 99.2452C65.9558 98.9804 65.9132 98.7116 65.7995 98.4701C65.6859 98.2286 65.5059 98.0244 65.2806 97.8813C65.0553 97.7382 64.7939 97.6622 64.527 97.6621C64.1235 97.7044 63.7526 97.9033 63.4941 98.2161C63.2356 98.5289 63.1101 98.9306 63.1445 99.3349Z"
        fill="#263238" />
    <path
        d="M64.6109 99.8318C64.682 99.8318 64.7522 99.8164 64.8168 99.7866C64.8813 99.7569 64.9387 99.7136 64.9849 99.6596C65.9659 98.4475 66.4885 96.9284 66.4609 95.3693C66.4609 92.127 64.3256 89.4653 61.7081 89.4653C59.7746 89.4653 58.0526 90.8921 57.3146 93.0914C57.2887 93.1536 57.2759 93.2205 57.2769 93.2879C57.278 93.3553 57.2928 93.4218 57.3206 93.4832C57.3484 93.5446 57.3886 93.5997 57.4385 93.6449C57.4885 93.6902 57.5472 93.7247 57.6111 93.7463C57.6749 93.7679 57.7425 93.7762 57.8097 93.7706C57.8769 93.765 57.9422 93.7457 58.0016 93.7138C58.061 93.6819 58.1132 93.6381 58.155 93.5852C58.1968 93.5323 58.2272 93.4714 58.2445 93.4062C58.8447 91.6104 60.2125 90.4542 61.6885 90.4542C63.7647 90.4542 65.4572 92.6535 65.4572 95.3742C65.478 96.7004 65.0303 97.9915 64.1927 99.02C64.1301 99.0913 64.0894 99.1793 64.0756 99.2732C64.0618 99.3672 64.0755 99.4631 64.115 99.5495C64.1545 99.6359 64.2182 99.7089 64.2984 99.7599C64.3785 99.8108 64.4717 99.8375 64.5667 99.8367L64.6109 99.8318Z"
        fill="#263238" />
    <g opacity="0.4">
        <path
            d="M64.6109 99.8318C64.682 99.8318 64.7522 99.8164 64.8168 99.7866C64.8813 99.7569 64.9387 99.7136 64.9849 99.6596C65.9659 98.4475 66.4885 96.9284 66.4609 95.3693C66.4609 92.127 64.3256 89.4653 61.7081 89.4653C59.7746 89.4653 58.0526 90.8921 57.3146 93.0914C57.2887 93.1536 57.2759 93.2205 57.2769 93.2879C57.278 93.3553 57.2928 93.4218 57.3206 93.4832C57.3484 93.5446 57.3886 93.5997 57.4385 93.6449C57.4885 93.6902 57.5472 93.7247 57.6111 93.7463C57.6749 93.7679 57.7425 93.7762 57.8097 93.7706C57.8769 93.765 57.9422 93.7457 58.0016 93.7138C58.061 93.6819 58.1132 93.6381 58.155 93.5852C58.1968 93.5323 58.2272 93.4714 58.2445 93.4062C58.8447 91.6104 60.2125 90.4542 61.6885 90.4542C63.7647 90.4542 65.4572 92.6535 65.4572 95.3742C65.478 96.7004 65.0303 97.9915 64.1927 99.02C64.1301 99.0913 64.0894 99.1793 64.0756 99.2732C64.0618 99.3672 64.0755 99.4631 64.115 99.5495C64.1545 99.6359 64.2182 99.7089 64.2984 99.7599C64.3785 99.8108 64.4717 99.8375 64.5667 99.8367L64.6109 99.8318Z"
            fill="white" />
    </g>
    <path
        d="M53.7915 99.3349C53.7915 100.26 54.4114 101.008 55.1691 101.008C55.5589 100.934 55.9109 100.727 56.164 100.421C56.4172 100.116 56.5558 99.7316 56.5558 99.3349C56.5558 98.9381 56.4172 98.5539 56.164 98.2485C55.9109 97.943 55.5589 97.7356 55.1691 97.6621C54.4114 97.6621 53.7915 98.4001 53.7915 99.3349Z"
        fill="#263238" />
    <path
        d="M55.2577 99.8318C55.3287 99.8318 55.399 99.8164 55.4635 99.7866C55.5281 99.7569 55.5854 99.7136 55.6316 99.6596C56.6108 98.4464 57.1332 96.9281 57.1076 95.3693C57.1076 92.127 54.9723 89.4653 52.3549 89.4653C50.4213 89.4653 48.6944 90.8921 47.9613 93.0914C47.9354 93.1536 47.9226 93.2205 47.9236 93.2879C47.9247 93.3553 47.9396 93.4218 47.9674 93.4832C47.9952 93.5446 48.0353 93.5997 48.0852 93.6449C48.1352 93.6902 48.1939 93.7247 48.2578 93.7463C48.3216 93.7679 48.3892 93.7762 48.4564 93.7706C48.5236 93.765 48.5889 93.7457 48.6483 93.7138C48.7077 93.6819 48.7599 93.6381 48.8017 93.5852C48.8435 93.5323 48.8739 93.4714 48.8912 93.4062C49.4914 91.6104 50.8592 90.4542 52.3352 90.4542C54.4114 90.4542 56.1039 92.6535 56.1039 95.3742C56.1248 96.7004 55.677 97.9915 54.8395 99.02C54.7964 99.0689 54.7635 99.1258 54.7427 99.1876C54.7218 99.2493 54.7135 99.3146 54.718 99.3796C54.7226 99.4446 54.7401 99.508 54.7693 99.5662C54.7986 99.6244 54.8392 99.6762 54.8887 99.7186C54.9394 99.7614 54.9982 99.7934 55.0616 99.8129C55.125 99.8323 55.1917 99.8387 55.2577 99.8318Z"
        fill="#263238" />
    <g opacity="0.4">
        <path
            d="M55.2577 99.8318C55.3287 99.8318 55.399 99.8164 55.4635 99.7866C55.5281 99.7569 55.5854 99.7136 55.6316 99.6596C56.6108 98.4464 57.1332 96.9281 57.1076 95.3693C57.1076 92.127 54.9723 89.4653 52.3549 89.4653C50.4213 89.4653 48.6944 90.8921 47.9613 93.0914C47.9354 93.1536 47.9226 93.2205 47.9236 93.2879C47.9247 93.3553 47.9396 93.4218 47.9674 93.4832C47.9952 93.5446 48.0353 93.5997 48.0852 93.6449C48.1352 93.6902 48.1939 93.7247 48.2578 93.7463C48.3216 93.7679 48.3892 93.7762 48.4564 93.7706C48.5236 93.765 48.5889 93.7457 48.6483 93.7138C48.7077 93.6819 48.7599 93.6381 48.8017 93.5852C48.8435 93.5323 48.8739 93.4714 48.8912 93.4062C49.4914 91.6104 50.8592 90.4542 52.3352 90.4542C54.4114 90.4542 56.1039 92.6535 56.1039 95.3742C56.1248 96.7004 55.677 97.9915 54.8395 99.02C54.7964 99.0689 54.7635 99.1258 54.7427 99.1876C54.7218 99.2493 54.7135 99.3146 54.718 99.3796C54.7226 99.4446 54.7401 99.508 54.7693 99.5662C54.7986 99.6244 54.8392 99.6762 54.8887 99.7186C54.9394 99.7614 54.9982 99.7934 55.0616 99.8129C55.125 99.8323 55.1917 99.8387 55.2577 99.8318Z"
            fill="white" />
    </g>
    <path d="M62.1112 132.766H57.9883V139.797H62.1112V132.766Z" fill="#407BFF" />
    <path d="M68.7875 127.649H64.6646V139.797H68.7875V127.649Z" fill="#407BFF" />
    <path d="M75.4691 129.568H71.3462V139.797H75.4691V129.568Z" fill="#407BFF" />
    <path d="M82.1506 124.451H78.0276V139.797H82.1506V124.451Z" fill="#407BFF" />
    <path d="M88.8268 119.335H84.7039V139.797H88.8268V119.335Z" fill="#407BFF" />
    <path opacity="0.5" d="M62.1112 132.766H57.9883V139.797H62.1112V132.766Z" fill="white" />
    <path opacity="0.5" d="M68.7875 127.649H64.6646V139.797H68.7875V127.649Z" fill="white" />
    <path opacity="0.5" d="M75.4691 129.568H71.3462V139.797H75.4691V129.568Z" fill="white" />
    <path opacity="0.5" d="M82.1506 124.451H78.0276V139.797H82.1506V124.451Z" fill="white" />
    <path opacity="0.5" d="M88.8268 119.335H84.7039V139.797H88.8268V119.335Z" fill="white" />
    <path d="M94.3272 138.823H52.3252V140.771H94.3272V138.823Z" fill="#263238" />
    <path
        d="M54.0964 134.213L53.1912 133.071L66.6621 122.351L73.3287 126.218L91.3261 110.877L92.2707 111.984L73.4911 127.999L66.795 124.112L54.0964 134.213Z"
        fill="#407BFF" />
    <path d="M92.8713 110.528L90.1357 110.951L92.0644 113.008L92.8713 110.528Z" fill="#407BFF" />
    <g opacity="0.3">
        <path
            d="M76.1431 147.108H52.3746C52.2441 147.108 52.1189 147.056 52.0267 146.964C51.9344 146.872 51.8826 146.747 51.8826 146.616C51.8826 146.486 51.9344 146.36 52.0267 146.268C52.1189 146.176 52.2441 146.124 52.3746 146.124H76.1431C76.2736 146.124 76.3987 146.176 76.491 146.268C76.5833 146.36 76.6351 146.486 76.6351 146.616C76.6351 146.747 76.5833 146.872 76.491 146.964C76.3987 147.056 76.2736 147.108 76.1431 147.108Z"
            fill="black" />
    </g>
    <g opacity="0.3">
        <path
            d="M94.5047 151.492H55.7696C55.6391 151.492 55.514 151.44 55.4217 151.348C55.3294 151.255 55.2776 151.13 55.2776 151C55.2776 150.869 55.3294 150.744 55.4217 150.652C55.514 150.56 55.6391 150.508 55.7696 150.508H94.5047C94.6352 150.508 94.7604 150.56 94.8526 150.652C94.9449 150.744 94.9967 150.869 94.9967 151C94.9967 151.13 94.9449 151.255 94.8526 151.348C94.7604 151.44 94.6352 151.492 94.5047 151.492Z"
            fill="black" />
        <path
            d="M94.5439 153.957H52.3746C52.2441 153.957 52.1189 153.905 52.0267 153.813C51.9344 153.72 51.8826 153.595 51.8826 153.465C51.8826 153.334 51.9344 153.209 52.0267 153.117C52.1189 153.024 52.2441 152.973 52.3746 152.973H94.5439C94.6744 152.973 94.7995 153.024 94.8918 153.117C94.9841 153.209 95.0359 153.334 95.0359 153.465C95.0359 153.595 94.9841 153.72 94.8918 153.813C94.7995 153.905 94.6744 153.957 94.5439 153.957Z"
            fill="black" />
        <path
            d="M94.6126 156.422H52.4285C52.298 156.422 52.1729 156.37 52.0806 156.277C51.9884 156.185 51.9365 156.06 51.9365 155.93C51.9365 155.799 51.9884 155.674 52.0806 155.582C52.1729 155.489 52.298 155.438 52.4285 155.438H94.6126C94.7431 155.438 94.8682 155.489 94.9605 155.582C95.0528 155.674 95.1046 155.799 95.1046 155.93C95.1046 156.06 95.0528 156.185 94.9605 156.277C94.8682 156.37 94.7431 156.422 94.6126 156.422Z"
            fill="black" />
        <path
            d="M87.7741 158.887H52.483C52.3525 158.887 52.2273 158.835 52.1351 158.742C52.0428 158.65 51.991 158.525 51.991 158.395C51.991 158.264 52.0428 158.139 52.1351 158.047C52.2273 157.954 52.3525 157.903 52.483 157.903H87.7741C87.9046 157.903 88.0298 157.954 88.122 158.047C88.2143 158.139 88.2661 158.264 88.2661 158.395C88.2661 158.525 88.2143 158.65 88.122 158.742C88.0298 158.835 87.9046 158.887 87.7741 158.887Z"
            fill="black" />
    </g>
    <g opacity="0.3">
        <path
            d="M94.5047 163.31H55.7696C55.6391 163.31 55.514 163.258 55.4217 163.166C55.3294 163.073 55.2776 162.948 55.2776 162.818C55.2776 162.687 55.3294 162.562 55.4217 162.47C55.514 162.377 55.6391 162.326 55.7696 162.326H94.5047C94.6352 162.326 94.7604 162.377 94.8526 162.47C94.9449 162.562 94.9967 162.687 94.9967 162.818C94.9967 162.948 94.9449 163.073 94.8526 163.166C94.7604 163.258 94.6352 163.31 94.5047 163.31Z"
            fill="black" />
        <path
            d="M94.5439 165.775H52.3746C52.2441 165.775 52.1189 165.723 52.0267 165.63C51.9344 165.538 51.8826 165.413 51.8826 165.283C51.8826 165.152 51.9344 165.027 52.0267 164.935C52.1189 164.842 52.2441 164.791 52.3746 164.791H94.5439C94.6744 164.791 94.7995 164.842 94.8918 164.935C94.9841 165.027 95.0359 165.152 95.0359 165.283C95.0359 165.413 94.9841 165.538 94.8918 165.63C94.7995 165.723 94.6744 165.775 94.5439 165.775Z"
            fill="black" />
        <path
            d="M94.6126 168.264H52.4285C52.298 168.264 52.1729 168.212 52.0806 168.12C51.9884 168.028 51.9365 167.903 51.9365 167.772C51.9365 167.642 51.9884 167.516 52.0806 167.424C52.1729 167.332 52.298 167.28 52.4285 167.28H94.6126C94.7431 167.28 94.8682 167.332 94.9605 167.424C95.0528 167.516 95.1046 167.642 95.1046 167.772C95.1046 167.903 95.0528 168.028 94.9605 168.12C94.8682 168.212 94.7431 168.264 94.6126 168.264Z"
            fill="black" />
        <path
            d="M87.7741 170.724H52.483C52.3525 170.724 52.2273 170.672 52.1351 170.58C52.0428 170.488 51.991 170.363 51.991 170.232C51.991 170.102 52.0428 169.976 52.1351 169.884C52.2273 169.792 52.3525 169.74 52.483 169.74H87.7741C87.9046 169.74 88.0298 169.792 88.122 169.884C88.2143 169.976 88.2661 170.102 88.2661 170.232C88.2661 170.363 88.2143 170.488 88.122 170.58C88.0298 170.672 87.9046 170.724 87.7741 170.724Z"
            fill="black" />
    </g>
    <g opacity="0.3">
        <path
            d="M76.1431 106.233H52.3746C52.2441 106.233 52.1189 106.181 52.0267 106.089C51.9344 105.996 51.8826 105.871 51.8826 105.741C51.8826 105.61 51.9344 105.485 52.0267 105.393C52.1189 105.3 52.2441 105.249 52.3746 105.249H76.1431C76.2736 105.249 76.3987 105.3 76.491 105.393C76.5833 105.485 76.6351 105.61 76.6351 105.741C76.6351 105.871 76.5833 105.996 76.491 106.089C76.3987 106.181 76.2736 106.233 76.1431 106.233Z"
            fill="black" />
    </g>
    <path
        d="M206.937 57.19H150.44C149.5 57.19 148.738 57.9522 148.738 58.8924V152.225C148.738 153.165 149.5 153.927 150.44 153.927H206.937C207.877 153.927 208.639 153.165 208.639 152.225V58.8924C208.639 57.9522 207.877 57.19 206.937 57.19Z"
        fill="#407BFF" />
    <path
        d="M162.853 56.7275H194.528C194.612 56.7275 194.692 56.7607 194.751 56.8198C194.81 56.8788 194.843 56.9589 194.843 57.0424V60.2109H162.534V57.0424C162.534 57.0007 162.542 56.9593 162.558 56.9208C162.574 56.8823 162.598 56.8473 162.628 56.818C162.657 56.7887 162.693 56.7656 162.731 56.7501C162.77 56.7346 162.812 56.7269 162.853 56.7275Z"
        fill="#263238" />
    <path opacity="0.9" d="M206.272 60.2109H151.109V150.891H206.272V60.2109Z" fill="white" />
    <path
        d="M189.5 64.3831H179.803L179.69 64.0436C179.621 63.8334 179.488 63.6503 179.309 63.5204C179.13 63.3905 178.914 63.3206 178.693 63.3206C178.472 63.3206 178.257 63.3905 178.078 63.5204C177.899 63.6503 177.766 63.8334 177.697 64.0436L177.584 64.3831H167.877C167.5 64.3831 167.14 64.2339 166.873 63.9684C166.607 63.7028 166.456 63.3424 166.455 62.9661V59.3942C166.457 59.0183 166.608 58.6587 166.874 58.3934C167.141 58.1281 167.501 57.9785 167.877 57.9772H189.525C189.9 57.9785 190.26 58.1282 190.525 58.3937C190.791 58.6591 190.94 59.0188 190.942 59.3942V62.976C190.94 63.1633 190.902 63.3485 190.829 63.5209C190.755 63.6933 190.649 63.8494 190.515 63.9803C190.38 64.1112 190.222 64.2141 190.048 64.2833C189.874 64.3524 189.687 64.3863 189.5 64.3831ZM180.477 63.3991H189.5C189.557 63.3997 189.614 63.389 189.667 63.3675C189.719 63.3459 189.767 63.3141 189.808 63.2737C189.848 63.2334 189.88 63.1854 189.901 63.1326C189.923 63.0798 189.934 63.0232 189.933 62.9661V59.3942C189.933 59.2794 189.887 59.1692 189.806 59.088C189.725 59.0069 189.615 58.9612 189.5 58.9612H167.852C167.795 58.9606 167.738 58.9713 167.685 58.9928C167.632 59.0142 167.584 59.046 167.543 59.0863C167.502 59.1266 167.47 59.1745 167.448 59.2274C167.426 59.2802 167.414 59.3369 167.414 59.3942V62.976C167.414 63.0332 167.426 63.0899 167.448 63.1428C167.47 63.1956 167.502 63.2436 167.543 63.2839C167.584 63.3241 167.632 63.3559 167.685 63.3774C167.738 63.3988 167.795 63.4096 167.852 63.4089H176.905C177.079 63.0862 177.337 62.8166 177.652 62.6287C177.967 62.4408 178.327 62.3415 178.693 62.3415C179.06 62.3415 179.42 62.4408 179.735 62.6287C180.05 62.8166 180.308 63.0862 180.482 63.4089L180.477 63.3991Z"
        fill="#263238" />
    <g opacity="0.5">
        <path
            d="M189.5 64.3831H179.803L179.69 64.0436C179.621 63.8334 179.488 63.6503 179.309 63.5204C179.13 63.3905 178.914 63.3206 178.693 63.3206C178.472 63.3206 178.257 63.3905 178.078 63.5204C177.899 63.6503 177.766 63.8334 177.697 64.0436L177.584 64.3831H167.877C167.5 64.3831 167.14 64.2339 166.873 63.9684C166.607 63.7028 166.456 63.3424 166.455 62.9661V59.3942C166.457 59.0183 166.608 58.6587 166.874 58.3934C167.141 58.1281 167.501 57.9785 167.877 57.9772H189.525C189.9 57.9785 190.26 58.1282 190.525 58.3937C190.791 58.6591 190.94 59.0188 190.942 59.3942V62.976C190.94 63.1633 190.902 63.3485 190.829 63.5209C190.755 63.6933 190.649 63.8494 190.515 63.9803C190.38 64.1112 190.222 64.2141 190.048 64.2833C189.874 64.3524 189.687 64.3863 189.5 64.3831ZM180.477 63.3991H189.5C189.557 63.3997 189.614 63.389 189.667 63.3675C189.719 63.3459 189.767 63.3141 189.808 63.2737C189.848 63.2334 189.88 63.1854 189.901 63.1326C189.923 63.0798 189.934 63.0232 189.933 62.9661V59.3942C189.933 59.2794 189.887 59.1692 189.806 59.088C189.725 59.0069 189.615 58.9612 189.5 58.9612H167.852C167.795 58.9606 167.738 58.9713 167.685 58.9928C167.632 59.0142 167.584 59.046 167.543 59.0863C167.502 59.1266 167.47 59.1745 167.448 59.2274C167.426 59.2802 167.414 59.3369 167.414 59.3942V62.976C167.414 63.0332 167.426 63.0899 167.448 63.1428C167.47 63.1956 167.502 63.2436 167.543 63.2839C167.584 63.3241 167.632 63.3559 167.685 63.3774C167.738 63.3988 167.795 63.4096 167.852 63.4089H176.905C177.079 63.0862 177.337 62.8166 177.652 62.6287C177.967 62.4408 178.327 62.3415 178.693 62.3415C179.06 62.3415 179.42 62.4408 179.735 62.6287C180.05 62.8166 180.308 63.0862 180.482 63.4089L180.477 63.3991Z"
            fill="white" />
    </g>
    <path
        d="M187.985 57.4065H169.397C169.128 57.4065 168.91 57.6246 168.91 57.8936V59.0596C168.91 59.3286 169.128 59.5467 169.397 59.5467H187.985C188.254 59.5467 188.472 59.3286 188.472 59.0596V57.8936C188.472 57.6246 188.254 57.4065 187.985 57.4065Z"
        fill="#263238" />
    <path opacity="0.2"
        d="M187.985 57.4065H169.397C169.128 57.4065 168.91 57.6246 168.91 57.8936V59.0596C168.91 59.3286 169.128 59.5467 169.397 59.5467H187.985C188.254 59.5467 188.472 59.3286 188.472 59.0596V57.8936C188.472 57.6246 188.254 57.4065 187.985 57.4065Z"
        fill="white" />
    <path
        d="M201.958 136.179C203.286 130.551 199.801 124.912 194.173 123.584C188.546 122.256 182.907 125.741 181.579 131.369C180.25 136.997 183.736 142.635 189.363 143.964C194.991 145.292 200.63 141.807 201.958 136.179Z"
        fill="#407BFF" />
    <path opacity="0.3"
        d="M191.773 133.785H202.243C202.243 135.855 201.629 137.88 200.479 139.601C199.328 141.323 197.693 142.665 195.78 143.457C193.867 144.25 191.762 144.457 189.731 144.053C187.7 143.649 185.834 142.652 184.37 141.188C182.906 139.724 181.909 137.858 181.505 135.827C181.101 133.796 181.308 131.691 182.1 129.778C182.893 127.865 184.235 126.23 185.957 125.079C187.678 123.929 189.703 123.315 191.773 123.315H191.813L191.773 133.785Z"
        fill="white" />
    <path opacity="0.3"
        d="M191.773 133.785L197.421 142.596C196.052 143.475 194.497 144.022 192.879 144.195C191.261 144.368 189.626 144.161 188.102 143.592C186.578 143.022 185.208 142.105 184.1 140.914C182.992 139.722 182.177 138.289 181.72 136.728C181.262 135.167 181.175 133.52 181.465 131.919C181.755 130.318 182.414 128.807 183.389 127.505C184.365 126.203 185.631 125.147 187.086 124.42C188.541 123.692 190.146 123.314 191.773 123.315H191.808L191.773 133.785Z"
        fill="white" />
    <path opacity="0.3"
        d="M191.773 133.785L182.947 139.413C181.938 137.831 181.373 136.006 181.311 134.13C181.249 132.255 181.692 130.397 182.594 128.751C183.497 127.105 184.825 125.733 186.439 124.776C188.054 123.82 189.896 123.315 191.773 123.315H191.807L191.773 133.785Z"
        fill="white" />
    <g opacity="0.5">
        <path
            d="M155.085 76.4518V101.16H202.317V76.4518H155.085ZM201.928 80.3091H193.756V76.8208H201.928V80.3091ZM175.827 80.3091H167.414V76.8208H175.827V80.3091ZM176.196 76.8208H184.605V80.3091H176.216L176.196 76.8208ZM175.827 80.6781V100.791H167.414V80.6879L175.827 80.6781ZM176.196 80.6781H184.605V100.791H176.216L176.196 80.6781ZM184.974 80.6781H193.387V100.791H184.974V80.6781ZM184.974 80.3091V76.8208H193.387V80.3091H184.974ZM167.045 76.8208V80.3091H155.454V76.8208H167.045ZM155.454 80.6879H167.045V100.801H155.454V80.6879ZM193.756 100.801V80.6879H201.928V100.801H193.756Z"
            fill="black" />
        <path
            d="M170.096 84.132H173.5C173.631 84.132 173.756 84.0802 173.848 83.9879C173.94 83.8956 173.992 83.7705 173.992 83.64C173.992 83.5095 173.94 83.3844 173.848 83.2921C173.756 83.1998 173.631 83.148 173.5 83.148H170.096C169.965 83.148 169.84 83.1998 169.748 83.2921C169.655 83.3844 169.604 83.5095 169.604 83.64C169.604 83.7705 169.655 83.8956 169.748 83.9879C169.84 84.0802 169.965 84.132 170.096 84.132Z"
            fill="black" />
        <path
            d="M178.676 88.5944H182.371C182.501 88.5944 182.627 88.5426 182.719 88.4503C182.811 88.3581 182.863 88.2329 182.863 88.1024C182.863 87.972 182.811 87.8468 182.719 87.7545C182.627 87.6623 182.501 87.6104 182.371 87.6104H178.676C178.546 87.6104 178.42 87.6623 178.328 87.7545C178.236 87.8468 178.184 87.972 178.184 88.1024C178.184 88.2329 178.236 88.3581 178.328 88.4503C178.42 88.5426 178.546 88.5944 178.676 88.5944Z"
            fill="black" />
        <path
            d="M182.548 96.5402H178.676C178.546 96.5402 178.42 96.592 178.328 96.6843C178.236 96.7766 178.184 96.9017 178.184 97.0322C178.184 97.1627 178.236 97.2878 178.328 97.3801C178.42 97.4724 178.546 97.5242 178.676 97.5242H182.533C182.664 97.5242 182.789 97.4724 182.881 97.3801C182.974 97.2878 183.025 97.1627 183.025 97.0322C183.025 96.9017 182.974 96.7766 182.881 96.6843C182.789 96.592 182.664 96.5402 182.533 96.5402H182.548Z"
            fill="black" />
        <path
            d="M191.109 92.0729H187.04C186.91 92.0729 186.784 92.1247 186.692 92.217C186.6 92.3093 186.548 92.4344 186.548 92.5649C186.548 92.6954 186.6 92.8205 186.692 92.9128C186.784 93.0051 186.91 93.0569 187.04 93.0569H191.119C191.249 93.0569 191.374 93.0051 191.467 92.9128C191.559 92.8205 191.611 92.6954 191.611 92.5649C191.611 92.4344 191.559 92.3093 191.467 92.217C191.374 92.1247 191.249 92.0729 191.119 92.0729H191.109Z"
            fill="black" />
        <path
            d="M199.911 83.148H195.778C195.647 83.148 195.522 83.1998 195.43 83.2921C195.338 83.3844 195.286 83.5095 195.286 83.64C195.286 83.7705 195.338 83.8956 195.43 83.9879C195.522 84.0802 195.647 84.132 195.778 84.132H199.911C200.041 84.132 200.166 84.0802 200.259 83.9879C200.351 83.8956 200.403 83.7705 200.403 83.64C200.403 83.5095 200.351 83.3844 200.259 83.2921C200.166 83.1998 200.041 83.148 199.911 83.148Z"
            fill="black" />
        <path
            d="M199.379 96.5402H195.778C195.647 96.5402 195.522 96.592 195.43 96.6843C195.338 96.7766 195.286 96.9017 195.286 97.0322C195.286 97.1627 195.338 97.2878 195.43 97.3801C195.522 97.4724 195.647 97.5242 195.778 97.5242H199.379C199.51 97.5242 199.635 97.4724 199.727 97.3801C199.819 97.2878 199.871 97.1627 199.871 97.0322C199.871 96.9017 199.819 96.7766 199.727 96.6843C199.635 96.592 199.51 96.5402 199.379 96.5402Z"
            fill="black" />
        <path
            d="M170.096 93.0569H173.013C173.144 93.0569 173.269 93.0051 173.361 92.9128C173.453 92.8205 173.505 92.6954 173.505 92.5649C173.505 92.4344 173.453 92.3093 173.361 92.217C173.269 92.1247 173.144 92.0729 173.013 92.0729H170.096C169.965 92.0729 169.84 92.1247 169.748 92.217C169.655 92.3093 169.604 92.4344 169.604 92.5649C169.604 92.6954 169.655 92.8205 169.748 92.9128C169.84 93.0051 169.965 93.0569 170.096 93.0569Z"
            fill="black" />
        <path
            d="M173.5 96.5402H170.096C169.965 96.5402 169.84 96.592 169.748 96.6843C169.655 96.7766 169.604 96.9017 169.604 97.0322C169.604 97.1627 169.655 97.2878 169.748 97.3801C169.84 97.4724 169.965 97.5242 170.096 97.5242H173.5C173.631 97.5242 173.756 97.4724 173.848 97.3801C173.94 97.2878 173.992 97.1627 173.992 97.0322C173.992 96.9017 173.94 96.7766 173.848 96.6843C173.756 96.592 173.631 96.5402 173.5 96.5402Z"
            fill="black" />
        <path
            d="M157.23 84.132H165.013C165.144 84.132 165.269 84.0802 165.361 83.9879C165.453 83.8956 165.505 83.7705 165.505 83.64C165.505 83.5095 165.453 83.3844 165.361 83.2921C165.269 83.1998 165.144 83.148 165.013 83.148H157.23C157.099 83.148 156.974 83.1998 156.882 83.2921C156.79 83.3844 156.738 83.5095 156.738 83.64C156.738 83.7705 156.79 83.8956 156.882 83.9879C156.974 84.0802 157.099 84.132 157.23 84.132Z"
            fill="black" />
        <path
            d="M157.23 88.5944H162.411C162.541 88.5944 162.666 88.5426 162.758 88.4503C162.851 88.3581 162.903 88.2329 162.903 88.1024C162.903 87.972 162.851 87.8468 162.758 87.7545C162.666 87.6623 162.541 87.6104 162.411 87.6104H157.23C157.099 87.6104 156.974 87.6623 156.882 87.7545C156.79 87.8468 156.738 87.972 156.738 88.1024C156.738 88.2329 156.79 88.3581 156.882 88.4503C156.974 88.5426 157.099 88.5944 157.23 88.5944Z"
            fill="black" />
        <path
            d="M165.013 92.0729H157.23C157.099 92.0729 156.974 92.1247 156.882 92.217C156.79 92.3093 156.738 92.4344 156.738 92.5649C156.738 92.6954 156.79 92.8205 156.882 92.9128C156.974 93.0051 157.099 93.0569 157.23 93.0569H165.013C165.144 93.0569 165.269 93.0051 165.361 92.9128C165.453 92.8205 165.505 92.6954 165.505 92.5649C165.505 92.4344 165.453 92.3093 165.361 92.217C165.269 92.1247 165.144 92.0729 165.013 92.0729Z"
            fill="black" />
        <path
            d="M161.122 96.5402H157.23C157.099 96.5402 156.974 96.592 156.882 96.6843C156.79 96.7766 156.738 96.9017 156.738 97.0322C156.738 97.1627 156.79 97.2878 156.882 97.3801C156.974 97.4724 157.099 97.5242 157.23 97.5242H161.122C161.252 97.5242 161.377 97.4724 161.469 97.3801C161.562 97.2878 161.614 97.1627 161.614 97.0322C161.614 96.9017 161.562 96.7766 161.469 96.6843C161.377 96.592 161.252 96.5402 161.122 96.5402Z"
            fill="black" />
    </g>
    <g opacity="0.5">
        <path
            d="M173.997 71.2711H155.577C155.446 71.2711 155.321 71.2192 155.229 71.127C155.137 71.0347 155.085 70.9096 155.085 70.7791C155.085 70.6486 155.137 70.5234 155.229 70.4312C155.321 70.3389 155.446 70.2871 155.577 70.2871H173.997C174.128 70.2871 174.253 70.3389 174.345 70.4312C174.437 70.5234 174.489 70.6486 174.489 70.7791C174.489 70.9096 174.437 71.0347 174.345 71.127C174.253 71.2192 174.128 71.2711 173.997 71.2711Z"
            fill="black" />
    </g>
    <g opacity="0.5">
        <path
            d="M167.537 74.0312H155.577C155.446 74.0312 155.321 73.9793 155.229 73.8871C155.137 73.7948 155.085 73.6697 155.085 73.5392C155.085 73.4087 155.137 73.2836 155.229 73.1913C155.321 73.099 155.446 73.0472 155.577 73.0472H167.537C167.668 73.0472 167.793 73.099 167.885 73.1913C167.977 73.2836 168.029 73.4087 168.029 73.5392C168.029 73.6697 167.977 73.7948 167.885 73.8871C167.793 73.9793 167.668 74.0312 167.537 74.0312Z"
            fill="black" />
    </g>
    <g opacity="0.5">
        <path
            d="M179.345 105.426H155.577C155.446 105.426 155.321 105.374 155.229 105.282C155.137 105.189 155.085 105.064 155.085 104.934C155.085 104.803 155.137 104.678 155.229 104.586C155.321 104.494 155.446 104.442 155.577 104.442H179.345C179.476 104.442 179.601 104.494 179.693 104.586C179.785 104.678 179.837 104.803 179.837 104.934C179.837 105.064 179.785 105.189 179.693 105.282C179.601 105.374 179.476 105.426 179.345 105.426Z"
            fill="black" />
    </g>
    <path d="M158.022 124.929H155.085V127.866H158.022V124.929Z" fill="#407BFF" />
    <g opacity="0.5">
        <path
            d="M174.74 126.892H160.157C160.027 126.892 159.901 126.84 159.809 126.748C159.717 126.655 159.665 126.53 159.665 126.4C159.665 126.269 159.717 126.144 159.809 126.052C159.901 125.96 160.027 125.908 160.157 125.908H174.74C174.87 125.908 174.996 125.96 175.088 126.052C175.18 126.144 175.232 126.269 175.232 126.4C175.232 126.53 175.18 126.655 175.088 126.748C174.996 126.84 174.87 126.892 174.74 126.892Z"
            fill="black" />
    </g>
    <path d="M158.022 129.854H155.085V132.791H158.022V129.854Z" fill="#407BFF" />
    <g opacity="0.5">
        <path
            d="M174.74 131.812H160.157C160.027 131.812 159.901 131.76 159.809 131.668C159.717 131.575 159.665 131.45 159.665 131.32C159.665 131.189 159.717 131.064 159.809 130.972C159.901 130.88 160.027 130.828 160.157 130.828H174.74C174.87 130.828 174.996 130.88 175.088 130.972C175.18 131.064 175.232 131.189 175.232 131.32C175.232 131.45 175.18 131.575 175.088 131.668C174.996 131.76 174.87 131.812 174.74 131.812Z"
            fill="black" />
    </g>
    <path d="M158.022 134.774H155.085V137.711H158.022V134.774Z" fill="#407BFF" />
    <g opacity="0.5">
        <path
            d="M174.74 136.737H160.157C160.027 136.737 159.901 136.685 159.809 136.592C159.717 136.5 159.665 136.375 159.665 136.245C159.665 136.114 159.717 135.989 159.809 135.897C159.901 135.804 160.027 135.753 160.157 135.753H174.74C174.87 135.753 174.996 135.804 175.088 135.897C175.18 135.989 175.232 136.114 175.232 136.245C175.232 136.375 175.18 136.5 175.088 136.592C174.996 136.685 174.87 136.737 174.74 136.737Z"
            fill="black" />
    </g>
    <path d="M158.022 139.698H155.085V142.636H158.022V139.698Z" fill="#407BFF" />
    <g opacity="0.5">
        <path
            d="M174.74 141.662H160.157C160.027 141.662 159.901 141.61 159.809 141.517C159.717 141.425 159.665 141.3 159.665 141.17C159.665 141.039 159.717 140.914 159.809 140.822C159.901 140.729 160.027 140.678 160.157 140.678H174.74C174.87 140.678 174.996 140.729 175.088 140.822C175.18 140.914 175.232 141.039 175.232 141.17C175.232 141.3 175.18 141.425 175.088 141.517C174.996 141.61 174.87 141.662 174.74 141.662Z"
            fill="black" />
    </g>
    <g opacity="0.5">
        <path
            d="M201.643 109.824H158.967C158.836 109.824 158.711 109.772 158.619 109.68C158.526 109.588 158.475 109.463 158.475 109.332C158.475 109.202 158.526 109.077 158.619 108.984C158.711 108.892 158.836 108.84 158.967 108.84H201.643C201.773 108.84 201.898 108.892 201.991 108.984C202.083 109.077 202.135 109.202 202.135 109.332C202.135 109.463 202.083 109.588 201.991 109.68C201.898 109.772 201.773 109.824 201.643 109.824Z"
            fill="black" />
        <path
            d="M201.697 112.289H155.577C155.446 112.289 155.321 112.237 155.229 112.145C155.137 112.053 155.085 111.928 155.085 111.797C155.085 111.667 155.137 111.541 155.229 111.449C155.321 111.357 155.446 111.305 155.577 111.305H201.697C201.827 111.305 201.952 111.357 202.045 111.449C202.137 111.541 202.189 111.667 202.189 111.797C202.189 111.928 202.137 112.053 202.045 112.145C201.952 112.237 201.827 112.289 201.697 112.289Z"
            fill="black" />
        <path
            d="M201.751 114.754H155.631C155.5 114.754 155.375 114.702 155.283 114.61C155.191 114.518 155.139 114.392 155.139 114.262C155.139 114.131 155.191 114.006 155.283 113.914C155.375 113.822 155.5 113.77 155.631 113.77H201.751C201.881 113.77 202.007 113.822 202.099 113.914C202.191 114.006 202.243 114.131 202.243 114.262C202.243 114.392 202.191 114.518 202.099 114.61C202.007 114.702 201.881 114.754 201.751 114.754Z"
            fill="black" />
        <path
            d="M194.912 117.219H155.685C155.554 117.219 155.429 117.167 155.337 117.075C155.245 116.983 155.193 116.857 155.193 116.727C155.193 116.596 155.245 116.471 155.337 116.379C155.429 116.287 155.554 116.235 155.685 116.235H194.912C195.043 116.235 195.168 116.287 195.26 116.379C195.352 116.471 195.404 116.596 195.404 116.727C195.404 116.857 195.352 116.983 195.26 117.075C195.168 117.167 195.043 117.219 194.912 117.219Z"
            fill="black" />
    </g>
    <path opacity="0.3" d="M158.022 129.854H155.085V132.791H158.022V129.854Z" fill="white" />
    <path opacity="0.5" d="M158.022 134.774H155.085V137.711H158.022V134.774Z" fill="white" />
    <path opacity="0.7" d="M158.022 139.698H155.085V142.636H158.022V139.698Z" fill="white" />
    <path
        d="M205.446 166.419C205.446 166.419 203.109 161.322 205.78 156.294C208.452 151.265 209.224 150.085 207.522 149.056C205.82 148.028 205.037 153.076 205.037 153.076C204.195 150.792 204.109 148.298 204.791 145.962C205.972 142.326 206.715 136.402 205.101 135.767C203.487 135.133 204.791 143.147 203.384 145.893C202.671 143.971 202.209 141.965 202.011 139.925C201.82 137.007 202.12 132.343 200.845 131.148C199.571 129.952 198.749 130.779 200.004 137.224C200.758 141.075 201.175 144.985 201.249 148.909C201.249 148.909 198.479 140.451 196.614 140.205C194.75 139.959 194.754 142.7 196.349 145.076C197.943 147.452 201.018 151.703 201.519 153.893C201.519 153.893 198.474 147.531 195.738 149.465C193.003 151.398 198.12 155.26 200.403 156.648C202.685 158.035 204.26 166.759 204.26 166.759L205.446 166.419Z"
        fill="#407BFF" />
    <path opacity="0.2"
        d="M205.446 166.419C205.446 166.419 203.109 161.322 205.78 156.294C208.452 151.265 209.224 150.085 207.522 149.056C205.82 148.028 205.037 153.076 205.037 153.076C204.195 150.792 204.109 148.298 204.791 145.962C205.972 142.326 206.715 136.402 205.101 135.767C203.487 135.133 204.791 143.147 203.384 145.893C202.671 143.971 202.209 141.965 202.011 139.925C201.82 137.007 202.12 132.343 200.845 131.148C199.571 129.952 198.749 130.779 200.004 137.224C200.758 141.075 201.175 144.985 201.249 148.909C201.249 148.909 198.479 140.451 196.614 140.205C194.75 139.959 194.754 142.7 196.349 145.076C197.943 147.452 201.018 151.703 201.519 153.893C201.519 153.893 198.474 147.531 195.738 149.465C193.003 151.398 198.12 155.26 200.403 156.648C202.685 158.035 204.26 166.759 204.26 166.759L205.446 166.419Z"
        fill="black" />
    <path
        d="M203.601 168.51C203.601 168.51 205.879 163.378 203.148 158.395C200.417 153.411 199.63 152.235 201.318 151.177C203.005 150.119 203.852 155.162 203.852 155.162C204.667 152.869 204.724 150.375 204.014 148.048C202.789 144.427 201.972 138.518 203.581 137.858C205.19 137.199 203.979 145.238 205.416 147.954C206.108 146.025 206.546 144.014 206.72 141.972C206.877 139.044 206.518 134.385 207.783 133.17C209.047 131.954 209.874 132.771 208.693 139.236C207.986 143.098 207.617 147.015 207.591 150.941C207.591 150.941 210.262 142.444 212.132 142.188C214.002 141.932 214.021 144.648 212.457 147.049C210.892 149.45 207.871 153.75 207.394 155.944C207.394 155.944 210.346 149.548 213.121 151.447C215.896 153.347 210.808 157.278 208.545 158.7C206.282 160.121 204.796 168.85 204.796 168.85L203.601 168.51Z"
        fill="#407BFF" />
    <path d="M214.1 164.854H195.301L196.821 178.306H212.575L214.1 164.854Z" fill="#263238" />
    <path
        d="M100.576 49.4804H114.716C115.869 49.4804 116.976 49.9387 117.791 50.7543C118.607 51.57 119.065 52.6762 119.065 53.8297V66.1297C119.065 67.2832 118.607 68.3895 117.791 69.2051C116.976 70.0208 115.869 70.479 114.716 70.479H110.583L112.059 75.8418L107.631 70.479H100.576C100.004 70.4796 99.4382 70.3676 98.91 70.1493C98.3817 69.9311 97.9017 69.6108 97.4973 69.2069C97.0929 68.8029 96.7721 68.3232 96.5532 67.7952C96.3343 67.2672 96.2217 66.7013 96.2217 66.1297V53.8297C96.2217 53.2581 96.3343 52.6922 96.5532 52.1642C96.7721 51.6362 97.0929 51.1565 97.4973 50.7526C97.9017 50.3486 98.3817 50.0284 98.91 49.8101C99.4382 49.5918 100.004 49.4798 100.576 49.4804Z"
        fill="#407BFF" />
    <path opacity="0.7"
        d="M100.576 49.4804H114.716C115.869 49.4804 116.976 49.9387 117.791 50.7543C118.607 51.57 119.065 52.6762 119.065 53.8297V66.1297C119.065 67.2832 118.607 68.3895 117.791 69.2051C116.976 70.0208 115.869 70.479 114.716 70.479H110.583L112.059 75.8418L107.631 70.479H100.576C100.004 70.4796 99.4382 70.3676 98.91 70.1493C98.3817 69.9311 97.9017 69.6108 97.4973 69.2069C97.0929 68.8029 96.7721 68.3232 96.5532 67.7952C96.3343 67.2672 96.2217 66.7013 96.2217 66.1297V53.8297C96.2217 53.2581 96.3343 52.6922 96.5532 52.1642C96.7721 51.6362 97.0929 51.1565 97.4973 50.7526C97.9017 50.3486 98.3817 50.0284 98.91 49.8101C99.4382 49.5918 100.004 49.4798 100.576 49.4804Z"
        fill="white" />
    <path opacity="0.7"
        d="M105.506 62.6611C107.938 62.6611 109.909 60.6896 109.909 58.2577C109.909 55.8257 107.938 53.8543 105.506 53.8543C103.074 53.8543 101.102 55.8257 101.102 58.2577C101.102 60.6896 103.074 62.6611 105.506 62.6611Z"
        fill="white" />
    <path
        d="M105.506 63.2957C104.34 63.2948 103.211 62.8898 102.311 62.1499C101.411 61.4099 100.795 60.3807 100.568 59.2376C100.341 58.0945 100.518 56.9081 101.068 55.8806C101.618 54.8531 102.507 54.048 103.584 53.6024C104.661 53.1568 105.859 53.0983 106.974 53.4369C108.089 53.7754 109.052 54.4901 109.699 55.4592C110.347 56.4282 110.638 57.5917 110.524 58.7515C110.41 59.9113 109.897 60.9956 109.073 61.8197C108.605 62.2886 108.049 62.6604 107.437 62.9137C106.824 63.167 106.168 63.2968 105.506 63.2957ZM105.506 54.4939C104.635 54.494 103.791 54.7961 103.118 55.3486C102.445 55.9011 101.985 56.6699 101.815 57.5239C101.645 58.378 101.777 59.2645 102.187 60.0324C102.598 60.8003 103.262 61.402 104.067 61.7352C104.871 62.0683 105.766 62.1121 106.6 61.8592C107.433 61.6064 108.153 61.0724 108.636 60.3483C109.12 59.6242 109.338 58.7548 109.252 57.8883C109.167 57.0217 108.783 56.2116 108.168 55.5959C107.819 55.2451 107.404 54.9671 106.947 54.7779C106.49 54.5887 106 54.4921 105.506 54.4939Z"
        fill="#407BFF" />
    <path d="M109.074 60.9194L108.169 61.8239L113.19 66.8441L114.094 65.9395L109.074 60.9194Z"
        fill="#407BFF" />
    <path
        d="M114.18 67.8959C113.926 67.8936 113.682 67.7931 113.501 67.6155L109.668 63.7828C109.572 63.6955 109.495 63.5897 109.441 63.4719C109.388 63.354 109.358 63.2264 109.355 63.0969C109.352 62.9673 109.375 62.8385 109.423 62.7182C109.471 62.5978 109.543 62.4885 109.635 62.3967C109.726 62.3049 109.835 62.2326 109.955 62.1841C110.076 62.1356 110.204 62.112 110.334 62.1146C110.463 62.1173 110.591 62.1461 110.709 62.1995C110.827 62.2528 110.933 62.3295 111.021 62.4249L114.859 66.2625C114.991 66.3969 115.081 66.5676 115.118 66.753C115.154 66.9384 115.134 67.1304 115.062 67.3048C114.989 67.4792 114.867 67.6284 114.71 67.7335C114.553 67.8387 114.369 67.8952 114.18 67.8959Z"
        fill="#407BFF" />
    <path
        d="M106.189 56.2651C106.189 56.4597 106.132 56.65 106.024 56.8118C105.915 56.9736 105.762 57.0998 105.582 57.1742C105.402 57.2487 105.204 57.2682 105.013 57.2302C104.823 57.1922 104.647 57.0985 104.51 56.9609C104.372 56.8233 104.278 56.648 104.24 56.4571C104.202 56.2662 104.222 56.0684 104.296 55.8886C104.371 55.7088 104.497 55.5551 104.659 55.447C104.821 55.3388 105.011 55.2811 105.205 55.2811C105.466 55.2811 105.717 55.3848 105.901 55.5693C106.086 55.7539 106.189 56.0042 106.189 56.2651Z"
        fill="white" />
    <path
        d="M107.651 56.9834C107.651 57.0807 107.622 57.1758 107.568 57.2568C107.514 57.3377 107.437 57.4007 107.347 57.438C107.257 57.4752 107.158 57.4849 107.063 57.466C106.967 57.447 106.88 57.4001 106.811 57.3313C106.742 57.2625 106.695 57.1748 106.676 57.0794C106.657 56.984 106.667 56.885 106.704 56.7951C106.741 56.7052 106.804 56.6284 106.885 56.5743C106.966 56.5203 107.061 56.4914 107.159 56.4914C107.289 56.4914 107.414 56.5433 107.507 56.6355C107.599 56.7278 107.651 56.8529 107.651 56.9834Z"
        fill="white" />
    <path d="M147.08 139.954H73.8013V151.748H147.08V139.954Z" fill="#407BFF" />
    <path opacity="0.8" d="M147.08 139.954H73.8013V151.748H147.08V139.954Z" fill="white" />
    <path opacity="0.2" d="M147.08 143.074V142.114L96.9106 142.513L147.08 143.074Z" fill="black" />
    <path opacity="0.2" d="M147.08 147.206V146.463L124.556 147.27L147.08 147.206Z" fill="black" />
    <path opacity="0.2" d="M147.08 149.971V149.012L110.765 149.568L147.08 149.971Z" fill="black" />
    <path opacity="0.2"
        d="M90.185 139.954L89.1321 148.746L90.3867 147.408C90.8083 149.013 91.5965 150.499 92.6892 151.748C93.473 150.721 94.0967 149.581 94.5392 148.368L128.763 147.974L94.8639 147.231C94.9692 146.746 95.0236 146.251 95.0262 145.755C95.0245 145.344 94.9849 144.934 94.9082 144.53L145.122 144.402L94.7901 144.008C94.613 143.346 94.3656 142.704 94.0521 142.095C94.776 141.456 95.7092 141.106 96.6744 141.111H147.08V139.954H90.185Z"
        fill="black" />
    <path
        d="M91.3163 145.785C91.3202 147.198 91.8842 148.553 92.8848 149.551C93.8853 150.55 95.2409 151.112 96.6545 151.113H147.926C147.978 151.113 148.029 151.123 148.076 151.143C148.124 151.163 148.168 151.192 148.204 151.228C148.241 151.265 148.27 151.308 148.289 151.356C148.309 151.404 148.319 151.455 148.319 151.506V151.93C148.319 152.034 148.278 152.134 148.204 152.208C148.13 152.282 148.03 152.323 147.926 152.323H72.1874C71.3235 152.323 70.4681 152.152 69.6707 151.82C68.8732 151.488 68.1495 151.001 67.5411 150.388C66.9328 149.774 66.4519 149.046 66.1263 148.246C65.8006 147.446 65.6366 146.589 65.6438 145.725C65.6863 143.979 66.414 142.32 67.6696 141.106C68.9252 139.892 70.6081 139.22 72.3547 139.236H147.926C148.03 139.236 148.13 139.277 148.204 139.351C148.278 139.425 148.319 139.525 148.319 139.63V140.048C148.319 140.152 148.278 140.252 148.204 140.326C148.13 140.4 148.03 140.441 147.926 140.441H96.812C95.3797 140.438 94.0031 140.996 92.9762 141.994C91.9493 142.992 91.3536 144.353 91.3163 145.785Z"
        fill="#407BFF" />
    <path opacity="0.4"
        d="M91.3163 145.785C91.3202 147.198 91.8842 148.553 92.8848 149.551C93.8853 150.55 95.2409 151.112 96.6545 151.113H147.926C147.978 151.113 148.029 151.123 148.076 151.143C148.124 151.163 148.168 151.192 148.204 151.228C148.241 151.265 148.27 151.308 148.289 151.356C148.309 151.404 148.319 151.455 148.319 151.506V151.93C148.319 152.034 148.278 152.134 148.204 152.208C148.13 152.282 148.03 152.323 147.926 152.323H72.1874C71.3235 152.323 70.4681 152.152 69.6707 151.82C68.8732 151.488 68.1495 151.001 67.5411 150.388C66.9328 149.774 66.4519 149.046 66.1263 148.246C65.8006 147.446 65.6366 146.589 65.6438 145.725C65.6863 143.979 66.414 142.32 67.6696 141.106C68.9252 139.892 70.6081 139.22 72.3547 139.236H147.926C148.03 139.236 148.13 139.277 148.204 139.351C148.278 139.425 148.319 139.525 148.319 139.63V140.048C148.319 140.152 148.278 140.252 148.204 140.326C148.13 140.4 148.03 140.441 147.926 140.441H96.812C95.3797 140.438 94.0031 140.996 92.9762 141.994C91.9493 142.992 91.3536 144.353 91.3163 145.785Z"
        fill="white" />
    <path
        d="M91.3165 145.785C91.3204 147.198 91.8843 148.553 92.8849 149.551C93.8854 150.55 95.241 151.112 96.6547 151.113H147.926C147.978 151.113 148.029 151.123 148.077 151.143C148.124 151.163 148.168 151.192 148.204 151.228C148.241 151.265 148.27 151.308 148.29 151.356C148.309 151.404 148.32 151.455 148.32 151.506V151.93C148.32 152.034 148.278 152.134 148.204 152.208C148.13 152.282 148.03 152.323 147.926 152.323H96.3595C95.4955 152.323 94.6402 152.151 93.8428 151.819C93.0454 151.486 92.3215 151 91.7129 150.386C91.1043 149.773 90.623 149.046 90.2966 148.246C89.9701 147.446 89.8051 146.589 89.8109 145.725C89.856 143.982 90.5831 142.325 91.836 141.112C93.089 139.899 94.7678 139.225 96.512 139.236H147.926C148.03 139.236 148.13 139.277 148.204 139.351C148.278 139.425 148.32 139.525 148.32 139.63V140.048C148.32 140.152 148.278 140.252 148.204 140.326C148.13 140.4 148.03 140.441 147.926 140.441H96.8121C95.3799 140.438 94.0032 140.996 92.9763 141.994C91.9494 142.992 91.3537 144.353 91.3165 145.785Z"
        fill="#407BFF" />
    <path d="M100.97 142.606V147.334L102.682 145.622L104.34 147.28V142.606H100.97Z"
        fill="#263238" />
    <path opacity="0.6"
        d="M91.3165 145.785C91.3204 147.198 91.8843 148.553 92.8849 149.551C93.8854 150.55 95.241 151.112 96.6547 151.113H147.926C147.978 151.113 148.029 151.123 148.077 151.143C148.124 151.163 148.168 151.192 148.204 151.228C148.241 151.265 148.27 151.308 148.29 151.356C148.309 151.404 148.32 151.455 148.32 151.506V151.93C148.32 152.034 148.278 152.134 148.204 152.208C148.13 152.282 148.03 152.323 147.926 152.323H96.3595C95.4955 152.323 94.6402 152.151 93.8428 151.819C93.0454 151.486 92.3215 151 91.7129 150.386C91.1043 149.773 90.623 149.046 90.2966 148.246C89.9701 147.446 89.8051 146.589 89.8109 145.725C89.856 143.982 90.5831 142.325 91.836 141.112C93.089 139.899 94.7678 139.225 96.512 139.236H147.926C148.03 139.236 148.13 139.277 148.204 139.351C148.278 139.425 148.32 139.525 148.32 139.63V140.048C148.32 140.152 148.278 140.252 148.204 140.326C148.13 140.4 148.03 140.441 147.926 140.441H96.8121C95.3799 140.438 94.0032 140.996 92.9763 141.994C91.9494 142.992 91.3537 144.353 91.3165 145.785Z"
        fill="white" />
    <path d="M150.617 165.942H77.3386V177.735H150.617V165.942Z" fill="#407BFF" />
    <path opacity="0.7" d="M150.617 165.942H77.3386V177.735H150.617V165.942Z" fill="white" />
    <path opacity="0.2" d="M150.617 169.056V168.097L100.448 168.5L150.617 169.056Z" fill="black" />
    <path opacity="0.2" d="M150.618 173.189V172.451L128.094 173.253L150.618 173.189Z"
        fill="black" />
    <path opacity="0.2" d="M150.617 175.954V175L114.303 175.551L150.617 175.954Z" fill="black" />
    <path opacity="0.2"
        d="M93.7224 165.942L92.6597 174.734L93.9143 173.396C94.3405 175 95.13 176.485 96.2218 177.735C97.002 176.705 97.6239 175.564 98.0668 174.35L132.29 173.956L98.3915 173.218C98.4978 172.733 98.5538 172.239 98.5588 171.742C98.5553 171.331 98.5142 170.921 98.4358 170.517L148.664 170.404L98.3275 170.011C98.1504 169.35 97.903 168.71 97.5895 168.102C98.3098 167.454 99.2434 167.095 100.212 167.093H150.632V165.942H93.7224Z"
        fill="black" />
    <path
        d="M94.854 171.767C94.8514 172.469 94.9876 173.166 95.2548 173.815C95.522 174.465 95.9148 175.055 96.4109 175.553C96.9069 176.05 97.4963 176.445 98.1452 176.714C98.7941 176.983 99.4898 177.121 100.192 177.12H151.464C151.568 177.12 151.668 177.161 151.742 177.235C151.816 177.309 151.857 177.409 151.857 177.514V177.937C151.857 178.041 151.816 178.141 151.742 178.215C151.668 178.289 151.568 178.33 151.464 178.33H71.6956C70.8325 178.329 69.9781 178.157 69.1816 177.825C68.385 177.493 67.662 177.006 67.054 176.393C66.446 175.781 65.965 175.054 65.6385 174.255C65.3121 173.456 65.1468 172.601 65.152 171.738C65.1933 169.989 65.9209 168.327 67.1776 167.111C68.4342 165.895 70.119 165.222 71.8678 165.238H151.464C151.568 165.238 151.668 165.28 151.742 165.353C151.816 165.427 151.857 165.527 151.857 165.632V166.055C151.857 166.159 151.816 166.259 151.742 166.333C151.668 166.407 151.568 166.449 151.464 166.449H100.35C98.9216 166.445 97.5485 166.999 96.5223 167.992C95.496 168.985 94.8976 170.34 94.854 171.767Z"
        fill="#263238" />
    <path opacity="0.2"
        d="M94.854 171.767C94.8514 172.469 94.9876 173.166 95.2548 173.815C95.522 174.465 95.9148 175.055 96.4109 175.553C96.9069 176.05 97.4963 176.445 98.1452 176.714C98.7941 176.983 99.4898 177.121 100.192 177.12H151.464C151.568 177.12 151.668 177.161 151.742 177.235C151.816 177.309 151.857 177.409 151.857 177.514V177.937C151.857 178.041 151.816 178.141 151.742 178.215C151.668 178.289 151.568 178.33 151.464 178.33H71.6956C70.8325 178.329 69.9781 178.157 69.1816 177.825C68.385 177.493 67.662 177.006 67.054 176.393C66.446 175.781 65.965 175.054 65.6385 174.255C65.3121 173.456 65.1468 172.601 65.152 171.738C65.1933 169.989 65.9209 168.327 67.1776 167.111C68.4342 165.895 70.119 165.222 71.8678 165.238H151.464C151.568 165.238 151.668 165.28 151.742 165.353C151.816 165.427 151.857 165.527 151.857 165.632V166.055C151.857 166.159 151.816 166.259 151.742 166.333C151.668 166.407 151.568 166.449 151.464 166.449H100.35C98.9216 166.445 97.5485 166.999 96.5223 167.992C95.496 168.985 94.8976 170.34 94.854 171.767Z"
        fill="white" />
    <path
        d="M94.8541 171.767C94.8515 172.469 94.9877 173.166 95.2548 173.815C95.522 174.465 95.9149 175.055 96.4109 175.553C96.9069 176.05 97.4963 176.445 98.1452 176.714C98.7941 176.983 99.4898 177.121 100.192 177.12H151.464C151.568 177.12 151.668 177.161 151.742 177.235C151.816 177.309 151.857 177.409 151.857 177.514V177.937C151.857 178.041 151.816 178.141 151.742 178.215C151.668 178.289 151.568 178.33 151.464 178.33H99.8971C99.0336 178.33 98.1786 178.159 97.3815 177.828C96.5844 177.496 95.8608 177.009 95.2525 176.396C94.6443 175.784 94.1633 175.056 93.8374 174.257C93.5114 173.457 93.347 172.601 93.3535 171.738C93.3935 169.99 94.12 168.328 95.3759 167.111C96.6318 165.895 98.3161 165.222 100.064 165.238H151.464C151.568 165.238 151.668 165.28 151.742 165.353C151.816 165.427 151.857 165.527 151.857 165.632V166.055C151.857 166.159 151.816 166.259 151.742 166.333C151.668 166.407 151.568 166.449 151.464 166.449H100.35C98.9216 166.445 97.5485 166.999 96.5223 167.992C95.4961 168.985 94.8976 170.34 94.8541 171.767Z"
        fill="#263238" />
    <path d="M100.448 170.271V174.999L102.155 173.287L103.813 174.945V170.271H100.448Z"
        fill="#407BFF" />
    <path opacity="0.4"
        d="M94.8541 171.767C94.8515 172.469 94.9877 173.166 95.2548 173.815C95.522 174.465 95.9149 175.055 96.4109 175.553C96.9069 176.05 97.4963 176.445 98.1452 176.714C98.7941 176.983 99.4898 177.121 100.192 177.12H151.464C151.568 177.12 151.668 177.161 151.742 177.235C151.816 177.309 151.857 177.409 151.857 177.514V177.937C151.857 178.041 151.816 178.141 151.742 178.215C151.668 178.289 151.568 178.33 151.464 178.33H99.8971C99.0336 178.33 98.1786 178.159 97.3815 177.828C96.5844 177.496 95.8608 177.009 95.2525 176.396C94.6443 175.784 94.1633 175.056 93.8374 174.257C93.5114 173.457 93.347 172.601 93.3535 171.738C93.3935 169.99 94.12 168.328 95.3759 167.111C96.6318 165.895 98.3161 165.222 100.064 165.238H151.464C151.568 165.238 151.668 165.28 151.742 165.353C151.816 165.427 151.857 165.527 151.857 165.632V166.055C151.857 166.159 151.816 166.259 151.742 166.333C151.668 166.407 151.568 166.449 151.464 166.449H100.35C98.9216 166.445 97.5485 166.999 96.5223 167.992C95.4961 168.985 94.8976 170.34 94.8541 171.767Z"
        fill="white" />
    <path d="M70.7462 164.722H97.8948V152.943H70.7462V164.722Z" fill="#407BFF" />
    <path opacity="0.8" d="M70.7462 164.722H97.8948V152.943H70.7462V164.722Z" fill="white" />
    <path opacity="0.2" d="M95.7198 154.099H70.7458V152.948H95.6902L95.7198 154.099Z"
        fill="black" />
    <path opacity="0.2" d="M95.7198 155.103L73.1912 155.585L95.7198 156.062V155.103Z"
        fill="black" />
    <path opacity="0.2" d="M95.7199 159.457L71.8628 159.861L95.7199 160.2V159.457Z" fill="black" />
    <path opacity="0.2" d="M95.7197 162.006L72.0742 162.483L95.7197 162.96V162.006Z" fill="black" />
    <path opacity="0.2" d="M70.7458 156.781L93.6189 157.47L70.7458 157.952V156.781Z" fill="black" />
    <path
        d="M131.341 158.773C131.338 160.188 130.775 161.544 129.774 162.543C128.773 163.543 127.417 164.105 126.003 164.107H69.4915C69.3871 164.107 69.287 164.148 69.2132 164.222C69.1394 164.296 69.0979 164.396 69.0979 164.5V164.918C69.0979 165.023 69.1394 165.123 69.2132 165.197C69.287 165.271 69.3871 165.312 69.4915 165.312H126.298C127.162 165.313 128.017 165.143 128.815 164.812C129.613 164.48 130.337 163.994 130.945 163.381C131.554 162.768 132.035 162.04 132.36 161.24C132.686 160.44 132.849 159.583 132.841 158.719C132.801 156.971 132.075 155.309 130.819 154.093C129.563 152.877 127.879 152.204 126.131 152.22H69.4915C69.3871 152.22 69.287 152.261 69.2132 152.335C69.1394 152.409 69.0979 152.509 69.0979 152.614V153.037C69.0979 153.141 69.1394 153.241 69.2132 153.315C69.287 153.389 69.3871 153.43 69.4915 153.43H125.845C127.277 153.427 128.654 153.984 129.681 154.983C130.708 155.981 131.304 157.342 131.341 158.773Z"
        fill="#263238" />
    <path opacity="0.4"
        d="M131.341 158.773C131.338 160.188 130.775 161.544 129.774 162.543C128.773 163.543 127.417 164.105 126.003 164.107H69.4915C69.3871 164.107 69.287 164.148 69.2132 164.222C69.1394 164.296 69.0979 164.396 69.0979 164.5V164.918C69.0979 165.023 69.1394 165.123 69.2132 165.197C69.287 165.271 69.3871 165.312 69.4915 165.312H126.298C127.162 165.313 128.017 165.143 128.815 164.812C129.613 164.48 130.337 163.994 130.945 163.381C131.554 162.768 132.035 162.04 132.36 161.24C132.686 160.44 132.849 159.583 132.841 158.719C132.801 156.971 132.075 155.309 130.819 154.093C129.563 152.877 127.879 152.204 126.131 152.22H69.4915C69.3871 152.22 69.287 152.261 69.2132 152.335C69.1394 152.409 69.0979 152.509 69.0979 152.614V153.037C69.0979 153.141 69.1394 153.241 69.2132 153.315C69.287 153.389 69.3871 153.43 69.4915 153.43H125.845C127.277 153.427 128.654 153.984 129.681 154.983C130.708 155.981 131.304 157.342 131.341 158.773Z"
        fill="white" />
    <path
        d="M151.951 158.842C151.951 160.408 151.329 161.91 150.221 163.017C149.114 164.124 147.612 164.746 146.047 164.746H95.72V152.938H146.052C147.617 152.939 149.117 153.562 150.223 154.669C151.329 155.776 151.951 157.277 151.951 158.842Z"
        fill="#407BFF" />
    <path opacity="0.7"
        d="M95.72 152.948V164.756H146.056C147.622 164.756 149.124 164.134 150.231 163.027C151.338 161.92 151.96 160.418 151.96 158.852C151.96 157.286 151.338 155.785 150.231 154.677C149.124 153.57 147.622 152.948 146.056 152.948H95.72Z"
        fill="white" />
    <path opacity="0.2" d="M95.72 156.062V155.103L145.889 155.506L95.72 156.062Z" fill="black" />
    <path opacity="0.2" d="M95.72 160.2V159.457L118.244 160.264L95.72 160.2Z" fill="black" />
    <path opacity="0.2" d="M95.72 162.96V162.006L132.035 162.557L95.72 162.96Z" fill="black" />
    <path opacity="0.2"
        d="M146.135 154.099C147.104 154.101 148.037 154.461 148.758 155.108C148.444 155.718 148.195 156.36 148.015 157.022L97.6831 157.415L147.901 157.538C147.823 157.944 147.782 158.356 147.778 158.768C147.779 159.265 147.837 159.761 147.951 160.244L114.047 160.982L148.266 161.381C148.562 162.197 148.943 162.981 149.402 163.718C150.432 163.001 151.207 161.975 151.614 160.788C152.022 159.601 152.04 158.315 151.667 157.117C151.294 155.919 150.55 154.871 149.541 154.125C148.532 153.379 147.311 152.973 146.056 152.968H95.72V154.119L146.135 154.099Z"
        fill="black" />
    <path
        d="M151.483 158.773C151.481 160.188 150.917 161.544 149.917 162.543C148.916 163.543 147.56 164.105 146.145 164.107H94.8738C94.7694 164.107 94.6693 164.148 94.5955 164.222C94.5217 164.296 94.4802 164.396 94.4802 164.5V164.918C94.4802 165.023 94.5217 165.123 94.5955 165.197C94.6693 165.271 94.7694 165.312 94.8738 165.312H146.44C147.304 165.313 148.16 165.143 148.957 164.812C149.755 164.48 150.479 163.994 151.088 163.381C151.696 162.768 152.177 162.04 152.503 161.24C152.828 160.44 152.992 159.583 152.984 158.719C152.944 156.971 152.217 155.309 150.961 154.093C149.706 152.877 148.021 152.204 146.273 152.22H94.8738C94.7694 152.22 94.6693 152.261 94.5955 152.335C94.5217 152.409 94.4802 152.509 94.4802 152.614V153.037C94.4802 153.141 94.5217 153.241 94.5955 153.315C94.6693 153.389 94.7694 153.43 94.8738 153.43H145.988C147.42 153.427 148.797 153.984 149.823 154.983C150.85 155.981 151.446 157.342 151.483 158.773Z"
        fill="#263238" />
    <path d="M145.889 157.278V162.006L144.177 160.294L142.519 161.952V157.278H145.889Z"
        fill="#407BFF" />
    <path
        d="M159.188 90.8183H157.958C157.729 90.823 157.505 90.8821 157.304 90.9907C157.103 91.0994 156.931 91.2545 156.802 91.4431L155.582 93.2242C155.339 93.576 155.185 93.9809 155.132 94.4047C155.079 94.8285 155.129 95.2589 155.277 95.6596L155.464 96.1516C157.505 96.25 159.788 94.8527 159.788 94.8527L160.487 94.528C160.631 94.465 160.762 94.3741 160.871 94.2604C160.979 94.1467 161.065 94.0125 161.122 93.8656C161.178 93.7188 161.205 93.5621 161.201 93.4047C161.197 93.2473 161.161 93.0923 161.097 92.9487L160.472 91.5957C160.356 91.3562 160.173 91.1554 159.945 91.0175C159.717 90.8796 159.454 90.8104 159.188 90.8183Z"
        fill="#EEC1BB" />
    <path
        d="M135.872 92.988C139.031 95.5415 142.44 98.0015 146.204 99.507L145.737 99.4086C146.081 99.4922 146.986 99.1478 147.459 98.9166C150.086 97.6374 152.576 95.7186 154.937 93.9671C155.179 93.7921 155.475 93.7094 155.773 93.7339C156.07 93.7584 156.349 93.8885 156.559 94.1007C156.768 94.3129 156.895 94.5931 156.916 94.8908C156.938 95.1884 156.852 95.4838 156.674 95.7235C154.317 98.6755 149.013 104.673 144.812 103.797C140.207 102.425 136.138 99.8612 132.512 96.7272C130.16 94.464 133.314 90.9265 135.872 92.988Z"
        fill="#EBC0BB" />
    <path
        d="M129.245 89.5095C128.094 92.7174 129.948 95.9055 134.411 99.6595C136.63 99.3299 139.626 94.7789 139.626 94.7789C139.626 94.7789 133.348 88.5009 129.245 89.5095Z"
        fill="#407BFF" />
    <path
        d="M133.082 69.5836C133.082 69.5836 128.689 65.0867 122.962 70.7299C117.235 76.3732 116.118 95.0692 116.118 95.0692L131.065 97.972C131.065 97.972 132.999 95.7531 133.993 89.3521C134.986 82.9512 135.513 76.8307 136.772 75.4039C138.032 73.9771 133.082 69.5836 133.082 69.5836Z"
        fill="#263238" />
    <path
        d="M145.919 164.264L142.681 162.975L143.946 158.257L145.112 153.927L149.205 154.832L147.468 159.826L145.919 164.264Z"
        fill="#EEC1BB" />
    <path opacity="0.2"
        d="M147.429 159.93L143.911 158.345L145.097 153.971L149.195 154.857L147.429 159.93Z"
        fill="black" />
    <path
        d="M121.422 121.75C121.422 121.75 148.482 118.1 156 122.902C163.518 127.704 148.959 156.948 148.959 156.948L144.403 155.964C144.403 155.964 147.818 132.781 147.562 131.812C147.306 130.842 134.563 137.165 117.122 137.765L121.422 121.75Z"
        fill="#263238" />
    <path opacity="0.2"
        d="M121.422 121.75C121.422 121.75 148.482 118.1 156 122.902C163.518 127.704 148.959 156.948 148.959 156.948L144.403 155.964C144.403 155.964 147.818 132.781 147.562 131.812C147.306 130.842 134.563 137.165 117.122 137.765L121.422 121.75Z"
        fill="black" />
    <path d="M144.152 154.488L149.884 156.348L148.856 158.96L143.592 157.169L144.152 154.488Z"
        fill="#263238" />
    <path
        d="M148.915 164.992C148.295 164.992 147.203 164.008 146.976 163.772C146.963 163.76 146.953 163.745 146.947 163.728V163.698C146.946 163.667 146.954 163.636 146.971 163.61C147.001 163.575 147.719 162.626 148.408 162.596C148.512 162.586 148.617 162.598 148.716 162.633C148.815 162.668 148.905 162.724 148.979 162.798C149.151 162.96 149.21 163.118 149.151 163.265C149.058 163.501 148.659 163.629 148.211 163.708C148.574 163.76 148.914 163.911 149.195 164.146C149.245 164.195 149.283 164.255 149.307 164.32C149.332 164.385 149.342 164.455 149.338 164.525C149.338 164.81 149.185 164.923 149.077 164.963C149.025 164.983 148.97 164.993 148.915 164.992ZM147.39 163.826C147.96 164.318 148.718 164.85 148.989 164.741C148.989 164.741 149.087 164.707 149.097 164.51C149.099 164.473 149.093 164.435 149.079 164.401C149.066 164.366 149.045 164.334 149.018 164.308C148.753 164.013 147.931 163.875 147.39 163.836V163.826ZM148.462 162.842H148.418C147.983 162.956 147.597 163.211 147.321 163.565C148.074 163.531 148.841 163.388 148.92 163.187C148.944 163.123 148.861 163.029 148.807 162.98C148.713 162.894 148.589 162.849 148.462 162.852V162.842Z"
        fill="#577AFA" />
    <path
        d="M142.076 160.963C142.204 160.599 146.598 162.345 146.598 162.345C146.598 162.345 148.448 166.05 150.927 167.556C153.407 169.061 151.38 170.183 148.384 169.204L140.964 166.788C138.824 166.099 140.753 164.722 142.076 160.963Z"
        fill="#2E353A" />
    <path opacity="0.4"
        d="M144.152 154.488L149.884 156.348L148.856 158.96L143.592 157.169L144.152 154.488Z"
        fill="white" />
    <path
        d="M160.039 173.627L156.683 174.571L154.814 170.055L153.112 165.912L156.91 164.141L158.568 169.164L160.039 173.627Z"
        fill="#EEC1BB" />
    <path
        d="M155.193 172.2C155.193 171.816 159.926 172.234 159.926 172.234C159.926 172.234 162.755 175.26 165.559 175.993C168.364 176.726 166.745 178.379 163.591 178.306L155.793 178.109C153.555 178.055 155.001 176.18 155.193 172.2Z"
        fill="#2E353A" />
    <path
        d="M162.41 173.499C161.721 173.405 161.054 173.187 160.442 172.854L160.408 172.83C160.406 172.817 160.406 172.803 160.408 172.79C160.406 172.779 160.406 172.767 160.408 172.756C160.403 172.74 160.403 172.723 160.408 172.707C160.408 172.653 160.846 171.57 161.49 171.319C161.587 171.28 161.692 171.262 161.797 171.268C161.902 171.274 162.004 171.303 162.096 171.354C162.307 171.457 162.406 171.59 162.396 171.752C162.371 172.003 162.017 172.244 161.623 172.441C161.989 172.387 162.362 172.436 162.701 172.584C162.761 172.617 162.814 172.663 162.855 172.718C162.897 172.773 162.926 172.836 162.942 172.904C162.973 172.988 162.979 173.081 162.957 173.169C162.935 173.257 162.887 173.336 162.819 173.396C162.699 173.477 162.555 173.514 162.41 173.499ZM160.851 172.79C161.545 173.1 162.415 173.391 162.647 173.209C162.647 173.209 162.73 173.145 162.686 172.958C162.678 172.921 162.662 172.887 162.639 172.857C162.616 172.827 162.587 172.803 162.553 172.786C162.209 172.579 161.382 172.692 160.851 172.79ZM161.736 171.506C161.674 171.506 161.612 171.518 161.554 171.541C161.175 171.77 160.878 172.115 160.708 172.525C161.422 172.279 162.115 171.92 162.135 171.708C162.135 171.639 162.032 171.57 161.968 171.541C161.894 171.512 161.815 171.5 161.736 171.506Z"
        fill="#577AFA" />
    <path opacity="0.2"
        d="M158.598 169.268L154.844 170.148L153.122 165.957L156.915 164.166L158.598 169.268Z"
        fill="black" />
    <path
        d="M129.097 125.248C129.097 125.248 128.709 119.895 128.527 118.803C128.376 117.72 128.154 116.649 127.862 115.595C126.677 112.028 110.77 116.225 110.77 116.225L110.318 118.685C110.318 118.685 103.139 132.22 107.936 137.096C109.412 138.572 112.251 139.241 115.169 139.221C115.169 139.221 124.089 139.649 140.679 138.877C140.679 138.877 139.449 148.54 153.122 167.472L157.697 165.996C157.697 165.996 148.664 131.625 147.897 131.015C141.284 125.672 129.097 125.248 129.097 125.248Z"
        fill="#263238" />
    <path d="M152.295 167.241L157.978 165.228L158.75 167.929L153.481 169.71L152.295 167.241Z"
        fill="#263238" />
    <path
        d="M134.445 92.0729C134.445 92.0729 133.875 93.4702 133.077 95.9105C132.886 96.4812 132.689 97.111 132.482 97.79C132.212 98.6805 131.921 99.6596 131.631 100.742C131.419 101.509 131.208 102.311 131.001 103.158C130.795 104.004 130.573 104.919 130.362 105.849C130.362 105.957 130.312 106.07 130.293 106.179C129.393 109.985 128.736 113.846 128.325 117.736L110.849 116.21C110.846 112.375 111.045 108.542 111.444 104.727C111.759 101.422 112.37 98.152 113.27 94.956C113.963 92.6535 114.859 90.6756 116.01 89.3817C116.01 89.4014 125.486 86.2919 134.445 92.0729Z"
        fill="#407BFF" />
    <path
        d="M125.54 86.8921C120.281 85.2095 118.239 89.3521 118.239 89.3521L121.038 89.0766L126.721 96.2106L130.052 91.8958L132.148 93.0225C132.148 93.0225 130.096 88.3484 125.54 86.8921Z"
        fill="#407BFF" />
    <path opacity="0.6"
        d="M125.54 86.8921C120.281 85.2095 118.239 89.3521 118.239 89.3521L121.038 89.0766L126.721 96.2106L130.052 91.8958L132.148 93.0225C132.148 93.0225 130.096 88.3484 125.54 86.8921Z"
        fill="white" />
    <path
        d="M126.573 95.8219L121.752 88.6043C124.025 87.576 125.53 83.2267 125.86 80.7765L129.265 85.9229C128.153 87.576 127.41 89.4653 129.958 90.8921C129.968 90.8921 126.568 95.8071 126.573 95.8219Z"
        fill="#EEC1BB" />
    <path opacity="0.2"
        d="M127.247 82.8774L129.264 85.9229C128.999 86.3008 128.77 86.7027 128.581 87.1234C127.572 86.6707 126.499 85.1554 126.75 84.1074C126.836 83.6694 127.005 83.2519 127.247 82.8774Z"
        fill="black" />
    <path d="M110.578 116.766L116.044 117.126L115.848 118.67L110.042 118.252L110.578 116.766Z"
        fill="black" />
    <path d="M128.763 119.59L116.507 118.715L116.704 117.17L128.566 117.952L128.763 119.59Z"
        fill="black" />
    <path
        d="M124.271 119.586H124.221L122.745 119.487C122.569 119.476 122.405 119.396 122.287 119.264C122.169 119.132 122.108 118.96 122.116 118.784L122.155 117.8C122.155 117.706 122.174 117.614 122.212 117.529C122.25 117.445 122.306 117.369 122.376 117.308C122.442 117.245 122.519 117.197 122.604 117.167C122.688 117.136 122.779 117.124 122.868 117.13L124.404 117.219C124.493 117.224 124.581 117.247 124.661 117.286C124.742 117.325 124.814 117.38 124.873 117.447C124.932 117.515 124.977 117.593 125.005 117.678C125.034 117.763 125.045 117.853 125.038 117.942L124.964 118.966C124.948 119.137 124.868 119.297 124.739 119.412C124.611 119.527 124.443 119.589 124.271 119.586ZM122.627 117.795L122.583 118.779C122.582 118.827 122.599 118.873 122.631 118.909C122.663 118.945 122.707 118.967 122.755 118.971L124.231 119.074C124.28 119.077 124.328 119.06 124.365 119.028C124.402 118.996 124.424 118.95 124.428 118.902L124.502 117.883C124.504 117.858 124.502 117.833 124.494 117.81C124.486 117.786 124.474 117.764 124.458 117.745C124.441 117.728 124.422 117.713 124.4 117.703C124.378 117.693 124.354 117.687 124.33 117.686L122.795 117.598C122.746 117.596 122.698 117.614 122.662 117.647C122.643 117.663 122.628 117.682 122.618 117.704C122.608 117.727 122.603 117.751 122.603 117.775L122.627 117.795Z"
        fill="white" />
    <path opacity="0.5"
        d="M152.295 167.241L157.978 165.228L158.75 167.929L153.481 169.71L152.295 167.241Z"
        fill="white" />
    <path
        d="M137.806 79.4531C137.78 79.4538 137.755 79.4473 137.733 79.4342C137.712 79.4211 137.694 79.4021 137.683 79.3793C137.546 79.1139 137.351 78.883 137.113 78.704C136.874 78.525 136.598 78.4026 136.305 78.3461C136.287 78.3455 136.269 78.3411 136.252 78.3333C136.236 78.3254 136.221 78.3142 136.209 78.3003C136.197 78.2864 136.188 78.2702 136.182 78.2527C136.177 78.2352 136.175 78.2167 136.177 78.1985C136.182 78.1633 136.2 78.1312 136.227 78.1084C136.254 78.0857 136.289 78.0739 136.325 78.0755C136.665 78.1337 136.987 78.2708 137.265 78.4759C137.542 78.6809 137.768 78.9482 137.924 79.2563C137.932 79.272 137.937 79.2893 137.939 79.3071C137.94 79.3249 137.938 79.3429 137.933 79.3598C137.927 79.3768 137.918 79.3925 137.907 79.406C137.895 79.4195 137.881 79.4305 137.865 79.4383L137.806 79.4531Z"
        fill="#263238" />
    <path
        d="M136.162 81.5834C136.216 82.2663 136.351 82.9402 136.566 83.5908C136.392 83.6973 136.192 83.7537 135.988 83.7537C135.784 83.7537 135.584 83.6973 135.41 83.5908L136.162 81.5834Z"
        fill="#D4827D" />
    <path
        d="M137.25 80.8504C137.122 81.1554 136.856 81.3424 136.65 81.2538C136.443 81.1653 136.379 80.8504 136.507 80.5454C136.635 80.2403 136.9 80.0534 137.107 80.1419C137.314 80.2305 137.373 80.5404 137.25 80.8504Z"
        fill="#263238" />
    <path d="M137.013 80.1222H137.786C137.786 80.1222 137.225 80.5601 137.013 80.1222Z"
        fill="#263238" />
    <path
        d="M125.924 83.4973C125.942 83.5478 125.967 83.5957 125.998 83.64C126.047 83.7384 126.101 83.827 126.155 83.9254C126.471 84.5311 126.9 85.0706 127.419 85.5145C129.097 86.9069 130.544 87.3497 131.847 86.9905C131.911 86.9905 131.97 86.9512 132.034 86.9315C133.963 86.2033 135.478 83.9795 136.762 80.9783C137.319 79.8163 137.683 78.5718 137.84 77.2932C137.84 77.2932 137.84 77.2489 137.84 77.2391C137.84 77.2293 137.84 77.1358 137.84 77.0915C137.903 76.3562 137.781 75.6168 137.485 74.9406C137.19 74.2643 136.73 73.6727 136.147 73.2195C135.65 72.81 135.109 72.4569 134.534 72.1666C128.945 69.2638 123.223 78.0952 125.924 83.4973Z"
        fill="#EEC1BB" />
    <path
        d="M137.84 77.244C137.84 77.244 136.157 81.3571 131.552 81.18C131.552 81.18 127.872 84.4813 125.476 83.3448C122.204 81.795 121.673 75.7631 125.151 71.6451C129.673 66.3019 139.119 70.4446 137.84 77.244Z"
        fill="#263238" />
    <path
        d="M134.037 81.0029C134.347 80.383 134.371 79.0989 133.343 78.7545C132.315 78.4101 130.49 80.5699 132.654 82.3461C132.964 82.6019 133.412 82.2919 134.037 81.0029Z"
        fill="#EEC1BB" />
    <path
        d="M133.082 69.5836C133.082 69.5836 137.338 70.5282 138.657 73.0964C140.202 76.0976 140.202 78.3953 135.882 79.7876C135.882 79.7876 130.583 74.5429 128.256 73.9181C126.899 73.5453 125.513 73.2869 124.113 73.1456C125.781 68.7373 131.405 67.6648 133.082 69.5836Z"
        fill="#263238" />
    <path
        d="M131.562 81.18C128.886 86.5281 123.001 95.6153 116.728 89.2045C116.728 89.2045 118.982 81.9525 123.533 78.9611C128.084 75.9698 131.562 81.18 131.562 81.18Z"
        fill="#263238" />
    <path
        d="M130.593 90.1C132.881 91.7925 129.953 97.3619 132.841 98.6018C132.57 98.2265 132.399 97.7879 132.346 97.3279C132.293 96.8679 132.358 96.4019 132.536 95.9745C133.142 94.4591 135.597 90.4542 134.618 85.0324L130.593 90.1Z"
        fill="#263238" />
    <path opacity="0.2"
        d="M118.741 101.844C118.741 101.844 115.001 104.378 111.464 104.693C111.775 101.4 112.379 98.1413 113.27 94.956C113.722 94.7011 114.227 94.5531 114.746 94.523C117.373 94.5722 118.332 97.0372 118.332 97.0372C118.617 98.6234 118.753 100.233 118.741 101.844Z"
        fill="black" />
    <path
        d="M132.389 119.394L131.601 118.449C131.453 118.277 131.266 118.142 131.056 118.056C130.845 117.971 130.617 117.937 130.391 117.957L128.236 118.114C127.81 118.145 127.398 118.278 127.034 118.502C126.67 118.725 126.365 119.033 126.145 119.399L125.87 119.856C127.07 121.514 129.584 122.424 129.584 122.424L130.273 122.764C130.411 122.839 130.563 122.885 130.72 122.901C130.876 122.917 131.034 122.901 131.185 122.855C131.335 122.81 131.475 122.734 131.597 122.634C131.718 122.534 131.818 122.411 131.892 122.272L132.581 120.914C132.704 120.67 132.752 120.395 132.717 120.124C132.683 119.853 132.569 119.599 132.389 119.394Z"
        fill="#EEC1BB" />
    <path
        d="M117.24 96.7764C117.18 99.8751 117.402 102.973 117.904 106.031C118.089 107.009 118.327 107.977 118.618 108.929L118.401 108.501C119.538 110.238 121.201 111.846 122.652 113.421L125.083 115.93L127.543 118.454C127.759 118.672 127.887 118.963 127.902 119.27C127.917 119.577 127.818 119.879 127.624 120.118C127.43 120.356 127.154 120.514 126.85 120.561C126.546 120.608 126.235 120.541 125.978 120.373C124.96 119.728 124.01 119.049 123.026 118.36C120.025 116.102 116.999 113.992 114.662 110.98C112.625 106.469 112.128 101.455 112.3 96.555C112.591 93.2832 117.334 93.5243 117.294 96.806L117.24 96.7764Z"
        fill="#EBC0BB" />
    <path
        d="M115.843 89.4309C112.62 90.5379 111.287 93.9819 111.144 99.8072C112.792 101.337 118.214 100.831 118.214 100.831C118.214 100.831 119.193 92.004 115.843 89.4309Z"
        fill="#407BFF" />
    <path
        d="M150.568 123.92V125.46C150.568 125.859 150.076 126.021 149.702 126.021H118.652C118.253 126.021 117.771 125.859 117.771 125.46V123.905L150.568 123.92Z"
        fill="#263238" />
    <path opacity="0.4"
        d="M150.568 123.92V125.46C150.568 125.859 150.076 126.021 149.702 126.021H118.652C118.253 126.021 117.771 125.859 117.771 125.46V123.905L150.568 123.92Z"
        fill="white" />
    <path opacity="0.2"
        d="M150.568 123.92V125.46C150.568 125.859 150.076 126.021 149.702 126.021H129.225C128.827 126.021 128.354 125.859 128.354 125.46V123.905L150.568 123.92Z"
        fill="black" />
    <path
        d="M155.764 107.792L152.064 124.555C151.998 124.825 151.845 125.065 151.627 125.238C151.41 125.411 151.141 125.506 150.863 125.509H130.691C130.566 125.506 130.443 125.473 130.332 125.414C130.222 125.355 130.126 125.272 130.052 125.17C129.979 125.068 129.93 124.951 129.91 124.827C129.889 124.703 129.897 124.576 129.934 124.456L133.629 107.817C133.703 107.564 133.863 107.344 134.081 107.194C134.298 107.044 134.561 106.974 134.824 106.995H155.021C155.552 106.995 155.882 107.256 155.764 107.792Z"
        fill="#263238" />
    <path opacity="0.4"
        d="M155.764 107.792L152.064 124.555C151.998 124.825 151.845 125.065 151.627 125.238C151.41 125.411 151.141 125.506 150.863 125.509H131.361C131.235 125.506 131.111 125.474 131 125.416C130.888 125.357 130.792 125.274 130.718 125.172C130.644 125.07 130.595 124.952 130.574 124.828C130.553 124.704 130.562 124.577 130.598 124.456L134.293 107.817C134.368 107.563 134.528 107.342 134.747 107.192C134.966 107.043 135.229 106.973 135.493 106.995H155.001C155.552 106.995 155.882 107.256 155.764 107.792Z"
        fill="white" />
    <path opacity="0.2"
        d="M145.806 116.314C145.806 117.745 144.266 118.911 143.139 118.911C142.012 118.911 141.343 117.745 141.663 116.314C141.983 114.882 143.109 113.755 144.212 113.716C143.892 115.148 144.581 116.314 145.688 116.314H145.806Z"
        fill="black" />
</svg>
