<svg width="390" height="35" viewBox="0 0 390 35" fill="none" xmlns="http://www.w3.org/2000/svg">
<path d="M55 20.5C46.5 20.1667 0 17 0 17V35H390V34.5C384 30.1 362.833 19.3334 353 14.5C344.6 9.70003 331.793 5.84187 317.5 3.00006C297 -1.07583 284.863 0.233597 264 1.50004C243.906 2.7198 228.5 6.1667 213 9.00004C211.4 9.40004 201.667 11.1667 197 12C190.6 13.2 182.333 14.5 179 15C171.8 16.2 165.006 17.0339 156 18C146.649 19.0031 132 20 132 20C132 20 117.167 20.8334 111 21C110.5 21 93.5 21.5 87 21.5C81.8 21.5 63.5 20.8334 55 20.5Z" fill="#0961F5" fill-opacity="0.75"/>
</svg>
