<svg width="257" height="172" viewBox="0 0 257 172" fill="none" xmlns="http://www.w3.org/2000/svg">
    <path opacity="0.1"
        d="M149.018 29.0831C132.629 28.5157 117.018 23.2478 102.113 17.4832C87.2086 11.7185 72.4457 5.331 56.4495 2.27719C46.161 0.312768 34.3937 0.0353788 26.1057 5.52769C18.1266 10.8233 15.5488 19.9393 14.1637 28.4073C13.1204 34.7771 12.5076 41.4799 15.3665 47.4438C17.3492 51.5844 20.8716 55.0644 23.305 59.0437C31.7804 72.8425 25.7917 89.8591 16.6073 103.333C12.3025 109.655 7.30128 115.689 3.97898 122.412C0.656686 129.135 -0.882915 136.849 2.0241 143.713C4.90832 150.522 11.7783 155.626 19.218 159.219C34.3329 166.519 52.1371 168.607 69.5108 169.79C107.958 172.41 146.607 171.275 185.156 170.141C199.422 169.72 213.75 169.293 227.783 167.097C235.578 165.876 243.623 163.942 249.282 159.267C256.464 153.333 258.244 143.284 253.432 135.845C245.357 123.365 223.046 120.266 217.394 106.871C214.289 99.4997 217.48 91.2889 221.992 84.45C231.675 69.7837 247.905 56.9153 248.76 40.1509C249.348 28.6342 241.544 17.1049 229.48 11.6555C216.836 5.9236 199.298 6.64985 189.974 16.1038C180.367 25.8452 163.487 29.5824 149.018 29.0831Z"
        fill="#4587F6" />
    <path d="M243 149.949H14V150.064H243V149.949Z" fill="#EBEBEB" />
    <path d="M220.054 157.318H204.885V157.433H220.054V157.318Z" fill="#EBEBEB" />
    <path d="M165.699 158.564H161.719V158.679H165.699V158.564Z" fill="#EBEBEB" />
    <path d="M204.427 153.068H195.638V153.183H204.427V153.068Z" fill="#EBEBEB" />
    <path d="M57.8079 153.838H38.0269V153.952H57.8079V153.838Z" fill="#EBEBEB" />
    <path d="M64.7876 153.838H61.8884V153.952H64.7876V153.838Z" fill="#EBEBEB" />
    <path d="M117.119 155.77H74.2134V155.885H117.119V155.77Z" fill="#EBEBEB" />
    <path
        d="M122.546 129.522H34.1108C33.418 129.521 32.754 129.245 32.2646 128.755C31.7751 128.265 31.5002 127.6 31.5002 126.907V2.59234C31.5063 1.90352 31.7838 1.2449 32.2726 0.759525C32.7614 0.274155 33.422 0.00124102 34.1108 6.10352e-05H122.546C123.24 6.10352e-05 123.905 0.275588 124.395 0.76603C124.886 1.25647 125.161 1.92165 125.161 2.61524V126.907C125.161 127.601 124.886 128.266 124.395 128.757C123.905 129.247 123.24 129.522 122.546 129.522ZM34.1108 0.0916614C33.4484 0.0928746 32.8135 0.356873 32.3456 0.82571C31.8776 1.29455 31.6147 1.92991 31.6147 2.59234V126.907C31.6147 127.57 31.8776 128.205 32.3456 128.674C32.8135 129.143 33.4484 129.407 34.1108 129.408H122.546C123.209 129.407 123.844 129.143 124.313 128.674C124.782 128.205 125.046 127.57 125.047 126.907V2.59234C125.046 1.92949 124.782 1.29414 124.313 0.82543C123.844 0.356724 123.209 0.0928721 122.546 0.0916614H34.1108Z"
        fill="#EBEBEB" />
    <path
        d="M221.616 129.522H133.176C132.483 129.521 131.818 129.245 131.328 128.755C130.838 128.265 130.562 127.601 130.561 126.907V2.59234C130.568 1.9031 130.847 1.24448 131.336 0.759239C131.826 0.273995 132.487 0.00122815 133.176 6.10352e-05H221.616C222.304 0.00244469 222.963 0.275891 223.451 0.761132C223.939 1.24637 224.216 1.90431 224.222 2.59234V126.907C224.222 127.599 223.948 128.263 223.459 128.753C222.971 129.243 222.308 129.52 221.616 129.522ZM133.176 0.0916614C132.513 0.0928721 131.878 0.356724 131.409 0.82543C130.94 1.29414 130.677 1.92949 130.675 2.59234V126.907C130.677 127.57 130.94 128.205 131.409 128.674C131.878 129.143 132.513 129.407 133.176 129.408H221.616C222.279 129.407 222.914 129.143 223.383 128.674C223.851 128.205 224.115 127.57 224.116 126.907V2.59234C224.115 1.92949 223.851 1.29414 223.383 0.82543C222.914 0.356724 222.279 0.0928721 221.616 0.0916614H133.176Z"
        fill="#EBEBEB" />
    <path
        d="M202.458 134.107C202.458 134.107 198.94 127.237 202.962 120.431C206.983 113.625 208.146 112.041 205.581 110.648C203.017 109.256 201.844 116.08 201.844 116.08C201.844 116.08 199.682 111.386 201.469 106.462C203.255 101.539 204.372 93.5465 201.927 92.6901C199.481 91.8336 201.469 102.67 199.343 106.366C199.343 106.366 197.571 102.244 197.278 98.3052C196.985 94.3664 197.443 88.0597 195.519 86.4429C193.595 84.8262 192.359 85.9483 194.25 94.6549C195.386 99.8426 196.015 105.128 196.128 110.438C196.128 110.438 191.951 99.015 189.148 98.6853C186.345 98.3555 186.35 102.052 188.75 105.258C191.15 108.464 195.776 114.216 196.536 117.166C196.536 117.166 191.956 108.574 187.834 111.212C183.712 113.85 191.425 119.039 194.864 120.912C198.304 122.785 200.685 134.551 200.685 134.551L202.458 134.107Z"
        fill="#E0E0E0" />
    <path
        d="M199.678 136.942C199.678 136.942 203.108 130.008 198.995 123.271C194.883 116.534 193.696 114.953 196.247 113.529C198.798 112.105 200.058 118.911 200.058 118.911C200.058 118.911 202.156 114.184 200.305 109.293C198.455 104.401 197.232 96.4182 199.655 95.5297C202.078 94.6412 200.255 105.505 202.403 109.169C202.403 109.169 204.125 105.047 204.363 101.085C204.601 97.1235 204.061 90.8398 205.966 89.2001C207.871 87.5605 209.113 88.6597 207.34 97.3892C206.275 102.593 205.717 107.888 205.673 113.199C205.673 113.199 209.699 101.722 212.497 101.351C215.296 100.98 215.341 104.681 212.983 107.919C210.624 111.157 206.076 116.969 205.357 119.937C205.357 119.937 209.827 111.28 213.986 113.859C218.144 116.437 210.5 121.732 207.088 123.655C203.676 125.579 201.446 137.368 201.446 137.368L199.678 136.942Z"
        fill="#E6E6E6" />
    <path d="M215.488 131.991H187.174L189.464 150.165H213.198L215.488 131.991Z" fill="#F0F0F0" />
    <path d="M164.984 16.9735H113.404V74.0495H164.984V16.9735Z" fill="#E9E9E9" />
    <path d="M162.85 19.2361H115.676V71.9061H162.85V19.2361Z" fill="#F4F4F4" />
    <path d="M129.008 19.2361L115.676 69.1672V42.1361L121.777 19.2361H129.008Z" fill="white" />
    <path d="M134.967 19.2361L120.906 71.9061H118.255L132.315 19.2361H134.967Z" fill="white" />
    <path d="M162.85 33.5989V60.6347L159.864 71.9061H152.632L162.85 33.5989Z" fill="white" />
    <path d="M140.11 16.9735H138.278V74.0495H140.11V16.9735Z" fill="#E9E9E9" />
    <path d="M163.995 28.5563H114.302V30.3883H163.995V28.5563Z" fill="#E9E9E9" />
    <path d="M94.4523 16.9735H42.8723V74.0495H94.4523V16.9735Z" fill="#E9E9E9" />
    <path d="M92.318 19.2361H45.144V71.9061H92.318V19.2361Z" fill="#F4F4F4" />
    <path d="M58.4764 19.2361L45.144 69.1672V42.1361L51.2446 19.2361H58.4764Z" fill="white" />
    <path d="M64.4351 19.2361L50.3745 71.9061H47.7227L61.7833 19.2361H64.4351Z" fill="white" />
    <path d="M92.3181 33.5989V60.6347L89.3319 71.9061H82.1001L92.3181 33.5989Z" fill="white" />
    <path d="M69.5781 16.9735H67.7461V74.0495H69.5781V16.9735Z" fill="#E9E9E9" />
    <path d="M93.463 28.5563H43.77V30.3883H93.463V28.5563Z" fill="#E9E9E9" />
    <path
        d="M128.5 170.633C177.544 170.633 217.301 168.311 217.301 165.448C217.301 162.585 177.544 160.263 128.5 160.263C79.4561 160.263 39.6982 162.585 39.6982 165.448C39.6982 168.311 79.4561 170.633 128.5 170.633Z"
        fill="#F5F5F5" />
    <path
        d="M188.8 150.164H118.502C118.081 150.171 117.664 150.089 117.277 149.923C116.89 149.756 116.543 149.511 116.258 149.201C115.973 148.891 115.757 148.525 115.623 148.126C115.49 147.727 115.442 147.304 115.484 146.885L124.346 33.1913C124.426 32.3053 124.831 31.4802 125.483 30.8748C126.135 30.2694 126.988 29.9265 127.877 29.912H198.171C198.592 29.9055 199.01 29.988 199.396 30.154C199.783 30.32 200.131 30.5658 200.416 30.8754C200.701 31.1849 200.918 31.5512 201.052 31.9503C201.186 32.3494 201.234 32.7723 201.194 33.1913L192.332 146.885C192.25 147.771 191.845 148.595 191.193 149.201C190.542 149.806 189.69 150.149 188.8 150.164Z"
        fill="#2E353A" />
    <path opacity="0.2"
        d="M188.8 150.164H118.502C118.081 150.171 117.664 150.089 117.277 149.923C116.89 149.756 116.543 149.511 116.258 149.201C115.973 148.891 115.757 148.525 115.623 148.126C115.49 147.727 115.442 147.304 115.484 146.885L124.346 33.1913C124.426 32.3053 124.831 31.4802 125.483 30.8748C126.135 30.2694 126.988 29.9265 127.877 29.912H198.171C198.592 29.9055 199.01 29.988 199.396 30.154C199.783 30.32 200.131 30.5658 200.416 30.8754C200.701 31.1849 200.918 31.5512 201.052 31.9503C201.186 32.3494 201.234 32.7723 201.194 33.1913L192.332 146.885C192.25 147.771 191.845 148.595 191.193 149.201C190.542 149.806 189.69 150.149 188.8 150.164Z"
        fill="white" />
    <path
        d="M179.278 37.3454H145.615C145.468 37.348 145.322 37.3195 145.187 37.2617C145.051 37.2039 144.93 37.1181 144.83 37.01C144.73 36.9019 144.654 36.7738 144.607 36.6343C144.56 36.4948 144.543 36.3469 144.557 36.2004L145.075 29.5548C145.103 29.2445 145.245 28.9555 145.473 28.7433C145.701 28.5311 146 28.4107 146.312 28.4052H179.975C180.122 28.4032 180.268 28.4323 180.403 28.4907C180.538 28.549 180.659 28.6353 180.759 28.7439C180.858 28.8524 180.934 28.9808 180.98 29.1206C181.027 29.2603 181.043 29.4083 181.028 29.5548L180.51 36.1821C180.487 36.4945 180.347 36.7868 180.119 37.0019C179.891 37.217 179.592 37.3395 179.278 37.3454Z"
        fill="#407BFF" />
    <path opacity="0.2"
        d="M179.278 37.3454H145.615C145.468 37.348 145.322 37.3195 145.187 37.2617C145.051 37.2039 144.93 37.1181 144.83 37.01C144.73 36.9019 144.654 36.7738 144.607 36.6343C144.56 36.4948 144.543 36.3469 144.557 36.2004L145.075 29.5548C145.103 29.2445 145.245 28.9555 145.473 28.7433C145.701 28.5311 146 28.4107 146.312 28.4052H179.975C180.122 28.4032 180.268 28.4323 180.403 28.4907C180.538 28.549 180.659 28.6353 180.759 28.7439C180.858 28.8524 180.934 28.9808 180.98 29.1206C181.027 29.2603 181.043 29.4083 181.028 29.5548L180.51 36.1821C180.487 36.4945 180.347 36.7868 180.119 37.0019C179.891 37.217 179.592 37.3395 179.278 37.3454Z"
        fill="black" />
    <path
        d="M165.598 30.4708H160.331L160.537 27.8327C160.601 27.1213 160.927 26.4588 161.45 25.9726C161.973 25.4865 162.658 25.211 163.372 25.1992C163.71 25.1938 164.046 25.2599 164.357 25.393C164.668 25.5262 164.948 25.7235 165.177 25.9721C165.407 26.2207 165.581 26.5149 165.689 26.8355C165.797 27.1561 165.836 27.4959 165.804 27.8327L165.598 30.4708Z"
        fill="#407BFF" />
    <path opacity="0.4"
        d="M165.598 30.4708H160.331L160.537 27.8327C160.601 27.1213 160.927 26.4588 161.45 25.9726C161.973 25.4865 162.658 25.211 163.372 25.1992C163.71 25.1938 164.046 25.2599 164.357 25.393C164.668 25.5262 164.948 25.7235 165.177 25.9721C165.407 26.2207 165.581 26.5149 165.689 26.8355C165.797 27.1561 165.836 27.4959 165.804 27.8327L165.598 30.4708Z"
        fill="white" />
    <path d="M187.852 145.415H120.187L128.825 34.6569H196.485L187.852 145.415Z" fill="white" />
    <path
        d="M173.018 40.4552H151.4C151.054 40.46 150.71 40.3917 150.392 40.2547C150.073 40.1177 149.787 39.915 149.553 39.66C149.318 39.405 149.14 39.1033 149.029 38.7747C148.919 38.4461 148.88 38.098 148.913 37.753L149.188 34.2356C149.254 33.5059 149.588 32.8265 150.125 32.3278C150.662 31.829 151.364 31.5461 152.096 31.5334H173.718C174.065 31.5286 174.409 31.5969 174.728 31.7339C175.046 31.8709 175.332 32.0734 175.567 32.3284C175.802 32.5833 175.981 32.8849 176.092 33.2135C176.203 33.5421 176.243 33.8904 176.21 34.2356L175.935 37.753C175.867 38.4835 175.531 39.163 174.993 39.6615C174.454 40.1601 173.751 40.4426 173.018 40.4552ZM152.014 32.4539C151.531 32.4621 151.067 32.6485 150.713 32.9773C150.359 33.3062 150.139 33.7543 150.095 34.2356L149.82 37.753C149.797 37.9808 149.823 38.2107 149.896 38.4278C149.968 38.6449 150.085 38.8443 150.24 39.0129C150.395 39.1815 150.584 39.3156 150.794 39.4063C151.004 39.497 151.231 39.5423 151.46 39.5392H173.086C173.571 39.531 174.035 39.3442 174.39 39.0145C174.745 38.6848 174.966 38.2355 175.01 37.753L175.285 34.2356C175.306 34.0079 175.279 33.7784 175.206 33.5618C175.133 33.3452 175.015 33.1465 174.86 32.9785C174.705 32.8105 174.516 32.677 174.306 32.5866C174.096 32.4962 173.869 32.451 173.641 32.4539H152.014Z"
        fill="#407BFF" />
    <g opacity="0.4">
        <path
            d="M173.018 40.4552H151.4C151.054 40.46 150.71 40.3917 150.392 40.2547C150.073 40.1177 149.787 39.915 149.553 39.66C149.318 39.405 149.14 39.1033 149.029 38.7747C148.919 38.4461 148.88 38.098 148.913 37.753L149.188 34.2356C149.254 33.5059 149.588 32.8265 150.125 32.3278C150.662 31.829 151.364 31.5461 152.096 31.5334H173.718C174.065 31.5286 174.409 31.5969 174.728 31.7339C175.046 31.8709 175.332 32.0734 175.567 32.3284C175.802 32.5833 175.981 32.8849 176.092 33.2135C176.203 33.5421 176.243 33.8904 176.21 34.2356L175.935 37.753C175.867 38.4835 175.531 39.163 174.993 39.6615C174.454 40.1601 173.751 40.4426 173.018 40.4552ZM152.014 32.4539C151.531 32.4621 151.067 32.6485 150.713 32.9773C150.359 33.3062 150.139 33.7543 150.095 34.2356L149.82 37.753C149.797 37.9808 149.823 38.2107 149.896 38.4278C149.968 38.6449 150.085 38.8443 150.24 39.0129C150.395 39.1815 150.584 39.3156 150.794 39.4063C151.004 39.497 151.231 39.5423 151.46 39.5392H173.086C173.571 39.531 174.035 39.3442 174.39 39.0145C174.745 38.6848 174.966 38.2355 175.01 37.753L175.285 34.2356C175.306 34.0079 175.279 33.7784 175.206 33.5618C175.133 33.3452 175.015 33.1465 174.86 32.9785C174.705 32.8105 174.516 32.677 174.306 32.5866C174.096 32.4962 173.869 32.451 173.641 32.4539H152.014Z"
            fill="white" />
    </g>
    <path
        d="M171.9 33.5623H153.58C153.499 33.5639 153.419 33.5485 153.344 33.5169C153.27 33.4853 153.203 33.4384 153.148 33.3791C153.093 33.3198 153.052 33.2496 153.026 33.173C153 33.0964 152.99 33.0153 152.998 32.9348L153.14 31.1028C153.157 30.9327 153.236 30.7747 153.362 30.659C153.488 30.5433 153.652 30.4779 153.823 30.4754H172.143C172.223 30.4736 172.303 30.4891 172.378 30.5207C172.452 30.5523 172.518 30.5993 172.573 30.6587C172.628 30.7181 172.669 30.7884 172.694 30.8649C172.72 30.9415 172.728 31.0226 172.72 31.1028L172.578 32.9348C172.562 33.1046 172.484 33.2625 172.359 33.3783C172.234 33.4941 172.07 33.5596 171.9 33.5623Z"
        fill="#407BFF" />
    <path d="M187.412 50.8381H136.116L136.552 45.2413H187.848L187.412 50.8381Z" fill="#407BFF" />
    <path d="M166.651 58.6286H132.503L132.617 57.1859H166.766L166.651 58.6286Z" fill="#407BFF" />
    <path d="M166.331 62.7964H132.182L132.292 61.3491H166.441L166.331 62.7964Z" fill="#407BFF" />
    <path d="M166.006 66.9642H131.857L131.967 65.5169H166.116L166.006 66.9642Z" fill="#407BFF" />
    <path d="M165.68 71.1274H131.532L131.642 69.6847H165.79L165.68 71.1274Z" fill="#407BFF" />
    <path d="M188.086 71.1275H174.154L175.244 57.1859H189.176L188.086 71.1275Z" fill="#407BFF" />
    <path
        d="M184.229 62.3613C184.294 61.5461 183.662 60.9873 182.517 60.9873C182.072 60.9661 181.629 61.0458 181.219 61.2203C180.81 61.3948 180.446 61.6596 180.153 61.9949L179.274 61.3308C179.701 60.8543 180.229 60.4788 180.819 60.2316C181.409 59.9845 182.047 59.8718 182.686 59.9018C184.518 59.9018 185.645 60.7583 185.53 62.1918C185.365 64.3215 183.098 64.4818 182.97 66.1352H181.692C181.852 64.12 184.115 63.8269 184.229 62.3613ZM181.353 68.1917C181.37 67.9632 181.475 67.7503 181.646 67.598C181.817 67.4458 182.04 67.3663 182.269 67.3764C182.375 67.3723 182.48 67.3912 182.577 67.4316C182.674 67.472 182.762 67.5331 182.833 67.6106C182.904 67.6882 182.958 67.7803 182.991 67.8806C183.023 67.9809 183.033 68.087 183.02 68.1917C183.003 68.4132 182.903 68.6201 182.74 68.7712C182.577 68.9223 182.363 69.0064 182.141 69.0069C182.033 69.0149 181.925 68.9991 181.824 68.9606C181.723 68.922 181.631 68.8617 181.556 68.7839C181.481 68.7061 181.424 68.6127 181.389 68.5104C181.354 68.408 181.342 68.2992 181.353 68.1917Z"
        fill="white" />
    <path d="M165.007 79.7287H130.859L130.973 78.2814H165.122L165.007 79.7287Z" fill="#407BFF" />
    <path d="M164.682 83.8919H130.533L130.648 82.4492H164.796L164.682 83.8919Z" fill="#407BFF" />
    <path d="M164.361 88.0597H130.213L130.323 86.617H164.471L164.361 88.0597Z" fill="#407BFF" />
    <path d="M164.036 92.2275H129.888L129.998 90.7802H164.146L164.036 92.2275Z" fill="#407BFF" />
    <path d="M186.442 92.2275H172.509L173.595 78.2814H187.527L186.442 92.2275Z" fill="#407BFF" />
    <path
        d="M182.585 83.4614C182.649 82.6416 182.017 82.0874 180.872 82.0874C180.428 82.0662 179.984 82.1459 179.575 82.3204C179.166 82.4948 178.801 82.7597 178.509 83.095L177.63 82.44C178.056 81.9627 178.584 81.5867 179.174 81.3395C179.764 81.0923 180.402 80.9801 181.042 81.0111C182.874 81.0111 184 81.8675 183.886 83.3011C183.721 85.4308 181.454 85.5911 181.326 87.2445H180.048C180.204 85.188 182.471 84.927 182.585 83.4614ZM179.709 89.31C179.724 89.0849 179.825 88.8742 179.992 88.7216C180.158 88.569 180.376 88.4862 180.602 88.4902C180.708 88.486 180.813 88.505 180.911 88.5457C181.009 88.5864 181.096 88.6479 181.168 88.7259C181.239 88.804 181.293 88.8967 181.325 88.9975C181.357 89.0984 181.367 89.2051 181.353 89.31C181.335 89.5312 181.235 89.7375 181.072 89.8884C180.909 90.0392 180.696 90.1237 180.474 90.1253C180.368 90.1298 180.262 90.1115 180.164 90.0714C180.065 90.0313 179.977 89.9705 179.904 89.8931C179.832 89.8157 179.777 89.7235 179.743 89.6229C179.709 89.5223 179.698 89.4156 179.709 89.31Z"
        fill="white" />
    <path d="M163.363 100.824H129.214L129.329 99.3814H163.477L163.363 100.824Z" fill="#407BFF" />
    <path d="M163.038 104.992H128.889L129.004 103.545H163.152L163.038 104.992Z" fill="#407BFF" />
    <path d="M162.713 109.16H128.569L128.679 107.713H162.827L162.713 109.16Z" fill="#407BFF" />
    <path d="M162.392 113.323H128.244L128.354 111.88H162.502L162.392 113.323Z" fill="#407BFF" />
    <path d="M184.797 113.323H170.865L171.95 99.3814H185.883L184.797 113.323Z" fill="#407BFF" />
    <path
        d="M180.941 104.557C181.005 103.742 180.373 103.183 179.224 103.183C178.78 103.162 178.337 103.242 177.929 103.416C177.52 103.591 177.157 103.856 176.865 104.19L175.986 103.508C176.412 103.031 176.94 102.655 177.53 102.408C178.12 102.16 178.758 102.048 179.398 102.079C181.23 102.079 182.352 102.931 182.242 104.346C182.077 106.48 179.81 106.636 179.682 108.29H178.422C178.56 106.306 180.827 106.022 180.941 104.557ZM178.065 110.378C178.081 110.154 178.183 109.944 178.349 109.793C178.515 109.641 178.733 109.559 178.958 109.563C179.063 109.559 179.168 109.578 179.266 109.618C179.363 109.658 179.45 109.72 179.522 109.797C179.593 109.875 179.647 109.967 179.679 110.067C179.712 110.167 179.722 110.273 179.709 110.378C179.692 110.6 179.592 110.807 179.429 110.958C179.266 111.109 179.052 111.193 178.83 111.193C178.724 111.199 178.617 111.181 178.519 111.141C178.42 111.101 178.331 111.04 178.259 110.963C178.186 110.885 178.131 110.793 178.097 110.692C178.064 110.591 178.053 110.484 178.065 110.378Z"
        fill="white" />
    <path d="M161.719 121.924H127.57L127.685 120.477H161.833L161.719 121.924Z" fill="#407BFF" />
    <path d="M161.394 126.092H127.245L127.36 124.645H161.508L161.394 126.092Z" fill="#407BFF" />
    <path d="M161.068 130.255H126.92L127.034 128.813H161.183L161.068 130.255Z" fill="#407BFF" />
    <path d="M160.743 134.423H126.595L126.709 132.976H160.858L160.743 134.423Z" fill="#407BFF" />
    <path d="M183.153 134.423H169.221L170.306 120.477H184.239L183.153 134.423Z" fill="#407BFF" />
    <path
        d="M179.297 125.657C179.361 124.837 178.729 124.283 177.579 124.283C177.136 124.262 176.693 124.342 176.284 124.516C175.876 124.691 175.512 124.955 175.221 125.291L174.341 124.626C174.768 124.149 175.295 123.773 175.886 123.526C176.476 123.279 177.114 123.166 177.753 123.197C179.585 123.197 180.708 124.054 180.598 125.487C180.433 127.617 178.166 127.778 178.037 129.431H176.76C176.915 127.402 179.182 127.123 179.297 125.657ZM176.421 131.487C176.436 131.262 176.537 131.051 176.703 130.899C176.87 130.746 177.088 130.663 177.314 130.667C177.419 130.663 177.525 130.682 177.623 130.723C177.72 130.764 177.808 130.825 177.879 130.903C177.951 130.981 178.005 131.074 178.037 131.175C178.069 131.276 178.078 131.382 178.065 131.487C178.047 131.708 177.946 131.915 177.783 132.066C177.621 132.216 177.407 132.301 177.185 132.303C177.079 132.307 176.974 132.289 176.875 132.249C176.777 132.209 176.689 132.148 176.616 132.07C176.543 131.993 176.488 131.901 176.455 131.8C176.421 131.7 176.409 131.593 176.421 131.487Z"
        fill="white" />
    <path opacity="0.7" d="M187.412 50.8381H136.116L136.552 45.2413H187.848L187.412 50.8381Z"
        fill="white" />
    <path opacity="0.7" d="M166.651 58.6286H132.503L132.617 57.1859H166.766L166.651 58.6286Z"
        fill="white" />
    <path opacity="0.7" d="M166.331 62.7964H132.182L132.292 61.3491H166.441L166.331 62.7964Z"
        fill="white" />
    <path opacity="0.7" d="M166.006 66.9642H131.857L131.967 65.5169H166.116L166.006 66.9642Z"
        fill="white" />
    <path opacity="0.7" d="M165.68 71.1274H131.532L131.642 69.6847H165.79L165.68 71.1274Z"
        fill="white" />
    <path opacity="0.7" d="M188.086 71.1275H174.154L175.244 57.1859H189.176L188.086 71.1275Z"
        fill="white" />
    <path opacity="0.7" d="M165.007 79.7287H130.859L130.973 78.2814H165.122L165.007 79.7287Z"
        fill="white" />
    <path opacity="0.7" d="M164.682 83.8919H130.533L130.648 82.4492H164.796L164.682 83.8919Z"
        fill="white" />
    <path opacity="0.7" d="M164.361 88.0597H130.213L130.323 86.617H164.471L164.361 88.0597Z"
        fill="white" />
    <path opacity="0.7" d="M164.036 92.2275H129.888L129.998 90.7802H164.146L164.036 92.2275Z"
        fill="white" />
    <path opacity="0.7" d="M186.442 92.2275H172.509L173.595 78.2814H187.527L186.442 92.2275Z"
        fill="white" />
    <path opacity="0.7" d="M163.363 100.824H129.214L129.329 99.3814H163.477L163.363 100.824Z"
        fill="white" />
    <path opacity="0.7" d="M163.038 104.992H128.889L129.004 103.545H163.152L163.038 104.992Z"
        fill="white" />
    <path opacity="0.7" d="M162.713 109.16H128.569L128.679 107.713H162.827L162.713 109.16Z"
        fill="white" />
    <path opacity="0.7" d="M162.392 113.323H128.244L128.354 111.88H162.502L162.392 113.323Z"
        fill="white" />
    <path opacity="0.7" d="M184.797 113.323H170.865L171.95 99.3814H185.883L184.797 113.323Z"
        fill="white" />
    <path opacity="0.7" d="M161.719 121.924H127.57L127.685 120.477H161.833L161.719 121.924Z"
        fill="white" />
    <path opacity="0.7" d="M161.394 126.092H127.245L127.36 124.645H161.508L161.394 126.092Z"
        fill="white" />
    <path opacity="0.7" d="M161.068 130.255H126.92L127.034 128.813H161.183L161.068 130.255Z"
        fill="white" />
    <path opacity="0.7" d="M160.743 134.423H126.595L126.709 132.976H160.858L160.743 134.423Z"
        fill="white" />
    <path opacity="0.7" d="M183.153 134.423H169.221L170.306 120.477H184.239L183.153 134.423Z"
        fill="white" />
    <path
        d="M105.6 92.516V105.129C105.603 107.616 104.643 110.008 102.921 111.802L91.1501 124.118H97.814L110.043 112.082C110.955 111.185 111.679 110.116 112.175 108.936C112.67 107.757 112.926 106.491 112.928 105.212V92.516H105.6Z"
        fill="#407BFF" />
    <path opacity="0.4"
        d="M112.928 92.516V105.198C112.93 105.909 112.85 106.617 112.69 107.309C112.289 109.123 111.369 110.781 110.043 112.082L97.814 124.118H91.1501L102.921 111.802C104.643 110.008 105.603 107.616 105.6 105.129V92.516H112.928Z"
        fill="white" />
    <path opacity="0.2"
        d="M112.928 92.516V105.198C112.93 105.909 112.85 106.617 112.69 107.309L105.6 104.447V92.516H112.928Z"
        fill="black" />
    <path
        d="M86.5197 125.492L76.6544 163.075C76.566 163.418 76.3665 163.721 76.0871 163.937C75.8077 164.153 75.4643 164.271 75.1109 164.271H57.4825C57.3373 164.27 57.1942 164.237 57.064 164.172C56.9338 164.108 56.82 164.015 56.7314 163.9C56.6424 163.785 56.5812 163.652 56.5526 163.509C56.524 163.367 56.5288 163.22 56.5665 163.08L66.4364 125.492H64.5403L54.7941 162.613C54.6873 163.024 54.6759 163.455 54.7609 163.871C54.8458 164.288 55.0248 164.679 55.2842 165.016C55.5436 165.352 55.8765 165.625 56.2575 165.814C56.6385 166.002 57.0575 166.101 57.4825 166.103H75.1109C75.8688 166.102 76.6052 165.851 77.2051 165.388C77.805 164.924 78.2346 164.276 78.4269 163.543L88.4113 125.492H86.5197Z"
        fill="#407BFF" />
    <g opacity="0.4">
        <path
            d="M86.5197 125.492L76.6544 163.075C76.566 163.418 76.3665 163.721 76.0871 163.937C75.8077 164.153 75.4643 164.271 75.1109 164.271H57.4825C57.3373 164.27 57.1942 164.237 57.064 164.172C56.9338 164.108 56.82 164.015 56.7314 163.9C56.6424 163.785 56.5812 163.652 56.5526 163.509C56.524 163.367 56.5288 163.22 56.5665 163.08L66.4364 125.492H64.5403L54.7941 162.613C54.6873 163.024 54.6759 163.455 54.7609 163.871C54.8458 164.288 55.0248 164.679 55.2842 165.016C55.5436 165.352 55.8765 165.625 56.2575 165.814C56.6385 166.002 57.0575 166.101 57.4825 166.103H75.1109C75.8688 166.102 76.6052 165.851 77.2051 165.388C77.805 164.924 78.2346 164.276 78.4269 163.543L88.4113 125.492H86.5197Z"
            fill="white" />
    </g>
    <path d="M90.5547 166.103L79.7688 124.974L77.9963 125.437L88.6586 166.103H90.5547Z"
        fill="#407BFF" />
    <path d="M112.539 166.103L101.753 124.974L99.9802 125.437L110.642 166.103H112.539Z"
        fill="#407BFF" />
    <g opacity="0.5">
        <path d="M90.5547 166.103L79.7688 124.974L77.9963 125.437L88.6586 166.103H90.5547Z"
            fill="white" />
    </g>
    <g opacity="0.5">
        <path d="M112.539 166.103L101.753 124.974L99.9802 125.437L110.642 166.103H112.539Z"
            fill="white" />
    </g>
    <path opacity="0.2" d="M64.5404 125.492H66.4365L64.948 131.157L63.1938 130.622L64.5404 125.492Z"
        fill="black" />
    <path opacity="0.2"
        d="M79.7688 124.974L82.2191 134.322L80.1627 133.699L77.9963 125.437L79.7688 124.974Z"
        fill="black" />
    <path opacity="0.2"
        d="M86.5198 125.492H88.4113L85.3061 137.354L83.5474 136.818L86.5198 125.492Z"
        fill="black" />
    <path opacity="0.2"
        d="M106.081 141.591L104.015 140.959L99.9802 125.552L101.753 125.048L106.081 141.591Z"
        fill="black" />
    <path
        d="M62.8686 126.119L54.304 79.7561L54.1895 79.0554C54.1049 78.6223 54.1164 78.1759 54.2232 77.7478C54.33 77.3196 54.5296 76.9202 54.8078 76.5776C55.0765 76.2559 55.4138 75.9984 55.795 75.824C56.1762 75.6496 56.5916 75.5629 57.0108 75.57H75.5506C76.4305 75.6133 77.271 75.9483 77.9394 76.5222C78.6078 77.0961 79.0661 77.8762 79.2421 78.7394L79.3795 79.5226L87.9395 125.781L86.135 126.11L77.5475 79.7149L77.4376 79.0646C77.3422 78.6221 77.1075 78.2218 76.7679 77.9225C76.4282 77.6233 76.0016 77.4409 75.5506 77.402H56.9924C56.842 77.3962 56.6921 77.4245 56.5541 77.4848C56.4161 77.545 56.2935 77.6357 56.1955 77.7501C56.0886 77.8897 56.0134 78.051 55.9755 78.2227C55.9375 78.3944 55.9376 78.5723 55.9757 78.744L56.1039 79.5134L64.6731 125.771L62.8686 126.119Z"
        fill="#407BFF" />
    <g opacity="0.5">
        <path
            d="M62.8686 126.119L54.304 79.7561L54.1895 79.0554C54.1049 78.6223 54.1164 78.1759 54.2232 77.7478C54.33 77.3196 54.5296 76.9202 54.8078 76.5776C55.0765 76.2559 55.4138 75.9984 55.795 75.824C56.1762 75.6496 56.5916 75.5629 57.0108 75.57H75.5506C76.4305 75.6133 77.271 75.9483 77.9394 76.5222C78.6078 77.0961 79.0661 77.8762 79.2421 78.7394L79.3795 79.5226L87.9395 125.781L86.135 126.11L77.5475 79.7149L77.4376 79.0646C77.3422 78.6221 77.1075 78.2218 76.7679 77.9225C76.4282 77.6233 76.0016 77.4409 75.5506 77.402H56.9924C56.842 77.3962 56.6921 77.4245 56.5541 77.4848C56.4161 77.545 56.2935 77.6357 56.1955 77.7501C56.0886 77.8897 56.0134 78.051 55.9755 78.2227C55.9375 78.3944 55.9376 78.5723 55.9757 78.744L56.1039 79.5134L64.6731 125.771L62.8686 126.119Z"
            fill="white" />
    </g>
    <path
        d="M66.6152 121.521H101.849C102.456 121.521 103.039 121.762 103.468 122.192C103.898 122.621 104.139 123.204 104.139 123.811V126.866H64.3252V123.802C64.3276 123.196 64.57 122.616 64.9992 122.189C65.4283 121.761 66.0094 121.521 66.6152 121.521Z"
        fill="#407BFF" />
    <path
        d="M104.688 124.2H63.7753C63.2669 124.2 62.8547 124.613 62.8547 125.121V125.955C62.8547 126.463 63.2669 126.875 63.7753 126.875H104.688C105.197 126.875 105.609 126.463 105.609 125.955V125.121C105.609 124.613 105.197 124.2 104.688 124.2Z"
        fill="#407BFF" />
    <path opacity="0.6"
        d="M104.688 124.2H63.7753C63.2669 124.2 62.8547 124.613 62.8547 125.121V125.955C62.8547 126.463 63.2669 126.875 63.7753 126.875H104.688C105.197 126.875 105.609 126.463 105.609 125.955V125.121C105.609 124.613 105.197 124.2 104.688 124.2Z"
        fill="white" />
    <path d="M81.9351 98.47H58.655L55.1833 79.692H78.4589L81.9031 98.296L81.9351 98.47Z"
        fill="#407BFF" />
    <path
        d="M104.835 58.4546C104.835 58.4546 101.908 51.6579 101.657 50.9297C101.405 50.2014 101.702 46.5237 101.478 45.8917C101.253 45.2596 97.8551 44.8062 97.1361 44.8886C96.417 44.9711 97.0491 50.6594 97.3468 51.1083C97.735 51.5701 98.1727 51.9878 98.6521 52.3541L101.24 60.14L104.835 58.4546Z"
        fill="#B97964" />
    <path
        d="M90.028 71.2832C92.0249 71.5992 100.2 72.7809 102.028 71.5626C103.502 70.5779 99.3484 54.6166 99.3484 54.6166L103.044 53.1098C103.044 53.1098 111.824 72.4465 107.134 76.8616C104.753 79.1058 98.0568 79.6738 88.425 79.6738L90.028 71.2832Z"
        fill="#407BFF" />
    <path opacity="0.8"
        d="M90.028 71.2832C92.0249 71.5992 100.2 72.7809 102.028 71.5626C103.502 70.5779 99.3484 54.6166 99.3484 54.6166L103.044 53.1098C103.044 53.1098 111.824 72.4465 107.134 76.8616C104.753 79.1058 98.0568 79.6738 88.425 79.6738L90.028 71.2832Z"
        fill="white" />
    <path opacity="0.1"
        d="M93.4127 79.6279C91.9929 79.6692 90.4769 79.6875 88.8831 79.6875L90.2571 74.4251C91.7458 75.8536 92.8338 77.6476 93.4127 79.6279Z"
        fill="black" />
    <path d="M101.556 82.4355L111.247 92.6855" stroke="#2E353A" stroke-width="0.881044"
        stroke-miterlimit="10" />
    <path
        d="M94.6082 88.4719C94.6082 88.4719 102.005 88.2429 102.774 88.1651C103.544 88.0872 106.745 86.2552 107.432 86.1819C108.119 86.1087 109.951 89.0032 110.18 89.6902C110.409 90.3772 104.991 92.2092 104.455 92.1359C103.873 91.977 103.309 91.7559 102.774 91.4764L94.6082 92.4382V88.4719Z"
        fill="#B97964" />
    <path d="M90.2571 162.512L93.9073 162.013L94.4111 153.338L90.77 153.842L90.2571 162.512Z"
        fill="#B97964" />
    <path
        d="M94.1822 161.573L90.0602 161.312C89.9914 161.307 89.9231 161.328 89.8695 161.372C89.8158 161.415 89.7808 161.477 89.7716 161.546L89.3686 164.798C89.3573 164.968 89.4141 165.136 89.5266 165.265C89.639 165.394 89.798 165.473 89.9686 165.485C91.4067 165.553 92.0983 165.512 93.912 165.613C95.0295 165.677 97.2233 165.915 98.7576 165.764C100.292 165.613 100.104 164.101 99.4446 164.028C97.8691 163.85 95.7806 162.695 94.8005 161.816C94.627 161.669 94.4095 161.583 94.1822 161.573Z"
        fill="#2E353A" />
    <path
        d="M95.4461 162.279C95.1166 162.249 94.7911 162.185 94.4752 162.086C94.459 162.082 94.4444 162.073 94.433 162.061C94.4217 162.049 94.414 162.034 94.411 162.018C94.4101 162.001 94.4134 161.984 94.4206 161.969C94.4278 161.954 94.4387 161.94 94.4523 161.931C94.5759 161.857 95.6614 161.211 96.1011 161.413C96.1502 161.437 96.1925 161.473 96.2237 161.518C96.255 161.563 96.2743 161.615 96.2797 161.669C96.3017 161.751 96.301 161.836 96.2776 161.917C96.2542 161.998 96.2089 162.071 96.1469 162.127C95.9404 162.264 95.6904 162.318 95.4461 162.279ZM96.0278 161.587C95.7942 161.477 95.1622 161.747 94.7179 161.99C95.3683 162.16 95.8492 162.169 96.0369 162.013C96.0746 161.973 96.1015 161.925 96.1151 161.872C96.1288 161.819 96.1287 161.764 96.1148 161.711C96.1129 161.684 96.1038 161.659 96.0885 161.637C96.0731 161.615 96.0522 161.598 96.0278 161.587Z"
        fill="#407BFF" />
    <path
        d="M94.4933 162.086C94.4815 162.09 94.4685 162.09 94.4567 162.086C94.4334 162.07 94.4171 162.045 94.4109 162.018C94.4109 161.986 94.4109 160.909 94.7864 160.575C94.8382 160.532 94.8987 160.502 94.9635 160.485C95.0284 160.468 95.0962 160.466 95.162 160.479C95.2346 160.485 95.3029 160.516 95.3561 160.565C95.4092 160.615 95.4441 160.681 95.4551 160.754C95.5147 161.161 94.9193 161.894 94.5391 162.086C94.5319 162.09 94.5241 162.091 94.5162 162.091C94.5083 162.091 94.5005 162.09 94.4933 162.086ZM95.0887 160.657C95.0543 160.655 95.0198 160.66 94.9874 160.671C94.9551 160.683 94.9256 160.702 94.9009 160.726C94.6628 160.923 94.6032 161.528 94.5895 161.871C94.9448 161.611 95.1925 161.23 95.2857 160.799C95.2857 160.749 95.2536 160.685 95.1299 160.662L95.0887 160.657Z"
        fill="#407BFF" />
    <path opacity="0.2"
        d="M90.77 153.842L94.4111 153.343L94.1226 158.299L90.4861 158.619L90.77 153.842Z"
        fill="black" />
    <path
        d="M90.4038 111.528L89.5152 105.949L69.061 104.726C69.061 104.726 66.8855 116.332 68.5572 119.424C71.5387 124.942 87.6191 122.172 92.3228 122.698C89.5106 134.199 89.7855 156.673 89.7855 156.673L96.5043 157.186C96.5043 157.186 101.675 132.971 102.719 121.462C103.425 113.699 96.9898 113.891 90.4038 111.528Z"
        fill="#2E353A" />
    <path d="M88.9974 156.989L97.072 157.52L97.7635 154.062L88.8921 153.65L88.9974 156.989Z"
        fill="#407BFF" />
    <path d="M98.675 159.274L102.348 159.544L104.647 151.168L100.979 150.902L98.675 159.274Z"
        fill="#B97964" />
    <path
        d="M102.71 159.169L98.73 158.06C98.6644 158.039 98.5928 158.044 98.531 158.075C98.4692 158.106 98.4221 158.16 98.4002 158.225L97.3285 161.321C97.3056 161.404 97.2993 161.491 97.31 161.576C97.3206 161.661 97.348 161.743 97.3906 161.818C97.4332 161.892 97.4901 161.957 97.558 162.01C97.626 162.062 97.7036 162.101 97.7865 162.123C99.1605 162.485 99.8612 162.581 101.615 163.066C102.692 163.364 104.789 164.051 106.324 164.225C107.858 164.399 107.986 162.879 107.354 162.673C105.852 162.169 104.057 160.602 103.273 159.54C103.133 159.356 102.934 159.225 102.71 159.169Z"
        fill="#2E353A" />
    <path
        d="M103.8 160.126C103.481 160.03 103.173 159.898 102.884 159.732C102.869 159.726 102.856 159.715 102.848 159.701C102.839 159.687 102.836 159.67 102.838 159.654C102.839 159.637 102.845 159.621 102.855 159.608C102.865 159.594 102.878 159.583 102.893 159.576C103.026 159.531 104.226 159.118 104.611 159.416C104.655 159.449 104.69 159.493 104.713 159.543C104.735 159.594 104.744 159.65 104.739 159.705C104.745 159.791 104.726 159.878 104.685 159.954C104.643 160.03 104.581 160.093 104.505 160.135C104.277 160.22 104.026 160.217 103.8 160.126ZM104.51 159.567C104.304 159.412 103.631 159.567 103.136 159.691C103.736 159.993 104.208 160.103 104.418 159.989C104.464 159.958 104.502 159.917 104.526 159.868C104.551 159.819 104.563 159.764 104.56 159.709C104.565 159.682 104.562 159.655 104.552 159.629C104.541 159.604 104.523 159.583 104.501 159.567H104.51Z"
        fill="#407BFF" />
    <path
        d="M102.907 159.741H102.852C102.841 159.732 102.833 159.719 102.828 159.706C102.824 159.692 102.822 159.678 102.825 159.663C102.825 159.631 103.04 158.578 103.489 158.331C103.549 158.303 103.615 158.288 103.681 158.288C103.747 158.288 103.813 158.303 103.873 158.331C103.944 158.353 104.005 158.398 104.047 158.458C104.089 158.519 104.11 158.591 104.107 158.665C104.075 159.073 103.342 159.668 102.93 159.778C102.918 159.769 102.91 159.756 102.907 159.741ZM103.768 158.468C103.735 158.459 103.701 158.456 103.667 158.461C103.633 158.466 103.6 158.478 103.571 158.496C103.296 158.642 103.113 159.219 103.026 159.554C103.402 159.379 103.896 158.917 103.942 158.638C103.942 158.587 103.942 158.523 103.818 158.477L103.768 158.468Z"
        fill="#407BFF" />
    <path opacity="0.2"
        d="M100.979 150.902L104.647 151.172L103.333 155.958L99.7056 155.514L100.979 150.902Z"
        fill="black" />
    <path
        d="M105.893 155.367L99.4262 153.467C99.4262 153.467 103.31 131.675 107.203 124.118C106.91 124.022 106.521 123.898 106.04 123.756C105.174 123.495 104.025 123.17 102.673 122.794C93.2753 120.188 74.2271 115.302 74.2271 115.302L82.9291 107.181C82.9291 107.181 117.59 112.467 118.31 121.599C118.653 125.991 105.893 155.367 105.893 155.367Z"
        fill="#2E353A" />
    <path d="M98.5928 153.609L106.379 155.812L107.776 152.574L99.1836 150.32L98.5928 153.609Z"
        fill="#407BFF" />
    <path opacity="0.2"
        d="M106.058 123.756C105.193 123.495 104.043 123.17 102.692 122.794C102.962 120.578 102.967 118.036 101.9 116.74C99.779 114.157 94.3242 112.641 91.219 112.091C88.6221 111.633 79.8972 110.717 79.8972 110.717C79.8972 110.717 91.219 109.632 102.797 113.007C108.495 114.683 107.382 120.275 106.058 123.756Z"
        fill="black" />
    <path
        d="M90.0279 71.2832C90.0279 71.2832 92.9957 82.2752 89.5286 105.949C83.0663 105.812 72.2071 105.56 69.0606 105.491C68.9828 102.194 71.4147 86.0354 68.5706 70.4496C70.6187 70.0964 72.6896 69.8912 74.7673 69.8359C77.8082 69.7274 80.8527 69.7932 83.8861 70.0329C85.9625 70.291 88.0158 70.709 90.0279 71.2832Z"
        fill="#407BFF" />
    <path opacity="0.7"
        d="M90.0279 71.2832C90.0279 71.2832 92.9957 82.2752 89.5286 105.949C83.0663 105.812 72.2071 105.56 69.0606 105.491C68.9828 102.194 71.4147 86.0354 68.5706 70.4496C70.6187 70.0964 72.6896 69.8912 74.7673 69.8359C77.8082 69.7274 80.8527 69.7932 83.8861 70.0329C85.9625 70.291 88.0158 70.709 90.0279 71.2832Z"
        fill="white" />
    <path opacity="0.1"
        d="M75.752 90.5329C73.92 90.1299 71.7354 88.3666 69.9354 86.6262C69.9354 83.5301 69.7843 80.2371 69.45 76.8799C71.9964 80.6493 78.8939 91.2245 75.752 90.5329Z"
        fill="black" />
    <path
        d="M68.557 70.4496C61.5542 72.9732 73.8469 91.9344 77.662 93.8901C81.4772 95.8457 100.869 91.7512 100.869 91.7512L100.104 87.8307C100.104 87.8307 82.9473 88.2658 81.3672 87.8674C79.7871 87.4689 76.0315 79.3852 73.8698 75.5701C72.6681 73.3571 70.8127 71.5689 68.557 70.4496Z"
        fill="#407BFF" />
    <path opacity="0.8"
        d="M68.557 70.4496C61.5542 72.9732 73.8469 91.9344 77.662 93.8901C81.4772 95.8457 100.869 91.7512 100.869 91.7512L100.104 87.8307C100.104 87.8307 82.9473 88.2658 81.3672 87.8674C79.7871 87.4689 76.0315 79.3852 73.8698 75.5701C72.6681 73.3571 70.8127 71.5689 68.557 70.4496Z"
        fill="white" />
    <path d="M98.73 87.4781L99.7238 92.6855L101.556 92.0581L100.869 87.4781H98.73Z"
        fill="#407BFF" />
    <path opacity="0.7" d="M98.73 87.4781L99.7238 92.6855L101.556 92.0581L100.869 87.4781H98.73Z"
        fill="white" />
    <path d="M99.2248 55.7753L104.153 53.8242L103.196 52.1434L98.8218 53.6731L99.2248 55.7753Z"
        fill="#407BFF" />
    <path opacity="0.7"
        d="M99.2248 55.7753L104.153 53.8242L103.196 52.1434L98.8218 53.6731L99.2248 55.7753Z"
        fill="white" />
    <path opacity="0.1"
        d="M73.6499 69.8817C73.6499 69.8817 73.7827 72.0206 77.9826 74.0816L80.8863 71.9793C80.8863 71.9793 81.7153 77.3471 82.2603 81.3546C82.2603 81.3546 82.2237 74.9426 81.6741 72.4786L83.8954 73.2663C83.8954 73.2663 82.0038 70.0191 78.7841 69.2726C75.5643 68.526 73.6499 69.8817 73.6499 69.8817Z"
        fill="black" />
    <path
        d="M75.8758 59.6133C76.3887 62.5583 76.8467 67.9444 74.7537 69.8588L80.868 71.5626L83.8541 70.0557C80.5977 69.2039 80.7351 66.7765 81.3534 64.5094L75.8758 59.6133Z"
        fill="#B97964" />
    <path opacity="0.2"
        d="M78.1199 61.6103L81.3717 64.5094C81.2211 65.0369 81.1154 65.5762 81.0557 66.1216C79.8099 65.9155 78.1245 64.5048 78.0191 63.1949C77.9541 62.665 77.9882 62.1277 78.1199 61.6103Z"
        fill="black" />
    <path
        d="M80.2132 51.4289C78.8804 52.8762 80.03 54.5296 84.2848 56.5402C85.297 54.3097 84.6787 50.5862 83.3047 49.9358C81.9307 49.2855 81.3765 50.174 80.2132 51.4289Z"
        fill="#2E353A" />
    <path
        d="M74.0896 55.9814C75.1705 59.8149 75.6102 62.1095 78.001 63.6804C81.6008 66.0391 86.0114 63.2224 86.0984 59.1416C86.1717 55.4776 84.3946 49.8213 80.2589 49.1023C79.3487 48.9397 78.412 49.0121 77.5376 49.3128C76.6632 49.6134 75.88 50.1323 75.2622 50.8202C74.6444 51.5082 74.2125 52.3425 74.0073 53.2441C73.8021 54.1457 73.8304 55.0847 74.0896 55.9723V55.9814Z"
        fill="#B97964" />
    <path
        d="M80.1214 55.7891C80.1901 56.1051 80.4145 56.3249 80.6206 56.2791C80.8267 56.2333 80.9367 55.9448 80.868 55.6288C80.7993 55.3128 80.5794 55.0929 80.3733 55.1341C80.1672 55.1754 80.0756 55.473 80.1214 55.7891Z"
        fill="#2E353A" />
    <path
        d="M83.7167 55.015C83.7854 55.331 84.0099 55.5509 84.216 55.5051C84.4221 55.4593 84.5366 55.1707 84.4679 54.8501C84.3992 54.5295 84.1748 54.3143 83.9687 54.3601C83.7626 54.4059 83.648 54.699 83.7167 55.015Z"
        fill="#2E353A" />
    <path
        d="M82.5762 55.418C83.1613 56.3042 83.8673 57.1043 84.6738 57.7951C84.4907 57.9961 84.2659 58.1548 84.0152 58.26C83.7644 58.3652 83.4937 58.4144 83.222 58.4042L82.5762 55.418Z"
        fill="#A24E3F" />
    <path
        d="M78.8942 54.8685C78.8602 54.8812 78.8231 54.8832 78.7879 54.8743C78.7527 54.8654 78.721 54.846 78.6971 54.8186C78.6732 54.7913 78.6583 54.7573 78.6542 54.7212C78.6501 54.6851 78.6572 54.6486 78.6744 54.6166C78.7942 54.3393 78.9792 54.095 79.2136 53.9044C79.448 53.7139 79.7249 53.5827 80.0209 53.522C80.0688 53.5138 80.1179 53.5246 80.1581 53.5519C80.1982 53.5792 80.2262 53.621 80.2361 53.6685C80.2416 53.718 80.2281 53.7678 80.1983 53.8077C80.1686 53.8476 80.1248 53.8748 80.0759 53.8838C79.8434 53.9354 79.6265 54.0416 79.4433 54.1938C79.2601 54.3459 79.1158 54.5395 79.0225 54.7586C79.0115 54.7858 78.9941 54.8101 78.9718 54.8292C78.9494 54.8483 78.9228 54.8618 78.8942 54.8685Z"
        fill="#2E353A" />
    <path
        d="M85.0908 53.4487C85.0556 53.4576 85.0184 53.4559 84.9842 53.4436C84.9499 53.4314 84.9201 53.4092 84.8985 53.38C84.7563 53.1886 84.5711 53.0334 84.3579 52.9268C84.1447 52.8202 83.9094 52.7652 83.671 52.7663C83.6207 52.7701 83.5709 52.754 83.5323 52.7214C83.4938 52.6889 83.4696 52.6425 83.4649 52.5922C83.4621 52.5429 83.478 52.4943 83.5094 52.4561C83.5408 52.4179 83.5854 52.3929 83.6344 52.3861C83.9364 52.3793 84.2358 52.4447 84.5074 52.5769C84.7791 52.7092 85.0152 52.9044 85.1961 53.1464C85.2117 53.1659 85.2232 53.1882 85.23 53.2122C85.2367 53.2361 85.2387 53.2612 85.2357 53.2859C85.2327 53.3107 85.2249 53.3345 85.2126 53.3562C85.2003 53.3778 85.1838 53.3968 85.1641 53.412C85.1433 53.4304 85.118 53.443 85.0908 53.4487Z"
        fill="#2E353A" />
    <path
        d="M74.914 52.2121C76.865 52.4411 77.0666 54.4471 75.143 58.7386C72.9217 57.7035 70.966 54.47 71.5935 53.0869C72.2209 51.7037 73.1873 52.006 74.914 52.2121Z"
        fill="#2E353A" />
    <path
        d="M72.9125 59.4897C73.1471 59.9272 73.4657 60.3142 73.85 60.6285C74.2343 60.9429 74.6768 61.1784 75.1521 61.3217C76.4254 61.6926 77.0757 60.5568 76.7368 59.3477C76.4299 58.2576 75.3949 56.7508 74.1125 56.9111C72.8301 57.0714 72.3354 58.4042 72.9125 59.4897Z"
        fill="#B97964" />
    <path
        d="M71.7446 52.7571C71.7446 52.7571 70.7782 51.5113 72.6606 49.0198C74.543 46.5283 79.1413 45.7634 82.6679 46.4504C86.1945 47.1374 84.0969 51.0304 82.8374 51.6762L82.9931 51.0671C81.645 51.7704 80.1607 52.1735 78.6421 52.2487L79.3382 51.6029C79.3382 51.6029 73.8056 53.0365 71.7446 52.7571Z"
        fill="#2E353A" />
    <path
        d="M82.9887 59.4576C82.9088 59.9284 82.8644 60.4045 82.8559 60.882L82.6086 60.9186C81.4727 61.0698 80.9002 60.7629 80.6071 60.3828C80.4679 60.1915 80.3754 59.9704 80.3369 59.737C80.318 59.6048 80.318 59.4707 80.3369 59.3385C81.0794 59.5579 81.8606 59.6141 82.6269 59.5034C82.8376 59.4851 82.9887 59.4576 82.9887 59.4576Z"
        fill="#2E353A" />
    <path
        d="M82.5994 59.5034L82.549 59.9248C81.4865 60.0622 80.717 60.0164 80.3369 59.737C80.318 59.6048 80.318 59.4707 80.3369 59.3385C81.0707 59.5539 81.8421 59.6101 82.5994 59.5034Z"
        fill="white" />
    <path
        d="M82.6084 60.9141C81.4726 61.0652 80.9001 60.7584 80.6069 60.3782C81.0374 60.3294 81.4732 60.3573 81.8939 60.4607C82.1738 60.5329 82.4239 60.6915 82.6084 60.9141Z"
        fill="#A24E3F" />
    <path
        d="M75.8302 68.0497C75.8302 68.0497 79.137 70.5321 80.8682 71.1046C80.8682 71.1046 81.6835 69.5748 81.3491 68.3108L83.8544 70.0557C84.1361 71.1059 84.1361 72.2116 83.8544 73.2617L80.8682 71.5626L78.047 73.6236C78.047 73.6236 73.8746 72.4144 73.6318 69.8817L75.8302 68.0497Z"
        fill="#407BFF" />
    <path opacity="0.8"
        d="M75.8302 68.0497C75.8302 68.0497 79.137 70.5321 80.8682 71.1046C80.8682 71.1046 81.6835 69.5748 81.3491 68.3108L83.8544 70.0557C84.1361 71.1059 84.1361 72.2116 83.8544 73.2617L80.8682 71.5626L78.047 73.6236C78.047 73.6236 73.8746 72.4144 73.6318 69.8817L75.8302 68.0497Z"
        fill="white" />
    <path
        d="M130.41 91.5405H84.761C84.465 91.5405 84.2251 91.7804 84.2251 92.0764V93.4183C84.2251 93.7143 84.465 93.9542 84.761 93.9542H130.41C130.706 93.9542 130.946 93.7143 130.946 93.4183V92.0764C130.946 91.7804 130.706 91.5405 130.41 91.5405Z"
        fill="#407BFF" />
    <path opacity="0.5"
        d="M130.79 92.0122V93.3542C130.79 93.6519 130.708 93.89 130.414 93.89H84.761C84.4633 93.89 84.074 93.6519 84.074 93.3542V92.0122C84.074 91.7191 84.4633 91.6 84.761 91.6H130.414C130.708 91.6 130.79 91.7191 130.79 92.0122Z"
        fill="white" />
    <path opacity="0.2"
        d="M103.31 92.0122V93.3542C103.31 93.6519 103.209 93.89 102.916 93.89H84.761C84.4633 93.89 84.074 93.6519 84.074 93.3542V92.0122C84.074 91.7191 84.4633 91.6 84.761 91.6H102.916C103.209 91.6 103.31 91.7191 103.31 92.0122Z"
        fill="black" />
    <path
        d="M92.9411 24.7916C92.5465 23.3615 91.7952 22.0551 90.7578 20.9947C89.7203 19.9343 88.4305 19.1547 87.0094 18.729C85.5883 18.3033 84.0824 18.2454 82.6328 18.5608C81.1832 18.8761 79.8374 19.5544 78.7215 20.532C77.6057 21.5096 76.7564 22.7545 76.2531 24.15C75.7499 25.5456 75.6093 27.046 75.8444 28.5108C76.0795 29.9755 76.6828 31.3566 77.5975 32.5245C78.5122 33.6924 79.7086 34.609 81.0743 35.1882C81.6613 35.429 82.1346 35.8842 82.3979 36.4614L82.6956 37.1347L91.1274 34.8447L91.0404 34.1119C90.9798 33.4766 91.1577 32.8415 91.5396 32.3303C92.3255 31.2602 92.8597 30.0265 93.1023 28.7212C93.345 27.4159 93.2899 26.0726 92.9411 24.7916Z"
        fill="#407BFF" />
    <path
        d="M85.448 37.153C85.448 37.153 84.1793 33.173 81.9397 31.4097L83.1809 31.0708L83.2771 29.1609L85.306 32.0967L85.1411 28.5243L87.1426 31.7807L87.3441 29.9487L89.1166 29.4907C88.1469 31.6687 87.9735 34.1182 88.6265 36.4111"
        stroke="white" stroke-width="0.440522" stroke-linecap="round" stroke-linejoin="round" />
    <path
        d="M87.042 36.4843C85.549 36.8919 84.7154 38.6094 85.1826 40.3178C85.6497 42.0261 87.2344 43.0658 88.7275 42.6719C90.2206 42.278 91.0495 40.5514 90.587 38.843C90.1244 37.1347 88.5351 36.0813 87.042 36.4843Z"
        fill="#2E353A" />
    <path
        d="M89.9181 41.101L86.9136 41.9208C86.1959 42.1161 85.4309 42.033 84.7719 41.6882C84.1128 41.3434 83.6084 40.7623 83.3596 40.0613L82.3749 37.2812C82.3551 37.2263 82.3471 37.1679 82.3511 37.1097C82.3552 37.0515 82.3713 36.9947 82.3984 36.943C82.4255 36.8914 82.4631 36.8459 82.5087 36.8095C82.5543 36.7731 82.607 36.7466 82.6634 36.7316L90.944 34.4737C91.0004 34.4581 91.0593 34.4544 91.1172 34.4629C91.175 34.4713 91.2304 34.4917 91.28 34.5227C91.3295 34.5537 91.372 34.5947 91.4049 34.643C91.4377 34.6913 91.4602 34.746 91.4707 34.8035L92.0341 37.6934C92.176 38.4236 92.0369 39.1804 91.6445 39.8122C91.2521 40.4441 90.6355 40.9044 89.9181 41.101Z"
        fill="#407BFF" />
    <path opacity="0.4"
        d="M89.9181 41.101L86.9136 41.9208C86.1959 42.1161 85.4309 42.033 84.7719 41.6882C84.1128 41.3434 83.6084 40.7623 83.3596 40.0613L82.3749 37.2812C82.3551 37.2263 82.3471 37.1679 82.3511 37.1097C82.3552 37.0515 82.3713 36.9947 82.3984 36.943C82.4255 36.8914 82.4631 36.8459 82.5087 36.8095C82.5543 36.7731 82.607 36.7466 82.6634 36.7316L90.944 34.4737C91.0004 34.4581 91.0593 34.4544 91.1172 34.4629C91.175 34.4713 91.2304 34.4917 91.28 34.5227C91.3295 34.5537 91.372 34.5947 91.4049 34.643C91.4377 34.6913 91.4602 34.746 91.4707 34.8035L92.0341 37.6934C92.176 38.4236 92.0369 39.1804 91.6445 39.8122C91.2521 40.4441 90.6355 40.9044 89.9181 41.101Z"
        fill="white" />
    <path
        d="M72.7979 33.5486C71.9774 33.3978 71.1452 33.3196 70.311 33.315C69.8962 33.3125 69.4817 33.3354 69.0698 33.3837C68.8637 33.4158 68.6576 33.4387 68.4606 33.489C68.3599 33.5165 68.2591 33.5303 68.1629 33.5669L67.8744 33.6585L67.5446 33.7638L67.7416 33.4753C68.2971 32.6529 68.7392 31.7594 69.056 30.8189C69.2135 30.3524 69.3285 29.8726 69.3995 29.3854C69.4345 29.144 69.4559 28.9009 69.4637 28.6571C69.4774 28.4146 69.4774 28.1715 69.4637 27.9289C69.4461 27.6888 69.4125 27.4501 69.3629 27.2144L69.2759 26.8664L69.1614 26.5229C69.0801 26.2983 68.9805 26.0808 68.8637 25.8725C68.7511 25.6624 68.6241 25.4604 68.4835 25.2679C68.3419 25.0758 68.189 24.8923 68.0255 24.7183L67.7736 24.4619L67.4988 24.2237C67.3202 24.0588 67.1095 23.9306 66.9218 23.7657C66.734 23.6008 66.5096 23.5092 66.3035 23.3764L65.8455 23.0741L66.3538 22.8314C66.5966 22.7123 66.8531 22.5703 67.0958 22.4238C67.3385 22.2772 67.5813 22.1261 67.8194 21.9658C68.2915 21.644 68.74 21.2889 69.1614 20.9032C69.3675 20.7108 69.569 20.5139 69.7659 20.3078C69.9629 20.1017 70.1415 19.8819 70.311 19.662C70.4804 19.4422 70.6453 19.204 70.769 18.9704C70.9169 18.7363 71.05 18.493 71.1674 18.2422C71.2885 17.993 71.3925 17.736 71.4789 17.4728L71.5979 17.0789L71.685 16.6713C71.7361 16.4022 71.7667 16.1297 71.7766 15.856C71.8009 15.3039 71.7516 14.751 71.63 14.2118L71.5384 13.8042L71.4102 13.4057C71.3323 13.1355 71.2086 12.8836 71.1079 12.6226C71.0071 12.3615 70.8606 12.1188 70.7369 11.8623L70.082 10.4883L71.3369 11.2944C71.5567 11.4409 71.7949 11.5829 72.0559 11.7157C72.317 11.8485 72.5597 11.9768 72.8162 12.0913C73.327 12.3298 73.8534 12.5333 74.3917 12.7004C74.662 12.7783 74.9322 12.8516 75.2024 12.9111C75.4728 12.9728 75.7465 13.0187 76.0222 13.0485C76.2941 13.0834 76.568 13.1002 76.842 13.0989C77.1131 13.0968 77.3838 13.0785 77.6527 13.0439L78.0466 12.9752L78.4359 12.8699C78.6873 12.7873 78.9322 12.6863 79.1687 12.5676C79.2866 12.5109 79.3999 12.445 79.5076 12.3707C79.6224 12.3039 79.7312 12.2273 79.8328 12.1417C80.0429 11.9781 80.2418 11.8006 80.4282 11.6104C80.6113 11.4127 80.7812 11.2031 80.9366 10.9829C81.0981 10.7616 81.2435 10.5289 81.3717 10.2868C81.5136 10.0532 81.6098 9.78753 81.7335 9.54021C81.8571 9.29289 81.9304 9.01809 82.0312 8.75703L82.6037 7.25479L82.8876 8.82115C82.9356 9.07734 83.0014 9.32986 83.0846 9.57685C83.326 10.3428 83.6945 11.0627 84.1746 11.7066C84.4911 12.1269 84.8659 12.5001 85.2876 12.8149C85.4954 12.9733 85.716 13.1143 85.9471 13.2363C86.178 13.3617 86.4185 13.4689 86.6661 13.5569C86.9147 13.6437 87.1687 13.7141 87.4264 13.7676C87.6881 13.8202 87.9527 13.8569 88.2188 13.8775C88.4857 13.8912 88.7533 13.8912 89.0203 13.8775C89.2905 13.8775 89.5607 13.8408 89.8309 13.8179C90.1011 13.795 90.3714 13.7309 90.637 13.6897L91.4385 13.4973L92.2308 13.2592L93.014 12.9798L94.0995 12.5905L93.4766 13.5569C93.3621 13.7263 93.2476 13.9324 93.1423 14.1294C93.0369 14.3263 92.9407 14.5278 92.8491 14.7385C92.669 15.1492 92.5264 15.5753 92.4232 16.0118C92.3208 16.4423 92.27 16.8836 92.2721 17.3262C92.277 17.76 92.3528 18.1901 92.4965 18.5995L92.6201 18.9017L92.7759 19.2361C92.8879 19.4218 93.015 19.5979 93.156 19.7628C93.2974 19.9263 93.4504 20.0794 93.614 20.2208C93.7836 20.3682 93.9626 20.5043 94.1499 20.6284C94.3356 20.7551 94.5282 20.8713 94.7269 20.9765C94.9239 21.0864 95.1346 21.1688 95.3407 21.2696L95.9819 21.5123L96.6414 21.7184L97.0994 21.865L96.7147 22.1627C96.4556 22.3638 96.2122 22.5843 95.9864 22.8222C95.7584 23.0607 95.5472 23.3147 95.3544 23.5825C95.2491 23.7153 95.1666 23.8573 95.075 23.9947C94.9868 24.1331 94.9072 24.2769 94.8369 24.4252C94.7564 24.5717 94.689 24.7249 94.6353 24.8832C94.5718 25.0312 94.5212 25.1845 94.4842 25.3412C94.4521 25.5015 94.3972 25.6572 94.3789 25.7992L94.3331 26.2893C94.3331 26.4542 94.3331 26.619 94.3605 26.7839C94.3698 26.9483 94.3974 27.1112 94.443 27.2694C94.4729 27.4254 94.5158 27.5785 94.5712 27.7274L94.759 28.1854C94.8221 28.3451 94.9003 28.4985 94.9926 28.6434L95.2491 29.1014L95.3452 29.2617H95.1666C94.4893 29.2635 93.815 29.3528 93.1606 29.5273C92.8328 29.6142 92.5162 29.7387 92.2171 29.8983C92.1427 29.9382 92.0708 29.9826 92.0018 30.0311C91.9274 30.0732 91.8582 30.1239 91.7957 30.1823C91.7275 30.2322 91.6632 30.2874 91.6034 30.3472L91.4248 30.5349L91.5942 30.338C91.6496 30.2729 91.7109 30.2131 91.7774 30.1594C91.8395 30.0984 91.9069 30.0432 91.9789 29.9945C92.0476 29.9487 92.1163 29.8937 92.1896 29.8525C92.4858 29.675 92.8007 29.5306 93.1285 29.422C93.7879 29.2078 94.4738 29.086 95.1666 29.0602L95.0888 29.2205L94.8048 28.7625C94.7017 28.6187 94.6128 28.4653 94.5392 28.3045L94.3239 27.8465C94.2556 27.6841 94.2034 27.5153 94.1682 27.3427C94.111 27.1752 94.0741 27.0014 94.0583 26.8251C94.0583 26.6511 94.017 26.4725 94.0125 26.2984V25.7626C94.0125 25.5885 94.0766 25.4145 94.1041 25.2405C94.1389 25.0658 94.1879 24.8942 94.2506 24.7275C94.3007 24.5568 94.3666 24.3912 94.4476 24.2329C94.5164 24.075 94.596 23.9219 94.6857 23.7749C94.769 23.6174 94.8608 23.4645 94.9605 23.3169C95.158 23.0247 95.377 22.7476 95.6155 22.4879C95.8542 22.2227 96.113 21.9761 96.3895 21.7505L96.4765 22.2085L95.7849 22.0116L95.1025 21.7688C94.8781 21.6726 94.6445 21.5856 94.4338 21.4711C94.2142 21.364 94.0016 21.2431 93.7972 21.1093C93.5877 20.9778 93.3873 20.8324 93.1972 20.6742C93.009 20.515 92.8343 20.3403 92.6751 20.1521C92.5043 19.9633 92.351 19.7594 92.2171 19.5429L92.0293 19.2132L91.8782 18.8605C91.7019 18.3942 91.6028 17.9023 91.5851 17.4041C91.567 16.9043 91.6116 16.4042 91.7179 15.9156C91.8196 15.4351 91.9636 14.9646 92.1484 14.5095C92.24 14.2805 92.3408 14.0515 92.4507 13.8408C92.5606 13.6302 92.6751 13.4103 92.8171 13.1859L93.2751 13.763L92.4598 14.0607L91.6309 14.3172C91.3469 14.395 91.0629 14.4591 90.779 14.5278C90.495 14.5965 90.2065 14.6378 89.9134 14.6698C89.6203 14.7103 89.3252 14.7348 89.0294 14.7431C88.7243 14.7599 88.4185 14.7599 88.1134 14.7431C87.8151 14.7214 87.5184 14.6817 87.2249 14.624C86.9287 14.5645 86.6366 14.4865 86.3501 14.3904C86.0644 14.2887 85.7859 14.1678 85.5166 14.0286C85.2458 13.888 84.987 13.7257 84.7425 13.5431C84.2542 13.1835 83.8193 12.7563 83.451 12.2745C83.0853 11.7999 82.7778 11.2833 82.535 10.7356C82.4112 10.464 82.3026 10.1857 82.2098 9.90203C82.1109 9.61298 82.0314 9.31769 81.9716 9.01809L82.8281 9.08221C82.7228 9.36617 82.6266 9.65471 82.5121 9.93409C82.3947 10.2168 82.2633 10.4935 82.1182 10.7631C81.9846 11.0378 81.8315 11.3025 81.6602 11.5554C81.4806 11.812 81.2848 12.0567 81.074 12.2882C80.8553 12.5166 80.6195 12.7279 80.3686 12.9203C80.245 13.0197 80.1133 13.1086 79.9748 13.1859C79.8426 13.274 79.7049 13.3536 79.5626 13.4241C79.2776 13.5658 78.9821 13.6853 78.6786 13.7813L78.2206 13.8958L77.7626 13.9782C77.4589 14.0169 77.1528 14.0337 76.8466 14.0286C76.5403 14.0292 76.2343 14.0093 75.9306 13.9691C75.6226 13.9325 75.3168 13.879 75.0146 13.8088C74.7169 13.7447 74.4238 13.6622 74.1353 13.5706C73.5615 13.391 73.0013 13.1706 72.459 12.9111C72.1842 12.7874 71.9185 12.65 71.6575 12.5081C71.3964 12.3661 71.1399 12.2149 70.8697 12.0501L71.4697 11.505C71.6025 11.7798 71.7445 12.0455 71.8636 12.3294C71.9862 12.6093 72.0947 12.8952 72.1888 13.1859L72.3262 13.6439L72.4269 14.1019C72.4885 14.4046 72.5344 14.7104 72.5643 15.0179C72.5821 15.323 72.5821 15.6288 72.5643 15.9339C72.5504 16.2415 72.5136 16.5477 72.4544 16.8499L72.3536 17.3079L72.2162 17.7659C72.1162 18.0604 71.9968 18.3481 71.859 18.6269C71.7253 18.9045 71.5723 19.1724 71.401 19.4284C71.2334 19.6788 71.053 19.9203 70.8606 20.1521C70.6636 20.3902 70.4621 20.6101 70.2514 20.8345C70.0407 21.0589 69.8163 21.2559 69.5919 21.4574C69.1352 21.8503 68.6533 22.2129 68.1492 22.5428C67.8958 22.7077 67.6393 22.8604 67.3798 23.0008C67.1141 23.1474 66.8531 23.2848 66.5645 23.413L66.5966 22.868C66.8118 23.0146 67.0546 23.1474 67.2469 23.2985C67.4393 23.4497 67.6683 23.6054 67.8561 23.7886L68.1492 24.0542L68.4194 24.3382C68.5956 24.5334 68.7607 24.7383 68.9141 24.9519C69.0656 25.1696 69.2018 25.3977 69.3217 25.6343C69.4433 25.8675 69.5474 26.1094 69.6331 26.358L69.7476 26.7381L69.8301 27.1228C69.8786 27.3815 69.9092 27.6432 69.9217 27.906C69.9542 28.9439 69.7733 29.9774 69.3904 30.9426C69.0255 31.8984 68.5341 32.8011 67.9294 33.6264L67.7965 33.4432L68.1034 33.3562C68.2087 33.3242 68.3141 33.3104 68.4194 33.2875C68.6255 33.2417 68.8362 33.228 69.0469 33.2005C69.4679 33.1754 69.89 33.1754 70.311 33.2005C71.1484 33.2449 71.9805 33.3614 72.7979 33.5486Z"
        fill="#407BFF" />
    <path opacity="0.7"
        d="M72.7979 33.5486C71.9774 33.3978 71.1452 33.3196 70.311 33.315C69.8962 33.3125 69.4817 33.3354 69.0698 33.3837C68.8637 33.4158 68.6576 33.4387 68.4606 33.489C68.3599 33.5165 68.2591 33.5303 68.1629 33.5669L67.8744 33.6585L67.5446 33.7638L67.7416 33.4753C68.2971 32.6529 68.7392 31.7594 69.056 30.8189C69.2135 30.3524 69.3285 29.8726 69.3995 29.3854C69.4345 29.144 69.4559 28.9009 69.4637 28.6571C69.4774 28.4146 69.4774 28.1715 69.4637 27.9289C69.4461 27.6888 69.4125 27.4501 69.3629 27.2144L69.2759 26.8664L69.1614 26.5229C69.0801 26.2983 68.9805 26.0808 68.8637 25.8725C68.7511 25.6624 68.6241 25.4604 68.4835 25.2679C68.3419 25.0758 68.189 24.8923 68.0255 24.7183L67.7736 24.4619L67.4988 24.2237C67.3202 24.0588 67.1095 23.9306 66.9218 23.7657C66.734 23.6008 66.5096 23.5092 66.3035 23.3764L65.8455 23.0741L66.3538 22.8314C66.5966 22.7123 66.8531 22.5703 67.0958 22.4238C67.3385 22.2772 67.5813 22.1261 67.8194 21.9658C68.2915 21.644 68.74 21.2889 69.1614 20.9032C69.3675 20.7108 69.569 20.5139 69.7659 20.3078C69.9629 20.1017 70.1415 19.8819 70.311 19.662C70.4804 19.4422 70.6453 19.204 70.769 18.9704C70.9169 18.7363 71.05 18.493 71.1674 18.2422C71.2885 17.993 71.3925 17.736 71.4789 17.4728L71.5979 17.0789L71.685 16.6713C71.7361 16.4022 71.7667 16.1297 71.7766 15.856C71.8009 15.3039 71.7516 14.751 71.63 14.2118L71.5384 13.8042L71.4102 13.4057C71.3323 13.1355 71.2086 12.8836 71.1079 12.6226C71.0071 12.3615 70.8606 12.1188 70.7369 11.8623L70.082 10.4883L71.3369 11.2944C71.5567 11.4409 71.7949 11.5829 72.0559 11.7157C72.317 11.8485 72.5597 11.9768 72.8162 12.0913C73.327 12.3298 73.8534 12.5333 74.3917 12.7004C74.662 12.7783 74.9322 12.8516 75.2024 12.9111C75.4728 12.9728 75.7465 13.0187 76.0222 13.0485C76.2941 13.0834 76.568 13.1002 76.842 13.0989C77.1131 13.0968 77.3838 13.0785 77.6527 13.0439L78.0466 12.9752L78.4359 12.8699C78.6873 12.7873 78.9322 12.6863 79.1687 12.5676C79.2866 12.5109 79.3999 12.445 79.5076 12.3707C79.6224 12.3039 79.7312 12.2273 79.8328 12.1417C80.0429 11.9781 80.2418 11.8006 80.4282 11.6104C80.6113 11.4127 80.7812 11.2031 80.9366 10.9829C81.0981 10.7616 81.2435 10.5289 81.3717 10.2868C81.5136 10.0532 81.6098 9.78753 81.7335 9.54021C81.8571 9.29289 81.9304 9.01809 82.0312 8.75703L82.6037 7.25479L82.8876 8.82115C82.9356 9.07734 83.0014 9.32986 83.0846 9.57685C83.326 10.3428 83.6945 11.0627 84.1746 11.7066C84.4911 12.1269 84.8659 12.5001 85.2876 12.8149C85.4954 12.9733 85.716 13.1143 85.9471 13.2363C86.178 13.3617 86.4185 13.4689 86.6661 13.5569C86.9147 13.6437 87.1687 13.7141 87.4264 13.7676C87.6881 13.8202 87.9527 13.8569 88.2188 13.8775C88.4857 13.8912 88.7533 13.8912 89.0203 13.8775C89.2905 13.8775 89.5607 13.8408 89.8309 13.8179C90.1011 13.795 90.3714 13.7309 90.637 13.6897L91.4385 13.4973L92.2308 13.2592L93.014 12.9798L94.0995 12.5905L93.4766 13.5569C93.3621 13.7263 93.2476 13.9324 93.1423 14.1294C93.0369 14.3263 92.9407 14.5278 92.8491 14.7385C92.669 15.1492 92.5264 15.5753 92.4232 16.0118C92.3208 16.4423 92.27 16.8836 92.2721 17.3262C92.277 17.76 92.3528 18.1901 92.4965 18.5995L92.6201 18.9017L92.7759 19.2361C92.8879 19.4218 93.015 19.5979 93.156 19.7628C93.2974 19.9263 93.4504 20.0794 93.614 20.2208C93.7836 20.3682 93.9626 20.5043 94.1499 20.6284C94.3356 20.7551 94.5282 20.8713 94.7269 20.9765C94.9239 21.0864 95.1346 21.1688 95.3407 21.2696L95.9819 21.5123L96.6414 21.7184L97.0994 21.865L96.7147 22.1627C96.4556 22.3638 96.2122 22.5843 95.9864 22.8222C95.7584 23.0607 95.5472 23.3147 95.3544 23.5825C95.2491 23.7153 95.1666 23.8573 95.075 23.9947C94.9868 24.1331 94.9072 24.2769 94.8369 24.4252C94.7564 24.5717 94.689 24.7249 94.6353 24.8832C94.5718 25.0312 94.5212 25.1845 94.4842 25.3412C94.4521 25.5015 94.3972 25.6572 94.3789 25.7992L94.3331 26.2893C94.3331 26.4542 94.3331 26.619 94.3605 26.7839C94.3698 26.9483 94.3974 27.1112 94.443 27.2694C94.4729 27.4254 94.5158 27.5785 94.5712 27.7274L94.759 28.1854C94.8221 28.3451 94.9003 28.4985 94.9926 28.6434L95.2491 29.1014L95.3452 29.2617H95.1666C94.4893 29.2635 93.815 29.3528 93.1606 29.5273C92.8328 29.6142 92.5162 29.7387 92.2171 29.8983C92.1427 29.9382 92.0708 29.9826 92.0018 30.0311C91.9274 30.0732 91.8582 30.1239 91.7957 30.1823C91.7275 30.2322 91.6632 30.2874 91.6034 30.3472L91.4248 30.5349L91.5942 30.338C91.6496 30.2729 91.7109 30.2131 91.7774 30.1594C91.8395 30.0984 91.9069 30.0432 91.9789 29.9945C92.0476 29.9487 92.1163 29.8937 92.1896 29.8525C92.4858 29.675 92.8007 29.5306 93.1285 29.422C93.7879 29.2078 94.4738 29.086 95.1666 29.0602L95.0888 29.2205L94.8048 28.7625C94.7017 28.6187 94.6128 28.4653 94.5392 28.3045L94.3239 27.8465C94.2556 27.6841 94.2034 27.5153 94.1682 27.3427C94.111 27.1752 94.0741 27.0014 94.0583 26.8251C94.0583 26.6511 94.017 26.4725 94.0125 26.2984V25.7626C94.0125 25.5885 94.0766 25.4145 94.1041 25.2405C94.1389 25.0658 94.1879 24.8942 94.2506 24.7275C94.3007 24.5568 94.3666 24.3912 94.4476 24.2329C94.5164 24.075 94.596 23.9219 94.6857 23.7749C94.769 23.6174 94.8608 23.4645 94.9605 23.3169C95.158 23.0247 95.377 22.7476 95.6155 22.4879C95.8542 22.2227 96.113 21.9761 96.3895 21.7505L96.4765 22.2085L95.7849 22.0116L95.1025 21.7688C94.8781 21.6726 94.6445 21.5856 94.4338 21.4711C94.2142 21.364 94.0016 21.2431 93.7972 21.1093C93.5877 20.9778 93.3873 20.8324 93.1972 20.6742C93.009 20.515 92.8343 20.3403 92.6751 20.1521C92.5043 19.9633 92.351 19.7594 92.2171 19.5429L92.0293 19.2132L91.8782 18.8605C91.7019 18.3942 91.6028 17.9023 91.5851 17.4041C91.567 16.9043 91.6116 16.4042 91.7179 15.9156C91.8196 15.4351 91.9636 14.9646 92.1484 14.5095C92.24 14.2805 92.3408 14.0515 92.4507 13.8408C92.5606 13.6302 92.6751 13.4103 92.8171 13.1859L93.2751 13.763L92.4598 14.0607L91.6309 14.3172C91.3469 14.395 91.0629 14.4591 90.779 14.5278C90.495 14.5965 90.2065 14.6378 89.9134 14.6698C89.6203 14.7103 89.3252 14.7348 89.0294 14.7431C88.7243 14.7599 88.4185 14.7599 88.1134 14.7431C87.8151 14.7214 87.5184 14.6817 87.2249 14.624C86.9287 14.5645 86.6366 14.4865 86.3501 14.3904C86.0644 14.2887 85.7859 14.1678 85.5166 14.0286C85.2458 13.888 84.987 13.7257 84.7425 13.5431C84.2542 13.1835 83.8193 12.7563 83.451 12.2745C83.0853 11.7999 82.7778 11.2833 82.535 10.7356C82.4112 10.464 82.3026 10.1857 82.2098 9.90203C82.1109 9.61298 82.0314 9.31769 81.9716 9.01809L82.8281 9.08221C82.7228 9.36617 82.6266 9.65471 82.5121 9.93409C82.3947 10.2168 82.2633 10.4935 82.1182 10.7631C81.9846 11.0378 81.8315 11.3025 81.6602 11.5554C81.4806 11.812 81.2848 12.0567 81.074 12.2882C80.8553 12.5166 80.6195 12.7279 80.3686 12.9203C80.245 13.0197 80.1133 13.1086 79.9748 13.1859C79.8426 13.274 79.7049 13.3536 79.5626 13.4241C79.2776 13.5658 78.9821 13.6853 78.6786 13.7813L78.2206 13.8958L77.7626 13.9782C77.4589 14.0169 77.1528 14.0337 76.8466 14.0286C76.5403 14.0292 76.2343 14.0093 75.9306 13.9691C75.6226 13.9325 75.3168 13.879 75.0146 13.8088C74.7169 13.7447 74.4238 13.6622 74.1353 13.5706C73.5615 13.391 73.0013 13.1706 72.459 12.9111C72.1842 12.7874 71.9185 12.65 71.6575 12.5081C71.3964 12.3661 71.1399 12.2149 70.8697 12.0501L71.4697 11.505C71.6025 11.7798 71.7445 12.0455 71.8636 12.3294C71.9862 12.6093 72.0947 12.8952 72.1888 13.1859L72.3262 13.6439L72.4269 14.1019C72.4885 14.4046 72.5344 14.7104 72.5643 15.0179C72.5821 15.323 72.5821 15.6288 72.5643 15.9339C72.5504 16.2415 72.5136 16.5477 72.4544 16.8499L72.3536 17.3079L72.2162 17.7659C72.1162 18.0604 71.9968 18.3481 71.859 18.6269C71.7253 18.9045 71.5723 19.1724 71.401 19.4284C71.2334 19.6788 71.053 19.9203 70.8606 20.1521C70.6636 20.3902 70.4621 20.6101 70.2514 20.8345C70.0407 21.0589 69.8163 21.2559 69.5919 21.4574C69.1352 21.8503 68.6533 22.2129 68.1492 22.5428C67.8958 22.7077 67.6393 22.8604 67.3798 23.0008C67.1141 23.1474 66.8531 23.2848 66.5645 23.413L66.5966 22.868C66.8118 23.0146 67.0546 23.1474 67.2469 23.2985C67.4393 23.4497 67.6683 23.6054 67.8561 23.7886L68.1492 24.0542L68.4194 24.3382C68.5956 24.5334 68.7607 24.7383 68.9141 24.9519C69.0656 25.1696 69.2018 25.3977 69.3217 25.6343C69.4433 25.8675 69.5474 26.1094 69.6331 26.358L69.7476 26.7381L69.8301 27.1228C69.8786 27.3815 69.9092 27.6432 69.9217 27.906C69.9542 28.9439 69.7733 29.9774 69.3904 30.9426C69.0255 31.8984 68.5341 32.8011 67.9294 33.6264L67.7965 33.4432L68.1034 33.3562C68.2087 33.3242 68.3141 33.3104 68.4194 33.2875C68.6255 33.2417 68.8362 33.228 69.0469 33.2005C69.4679 33.1754 69.89 33.1754 70.311 33.2005C71.1484 33.2449 71.9805 33.3614 72.7979 33.5486Z"
        fill="white" />
</svg>
