<svg width="251" height="188" viewBox="0 0 251 188" fill="none" xmlns="http://www.w3.org/2000/svg">
    <path d="M251 164.355H0V164.48H251V164.355Z" fill="#EBEBEB" />
    <path d="M225.85 172.432H209.224V172.558H225.85V172.432Z" fill="#EBEBEB" />
    <path d="M166.272 173.797H161.91V173.923H166.272V173.797Z" fill="#EBEBEB" />
    <path d="M208.722 167.773H199.088V167.899H208.722V167.773Z" fill="#EBEBEB" />
    <path d="M48.0163 168.617H26.335V168.742H48.0163V168.617Z" fill="#EBEBEB" />
    <path d="M55.6667 168.617H52.489V168.742H55.6667V168.617Z" fill="#EBEBEB" />
    <path d="M113.025 170.735H65.998V170.861H113.025V170.735Z" fill="#EBEBEB" />
    <path
        d="M118.974 141.966H22.043C21.2837 141.964 20.5559 141.662 20.0194 141.124C19.4829 140.587 19.1816 139.859 19.1816 139.099V2.84138C19.1883 2.08639 19.4925 1.36449 20.0282 0.832487C20.564 0.300487 21.288 0.00135438 22.043 6.10352e-05H118.974C119.734 6.10352e-05 120.464 0.302058 121.001 0.839616C121.539 1.37717 121.841 2.10626 121.841 2.86648V139.099C121.841 139.859 121.539 140.589 121.001 141.126C120.464 141.664 119.734 141.966 118.974 141.966ZM22.043 0.100461C21.317 0.101791 20.6211 0.391152 20.1082 0.90503C19.5952 1.41891 19.3071 2.11531 19.3071 2.84138V139.099C19.3071 139.825 19.5952 140.522 20.1082 141.036C20.6211 141.549 21.317 141.839 22.043 141.84H118.974C119.701 141.839 120.397 141.55 120.911 141.036C121.425 140.522 121.714 139.826 121.715 139.099V2.84138C121.714 2.11485 121.425 1.41846 120.911 0.904723C120.397 0.390989 119.701 0.101788 118.974 0.100461H22.043Z"
        fill="#EBEBEB" />
    <path
        d="M227.561 141.966H130.625C129.865 141.964 129.137 141.662 128.6 141.125C128.063 140.587 127.76 139.859 127.759 139.099V2.84138C127.767 2.08593 128.072 1.36403 128.609 0.832173C129.145 0.300312 129.87 0.00134028 130.625 6.10352e-05H227.561C228.316 0.00267369 229.038 0.30239 229.573 0.834248C230.108 1.36611 230.411 2.08725 230.418 2.84138V139.099C230.418 139.858 230.117 140.585 229.582 141.123C229.046 141.66 228.32 141.963 227.561 141.966ZM130.625 0.100461C129.899 0.101788 129.202 0.390989 128.689 0.904723C128.175 1.41846 127.886 2.11485 127.884 2.84138V139.099C127.886 139.826 128.175 140.522 128.689 141.036C129.202 141.55 129.899 141.839 130.625 141.84H227.561C228.288 141.839 228.984 141.55 229.498 141.036C230.012 140.522 230.301 139.826 230.302 139.099V2.84138C230.301 2.11485 230.012 1.41846 229.498 0.904723C228.984 0.390989 228.288 0.101788 227.561 0.100461H130.625Z"
        fill="#EBEBEB" />
    <path d="M124.396 57.1076H50.9932V164.721H124.396V57.1076Z" fill="#F0F0F0" />
    <path d="M121.8 60.4961H53.5886V80.3703H121.8V60.4961Z" fill="#E0E0E0" />
    <path d="M57.4641 63.7139H53.5886V80.3703H57.4641V63.7139Z" fill="#EBEBEB" />
    <path d="M76.2036 63.7139H72.3281V80.3703H76.2036V63.7139Z" fill="#EBEBEB" />
    <path d="M97.4717 63.2932L93.6526 63.9515L96.4819 80.3658L100.301 79.7075L97.4717 63.2932Z"
        fill="#EBEBEB" />
    <path d="M62.268 65.9076H58.3926V80.3702H62.268V65.9076Z" fill="#EBEBEB" />
    <path d="M71.1735 65.9076H67.2981V80.3702H71.1735V65.9076Z" fill="#EBEBEB" />
    <path d="M93.6533 65.9076H89.7778V80.3702H93.6533V65.9076Z" fill="#EBEBEB" />
    <path d="M81.2919 65.4083L77.5088 66.2491L80.6465 80.3672L84.4296 79.5265L81.2919 65.4083Z"
        fill="#EBEBEB" />
    <path d="M65.6162 62.8856H63.6785V80.3703H65.6162V62.8856Z" fill="#EBEBEB" />
    <path d="M88.6633 62.8856H86.7256V80.3703H88.6633V62.8856Z" fill="#EBEBEB" />
    <path d="M53.5885 103.392L121.8 103.392V83.5178H53.5885V103.392Z" fill="#E0E0E0" />
    <path d="M117.93 103.392H121.805V86.7356H117.93V103.392Z" fill="#EBEBEB" />
    <path d="M99.19 103.392H103.065V86.7356H99.19V103.392Z" fill="#EBEBEB" />
    <path d="M75.0986 102.732L78.9177 103.39L81.7471 86.9762L77.9279 86.3179L75.0986 102.732Z"
        fill="#EBEBEB" />
    <path d="M113.126 103.392H117.001V88.9293H113.126V103.392Z" fill="#EBEBEB" />
    <path d="M104.215 103.392H108.091V88.9293H104.215V103.392Z" fill="#EBEBEB" />
    <path d="M81.7408 103.392H85.6162V88.9293H81.7408V103.392Z" fill="#EBEBEB" />
    <path d="M90.9727 102.551L94.7559 103.391L97.8935 89.2732L94.1104 88.4324L90.9727 102.551Z"
        fill="#EBEBEB" />
    <path d="M109.777 103.392H111.715V85.9073H109.777V103.392Z" fill="#EBEBEB" />
    <path d="M86.7254 103.392H88.6631V85.9073H86.7254V103.392Z" fill="#EBEBEB" />
    <path d="M57.4641 86.7356H53.5886V103.392H57.4641V86.7356Z" fill="#EBEBEB" />
    <path d="M62.268 88.9293H58.3926V103.392H62.268V88.9293Z" fill="#EBEBEB" />
    <path d="M71.1735 88.9293H67.2981V103.392H71.1735V88.9293Z" fill="#EBEBEB" />
    <path d="M65.6162 85.9073H63.6785V103.392H65.6162V85.9073Z" fill="#EBEBEB" />
    <path d="M121.8 106.54H53.5886V126.414H121.8V106.54Z" fill="#E0E0E0" />
    <path d="M96.6149 109.757H92.7395V126.414H96.6149V109.757Z" fill="#EBEBEB" />
    <path d="M117.888 109.341L114.069 109.999L116.899 126.413L120.718 125.755L117.888 109.341Z"
        fill="#EBEBEB" />
    <path d="M82.6792 111.951H78.8037V126.414H82.6792V111.951Z" fill="#EBEBEB" />
    <path d="M91.5898 111.951H87.7144V126.414H91.5898V111.951Z" fill="#EBEBEB" />
    <path d="M114.07 111.951H110.194V126.414H114.07V111.951Z" fill="#EBEBEB" />
    <path d="M101.713 111.453L97.9302 112.294L101.068 126.412L104.851 125.571L101.713 111.453Z"
        fill="#EBEBEB" />
    <path d="M86.0329 108.929H84.0952V126.414H86.0329V108.929Z" fill="#EBEBEB" />
    <path d="M109.079 108.929H107.142V126.414H109.079V108.929Z" fill="#EBEBEB" />
    <path d="M73.3062 109.344L69.4871 110.002L72.3164 126.416L76.1355 125.758L73.3062 109.344Z"
        fill="#EBEBEB" />
    <path d="M69.4868 111.951H65.6113V126.414H69.4868V111.951Z" fill="#EBEBEB" />
    <path d="M57.1284 111.451L53.3452 112.292L56.4829 126.41L60.266 125.57L57.1284 111.451Z"
        fill="#EBEBEB" />
    <path d="M64.5019 108.929H62.5642V126.414H64.5019V108.929Z" fill="#EBEBEB" />
    <path d="M38.3277 165.007H50.9932L50.9932 57.1076H38.3277L38.3277 165.007Z" fill="#E0E0E0" />
    <path d="M201.352 29.598H155.193V133.582H201.352V29.598Z" fill="#EBEBEB" />
    <path d="M200.198 131.323V31.2395L157.523 31.2395V131.323H200.198Z" fill="#FAFAFA" />
    <path d="M178.757 31.0488H177.778V132.608H178.757V31.0488Z" fill="#F5F5F5" />
    <path d="M202.411 28.2476H154.124V33.1421H202.411V28.2476Z" fill="#E0E0E0" />
    <path d="M202.411 33.6792H154.124V34.2616H202.411V33.6792Z" fill="#F5F5F5" />
    <path d="M202.411 34.9995H154.124V35.5818H202.411V34.9995Z" fill="#F5F5F5" />
    <path d="M202.411 36.3148H154.124V36.8971H202.411V36.3148Z" fill="#F5F5F5" />
    <path d="M202.411 37.63H154.124V38.2123H202.411V37.63Z" fill="#F5F5F5" />
    <path d="M202.411 38.9452H154.124V39.5276H202.411V38.9452Z" fill="#F5F5F5" />
    <path d="M202.411 40.2655H154.124V40.8478H202.411V40.2655Z" fill="#F5F5F5" />
    <path d="M202.411 41.5807H154.124V42.163H202.411V41.5807Z" fill="#F5F5F5" />
    <path d="M202.411 42.896H154.124V43.4783H202.411V42.896Z" fill="#F5F5F5" />
    <path d="M202.411 44.2112H154.124V44.7935H202.411V44.2112Z" fill="#F5F5F5" />
    <path d="M202.411 45.5314H154.124V46.1138H202.411V45.5314Z" fill="#F5F5F5" />
    <path d="M202.411 46.8467H154.124V47.429H202.411V46.8467Z" fill="#F5F5F5" />
    <path d="M202.411 48.1619H154.124V48.7442H202.411V48.1619Z" fill="#F5F5F5" />
    <path d="M202.411 49.4772H154.124V50.0595H202.411V49.4772Z" fill="#F5F5F5" />
    <path d="M202.411 50.7924H154.124V51.3747H202.411V50.7924Z" fill="#F5F5F5" />
    <path d="M202.411 52.1126H154.124V52.695H202.411V52.1126Z" fill="#F5F5F5" />
    <path d="M202.411 53.4279H154.124V54.0102H202.411V53.4279Z" fill="#F5F5F5" />
    <path d="M202.411 54.7432H154.124V55.3255H202.411V54.7432Z" fill="#F5F5F5" />
    <path d="M202.411 56.0584H154.124V56.6407H202.411V56.0584Z" fill="#F5F5F5" />
    <path
        d="M104.15 37.8208C108.669 37.8208 112.332 34.1573 112.332 29.6382C112.332 25.119 108.669 21.4556 104.15 21.4556C99.6308 21.4556 95.9673 25.119 95.9673 29.6382C95.9673 34.1573 99.6308 37.8208 104.15 37.8208Z"
        fill="#E0E0E0" />
    <path
        d="M104.15 36.5959C107.993 36.5959 111.108 33.4808 111.108 29.6381C111.108 25.7955 107.993 22.6804 104.15 22.6804C100.307 22.6804 97.1924 25.7955 97.1924 29.6381C97.1924 33.4808 100.307 36.5959 104.15 36.5959Z"
        fill="#F0F0F0" />
    <path d="M104.476 24.8641V29.7285L107.699 27.9062" fill="#F0F0F0" />
    <path
        d="M104.476 30.2355C104.343 30.2355 104.215 30.1826 104.121 30.0885C104.027 29.9943 103.974 29.8666 103.974 29.7335V24.8641C103.974 24.731 104.027 24.6033 104.121 24.5091C104.215 24.415 104.343 24.3621 104.476 24.3621C104.609 24.3621 104.737 24.415 104.831 24.5091C104.925 24.6033 104.978 24.731 104.978 24.8641V28.8801L107.453 27.4795C107.569 27.4145 107.706 27.3981 107.834 27.4338C107.962 27.4696 108.07 27.5546 108.136 27.6703C108.201 27.7856 108.218 27.922 108.184 28.0499C108.149 28.1778 108.065 28.2868 107.95 28.353L104.722 30.1803C104.646 30.2183 104.561 30.2373 104.476 30.2355Z"
        fill="#E0E0E0" />
    <path
        d="M125.5 187.025C179.255 187.025 222.833 184.481 222.833 181.343C222.833 178.204 179.255 175.66 125.5 175.66C71.7446 175.66 28.1672 178.204 28.1672 181.343C28.1672 184.481 71.7446 187.025 125.5 187.025Z"
        fill="#F5F5F5" />
    <path
        d="M141.062 76.6153C141.062 76.6153 140.469 80.7267 135.138 82.7698C135.138 82.7698 138.1 79.6925 137.995 76.7458L141.062 76.6153Z"
        fill="#407BFF" />
    <path opacity="0.7"
        d="M141.062 76.6153C141.062 76.6153 140.469 80.7267 135.138 82.7698C135.138 82.7698 138.1 79.6925 137.995 76.7458L141.062 76.6153Z"
        fill="white" />
    <path
        d="M153.492 79.6926C168.984 79.6926 181.543 71.1452 181.543 60.6015C181.543 50.0578 168.984 41.5104 153.492 41.5104C137.999 41.5104 125.44 50.0578 125.44 60.6015C125.44 71.1452 137.999 79.6926 153.492 79.6926Z"
        fill="#407BFF" />
    <path opacity="0.7"
        d="M153.492 79.6926C168.984 79.6926 181.543 71.1452 181.543 60.6015C181.543 50.0578 168.984 41.5104 153.492 41.5104C137.999 41.5104 125.44 50.0578 125.44 60.6015C125.44 71.1452 137.999 79.6926 153.492 79.6926Z"
        fill="white" />
    <path
        d="M146.584 34.9493V70.5411C146.584 71.4731 146.954 72.3669 147.613 73.0259C148.272 73.6849 149.166 74.0551 150.098 74.0551H166.463C167.138 74.0533 167.8 73.8657 168.376 73.513C167.869 73.1975 167.451 72.7582 167.161 72.2365C166.872 71.7148 166.719 71.1279 166.719 70.5311V34.9393L146.584 34.9493Z"
        fill="#407BFF" />
    <path opacity="0.4"
        d="M146.584 34.9493V70.5411C146.584 71.4731 146.954 72.3669 147.613 73.0259C148.272 73.6849 149.166 74.0551 150.098 74.0551H166.463C167.138 74.0533 167.8 73.8657 168.376 73.513C167.869 73.1975 167.451 72.7582 167.161 72.2365C166.872 71.7148 166.719 71.1279 166.719 70.5311V34.9393L146.584 34.9493Z"
        fill="white" />
    <path d="M163.983 37.9714H152.257V38.5687H163.983V37.9714Z" fill="#407BFF" />
    <path d="M163.983 39.5727H149.4V40.1701H163.983V39.5727Z" fill="#407BFF" />
    <path d="M163.983 41.1691H149.4V41.7664H163.983V41.1691Z" fill="#407BFF" />
    <path d="M163.983 42.7705H149.4V43.3679H163.983V42.7705Z" fill="#407BFF" />
    <path d="M163.983 44.3718H149.4V44.9692H163.983V44.3718Z" fill="#407BFF" />
    <path d="M157.347 45.9732H149.4V46.5706H157.347V45.9732Z" fill="#407BFF" />
    <path d="M163.983 58.3324H152.257V58.9298H163.983V58.3324Z" fill="#407BFF" />
    <path d="M163.983 59.9339H149.4V60.5312H163.983V59.9339Z" fill="#407BFF" />
    <path d="M163.983 61.5302H149.4V62.1276H163.983V61.5302Z" fill="#407BFF" />
    <path d="M163.983 63.1316H149.4V63.729H163.983V63.1316Z" fill="#407BFF" />
    <path d="M163.983 64.7329H149.4V65.3303H163.983V64.7329Z" fill="#407BFF" />
    <path d="M161.815 66.3344H149.4V66.9317H161.815V66.3344Z" fill="#407BFF" />
    <path d="M163.983 49.171H152.257V49.7684H163.983V49.171Z" fill="#407BFF" />
    <path d="M163.983 50.7723H149.4V51.3697H163.983V50.7723Z" fill="#407BFF" />
    <path d="M163.983 52.3737H149.4V52.9711H163.983V52.3737Z" fill="#407BFF" />
    <path d="M163.983 53.9701H149.4V54.5674H163.983V53.9701Z" fill="#407BFF" />
    <path d="M157.347 55.3506H149.4V55.9479H157.347V55.3506Z" fill="#407BFF" />
    <path
        d="M141.745 37.7455L139.847 33.4232L139.862 33.4182L139.576 32.7556L139.551 32.7656L138.778 33.0919L136.564 34.0256L136.855 34.6832L139.069 33.7495L140.966 38.0768L141.745 37.7455Z"
        fill="#263238" />
    <path opacity="0.5"
        d="M141.745 37.7455L139.847 33.4232L139.862 33.4182L139.576 32.7556L139.551 32.7656L138.778 33.0919L136.564 34.0256L136.855 34.6832L139.069 33.7495L140.966 38.0768L141.745 37.7455Z"
        fill="white" />
    <path
        d="M140.821 49.7533C137.14 45.1918 134.976 40.2655 134.33 34.9744L137.342 33.7094C140.652 38.0483 142.877 43.1152 143.833 48.4882L140.821 49.7533Z"
        fill="#263238" />
    <path d="M146.965 63.7541L150.334 67.3584L149.977 62.489L146.965 63.7541Z" fill="#263238" />
    <path opacity="0.3"
        d="M146.965 63.7541L149.3 66.254L150.334 67.3584L149.977 62.489L146.965 63.7541Z"
        fill="white" />
    <path d="M149.36 66.3193L150.033 67.0371L150.334 67.3584L150.229 65.9528L149.36 66.3193Z"
        fill="#263238" />
    <path d="M146.966 63.7541L140.821 49.7533L143.828 48.4883L149.978 62.4891L146.966 63.7541Z"
        fill="#263238" />
    <path opacity="0.1"
        d="M146.966 63.7541L140.821 49.7533L143.828 48.4883L149.978 62.4891L146.966 63.7541Z"
        fill="white" />
    <path
        d="M134.33 34.9744L137.342 33.7094C137.342 33.7094 137.056 32.6451 135.49 33.2475C133.924 33.8499 134.33 34.9744 134.33 34.9744Z"
        fill="#263238" />
    <path opacity="0.1"
        d="M134.33 34.9744L137.342 33.7094C137.342 33.7094 137.056 32.6451 135.49 33.2475C133.924 33.8499 134.33 34.9744 134.33 34.9744Z"
        fill="white" />
    <path
        d="M167.256 166.162H205.594V174.194H167.241C167.591 171.528 167.596 168.829 167.256 166.162Z"
        fill="#407BFF" />
    <path opacity="0.7"
        d="M167.256 166.162H205.594V174.194H167.241C167.591 171.528 167.596 168.829 167.256 166.162Z"
        fill="white" />
    <path
        d="M199.324 173.878C200.318 172.883 200.876 171.534 200.876 170.128C200.876 168.722 200.318 167.373 199.324 166.378L198.606 165.66H210.654L210.78 165.781C211.931 166.933 212.577 168.496 212.577 170.125C212.577 171.755 211.931 173.317 210.78 174.47L210.654 174.596H198.606L199.324 173.878Z"
        fill="#407BFF" />
    <g opacity="0.3">
        <path
            d="M199.324 173.878C200.318 172.883 200.876 171.534 200.876 170.128C200.876 168.722 200.318 167.373 199.324 166.378L198.606 165.66H210.654L210.78 165.781C211.931 166.933 212.577 168.496 212.577 170.125C212.577 171.755 211.931 173.317 210.78 174.47L210.654 174.596H198.606L199.324 173.878Z"
            fill="black" />
    </g>
    <path
        d="M166.865 174.596H199.404L199.44 174.56C200.577 173.443 201.25 171.937 201.322 170.344C201.354 169.501 201.212 168.66 200.903 167.875C200.595 167.089 200.127 166.376 199.53 165.78L199.404 165.66H166.865C166.81 165.659 166.755 165.67 166.704 165.69C166.653 165.711 166.606 165.742 166.567 165.78C166.528 165.819 166.497 165.865 166.475 165.916C166.454 165.967 166.443 166.022 166.443 166.077C166.442 166.132 166.453 166.187 166.474 166.239C166.495 166.29 166.526 166.337 166.565 166.376C166.604 166.416 166.651 166.447 166.703 166.468C166.754 166.489 166.809 166.499 166.865 166.498H199.053C199.975 167.481 200.488 168.778 200.488 170.125C200.488 171.473 199.975 172.77 199.053 173.752H166.865C166.753 173.752 166.646 173.797 166.567 173.876C166.488 173.955 166.443 174.062 166.443 174.174C166.443 174.286 166.488 174.393 166.567 174.472C166.646 174.551 166.753 174.596 166.865 174.596Z"
        fill="#407BFF" />
    <path
        d="M170.264 169.174H172.106C172.19 169.174 172.27 169.141 172.329 169.081C172.389 169.022 172.422 168.942 172.422 168.858C172.422 168.774 172.389 168.694 172.329 168.634C172.27 168.575 172.19 168.542 172.106 168.542H170.264C170.18 168.542 170.099 168.575 170.04 168.634C169.981 168.694 169.947 168.774 169.947 168.858C169.947 168.942 169.981 169.022 170.04 169.081C170.099 169.141 170.18 169.174 170.264 169.174Z"
        fill="white" />
    <path
        d="M174.525 169.174H191.593C191.677 169.174 191.758 169.141 191.817 169.081C191.876 169.022 191.91 168.942 191.91 168.858C191.91 168.774 191.876 168.694 191.817 168.634C191.758 168.575 191.677 168.542 191.593 168.542H174.525C174.441 168.542 174.361 168.575 174.302 168.634C174.242 168.694 174.209 168.774 174.209 168.858C174.209 168.942 174.242 169.022 174.302 169.081C174.361 169.141 174.441 169.174 174.525 169.174Z"
        fill="white" />
    <path
        d="M193.933 169.174H197.718C197.802 169.174 197.882 169.141 197.941 169.081C198.001 169.022 198.034 168.942 198.034 168.858C198.034 168.774 198.001 168.694 197.941 168.634C197.882 168.575 197.802 168.542 197.718 168.542H193.933C193.849 168.542 193.768 168.575 193.709 168.634C193.65 168.694 193.616 168.774 193.616 168.858C193.616 168.942 193.65 169.022 193.709 169.081C193.768 169.141 193.849 169.174 193.933 169.174Z"
        fill="white" />
    <path
        d="M170.264 171.825H186.463C186.547 171.825 186.627 171.791 186.687 171.732C186.746 171.673 186.779 171.592 186.779 171.508C186.779 171.424 186.746 171.344 186.687 171.285C186.627 171.225 186.547 171.192 186.463 171.192H170.264C170.18 171.192 170.099 171.225 170.04 171.285C169.981 171.344 169.947 171.424 169.947 171.508C169.947 171.592 169.981 171.673 170.04 171.732C170.099 171.791 170.18 171.825 170.264 171.825Z"
        fill="white" />
    <path
        d="M188.832 171.825H197.718C197.802 171.825 197.882 171.791 197.941 171.732C198.001 171.673 198.034 171.592 198.034 171.508C198.034 171.424 198.001 171.344 197.941 171.285C197.882 171.225 197.802 171.192 197.718 171.192H188.832C188.748 171.192 188.668 171.225 188.609 171.285C188.549 171.344 188.516 171.424 188.516 171.508C188.516 171.592 188.549 171.673 188.609 171.732C188.668 171.791 188.748 171.825 188.832 171.825Z"
        fill="white" />
    <path
        d="M168.271 150.043H202.773V157.236H168.26C168.573 154.849 168.576 152.431 168.271 150.043Z"
        fill="#407BFF" />
    <path opacity="0.8"
        d="M168.271 150.043H202.773V157.236H168.26C168.573 154.849 168.576 152.431 168.271 150.043Z"
        fill="white" />
    <path
        d="M197.135 156.97C198.029 156.074 198.532 154.86 198.532 153.594C198.532 152.329 198.029 151.114 197.135 150.219L196.488 149.596H207.326L207.436 149.706C207.951 150.219 208.359 150.829 208.638 151.5C208.916 152.171 209.06 152.89 209.06 153.617C209.06 154.344 208.916 155.063 208.638 155.734C208.359 156.405 207.951 157.015 207.436 157.528L207.326 157.628H196.483L197.135 156.97Z"
        fill="#407BFF" />
    <g opacity="0.2">
        <path
            d="M197.135 156.97C198.029 156.074 198.532 154.86 198.532 153.594C198.532 152.329 198.029 151.114 197.135 150.219L196.488 149.596H207.326L207.436 149.706C207.951 150.219 208.359 150.829 208.638 151.5C208.916 152.171 209.06 152.89 209.06 153.617C209.06 154.344 208.916 155.063 208.638 155.734C208.359 156.405 207.951 157.015 207.436 157.528L207.326 157.628H196.483L197.135 156.97Z"
            fill="white" />
    </g>
    <path
        d="M167.919 157.628H197.206L197.236 157.598C198.261 156.595 198.867 155.24 198.932 153.808C198.962 153.048 198.834 152.29 198.556 151.582C198.278 150.875 197.855 150.233 197.316 149.696L197.206 149.586H167.919C167.818 149.586 167.721 149.626 167.649 149.698C167.578 149.769 167.537 149.866 167.537 149.968C167.539 150.068 167.579 150.164 167.651 150.234C167.722 150.305 167.819 150.344 167.919 150.344H196.889C197.717 151.229 198.177 152.396 198.177 153.607C198.177 154.819 197.717 155.985 196.889 156.87H167.919C167.869 156.869 167.82 156.879 167.773 156.897C167.727 156.916 167.685 156.944 167.649 156.979C167.614 157.014 167.586 157.055 167.567 157.101C167.547 157.147 167.537 157.197 167.537 157.247C167.537 157.297 167.546 157.347 167.565 157.393C167.584 157.44 167.612 157.482 167.648 157.518C167.683 157.553 167.726 157.581 167.772 157.6C167.819 157.619 167.869 157.629 167.919 157.628Z"
        fill="#407BFF" />
    <g opacity="0.4">
        <path
            d="M167.919 157.628H197.206L197.236 157.598C198.261 156.595 198.867 155.24 198.932 153.808C198.962 153.048 198.834 152.29 198.556 151.582C198.278 150.875 197.855 150.233 197.316 149.696L197.206 149.586H167.919C167.818 149.586 167.721 149.626 167.649 149.698C167.578 149.769 167.537 149.866 167.537 149.968C167.539 150.068 167.579 150.164 167.651 150.234C167.722 150.305 167.819 150.344 167.919 150.344H196.889C197.717 151.229 198.177 152.396 198.177 153.607C198.177 154.819 197.717 155.985 196.889 156.87H167.919C167.869 156.869 167.82 156.879 167.773 156.897C167.727 156.916 167.685 156.944 167.649 156.979C167.614 157.014 167.586 157.055 167.567 157.101C167.547 157.147 167.537 157.197 167.537 157.247C167.537 157.297 167.546 157.347 167.565 157.393C167.584 157.44 167.612 157.482 167.648 157.518C167.683 157.553 167.726 157.581 167.772 157.6C167.819 157.619 167.869 157.629 167.919 157.628Z"
            fill="white" />
    </g>
    <path
        d="M170.981 152.724H172.638C172.712 152.724 172.784 152.694 172.837 152.641C172.889 152.588 172.919 152.517 172.919 152.442C172.92 152.405 172.913 152.368 172.899 152.333C172.885 152.299 172.865 152.267 172.838 152.24C172.812 152.214 172.781 152.193 172.747 152.178C172.712 152.164 172.675 152.156 172.638 152.156H170.981C170.905 152.156 170.833 152.186 170.779 152.24C170.725 152.294 170.695 152.367 170.695 152.442C170.696 152.517 170.727 152.589 170.781 152.641C170.834 152.694 170.906 152.724 170.981 152.724Z"
        fill="white" />
    <path
        d="M174.816 152.724H190.198C190.273 152.724 190.345 152.694 190.398 152.641C190.452 152.589 190.483 152.517 190.484 152.442C190.484 152.367 190.454 152.294 190.4 152.24C190.346 152.186 190.274 152.156 190.198 152.156H174.816C174.779 152.156 174.741 152.163 174.706 152.177C174.671 152.191 174.639 152.212 174.613 152.239C174.586 152.265 174.565 152.297 174.551 152.332C174.537 152.367 174.53 152.405 174.53 152.442C174.53 152.48 174.538 152.517 174.552 152.551C174.567 152.586 174.588 152.617 174.614 152.643C174.641 152.669 174.673 152.69 174.707 152.704C174.742 152.717 174.779 152.724 174.816 152.724Z"
        fill="white" />
    <path
        d="M192.266 152.724H195.674C195.749 152.724 195.821 152.694 195.873 152.641C195.926 152.588 195.956 152.517 195.956 152.442C195.956 152.405 195.949 152.368 195.936 152.333C195.922 152.299 195.901 152.267 195.875 152.24C195.849 152.214 195.818 152.193 195.783 152.178C195.749 152.164 195.712 152.156 195.674 152.156H192.266C192.19 152.156 192.117 152.186 192.064 152.24C192.01 152.294 191.98 152.367 191.98 152.442C191.981 152.517 192.012 152.589 192.065 152.641C192.119 152.694 192.191 152.724 192.266 152.724Z"
        fill="white" />
    <path
        d="M170.981 155.118H185.539C185.615 155.118 185.688 155.088 185.742 155.034C185.795 154.981 185.825 154.908 185.825 154.832C185.824 154.757 185.793 154.685 185.74 154.633C185.686 154.58 185.614 154.551 185.539 154.551H170.981C170.906 154.551 170.834 154.58 170.781 154.633C170.727 154.685 170.696 154.757 170.695 154.832C170.695 154.908 170.725 154.981 170.779 155.034C170.833 155.088 170.905 155.118 170.981 155.118Z"
        fill="white" />
    <path
        d="M187.688 155.118H195.69C195.727 155.118 195.764 155.111 195.799 155.096C195.833 155.082 195.864 155.061 195.89 155.034C195.917 155.007 195.937 154.976 195.951 154.941C195.965 154.906 195.972 154.869 195.971 154.832C195.971 154.757 195.941 154.686 195.889 154.633C195.836 154.58 195.764 154.551 195.69 154.551H187.688C187.613 154.551 187.542 154.58 187.489 154.633C187.436 154.686 187.407 154.757 187.407 154.832C187.406 154.869 187.413 154.906 187.427 154.941C187.441 154.976 187.461 155.007 187.487 155.034C187.513 155.061 187.545 155.082 187.579 155.096C187.614 155.111 187.651 155.118 187.688 155.118Z"
        fill="white" />
    <path
        d="M167.056 158.085H201.558V165.279H167.046C167.358 162.891 167.361 160.473 167.056 158.085Z"
        fill="#407BFF" />
    <path opacity="0.7"
        d="M167.056 158.085H201.558V165.279H167.046C167.358 162.891 167.361 160.473 167.056 158.085Z"
        fill="white" />
    <path
        d="M195.92 165.013C196.815 164.117 197.317 162.902 197.317 161.637C197.317 160.371 196.815 159.157 195.92 158.261L195.278 157.628H206.121L206.231 157.744C206.745 158.256 207.153 158.866 207.431 159.536C207.709 160.207 207.852 160.926 207.852 161.652C207.852 162.378 207.709 163.096 207.431 163.767C207.153 164.438 206.745 165.047 206.231 165.56L206.121 165.675H195.278L195.92 165.013Z"
        fill="#407BFF" />
    <path
        d="M166.704 165.66H195.991L196.021 165.625C197.046 164.622 197.652 163.267 197.718 161.835C197.748 161.076 197.62 160.318 197.342 159.611C197.063 158.904 196.641 158.263 196.101 157.728L195.991 157.613H166.704C166.603 157.613 166.506 157.653 166.434 157.725C166.363 157.796 166.323 157.893 166.323 157.995C166.323 158.044 166.332 158.094 166.352 158.14C166.371 158.186 166.399 158.228 166.435 158.263C166.47 158.298 166.512 158.325 166.558 158.344C166.605 158.362 166.654 158.372 166.704 158.371H195.674C196.502 159.256 196.962 160.423 196.962 161.634C196.962 162.846 196.502 164.012 195.674 164.897H166.704C166.654 164.896 166.605 164.906 166.558 164.924C166.512 164.943 166.47 164.97 166.435 165.006C166.399 165.041 166.371 165.082 166.352 165.128C166.332 165.174 166.323 165.224 166.323 165.274C166.322 165.324 166.331 165.374 166.35 165.421C166.369 165.468 166.397 165.511 166.432 165.547C166.468 165.582 166.51 165.611 166.557 165.631C166.604 165.65 166.654 165.66 166.704 165.66Z"
        fill="#407BFF" />
    <g opacity="0.3">
        <path
            d="M166.704 165.66H195.991L196.021 165.625C197.046 164.622 197.652 163.267 197.718 161.835C197.748 161.076 197.62 160.318 197.342 159.611C197.063 158.904 196.641 158.263 196.101 157.728L195.991 157.613H166.704C166.603 157.613 166.506 157.653 166.434 157.725C166.363 157.796 166.323 157.893 166.323 157.995C166.323 158.044 166.332 158.094 166.352 158.14C166.371 158.186 166.399 158.228 166.435 158.263C166.47 158.298 166.512 158.325 166.558 158.344C166.605 158.362 166.654 158.372 166.704 158.371H195.674C196.502 159.256 196.962 160.423 196.962 161.634C196.962 162.846 196.502 164.012 195.674 164.897H166.704C166.654 164.896 166.605 164.906 166.558 164.924C166.512 164.943 166.47 164.97 166.435 165.006C166.399 165.041 166.371 165.082 166.352 165.128C166.332 165.174 166.323 165.224 166.323 165.274C166.322 165.324 166.331 165.374 166.35 165.421C166.369 165.468 166.397 165.511 166.432 165.547C166.468 165.582 166.51 165.611 166.557 165.631C166.604 165.65 166.654 165.66 166.704 165.66Z"
            fill="white" />
    </g>
    <path
        d="M194.475 162.598H192.818C192.743 162.598 192.671 162.627 192.618 162.68C192.564 162.732 192.533 162.804 192.532 162.879C192.532 162.955 192.562 163.028 192.616 163.081C192.669 163.135 192.742 163.165 192.818 163.165H194.475C194.512 163.165 194.549 163.158 194.583 163.143C194.618 163.129 194.649 163.108 194.675 163.081C194.701 163.054 194.722 163.023 194.736 162.988C194.75 162.953 194.757 162.916 194.756 162.879C194.756 162.804 194.726 162.733 194.674 162.68C194.621 162.627 194.549 162.598 194.475 162.598Z"
        fill="white" />
    <path
        d="M190.64 162.598H175.258C175.221 162.597 175.184 162.604 175.149 162.618C175.115 162.632 175.083 162.652 175.056 162.678C175.03 162.705 175.009 162.736 174.994 162.77C174.98 162.805 174.972 162.842 174.972 162.879C174.972 162.917 174.978 162.954 174.993 162.989C175.007 163.024 175.028 163.056 175.055 163.083C175.081 163.109 175.113 163.131 175.148 163.145C175.183 163.159 175.221 163.166 175.258 163.165H190.64C190.716 163.165 190.788 163.135 190.842 163.081C190.896 163.028 190.926 162.955 190.926 162.879C190.924 162.804 190.894 162.732 190.84 162.68C190.787 162.627 190.715 162.598 190.64 162.598Z"
        fill="white" />
    <path
        d="M173.19 162.598H169.781C169.706 162.598 169.634 162.627 169.581 162.68C169.527 162.732 169.496 162.804 169.495 162.879C169.495 162.955 169.525 163.028 169.579 163.081C169.633 163.135 169.705 163.165 169.781 163.165H173.19C173.227 163.165 173.264 163.158 173.299 163.143C173.333 163.129 173.364 163.108 173.39 163.081C173.417 163.054 173.437 163.023 173.451 162.988C173.465 162.953 173.472 162.916 173.471 162.879C173.471 162.804 173.441 162.733 173.389 162.68C173.336 162.627 173.264 162.598 173.19 162.598Z"
        fill="white" />
    <path
        d="M194.475 160.198H179.917C179.879 160.198 179.842 160.205 179.807 160.219C179.771 160.233 179.74 160.254 179.713 160.281C179.686 160.307 179.665 160.339 179.651 160.374C179.637 160.409 179.63 160.447 179.631 160.484C179.631 160.522 179.638 160.559 179.653 160.593C179.667 160.628 179.688 160.659 179.715 160.685C179.741 160.711 179.773 160.732 179.808 160.746C179.842 160.759 179.879 160.766 179.917 160.766H194.475C194.549 160.766 194.621 160.736 194.674 160.683C194.726 160.63 194.756 160.559 194.756 160.484C194.757 160.447 194.75 160.41 194.736 160.375C194.722 160.341 194.702 160.309 194.675 160.282C194.649 160.256 194.618 160.235 194.584 160.22C194.549 160.206 194.512 160.198 194.475 160.198Z"
        fill="white" />
    <path
        d="M177.763 160.198H169.766C169.69 160.198 169.618 160.228 169.564 160.282C169.51 160.336 169.48 160.409 169.48 160.484C169.482 160.559 169.512 160.631 169.566 160.684C169.619 160.736 169.691 160.766 169.766 160.766H177.763C177.801 160.766 177.838 160.759 177.872 160.746C177.907 160.732 177.939 160.711 177.965 160.685C177.992 160.659 178.013 160.628 178.028 160.593C178.042 160.559 178.049 160.522 178.049 160.484C178.05 160.447 178.043 160.409 178.029 160.374C178.015 160.339 177.994 160.307 177.967 160.281C177.94 160.254 177.909 160.233 177.874 160.219C177.839 160.205 177.801 160.198 177.763 160.198Z"
        fill="white" />
    <path
        d="M128.1 117.538L135.164 121.103C137.538 122.282 139.917 123.452 142.297 124.566C144.676 125.681 147.056 126.74 149.405 127.719C150.585 128.221 151.755 128.653 152.919 129.059C154.084 129.466 155.188 129.827 156.207 130.063C156.709 130.194 157.186 130.289 157.583 130.349C157.784 130.38 157.583 130.349 157.482 130.38C157.432 130.383 157.383 130.395 157.337 130.415C157.302 130.415 157.337 130.415 157.337 130.44C157.379 130.443 157.421 130.443 157.462 130.44C157.821 130.366 158.173 130.258 158.512 130.118C158.992 129.925 159.461 129.705 159.917 129.461C160.921 128.959 161.925 128.301 162.994 127.634C164.064 126.966 165.098 126.233 166.147 125.47C170.369 122.458 174.576 119.034 178.767 115.731L183.421 120.033C181.784 122.378 180.067 124.551 178.25 126.695C176.433 128.838 174.53 130.917 172.492 132.945C170.385 135.07 168.099 137.012 165.66 138.748C164.967 139.234 164.25 139.685 163.511 140.098C162.643 140.591 161.731 141.001 160.786 141.323C160.53 141.418 160.213 141.504 159.927 141.584C159.641 141.664 159.3 141.735 158.923 141.79C158.54 141.855 158.152 141.897 157.764 141.915C157.342 141.915 156.76 141.915 156.639 141.915C155.68 141.86 154.807 141.755 153.973 141.624C152.417 141.376 150.875 141.041 149.355 140.62C147.906 140.209 146.495 139.77 145.123 139.305C142.367 138.376 139.732 137.297 137.126 136.223C134.521 135.149 131.981 133.954 129.471 132.709C128.216 132.096 126.961 131.479 125.726 130.826C124.491 130.174 123.281 129.526 121.996 128.818L128.1 117.538Z"
        fill="#E4897B" />
    <path opacity="0.2" d="M190.133 102.157L191.423 101.63L191.603 101.253L190.133 102.157Z"
        fill="black" />
    <path
        d="M193.14 100.741L188.993 103.02L185.329 105.079L192.522 111.032C192.522 111.032 194.53 107.518 194.836 106.098C194.982 105.385 193.14 100.741 193.14 100.741Z"
        fill="#E4897B" />
    <path
        d="M184.395 104.416C184.89 103.392 185.445 102.398 186.056 101.439C186.408 101.093 191.925 101.258 191.925 101.258L191.031 101.906L188.802 103.914L186.553 105.947L184.395 104.416Z"
        fill="#E4897B" />
    <path
        d="M178.662 116.037L184.395 104.416L192.708 110.33C192.708 110.33 190.76 119.672 183.23 120.068L178.662 116.037Z"
        fill="#E4897B" />
    <path d="M194.384 99.0676L170.894 113.438L171.599 114.59L195.088 100.22L194.384 99.0676Z"
        fill="#263238" />
    <path d="M195.946 100.184L198.27 97.9653L195.238 99.0296L195.946 100.184Z" fill="#263238" />
    <path opacity="0.3"
        d="M195.946 100.184L197.557 98.6481L198.27 97.9653L195.238 99.0296L195.946 100.184Z"
        fill="white" />
    <path d="M197.602 98.6079L198.064 98.1611L198.27 97.9653L197.396 98.2716L197.602 98.6079Z"
        fill="#263238" />
    <path opacity="0.2"
        d="M183.501 106.213L182.382 108.487L181.669 108.924L182.663 106.73L183.501 106.213Z"
        fill="black" />
    <path opacity="0.2"
        d="M187.587 103.713L187.111 105.606L186.553 105.947L183.843 106.846L184.174 105.802L187.587 103.713Z"
        fill="black" />
    <path opacity="0.2"
        d="M186.553 105.947L184.114 106.811L182.302 109.321L184.31 115.169C186.724 113.096 186.629 111.283 185.188 109.612L184.335 108.608C185.655 108.066 186.89 107.483 187.472 106.6L190.243 103.994C192.251 103.101 193.406 102.293 193.571 101.856L193.541 101.69L190.078 103.809L186.553 105.947Z"
        fill="black" />
    <path
        d="M178.662 116.037C178.662 116.037 178.27 112.262 178.837 110.515C179.405 108.768 182.412 106.223 182.914 105.666C183.416 105.109 186.779 104.577 186.779 104.577C186.608 105.365 186.277 106.017 185.509 106.263L184.113 106.831L182.301 109.341C182.301 109.341 185.313 111.143 185.353 112.559C185.394 113.974 181.804 118.849 181.804 118.849L178.662 116.037Z"
        fill="#E4897B" />
    <path
        d="M102.724 115.636C104.552 132.603 132.081 137.935 132.081 137.935L137.744 120.149C137.744 120.149 128.733 113.121 119.521 107.428C109.873 101.464 101.761 106.7 102.724 115.636Z"
        fill="#407BFF" />
    <path opacity="0.2"
        d="M129.421 137.302C126.037 134.225 123.693 129.682 122.081 124.115L120.194 134.114C123.186 135.404 126.27 136.47 129.421 137.302Z"
        fill="black" />
    <path
        d="M118.186 106.344C118.186 106.344 128.462 132.829 118.522 182.091L71.6455 181.975C71.3393 174.781 74.5973 141.097 67.74 107.177C67.74 107.177 69.6627 104.828 84.808 103.829C90.7868 103.432 99.4664 103.387 104.732 103.879C109.274 104.349 113.772 105.173 118.186 106.344Z"
        fill="#407BFF" />
    <path opacity="0.6"
        d="M122.749 147.387C122.689 149.179 122.599 151.022 122.473 152.909C122.373 154.45 122.257 156.032 122.117 157.648C121.943 159.576 121.733 161.557 121.489 163.592C121.298 165.253 121.077 166.945 120.837 168.672C120.539 170.757 120.204 172.889 119.833 175.068C119.448 177.347 119.013 179.689 118.527 182.096L71.6506 181.985C71.5853 180.419 71.6857 177.598 71.8162 173.797C71.8714 172.291 71.9267 170.595 71.9769 168.777C72.017 167.457 72.0522 166.052 72.0773 164.591C72.1124 162.964 72.1425 161.252 72.1526 159.46C72.1526 158.071 72.1526 156.636 72.1526 155.153C72.1526 153.441 72.1225 151.674 72.0873 149.862C72.0873 148.517 72.0221 147.151 71.9769 145.761C71.8162 140.816 71.515 135.58 71.0281 130.164C70.3465 122.45 69.2489 114.778 67.74 107.182C67.74 107.182 69.6627 104.833 84.808 103.834C90.7918 103.437 99.4664 103.387 104.732 103.884C109.281 104.356 113.785 105.18 118.206 106.349C118.206 106.349 123.683 120.505 122.749 147.387Z"
        fill="#FAFAFA" />
    <path opacity="0.2"
        d="M76.8663 128.01C76.8663 128.01 76.4497 139.195 71.9769 145.766C71.8162 140.821 71.515 135.585 71.0281 130.169C72.8554 128.768 74.8483 127.94 76.8663 128.01Z"
        fill="black" />
    <path
        d="M84.1804 83.1513C86.0328 89.4213 88.3771 100.997 84.3109 105.676C90.6713 107.684 95.2445 109.039 100.877 113.206C102.353 109.115 104.155 103.809 104.155 103.809C96.876 102.775 96.5648 97.4784 97.3429 92.4032L84.1804 83.1513Z"
        fill="#E4897B" />
    <path opacity="0.2"
        d="M89.5469 86.9314L97.3279 92.4082C97.131 93.5893 97.0369 94.7852 97.0468 95.9825C94.2908 95.8469 90.2748 93.2114 89.7226 90.3902C89.452 89.2578 89.3924 88.0853 89.5469 86.9314Z"
        fill="black" />
    <path
        d="M78.8594 104.306L83.3523 100.084L95.3852 104.215L100.646 112.302L102.614 104.105L105.33 101.65L110.094 104.567L109.361 109.762L105.912 108.076L101.756 114.888L92.4485 109.426L89.8582 111.916L78.8594 104.306Z"
        fill="#407BFF" />
    <path opacity="0.2"
        d="M101.755 114.888L104.18 106.374L109.361 109.762L105.912 108.076L101.755 114.888Z"
        fill="black" />
    <path opacity="0.2"
        d="M101.756 114.888L93.5529 106.856L89.8582 111.916L92.4485 109.426L101.756 114.888Z"
        fill="black" />
    <path
        d="M87.1723 125.184L92.1923 131.288C93.8991 133.321 95.6059 135.344 97.3379 137.312C99.0697 139.28 100.827 141.218 102.584 143.06C103.467 143.984 104.356 144.859 105.249 145.685C106.138 146.514 107.016 147.307 107.85 147.944C108.261 148.266 108.658 148.542 108.994 148.758C109.17 148.868 108.994 148.758 108.889 148.758C108.843 148.738 108.793 148.728 108.743 148.728C108.703 148.728 108.743 148.728 108.743 148.753C108.743 148.778 108.793 148.783 108.864 148.793C109.222 148.867 109.587 148.907 109.953 148.913C110.47 148.93 110.988 148.92 111.504 148.883C112.624 148.808 113.829 148.627 115.058 148.436C116.288 148.246 117.568 148 118.813 147.724C123.889 146.659 129.265 145.716 134.431 144.355L136.82 149.681C134.375 151.187 131.936 152.462 129.411 153.697C126.886 154.932 124.305 156.072 121.625 157.106C118.841 158.209 115.967 159.071 113.035 159.681C112.242 159.832 111.414 159.962 110.525 160.053C109.524 160.156 108.516 160.166 107.513 160.083C107.242 160.083 106.916 160.013 106.62 159.972C106.324 159.932 105.987 159.862 105.616 159.762C105.239 159.666 104.869 159.549 104.506 159.41C104.164 159.27 103.829 159.113 103.502 158.938C102.705 158.534 101.929 158.088 101.178 157.603C99.8546 156.746 98.5808 155.814 97.363 154.812C96.1916 153.855 95.0755 152.886 94.0146 151.905C91.861 149.952 89.8681 147.919 87.9253 145.881C85.9826 143.843 84.1252 141.735 82.318 139.601C81.4144 138.537 80.5158 137.468 79.6474 136.373C78.7789 135.279 77.9255 134.2 77.042 133.025L87.1723 125.184Z"
        fill="#E4897B" />
    <path
        d="M64.3263 112.644C59.1908 128.919 82.2627 144.857 82.2627 144.857L94.5918 130.836C94.5918 130.836 89.1602 120.796 83.0057 111.876C76.56 102.534 67.032 104.075 64.3263 112.644Z"
        fill="#407BFF" />
    <path
        d="M133.733 144.576C133.733 144.576 136.057 140.977 137.026 140.409C137.995 139.842 142.161 137.207 142.161 137.207L146.534 140.058L145.711 140.937L142.197 140.776L139.636 141.695L138.768 145.876L135.063 150.259L133.733 144.576Z"
        fill="#E4897B" />
    <path opacity="0.2"
        d="M143.843 139.114L143.512 139.004L142.307 139.496L143.035 139.546L143.843 139.114Z"
        fill="black" />
    <path
        d="M150.168 122.142L151.554 120.184C157.944 122.363 167.452 124.145 168.09 126.338C167.648 124.451 172.904 123.778 176.071 122.538L177.126 122.945L168.381 134.832L150.168 122.142Z"
        fill="#407BFF" />
    <path opacity="0.6"
        d="M150.168 122.142L151.554 120.184C157.944 122.363 167.452 124.145 168.09 126.338C167.648 124.451 172.904 123.778 176.071 122.538L177.126 122.945L168.381 134.832L150.168 122.142Z"
        fill="white" />
    <path
        d="M148.627 120.119L135.751 153.768L153.492 161.95L156.976 161.694L164.752 156.338L177.773 122.297L170.158 127.252L166.835 127.086L148.627 120.119Z"
        fill="#263238" />
    <path opacity="0.3"
        d="M148.627 120.119L135.751 153.768L153.492 161.95L166.835 127.086L148.627 120.119Z"
        fill="white" />
    <path opacity="0.3"
        d="M170.158 127.252L156.975 161.694L164.751 156.338L177.773 122.297L170.158 127.252Z"
        fill="white" />
    <path opacity="0.1"
        d="M153.491 161.95L156.975 161.694L170.158 127.252L166.835 127.086L153.491 161.95Z"
        fill="white" />
    <path
        d="M152.939 142.126C152.939 142.101 152.939 142.046 152.819 141.931C152.317 141.429 148.06 137.232 147.719 137.232C147.377 137.232 133.733 144.576 133.733 144.576L135.063 150.294C141.208 154.199 147.924 147.824 147.924 147.824L149.681 146.393C149.681 146.393 151.122 147.217 151.554 147.176C151.79 147.136 153.256 142.859 152.939 142.126ZM145.731 141.499L146.273 143.055L147.448 146.444L145.731 141.499Z"
        fill="#E4897B" />
    <path
        d="M107.428 54.7181C107.428 54.7181 112.523 67.8855 106.424 74.7278C100.325 81.5701 94.7324 56.2241 94.7324 56.2241L107.428 54.7181Z"
        fill="#263238" />
    <path
        d="M87.85 90.2145C92.4784 94.4815 98.4974 94.5317 103.116 91.856C106.221 90.0589 108.525 87.1451 109.556 83.7086C109.706 83.2322 109.828 82.7478 109.923 82.2578C111.635 73.1364 109.531 58.3224 99.5165 54.8134C97.3073 54.0278 94.9338 53.8205 92.6219 54.2114C90.3101 54.6023 88.1367 55.5784 86.3086 57.0467C84.4806 58.5149 83.0587 60.4266 82.1782 62.5998C81.2978 64.7729 80.9882 67.1352 81.2788 69.4618C82.328 79.4365 82.5087 85.3401 87.85 90.2145Z"
        fill="#E4897B" />
    <path
        d="M96.6098 71.515C96.6098 72.3232 97.1118 72.9657 97.649 72.9406C98.1861 72.9155 98.5827 72.2228 98.5476 71.4095C98.5124 70.5963 98.0456 69.9588 97.5084 69.9839C96.9713 70.009 96.5747 70.6867 96.6098 71.515Z"
        fill="#263238" />
    <path
        d="M105.837 71.0582C105.837 71.8714 106.339 72.5139 106.876 72.4838C107.413 72.4537 107.804 71.771 107.769 70.9778C107.734 70.1847 107.267 69.522 106.73 69.5522C106.193 69.5823 105.802 70.2801 105.837 71.0582Z"
        fill="#263238" />
    <path
        d="M102.91 71.6053C104.004 74.0528 105.431 76.3369 107.152 78.3924C106.611 78.8207 105.983 79.1257 105.312 79.2861C104.641 79.4466 103.943 79.4585 103.267 79.3211L102.91 71.6053Z"
        fill="#DE5753" />
    <path
        d="M93.603 68.6686C93.691 68.6768 93.7795 68.6616 93.8597 68.6246C93.9399 68.5876 94.0089 68.53 94.0598 68.4578C94.386 67.9522 94.8261 67.5299 95.3447 67.2248C95.8634 66.9197 96.4463 66.7403 97.0467 66.7008C97.1471 66.6678 97.2346 66.6039 97.2966 66.5183C97.3586 66.4327 97.392 66.3296 97.392 66.2239C97.392 66.1182 97.3586 66.0152 97.2966 65.9295C97.2346 65.8439 97.1471 65.78 97.0467 65.747C96.2875 65.7792 95.547 65.9924 94.8868 66.3687C94.2267 66.7451 93.666 67.2737 93.2516 67.9106C93.1829 68.0151 93.1556 68.1414 93.1751 68.2649C93.1946 68.3883 93.2595 68.5001 93.357 68.5783C93.4322 68.6244 93.5158 68.6551 93.603 68.6686Z"
        fill="#263238" />
    <path
        d="M109.642 67.6847C109.735 67.7125 109.835 67.7125 109.928 67.6847C110.035 67.6206 110.115 67.5186 110.151 67.3988C110.188 67.279 110.178 67.15 110.124 67.0371C109.771 66.3631 109.262 65.7835 108.639 65.3468C108.017 64.9101 107.298 64.629 106.544 64.5271C106.421 64.5262 106.302 64.5708 106.209 64.6522C106.117 64.7337 106.057 64.8464 106.042 64.9689C106.041 65.0914 106.085 65.2102 106.166 65.3026C106.246 65.3951 106.358 65.4549 106.479 65.4709C107.074 65.5679 107.638 65.8034 108.126 66.1583C108.613 66.5132 109.01 66.9775 109.285 67.514C109.33 67.5651 109.385 67.6066 109.446 67.6359C109.507 67.6652 109.574 67.6818 109.642 67.6847Z"
        fill="#263238" />
    <path
        d="M88.0006 56.5955L88.9645 60.9479C88.2552 61.3756 87.7332 62.0549 87.5025 62.8504C87.2717 63.6459 87.3492 64.4991 87.7195 65.24C89.4966 68.8042 87.9554 74.7478 85.34 77.3181C85.34 77.3181 85.094 75.7217 83.7788 76.2338C82.4636 76.7458 83.6483 85.0589 86.6753 88.7838C86.6753 88.7838 82.3331 85.5659 79.2257 77.0169C76.3492 69.1104 75.4356 62.3786 76.796 59.0804L88.0006 56.5955Z"
        fill="#263238" />
    <path
        d="M77.3079 77.8904C78.5301 80.104 80.5813 81.7417 83.0106 82.4435C86.2284 83.3521 87.8499 80.4706 86.9663 77.4235C86.1581 74.7227 83.5176 70.8975 80.2747 71.3694C77.0318 71.8413 75.8019 75.1595 77.3079 77.8904Z"
        fill="#E4897B" />
    <path
        d="M88.9644 60.9479C88.9644 60.9479 106.288 63.7089 109.135 55.8626C111.981 48.0164 100.224 43.4632 98.3669 44.407C96.5095 45.3507 98.9191 47.173 98.9191 47.173C98.9191 47.173 87.8198 44.2112 85.9725 45.918C84.1251 47.6248 88.4373 48.1117 88.4373 48.1117C88.4373 48.1117 70.2398 51.1237 76.1935 62.2079C80.1576 60.2559 84.6953 59.8082 88.9644 60.9479Z"
        fill="#263238" />
    <path
        d="M102.96 82.1473C102.289 83.5047 101.717 84.909 101.248 86.3491C100.987 86.3139 100.721 86.2738 100.46 86.2236C96.886 85.6362 95.4403 84.1804 94.8831 82.7447C94.6351 82.0399 94.561 81.2855 94.6672 80.5459C94.7106 80.1235 94.8137 79.7095 94.9734 79.316C96.6852 80.7618 99.9934 81.57 101.745 81.9264C102.488 82.0871 102.96 82.1473 102.96 82.1473Z"
        fill="#263238" />
    <path
        d="M101.746 81.9264L101.208 83.1513C97.845 82.5891 95.5508 81.7407 94.6824 80.5459C94.7258 80.1236 94.8289 79.7095 94.9886 79.316C96.6854 80.7618 99.9734 81.57 101.746 81.9264Z"
        fill="white" />
    <path
        d="M100.46 86.2235C96.886 85.6362 95.4403 84.1804 94.8831 82.7447C96.2385 82.9959 97.5387 83.4854 98.7234 84.1905C99.5 84.6707 100.107 85.3814 100.46 86.2235Z"
        fill="#DD5753" />
    <path
        d="M97.7493 76.5049C97.3774 76.577 96.9976 76.599 96.6198 76.5701C95.5912 76.4861 94.6328 76.015 93.938 75.252C93.2431 74.489 92.8635 73.4908 92.8758 72.4589C92.8881 71.427 93.2913 70.4381 94.0041 69.6919C94.717 68.9456 95.6863 68.4975 96.7166 68.438C97.7469 68.3784 98.7614 68.7119 99.5554 69.3711C100.349 70.0303 100.864 70.9661 100.995 71.9898C101.126 73.0134 100.864 74.0487 100.262 74.8867C99.6592 75.7246 98.7614 76.3029 97.7493 76.5049ZM96.1781 68.6887C95.5327 68.8201 94.9315 69.1138 94.4311 69.5421C93.7522 70.1223 93.2954 70.9199 93.1386 71.7991C92.9818 72.6783 93.1346 73.5846 93.5711 74.3638C94.0076 75.1429 94.7008 75.7465 95.5324 76.0719C96.3641 76.3973 97.2828 76.4243 98.1322 76.1483C98.9815 75.8722 99.7089 75.3103 100.19 74.5581C100.672 73.806 100.878 72.9101 100.773 72.0233C100.668 71.1364 100.258 70.3133 99.6148 69.6943C98.971 69.0753 98.1326 68.6987 97.2423 68.6285C96.8865 68.598 96.5282 68.6183 96.1781 68.6887Z"
        fill="#263238" />
    <path
        d="M108.281 75.7267C107.913 75.8015 107.536 75.8234 107.162 75.792C106.075 75.7074 105.067 75.1948 104.359 74.3668C103.65 73.5388 103.3 72.4633 103.384 71.3769C103.469 70.2905 103.981 69.2822 104.809 68.5737C105.637 67.8653 106.713 67.5148 107.799 67.5994C108.886 67.6852 109.894 68.1985 110.603 69.0267C111.311 69.8548 111.663 70.9302 111.579 72.017C111.509 72.9102 111.149 73.7561 110.553 74.4258C109.958 75.0954 109.16 75.5523 108.281 75.7267ZM106.72 67.9106C105.756 68.1004 104.899 68.6491 104.324 69.4459C103.748 70.2428 103.496 71.2283 103.619 72.2035C103.742 73.1787 104.231 74.0709 104.986 74.6999C105.741 75.3289 106.707 75.6478 107.689 75.5923C108.67 75.5367 109.594 75.1108 110.273 74.4006C110.953 73.6904 111.337 72.7488 111.35 71.7659C111.362 70.7831 111 69.8322 110.339 69.1055C109.677 68.3787 108.764 67.9301 107.784 67.8504C107.428 67.8249 107.071 67.8451 106.72 67.9106Z"
        fill="#263238" />
    <path
        d="M103.522 71.9166C103.498 71.9214 103.473 71.9193 103.45 71.9104C103.427 71.9015 103.407 71.8862 103.392 71.8664C103.311 71.7246 103.199 71.603 103.064 71.5109C102.929 71.4187 102.775 71.3583 102.614 71.3342C101.836 71.2439 100.982 72.027 100.972 72.032C100.949 72.055 100.917 72.0679 100.884 72.0679C100.852 72.0679 100.82 72.055 100.797 72.032C100.785 72.0208 100.775 72.0071 100.768 71.992C100.762 71.9769 100.759 71.9606 100.759 71.9442C100.759 71.9277 100.762 71.9114 100.768 71.8963C100.775 71.8812 100.785 71.8676 100.797 71.8563C100.837 71.8162 101.745 70.9828 102.639 71.0933C102.837 71.1199 103.026 71.1911 103.192 71.3016C103.358 71.412 103.497 71.5588 103.598 71.7308C103.615 71.7591 103.622 71.793 103.615 71.8257C103.609 71.8583 103.59 71.8873 103.563 71.9065C103.55 71.9133 103.536 71.9168 103.522 71.9166Z"
        fill="#263238" />
    <path
        d="M92.9955 72.288H92.9654L84.1904 72.2077C84.1572 72.2077 84.1252 72.1945 84.1017 72.171C84.0782 72.1474 84.0649 72.1155 84.0649 72.0822C84.0649 72.0489 84.0782 72.017 84.1017 71.9935C84.1252 71.9699 84.1572 71.9567 84.1904 71.9567L92.9654 72.037C92.9987 72.037 93.0306 72.0503 93.0541 72.0738C93.0777 72.0973 93.0909 72.1292 93.0909 72.1625C93.0901 72.1908 93.0804 72.2181 93.0633 72.2406C93.0462 72.2631 93.0225 72.2797 92.9955 72.288Z"
        fill="#263238" />
    <path d="M210.343 174.159H40.175V182.09H210.343V174.159Z" fill="#407BFF" />
    <path opacity="0.2" d="M210.343 174.159H40.175V182.09H210.343V174.159Z" fill="#FAFAFA" />
    <path
        d="M212.883 174.159H38.1169C37.5887 174.159 37.0817 174.367 36.7058 174.738C36.33 175.109 36.1155 175.614 36.1089 176.142C36.1155 176.67 36.33 177.174 36.7058 177.545C37.0817 177.917 37.5887 178.125 38.1169 178.125H212.883C213.407 178.118 213.908 177.907 214.278 177.537C214.649 177.166 214.86 176.666 214.866 176.142C214.86 175.618 214.649 175.117 214.278 174.747C213.908 174.376 213.407 174.165 212.883 174.159Z"
        fill="#407BFF" />
    <path opacity="0.4"
        d="M212.883 174.159H38.1169C37.5887 174.159 37.0817 174.367 36.7058 174.738C36.33 175.109 36.1155 175.614 36.1089 176.142C36.1155 176.67 36.33 177.174 36.7058 177.545C37.0817 177.917 37.5887 178.125 38.1169 178.125H212.883C213.407 178.118 213.908 177.907 214.278 177.537C214.649 177.166 214.86 176.666 214.866 176.142C214.86 175.618 214.649 175.117 214.278 174.747C213.908 174.376 213.407 174.165 212.883 174.159Z"
        fill="#FAFAFA" />
    <path d="M42.3286 173.938V160.143H92.885V174.229L42.3286 173.938Z" fill="#407BFF" />
    <path opacity="0.7" d="M42.3286 173.938V160.143H92.885V174.229L42.3286 173.938Z" fill="white" />
    <path opacity="0.2" d="M92.8851 160.143H67.9407V174.229H92.8851V160.143Z" fill="black" />
    <path d="M42.3285 162.121L40.0896 162.809H64.5219L42.3285 162.121Z" fill="#407BFF" />
    <path d="M42.3286 167.186L67.9407 167.839H89.607L68.4125 169.013L42.3286 167.186Z"
        fill="#407BFF" />
    <path d="M64.5219 171.448H42.3285L40.0896 172.111L64.5219 171.448Z" fill="#407BFF" />
    <path d="M70.26 162.462L92.8851 162.226L94.115 162.809L70.26 162.462Z" fill="#407BFF" />
    <path d="M74.1956 170.796H92.885L94.1149 172.111L74.1956 170.796Z" fill="#407BFF" />
    <path opacity="0.5" d="M42.3285 162.121L40.0896 162.809H64.5219L42.3285 162.121Z"
        fill="white" />
    <path opacity="0.7" d="M42.3286 167.186L67.9407 167.839H89.607L68.4125 169.013L42.3286 167.186Z"
        fill="white" />
    <path opacity="0.5" d="M64.5219 171.448H42.3285L40.0896 172.111L64.5219 171.448Z"
        fill="white" />
    <path opacity="0.7" d="M70.26 162.462L92.8851 162.226L94.115 162.809L70.26 162.462Z"
        fill="white" />
    <path opacity="0.7" d="M94.1149 172.111L74.1956 170.796H92.885" fill="white" />
</svg>
