<svg width="390" height="140" viewBox="0 0 390 140" fill="none" xmlns="http://www.w3.org/2000/svg">
<g clip-path="url(#clip0_471_1642)">
<g clip-path="url(#clip1_471_1642)">
<path fill-rule="evenodd" clip-rule="evenodd" d="M0 140L25 124.296C50 108.593 100 77.1852 150 69.3333C200 61.4815 250 77.1852 300 81.1111C350 85.037 400 77.1852 450 73.2593C500 69.3333 550 69.3333 600 77.1852C650 85.037 700 100.741 750 85.037C800 69.3333 850 22.2222 900 -5.25926C950 -32.7408 1000 -40.5926 1050 -13.1111C1100 14.3704 1150 77.1852 1175 108.593L1200 140V-72H1175C1150 -72 1100 -72 1050 -72C1000 -72 950 -72 900 -72C850 -72 800 -72 750 -72C700 -72 650 -72 600 -72C550 -72 500 -72 450 -72C400 -72 350 -72 300 -72C250 -72 200 -72 150 -72C100 -72 50 -72 25 -72H0V140Z" fill="#0961F5" fill-opacity="0.75"/>
</g>
</g>
<defs>
<clipPath id="clip0_471_1642">
<rect width="390" height="140" fill="white"/>
</clipPath>
<clipPath id="clip1_471_1642">
<rect width="390" height="212" fill="white" transform="translate(0 -72)"/>
</clipPath>
</defs>
</svg>
