<svg width="80" height="80" viewBox="0 0 80 80" fill="none" xmlns="http://www.w3.org/2000/svg">
    <path
        d="M70.1334 40.4333C69.6667 40.4333 69.2001 40.6333 68.8334 41L65.5001 44.3333L72.3334 51.1667L75.6667 47.8333C76.4001 47.1333 76.4001 45.9667 75.6667 45.2667L71.4001 41C71.2378 40.8254 71.042 40.6852 70.8244 40.5879C70.6067 40.4905 70.3718 40.438 70.1334 40.4333ZM63.5667 46.2667L43.3334 66.4667V73.3333H50.2001L70.4001 53.1L63.5667 46.2667ZM36.8334 63.5333C36.2334 63.3333 35.6334 63.3333 35.0001 63.3333C30.0001 63.3333 26.0001 67.3667 26.0001 72.3333V73.3333H13.3334C11.5653 73.3333 9.86961 72.631 8.61937 71.3807C7.36913 70.1305 6.66675 68.4348 6.66675 66.6667V54H7.66675C12.6334 54 16.6667 50 16.6667 45C16.6667 40 12.6334 36 7.66675 36H6.66675V23.3333C6.66675 19.6667 9.66675 16.6667 13.3334 16.6667H23.4667C24.2667 11 29.1334 6.66667 35.0001 6.66667C40.8667 6.66667 45.7334 11 46.5334 16.6667H56.6667C58.4349 16.6667 60.1305 17.3691 61.3808 18.6193C62.631 19.8695 63.3334 21.5652 63.3334 23.3333V33.4667C64.5334 33.6333 65.6334 34.0333 66.6667 34.5333C65.7667 35 64.8667 35.5333 64.1334 36.3L60.4001 40H56.6667V23.3333H40.0001V18.3333C40.0001 15.5667 37.7667 13.3333 35.0001 13.3333C32.2334 13.3333 30.0001 15.5667 30.0001 18.3333V23.3333H13.3334V30.4C19.2001 32.6667 23.3334 38.3333 23.3334 45C23.3334 51.6667 19.1667 57.3333 13.3334 59.6V66.6667H20.4001C21.5423 63.7226 23.5476 61.1924 26.153 59.4079C28.7583 57.6234 31.8422 56.6679 35.0001 56.6667C37.5334 56.6667 40.0001 57.2667 42.0334 58.3333L36.8334 63.5333Z"
        fill="#FF9C07" fill-opacity="0.5" />
</svg>
