<?xml version="1.0" encoding="utf-8"?>
<svg width="18px" height="18px" viewBox="0 0 18 18" version="1.1" xmlns:xlink="http://www.w3.org/1999/xlink" xmlns="http://www.w3.org/2000/svg">
  <g id="Star">
    <g id="Star">
      <path d="M0 0L18 0L18 18L0 18L0 0Z" id="Star-(Background)" fill="none" fill-rule="evenodd" stroke="none" />
      <path d="M12.7808 10.6379C12.7493 10.7356 12.7449 10.8399 12.768 10.9399L13.7187 15.056C13.7438 15.1635 13.7367 15.276 13.6983 15.3796C13.66 15.4831 13.592 15.573 13.5028 15.6382C13.4137 15.7033 13.3074 15.7408 13.1971 15.7459C13.0868 15.751 12.9775 15.7236 12.8827 15.667L9.28969 13.4873C9.20239 13.4343 9.10218 13.4062 9 13.4062C8.89783 13.4062 8.79762 13.4343 8.71031 13.4873L5.11735 15.667C5.02254 15.7236 4.91319 15.751 4.80291 15.7459C4.69263 15.7408 4.58629 15.7033 4.49716 15.6382C4.40803 15.573 4.34003 15.4831 4.30166 15.3796C4.26328 15.276 4.25621 15.1635 4.28133 15.056L5.23196 10.9399C5.25506 10.8399 5.25066 10.7356 5.21921 10.6379C5.18777 10.5402 5.13046 10.4529 5.05336 10.3852L1.88156 7.61836C1.79677 7.54629 1.73525 7.45068 1.70481 7.34364C1.67436 7.2366 1.67635 7.12293 1.71053 7.01702C1.7447 6.91111 1.80952 6.81772 1.89679 6.74866C1.98406 6.6796 2.08985 6.63798 2.20078 6.62906L6.38156 6.26766C6.48357 6.25857 6.58115 6.22181 6.6638 6.16135C6.74644 6.10088 6.81101 6.019 6.85055 5.92453L8.48391 2.03203C8.52753 1.93139 8.59963 1.84571 8.69133 1.78552C8.78302 1.72533 8.89032 1.69326 9 1.69326C9.10969 1.69326 9.21698 1.72533 9.30868 1.78552C9.40037 1.84571 9.47247 1.93139 9.5161 2.03203L11.1495 5.92453C11.189 6.019 11.2536 6.10088 11.3362 6.16135C11.4189 6.22181 11.5164 6.25857 11.6184 6.26766L15.7992 6.62906C15.9102 6.63798 16.0159 6.6796 16.1032 6.74866C16.1905 6.81772 16.2553 6.91111 16.2895 7.01702C16.3237 7.12293 16.3256 7.2366 16.2952 7.34364C16.2647 7.45068 16.2032 7.54629 16.1184 7.61836L12.9466 10.3852C12.8695 10.4529 12.8122 10.5402 12.7808 10.6379Z" id="Vector" fill="#FFFFFF" fill-opacity="0.2" stroke="none" />
      <path d="M16.4496 6.30793C16.2769 6.1704 16.0676 6.0867 15.8477 6.06727L11.6719 5.70726L10.035 1.81477C9.94977 1.61052 9.80602 1.43605 9.62185 1.31334C9.43767 1.19062 9.2213 1.12514 8.99999 1.12514C8.77868 1.12514 8.56231 1.19062 8.37814 1.31334C8.19396 1.43605 8.05021 1.61052 7.96499 1.81477L6.33304 5.70726L2.15226 6.06937C1.9315 6.08793 1.72113 6.17124 1.54754 6.30887C1.37395 6.4465 1.24485 6.63232 1.17644 6.84303C1.10803 7.05374 1.10336 7.27995 1.163 7.49331C1.22264 7.70666 1.34395 7.89766 1.51171 8.04234L4.68351 10.8141L3.73288 14.9302C3.68261 15.1456 3.69696 15.371 3.77412 15.5783C3.85128 15.7856 3.98783 15.9655 4.16671 16.0956C4.34558 16.2257 4.55884 16.3002 4.77982 16.3098C5.00079 16.3193 5.21969 16.2635 5.40913 16.1494L8.99507 13.9697L12.5887 16.1494C12.7782 16.2635 12.9971 16.3193 13.2181 16.3098C13.439 16.3002 13.6523 16.2257 13.8312 16.0956C14.01 15.9655 14.1466 15.7856 14.2238 15.5783C14.3009 15.371 14.3153 15.1456 14.265 14.9302L13.3151 10.8098L16.4862 8.04234C16.6539 7.89716 16.775 7.70562 16.8341 7.49181C16.8933 7.278 16.888 7.05147 16.8187 6.8407C16.7506 6.63074 16.6222 6.44546 16.4496 6.30793ZM12.5775 9.95976C12.4232 10.094 12.3083 10.2678 12.2454 10.4624C12.1825 10.6571 12.1738 10.8652 12.2203 11.0644L13.173 15.1875L9.58218 13.0078C9.40699 12.9011 9.20582 12.8447 9.00069 12.8447C8.79557 12.8447 8.5944 12.9011 8.41921 13.0078L4.83327 15.1875L5.77968 11.0672C5.82619 10.868 5.81751 10.6599 5.75457 10.4652C5.69164 10.2706 5.57683 10.0968 5.42249 9.96258L2.24999 7.19648C2.24973 7.19438 2.24973 7.19226 2.24999 7.19016L6.42937 6.82875C6.63341 6.81076 6.82868 6.73741 6.9941 6.6166C7.15952 6.49578 7.28881 6.3321 7.36804 6.1432L8.99999 2.25563L10.6312 6.1432C10.7105 6.3321 10.8398 6.49578 11.0052 6.6166C11.1706 6.73741 11.3659 6.81076 11.5699 6.82875L15.75 7.19016C15.75 7.19016 15.75 7.19437 15.75 7.19508L15.7486 7.19227L12.5775 9.95976Z" id="Vector" fill="#FFFFFF" stroke="none" />
    </g>
  </g>
</svg>