<svg width="172" height="97" viewBox="0 0 172 97" fill="none" xmlns="http://www.w3.org/2000/svg">
    <path d="M143.233 4.09686H130.218V28.6335H143.233V4.09686Z" fill="#E6E6E6" />
    <path d="M142.594 4.09686H127.306V28.6335H142.594V4.09686Z" fill="#F0F0F0" />
    <path d="M140.263 6.27628H129.629V26.454H140.263V6.27628Z" fill="white" />
    <path d="M137.146 12.2941H133.012V20.1367H137.146V12.2941Z" fill="#EBEBEB" />
    <path d="M41.3976 4.09686H28.3823V28.6335H41.3976V4.09686Z" fill="#E6E6E6" />
    <path d="M40.7589 4.09686H25.4705V28.6335H40.7589V4.09686Z" fill="#F0F0F0" />
    <path d="M38.4279 6.27628H27.7942V26.454H38.4279V6.27628Z" fill="white" />
    <path d="M35.3109 12.2941H31.1768V20.1367H35.3109V12.2941Z" fill="#EBEBEB" />
    <path
        d="M154.51 63.0661H113.059C112.317 63.0661 111.714 62.463 111.714 61.7216V1.34428C111.714 0.602986 112.317 0 113.059 0H154.51C155.251 0 155.854 0.602986 155.854 1.34428V61.7216C155.854 62.463 155.251 63.0661 154.51 63.0661ZM113.059 0.0573333C112.349 0.0573333 111.771 0.63468 111.771 1.34428V61.7216C111.771 62.4314 112.349 63.0087 113.059 63.0087H154.51C155.219 63.0087 155.797 62.4314 155.797 61.7216V1.34428C155.797 0.63468 155.219 0.0573333 154.51 0.0573333H113.059Z"
        fill="#E0E0E0" />
    <path
        d="M106.71 63.0661H65.2591C64.5178 63.0661 63.9148 62.463 63.9148 61.7216V1.34428C63.9148 0.602986 64.5178 0 65.2591 0H106.71C107.452 0 108.055 0.602986 108.055 1.34428V61.7216C108.055 62.463 107.452 63.0661 106.71 63.0661ZM65.2591 0.0573333C64.5495 0.0573333 63.9721 0.63468 63.9721 1.34428V61.7216C63.9721 62.4314 64.5495 63.0087 65.2591 63.0087H106.71C107.42 63.0087 107.997 62.4314 107.997 61.7216V1.34428C107.997 0.63468 107.42 0.0573333 106.71 0.0573333H65.2591Z"
        fill="#E0E0E0" />
    <path
        d="M58.9415 63.0661H17.4903C16.749 63.0661 16.146 62.463 16.146 61.7216V1.34428C16.146 0.602986 16.749 0 17.4903 0H58.9415C59.6828 0 60.2859 0.602986 60.2859 1.34428V61.7216C60.2859 62.463 59.6828 63.0661 58.9415 63.0661ZM17.4903 0.0573333C16.7807 0.0573333 16.2033 0.63468 16.2033 1.34428V61.7216C16.2033 62.4314 16.7807 63.0087 17.4903 63.0087H58.9415C59.6512 63.0087 60.2286 62.4314 60.2286 61.7216V1.34428C60.2286 0.63468 59.6512 0.0573333 58.9415 0.0573333H17.4903Z"
        fill="#E0E0E0" />
    <path d="M172 77.0713H0V77.0989H172V77.0713Z" fill="#E0E0E0" />
    <path d="M162.679 83.8082H149.898V83.9047H162.679V83.8082Z" fill="#EBEBEB" />
    <path d="M116.884 84.8553H113.53V84.9518H116.884V84.8553Z" fill="#EBEBEB" />
    <path d="M25.9877 80.8734H9.32104V80.9699H25.9877V80.8734Z" fill="#EBEBEB" />
    <path d="M31.8668 80.8734H29.4231V80.9699H31.8668V80.8734Z" fill="#EBEBEB" />
    <path d="M75.9547 82.5026H39.8088V82.5991H75.9547V82.5026Z" fill="#EBEBEB" />
    <path
        d="M54.6912 14.6534C54.1163 15.5288 53.7297 16.4904 53.5237 17.4823L51.944 17.6311L51.9438 20.6904L53.5238 20.8392C53.7296 21.8309 54.1163 22.7925 54.6912 23.6681L53.6822 24.8868L55.8455 27.0501L57.0642 26.0412C57.9398 26.616 58.9014 27.0027 59.8931 27.2085L60.0418 28.7884L63.1011 28.7882L63.25 27.2087C64.2418 27.0026 65.2034 26.616 66.079 26.0412L67.2977 27.0501L69.4611 24.8868L68.4522 23.6681C69.0269 22.7925 69.4136 21.8309 69.6194 20.8392L71.199 20.6904L71.1992 17.6311L69.6196 17.4821C69.4136 16.4905 69.0268 15.5289 68.452 14.6534L69.4609 13.4347L67.2976 11.2714L66.0789 12.2803C65.2033 11.7055 64.2417 11.3186 63.2501 11.1127L63.1012 9.53296L60.0418 9.5331L59.8931 11.1129C58.9014 11.3188 57.9398 11.7053 57.0643 12.2802L55.8455 11.2712L53.6822 13.4346L54.6912 14.6534ZM64.5003 16.2322C66.1174 17.8496 66.1175 20.472 64.5003 22.0893C62.8827 23.7067 60.2603 23.7066 58.6431 22.0894C57.0257 20.472 57.0258 17.8497 58.6432 16.2322C60.2605 14.615 62.8827 14.6149 64.5003 16.2322Z"
        fill="#EBEBEB" />
    <path
        d="M60.661 51.5571C60.3736 51.9946 60.1804 52.4753 60.0775 52.971L59.2879 53.0453L59.2878 54.5743L60.0775 54.6487C60.1803 55.1444 60.3736 55.6249 60.661 56.0626L60.1566 56.6717L61.2379 57.7529L61.8469 57.2486C62.2846 57.5359 62.7651 57.7292 63.2608 57.832L63.3351 58.6216L64.8641 58.6216L64.9385 57.8321C65.4342 57.7291 65.9148 57.5359 66.3524 57.2486L66.9615 57.7529L68.0427 56.6717L67.5385 56.0626C67.8257 55.6249 68.019 55.1444 68.1219 54.6487L68.9113 54.5743L68.9114 53.0453L68.1219 52.9709C68.019 52.4753 67.8257 51.9947 67.5384 51.5572L68.0426 50.948L66.9614 49.8669L66.3524 50.3711C65.9147 50.0838 65.4341 49.8905 64.9385 49.7876L64.8642 48.998L63.3351 48.9981L63.2608 49.7876C62.7651 49.8906 62.2846 50.0837 61.847 50.3711L61.2379 49.8668L60.1566 50.948L60.661 51.5571ZM65.5634 52.3462C66.3716 53.1545 66.3717 54.4652 65.5634 55.2735C64.755 56.0819 63.4443 56.0818 62.636 55.2735C61.8277 54.4652 61.8277 53.1546 62.6361 52.3462C63.4444 51.538 64.755 51.5379 65.5634 52.3462Z"
        fill="#EBEBEB" />
    <path
        d="M17.076 35.5975C16.6222 36.2886 16.317 37.0477 16.1544 37.8306L14.9073 37.9481L14.9072 40.3631L16.1544 40.4805C16.3169 41.2634 16.6222 42.0225 17.076 42.7137L16.2795 43.6757L17.9872 45.3834L18.9492 44.587C19.6404 45.0407 20.3994 45.346 21.1823 45.5084L21.2997 46.7556L23.7147 46.7555L23.8322 45.5086C24.6151 45.3459 25.3743 45.0407 26.0654 44.587L27.0274 45.3834L28.7352 43.6757L27.9387 42.7137C28.3925 42.0225 28.6977 41.2634 28.8602 40.4805L30.1071 40.3631L30.1073 37.9481L28.8603 37.8305C28.6977 37.0477 28.3924 36.2887 27.9386 35.5976L28.7351 34.6355L27.0274 32.9278L26.0654 33.7243C25.3741 33.2705 24.615 32.9651 23.8323 32.8026L23.7148 31.5555L21.2997 31.5556L21.1823 32.8027C20.3994 32.9652 19.6404 33.2704 18.9493 33.7242L17.9872 32.9277L16.2795 34.6355L17.076 35.5975ZM24.8191 36.8438C26.0957 38.1206 26.0958 40.1907 24.8191 41.4674C23.5423 42.7442 21.4722 42.7441 20.1956 41.4674C18.9188 40.1907 18.9189 38.1207 20.1956 36.8438C21.4724 35.5672 23.5423 35.5671 24.8191 36.8438Z"
        fill="#EBEBEB" />
    <path
        d="M148.353 30.6627C148.141 30.9862 147.998 31.3415 147.922 31.7079L147.338 31.7629L147.338 32.8932L147.922 32.9482C147.998 33.3146 148.141 33.6699 148.353 33.9934L147.98 34.4436L148.78 35.2429L149.23 34.8701C149.553 35.0825 149.909 35.2254 150.275 35.3014L150.33 35.8851L151.46 35.8851L151.515 35.3015C151.882 35.2254 152.237 35.0825 152.561 34.8701L153.011 35.2429L153.81 34.4436L153.437 33.9934C153.65 33.6699 153.793 33.3146 153.869 32.9482L154.452 32.8932L154.452 31.7629L153.869 31.7079C153.793 31.3415 153.65 30.9862 153.437 30.6628L153.81 30.2125L153.011 29.4132L152.561 29.786C152.237 29.5736 151.882 29.4307 151.515 29.3546L151.46 28.7709L150.33 28.771L150.275 29.3546C149.909 29.4307 149.553 29.5735 149.23 29.7859L148.78 29.4131L147.98 30.2125L148.353 30.6627ZM151.977 31.2461C152.575 31.8436 152.575 32.8125 151.977 33.41C151.38 34.0076 150.411 34.0076 149.813 33.4101C149.216 32.8125 149.216 31.8437 149.813 31.2461C150.411 30.6485 151.38 30.6485 151.977 31.2461Z"
        fill="#EBEBEB" />
    <path
        d="M105.25 16.5258C105.038 16.8492 104.895 17.2045 104.819 17.5709L104.235 17.6259L104.235 18.7562L104.819 18.8112C104.895 19.1776 105.038 19.5329 105.25 19.8564L104.877 20.3067L105.677 21.1059L106.127 20.7332C106.45 20.9456 106.806 21.0884 107.172 21.1644L107.227 21.7482L108.357 21.7481L108.412 21.1645C108.779 21.0884 109.134 20.9456 109.458 20.7332L109.908 21.1059L110.707 20.3067L110.334 19.8564C110.547 19.5329 110.69 19.1776 110.766 18.8112L111.349 18.7562L111.349 17.6259L110.766 17.5709C110.69 17.2045 110.547 16.8493 110.334 16.5258L110.707 16.0755L109.908 15.2762L109.458 15.649C109.134 15.4366 108.779 15.2937 108.412 15.2176L108.357 14.6339L107.227 14.634L107.172 15.2177C106.806 15.2938 106.45 15.4365 106.127 15.649L105.677 15.2762L104.877 16.0755L105.25 16.5258ZM108.874 17.1091C109.472 17.7066 109.472 18.6755 108.874 19.2731C108.277 19.8707 107.308 19.8706 106.71 19.2731C106.113 18.6755 106.113 17.7067 106.71 17.1091C107.308 16.5116 108.277 16.5115 108.874 17.1091Z"
        fill="#F5F5F5" />
    <path
        d="M29.6015 48.968C29.3891 49.2915 29.2463 49.6468 29.1701 50.0132L28.5865 50.0682L28.5864 51.1985L29.1702 51.2535C29.2462 51.6199 29.3891 51.9751 29.6015 52.2987L29.2287 52.7489L30.028 53.5482L30.4782 53.1754C30.8017 53.3878 31.157 53.5307 31.5234 53.6067L31.5784 54.1904L32.7087 54.1904L32.7637 53.6068C33.1301 53.5307 33.4854 53.3878 33.8089 53.1754L34.2592 53.5482L35.0585 52.7489L34.6857 52.2987C34.898 51.9752 35.0409 51.6199 35.117 51.2535L35.7006 51.1985L35.7006 50.0682L35.117 50.0132C35.0409 49.6468 34.898 49.2915 34.6856 48.9681L35.0584 48.5178L34.2591 47.7185L33.8089 48.0913C33.4853 47.8789 33.1301 47.7359 32.7637 47.6599L32.7087 47.0762L31.5784 47.0763L31.5234 47.6599C31.157 47.736 30.8017 47.8788 30.4783 48.0913L30.028 47.7184L29.2287 48.5177L29.6015 48.968ZM33.2256 49.5513C33.8231 50.1489 33.8231 51.1178 33.2256 51.7153C32.628 52.3129 31.6591 52.3129 31.0616 51.7154C30.464 51.1178 30.464 50.149 31.0616 49.5513C31.6592 48.9538 32.628 48.9538 33.2256 49.5513Z"
        fill="#F5F5F5" />
    <path
        d="M131.866 35.2218C131.501 35.7776 131.255 36.3882 131.124 37.018L130.121 37.1125L130.121 39.0551L131.124 39.1496C131.255 39.7793 131.501 40.3898 131.866 40.9459L131.225 41.7197L132.599 43.0933L133.372 42.4527C133.928 42.8177 134.539 43.0632 135.169 43.1939L135.263 44.1971L137.206 44.197L137.3 43.194C137.93 43.0632 138.541 42.8177 139.097 42.4527L139.87 43.0933L141.244 41.7197L140.603 40.9458C140.968 40.3898 141.214 39.7793 141.345 39.1496L142.348 39.0551L142.348 37.1125L141.345 37.0179C141.214 36.3883 140.968 35.7777 140.603 35.2218L141.244 34.4479L139.87 33.0743L139.096 33.715C138.54 33.3499 137.93 33.1043 137.3 32.9736L137.206 31.9705L135.263 31.9706L135.169 32.9737C134.539 33.1044 133.928 33.3498 133.372 33.7149L132.599 33.0742L131.225 34.4479L131.866 35.2218ZM138.094 36.2243C139.121 37.2512 139.121 38.9164 138.094 39.9433C137.067 40.9704 135.402 40.9703 134.375 39.9434C133.348 38.9164 133.348 37.2514 134.375 36.2243C135.402 35.1974 137.067 35.1973 138.094 36.2243Z"
        fill="#EBEBEB" />
    <path
        d="M93.2564 46.1136C92.8885 46.6738 92.6411 47.2892 92.5093 47.924L91.4984 48.0192L91.4983 49.9769L92.5094 50.0721C92.641 50.7067 92.8885 51.3221 93.2564 51.8825L92.6107 52.6624L93.9951 54.0467L94.775 53.4011C95.3353 53.7689 95.9507 54.0164 96.5853 54.1481L96.6805 55.1591L98.6382 55.159L98.7335 54.1482C99.3682 54.0163 99.9835 53.7689 100.544 53.4011L101.324 54.0467L102.708 52.6624L102.063 51.8824C102.43 51.3221 102.678 50.7068 102.809 50.0721L103.82 49.9769L103.82 48.0192L102.81 47.9238C102.678 47.2893 102.43 46.674 102.062 46.1137L102.708 45.3337L101.324 43.9494L100.544 44.595C99.9834 44.2272 99.3681 43.9796 98.7335 43.8479L98.6383 42.8369L96.6805 42.837L96.5853 43.8479C95.9507 43.9797 95.3353 44.2271 94.775 44.595L93.9951 43.9493L92.6107 45.3337L93.2564 46.1136ZM99.5335 47.124C100.568 48.159 100.568 49.8371 99.5335 50.8721C98.4984 51.9072 96.8203 51.9071 95.7853 50.8722C94.7503 49.8371 94.7504 48.1591 95.7854 47.124C96.8204 46.0891 98.4984 46.089 99.5335 47.124Z"
        fill="#EBEBEB" />
    <path
        d="M98.9941 64.567C98.3767 65.5071 97.9616 66.5398 97.7404 67.605L96.0439 67.7648L96.0437 71.0502L97.7404 71.21C97.9614 72.275 98.3767 73.3077 98.9941 74.2481L97.9105 75.5568L100.234 77.88L101.543 76.7965C102.483 77.4138 103.515 77.8291 104.581 78.05L104.74 79.7468L108.026 79.7466L108.185 78.0503C109.251 77.829 110.283 77.4138 111.224 76.7965L112.532 77.88L114.856 75.5568L113.772 74.248C114.389 73.3077 114.805 72.275 115.026 71.21L116.722 71.0502L116.722 67.7648L115.026 67.6048C114.805 66.5399 114.389 65.5073 113.772 64.5671L114.855 63.2582L112.532 60.9351L111.224 62.0186C110.283 61.4013 109.25 60.9858 108.186 60.7647L108.026 59.0681L104.74 59.0683L104.581 60.7648C103.515 60.986 102.483 61.4011 101.543 62.0185L100.234 60.9349L97.9105 63.2582L98.9941 64.567ZM109.528 66.2625C111.265 67.9994 111.265 70.8156 109.528 72.5525C107.791 74.2895 104.975 74.2894 103.238 72.5526C101.501 70.8156 101.501 67.9996 103.238 66.2625C104.975 64.5258 107.791 64.5257 109.528 66.2625Z"
        fill="#EBEBEB" />
    <path
        d="M160.651 91.975C160.651 92.7517 128.255 93.3813 88.2934 93.3813C48.3314 93.3813 15.9358 92.7517 15.9358 91.975C15.9358 91.1983 48.3314 90.5687 88.2934 90.5687C128.255 90.5687 160.651 91.1983 160.651 91.975Z"
        fill="#F5F5F5" />
    <path
        d="M26.8504 52.0164C22.6683 56.9083 21.4469 64.1494 23.7929 70.1425C26.3995 67.816 28.235 64.2699 28.3512 61.1683C28.4674 58.0667 27.6556 55.0139 26.8504 52.0164Z"
        fill="#407BFF" />
    <path
        d="M26.1206 70.7078C24.7016 72.8822 24.0224 75.5299 24.2195 78.1188C26.4803 77.3317 28.4733 74.778 29.6682 72.7036C30.8631 70.6293 31.5312 68.2994 32.1391 65.9839C29.6899 66.8458 27.5396 68.5336 26.1206 70.7078Z"
        fill="#407BFF" />
    <path
        d="M25.5992 60.5593C23.919 66.597 23.0634 72.8598 23.0684 79.1272C23.0698 80.9103 23.142 82.6926 23.2814 84.4702C23.29 84.5798 23.462 84.5807 23.4534 84.4702C22.9634 78.2189 23.327 71.9064 24.5408 65.7541C24.8824 64.0227 25.292 62.3052 25.7651 60.6051C25.7948 60.4982 25.6289 60.4527 25.5992 60.5593Z"
        fill="#263238" />
    <path
        d="M23.3284 80.1642C25.0447 76.0783 27.3012 72.2505 29.9095 68.6728C29.9748 68.5833 29.8256 68.4973 29.761 68.586C27.7191 71.3867 25.8846 74.3392 24.3663 77.4572C23.94 78.3328 23.5397 79.2206 23.1625 80.1185C23.1197 80.2204 23.2861 80.2649 23.3284 80.1642Z"
        fill="#263238" />
    <path
        d="M20.8941 74.0958C22.0774 75.9089 22.6437 78.1167 22.4794 80.2754C20.5942 79.6191 18.9324 77.4896 17.9361 75.76C16.9397 74.0303 16.3826 72.0876 15.8757 70.1569C17.9179 70.8755 19.7109 72.2828 20.8941 74.0958Z"
        fill="#407BFF" />
    <path
        d="M23.2774 81.7059C21.8696 78.3563 20.0089 75.2515 17.8713 72.3193C17.8067 72.2308 17.6574 72.3165 17.7227 72.4061C19.8507 75.3251 21.7099 78.4169 23.1115 81.7517C23.1538 81.8522 23.3203 81.808 23.2774 81.7059Z"
        fill="#263238" />
    <path
        d="M23.3433 82.8185C26.0036 80.0815 28.72 77.3999 31.3802 74.6629C31.4574 74.5834 31.3359 74.4617 31.2586 74.5412C28.5984 77.2782 25.8819 79.9599 23.2217 82.6969C23.1445 82.7763 23.266 82.8981 23.3433 82.8185Z"
        fill="#263238" />
    <path
        d="M31.4802 73.4054C29.1722 75.6312 27.0693 78.0698 25.207 80.6801L25.6293 80.6802C27.386 80.5978 29.0914 79.7312 30.1936 78.3608C31.2957 76.9904 31.7765 75.1389 31.4802 73.4054Z"
        fill="#407BFF" />
    <path
        d="M20.5549 68.097C21.5459 69.7177 22.4796 71.3726 23.3544 73.0589C23.4054 73.1572 23.5539 73.0703 23.5029 72.9721C22.6281 71.2858 21.6944 69.6309 20.7034 68.0101C20.6458 67.9159 20.497 68.0022 20.5549 68.097Z"
        fill="#263238" />
    <path
        d="M18.1649 59.9142C17.7869 61.6142 17.4121 63.8249 17.4082 65.5951C17.4044 67.3653 17.9445 69.0926 18.9504 70.2787C19.9563 71.4649 21.9869 71.9845 22.8055 71.3058L18.1649 59.9142Z"
        fill="#407BFF" />
    <path d="M28.1955 83.6088H18.113V85.4774H28.1955V83.6088Z" fill="#263238" />
    <path d="M26.5626 92.1342H20.3018L19.1641 85.0492H27.4614L26.5626 92.1342Z" fill="#263238" />
    <path opacity="0.2" d="M19.2385 85.5121H27.4028L27.3011 86.3141H19.3673L19.2385 85.5121Z"
        fill="black" />
    <path
        d="M145.667 43.2269C148.214 41.7704 151.46 42.6546 152.916 45.2017C154.372 47.7488 153.488 50.9943 150.941 52.4508C148.975 53.5752 146.595 53.2997 144.941 51.9459L143.365 52.1939L143.74 50.5501C143.725 50.5247 143.707 50.5017 143.692 50.4759C142.236 47.9289 143.12 44.6833 145.667 43.2269Z"
        fill="#407BFF" />
    <path
        d="M142.784 45.2746C142.777 45.2746 142.77 45.2733 142.763 45.2706C142.734 45.2589 142.719 45.2256 142.731 45.1961C143.373 43.5792 144.892 42.3219 146.6 41.9929C146.63 41.9868 146.661 42.0074 146.667 42.0384C146.673 42.0695 146.653 42.0995 146.621 42.1056C144.951 42.4273 143.465 43.6571 142.838 45.2384C142.829 45.2609 142.807 45.2746 142.784 45.2746Z"
        fill="#407BFF" />
    <path
        d="M142.327 46.7824H142.325C142.293 46.7811 142.269 46.7544 142.27 46.7228C142.281 46.4527 142.349 46.1816 142.467 45.9387C142.48 45.9101 142.515 45.8984 142.543 45.9122C142.572 45.9261 142.584 45.9604 142.57 45.9889C142.459 46.2176 142.395 46.473 142.384 46.7273C142.383 46.7582 142.358 46.7824 142.327 46.7824Z"
        fill="#407BFF" />
    <path
        d="M147.681 49.8467L145.439 47.8002L146.153 47.0177L147.657 48.39L150.155 45.9501L150.895 46.708L147.681 49.8467Z"
        fill="white" />
    <path
        d="M90.9482 9.3036C93.6242 7.74869 97.054 8.65738 98.6089 11.3333C100.164 14.0093 99.2551 17.4391 96.5791 18.994C94.5133 20.1944 92.0016 19.9214 90.2466 18.5055L88.5858 18.7787L88.9692 17.0422C88.953 17.0154 88.9342 16.9913 88.9185 16.9642C87.3635 14.2883 88.2723 10.8585 90.9482 9.3036Z"
        fill="#407BFF" />
    <path
        d="M98.6186 10.1007C98.6012 10.1007 98.5839 10.0928 98.5727 10.0776C97.4998 8.63748 95.6465 7.79047 93.8582 7.92003C93.8266 7.92204 93.7991 7.89841 93.797 7.86695C93.7946 7.83537 93.8185 7.80793 93.8501 7.80558C95.6781 7.67445 97.5692 8.5386 98.6646 10.0091C98.6836 10.0345 98.6782 10.0705 98.6529 10.0894C98.6426 10.097 98.6305 10.1007 98.6186 10.1007Z"
        fill="#407BFF" />
    <path
        d="M92.2124 8.17759C92.1902 8.17759 92.1692 8.16471 92.1598 8.14321C92.1472 8.1141 92.1604 8.08039 92.1895 8.06774C92.4487 7.95475 92.7353 7.89507 93.0189 7.89507C93.0469 7.89339 93.0802 7.91914 93.0802 7.95251C93.0802 7.98409 93.0545 8.00973 93.0229 8.00973C93.0229 8.00962 93.0204 8.00985 93.0189 8.00973C92.751 8.00973 92.4802 8.06606 92.2352 8.17277C92.2278 8.17602 92.22 8.17759 92.2124 8.17759Z"
        fill="#407BFF" />
    <path d="M96.1936 13.3434H90.959V14.652H96.1936V13.3434Z" fill="white" />
    <path d="M95.7097 15.3642V12.7202L96.999 14.0422L95.7097 15.3642Z" fill="white" />
    <path
        d="M125.234 42.5887C125.234 42.5887 125.095 44.9905 123.921 49.1999C123.186 51.801 122.293 54.3551 121.247 56.848C120.662 58.2563 119.991 59.7512 119.22 61.3236C118.873 62.0385 118.502 62.7659 118.112 63.5118C117.663 76.2514 110.513 89.2014 110.513 89.2014C110.117 89.4057 108.734 89.1828 108.743 88.7805C109.802 87.0998 111.885 70.7761 113.228 63.0321C113.311 61.9797 113.432 60.8655 113.581 59.6862C113.974 56.5601 114.556 53.1617 115.128 50.1718C116.016 45.461 116.861 41.7685 116.861 41.7685L119.217 41.9975L125.234 42.5887Z"
        fill="#263238" />
    <path
        d="M110.436 91.9499H110.034L109.919 91.4423L108.557 92.0613H105.106C105.106 92.0613 104.558 91.5104 106.199 91.074C106.279 91.0511 106.356 91.0211 106.431 90.9842C107.307 90.5725 108.551 89.1859 108.551 89.1859H110.442C110.501 89.2737 110.552 89.3658 110.597 89.4614C110.804 89.87 111.16 90.7552 110.436 91.9499Z"
        fill="#263238" />
    <path
        d="M110.597 89.4552C110.349 89.1766 109.213 90.3992 108.381 90.817C107.638 91.1854 106.802 91.3494 106.431 90.9749C107.307 90.5632 108.867 88.6369 108.867 88.6369L110.204 88.7712C110.204 88.7712 110.51 89.2757 110.597 89.4552Z"
        fill="#EEC1BB" />
    <path
        d="M128.044 60.2248C127.854 61.5949 127.61 63.0609 127.311 64.623C129.864 73.1438 124.612 89.774 124.612 89.774C123.723 89.9504 122.937 89.8359 122.538 89.5357C123.528 84.5247 122.817 71.4972 122.046 63.713C121.978 63.0073 121.891 62.2304 121.798 61.4009C121.64 59.9957 121.452 58.4482 121.25 56.848C120.91 54.1707 120.529 51.3541 120.186 48.8564C119.765 45.8386 119.4 43.2851 119.211 42.0006C119.133 41.4373 119.087 41.1185 119.087 41.1185L126.46 41.9171C126.46 41.9171 128.335 44.0187 128.626 50.5834C128.722 53.8082 128.527 57.035 128.044 60.2248Z"
        fill="#263238" />
    <path
        d="M124.794 91.9499H124.383L124.268 91.4423L122.909 92.0613H119.461C119.461 92.0613 118.914 91.5104 120.557 91.074C120.637 91.0511 120.715 91.0211 120.789 90.9842C121.662 90.5725 122.909 89.1859 122.909 89.1859H124.801C124.858 89.2746 124.909 89.3666 124.955 89.4614C125.163 89.87 125.509 90.7552 124.794 91.9499Z"
        fill="#263238" />
    <path
        d="M124.955 89.4552C124.705 89.1766 123.569 90.3992 122.736 90.817C121.993 91.1854 121.158 91.3494 120.789 90.9749C121.662 90.5633 123.039 88.7712 123.039 88.7712H124.559C124.559 88.7712 124.866 89.2757 124.955 89.4552Z"
        fill="#EEC1BB" />
    <path
        d="M129.98 24.0759C129.602 23.749 128.99 23.8743 128.469 23.8131C127.679 23.7202 127.042 23.1493 126.702 22.5015C126.362 21.8537 126.263 21.1287 126.142 20.4207C126.021 19.7127 125.864 18.9876 125.43 18.3867C124.996 17.7858 123.951 17.041 123.192 17.4966L122.175 19.0724C122.785 20.9187 123.281 22.7953 123.661 24.6909C123.83 25.5374 123.998 26.4327 124.613 27.092C125.214 27.7378 126.167 28.0527 127.102 28.1131C127.576 28.1436 128.067 28.1133 128.5 27.9374C128.933 27.7616 129.302 27.4219 129.398 27.0036C129.494 26.5852 129.263 26.1022 128.823 25.9422C129.248 25.7626 129.691 25.5708 129.974 25.2339C130.258 24.8969 130.319 24.3686 129.98 24.0759Z"
        fill="#263238" />
    <path
        d="M115.415 16.2336C114.253 17.3582 114.106 18.6968 114.29 19.6131C114.681 20.8247 115.271 21.6252 115.826 22.7707L117.795 14.9048C117.054 15.1976 116.679 15.1027 115.415 16.2336Z"
        fill="#263238" />
    <path
        d="M118.921 14.8588C121.19 14.9048 123.468 16.8021 123.646 18.6431C123.824 20.4841 122.014 22.8597 121.674 23.0055L120.599 23.4006C120.599 23.4006 121.785 20.6596 121.293 19.9273C120.801 19.195 120.444 19.187 120.444 19.187L118.921 14.8588Z"
        fill="#263238" />
    <path
        d="M116.994 15.2953C118.174 14.4605 119.569 14.9377 120.396 15.2952C121.328 15.8331 121.986 16.7439 122.203 17.798C122.383 18.7877 122.602 19.9873 122.096 20.6123C121.814 20.9723 121.394 21.1973 120.938 21.2322L115.221 17.6074C115.606 16.6985 116.216 15.9027 116.994 15.2953Z"
        fill="#263238" />
    <path
        d="M119.3 28.6992C119.747 29.0189 120.067 28.8267 120.532 28.5298C123.325 26.9106 122.177 25.6286 122.177 25.6286C121.489 25.0667 121.319 24.2754 121.305 23.0248C121.303 22.9887 121.298 22.9528 121.29 22.9174C121.259 22.7559 121.178 22.6081 121.059 22.4943C120.743 22.1745 120.228 22.1716 119.908 22.4879L119.907 22.4888L118.639 23.1148C118.638 23.1339 118.638 23.1529 118.638 23.1743C118.755 23.8385 118.867 24.3501 118.937 24.7561C118.936 24.8061 118.954 24.8565 118.96 24.9042C118.96 24.9542 118.973 25.0068 118.982 25.0546C119.051 25.6155 118.26 26.6015 117.913 26.8647C117.705 27.0398 117.785 27.6229 119.3 28.6992Z"
        fill="#EEC1BB" />
    <path
        d="M121.478 18.2168C121.843 20.5142 122.048 21.4752 121.188 22.9156C119.89 25.0797 117.059 25.0811 116.019 22.9508C115.099 21.0297 114.646 17.6042 116.612 16.1614C118.577 14.7185 121.11 15.917 121.478 18.2168Z"
        fill="#EEC1BB" />
    <path
        d="M122.848 19.992C122.706 20.5281 122.351 20.9368 121.981 21.1444C121.423 21.4566 120.853 20.5781 120.895 19.9231C120.932 19.3335 121.424 18.8169 122.038 18.7768C122.643 18.7373 123.01 19.379 122.848 19.992Z"
        fill="#EEC1BB" />
    <path opacity="0.2"
        d="M121.55 20.2715C121.524 20.2715 121.5 20.2527 121.494 20.2255C121.447 19.9915 121.496 19.7432 121.628 19.5446C121.76 19.3457 121.97 19.2044 122.203 19.1568C122.234 19.1502 122.265 19.1706 122.271 19.2016C122.277 19.2326 122.257 19.2628 122.226 19.2692C122.022 19.3108 121.839 19.4343 121.724 19.608C121.608 19.7816 121.566 19.9984 121.607 20.2029C121.613 20.234 121.593 20.2643 121.562 20.2704C121.558 20.2712 121.554 20.2715 121.55 20.2715Z"
        fill="black" />
    <path
        d="M118.676 19.7448C118.73 19.9871 118.654 20.2187 118.506 20.262C118.358 20.3053 118.195 20.1441 118.141 19.9019C118.087 19.6597 118.164 19.4281 118.311 19.3848C118.459 19.3414 118.623 19.5026 118.676 19.7448Z"
        fill="#263238" />
    <path
        d="M116.445 20.3422C116.496 20.577 116.418 20.8025 116.271 20.8458C116.124 20.889 115.962 20.7337 115.911 20.4988C115.859 20.264 115.937 20.0385 116.084 19.9952C116.232 19.9519 116.393 20.1073 116.445 20.3422Z"
        fill="#263238" />
    <path
        d="M118.922 18.7838C118.894 18.7948 118.863 18.7943 118.835 18.7798C118.399 18.5516 118.038 18.7711 118.033 18.7737C117.98 18.8063 117.912 18.7894 117.883 18.7337C117.854 18.678 117.874 18.6058 117.928 18.572C117.947 18.5604 118.4 18.2844 118.941 18.5677C118.995 18.596 119.015 18.6664 118.986 18.725C118.971 18.7531 118.948 18.7735 118.922 18.7838Z"
        fill="#263238" />
    <path
        d="M115.387 19.4106C115.362 19.4092 115.339 19.3974 115.322 19.3753C115.288 19.3296 115.295 19.2578 115.339 19.2148C115.777 18.7843 116.22 18.9014 116.239 18.9068C116.292 18.9215 116.32 18.9827 116.302 19.0437C116.284 19.1045 116.227 19.1419 116.174 19.1274C116.157 19.1226 115.812 19.0376 115.464 19.38C115.441 19.4021 115.414 19.4123 115.387 19.4106Z"
        fill="#263238" />
    <path
        d="M117.021 20.0676C117.021 20.0676 116.897 21.0098 116.641 21.6455C116.596 21.7566 116.676 21.8795 116.795 21.8901C117.102 21.9172 117.404 21.7357 117.404 21.7357L117.021 20.0676Z"
        fill="#D4827D" />
    <path d="M118.399 19.3716L117.847 19.3896C117.847 19.3896 118.236 19.6997 118.399 19.3716Z"
        fill="#263238" />
    <path d="M116.139 19.9861L115.587 20.0041C115.587 20.0041 115.976 20.3141 116.139 19.9861Z"
        fill="#263238" />
    <path
        d="M120.787 18.9189C120.787 18.9189 119.207 17.6636 118.934 16.3934C118.934 16.3934 114.068 16.2078 115.235 20.1658C115.235 20.1658 113.588 16.8591 117.305 15.5933C121.023 14.3274 122.72 19.174 121.305 21.2289C121.295 21.2121 121.766 19.7072 120.787 18.9189Z"
        fill="#263238" />
    <path
        d="M115.659 16.4095C115.244 16.9837 115.023 17.6752 115.027 18.3837C115.118 18.8815 115.861 19.1179 115.861 19.1179L116.491 17.8815L116.665 18.8352C117.993 18.4395 118.646 17.5771 118.921 16.4537L117.919 15.2418C117.919 15.2418 116.038 15.9377 115.659 16.4095Z"
        fill="#263238" />
    <path
        d="M118.428 22.2102C118.4 22.2102 118.371 22.208 118.343 22.2034C118.312 22.1984 118.291 22.1689 118.296 22.1377C118.301 22.1067 118.329 22.0849 118.361 22.0903C118.495 22.1119 118.64 22.0666 118.738 21.9712C118.835 21.876 118.884 21.7329 118.866 21.5977C118.862 21.5663 118.884 21.5375 118.915 21.5332C118.949 21.5274 118.975 21.551 118.98 21.5823C119.003 21.7527 118.941 21.9331 118.818 22.0531C118.715 22.1535 118.571 22.2102 118.428 22.2102Z"
        fill="#263238" />
    <path
        d="M116.719 41.1185H126.509L126.775 42.3813C126.775 42.3813 130.372 47.3583 128.549 59.7698C128.549 59.7698 120.672 60.6797 113.253 59.0889C113.253 59.0889 114.918 46.3369 116.657 42.174L116.719 41.1185Z"
        fill="#263238" />
    <path
        d="M126.015 37.2698L126.711 42.4759L115.978 42.0434C115.95 40.925 116.948 37.9568 116.832 37.1453C116.507 36.1427 114.858 34.6296 114.419 33.4182C113.951 31.7362 114.917 27.1108 115.233 26.9642C115.615 26.7865 116.091 26.8025 116.384 26.6735C117.523 26.4055 120.115 25.4798 121.276 25.3354C121.501 25.3143 121.724 25.2737 121.946 25.248C121.946 25.248 126.337 25.0367 126.531 26.8233C126.551 26.9226 125.485 31.6092 126.015 37.2698Z"
        fill="#407BFF" />
    <path opacity="0.2"
        d="M121.256 40.8116C121.4 40.7929 122.674 39.4085 122.674 39.4085L126.319 39.5465L126.143 38.2284C126.251 38.143 121.883 38.3422 121.883 38.3422L121.256 39.7027V40.8116Z"
        fill="black" />
    <path
        d="M124.874 25.6634C125.061 25.6867 125.825 25.2545 127.203 27.0243C128.581 28.794 130.125 35.5407 130.212 36.5251C130.323 37.7752 129.49 38.3915 128.659 38.5287C126.167 38.9402 121.567 39.0232 121.567 39.0232V36.9041L126.157 35.8649C126.157 35.8649 123.552 29.5944 123.963 27.9789C124.374 26.3634 124.874 25.6634 124.874 25.6634Z"
        fill="#407BFF" />
    <path
        d="M122.809 25.242C122.478 27.0435 121.13 28.4574 119.356 28.9142C118.734 29.0637 118.039 28.7195 117.547 28.3119C117.049 27.8959 116.717 27.3143 116.612 26.6735C118.772 25.8219 120.729 25.0915 122.809 25.242Z"
        fill="#EEC1BB" />
    <path opacity="0.2"
        d="M126.156 35.8649C126.156 35.8649 126.903 35.8226 127.219 36.2294C127.219 36.2294 127.028 35.4499 126.054 35.6137L126.156 35.8649Z"
        fill="black" />
    <path
        d="M120.084 49.4624V25.8326H96.4878V35.2738C96.9155 35.4363 98.3129 35.5433 98.7378 35.385C99.4825 35.1075 98.9965 34.2493 99.7156 33.9108C100.776 33.4112 102.098 34.1153 102.654 35.1476C103.086 35.9484 103.167 36.3678 103.127 37.0597C103.167 37.7517 103.086 38.171 102.654 38.9719C102.098 40.0043 100.776 40.7082 99.7156 40.2088C98.9965 39.8702 99.5813 39.0334 98.8365 38.7559C98.4117 38.5976 96.9155 38.6832 96.4878 38.8457V49.4624H107.04C107.052 49.6929 107.026 49.9233 106.944 50.1419C106.667 50.8867 105.875 51.3298 105.537 52.0489C105.037 53.1097 105.741 54.4315 106.774 54.9876C107.574 55.4189 107.994 55.4999 108.686 55.4603C109.378 55.4999 109.797 55.4189 110.598 54.9876C111.63 54.4315 112.334 53.1097 111.835 52.0489C111.496 51.3298 110.705 50.8867 110.427 50.1419C110.346 49.9233 110.319 49.6929 110.332 49.4624H120.084Z"
        fill="#407BFF" />
    <path
        d="M121.256 49.4624V25.8326H97.6592V35.2738C98.0868 35.4363 98.5552 35.4767 98.9801 35.3184C99.7248 35.0409 100.168 34.2493 100.887 33.9108C101.948 33.4112 103.27 34.1153 103.826 35.1476C104.257 35.9484 104.338 36.3678 104.298 37.0597C104.338 37.7517 104.257 38.171 103.826 38.9719C103.27 40.0043 101.948 40.7082 100.887 40.2088C100.168 39.8702 99.7248 39.0786 98.9801 38.8011C98.5552 38.6428 98.0868 38.6832 97.6592 38.8457V49.4624H108.211C108.224 49.6929 108.197 49.9233 108.116 50.1419C107.838 50.8867 107.047 51.3298 106.708 52.0489C106.209 53.1097 106.913 54.4315 107.945 54.9876C108.746 55.4189 109.165 55.4999 109.857 55.4603C110.549 55.4999 110.968 55.4189 111.769 54.9876C112.802 54.4315 113.506 53.1097 113.006 52.0489C112.668 51.3298 111.876 50.8867 111.598 50.1419C111.517 49.9233 111.491 49.6929 111.503 49.4624H121.256Z"
        fill="#407BFF" />
    <g opacity="0.3">
        <path
            d="M121.256 49.4624V25.8326H97.6592V35.2738C98.0868 35.4363 98.5552 35.4767 98.9801 35.3184C99.7248 35.0409 100.168 34.2493 100.887 33.9108C101.948 33.4112 103.27 34.1153 103.826 35.1476C104.257 35.9484 104.338 36.3678 104.298 37.0597C104.338 37.7517 104.257 38.171 103.826 38.9719C103.27 40.0043 101.948 40.7082 100.887 40.2088C100.168 39.8702 99.7248 39.0786 98.9801 38.8011C98.5552 38.6428 98.0868 38.6832 97.6592 38.8457V49.4624H108.211C108.224 49.6929 108.197 49.9233 108.116 50.1419C107.838 50.8867 107.047 51.3298 106.708 52.0489C106.209 53.1097 106.913 54.4315 107.945 54.9876C108.746 55.4189 109.165 55.4999 109.857 55.4603C110.549 55.4999 110.968 55.4189 111.769 54.9876C112.802 54.4315 113.506 53.1097 113.006 52.0489C112.668 51.3298 111.876 50.8867 111.598 50.1419C111.517 49.9233 111.491 49.6929 111.503 49.4624H121.256Z"
            fill="white" />
    </g>
    <path
        d="M121.256 37.3183C121.256 37.3183 119.672 37.7142 119.498 38.0868C119.325 38.4595 119.911 38.431 119.911 38.431C119.911 38.431 119.268 38.502 119.261 38.779C119.253 39.1115 119.867 39.0788 119.867 39.0788C119.867 39.0788 119.344 39.1583 119.355 39.4051C119.366 39.6611 120.061 39.6734 120.061 39.6734C120.061 39.6734 119.704 39.799 119.808 39.9665C119.913 40.1339 121.388 40.1887 121.823 39.9126C122.257 39.6365 122.259 37.7405 122.174 37.3268C122.089 36.9131 121.775 36.69 121.256 36.0617V37.3183Z"
        fill="#EEC1BB" />
    <path opacity="0.2"
        d="M119.912 38.462L119.915 38.4617L121.03 38.2843C121.045 38.2818 121.055 38.2661 121.053 38.2492C121.05 38.2321 121.036 38.2201 121.021 38.2226L119.907 38.4001C119.892 38.4025 119.881 38.4183 119.884 38.4352C119.886 38.4513 119.898 38.4627 119.912 38.462Z"
        fill="black" />
    <path opacity="0.2"
        d="M119.901 39.1083L119.901 39.1083L120.986 39.0229C121.001 39.0217 121.012 39.0069 121.011 38.9898C121.009 38.9726 120.999 38.9624 120.981 38.9609L119.897 39.0462C119.882 39.0475 119.87 39.0622 119.872 39.0793C119.873 39.0963 119.886 39.109 119.901 39.1083Z"
        fill="black" />
    <path opacity="0.2"
        d="M120.1 39.7027L120.907 39.6624C120.923 39.6616 120.934 39.647 120.933 39.6299C120.932 39.6128 120.92 39.5995 120.904 39.6002L120.097 39.6405C120.082 39.6413 120.07 39.6558 120.071 39.673C120.072 39.6901 120.085 39.7034 120.1 39.7027Z"
        fill="black" />
    <path
        d="M103.144 36.6929C103.144 36.6929 104.84 37.167 105.013 37.5396C105.187 37.9123 104.601 37.8838 104.601 37.8838C104.601 37.8838 105.244 37.9548 105.251 38.2318C105.259 38.5643 104.645 38.5316 104.645 38.5316C104.645 38.5316 105.167 38.6111 105.157 38.8579C105.146 39.1139 104.451 39.1263 104.451 39.1263C104.451 39.1263 104.808 39.2518 104.703 39.4193C104.599 39.5867 103.124 39.6415 102.689 39.3654C102.255 39.0893 102.253 37.1933 102.338 36.7796C102.422 36.3659 102.457 36.4342 102.977 35.8059L103.071 36.1577C103.097 36.2533 103.114 36.351 103.123 36.4497L103.144 36.6929Z"
        fill="#EEC1BB" />
    <path opacity="0.2"
        d="M104.6 37.9148L104.597 37.9145L103.482 37.7371C103.467 37.7346 103.457 37.7189 103.459 37.702C103.462 37.685 103.476 37.6729 103.491 37.6754L104.605 37.8529C104.62 37.8554 104.631 37.8711 104.628 37.888C104.626 37.9041 104.614 37.9155 104.6 37.9148Z"
        fill="black" />
    <path opacity="0.2"
        d="M104.611 38.5612L104.611 38.5611L103.526 38.4758C103.511 38.4746 103.5 38.4598 103.501 38.4427C103.503 38.4255 103.513 38.4153 103.531 38.4137L104.615 38.499C104.63 38.5003 104.641 38.5151 104.64 38.5322C104.639 38.5491 104.626 38.5618 104.611 38.5612Z"
        fill="black" />
    <path opacity="0.2"
        d="M104.412 39.1555L103.605 39.1152C103.589 39.1144 103.578 39.0999 103.579 39.0828C103.58 39.0657 103.592 39.0523 103.608 39.053L104.415 39.0934C104.43 39.0941 104.442 39.1087 104.441 39.1258C104.44 39.1429 104.427 39.1563 104.412 39.1555Z"
        fill="black" />
    <path d="M68.3828 89.3064L70.7247 89.5357L72.4556 83.6063L68.8928 83.2186L68.3828 89.3064Z"
        fill="#EEC1BB" />
    <path
        d="M71.0639 88.5016H70.2277C70.0386 88.5016 69.8635 88.5973 69.7518 88.75C69.2696 89.4085 68.9072 89.1596 68.3828 88.5405C68.0494 88.5016 67.9596 88.8843 67.9324 88.9871L67.3073 91.2608C67.253 91.4507 67.3629 91.6486 67.5528 91.7029C67.5866 91.7126 67.6216 91.7172 67.6567 91.7166H74.2813C75.3349 91.7166 75.5532 90.6548 75.1192 90.5566C73.1677 90.1253 71.7857 89.551 71.1825 88.9833C71.0706 88.8839 71.1855 88.8095 71.0639 88.5016Z"
        fill="#263238" />
    <path
        d="M72.8782 89.1481C72.9662 89.0849 73.0189 88.9835 73.0201 88.8752C73.0275 88.8171 73.0011 88.7598 72.9519 88.7278C72.6899 88.5422 71.6445 89.0308 71.5271 89.0881C71.514 89.0928 71.5038 89.103 71.4991 89.1161C71.4904 89.1402 71.5029 89.1668 71.5271 89.1755C71.784 89.2362 72.0465 89.2701 72.3105 89.2764C72.5085 89.2953 72.7075 89.2503 72.8782 89.1481ZM72.8864 88.8069C72.9077 88.8201 72.9186 88.8451 72.9137 88.8697C72.9093 88.948 72.8715 89.0205 72.81 89.069C72.5725 89.2464 71.9993 89.17 71.6909 89.1126C72.1248 88.9216 72.7418 88.7059 72.8864 88.8069Z"
        fill="#407BFF" />
    <path
        d="M71.5627 89.1864C71.8766 89.0553 72.5344 88.5394 72.499 88.2665C72.4935 88.2092 72.4525 88.141 72.3106 88.1218C71.7374 88.0563 71.4917 89.0854 71.4917 89.129C71.4861 89.1467 71.4914 89.166 71.5054 89.1782C71.5161 89.1814 71.5275 89.1814 71.5381 89.1782L71.5627 89.1864ZM72.2915 88.2064C72.398 88.2174 72.398 88.2556 72.398 88.2692C72.428 88.4357 71.9503 88.8643 71.6091 89.0444C71.68 88.8042 71.8903 88.2037 72.2533 88.2037L72.2915 88.2064Z"
        fill="#407BFF" />
    <path
        d="M70.9343 89.6617C70.9238 89.6617 70.9132 89.6588 70.9037 89.653C70.877 89.6359 70.8689 89.6006 70.8858 89.5739C71.0501 89.3128 71.3307 89.1318 71.6366 89.0899C71.6671 89.0866 71.6969 89.1076 71.7011 89.139C71.7055 89.1703 71.6835 89.1992 71.6521 89.2037C71.3795 89.2409 71.1292 89.4021 70.9828 89.6348C70.9719 89.6523 70.9533 89.6617 70.9343 89.6617Z"
        fill="#407BFF" />
    <path
        d="M71.4538 90.0527C71.4433 90.0527 71.4328 90.0498 71.4232 90.044C71.3965 90.027 71.3884 89.9916 71.4053 89.9649C71.5698 89.7036 71.8504 89.5228 72.1562 89.4812C72.1866 89.4774 72.2163 89.4989 72.2207 89.5302C72.2249 89.5618 72.203 89.5907 72.1716 89.595C71.8992 89.6319 71.649 89.7932 71.5023 90.0258C71.4914 90.0433 71.4729 90.0527 71.4538 90.0527Z"
        fill="#407BFF" />
    <path
        d="M72.1005 90.3817C72.09 90.3817 72.0795 90.3788 72.07 90.373C72.0432 90.356 72.0352 90.3206 72.0521 90.2939C72.2163 90.0328 72.497 89.8518 72.8029 89.8099C72.8335 89.8068 72.8631 89.8276 72.8674 89.859C72.8717 89.8903 72.8498 89.9192 72.8183 89.9237C72.5458 89.9609 72.2955 90.1221 72.149 90.3548C72.1382 90.3723 72.1196 90.3817 72.1005 90.3817Z"
        fill="#407BFF" />
    <path opacity="0.3"
        d="M71.5407 86.7401L71.3285 87.4673L68.5723 87.0439L68.6222 86.4478L71.5407 86.7401Z"
        fill="black" />
    <path d="M82.0154 89.3064L84.3573 89.5357L86.0881 83.6063L82.5253 83.2186L82.0154 89.3064Z"
        fill="#EEC1BB" />
    <path
        d="M84.6965 88.5016H83.8603C83.6711 88.5016 83.4961 88.5973 83.3843 88.75C82.9021 89.4085 82.5398 89.1596 82.0153 88.5405C81.6819 88.5016 81.5922 88.8843 81.565 88.9871L80.9399 91.2608C80.8856 91.4507 80.9955 91.6486 81.1854 91.7029C81.2192 91.7126 81.2542 91.7172 81.2893 91.7166H87.9139C88.9675 91.7166 89.1858 90.6548 88.7518 90.5566C86.8002 90.1253 85.4183 89.551 84.8151 88.9833C84.7032 88.8839 84.8181 88.8095 84.6965 88.5016Z"
        fill="#263238" />
    <path
        d="M86.5108 89.1481C86.5987 89.0849 86.6514 88.9835 86.6527 88.8752C86.6601 88.8171 86.6336 88.7598 86.5845 88.7278C86.3224 88.5422 85.277 89.0308 85.1597 89.0881C85.1466 89.0928 85.1363 89.103 85.1316 89.1161C85.123 89.1402 85.1355 89.1668 85.1597 89.1755C85.4166 89.2362 85.6791 89.2701 85.943 89.2764C86.1411 89.2953 86.34 89.2503 86.5108 89.1481ZM86.519 88.8069C86.5403 88.8201 86.5512 88.8451 86.5463 88.8697C86.5419 88.948 86.5041 89.0205 86.4425 89.069C86.2051 89.2464 85.6319 89.17 85.3234 89.1126C85.7574 88.9216 86.3743 88.7059 86.519 88.8069Z"
        fill="#407BFF" />
    <path
        d="M85.1953 89.1864C85.5092 89.0553 86.167 88.5394 86.1315 88.2665C86.126 88.2092 86.0851 88.141 85.9432 88.1218C85.3699 88.0563 85.1243 89.0854 85.1243 89.129C85.1186 89.1467 85.124 89.166 85.1379 89.1782C85.1486 89.1814 85.16 89.1814 85.1707 89.1782L85.1953 89.1864ZM85.924 88.2064C86.0305 88.2174 86.0305 88.2556 86.0305 88.2692C86.0605 88.4357 85.5829 88.8643 85.2417 89.0444C85.3126 88.8042 85.5228 88.2037 85.8858 88.2037L85.924 88.2064Z"
        fill="#407BFF" />
    <path
        d="M84.5669 89.6617C84.5563 89.6617 84.5458 89.6588 84.5363 89.653C84.5095 89.6359 84.5015 89.6006 84.5184 89.5739C84.6826 89.3128 84.9633 89.1318 85.2692 89.0899C85.2996 89.0866 85.3293 89.1076 85.3337 89.139C85.3381 89.1703 85.3161 89.1992 85.2846 89.2037C85.0121 89.2409 84.7618 89.4021 84.6153 89.6348C84.6045 89.6523 84.5859 89.6617 84.5669 89.6617Z"
        fill="#407BFF" />
    <path
        d="M85.0866 90.0527C85.0761 90.0527 85.0656 90.0498 85.0561 90.044C85.0293 90.027 85.0212 89.9916 85.0381 89.9649C85.2026 89.7036 85.4833 89.5228 85.789 89.4812C85.8192 89.4774 85.8491 89.4989 85.8535 89.5302C85.8577 89.5618 85.8358 89.5907 85.8044 89.595C85.532 89.6319 85.2818 89.7932 85.1351 90.0258C85.1243 90.0433 85.1057 90.0527 85.0866 90.0527Z"
        fill="#407BFF" />
    <path
        d="M85.7331 90.3817C85.7226 90.3817 85.7121 90.3788 85.7025 90.373C85.6758 90.356 85.6677 90.3206 85.6846 90.2939C85.849 90.0328 86.1297 89.8518 86.4355 89.81C86.4697 89.8079 86.4959 89.8279 86.5002 89.859C86.5044 89.8904 86.4825 89.9192 86.4511 89.9237C86.1785 89.9609 85.9282 90.1222 85.7816 90.3548C85.7707 90.3723 85.7522 90.3817 85.7331 90.3817Z"
        fill="#407BFF" />
    <path opacity="0.3"
        d="M85.1733 86.7401L84.961 87.4673L82.2048 87.0439L82.2548 86.4478L85.1733 86.7401Z"
        fill="black" />
    <path
        d="M87.021 44.6247C87.021 44.6247 88.9621 53.1964 89.8872 60.6627C90.1692 62.9383 90.2229 65.9814 89.7247 68.2218L85.9834 86.8213L81.2755 86.3497C82.0154 78.3281 83.0464 68.4345 83.3417 64.2251C82.3061 59.2924 80.0995 53.3213 77.9299 47.3831L87.021 44.6247Z"
        fill="#407BFF" />
    <g opacity="0.2">
        <path
            d="M87.021 44.6247C87.021 44.6247 88.9621 53.1964 89.8872 60.6627C90.1692 62.9383 90.2229 65.9814 89.7247 68.2218L85.9834 86.8213L81.2755 86.3497C82.0154 78.3281 83.0464 68.4345 83.3417 64.2251C82.3061 59.2924 80.0995 53.3213 77.9299 47.3831L87.021 44.6247Z"
            fill="black" />
    </g>
    <path
        d="M71.5512 65.723C71.6577 65.2591 71.8278 64.3168 72.0365 63.074C72.0302 63.0726 72.0232 63.0711 72.017 63.0697C72.17 61.4261 72.453 53.8028 72.973 48.9404C73.3726 45.8433 74.1642 43.7474 74.9612 42.7211C75.0023 42.6684 75.0399 42.6205 75.0741 42.5778C75.2065 42.4125 75.2869 42.3215 75.2869 42.3215C75.4385 42.3594 75.589 42.3947 75.7389 42.4275C75.795 42.4399 75.8508 42.4518 75.9062 42.4635C81.5337 43.6401 86.4859 42.161 86.4859 42.161C87.0039 43.4403 87.3909 46.1683 87.7688 48.9972C87.1802 49.6432 84.5969 50.4813 81.6333 51.0367L80.7882 54.8588C80.3435 57.2285 79.7726 59.5527 79.2876 61.6457L78.7808 63.9378C78.75 64.0881 78.7198 64.2372 78.6912 64.3836C78.4341 65.7013 72.3153 86.9327 72.3153 86.9327L68.3289 86.6992C68.3289 86.6992 70.1095 72.0047 71.5512 65.723Z"
        fill="#407BFF" />
    <path opacity="0.2"
        d="M71.5512 65.723C71.6577 65.2591 71.8278 64.3168 72.0365 63.074C72.0302 63.0726 72.0232 63.0711 72.017 63.0697C72.17 61.4261 72.453 53.8028 72.973 48.9404C73.3726 45.8433 74.1642 43.7474 74.9612 42.7211C75.0023 42.6684 75.0399 42.6205 75.0741 42.5778C75.2065 42.4125 75.2869 42.3215 75.2869 42.3215C75.4385 42.3594 75.589 42.3947 75.7389 42.4275C75.795 42.4399 75.8508 42.4518 75.9062 42.4635C81.5337 43.6401 86.4859 42.161 86.4859 42.161C87.0039 43.4403 87.3909 46.1683 87.7688 48.9972C87.1802 49.6432 84.5969 50.4813 81.6333 51.0367L80.7882 54.8588C80.3435 57.2285 79.7726 59.5527 79.2876 61.6457L78.7808 63.9378C78.75 64.0881 78.7198 64.2372 78.6912 64.3836C78.4341 65.7013 72.3153 86.9327 72.3153 86.9327L68.3289 86.6992C68.3289 86.6992 70.1095 72.0047 71.5512 65.723Z"
        fill="black" />
    <path opacity="0.2"
        d="M80.7337 55.212C80.7182 55.29 82.5594 48.5975 82.5594 48.5975C82.5594 48.5975 84.1096 54.5725 81.7509 58.3098L80.7337 55.212Z"
        fill="black" />
    <path
        d="M76.7722 25.0174C76.7722 25.0174 77.7085 25.7373 78.914 26.7761C79.1651 26.9926 79.4415 27.1797 79.7343 27.3352C80.5242 27.7548 81.2443 27.9948 81.4393 27.614C81.4826 27.5303 81.516 27.4395 81.5407 27.3444C81.7063 26.7067 81.6384 25.8102 81.1229 25.3999C80.5416 24.9372 80.2614 24.5414 80.3662 23.9152C80.4212 23.5601 80.5497 23.1937 80.6999 22.8377L80.2425 22.3029L77.8504 19.8887C77.9102 21.5008 78.0322 24.1424 76.7722 25.0174Z"
        fill="#EEC1BB" />
    <path opacity="0.2"
        d="M80.3467 24.0527C79.6888 23.6622 78.9669 22.9848 79.0535 22.2108C79.092 21.8849 79.1623 21.5761 79.2404 21.3781L80.5767 23.1474C80.467 23.4326 80.427 23.6211 80.3467 24.0527Z"
        fill="black" />
    <path
        d="M77.1731 17.2987C77.3982 19.7566 77.4416 20.7989 78.71 22.0877C80.6178 24.0262 83.5529 23.3742 84.0582 20.9379C84.513 18.7451 84.0684 15.0941 81.6554 14.0611C79.2782 13.0434 76.9479 14.8408 77.1731 17.2987Z"
        fill="#EEC1BB" />
    <path
        d="M80.2346 18.0737C80.2474 18.3038 80.3888 18.4931 80.5504 18.4965C80.712 18.4999 80.8327 18.3161 80.8199 18.086C80.8071 17.8559 80.6657 17.6666 80.5041 17.6632C80.3425 17.6598 80.2218 17.8436 80.2346 18.0737Z"
        fill="#263238" />
    <path
        d="M82.7817 18.0389C82.7946 18.2618 82.9357 18.4454 83.0969 18.4488C83.258 18.4521 83.3782 18.2742 83.3653 18.0512C83.3524 17.8283 83.2113 17.6447 83.0501 17.6413C82.889 17.6379 82.7688 17.8159 82.7817 18.0389Z"
        fill="#263238" />
    <path
        d="M79.8438 17.1931C79.8751 17.1966 79.9069 17.1875 79.9312 17.165C80.3099 16.8145 80.7362 16.9375 80.7412 16.939C80.8043 16.9574 80.8683 16.9216 80.8828 16.8571C80.8971 16.7928 80.8569 16.7251 80.7929 16.7057C80.7706 16.6991 80.2356 16.5441 79.7657 16.9794C79.7189 17.0227 79.718 17.0996 79.7636 17.1509C79.7857 17.1755 79.8145 17.1898 79.8438 17.1931Z"
        fill="#263238" />
    <path
        d="M83.5683 17.0707C83.5974 17.0778 83.6283 17.0741 83.6545 17.0577C83.7087 17.0239 83.7227 16.9494 83.6861 16.8914C83.3181 16.3097 82.771 16.2743 82.7476 16.2732C82.6822 16.2698 82.6301 16.3213 82.6314 16.3884C82.6325 16.4553 82.6865 16.5124 82.7517 16.5162C82.7732 16.5172 83.1974 16.551 83.4899 17.0136C83.5088 17.0435 83.5376 17.0633 83.5683 17.0707Z"
        fill="#263238" />
    <path
        d="M78.2203 18.8407C78.2203 18.8407 78.9787 17.6944 78.6663 15.4619C78.6139 15.0877 78.8506 14.7333 79.2216 14.6613C80.282 14.4553 81.6998 13.1177 83.4295 15.7744C83.4295 15.7744 82.6046 12.592 77.7749 13.8741C73.4768 15.015 76.4196 18.6579 76.8628 19.0326C77.3061 19.4073 78.2203 18.8407 78.2203 18.8407Z"
        fill="#263238" />
    <path
        d="M76.4296 19.3019C76.7199 19.806 77.1917 20.1225 77.6242 20.231C78.2748 20.3942 78.6107 19.3481 78.3887 18.6963C78.1887 18.1096 77.5495 17.7212 76.9163 17.8491C76.2925 17.9752 76.0977 18.7255 76.4296 19.3019Z"
        fill="#EEC1BB" />
    <path
        d="M82.1621 20.44C81.962 20.748 81.7215 21.3448 81.7215 21.3448C81.6635 21.3328 81.6055 21.3208 81.5483 21.3057C80.7658 21.1226 80.4633 20.779 80.3652 20.4538C80.3123 20.2757 80.3227 20.1014 80.3493 19.9636C80.3784 19.8037 80.4355 19.6964 80.4355 19.6964C80.7924 20.0413 81.5087 20.2682 81.8964 20.3734C82.0582 20.4192 82.1621 20.44 82.1621 20.44Z"
        fill="#263238" />
    <path
        d="M81.8965 20.3734L81.7597 20.6368C81.0231 20.4625 80.5279 20.241 80.3494 19.9636C80.3785 19.8037 80.4356 19.6964 80.4356 19.6964C80.7925 20.0413 81.5088 20.2682 81.8965 20.3734Z"
        fill="white" />
    <path
        d="M81.5483 21.3057C80.7658 21.1226 80.4633 20.779 80.3652 20.4538C80.6295 20.5265 80.94 20.6436 81.1938 20.8294C81.3885 20.9707 81.4913 21.1427 81.5483 21.3057Z"
        fill="#DC5753" />
    <path
        d="M82.1211 17.9717C82.1211 17.9717 82.5056 18.8917 82.9394 19.4652C83.0152 19.5655 82.9683 19.7118 82.8504 19.7552C82.5469 19.8669 82.1917 19.7658 82.1917 19.7658L82.1211 17.9717Z"
        fill="#D4827D" />
    <path d="M80.4548 17.6576L81.019 17.5244C81.019 17.5244 80.7105 17.945 80.4548 17.6576Z"
        fill="#263238" />
    <path d="M82.9922 17.6471L83.5563 17.5139C83.5563 17.5139 83.2478 17.9345 82.9922 17.6471Z"
        fill="#263238" />
    <path
        d="M83.8596 16.8141C83.8596 16.8141 85.3481 15.0531 84.3549 13.6015C83.9817 13.056 83.2964 12.9747 82.6916 12.7081C81.2961 12.0933 80.165 11.9691 78.384 13.7146C76.531 15.5307 76.1958 16.1422 78.2396 18.3797C78.2396 18.3797 78.019 18.0871 78.7746 17.4214C79.5302 16.7558 80.3642 16.1636 79.9593 15.518C79.9593 15.518 80.5875 15.7603 80.6324 16.3581L81.7373 16.0563C81.7373 16.0563 81.6893 15.6291 81.397 15.2018C81.397 15.2018 81.9697 15.5391 82.1556 16.0338L83.1114 16.2137C83.1114 16.2137 82.9711 15.3367 82.7012 15.0219C82.7012 15.0219 83.5769 15.9222 83.8596 16.8141Z"
        fill="#263238" />
    <path opacity="0.2"
        d="M77.8898 19.287C77.8604 19.287 77.8353 19.2645 77.8328 19.2347C77.8136 19.0173 77.7118 18.8062 77.5535 18.6557C77.3954 18.5053 77.1794 18.4144 76.961 18.4063C76.9293 18.4051 76.9047 18.3786 76.9058 18.3469C76.907 18.3153 76.9282 18.2945 76.9653 18.2917C77.2112 18.3008 77.4544 18.4032 77.6325 18.5726C77.8108 18.742 77.9255 18.9798 77.947 19.2247C77.9498 19.2562 77.9264 19.284 77.8949 19.2868L77.8898 19.287Z"
        fill="black" />
    <path
        d="M89.5752 39.6254C89.4368 39.5188 89.3056 39.4009 89.1829 39.2727C89.0785 39.1633 89.0057 39.0222 89.031 39.0222C89.0255 39.0065 89.0192 38.9912 89.012 38.9764L88.9677 38.8741L88.8601 38.5989C88.7874 38.4014 88.7178 38.1862 88.6482 37.9675C88.5027 37.5336 88.3666 37.0821 88.2337 36.627C87.9648 35.7134 87.7085 34.7892 87.4491 33.8614L86.9731 31.9165C86.9041 31.6014 86.7973 31.1423 86.6554 30.6183L86.655 30.6168C86.2679 29.1882 85.6211 27.2827 84.7754 26.525C83.4626 25.5205 82.6246 26.7597 82.0841 28.048C81.5655 29.2845 82.8456 32.6637 82.8456 32.6637L84.4053 32.5509C84.6025 33.27 84.8093 33.9851 85.0129 34.7151C85.2787 35.6675 85.5951 36.6023 85.9115 37.5371C86.0728 38.0063 86.2405 38.4755 86.424 38.9482C86.5316 39.188 86.6297 39.4244 86.7404 39.6748C86.7942 39.7983 86.8543 39.9288 86.9207 40.0593L87.0378 40.278C87.0869 40.3693 87.1419 40.4566 87.2023 40.5391C87.4336 40.8366 87.7181 41.0769 88.0376 41.2446C88.2837 41.3825 88.5425 41.4901 88.8095 41.5656C89.2957 41.7062 89.7978 41.7668 90.2997 41.7455L90.5813 40.3839C90.2459 40.1334 89.8757 39.8724 89.5752 39.6254Z"
        fill="#263238" />
    <path opacity="0.5"
        d="M89.5752 39.6254C89.4368 39.5188 89.3056 39.4009 89.1829 39.2727C89.0785 39.1633 89.0057 39.0222 89.031 39.0222C89.0255 39.0065 89.0192 38.9912 89.012 38.9764L88.9677 38.8741L88.8601 38.5989C88.7874 38.4014 88.7178 38.1862 88.6482 37.9675C88.5027 37.5336 88.3666 37.0821 88.2337 36.627C87.9648 35.7134 87.7085 34.7892 87.4491 33.8614L86.9731 31.9165C86.9041 31.6014 86.7973 31.1423 86.6554 30.6183L86.655 30.6168C86.2679 29.1882 85.6211 27.2827 84.7754 26.525C83.4626 25.5205 82.6246 26.7597 82.0841 28.048C81.5655 29.2845 82.8456 32.6637 82.8456 32.6637L84.4053 32.5509C84.6025 33.27 84.8093 33.9851 85.0129 34.7151C85.2787 35.6675 85.5951 36.6023 85.9115 37.5371C86.0728 38.0063 86.2405 38.4755 86.424 38.9482C86.5316 39.188 86.6297 39.4244 86.7404 39.6748C86.7942 39.7983 86.8543 39.9288 86.9207 40.0593L87.0378 40.278C87.0869 40.3693 87.1419 40.4566 87.2023 40.5391C87.4336 40.8366 87.7181 41.0769 88.0376 41.2446C88.2837 41.3825 88.5425 41.4901 88.8095 41.5656C89.2957 41.7062 89.7978 41.7668 90.2997 41.7455L90.5813 40.3839C90.2459 40.1334 89.8757 39.8724 89.5752 39.6254Z"
        fill="white" />
    <g opacity="0.3">
        <path
            d="M85.0638 28.7199C85.3273 29.1699 85.4177 29.4262 85.5828 29.9447C85.7479 30.4632 85.9349 33.2637 84.9895 34.0915V32.1499C85.024 30.9603 85.0293 29.9095 85.0638 28.7199Z"
            fill="black" />
    </g>
    <path
        d="M73.4341 32.2617L71.97 27.2694C72.8962 25.8872 77.4788 24.8251 77.4788 24.8251L79.8275 25.6493L80.498 24.9901C80.498 24.9901 81.6583 25.249 82.6518 25.573C83.9781 26.0055 84.6953 26.3534 85.0115 27.0893C85.0115 27.0893 85.5649 28.7199 85.2322 32.0799C85.1407 33.0039 85.2445 37.8073 85.5024 39.3942L87.0651 44.3404C81.5486 48.6365 73.8267 44.6247 73.8267 44.6247C74.0747 43.8661 74.901 41.5369 75.0131 40.7955C74.9321 39.8498 75.0448 38.3913 74.6442 36.7352C74.5669 36.4155 73.5683 32.5722 73.4341 32.2617Z"
        fill="#263238" />
    <path opacity="0.5"
        d="M73.4341 32.2617L71.97 27.2694C72.8962 25.8872 77.4788 24.8251 77.4788 24.8251L79.8275 25.6493L80.498 24.9901C80.498 24.9901 81.6583 25.249 82.6518 25.573C83.9781 26.0055 84.6953 26.3534 85.0115 27.0893C85.0115 27.0893 85.5649 28.7199 85.2322 32.0799C85.1407 33.0039 85.2445 37.8073 85.5024 39.3942L87.0651 44.3404C81.5486 48.6365 73.8267 44.6247 73.8267 44.6247C74.0747 43.8661 74.901 41.5369 75.0131 40.7955C74.9321 39.8498 75.0448 38.3913 74.6442 36.7352C74.5669 36.4155 73.5683 32.5722 73.4341 32.2617Z"
        fill="white" />
    <path
        d="M90.1934 37.638C90.365 35.5605 91.967 33.8865 94.0349 33.6236L93.6116 34.3291L94.4194 33.8494L90.7155 38.4952L90.1934 37.638Z"
        fill="#407BFF" />
    <path opacity="0.8"
        d="M90.1934 37.638C90.365 35.5605 91.967 33.8865 94.0349 33.6236L93.6116 34.3291L94.4194 33.8494L90.7155 38.4952L90.1934 37.638Z"
        fill="white" />
    <path
        d="M84.3906 33.8247L85.664 33.7859L91.7596 35.853L86.2037 44.3403L80.736 42.9752C80.4244 42.8888 80.2417 42.5662 80.3281 42.2545C80.3409 42.2081 80.3594 42.1634 80.3833 42.1215L82.5915 38.1283C82.6355 38.0493 82.6355 37.9533 82.5915 37.8743L82.2917 37.3416C82.2287 37.2325 82.2287 37.098 82.2917 36.9889L83.7733 34.2127C83.8988 33.986 84.1318 33.8395 84.3906 33.8247Z"
        fill="#407BFF" />
    <path d="M91.7595 35.853L95.2307 33.6236L89.5231 42.1039L86.2036 44.3403L91.7595 35.853Z"
        fill="#407BFF" />
    <path opacity="0.2"
        d="M91.7595 35.853L95.2307 33.6236L89.5231 42.1039L86.2036 44.3403L91.7595 35.853Z"
        fill="black" />
    <path
        d="M91.0781 39.7969C91.0781 39.7969 89.7292 39.4434 89.4327 39.6747C89.1363 39.906 89.542 40.1259 89.542 40.1259C89.542 40.1259 89.0777 39.917 88.9391 40.1397C88.7727 40.4069 89.1991 40.635 89.1991 40.635C89.1991 40.635 88.8111 40.4829 88.6987 40.6881C88.582 40.901 89.0412 41.1996 89.0412 41.1996C89.0412 41.1996 88.7414 41.1536 88.7301 41.3332C88.7189 41.5128 89.6792 42.1695 90.1035 42.125C90.5278 42.0805 91.4467 40.5381 91.5904 40.1662C91.734 39.7943 91.7192 39.5046 91.4467 39.2459L91.0781 39.7969Z"
        fill="#EEC1BB" />
    <path opacity="0.2"
        d="M89.5278 40.1518L89.5298 40.1527L90.3613 40.4707C90.3725 40.4749 90.387 40.4664 90.3936 40.4516C90.4003 40.4368 90.3964 40.421 90.3855 40.4171L89.554 40.099C89.5428 40.0949 89.5283 40.1034 89.5217 40.1181C89.5154 40.132 89.5182 40.1466 89.5278 40.1518Z"
        fill="black" />
    <path opacity="0.2"
        d="M89.2071 40.6729L89.2076 40.6732L89.9741 41.0535C89.9848 41.0588 89.9995 41.0514 90.0069 41.037C90.0144 41.0225 90.0121 41.0097 90.0011 41.0012L89.2346 40.6207C89.2239 40.6155 89.2092 40.6229 89.2018 40.6373C89.1944 40.6516 89.1968 40.6673 89.2071 40.6729Z"
        fill="black" />
    <path opacity="0.2"
        d="M89.0528 41.2394L89.6124 41.5416C89.6229 41.5473 89.6377 41.5402 89.6454 41.5259C89.6531 41.5117 89.6509 41.4954 89.6405 41.4898L89.0808 41.1876C89.0703 41.1819 89.0556 41.189 89.0478 41.2033C89.0401 41.2175 89.0423 41.2338 89.0528 41.2394Z"
        fill="black" />
    <path
        d="M81.3634 25.2015L80.3455 24.2154L79.8274 25.6493L77.5657 23.8467L76.4187 25.1047L79.2594 27.0841L79.8274 25.8271L81.3634 26.9794V25.2015Z"
        fill="#263238" />
    <path opacity="0.3"
        d="M81.3635 25.2015C81.4356 25.3124 81.3635 26.9794 81.3635 26.9794L79.8274 25.8271L79.2594 27.0841L76.5298 25.2015L79.3237 27.6358L79.8274 26.1578L81.5405 27.6358L81.3635 25.2015Z"
        fill="black" />
    <path opacity="0.3"
        d="M82.817 32.9332L74.9929 40.4718V38.982C74.9929 38.982 82.0357 32.5305 82.1211 32.5212C82.2065 32.5119 82.817 32.9332 82.817 32.9332Z"
        fill="black" />
    <path opacity="0.3" d="M75.4683 33.5297L74.6208 30.0345L74.4529 34.0915L75.4683 33.5297Z"
        fill="black" />
    <path
        d="M76.8726 20.1666C76.8726 20.4263 77.0831 20.6368 77.3427 20.6368C77.6024 20.6368 77.8129 20.4263 77.8129 20.1666C77.8129 19.9069 77.6024 19.6964 77.3427 19.6964C77.0831 19.6964 76.8726 19.9069 76.8726 20.1666Z"
        fill="#407BFF" />
    <path
        d="M71.97 27.2694C71.97 27.2694 70.9121 28.2994 70.5561 31.8131C70.3005 34.335 69.6543 39.7734 71.6142 40.4718C73.5741 41.1701 82.1211 32.9986 82.1211 32.9986L80.7336 30.6168L74.4531 34.0915C74.4531 34.0915 75.0934 28.3311 73.9865 27.8046C72.8795 27.2781 71.97 27.2694 71.97 27.2694Z"
        fill="#263238" />
    <path opacity="0.5"
        d="M71.97 27.2694C71.97 27.2694 70.9121 28.2994 70.5561 31.8131C70.3005 34.335 69.6543 39.7734 71.6142 40.4718C73.5741 41.1701 82.1211 32.9986 82.1211 32.9986L80.7336 30.6168L74.4531 34.0915C74.4531 34.0915 75.0934 28.3311 73.9865 27.8046C72.8795 27.2781 71.97 27.2694 71.97 27.2694Z"
        fill="white" />
    <path
        d="M81.2703 30.4401C81.2703 30.4401 82.0948 28.789 82.4861 28.7162C82.8774 28.6434 83.1926 28.774 83.1926 28.774C83.1926 28.774 85.8572 27.2041 86.0346 27.6172C86.1306 27.8408 85.5389 28.3334 84.2686 29.0581C84.2686 29.0581 85.0001 29.3273 84.7053 29.756C84.7053 29.756 85.2437 30.003 84.9564 30.538C84.9564 30.538 85.2036 31.0107 84.8928 31.3125C84.582 31.6143 83.118 32.4475 82.2702 32.5719C81.4224 32.6962 80.928 31.0486 80.928 31.0486L81.2703 30.4401Z"
        fill="#EEC1BB" />
    <path
        d="M90.2719 77.6182C90.9909 77.9567 91.434 78.7483 92.1788 79.0258C92.5971 79.1817 93.0577 79.1453 93.4802 78.989V68.3645H83.3114C83.2988 68.1341 83.3251 67.9036 83.4066 67.685C83.6841 66.9402 84.4757 66.4971 84.8142 65.7781C85.3137 64.7172 84.6097 63.3954 83.5774 62.8394C82.7765 62.408 82.3572 62.327 81.6652 62.3666C80.9733 62.327 80.5539 62.408 79.7531 62.8394C78.7207 63.3954 78.0167 64.7172 78.5162 65.7781C78.8548 66.4971 79.6464 66.9402 79.9239 67.685C80.0053 67.9036 80.0316 68.1341 80.0191 68.3645H69.8503V91.9944H93.4802V82.5453C93.0577 82.3891 92.5971 82.3526 92.1788 82.5085C91.434 82.786 90.988 83.5715 90.2719 83.9162C89.3169 84.3758 87.8937 83.71 87.3332 82.6793C86.8985 81.8802 86.8208 81.4591 86.8604 80.7672C86.8208 80.0752 86.9018 79.6559 87.3332 78.855C87.8892 77.8227 89.211 77.1187 90.2719 77.6182Z"
        fill="#407BFF" />
    <path opacity="0.4"
        d="M90.2719 77.6182C90.9909 77.9567 91.434 78.7483 92.1788 79.0258C92.5971 79.1817 93.0577 79.1453 93.4802 78.989V68.3645H83.3114C83.2988 68.1341 83.3251 67.9036 83.4066 67.685C83.6841 66.9402 84.4757 66.4971 84.8142 65.7781C85.3137 64.7172 84.6097 63.3954 83.5774 62.8394C82.7765 62.408 82.3572 62.327 81.6652 62.3666C80.9733 62.327 80.5539 62.408 79.7531 62.8394C78.7207 63.3954 78.0167 64.7172 78.5162 65.7781C78.8548 66.4971 79.6464 66.9402 79.9239 67.685C80.0053 67.9036 80.0316 68.1341 80.0191 68.3645H69.8503V91.9944H93.4802V82.5453C93.0577 82.3891 92.5971 82.3526 92.1788 82.5085C91.434 82.786 90.988 83.5715 90.2719 83.9162C89.3169 84.3758 87.8937 83.71 87.3332 82.6793C86.8985 81.8802 86.8208 81.4591 86.8604 80.7672C86.8208 80.0752 86.9018 79.6559 87.3332 78.855C87.8892 77.8227 89.211 77.1187 90.2719 77.6182Z"
        fill="black" />
    <path
        d="M91.4304 77.6182C92.1494 77.9567 92.5925 78.7483 93.3373 79.0258C93.7556 79.1817 94.2162 79.1453 94.6387 78.989V68.3645H84.4699C84.4572 68.1341 84.4835 67.9036 84.565 67.685C84.8426 66.9402 85.6342 66.4971 85.9727 65.7781C86.4722 64.7172 85.7682 63.3954 84.7359 62.8394C83.935 62.408 83.5156 62.327 82.8237 62.3666C82.1318 62.327 81.7124 62.408 80.9116 62.8394C79.8792 63.3954 79.1752 64.7172 79.6747 65.7781C80.0133 66.4971 80.8049 66.9402 81.0823 67.685C81.1638 67.9036 81.1901 68.1341 81.1775 68.3645H71.0088V91.9944H94.6387V82.5453C94.2162 82.3891 93.7556 82.3526 93.3373 82.5085C92.5925 82.786 92.1464 83.5715 91.4304 83.9162C90.4754 84.3758 89.0522 83.71 88.4916 82.6793C88.057 81.8802 87.9793 81.4591 88.0189 80.7672C87.9793 80.0752 88.0603 79.6559 88.4916 78.855C89.0477 77.8227 90.3694 77.1187 91.4304 77.6182Z"
        fill="#407BFF" />
    <path
        d="M119.813 71.6071L127.89 68.5034L132.553 63.9836C132.682 63.8336 134.034 61.5022 134.034 61.5022L136.323 66.404C136.323 66.404 130.633 72.1217 128.549 72.7874C126.864 73.3255 120.901 74.7865 120.901 74.7865L119.813 71.6071Z"
        fill="#407BFF" />
    <path opacity="0.4"
        d="M124.765 73.8173C124.765 73.8173 125.738 69.9998 127.915 69.2057C130.092 68.4117 132.906 69.657 132.825 69.7107C132.745 69.7644 130.388 71.9591 130.307 71.986C130.247 72.006 127.251 73.0622 125.7 73.5746L124.765 73.8173Z"
        fill="black" />
    <path
        d="M110.101 68.4861C110.088 68.7166 110.114 68.947 110.196 69.1656C110.473 69.9104 111.265 70.3535 111.603 71.0726C112.103 72.1334 111.399 73.4552 110.366 74.0113C109.566 74.4426 109.146 74.5236 108.454 74.484C107.762 74.5236 107.343 74.4426 106.542 74.0113C105.51 73.4552 104.806 72.1334 105.305 71.0726C105.644 70.3535 106.435 69.9104 106.713 69.1656C106.794 68.947 106.821 68.7166 106.808 68.4861H96.2759V79.1028C95.8481 79.2653 95.3798 79.3057 94.955 79.1474C94.2102 78.8699 93.7671 78.0783 93.048 77.7398C91.9872 77.2402 90.6654 77.9443 90.1093 78.9766C89.678 79.7775 89.597 80.1968 89.6366 80.8888C89.597 81.5807 89.678 82.0001 90.1093 82.8009C90.6654 83.8333 91.9872 84.5373 93.048 84.0378C93.7671 83.6992 94.2102 82.9076 94.955 82.6301C95.3798 82.4718 95.8481 82.5122 96.2759 82.6747V92.1159L119.824 92.2212V68.5914L110.101 68.4861Z"
        fill="#263238" />
    <g opacity="0.4">
        <path
            d="M110.101 68.4861C110.088 68.7166 110.114 68.947 110.196 69.1656C110.473 69.9104 111.265 70.3535 111.603 71.0726C112.103 72.1334 111.399 73.4552 110.366 74.0113C109.566 74.4426 109.146 74.5236 108.454 74.484C107.762 74.5236 107.343 74.4426 106.542 74.0113C105.51 73.4552 104.806 72.1334 105.305 71.0726C105.644 70.3535 106.435 69.9104 106.713 69.1656C106.794 68.947 106.821 68.7166 106.808 68.4861H96.2759V79.1028C95.8481 79.2653 95.3798 79.3057 94.955 79.1474C94.2102 78.8699 93.7671 78.0783 93.048 77.7398C91.9872 77.2402 90.6654 77.9443 90.1093 78.9766C89.678 79.7775 89.597 80.1968 89.6366 80.8888C89.597 81.5807 89.678 82.0001 90.1093 82.8009C90.6654 83.8333 91.9872 84.5373 93.048 84.0378C93.7671 83.6992 94.2102 82.9076 94.955 82.6301C95.3798 82.4718 95.8481 82.5122 96.2759 82.6747V92.1159L119.824 92.2212V68.5914L110.101 68.4861Z"
            fill="black" />
    </g>
    <path
        d="M111.143 68.4861C111.13 68.7166 111.156 68.947 111.238 69.1656C111.515 69.9104 112.307 70.3535 112.646 71.0726C113.145 72.1334 112.441 73.4552 111.409 74.0113C110.608 74.4426 110.188 74.5236 109.497 74.484C108.805 74.5236 108.385 74.4426 107.584 74.0113C106.552 73.4552 105.848 72.1334 106.348 71.0726C106.686 70.3535 107.478 69.9104 107.755 69.1656C107.837 68.947 107.863 68.7166 107.85 68.4861H97.3181V79.1028C96.8904 79.2653 96.4221 79.3057 95.9972 79.1474C95.2525 78.8699 94.8094 78.0783 94.0903 77.7398C93.0294 77.2402 91.7077 77.9443 91.1516 78.9766C90.7202 79.7775 90.6393 80.1968 90.6788 80.8888C90.6393 81.5807 90.7202 82.0001 91.1516 82.8009C91.7077 83.8333 93.0294 84.5373 94.0903 84.0378C94.8094 83.6992 95.2525 82.9076 95.9972 82.6301C96.4221 82.4718 96.8904 82.5122 97.3181 82.6747V92.1159L120.866 92.2212V68.5914L111.143 68.4861Z"
        fill="#263238" />
    <path
        d="M127.73 84.4147L131.434 84.1906C130.841 87.4537 130.232 89.5706 130.491 91.2458L128.998 92.2438L127.616 90.8844C127.616 90.8844 127.36 88.2172 127.73 84.4147Z"
        fill="#E9B376" />
    <path
        d="M127.393 88.5947L128.739 88.6105C129.39 89.7382 129.841 89.4726 130.531 88.677C130.922 88.6361 131.022 89.0852 131.052 89.206L131.752 91.876C131.813 92.099 131.682 92.3292 131.459 92.3901C131.419 92.401 131.378 92.4059 131.337 92.4048C130.149 92.3908 129.586 92.3842 128.107 92.3668L123.583 92.3137C122.35 92.2992 122.109 91.0534 122.618 90.9443C124.908 90.4663 126.534 89.8131 127.248 89.1568C127.38 89.042 127.247 88.9534 127.393 88.5947Z"
        fill="#407BFF" />
    <path
        d="M127.53 89.9445C127.51 89.9445 127.492 89.9349 127.481 89.9172C127.311 89.6402 127.018 89.4465 126.696 89.3988C126.665 89.394 126.643 89.3649 126.648 89.3336C126.653 89.3025 126.68 89.2798 126.713 89.2854C127.068 89.3381 127.391 89.5517 127.578 89.8572C127.595 89.8843 127.586 89.9195 127.56 89.936C127.55 89.9419 127.54 89.9445 127.53 89.9445Z"
        fill="#263238" />
    <path
        d="M126.916 90.3951C126.897 90.3951 126.878 90.3855 126.867 90.3678C126.697 90.0908 126.404 89.8971 126.083 89.8494C126.052 89.8447 126.03 89.8155 126.035 89.7842C126.039 89.7531 126.066 89.7313 126.1 89.736C126.454 89.7884 126.777 90.0023 126.965 90.3078C126.981 90.3349 126.973 90.3701 126.946 90.3866C126.937 90.3925 126.926 90.3951 126.916 90.3951Z"
        fill="#263238" />
    <path
        d="M126.155 90.7712C126.136 90.7712 126.117 90.7615 126.106 90.7438C125.936 90.4668 125.643 90.2731 125.321 90.2254C125.29 90.2207 125.268 90.1916 125.273 90.1602C125.278 90.1289 125.304 90.1071 125.338 90.1121C125.693 90.1647 126.016 90.3783 126.204 90.6838C126.22 90.7109 126.212 90.7461 126.185 90.7627C126.175 90.7685 126.165 90.7712 126.155 90.7712Z"
        fill="#263238" />
    <path opacity="0.7"
        d="M131.459 92.3901C131.419 92.401 131.378 92.4059 131.337 92.4048C130.149 92.3908 129.586 92.3842 128.107 92.3668L123.583 92.3137C122.916 92.3058 122.541 91.9375 122.417 91.5838C122.604 91.5875 131.594 91.7626 131.713 91.7241L131.76 91.9231C131.792 92.1306 131.666 92.3335 131.459 92.3901Z"
        fill="white" />
    <path
        d="M141.914 74.5916C141.914 74.5916 131.799 69.3679 129.829 69.219C127.859 69.0701 125.977 70.1368 125.601 74.2151C125.224 78.2935 125.977 88.7819 125.977 88.7819L131.433 88.8755L132.11 76.7246C132.11 76.7246 140.56 82.8976 140.811 82.8348C141.062 82.7721 144.361 82.6228 144.361 82.6228L141.914 74.5916Z"
        fill="#263238" />
    <path opacity="0.3"
        d="M141.914 74.5916C141.914 74.5916 131.799 69.3679 129.829 69.219C127.859 69.0701 125.977 70.1368 125.601 74.2151C125.224 78.2935 125.977 88.7819 125.977 88.7819L131.433 88.8755L132.11 76.7246C132.11 76.7246 140.56 82.8976 140.811 82.8348C141.062 82.7721 144.361 82.6228 144.361 82.6228L141.914 74.5916Z"
        fill="white" />
    <path opacity="0.4"
        d="M131.8 82.4071C131.8 82.4071 127.342 83.9684 127.294 87.6447C127.247 91.3211 131.178 90.6214 131.178 90.6214L131.8 82.4071Z"
        fill="black" />
    <path
        d="M145.786 91.9855L144.783 88.3397C148.288 87.9602 150.63 88.8234 152.26 88.0541L153.727 89.2755L152.758 91.0946C152.758 91.0946 150.174 91.9726 145.786 91.9855Z"
        fill="#E9B376" />
    <path
        d="M150.491 92.0116L150.101 90.6346C151.055 89.631 150.648 89.2516 149.629 88.7876C149.469 88.4016 149.897 88.1645 150.011 88.0971L152.522 86.5782C152.731 86.4489 153.006 86.5134 153.135 86.7224C153.158 86.7596 153.175 86.7999 153.186 86.8421C153.53 88.0581 153.693 88.6334 154.121 90.1469L155.431 94.7754C155.788 96.0371 154.59 96.6583 154.325 96.1719C153.148 93.9808 151.992 92.5204 151.108 91.9904C150.951 91.8901 150.901 92.0529 150.491 92.0116Z"
        fill="#407BFF" />
    <path
        d="M151.46 92.5454C151.432 92.5454 151.407 92.5248 151.403 92.4961C151.35 92.1199 151.471 91.7268 151.725 91.4446C151.746 91.4213 151.782 91.4193 151.806 91.4404C151.829 91.4614 151.831 91.4977 151.81 91.5212C151.578 91.7785 151.469 92.1371 151.517 92.48C151.521 92.5113 151.499 92.5404 151.468 92.5449C151.465 92.5452 151.463 92.5454 151.46 92.5454Z"
        fill="#263238" />
    <path
        d="M152.104 93.0352C152.076 93.0352 152.052 93.0146 152.048 92.9859C151.995 92.6096 152.115 92.2166 152.369 91.9344C152.39 91.9111 152.426 91.9091 152.45 91.9302C152.473 91.9512 152.475 91.9875 152.454 92.011C152.222 92.2686 152.113 92.6269 152.161 92.9698C152.166 93.0011 152.144 93.0302 152.113 93.0345C152.11 93.0349 152.107 93.0352 152.104 93.0352Z"
        fill="#263238" />
    <path
        d="M152.717 93.6981C152.689 93.6981 152.664 93.6775 152.66 93.6488C152.608 93.2726 152.728 92.8795 152.982 92.5971C153.003 92.5736 153.039 92.5718 153.063 92.5928C153.086 92.6139 153.088 92.6502 153.067 92.6737C152.835 92.9313 152.726 93.2898 152.774 93.6327C152.778 93.664 152.757 93.6932 152.725 93.6976C152.723 93.6979 152.72 93.6981 152.717 93.6981Z"
        fill="#263238" />
    <path opacity="0.7"
        d="M153.135 86.7224C153.158 86.7596 153.175 86.7999 153.186 86.8422C153.53 88.0581 153.693 88.6334 154.121 90.1468L155.431 94.7754C155.624 95.4581 155.361 95.951 155.038 96.1846C154.985 95.992 152.455 86.7743 152.379 86.6647L152.568 86.5559C152.77 86.4609 153.015 86.5281 153.135 86.7224Z"
        fill="white" />
    <path
        d="M153 76.5829L153.439 78.7877C153.439 78.7877 154.565 83.1611 152.987 85.3577C151.479 87.4563 149.255 87.8305 149.255 87.8305L149.712 92.0482L149.255 92.333C149.255 92.333 146.345 92.333 140.389 92.061C134.731 91.8027 129.867 91.5324 128.863 89.7755C127.859 88.0187 127.627 87.1656 129.269 85.0698C130.753 83.1758 142.049 80.3858 142.442 80.2729L142.284 79.3104L142.101 78.6287L153 76.5829Z"
        fill="#263238" />
    <path opacity="0.3"
        d="M153 76.5829L153.439 78.7877C153.439 78.7877 154.565 83.1611 152.987 85.3577C151.479 87.4563 149.255 87.8305 149.255 87.8305L149.712 92.0482L149.255 92.333C149.255 92.333 146.345 92.333 140.389 92.061C134.731 91.8027 129.867 91.5324 128.863 89.7755C127.859 88.0187 127.627 87.1656 129.269 85.0698C130.753 83.1758 142.049 80.3858 142.442 80.2729L142.284 79.3104L142.101 78.6287L153 76.5829Z"
        fill="white" />
    <path opacity="0.4"
        d="M149.255 87.8305C148.908 87.9212 136.637 87.5254 136.637 87.5254C136.637 87.5254 140.264 88.1474 142.946 88.3736C145.628 88.5998 149.255 87.8305 149.255 87.8305Z"
        fill="black" />
    <path opacity="0.4"
        d="M142.442 80.2729L149.508 79.0406C149.508 79.0406 144.415 78.9578 142.442 80.2729Z"
        fill="black" />
    <path
        d="M124.429 75.2698C124.429 75.2698 123.839 74.3624 122.962 74.1868C122.085 74.0111 121.431 73.6373 120.77 73.5518C120.109 73.4663 120.709 74.1371 121.1 74.4293C121.491 74.7216 121.932 75.0568 121.665 75.3152C121.398 75.5737 118.3 76.3595 117.97 76.7599C117.641 77.1604 118.182 77.19 118.182 77.19C118.182 77.19 117.434 77.4011 117.437 77.72C117.438 77.8028 117.574 77.9941 117.93 77.9513C118.73 77.8549 120.399 77.5662 120.399 77.5662C120.302 77.5808 118.268 78.0843 117.973 78.1994C117.588 78.35 117.483 78.6175 117.578 78.838C117.712 79.1519 120.256 78.6137 120.379 78.666C120.379 78.666 118.904 78.9269 118.763 79.3444C118.622 79.7619 119.56 79.6484 120.367 79.3912C121.107 79.1555 122.621 78.8869 123.35 78.5742C124.248 78.189 124.765 77.7285 124.785 76.8121C124.804 75.8955 124.429 75.2698 124.429 75.2698Z"
        fill="#E9B376" />
    <path d="M123.459 75.25L125.722 74.345L126.503 76.7926L123.85 77.7387L123.459 75.25Z"
        fill="#E9B376" />
    <path
        d="M139.872 58.3224C139.872 58.3224 139.257 56.9346 139.388 54.1873C139.387 54.1845 139.237 54.1569 139.237 54.1541C139.253 53.7703 139.283 53.4121 139.317 53.0997C139.318 53.0908 139.317 53.088 139.317 53.088L136.322 56.1006C136.601 56.9024 136.686 58.5604 136.671 59.2729C136.671 59.2729 136.517 60.5932 138.145 60.2599C139.335 60.0164 139.872 58.3224 139.872 58.3224Z"
        fill="#E9B376" />
    <path opacity="0.2"
        d="M136.538 57.2701L138.452 56.3303C138.419 57.0032 138.04 57.8819 136.648 58.2795C136.648 58.2795 136.619 57.5419 136.538 57.2701Z"
        fill="black" />
    <path
        d="M138.936 51.3743C139.232 53.6589 139.445 54.9415 138.523 56.3099C137.137 58.3682 134.217 57.8845 133.241 55.728C132.363 53.787 132.027 50.377 134.072 49.0733C136.088 47.7888 138.64 49.0897 138.936 51.3743Z"
        fill="#E9B376" />
    <path
        d="M138.056 48.1606C136.998 46.9224 135.029 48.0066 134.28 48.81C134.168 48.9301 136.194 49.5024 136.074 49.4831L136.714 50.0136C136.796 49.9779 136.967 50.7631 137.112 51.4433C137.244 52.0681 137.542 52.6433 137.978 53.1104C138.343 53.5017 138.832 53.9704 139.381 54.3507C140.095 53.8145 139.877 52.4336 139.968 51.5687C140.104 50.2801 140.074 47.8678 138.056 48.1606Z"
        fill="#263238" />
    <path
        d="M140.19 53.0849C140.121 53.701 139.773 54.2256 139.368 54.5343C138.758 54.9988 138.365 54.3104 138.292 53.5867C138.226 52.9354 138.263 52.1194 138.991 51.9393C139.709 51.7619 140.268 52.3805 140.19 53.0849Z"
        fill="#E9B376" />
    <path
        d="M135.829 52.6485C135.874 52.8795 135.787 53.0892 135.635 53.1169C135.484 53.1445 135.325 52.9796 135.28 52.7485C135.236 52.5175 135.323 52.3078 135.474 52.2801C135.626 52.2525 135.785 52.4174 135.829 52.6485Z"
        fill="#263238" />
    <path
        d="M133.572 53.1299C133.616 53.3609 133.53 53.5706 133.378 53.5983C133.227 53.6259 133.068 53.461 133.023 53.2299C132.979 52.9989 133.065 52.7891 133.217 52.7615C133.369 52.7339 133.527 52.8988 133.572 53.1299Z"
        fill="#263238" />
    <path
        d="M134.284 52.8598C134.284 52.8598 133.774 54.1487 133.63 54.6613C134.007 54.8899 134.535 54.6493 134.535 54.6493L134.284 52.8598Z"
        fill="#D58745" />
    <path
        d="M136.184 51.4507C136.152 51.4716 136.11 51.4753 136.073 51.4563C135.634 51.232 135.278 51.4272 135.274 51.4291C135.221 51.459 135.154 51.4406 135.123 51.388C135.093 51.3354 135.112 51.2684 135.164 51.2386C135.183 51.2279 135.629 50.9832 136.174 51.2617C136.228 51.2894 136.249 51.3556 136.222 51.4093C136.213 51.4268 136.2 51.4406 136.184 51.4507Z"
        fill="#263238" />
    <path
        d="M135.434 55.3257C135.394 55.3257 135.357 55.2968 135.35 55.2554C135.341 55.2086 135.372 55.1638 135.419 55.1551C135.725 55.0989 135.967 54.9157 136.231 54.543C136.258 54.504 136.312 54.4951 136.35 54.5222C136.389 54.5497 136.399 54.6032 136.371 54.642C136.166 54.9334 135.895 55.2422 135.45 55.3244C135.445 55.3253 135.44 55.3257 135.434 55.3257Z"
        fill="#263238" />
    <path opacity="0.2"
        d="M138.653 53.492C138.623 53.492 138.598 53.4691 138.596 53.4391C138.58 53.2302 138.619 53.0196 138.709 52.8302C138.77 52.7021 138.881 52.5314 139.067 52.4459C139.251 52.3621 139.467 52.3917 139.594 52.5193C139.617 52.5417 139.617 52.578 139.594 52.6004C139.572 52.623 139.535 52.6226 139.513 52.6004C139.421 52.5077 139.254 52.4862 139.115 52.55C138.961 52.6212 138.865 52.7686 138.812 52.8794C138.731 53.0508 138.695 53.2411 138.71 53.4301C138.713 53.4617 138.689 53.4893 138.658 53.4917L138.653 53.492Z"
        fill="black" />
    <path
        d="M132.384 52.3471C132.363 52.3467 132.342 52.3402 132.324 52.3273C132.274 52.2924 132.261 52.2236 132.295 52.1738C132.639 51.6734 133.146 51.688 133.168 51.6857C133.229 51.6878 133.277 51.7387 133.276 51.7994C133.274 51.8601 133.225 51.9075 133.164 51.9061C133.143 51.9046 132.753 51.8984 132.477 52.3001C132.455 52.3315 132.42 52.348 132.384 52.3471Z"
        fill="#263238" />
    <path
        d="M138.056 48.1606C138.056 48.1606 136.65 46.4226 134.217 46.9959C132.26 47.4571 131.24 48.8885 131.202 50.258C131.186 50.8465 131.316 51.2843 131.47 51.5922C131.587 51.8249 131.921 51.79 131.996 51.5408C132.018 51.47 132.043 51.4004 132.073 51.3323C132.081 51.3478 132.089 51.363 132.098 51.3778C132.241 51.6167 132.62 51.5288 132.626 51.2507C132.627 51.1629 132.637 51.0751 132.656 50.9884L132.659 50.9946C132.79 51.2041 133.117 51.1406 133.169 50.8993C133.399 49.8349 134.696 49.0353 135.868 49.5113L136.714 50.0136C137.683 49.447 138.056 48.1606 138.056 48.1606Z"
        fill="#263238" />
    <path opacity="0.4"
        d="M141.707 78.6931L141.573 79.5879L137.628 80.7755L138.537 81.3584L142.442 80.2729L142.603 78.5345L141.707 78.6931Z"
        fill="black" />
    <path
        d="M144.655 58.6034C142.883 57.4675 139.761 58.0076 139.761 58.0076L134.034 61.5021L137.95 70.7067C137.95 70.7067 139.584 74.6214 140.466 77.2284C140.684 77.8744 141.102 78.7754 141.778 78.6871L152.655 76.7206C153.187 76.6245 153.523 76.0942 153.379 75.5736C152.329 71.7808 146.241 59.6208 144.655 58.6034Z"
        fill="#407BFF" />
    <path opacity="0.4"
        d="M145.677 63.7231C145.677 63.7231 143.934 67.0043 140.874 69.8653C139.638 71.0207 138.779 72.6865 138.779 72.6865L138.012 70.7263L145.677 63.7231Z"
        fill="black" />
    <path
        d="M140.285 61.1943L132.87 70.4404L124.165 74.3927L125.032 77.9962C125.032 77.9962 132.091 76.0916 134.928 74.3236C137.765 72.5556 142.442 67.612 142.442 67.612C142.442 67.612 146.521 64.3384 146.326 61.6901C146.132 59.0419 142.249 58.4234 140.285 61.1943Z"
        fill="#407BFF" />
    <path
        d="M136.26 60.1441C136.26 60.1441 136.535 58.7316 136.669 58.7885C136.802 58.8453 138.128 59.641 138.128 59.641L139.61 57.4202L140.5 58.0089L138.452 62.2545L136.26 60.1441Z"
        fill="#407BFF" />
    <path opacity="0.4"
        d="M135.609 66.0699L133.899 63.7231L135.28 67.398L135.953 66.6824L140.674 60.7141L135.609 66.0699Z"
        fill="black" />
    <path opacity="0.4"
        d="M136.26 60.1441C136.335 60.1709 137.562 60.9987 137.495 61.0123C137.428 61.0258 138.012 60.0221 138.012 60.0221L139.314 60.5172L140.382 57.9309L139.33 60.91L138.097 60.3139L137.495 61.4056L136.26 60.1441Z"
        fill="black" />
    <path
        d="M51.7657 42.5662C51.7783 42.3357 51.752 42.1053 51.6706 41.8867C51.3931 41.1419 50.6015 40.6988 50.2629 39.9797C49.7634 38.9188 50.4674 37.5971 51.4998 37.041C52.3006 36.6097 52.72 36.5287 53.4119 36.5683C54.1038 36.5287 54.5232 36.6097 55.3241 37.041C56.3564 37.5971 57.0604 38.9188 56.5609 39.9797C56.2224 40.6988 55.4308 41.1419 55.1532 41.8867C55.0718 42.1053 55.0455 42.3357 55.0581 42.5662H65.5903V31.9495C66.0181 31.787 66.4864 31.7465 66.9112 31.9049C67.656 32.1824 68.0991 32.974 68.8182 33.3125C69.879 33.812 71.2008 33.108 71.7569 32.0757C72.1882 31.2748 72.2692 30.8555 72.2296 30.1635C72.2692 29.4716 72.1882 29.0522 71.7569 28.2514C71.2008 27.219 69.879 26.515 68.8182 27.0145C68.0991 27.3531 67.656 28.1447 66.9112 28.4222C66.4864 28.5805 66.0181 28.54 65.5903 28.3775V18.9363L42.0422 18.8311V42.4609L51.7657 42.5662Z"
        fill="#263238" />
    <g opacity="0.4">
        <path
            d="M51.7657 42.5662C51.7783 42.3357 51.752 42.1053 51.6706 41.8867C51.3931 41.1419 50.6015 40.6988 50.2629 39.9797C49.7634 38.9188 50.4674 37.5971 51.4998 37.041C52.3006 36.6097 52.72 36.5287 53.4119 36.5683C54.1038 36.5287 54.5232 36.6097 55.3241 37.041C56.3564 37.5971 57.0604 38.9188 56.5609 39.9797C56.2224 40.6988 55.4308 41.1419 55.1532 41.8867C55.0718 42.1053 55.0455 42.3357 55.0581 42.5662H65.5903V31.9495C66.0181 31.787 66.4864 31.7465 66.9112 31.9049C67.656 32.1824 68.0991 32.974 68.8182 33.3125C69.879 33.812 71.2008 33.108 71.7569 32.0757C72.1882 31.2748 72.2692 30.8555 72.2296 30.1635C72.2692 29.4716 72.1882 29.0522 71.7569 28.2514C71.2008 27.219 69.879 26.515 68.8182 27.0145C68.0991 27.3531 67.656 28.1447 66.9112 28.4222C66.4864 28.5805 66.0181 28.54 65.5903 28.3775V18.9363L42.0422 18.8311V42.4609L51.7657 42.5662Z"
            fill="black" />
    </g>
    <path
        d="M52.4796 42.5662C52.4922 42.3357 52.4659 42.1053 52.3844 41.8867C52.107 41.1419 51.3154 40.6988 50.9768 39.9797C50.4773 38.9188 51.1813 37.5971 52.2136 37.041C53.0145 36.6097 53.4338 36.5287 54.1258 36.5683C54.8177 36.5287 55.2371 36.6097 56.0379 37.041C57.0703 37.5971 57.7743 38.9188 57.2748 39.9797C56.9362 40.6988 56.1447 41.1419 55.8671 41.8867C55.7857 42.1053 55.7593 42.3357 55.7719 42.5662H66.3042V31.9495C66.732 31.787 67.2003 31.7465 67.6251 31.9049C68.3699 32.1824 68.813 32.974 69.5321 33.3125C70.5929 33.812 71.9147 33.108 72.4708 32.0757C72.9021 31.2748 72.9831 30.8555 72.9435 30.1635C72.9831 29.4716 72.9021 29.0522 72.4708 28.2514C71.9147 27.219 70.5929 26.515 69.5321 27.0145C68.813 27.3531 68.3699 28.1447 67.6251 28.4222C67.2003 28.5805 66.732 28.54 66.3042 28.3775V18.9363L42.7561 18.8311V42.4609L52.4796 42.5662Z"
        fill="#263238" />
    <path
        d="M36.8228 29.918C36.8228 29.918 35.1034 36.0099 36.2031 37.0704C37.3029 38.1309 41.1521 37.4239 40.9557 37.3454C40.7593 37.2668 41.9376 29.9403 42.0162 30.2061C42.0948 30.4718 36.8228 29.918 36.8228 29.918Z"
        fill="#B97964" />
    <path
        d="M38.9621 84.924L38.9568 90.209L41.4107 90.3997L42.2732 85.4348C41.1509 84.6243 40.0465 84.4308 38.9621 84.924Z"
        fill="#B97964" />
    <path
        d="M38.935 89.6575C38.6936 90.3549 38.6777 93.2087 38.6777 93.2087L43.8793 93.2148C44.1883 92.1828 43.7101 91.4784 43.1034 91.3848C42.8427 91.3451 42.536 91.0551 42.3125 90.8019C42.3109 90.7691 41.9928 89.1838 41.7963 89.108C41.7963 89.108 41.6609 88.9431 41.5454 89.1077C41.43 89.2722 41.3299 89.8079 41.3299 89.8079C40.518 88.7163 39.7222 88.8621 38.935 89.6575Z"
        fill="#263238" />
    <path
        d="M38.8717 90.486C39.4595 90.2514 40.0902 90.3405 40.6026 90.7304C40.6922 90.7986 40.7773 90.6391 40.6883 90.5714C40.1424 90.1561 39.4525 90.0586 38.8265 90.3085C38.7247 90.3491 38.7687 90.5271 38.8717 90.486Z"
        fill="white" />
    <path
        d="M43.8636 92.7974L38.7385 92.7914C38.6915 92.7914 38.6535 92.7501 38.6536 92.6992C38.6536 92.6485 38.6917 92.6073 38.7386 92.6073L43.8637 92.6133C43.9106 92.6133 43.9486 92.6546 43.9486 92.7055C43.9485 92.7562 43.9105 92.7974 43.8636 92.7974Z"
        fill="white" />
    <path
        d="M49.5487 84.2348L49.5427 90.1995L51.9039 90.3943L53.0654 84.8111C52.1175 84.0481 51.0166 83.6744 49.5487 84.2348Z"
        fill="#B97964" />
    <path
        d="M49.436 89.6698C49.1945 90.3672 49.1787 93.221 49.1787 93.221L55.1544 93.2281C55.4634 92.196 54.8177 91.5843 54.2111 91.4907C53.9503 91.4509 53.037 91.0674 52.8134 90.8142C52.8119 90.7814 52.4938 89.1961 52.2973 89.1203C52.2973 89.1203 52.1618 88.9554 52.0464 89.12C51.931 89.2845 51.8309 89.8202 51.8309 89.8202C51.0189 88.7286 50.2232 88.8744 49.436 89.6698Z"
        fill="#263238" />
    <path
        d="M49.3729 90.4983C49.9606 90.2638 50.5914 90.3529 51.1038 90.7427C51.1935 90.8109 51.2786 90.6514 51.1896 90.5837C50.6437 90.1684 49.9537 90.071 49.3277 90.3208C49.226 90.3614 49.27 90.5394 49.3729 90.4983Z"
        fill="white" />
    <path
        d="M55.1548 92.8107L49.2394 92.8037C49.1925 92.8036 49.1545 92.7624 49.1545 92.7115C49.1546 92.6608 49.1926 92.6196 49.2396 92.6196L55.155 92.6266C55.2019 92.6266 55.2399 92.6678 55.2399 92.7187C55.2398 92.7695 55.2018 92.8107 55.1548 92.8107Z"
        fill="white" />
    <path
        d="M37.9447 87.5284L43.1739 87.8068C44.3471 84.0047 45.5067 70.3717 45.6265 66.2788C45.7697 61.3883 47.5207 49.1145 45.9725 46.5604C44.4242 44.0063 37.4209 46.0404 37.4209 46.0404C37.4209 46.0404 38.2936 60.9854 37.9447 65.7516C37.6424 69.8826 37.1745 82.0254 37.9447 87.5284Z"
        fill="#263238" />
    <path d="M43.7385 86.4294L43.3985 88.1764L37.7317 87.9923L37.5239 86.3148L43.7385 86.4294Z"
        fill="#407BFF" />
    <path
        d="M48.3883 87.5284L53.5724 87.8068C54.2035 83.5978 56.739 68.2695 56.5307 65.3332C56.2763 61.7468 53.2738 46.2223 52.1573 45.0254C51.0407 43.8284 42.8662 46.931 42.8662 46.931C42.8662 46.931 46.2258 60.2809 48.8747 66.0547C49.425 67.2541 47.9627 82.4093 48.3883 87.5284Z"
        fill="#263238" />
    <path d="M54.1653 86.5603L53.9009 88.1764L48.1397 87.8068L48.0237 86.115L54.1653 86.5603Z"
        fill="#407BFF" />
    <path opacity="0.3"
        d="M46.1369 58.7007L44.6148 53.6128L41.9138 52.7312L44.0253 54.3684L45.7234 63.6422L46.1369 58.7007Z"
        fill="black" />
    <path
        d="M49.0498 13.6373C49.0498 13.8568 49.1461 14.0224 49.2847 14.0455C49.4233 14.0686 49.5504 13.8837 49.562 13.6604C49.5736 13.437 49.4696 13.2753 49.3309 13.2522C49.1923 13.229 49.0768 13.4255 49.0498 13.6373Z"
        fill="#263238" />
    <path
        d="M49.1383 13.6064C49.2153 14.314 49.3903 15.0074 49.6583 15.6668C49.311 15.7944 48.9254 15.7634 48.603 15.582L49.1383 13.6064Z"
        fill="#A24E3F" />
    <path
        d="M48.6532 12.9325C48.6248 12.9353 48.5963 12.9286 48.5723 12.9132C48.5223 12.864 48.5217 12.7835 48.571 12.7335L48.5723 12.7323C48.8293 12.4123 49.2256 12.2371 49.6352 12.2624C49.703 12.2685 49.753 12.3284 49.747 12.3961L49.7469 12.3972C49.7351 12.4655 49.6735 12.5138 49.6044 12.5089C49.2798 12.4941 48.9683 12.6377 48.7687 12.894C48.7397 12.9263 48.6958 12.9409 48.6532 12.9325Z"
        fill="#263238" />
    <path
        d="M49.1425 16.5523C49.1137 16.6695 49.0781 16.785 49.036 16.8982C48.8005 17.5446 48.3718 18.1059 47.8062 18.5086C47.6639 18.6112 47.5137 18.7025 47.3568 18.7818C46.1247 19.4298 44.6045 19.1922 43.6376 18.2005C42.3929 16.9651 42.4254 15.5378 42.2835 13.1223C42.246 12.6032 42.332 12.0827 42.5348 11.602C43.2478 9.915 45.2169 9.11568 46.9327 9.81673L46.934 9.81723C49.3346 10.7823 49.6658 14.3751 49.1425 16.5523Z"
        fill="#B97964" />
    <path opacity="0.2"
        d="M47.7973 18.5086C47.6551 18.6112 47.5048 18.7025 47.3479 18.7818C46.5142 19.2189 45.524 19.2617 44.6545 18.8981C44.7657 18.6078 44.9138 18.3323 45.095 18.0784C46.0191 17.9644 46.957 18.1138 47.7973 18.5086Z"
        fill="black" />
    <path
        d="M42.8511 21.6421C44.0632 22.7234 47.0285 22.3252 47.0285 22.3252C47.0285 22.3252 48.8793 21.8253 48.4891 21.2584C47.4011 21.0811 46.8719 20.5812 46.6531 19.9387C46.535 19.5419 46.4978 19.126 46.5437 18.715C46.5611 18.4858 46.5918 18.2577 46.6354 18.0319L42.9693 15.3634C43.4483 17.1249 44.0366 20.366 42.8511 21.6421Z"
        fill="#B97964" />
    <path
        d="M47.7973 14.3548L48.3265 14.5495L48.0634 13.4856C48.0634 13.4856 48.838 12.3229 48.0634 11.3143C48.0634 11.3143 50.2039 10.6748 48.9947 9.57019C48.5453 9.15741 47.9866 9.57019 46.5083 8.9394C45.7071 8.5935 43.2 8.56733 43.0758 9.57019C43.0758 9.57019 41.2695 9.57019 41.0743 12.5933C40.9588 14.3864 41.6597 16.1373 42.9872 17.372C42.9872 17.372 45.169 17.8778 46.2393 17.0174C47.3095 16.157 47.7973 14.3548 47.7973 14.3548Z"
        fill="#263238" />
    <path
        d="M46.402 14.5263C46.4955 14.9866 46.7953 15.3808 47.218 15.5989C47.7177 15.8082 48.0488 15.1164 47.9749 14.3897C47.9069 13.7444 47.5668 12.8374 47.0317 12.9595C46.4966 13.0816 46.2276 13.8752 46.402 14.5263Z"
        fill="#B97964" />
    <path
        d="M39.1233 21.061C39.1233 21.061 38.2715 21.32 37.8477 21.4753C36.9644 21.7989 36.3814 22.7822 36.0617 23.7477C35.2806 26.107 34.0183 31.6922 34.0183 31.6922L38.5988 32.6549L41.0422 27.3926L39.1233 21.061Z"
        fill="#407BFF" />
    <path opacity="0.5"
        d="M39.1233 21.061C39.1233 21.061 37.8975 21.2892 37.2523 21.8222C36.7612 22.228 36.3701 22.8164 36.0617 23.7477C35.2806 26.107 34.0183 31.6922 34.0183 31.6922L38.5988 32.6549L41.0422 27.3926L39.1233 21.061Z"
        fill="white" />
    <path
        d="M50.2167 21.3318C48.8656 21.1863 44.7099 20.2474 39.1234 21.061L37.8161 41.7173C37.8161 41.7173 37.6482 44.8775 37.1533 47.5894C42.8306 50.0272 49.5469 49.3301 53.3447 47.2807C53.3007 47.3669 53.1764 45.1129 52.9816 41.8112C52.6383 35.9929 52.0766 26.9212 51.3519 21.6691C51.3322 21.5393 50.3513 21.3463 50.2167 21.3318Z"
        fill="#407BFF" />
    <g opacity="0.5">
        <path
            d="M50.2167 21.3318C48.8656 21.1863 44.7099 20.2474 39.1234 21.061L37.8161 41.7173C37.8161 41.7173 37.6482 44.8775 37.1533 47.5894C42.8306 50.0272 49.5469 49.3301 53.3447 47.2807C53.3007 47.3669 53.1764 45.1129 52.9816 41.8112C52.6383 35.9929 52.0766 26.9212 51.3519 21.6691C51.3322 21.5393 50.3513 21.3463 50.2167 21.3318Z"
            fill="white" />
    </g>
    <path
        d="M42.7896 20.8462C42.951 20.3661 43.1757 20.0282 43.4637 19.8327L46.5748 20.0725L48.0334 21.0342L42.7896 20.8462Z"
        fill="#407BFF" />
    <path opacity="0.5"
        d="M42.7896 20.8464C42.9509 20.3663 43.1757 20.0284 43.4637 19.8329L46.5748 20.0727L48.0334 21.0343L42.7896 20.8464Z"
        fill="white" />
    <path opacity="0.2"
        d="M50.0718 27.761C50.57 30.0875 51.2863 34.6484 52.6381 36.238L52.3167 31.6222L50.0718 27.761Z"
        fill="black" />
    <path opacity="0.2" d="M38.3076 32.5907L38.4281 26.6252L37.1758 32.307L38.3076 32.5907Z"
        fill="black" />
    <path
        d="M52.4567 29.6011C52.2821 29.6683 55.6511 37.2482 57.0228 37.3159C58.3945 37.3836 64.8344 34.4531 64.8344 34.4531L63.3896 32.7285L58.5221 33.0077L56.0395 27.7229L52.4567 29.6011Z"
        fill="#B97964" />
    <path
        d="M50.7627 21.5918C49.0155 22.7459 48.1495 25.3586 52.8337 33.4257L57.8921 30.3366C56.8689 28.4488 55.7847 27.0761 54.58 24.3419C52.1513 20.8456 50.7627 21.5918 50.7627 21.5918Z"
        fill="#407BFF" />
    <path opacity="0.5"
        d="M50.7627 21.5918C49.0155 22.7459 48.1495 25.3586 52.8337 33.4257L57.8921 30.3366C56.8689 28.4488 55.7847 27.0761 54.58 24.3419C52.1513 20.8456 50.7627 21.5918 50.7627 21.5918Z"
        fill="white" />
    <path
        d="M67.1029 32.6774C67.1029 32.2351 66.9668 31.7541 66.7287 31.7394C66.4905 31.7247 65.2183 31.738 65.2183 31.738C65.2183 31.381 65.888 30.9905 65.6697 30.7466C65.3851 30.4285 63.7364 31.7876 63.6324 32.065C63.4282 32.6094 63.3262 32.7455 63.3262 32.7455L64.1976 34.7454C64.1976 34.7454 65.81 35.8077 66.1843 35.4334C66.5585 35.0592 66.5245 34.6592 66.5245 34.6592C66.5245 34.6592 66.8988 34.1405 66.8647 33.8002C66.8307 33.46 67.1029 33.1198 67.1029 32.6774Z"
        fill="#B97964" />
</svg>
