<svg width="230" height="231" viewBox="0 0 230 231" fill="none" xmlns="http://www.w3.org/2000/svg">
    <path
        d="M165.431 176.314C161.391 184.374 154.885 188.256 145.914 187.959C136.943 187.663 128.601 187.992 120.888 188.946C113.175 189.9 105.321 190.028 97.3259 189.329C89.3307 188.63 81.0221 187.033 72.4002 184.537C63.7782 182.042 56.7152 177.304 51.2112 170.326C45.7073 163.348 41.6999 155.638 39.1892 147.196C36.6786 138.755 36.7659 130.384 39.4512 122.084C42.1365 113.783 43.3175 105.504 42.9944 97.2449C42.6713 88.9861 44.464 81.0822 48.3726 73.5331C52.2812 65.984 57.6589 59.713 64.5056 54.7201C71.3522 49.7271 78.4718 45.0498 85.8643 40.6882C93.2567 36.3265 101.177 35.9432 109.624 39.5385C118.072 43.1337 125.911 45.8092 133.144 47.565C140.376 49.3207 148.882 50.1515 158.662 50.0572C168.442 49.9629 175.087 54.1016 178.597 62.4734C182.107 70.8452 184.356 79.1374 185.345 87.3498C186.334 95.5622 187.345 103.48 188.377 111.104C189.408 118.728 190.219 126.786 190.81 135.277C191.4 143.768 188.328 150.715 181.593 156.119C174.859 161.522 169.471 168.254 165.431 176.314Z"
        fill="#A154F2" />
    <path d="M172.571 160.925H163.033V160.997H172.571V160.925Z" fill="#EBEBEB" />
    <path d="M138.391 161.708H135.889V161.78H138.391V161.708Z" fill="#EBEBEB" />
    <path d="M162.745 158.252H157.218V158.324H162.745V158.252Z" fill="#EBEBEB" />
    <path d="M70.5471 158.736H58.1084V158.808H70.5471V158.736Z" fill="#EBEBEB" />
    <path d="M74.9363 158.736H73.1133V158.808H74.9363V158.736Z" fill="#EBEBEB" />
    <path d="M107.843 159.952H80.8633V160.024H107.843V159.952Z" fill="#EBEBEB" />
    <path
        d="M111.659 143.446H56.0463C55.6102 143.446 55.1919 143.273 54.8835 142.965C54.5751 142.656 54.4019 142.238 54.4019 141.802V63.6301C54.4057 63.1964 54.5806 62.7818 54.8886 62.4766C55.1966 62.1713 55.6127 62 56.0463 62H111.659C111.875 62 112.089 62.0425 112.288 62.1252C112.488 62.2078 112.669 62.329 112.822 62.4817C112.975 62.6344 113.096 62.8156 113.178 63.0152C113.261 63.2147 113.304 63.4285 113.304 63.6445V141.802C113.304 142.018 113.261 142.232 113.178 142.431C113.096 142.631 112.975 142.812 112.822 142.965C112.669 143.117 112.488 143.239 112.288 143.321C112.089 143.404 111.875 143.446 111.659 143.446ZM56.0463 62.0576C55.6295 62.0584 55.23 62.2243 54.9353 62.519C54.6405 62.8137 54.4746 63.2133 54.4739 63.6301V141.802C54.4746 142.219 54.6405 142.618 54.9353 142.913C55.23 143.208 55.6295 143.374 56.0463 143.374H111.659C112.076 143.374 112.475 143.208 112.77 142.913C113.065 142.618 113.231 142.219 113.232 141.802V63.6301C113.231 63.2133 113.065 62.8137 112.77 62.519C112.475 62.2243 112.076 62.0584 111.659 62.0576H56.0463Z"
        fill="#EBEBEB" />
    <path
        d="M173.954 143.446H118.341C117.905 143.446 117.486 143.273 117.178 142.965C116.87 142.656 116.696 142.238 116.696 141.802V63.6301C116.7 63.1964 116.875 62.7818 117.183 62.4766C117.491 62.1713 117.907 62 118.341 62H173.954C174.39 62 174.808 62.1733 175.116 62.4817C175.425 62.7901 175.598 63.2083 175.598 63.6445V141.802C175.598 142.238 175.425 142.656 175.116 142.965C174.808 143.273 174.39 143.446 173.954 143.446ZM118.341 62.0576C117.924 62.0584 117.524 62.2243 117.23 62.519C116.935 62.8137 116.769 63.2133 116.768 63.6301V141.802C116.769 142.219 116.935 142.618 117.23 142.913C117.524 143.208 117.924 143.374 118.341 143.374H173.954C174.37 143.374 174.77 143.208 175.065 142.913C175.359 142.618 175.525 142.219 175.526 141.802V63.6301C175.525 63.2133 175.359 62.8137 175.065 62.519C174.77 62.2243 174.37 62.0584 173.954 62.0576H118.341Z"
        fill="#EBEBEB" />
    <path d="M187 156.291H43V156.363H187V156.291Z" fill="#EBEBEB" />
    <path d="M128.156 154.604H151.622V132.739H128.156V154.604Z" fill="#E6E6E6" />
    <path d="M147.89 156.34H150.885V155.295H147.89V156.34Z" fill="#E0E0E0" />
    <path d="M80.5091 154.393H128.159V132.739H80.5091V154.393Z" fill="#E6E6E6" />
    <path d="M72.5488 156.34H79.864V131.129H72.5488V156.34Z" fill="#E6E6E6" />
    <path d="M105.176 153.382H125.834V134.464H105.176V153.382Z" fill="#F5F5F5" />
    <path d="M128.732 153.382H149.39V134.464H128.732V153.382Z" fill="#F5F5F5" />
    <path d="M81.3962 153.382H102.054V134.464H81.3962V153.382Z" fill="#F5F5F5" />
    <path
        d="M79.8293 131.12V156.332H81.4249V155.732H150.879V156.332H152.477V131.12H79.8293ZM150.879 142.536H128.93V133.49H150.879V142.536ZM128.93 153.382V143.893H150.879V153.382H128.93ZM105.176 133.49H127.332V153.382H105.176V133.49ZM81.4249 143.893H103.581V153.382H81.4249V143.893ZM81.4249 133.49H103.581V142.545H81.4249V133.49Z"
        fill="#F0F0F0" />
    <path
        d="M137.331 136.964H140.787C140.876 136.964 140.963 136.947 141.045 136.913C141.127 136.88 141.201 136.83 141.264 136.768C141.326 136.706 141.376 136.632 141.41 136.55C141.444 136.468 141.461 136.381 141.461 136.293C141.461 136.204 141.444 136.117 141.41 136.035C141.376 135.953 141.326 135.879 141.264 135.817C141.201 135.755 141.127 135.705 141.045 135.672C140.963 135.638 140.876 135.621 140.787 135.621H137.331C137.153 135.621 136.983 135.692 136.857 135.818C136.731 135.944 136.66 136.115 136.66 136.293C136.66 136.47 136.731 136.641 136.857 136.767C136.983 136.893 137.153 136.964 137.331 136.964Z"
        fill="#E6E6E6" />
    <path
        d="M108.148 145.295V141.839C108.148 141.661 108.078 141.491 107.952 141.365C107.826 141.239 107.655 141.168 107.477 141.168C107.389 141.168 107.301 141.185 107.22 141.219C107.138 141.252 107.064 141.302 107.001 141.364C106.938 141.426 106.889 141.5 106.855 141.582C106.821 141.664 106.803 141.751 106.803 141.839V145.295C106.803 145.384 106.821 145.471 106.855 145.553C106.889 145.634 106.938 145.709 107.001 145.771C107.064 145.833 107.138 145.883 107.22 145.916C107.301 145.95 107.389 145.967 107.477 145.966C107.655 145.966 107.826 145.896 107.952 145.77C108.078 145.644 108.148 145.473 108.148 145.295Z"
        fill="#E6E6E6" />
    <path
        d="M137.331 146.672H140.787C140.876 146.672 140.963 146.655 141.045 146.622C141.127 146.588 141.201 146.539 141.264 146.476C141.326 146.414 141.376 146.34 141.41 146.258C141.444 146.177 141.461 146.089 141.461 146.001C141.461 145.822 141.39 145.651 141.264 145.524C141.138 145.398 140.966 145.327 140.787 145.327H137.331C137.243 145.327 137.156 145.344 137.074 145.378C136.992 145.412 136.918 145.462 136.856 145.525C136.794 145.587 136.744 145.662 136.711 145.743C136.677 145.825 136.66 145.913 136.66 146.001C136.66 146.179 136.731 146.35 136.857 146.475C136.983 146.601 137.153 146.672 137.331 146.672Z"
        fill="#E6E6E6" />
    <path
        d="M89.9987 136.964H93.4547C93.6326 136.964 93.8033 136.893 93.9292 136.767C94.055 136.641 94.1257 136.47 94.1257 136.292C94.1257 136.115 94.055 135.944 93.9292 135.818C93.8033 135.692 93.6326 135.621 93.4547 135.621H89.9987C89.8207 135.621 89.65 135.692 89.5242 135.818C89.3983 135.944 89.3276 136.115 89.3276 136.292C89.3276 136.47 89.3983 136.641 89.5242 136.767C89.65 136.893 89.8207 136.964 89.9987 136.964Z"
        fill="#E6E6E6" />
    <path
        d="M89.9987 146.672H93.4547C93.6327 146.672 93.8033 146.601 93.9292 146.475C94.055 146.35 94.1257 146.179 94.1257 146.001C94.1261 145.913 94.109 145.825 94.0755 145.743C94.0419 145.662 93.9926 145.587 93.9302 145.525C93.8679 145.462 93.7937 145.412 93.7121 145.378C93.6305 145.344 93.543 145.327 93.4547 145.327H89.9987C89.9103 145.327 89.8228 145.344 89.7412 145.378C89.6596 145.412 89.5855 145.462 89.5232 145.525C89.4608 145.587 89.4114 145.662 89.3779 145.743C89.3443 145.825 89.3273 145.913 89.3276 146.001C89.3276 146.179 89.3983 146.35 89.5242 146.475C89.65 146.601 89.8207 146.672 89.9987 146.672Z"
        fill="#E6E6E6" />
    <path d="M63.4306 155.842H70.262L70.262 91.9808H63.4306L63.4306 155.842Z" fill="#E0E0E0" />
    <path d="M58.1084 91.4221V156.401H63.4278V91.4221H58.1084Z" fill="#E6E6E6" />
    <path d="M70.0059 91.4221V156.401H75.3281V91.4221H70.0059Z" fill="#E6E6E6" />
    <path
        d="M62.7913 91.4221V156.401H76.2293V91.4221H62.7913ZM74.9679 92.5424V104.192H64.0671V92.5424H74.9679ZM64.0671 129.738V118.085H74.9679V129.738H64.0671ZM74.9535 130.858V142.51H64.0671V130.858H74.9535ZM64.0671 116.965V105.315H74.9679V116.965H64.0671ZM64.0671 155.269V143.631H74.9679V155.28L64.0671 155.269Z"
        fill="#F5F5F5" />
    <path d="M69.4355 95.2583H67.8486V104.299H69.4355V95.2583Z" fill="#EBEBEB" />
    <path d="M67.8487 95.2583H66.6218V104.299H67.8487V95.2583Z" fill="#E6E6E6" />
    <path d="M71.8893 95.4742H69.4355V104.301H71.8893V95.4742Z" fill="#E0E0E0" />
    <path d="M73.116 95.4742H71.8892V104.301H73.116V95.4742Z" fill="#EBEBEB" />
    <path d="M65.8009 95.4742H64.165V104.301H65.8009V95.4742Z" fill="#EBEBEB" />
    <path d="M66.6219 95.4742H65.804V104.301H66.6219V95.4742Z" fill="#FAFAFA" />
    <path d="M67.8487 116.962H69.4355V107.922H67.8487V116.962Z" fill="#E6E6E6" />
    <path d="M69.4355 116.962H70.6624V107.922H69.4355V116.962Z" fill="#EBEBEB" />
    <path d="M65.3949 116.959H67.8486V108.132H65.3949V116.959Z" fill="#EBEBEB" />
    <path d="M64.1679 116.959H65.3948V108.132H64.1679V116.959Z" fill="#E0E0E0" />
    <path d="M71.4833 116.959H73.1191V108.132H71.4833V116.959Z" fill="#EBEBEB" />
    <path d="M70.6623 116.959H71.4802V108.132H70.6623V116.959Z" fill="#F0F0F0" />
    <path d="M67.8487 129.844H69.4355V120.804H67.8487V129.844Z" fill="#E6E6E6" />
    <path d="M69.4355 129.844H70.6624V120.804H69.4355V129.844Z" fill="#EBEBEB" />
    <path d="M65.3949 129.844H67.8486V121.017H65.3949V129.844Z" fill="#EBEBEB" />
    <path d="M64.1679 129.844H65.3948V121.017H64.1679V129.844Z" fill="#E0E0E0" />
    <path d="M71.4833 129.844H73.1191V121.017H71.4833V129.844Z" fill="#EBEBEB" />
    <path d="M70.6623 129.844H71.4802V121.017H70.6623V129.844Z" fill="#F0F0F0" />
    <path d="M69.4355 133.689H67.8486V142.729H69.4355V133.689Z" fill="#EBEBEB" />
    <path d="M67.8487 133.689H66.6218V142.729H67.8487V133.689Z" fill="#E6E6E6" />
    <path d="M71.8893 133.689H69.4355V142.516H71.8893V133.689Z" fill="#E0E0E0" />
    <path d="M73.116 133.689H71.8892V142.516H73.116V133.689Z" fill="#EBEBEB" />
    <path d="M65.8009 133.689H64.165V142.516H65.8009V133.689Z" fill="#EBEBEB" />
    <path d="M66.6219 133.689H65.804V142.516H66.6219V133.689Z" fill="#FAFAFA" />
    <path d="M67.8487 155.612H69.4355V146.571H67.8487V155.612Z" fill="#E6E6E6" />
    <path d="M69.4355 155.612H70.6624V146.571H69.4355V155.612Z" fill="#EBEBEB" />
    <path d="M65.3949 155.398H67.8486V146.571H65.3949V155.398Z" fill="#EBEBEB" />
    <path d="M64.1679 155.398H65.3948V146.571H64.1679V155.398Z" fill="#E0E0E0" />
    <path d="M71.4833 155.398H73.1191V146.571H71.4833V155.398Z" fill="#FAFAFA" />
    <path d="M70.6623 155.398H71.4802V146.571H70.6623V155.398Z" fill="#F0F0F0" />
    <path
        d="M160.758 142.899C160.729 142.931 160.884 143.144 160.256 143.052C158.716 142.819 156.026 142.188 155.28 140.607C154.211 138.34 157.523 139.167 157.408 138.015C157.293 136.863 153.526 137.056 153.126 135.357C152.725 133.657 155.283 134.467 155.314 133.629C155.346 132.79 152.403 133.315 151.818 131.483C151.233 129.651 153.46 130.999 153.206 130.236C152.953 129.473 150.459 126.025 151.812 125.628C153.166 125.23 155.453 128.767 156.334 129.268C157.215 129.769 157.998 126.881 159.05 128.099C160.101 129.317 158.433 133.585 159.773 134.415C160.772 135.031 160.49 133.332 161.806 133.649C163.597 134.081 162.995 140.397 160.758 142.899Z"
        fill="#EBEBEB" />
    <path
        d="M155.994 133.643C156.449 133.675 156.897 133.767 157.327 133.917C157.044 133.486 156.727 133.079 156.38 132.698C156.359 132.676 156.347 132.647 156.347 132.616C156.347 132.586 156.359 132.556 156.38 132.534C156.401 132.513 156.43 132.501 156.461 132.501C156.491 132.501 156.52 132.513 156.541 132.534C157.287 133.37 157.926 134.296 158.442 135.29C158.708 133.421 158.448 131.514 157.69 129.784C157.682 129.763 157.681 129.74 157.689 129.72C157.697 129.699 157.712 129.682 157.732 129.672C157.752 129.662 157.775 129.661 157.796 129.668C157.818 129.675 157.835 129.689 157.846 129.709C157.846 129.738 159.165 132.465 158.572 135.532C158.73 135.835 158.888 136.154 159.047 136.5C159.599 137.736 160.036 139.02 160.351 140.336C160.92 139.259 161.232 138.066 161.261 136.848C161.261 136.837 161.264 136.826 161.268 136.816C161.272 136.805 161.279 136.796 161.287 136.788C161.295 136.78 161.305 136.774 161.315 136.77C161.325 136.766 161.337 136.764 161.348 136.765C161.359 136.765 161.37 136.767 161.381 136.771C161.391 136.776 161.4 136.782 161.408 136.79C161.416 136.798 161.422 136.808 161.426 136.818C161.43 136.829 161.432 136.84 161.431 136.851C161.405 138.159 161.054 139.44 160.409 140.578C160.992 143.161 161.186 145.817 160.985 148.458C160.982 148.488 160.968 148.516 160.944 148.536C160.921 148.556 160.892 148.566 160.861 148.564H160.847C160.82 148.559 160.795 148.543 160.779 148.521C160.762 148.499 160.755 148.471 160.757 148.443C161.027 145.093 160.625 141.723 159.574 138.53C159.104 137.984 158.46 137.616 157.751 137.488C157.728 137.484 157.708 137.472 157.695 137.454C157.681 137.435 157.675 137.412 157.679 137.39C157.68 137.379 157.684 137.368 157.69 137.359C157.696 137.349 157.704 137.341 157.713 137.335C157.722 137.328 157.733 137.324 157.743 137.321C157.754 137.319 157.766 137.319 157.777 137.321C158.401 137.427 158.98 137.714 159.441 138.147C158.947 136.755 158.292 135.426 157.492 134.184C157.009 133.981 156.496 133.86 155.974 133.827C155.961 133.826 155.948 133.822 155.936 133.815C155.925 133.809 155.915 133.799 155.907 133.788C155.9 133.777 155.895 133.765 155.893 133.751C155.891 133.738 155.892 133.725 155.896 133.712C155.898 133.701 155.902 133.69 155.908 133.681C155.913 133.671 155.921 133.663 155.93 133.657C155.94 133.65 155.95 133.646 155.961 133.643C155.972 133.641 155.983 133.641 155.994 133.643Z"
        fill="#F5F5F5" />
    <path
        d="M162.736 143.775C164.018 143.798 166.207 142.608 167.056 141.451C167.906 140.293 165.475 141.004 165.726 140.08C165.976 139.155 169.003 139.838 169.562 138.516C170.12 137.194 167.937 137.499 168.024 136.822C168.11 136.146 170.374 136.284 171.1 134.878C171.825 133.473 169.835 134.259 170.149 133.677C170.463 133.096 172.954 130.642 171.912 130.132C170.869 129.622 168.528 132.174 167.744 132.459C166.961 132.744 166.78 130.982 165.76 131.826C164.741 132.669 165.504 136.356 164.303 136.843C163.41 137.205 163.79 135.515 162.762 135.941C160.974 136.687 162.215 143.763 162.736 143.775Z"
        fill="#E0E0E0" />
    <g opacity="0.3">
        <path
            d="M162.736 143.775C164.018 143.798 166.207 142.608 167.056 141.451C167.906 140.293 165.475 141.004 165.726 140.08C165.976 139.155 169.003 139.838 169.562 138.516C170.12 137.194 167.937 137.499 168.024 136.822C168.11 136.146 170.374 136.284 171.1 134.878C171.825 133.473 169.835 134.259 170.149 133.677C170.463 133.096 172.954 130.642 171.912 130.132C170.869 129.622 168.528 132.174 167.744 132.459C166.961 132.744 166.78 130.982 165.76 131.826C164.741 132.669 165.504 136.356 164.303 136.843C163.41 137.205 163.79 135.515 162.762 135.941C160.974 136.687 162.215 143.763 162.736 143.775Z"
            fill="#EBEBEB" />
    </g>
    <path
        d="M163.159 142.234C163.149 142.232 163.14 142.227 163.132 142.221C163.124 142.214 163.118 142.206 163.113 142.197C162.621 141.122 162.423 139.937 162.537 138.761C162.538 138.749 162.541 138.738 162.546 138.728C162.551 138.718 162.558 138.709 162.567 138.701C162.575 138.694 162.585 138.688 162.596 138.684C162.607 138.681 162.618 138.679 162.63 138.68C162.652 138.682 162.673 138.693 162.688 138.71C162.703 138.727 162.711 138.749 162.71 138.772C162.612 139.888 162.79 141.011 163.229 142.041C163.758 140.609 164.411 139.226 165.181 137.908C165.081 136.151 165.498 134.403 166.379 132.88C166.393 132.864 166.412 132.854 166.432 132.851C166.453 132.848 166.474 132.852 166.491 132.864C166.509 132.875 166.521 132.892 166.527 132.912C166.533 132.932 166.532 132.953 166.523 132.972C165.707 134.391 165.297 136.007 165.337 137.643C166.258 136.062 167.358 134.591 168.614 133.26C168.636 133.239 168.665 133.227 168.695 133.227C168.725 133.227 168.754 133.239 168.775 133.26C168.786 133.27 168.795 133.283 168.801 133.297C168.807 133.311 168.81 133.325 168.81 133.341C168.81 133.356 168.807 133.37 168.801 133.384C168.795 133.398 168.786 133.411 168.775 133.421C167.845 134.4 167.004 135.462 166.264 136.592C167.039 136.301 167.861 136.156 168.689 136.163C168.712 136.164 168.733 136.174 168.748 136.191C168.764 136.208 168.773 136.229 168.773 136.252C168.772 136.275 168.762 136.296 168.746 136.311C168.73 136.327 168.709 136.336 168.686 136.336C167.797 136.326 166.915 136.498 166.094 136.84C165.588 137.615 165.122 138.416 164.697 139.239C165.042 139 165.435 138.839 165.848 138.766C166.261 138.693 166.685 138.711 167.091 138.818C167.102 138.821 167.112 138.826 167.121 138.832C167.13 138.839 167.137 138.848 167.143 138.857C167.149 138.867 167.152 138.878 167.154 138.889C167.155 138.9 167.154 138.911 167.151 138.922C167.149 138.933 167.144 138.944 167.138 138.953C167.131 138.962 167.123 138.97 167.113 138.975C167.103 138.981 167.092 138.985 167.081 138.986C167.07 138.987 167.058 138.986 167.047 138.982C166.608 138.868 166.147 138.865 165.706 138.972C165.265 139.079 164.857 139.293 164.519 139.596C163.034 142.518 162.187 145.722 162.033 148.996C162.032 149.026 162.019 149.054 161.998 149.074C161.976 149.094 161.948 149.106 161.918 149.106C161.903 149.105 161.888 149.102 161.875 149.096C161.861 149.09 161.849 149.081 161.839 149.07C161.828 149.059 161.82 149.046 161.815 149.032C161.81 149.018 161.808 149.003 161.809 148.988C161.911 146.681 162.367 144.403 163.159 142.234Z"
        fill="#F5F5F5" />
    <path
        d="M159.127 156.3C157.903 153.996 157.111 150.672 157.111 149.215C157.117 148.619 157.254 148.031 157.512 147.493C157.77 146.956 158.144 146.482 158.606 146.105H164.876C165.338 146.482 165.711 146.956 165.968 147.494C166.226 148.031 166.363 148.619 166.368 149.215C166.368 150.672 165.564 153.999 164.352 156.3H159.127Z"
        fill="#F0F0F0" />
    <path
        d="M148.408 111.576C148.408 111.501 148.408 111.427 148.408 111.355L148.843 111.113C148.808 110.907 148.754 110.706 148.681 110.511H148.183C148.121 110.376 148.047 110.246 147.961 110.125L148.218 109.701C148.086 109.538 147.938 109.389 147.774 109.258L147.351 109.514C147.229 109.429 147.1 109.354 146.965 109.292V108.794C146.77 108.721 146.568 108.667 146.363 108.633L146.121 109.068C146.049 109.068 145.974 109.068 145.899 109.068C145.825 109.068 145.75 109.068 145.678 109.068L145.436 108.633C145.23 108.667 145.029 108.721 144.834 108.794V109.292C144.699 109.354 144.569 109.429 144.448 109.514L144.022 109.258C143.86 109.39 143.712 109.539 143.581 109.701L143.837 110.125C143.751 110.246 143.676 110.375 143.616 110.511H143.117C143.043 110.705 142.989 110.907 142.956 111.113L143.391 111.355C143.391 111.427 143.391 111.501 143.391 111.576C143.391 111.651 143.391 111.726 143.391 111.798L142.956 112.04C142.989 112.246 143.043 112.447 143.117 112.642H143.616C143.676 112.778 143.751 112.907 143.837 113.028L143.581 113.454C143.713 113.615 143.861 113.763 144.022 113.895L144.448 113.638C144.569 113.725 144.698 113.799 144.834 113.86V114.358C145.028 114.433 145.23 114.487 145.436 114.52L145.678 114.085C145.75 114.085 145.825 114.085 145.899 114.085C145.974 114.085 146.049 114.085 146.121 114.085L146.363 114.52C146.569 114.487 146.77 114.433 146.965 114.358V113.86C147.101 113.799 147.23 113.725 147.351 113.638L147.774 113.895C147.937 113.763 148.085 113.616 148.218 113.454L147.961 113.028C148.047 112.906 148.121 112.777 148.183 112.642H148.681C148.754 112.447 148.808 112.245 148.843 112.04L148.408 111.798C148.408 111.726 148.408 111.651 148.408 111.576ZM145.899 113.281C145.562 113.281 145.233 113.181 144.952 112.994C144.672 112.807 144.453 112.54 144.324 112.229C144.195 111.917 144.161 111.574 144.227 111.244C144.293 110.913 144.455 110.609 144.694 110.371C144.932 110.132 145.236 109.97 145.567 109.904C145.898 109.838 146.24 109.872 146.552 110.001C146.863 110.13 147.13 110.349 147.317 110.629C147.504 110.909 147.604 111.239 147.604 111.576C147.604 111.801 147.56 112.024 147.474 112.231C147.387 112.439 147.26 112.628 147.101 112.786C146.941 112.944 146.752 113.07 146.544 113.155C146.336 113.24 146.113 113.283 145.888 113.281H145.899Z"
        fill="#F0F0F0" />
    <path
        d="M145.131 117.731C145.131 117.618 145.131 117.509 145.116 117.4L145.764 117.037C145.717 116.732 145.638 116.432 145.528 116.144L144.788 116.158C144.693 115.957 144.581 115.765 144.454 115.582L144.837 114.946C144.64 114.703 144.418 114.482 144.174 114.286L143.538 114.666C143.356 114.539 143.163 114.428 142.962 114.335V113.592C142.671 113.48 142.369 113.399 142.06 113.35L141.7 114.001C141.479 113.978 141.256 113.978 141.035 114.001L140.675 113.35C140.367 113.399 140.065 113.48 139.774 113.592V114.335C139.572 114.428 139.38 114.539 139.198 114.666L138.558 114.286C138.316 114.483 138.095 114.704 137.899 114.946L138.282 115.582C138.155 115.765 138.043 115.957 137.948 116.158L137.205 116.144C137.093 116.435 137.012 116.737 136.963 117.045L137.614 117.408C137.614 117.518 137.599 117.627 137.599 117.739C137.599 117.852 137.599 117.961 137.614 118.071L136.963 118.434C137.012 118.742 137.093 119.044 137.205 119.335L137.948 119.321C138.042 119.522 138.154 119.715 138.282 119.897L137.899 120.533C138.095 120.775 138.316 120.996 138.558 121.193L139.198 120.812C139.379 120.941 139.572 121.052 139.774 121.144V121.887C140.065 121.999 140.367 122.08 140.675 122.129L141.035 121.478C141.256 121.501 141.479 121.501 141.7 121.478L142.06 122.129C142.369 122.08 142.671 121.999 142.962 121.887V121.144C143.164 121.052 143.357 120.941 143.538 120.812L144.174 121.193C144.418 120.997 144.64 120.776 144.837 120.533L144.448 119.888C144.576 119.706 144.688 119.513 144.782 119.312L145.522 119.326C145.635 119.035 145.716 118.733 145.764 118.425L145.116 118.062C145.125 117.953 145.131 117.843 145.131 117.731ZM141.387 119.211C141.094 119.211 140.808 119.124 140.564 118.962C140.321 118.799 140.131 118.568 140.019 118.297C139.907 118.027 139.878 117.729 139.935 117.442C139.992 117.155 140.133 116.891 140.34 116.684C140.547 116.477 140.811 116.336 141.098 116.279C141.385 116.222 141.683 116.251 141.953 116.363C142.224 116.475 142.455 116.665 142.617 116.908C142.78 117.152 142.867 117.438 142.867 117.731C142.867 117.926 142.828 118.12 142.753 118.3C142.678 118.48 142.568 118.644 142.429 118.782C142.291 118.919 142.126 119.028 141.945 119.102C141.764 119.175 141.57 119.213 141.375 119.211H141.387Z"
        fill="#F0F0F0" />
    <path
        d="M86.8221 106.315H83.4295C83.1395 106.315 82.8524 106.372 82.5846 106.483C82.3167 106.594 82.0734 106.757 81.8685 106.962C81.6636 107.167 81.5012 107.41 81.3905 107.678C81.2798 107.946 81.223 108.234 81.2234 108.524V111.913C81.2234 112.499 81.4557 113.06 81.8694 113.474C82.283 113.888 82.8441 114.121 83.4295 114.122H86.8221C87.4075 114.121 87.9686 113.888 88.3822 113.474C88.7959 113.06 89.0282 112.499 89.0282 111.913V108.524C89.0286 108.234 88.9718 107.946 88.8611 107.678C88.7504 107.41 88.588 107.167 88.3831 106.962C88.1782 106.757 87.9348 106.594 87.667 106.483C87.3992 106.372 87.1121 106.315 86.8221 106.315ZM85.1258 112.651C85.1258 112.651 83.2912 110.652 83.2912 109.638C83.2912 109.152 83.4845 108.685 83.8286 108.341C84.1726 107.997 84.6392 107.804 85.1258 107.804C85.6123 107.804 86.079 107.997 86.423 108.341C86.7671 108.685 86.9603 109.152 86.9603 109.638C86.9603 110.643 85.1258 112.642 85.1258 112.642V112.651Z"
        fill="#F0F0F0" />
    <path
        d="M85.1257 108.794C84.9598 108.794 84.7976 108.843 84.6598 108.936C84.5219 109.028 84.4145 109.159 84.3511 109.312C84.2878 109.466 84.2713 109.634 84.3039 109.797C84.3365 109.959 84.4166 110.109 84.5341 110.226C84.6516 110.343 84.8012 110.423 84.9639 110.455C85.1267 110.487 85.2953 110.47 85.4484 110.406C85.6015 110.342 85.7322 110.234 85.8239 110.096C85.9157 109.958 85.9643 109.795 85.9638 109.629C85.9638 109.519 85.9421 109.411 85.8999 109.309C85.8577 109.208 85.796 109.115 85.7181 109.038C85.6402 108.96 85.5478 108.899 85.4462 108.857C85.3445 108.815 85.2356 108.794 85.1257 108.794Z"
        fill="#F0F0F0" />
    <path
        d="M155.32 81.0081H151.74C151.473 81.0077 151.207 81.0601 150.96 81.1622C150.713 81.2644 150.488 81.4143 150.299 81.6034C150.109 81.7925 149.959 82.0171 149.856 82.2643C149.754 82.5116 149.701 82.7766 149.701 83.0442V86.6269C149.701 86.8946 149.754 87.1596 149.856 87.4068C149.959 87.654 150.109 87.8786 150.299 88.0677C150.488 88.2569 150.713 88.4068 150.96 88.5089C151.207 88.6111 151.473 88.6635 151.74 88.6631H155.32C155.588 88.6635 155.852 88.6111 156.1 88.5089C156.347 88.4067 156.572 88.2567 156.761 88.0676C156.95 87.8784 157.1 87.6538 157.202 87.4066C157.304 87.1594 157.357 86.8944 157.356 86.6269V83.0241C157.352 82.4873 157.135 81.9741 156.754 81.5965C156.372 81.2188 155.857 81.0073 155.32 81.0081ZM155.798 83.626C155.704 83.7448 155.595 83.8504 155.473 83.9399C155.468 83.9418 155.463 83.9455 155.461 83.9502C155.458 83.955 155.457 83.9605 155.458 83.9658C155.462 84.0997 155.455 84.2336 155.435 84.3661C155.406 84.6439 155.332 84.9152 155.216 85.1697C155.098 85.4286 154.938 85.6669 154.744 85.8753C154.411 86.2262 153.979 86.4673 153.506 86.5665C153.339 86.6033 153.169 86.6245 152.999 86.6298C152.491 86.6414 151.991 86.5053 151.559 86.2381H151.536C152.012 86.2869 152.489 86.1565 152.875 85.8724C152.686 85.8679 152.503 85.8051 152.351 85.6928C152.199 85.5804 152.085 85.4239 152.025 85.2445C152.153 85.2718 152.286 85.2718 152.414 85.2445C152.292 85.2189 152.177 85.1686 152.075 85.0968C151.973 85.025 151.886 84.9332 151.821 84.8269C151.731 84.6838 151.683 84.5181 151.683 84.3489C151.804 84.4142 151.939 84.4516 152.077 84.4583C151.89 84.3271 151.757 84.1311 151.706 83.9082C151.65 83.687 151.682 83.4526 151.795 83.2545C152.026 83.5327 152.312 83.7603 152.635 83.9228C152.958 84.0854 153.312 84.1794 153.673 84.1991C153.671 84.1649 153.666 84.131 153.655 84.0983C153.626 83.8921 153.67 83.6821 153.779 83.505C153.846 83.3983 153.935 83.3075 154.041 83.2388C154.146 83.1702 154.265 83.1254 154.39 83.1076C154.531 83.0828 154.677 83.0926 154.814 83.1362C154.951 83.1799 155.075 83.256 155.176 83.3581C155.182 83.3653 155.191 83.3705 155.2 83.3731C155.209 83.3757 155.219 83.3755 155.228 83.3725C155.411 83.3334 155.587 83.2664 155.749 83.1738C155.684 83.3656 155.557 83.5306 155.389 83.6433C155.562 83.623 155.731 83.5764 155.89 83.505L155.798 83.626Z"
        fill="#F0F0F0" />
    <path
        d="M80.2644 78.658H76.4311C75.2271 78.658 74.251 79.6341 74.251 80.8381V84.6714C74.251 85.8755 75.2271 86.8516 76.4311 86.8516H80.2644C81.4685 86.8516 82.4446 85.8755 82.4446 84.6714V80.8381C82.4446 79.6341 81.4685 78.658 80.2644 78.658Z"
        fill="#F0F0F0" />
    <path
        d="M79.2649 81.4515V82.6035C79.2649 82.717 79.2425 82.8293 79.1991 82.9342C79.1557 83.039 79.0921 83.1342 79.0118 83.2145C78.9316 83.2947 78.8364 83.3583 78.7315 83.4018C78.6267 83.4452 78.5144 83.4675 78.4009 83.4675H77.2979L76.0393 84.7261V83.4675C75.8101 83.4675 75.5904 83.3765 75.4284 83.2145C75.2663 83.0524 75.1753 82.8327 75.1753 82.6035V81.4515C75.1753 81.2224 75.2663 81.0026 75.4284 80.8406C75.5904 80.6786 75.8101 80.5875 76.0393 80.5875H78.4009C78.63 80.5875 78.8498 80.6786 79.0118 80.8406C79.1739 81.0026 79.2649 81.2224 79.2649 81.4515Z"
        fill="white" />
    <path
        d="M81.52 83.1939V84.0809C81.52 84.2574 81.4499 84.4266 81.3251 84.5514C81.2003 84.6761 81.0311 84.7462 80.8547 84.7462V85.7139L79.887 84.752H79.0403C78.8638 84.752 78.6946 84.6819 78.5699 84.5571C78.4451 84.4324 78.375 84.2631 78.375 84.0867V83.1997C78.3746 83.112 78.3916 83.0252 78.4248 82.9442C78.4581 82.8631 78.507 82.7894 78.5688 82.7274C78.6307 82.6653 78.7041 82.616 78.785 82.5824C78.8659 82.5488 78.9527 82.5315 79.0403 82.5315H80.8547C81.0306 82.5315 81.1994 82.6012 81.3241 82.7253C81.4488 82.8495 81.5192 83.0179 81.52 83.1939Z"
        fill="white" />
    <path
        d="M78.3521 81.5235H76.2151C76.1891 81.5235 76.1642 81.5132 76.1459 81.4948C76.1275 81.4764 76.1172 81.4515 76.1172 81.4256C76.1172 81.3996 76.1275 81.3747 76.1459 81.3563C76.1642 81.338 76.1891 81.3276 76.2151 81.3276H78.3521C78.378 81.3276 78.4029 81.338 78.4213 81.3563C78.4397 81.3747 78.45 81.3996 78.45 81.4256C78.45 81.4515 78.4397 81.4764 78.4213 81.4948C78.4029 81.5132 78.378 81.5235 78.3521 81.5235Z"
        fill="#EBEBEB" />
    <path
        d="M78.3521 82.0218H76.2151C76.1891 82.0218 76.1642 82.0115 76.1459 81.9931C76.1275 81.9747 76.1172 81.9498 76.1172 81.9238C76.1172 81.8979 76.1275 81.873 76.1459 81.8546C76.1642 81.8362 76.1891 81.8259 76.2151 81.8259H78.3521C78.378 81.8259 78.4029 81.8362 78.4213 81.8546C78.4397 81.873 78.45 81.8979 78.45 81.9238C78.45 81.9498 78.4397 81.9747 78.4213 81.9931C78.4029 82.0115 78.378 82.0218 78.3521 82.0218Z"
        fill="#EBEBEB" />
    <path
        d="M77.7559 82.5201H76.2151C76.1891 82.5201 76.1642 82.5097 76.1459 82.4914C76.1275 82.473 76.1172 82.4481 76.1172 82.4221C76.1172 82.3962 76.1275 82.3713 76.1459 82.3529C76.1642 82.3345 76.1891 82.3242 76.2151 82.3242H77.7559C77.7819 82.3242 77.8068 82.3345 77.8251 82.3529C77.8435 82.3713 77.8538 82.3962 77.8538 82.4221C77.8538 82.4481 77.8435 82.473 77.8251 82.4914C77.8068 82.5097 77.7819 82.5201 77.7559 82.5201Z"
        fill="#EBEBEB" />
    <path
        d="M115 168.189C145.84 168.189 170.84 166.729 170.84 164.928C170.84 163.128 145.84 161.668 115 161.668C84.1602 161.668 59.1597 163.128 59.1597 164.928C59.1597 166.729 84.1602 168.189 115 168.189Z"
        fill="#F5F5F5" />
    <path
        d="M128.219 96.7299H127.931V93.6397C127.93 93.0446 127.694 92.4741 127.273 92.0531C126.853 91.632 126.283 91.3948 125.688 91.3933H120C119.328 91.3925 118.684 91.1252 118.208 90.6501C117.733 90.175 117.466 89.5308 117.465 88.8589V86.48H117.753V88.8646C117.754 89.4602 117.991 90.0311 118.412 90.4522C118.833 90.8733 119.404 91.1103 120 91.111H125.688C126.359 91.1118 127.003 91.3791 127.478 91.8543C127.953 92.3296 128.219 92.9738 128.219 93.6454V96.7299Z"
        fill="black" />
    <path
        d="M130.264 96.7904H126.52C126.157 96.7904 125.809 96.9344 125.552 97.1909C125.295 97.4474 125.15 97.7953 125.149 98.1584V101.902C125.15 102.265 125.295 102.613 125.552 102.87C125.809 103.126 126.157 103.27 126.52 103.27H130.264C130.627 103.27 130.975 103.126 131.232 102.87C131.489 102.613 131.634 102.265 131.635 101.902V98.1584C131.634 97.7953 131.489 97.4474 131.232 97.1909C130.975 96.9344 130.627 96.7904 130.264 96.7904Z"
        fill="#407BFF" />
    <g opacity="0.4">
        <path
            d="M130.264 96.7904H126.52C126.157 96.7904 125.809 96.9344 125.552 97.1909C125.295 97.4474 125.15 97.7953 125.149 98.1584V101.902C125.15 102.265 125.295 102.613 125.552 102.87C125.809 103.126 126.157 103.27 126.52 103.27H130.264C130.627 103.27 130.975 103.126 131.232 102.87C131.489 102.613 131.634 102.265 131.635 101.902V98.1584C131.634 97.7953 131.489 97.4474 131.232 97.1909C130.975 96.9344 130.627 96.7904 130.264 96.7904Z"
            fill="white" />
    </g>
    <path
        d="M128.363 97.4009C127.854 97.4003 127.356 97.5509 126.932 97.8336C126.508 98.1163 126.177 98.5184 125.982 98.989C125.787 99.4596 125.736 99.9775 125.835 100.477C125.934 100.977 126.18 101.436 126.54 101.796C126.9 102.156 127.359 102.402 127.859 102.501C128.358 102.6 128.876 102.549 129.347 102.354C129.818 102.159 130.22 101.828 130.502 101.404C130.785 100.98 130.936 100.482 130.935 99.9727C130.934 99.2911 130.662 98.6378 130.18 98.1558C129.698 97.6739 129.045 97.4024 128.363 97.4009ZM127.954 97.6889C127.704 97.9382 127.501 98.231 127.355 98.5529H126.54C126.89 98.0993 127.396 97.7923 127.96 97.6918L127.954 97.6889ZM126.365 98.7948H127.246C127.119 99.1251 127.042 99.4727 127.018 99.8258V99.8863H126.053C126.067 99.5035 126.173 99.1297 126.365 98.7977V98.7948ZM126.416 101.228C126.205 100.902 126.08 100.528 126.051 100.14H127.024C127.061 100.516 127.159 100.883 127.312 101.228H126.416ZM126.606 101.482H127.433C127.591 101.78 127.802 102.046 128.055 102.268C127.492 102.194 126.976 101.915 126.606 101.485V101.482ZM128.237 102.09C128.035 101.916 127.863 101.71 127.727 101.482H128.248L128.237 102.09ZM128.237 101.226H127.589C127.424 100.883 127.32 100.515 127.28 100.137H128.248L128.237 101.226ZM128.237 99.8834H127.272C127.288 99.5077 127.372 99.1381 127.519 98.7919H128.248L128.237 99.8834ZM128.237 98.5385H127.637C127.786 98.2476 127.989 97.9883 128.237 97.7753V98.5385ZM130.682 99.8834H129.714V99.823C129.692 99.4696 129.615 99.1218 129.486 98.7919H130.368C130.563 99.1256 130.671 99.5029 130.682 99.8892V99.8834ZM130.186 98.5385H129.374C129.226 98.217 129.023 97.9245 128.772 97.6745C129.335 97.7786 129.839 98.0887 130.186 98.5442V98.5385ZM128.49 97.7782C128.738 97.9895 128.942 98.2479 129.089 98.5385H128.49V97.7782ZM128.49 98.7919H129.207C129.355 99.138 129.44 99.5076 129.458 99.8834H128.49V98.7919ZM128.49 100.137H129.446C129.408 100.515 129.304 100.884 129.138 101.226H128.49V100.137ZM128.49 102.087V101.485H129C128.865 101.715 128.693 101.92 128.49 102.092V102.087ZM128.671 102.265C128.925 102.043 129.136 101.777 129.293 101.479H130.12C129.752 101.913 129.236 102.195 128.671 102.271V102.265ZM130.31 101.226H129.417C129.571 100.88 129.668 100.513 129.705 100.137H130.679C130.651 100.527 130.524 100.904 130.31 101.231V101.226Z"
        fill="white" />
    <path
        d="M139.84 91.952H139.552V88.8617C139.552 88.2667 139.316 87.6961 138.895 87.2753C138.474 86.8546 137.904 86.6182 137.309 86.6182H123.735V86.3302H137.309C137.98 86.331 138.623 86.5979 139.098 87.0725C139.572 87.5471 139.839 88.1906 139.84 88.8617V91.952Z"
        fill="black" />
    <path
        d="M140.77 89.7113H137.026C136.663 89.7113 136.315 89.8553 136.058 90.1118C135.801 90.3683 135.656 90.7162 135.655 91.0793V94.8233C135.656 95.1864 135.801 95.5343 136.058 95.7908C136.315 96.0473 136.663 96.1913 137.026 96.1913H140.77C141.133 96.1913 141.481 96.0473 141.738 95.7908C141.995 95.5343 142.14 95.1864 142.141 94.8233V91.0879C142.142 90.9074 142.107 90.7286 142.038 90.5616C141.97 90.3946 141.869 90.2428 141.742 90.1149C141.614 89.9869 141.463 89.8855 141.296 89.8162C141.129 89.747 140.951 89.7113 140.77 89.7113Z"
        fill="#407BFF" />
    <g opacity="0.4">
        <path
            d="M140.77 89.7113H137.026C136.663 89.7113 136.315 89.8553 136.058 90.1118C135.801 90.3683 135.656 90.7162 135.655 91.0793V94.8233C135.656 95.1864 135.801 95.5343 136.058 95.7908C136.315 96.0473 136.663 96.1913 137.026 96.1913H140.77C141.133 96.1913 141.481 96.0473 141.738 95.7908C141.995 95.5343 142.14 95.1864 142.141 94.8233V91.0879C142.142 90.9074 142.107 90.7286 142.038 90.5616C141.97 90.3946 141.869 90.2428 141.742 90.1149C141.614 89.9869 141.463 89.8855 141.296 89.8162C141.129 89.747 140.951 89.7113 140.77 89.7113Z"
            fill="white" />
    </g>
    <path opacity="0.9"
        d="M139.336 91.1629C139.125 90.9516 138.858 90.8048 138.566 90.7398C138.275 90.6747 137.971 90.6941 137.69 90.7956C137.409 90.8971 137.162 91.0765 136.98 91.3129C136.797 91.5493 136.685 91.8328 136.658 92.1303C136.631 92.4278 136.689 92.7269 136.825 92.9927C136.961 93.2585 137.171 93.4799 137.428 93.631C137.686 93.7821 137.982 93.8567 138.28 93.846C138.579 93.8353 138.868 93.7397 139.114 93.5706C139.126 93.6427 139.16 93.7092 139.212 93.7607L140.189 94.737C140.221 94.7697 140.26 94.7956 140.303 94.8133C140.346 94.8311 140.391 94.8402 140.438 94.8402C140.484 94.8402 140.53 94.8311 140.572 94.8133C140.615 94.7956 140.654 94.7697 140.687 94.737C140.719 94.7043 140.745 94.6654 140.763 94.6227C140.781 94.5799 140.79 94.5341 140.79 94.4879C140.79 94.4416 140.781 94.3958 140.763 94.353C140.745 94.3103 140.719 94.2714 140.687 94.2387L139.71 93.2624C139.658 93.21 139.591 93.1756 139.518 93.1645C139.726 92.8621 139.821 92.4965 139.788 92.1309C139.755 91.7654 139.595 91.4229 139.336 91.1629ZM139.002 93.0522C138.848 93.2067 138.651 93.312 138.437 93.3548C138.223 93.3976 138.001 93.3759 137.8 93.2925C137.598 93.2091 137.425 93.0677 137.304 92.8862C137.183 92.7048 137.118 92.4914 137.118 92.2731C137.118 92.0549 137.183 91.8415 137.304 91.66C137.425 91.4786 137.598 91.3372 137.8 91.2538C138.001 91.1704 138.223 91.1487 138.437 91.1915C138.651 91.2343 138.848 91.3396 139.002 91.4941C139.104 91.5963 139.186 91.7177 139.241 91.8514C139.297 91.9851 139.325 92.1284 139.325 92.2731C139.325 92.4179 139.297 92.5612 139.241 92.6949C139.186 92.8286 139.104 92.95 139.002 93.0522Z"
        fill="white" />
    <path d="M140.785 81.4226H123.412V81.7106H140.785V81.4226Z" fill="black" />
    <path
        d="M143.532 76.4806H139.803C139.623 76.4806 139.445 76.5161 139.278 76.585C139.112 76.6539 138.961 76.755 138.834 76.8823C138.707 77.0096 138.606 77.1608 138.538 77.3271C138.469 77.4934 138.434 77.6716 138.435 77.8515V81.584C138.434 81.7638 138.469 81.942 138.538 82.1083C138.606 82.2747 138.707 82.4258 138.834 82.5531C138.961 82.6805 139.112 82.7815 139.278 82.8504C139.445 82.9194 139.623 82.9548 139.803 82.9548H143.532C143.896 82.9548 144.244 82.8104 144.502 82.5533C144.759 82.2962 144.903 81.9475 144.903 81.584V77.84C144.9 77.4784 144.754 77.1326 144.497 76.878C144.241 76.6234 143.894 76.4806 143.532 76.4806Z"
        fill="#407BFF" />
    <g opacity="0.4">
        <path
            d="M143.532 76.4806H139.803C139.623 76.4806 139.445 76.5161 139.278 76.585C139.112 76.6539 138.961 76.755 138.834 76.8823C138.707 77.0096 138.606 77.1608 138.538 77.3271C138.469 77.4934 138.434 77.6716 138.435 77.8515V81.584C138.434 81.7638 138.469 81.942 138.538 82.1083C138.606 82.2747 138.707 82.4258 138.834 82.5531C138.961 82.6805 139.112 82.7815 139.278 82.8504C139.445 82.9194 139.623 82.9548 139.803 82.9548H143.532C143.896 82.9548 144.244 82.8104 144.502 82.5533C144.759 82.2962 144.903 81.9475 144.903 81.584V77.84C144.9 77.4784 144.754 77.1326 144.497 76.878C144.241 76.6234 143.894 76.4806 143.532 76.4806Z"
            fill="white" />
    </g>
    <g opacity="0.5">
        <path
            d="M140.759 81.5667C140.759 81.6629 140.73 81.7571 140.677 81.8371C140.623 81.9171 140.547 81.9795 140.458 82.0164C140.369 82.0532 140.271 82.0628 140.177 82.0441C140.083 82.0253 139.996 81.9789 139.928 81.9108C139.86 81.8428 139.813 81.7561 139.795 81.6616C139.776 81.5672 139.785 81.4694 139.822 81.3804C139.859 81.2915 139.921 81.2155 140.001 81.162C140.082 81.1085 140.176 81.08 140.272 81.08C140.336 81.0796 140.399 81.0919 140.459 81.1162C140.518 81.1406 140.572 81.1764 140.617 81.2217C140.662 81.2669 140.698 81.3207 140.722 81.38C140.747 81.4392 140.759 81.5027 140.759 81.5667Z"
            fill="white" />
        <path
            d="M142.648 81.5667C142.648 81.6629 142.619 81.7571 142.566 81.8371C142.512 81.9171 142.436 81.9795 142.348 82.0164C142.259 82.0532 142.161 82.0628 142.066 82.0441C141.972 82.0253 141.885 81.9789 141.817 81.9108C141.749 81.8428 141.703 81.7561 141.684 81.6616C141.665 81.5672 141.675 81.4694 141.712 81.3804C141.748 81.2915 141.811 81.2155 141.891 81.162C141.971 81.1085 142.065 81.08 142.161 81.08C142.225 81.0796 142.289 81.0919 142.348 81.1162C142.407 81.1406 142.461 81.1764 142.506 81.2217C142.552 81.2669 142.587 81.3207 142.612 81.38C142.636 81.4392 142.648 81.5027 142.648 81.5667Z"
            fill="white" />
    </g>
    <path
        d="M142.567 80.8323H139.739C139.711 80.8318 139.685 80.8227 139.662 80.8061C139.64 80.7896 139.624 80.7665 139.615 80.7402L139.022 78.7731C139.016 78.7537 139.015 78.7331 139.018 78.7131C139.022 78.693 139.03 78.6741 139.042 78.6579C139.054 78.6418 139.07 78.6288 139.088 78.6198C139.106 78.6108 139.126 78.6061 139.146 78.6061H143.161C143.181 78.6061 143.201 78.6107 143.22 78.6197C143.238 78.6287 143.254 78.6418 143.267 78.6579C143.279 78.6744 143.287 78.6933 143.29 78.7132C143.294 78.7332 143.293 78.7536 143.287 78.7731L142.691 80.7402C142.683 80.7668 142.667 80.7901 142.644 80.8067C142.622 80.8233 142.595 80.8323 142.567 80.8323ZM139.837 80.5731H142.472L142.988 78.8653H139.319L139.837 80.5731Z"
        fill="white" />
    <path
        d="M143.161 78.8653H143.126C143.11 78.8606 143.094 78.8528 143.081 78.8421C143.067 78.8315 143.056 78.8183 143.048 78.8033C143.039 78.7883 143.034 78.7718 143.032 78.7547C143.03 78.7377 143.032 78.7205 143.037 78.704L143.264 77.912C143.294 77.8083 143.357 77.7171 143.443 77.6522C143.529 77.5873 143.634 77.5521 143.742 77.552H144.192C144.226 77.552 144.259 77.5657 144.283 77.59C144.308 77.6143 144.321 77.6472 144.321 77.6816C144.321 77.716 144.308 77.7489 144.283 77.7732C144.259 77.7975 144.226 77.8112 144.192 77.8112H143.742C143.691 77.8117 143.641 77.8287 143.6 77.8599C143.559 77.891 143.529 77.9345 143.515 77.984L143.287 78.776C143.278 78.8023 143.261 78.8251 143.238 78.8411C143.216 78.8571 143.188 78.8656 143.161 78.8653Z"
        fill="white" />
    <path
        d="M128.536 77.5751H122.885V77.2871H128.536C129.131 77.2871 129.702 77.0508 130.122 76.63C130.543 76.2093 130.78 75.6386 130.78 75.0436V71.9534H131.068V75.0436C131.067 75.7148 130.8 76.3582 130.325 76.8328C129.851 77.3074 129.207 77.5744 128.536 77.5751Z"
        fill="black" />
    <path
        d="M132.916 67.0199H128.953C128.254 67.0199 127.686 67.5872 127.686 68.2871V72.25C127.686 72.9498 128.254 73.5172 128.953 73.5172H132.916C133.616 73.5172 134.184 72.9498 134.184 72.25V68.2871C134.184 67.5872 133.616 67.0199 132.916 67.0199Z"
        fill="#407BFF" />
    <g opacity="0.4">
        <path
            d="M132.916 67.0199H128.953C128.254 67.0199 127.686 67.5872 127.686 68.2871V72.25C127.686 72.9498 128.254 73.5172 128.953 73.5172H132.916C133.616 73.5172 134.184 72.9498 134.184 72.25V68.2871C134.184 67.5872 133.616 67.0199 132.916 67.0199Z"
            fill="white" />
    </g>
    <path
        d="M133.397 70.9482C133.397 71.0174 133.397 71.2622 133.383 71.3313H131.163V70.2714H131.465L130.84 69.6436L130.212 70.2714H130.515V71.3313H128.429C128.429 71.2967 128.429 71.0836 128.429 71.0433C128.43 70.7662 128.533 70.4992 128.719 70.2942C128.906 70.0892 129.162 69.961 129.437 69.9345V69.8913C129.435 69.5781 129.545 69.2744 129.748 69.0355C129.95 68.7966 130.232 68.6383 130.541 68.5895C130.85 68.5406 131.167 68.6045 131.433 68.7694C131.7 68.9343 131.898 69.1893 131.992 69.4881C132.07 69.4897 132.148 69.4975 132.225 69.5111C132.559 69.5742 132.859 69.7529 133.074 70.0159C133.288 70.2788 133.403 70.609 133.397 70.9482Z"
        fill="white" />
    <path d="M115.475 70.1964H115.187V76.1148H115.475V70.1964Z" fill="black" />
    <path
        d="M117.197 64.5516H113.468C113.104 64.5516 112.756 64.6961 112.498 64.9532C112.241 65.2102 112.097 65.5589 112.097 65.9225V69.6521C112.097 70.0157 112.241 70.3644 112.498 70.6215C112.756 70.8786 113.104 71.023 113.468 71.023H117.197C117.377 71.023 117.555 70.9875 117.722 70.9186C117.888 70.8497 118.039 70.7486 118.166 70.6213C118.293 70.494 118.394 70.3428 118.462 70.1765C118.531 70.0102 118.566 69.832 118.565 69.6521V65.9225C118.566 65.7426 118.531 65.5644 118.462 65.3981C118.394 65.2318 118.293 65.0807 118.166 64.9533C118.039 64.826 117.888 64.725 117.722 64.656C117.555 64.5871 117.377 64.5516 117.197 64.5516Z"
        fill="#407BFF" />
    <g opacity="0.4">
        <path
            d="M117.197 64.5516H113.468C113.104 64.5516 112.756 64.6961 112.498 64.9532C112.241 65.2102 112.097 65.5589 112.097 65.9225V69.6521C112.097 70.0157 112.241 70.3644 112.498 70.6215C112.756 70.8786 113.104 71.023 113.468 71.023H117.197C117.377 71.023 117.555 70.9875 117.722 70.9186C117.888 70.8497 118.039 70.7486 118.166 70.6213C118.293 70.494 118.394 70.3428 118.462 70.1765C118.531 70.0102 118.566 69.832 118.565 69.6521V65.9225C118.566 65.7426 118.531 65.5644 118.462 65.3981C118.394 65.2318 118.293 65.0807 118.166 64.9533C118.039 64.826 117.888 64.725 117.722 64.656C117.555 64.5871 117.377 64.5516 117.197 64.5516Z"
            fill="white" />
    </g>
    <path
        d="M115.93 68.2121C115.93 68.1689 115.93 68.1257 115.93 68.0854L116.192 67.9817C116.19 67.8623 116.175 67.7435 116.146 67.6275L115.858 67.5958C115.834 67.5153 115.802 67.4372 115.763 67.3625L115.939 67.1408C115.876 67.0381 115.804 66.9416 115.723 66.8528L115.464 66.9651C115.401 66.9076 115.333 66.8556 115.262 66.8096L115.302 66.5216C115.199 66.4628 115.088 66.4164 114.974 66.3833L114.807 66.6109L114.712 66.608H114.588L114.481 66.343C114.363 66.3468 114.245 66.3623 114.13 66.3891L114.098 66.6771C114.017 66.702 113.938 66.7348 113.862 66.775L113.641 66.5965C113.537 66.6591 113.441 66.7325 113.353 66.8153L113.465 67.0745C113.409 67.1374 113.357 67.2049 113.312 67.2761L113.024 67.2329C112.969 67.3377 112.923 67.4477 112.889 67.5613L113.116 67.7312C113.116 67.7715 113.099 67.8118 113.093 67.855C113.09 67.8972 113.09 67.9395 113.093 67.9817L112.828 68.0854C112.831 68.2048 112.846 68.3236 112.874 68.4397L113.162 68.4713C113.188 68.5514 113.22 68.6294 113.257 68.7046L113.082 68.9264C113.144 69.0291 113.217 69.1255 113.298 69.2144L113.56 69.1021C113.621 69.1601 113.688 69.2122 113.759 69.2576L113.718 69.5456C113.822 69.6029 113.932 69.6483 114.047 69.6809L114.214 69.4534L114.34 69.4765H114.467L114.571 69.7385C114.689 69.7363 114.807 69.7209 114.922 69.6925L114.954 69.4045C115.036 69.3796 115.115 69.3468 115.19 69.3065L115.412 69.4822C115.516 69.4216 115.612 69.3491 115.7 69.2662L115.587 69.007C115.644 68.9443 115.695 68.8768 115.74 68.8054L116.028 68.8486C116.084 68.7438 116.129 68.6339 116.163 68.5203L115.936 68.3504C115.916 68.2957 115.924 68.2525 115.93 68.2121ZM114.424 68.5837C114.31 68.5709 114.202 68.5243 114.115 68.4499C114.027 68.3754 113.964 68.2765 113.933 68.1659C113.902 68.0552 113.905 67.9379 113.941 67.829C113.978 67.72 114.046 67.6244 114.137 67.5544C114.228 67.4845 114.338 67.4433 114.453 67.4363C114.567 67.4293 114.681 67.4567 114.78 67.515C114.879 67.5733 114.959 67.6599 115.008 67.7636C115.057 67.8673 115.075 67.9834 115.057 68.0969C115.035 68.2443 114.957 68.3773 114.839 68.468C114.721 68.5588 114.572 68.6002 114.424 68.5837Z"
        fill="#407BFF" />
    <path
        d="M115.93 68.2121C115.93 68.1689 115.93 68.1257 115.93 68.0854L116.192 67.9817C116.19 67.8623 116.175 67.7435 116.146 67.6275L115.858 67.5958C115.834 67.5153 115.802 67.4372 115.763 67.3625L115.939 67.1408C115.876 67.0381 115.804 66.9416 115.723 66.8528L115.464 66.9651C115.401 66.9076 115.333 66.8556 115.262 66.8096L115.302 66.5216C115.199 66.4628 115.088 66.4164 114.974 66.3833L114.807 66.6109L114.712 66.608H114.588L114.481 66.343C114.363 66.3468 114.245 66.3623 114.13 66.3891L114.098 66.6771C114.017 66.702 113.938 66.7348 113.862 66.775L113.641 66.5965C113.537 66.6591 113.441 66.7325 113.353 66.8153L113.465 67.0745C113.409 67.1374 113.357 67.2049 113.312 67.2761L113.024 67.2329C112.969 67.3377 112.923 67.4477 112.889 67.5613L113.116 67.7312C113.116 67.7715 113.099 67.8118 113.093 67.855C113.09 67.8972 113.09 67.9395 113.093 67.9817L112.828 68.0854C112.831 68.2048 112.846 68.3236 112.874 68.4397L113.162 68.4713C113.188 68.5514 113.22 68.6294 113.257 68.7046L113.082 68.9264C113.144 69.0291 113.217 69.1255 113.298 69.2144L113.56 69.1021C113.621 69.1601 113.688 69.2122 113.759 69.2576L113.718 69.5456C113.822 69.6029 113.932 69.6483 114.047 69.6809L114.214 69.4534L114.34 69.4765H114.467L114.571 69.7385C114.689 69.7363 114.807 69.7209 114.922 69.6925L114.954 69.4045C115.036 69.3796 115.115 69.3468 115.19 69.3065L115.412 69.4822C115.516 69.4216 115.612 69.3491 115.7 69.2662L115.587 69.007C115.644 68.9443 115.695 68.8768 115.74 68.8054L116.028 68.8486C116.084 68.7438 116.129 68.6339 116.163 68.5203L115.936 68.3504C115.916 68.2957 115.924 68.2525 115.93 68.2121ZM114.424 68.5837C114.31 68.5709 114.202 68.5243 114.115 68.4499C114.027 68.3754 113.964 68.2765 113.933 68.1659C113.902 68.0552 113.905 67.9379 113.941 67.829C113.978 67.72 114.046 67.6244 114.137 67.5544C114.228 67.4845 114.338 67.4433 114.453 67.4363C114.567 67.4293 114.681 67.4567 114.78 67.515C114.879 67.5733 114.959 67.6599 115.008 67.7636C115.057 67.8673 115.075 67.9834 115.057 68.0969C115.035 68.2443 114.957 68.3773 114.839 68.468C114.721 68.5588 114.572 68.6002 114.424 68.5837Z"
        fill="white" />
    <g opacity="0.5">
        <path
            d="M117.111 67.3337C116.946 67.3343 116.786 67.2792 116.656 67.1774C116.526 67.0756 116.434 66.933 116.395 66.7726C116.356 66.6122 116.372 66.4433 116.441 66.2933C116.51 66.1432 116.627 66.0207 116.774 65.9456V66.4092C116.775 66.499 116.811 66.5849 116.875 66.6483C116.938 66.7109 117.022 66.7462 117.111 66.7462C117.2 66.7462 117.286 66.7107 117.349 66.6475C117.413 66.5843 117.448 66.4986 117.448 66.4092V65.9456C117.595 66.0207 117.712 66.1432 117.781 66.2933C117.85 66.4433 117.866 66.6122 117.827 66.7726C117.788 66.933 117.696 67.0756 117.566 67.1774C117.437 67.2792 117.276 67.3343 117.111 67.3337Z"
            fill="white" />
        <path
            d="M116.777 69.1682V67.1292C116.777 67.0851 116.785 67.0413 116.802 67.0005C116.818 66.9596 116.843 66.9224 116.874 66.8911C116.905 66.8598 116.942 66.8349 116.983 66.8179C117.023 66.801 117.067 66.7922 117.111 66.7922C117.155 66.7922 117.199 66.801 117.24 66.8179C117.28 66.8349 117.317 66.8598 117.348 66.8911C117.38 66.9224 117.404 66.9596 117.421 67.0005C117.437 67.0413 117.446 67.0851 117.445 67.1292V69.1682C117.445 69.2121 117.437 69.2556 117.42 69.2961C117.403 69.3366 117.378 69.3734 117.347 69.4045C117.316 69.4355 117.28 69.4601 117.239 69.4769C117.199 69.4937 117.155 69.5023 117.111 69.5023C117.067 69.5023 117.024 69.4937 116.983 69.4769C116.943 69.4601 116.906 69.4355 116.875 69.4045C116.844 69.3734 116.819 69.3366 116.803 69.2961C116.786 69.2556 116.777 69.2121 116.777 69.1682Z"
            fill="white" />
    </g>
    <path
        d="M102.843 96.7299H102.555V93.6397C102.556 92.9677 102.823 92.3235 103.299 91.8484C103.774 91.3733 104.418 91.106 105.09 91.1053H110.775C111.37 91.1045 111.941 90.8676 112.363 90.4465C112.784 90.0253 113.021 89.4544 113.021 88.8589V86.48H113.309V88.8646C113.309 89.5366 113.041 90.1807 112.566 90.6559C112.091 91.131 111.447 91.3983 110.775 91.399H105.09C104.494 91.3998 103.923 91.6367 103.502 92.0578C103.081 92.4789 102.844 93.0499 102.843 93.6454V96.7299Z"
        fill="black" />
    <path
        d="M104.422 96.3671H100.678C100.314 96.3671 99.9655 96.5115 99.7084 96.7686C99.4513 97.0257 99.3069 97.3744 99.3069 97.7379V101.456C99.3069 101.636 99.3424 101.814 99.4113 101.98C99.4802 102.146 99.5812 102.297 99.7086 102.424C99.8359 102.551 99.9871 102.652 100.153 102.721C100.32 102.789 100.498 102.824 100.678 102.824H104.422C104.784 102.823 105.13 102.678 105.385 102.421C105.641 102.165 105.784 101.818 105.784 101.456V97.7379C105.784 97.3759 105.641 97.0285 105.386 96.7716C105.13 96.5148 104.784 96.3693 104.422 96.3671Z"
        fill="#407BFF" />
    <g opacity="0.4">
        <path
            d="M104.422 96.3671H100.678C100.314 96.3671 99.9655 96.5115 99.7084 96.7686C99.4513 97.0257 99.3069 97.3744 99.3069 97.7379V101.456C99.3069 101.636 99.3424 101.814 99.4113 101.98C99.4802 102.146 99.5812 102.297 99.7086 102.424C99.8359 102.551 99.9871 102.652 100.153 102.721C100.32 102.789 100.498 102.824 100.678 102.824H104.422C104.784 102.823 105.13 102.678 105.385 102.421C105.641 102.165 105.784 101.818 105.784 101.456V97.7379C105.784 97.3759 105.641 97.0285 105.386 96.7716C105.13 96.5148 104.784 96.3693 104.422 96.3671Z"
            fill="white" />
    </g>
    <path
        d="M104.877 101.151C104.877 101.233 104.852 101.314 104.806 101.383C104.76 101.451 104.695 101.505 104.619 101.537C104.543 101.568 104.459 101.576 104.378 101.56C104.297 101.544 104.222 101.504 104.164 101.446C104.105 101.388 104.066 101.313 104.05 101.232C104.033 101.151 104.042 101.067 104.073 100.991C104.105 100.915 104.158 100.849 104.227 100.804C104.296 100.758 104.377 100.733 104.459 100.733C104.57 100.733 104.676 100.777 104.754 100.855C104.833 100.934 104.877 101.04 104.877 101.151Z"
        fill="white" />
    <path
        d="M103.028 101.151C103.028 101.233 103.003 101.314 102.957 101.383C102.912 101.451 102.846 101.505 102.77 101.537C102.694 101.568 102.61 101.576 102.529 101.56C102.448 101.544 102.373 101.504 102.315 101.446C102.257 101.388 102.217 101.313 102.201 101.232C102.185 101.151 102.193 101.067 102.224 100.991C102.256 100.915 102.31 100.849 102.378 100.804C102.447 100.758 102.528 100.733 102.61 100.733C102.721 100.733 102.827 100.777 102.906 100.855C102.984 100.934 103.028 101.04 103.028 101.151Z"
        fill="white" />
    <path
        d="M101.176 101.151C101.176 101.234 101.152 101.316 101.106 101.385C101.061 101.455 100.995 101.509 100.918 101.541C100.842 101.573 100.757 101.582 100.675 101.566C100.593 101.55 100.518 101.511 100.459 101.452C100.4 101.393 100.36 101.318 100.343 101.237C100.327 101.155 100.335 101.07 100.367 100.993C100.398 100.916 100.452 100.85 100.522 100.804C100.591 100.758 100.672 100.733 100.755 100.733C100.811 100.733 100.865 100.743 100.916 100.764C100.967 100.785 101.014 100.816 101.053 100.854C101.092 100.893 101.123 100.939 101.144 100.99C101.165 101.041 101.176 101.096 101.176 101.151Z"
        fill="white" />
    <path
        d="M104.554 101.986H100.646C100.431 101.986 100.224 101.9 100.072 101.748C99.9196 101.596 99.834 101.389 99.834 101.174V101.128C99.834 100.912 99.9196 100.706 100.072 100.553C100.224 100.401 100.431 100.316 100.646 100.316H104.554C104.77 100.316 104.976 100.401 105.129 100.553C105.281 100.706 105.366 100.912 105.366 101.128V101.168C105.367 101.275 105.347 101.381 105.306 101.481C105.266 101.58 105.206 101.67 105.131 101.746C105.055 101.822 104.965 101.882 104.866 101.924C104.768 101.965 104.661 101.986 104.554 101.986ZM100.646 100.575C100.499 100.575 100.359 100.633 100.255 100.737C100.151 100.84 100.093 100.981 100.093 101.128V101.168C100.093 101.315 100.151 101.455 100.255 101.559C100.359 101.663 100.499 101.721 100.646 101.721H104.554C104.701 101.721 104.842 101.663 104.945 101.559C105.049 101.455 105.107 101.315 105.107 101.168V101.122C105.107 100.975 105.049 100.835 104.945 100.731C104.842 100.627 104.701 100.569 104.554 100.569L100.646 100.575Z"
        fill="white" />
    <path
        d="M104.517 100.566C104.448 100.566 104.382 100.539 104.334 100.49C104.285 100.441 104.258 100.376 104.258 100.307V99.486L102.616 97.7724L101.674 98.0806C101.61 98.0999 101.54 98.0931 101.48 98.0618C101.42 98.0305 101.375 97.977 101.354 97.9128C101.333 97.8487 101.338 97.7788 101.368 97.7181C101.397 97.6575 101.449 97.6108 101.513 97.5881L102.607 97.2281C102.654 97.2124 102.704 97.2104 102.751 97.2221C102.799 97.2338 102.842 97.2589 102.875 97.2943L104.716 99.2009C104.762 99.249 104.787 99.3129 104.788 99.3794V100.304C104.788 100.339 104.781 100.374 104.768 100.407C104.754 100.439 104.734 100.469 104.709 100.493C104.683 100.518 104.653 100.537 104.62 100.549C104.587 100.562 104.552 100.568 104.517 100.566Z"
        fill="white" />
    <path
        d="M101.51 98.6105C101.476 98.6105 101.443 98.5968 101.418 98.5725C101.394 98.5482 101.38 98.5153 101.38 98.4809V97.8358C101.38 97.8014 101.394 97.7684 101.418 97.7441C101.443 97.7198 101.476 97.7062 101.51 97.7062C101.544 97.7062 101.577 97.7198 101.602 97.7441C101.626 97.7684 101.64 97.8014 101.64 97.8358V98.4809C101.64 98.5153 101.626 98.5482 101.602 98.5725C101.577 98.5968 101.544 98.6105 101.51 98.6105Z"
        fill="white" />
    <path
        d="M101.309 99.0973C101.291 99.0976 101.275 99.0944 101.259 99.088C101.243 99.0816 101.228 99.072 101.216 99.0599C101.14 98.9835 101.096 98.88 101.095 98.7719C101.104 98.6675 101.152 98.5702 101.229 98.4992C101.306 98.4283 101.407 98.3889 101.512 98.3889C101.616 98.3889 101.717 98.4283 101.794 98.4992C101.871 98.5702 101.919 98.6675 101.928 98.7719C101.928 98.8782 101.889 98.9809 101.818 99.0599C101.807 99.0725 101.793 99.0828 101.777 99.0901C101.762 99.0974 101.745 99.1016 101.728 99.1024C101.693 99.104 101.66 99.0918 101.634 99.0685C101.608 99.0452 101.593 99.0127 101.592 98.9781C101.59 98.9436 101.602 98.9098 101.625 98.8842C101.639 98.8702 101.65 98.8536 101.658 98.8353C101.665 98.817 101.669 98.7974 101.669 98.7776C101.668 98.7361 101.651 98.6966 101.621 98.6675C101.592 98.6384 101.552 98.6221 101.51 98.6221C101.469 98.6221 101.429 98.6385 101.4 98.6677C101.371 98.6968 101.355 98.7364 101.355 98.7776C101.355 98.8196 101.372 98.8598 101.401 98.8899C101.424 98.9142 101.438 98.9467 101.438 98.9807C101.438 99.0146 101.424 99.0472 101.401 99.0714C101.375 99.0917 101.342 99.101 101.309 99.0973Z"
        fill="white" />
    <path
        d="M102.774 97.4873C102.775 97.5079 102.769 97.5282 102.758 97.5456C102.747 97.5631 102.731 97.5768 102.712 97.5851C102.694 97.5934 102.673 97.5959 102.652 97.5922C102.632 97.5885 102.613 97.5789 102.599 97.5645C102.584 97.5501 102.574 97.5317 102.569 97.5115C102.565 97.4913 102.567 97.4703 102.575 97.4512C102.583 97.4321 102.596 97.4157 102.613 97.4042C102.63 97.3926 102.65 97.3865 102.671 97.3865C102.698 97.3865 102.724 97.397 102.743 97.4158C102.762 97.4346 102.774 97.4603 102.774 97.4873Z"
        fill="#407BFF" />
    <path
        d="M104.6 99.3938C104.6 99.4143 104.594 99.4344 104.583 99.4514C104.571 99.4685 104.555 99.4818 104.536 99.4896C104.517 99.4975 104.496 99.4995 104.476 99.4955C104.456 99.4915 104.438 99.4817 104.423 99.4672C104.409 99.4527 104.399 99.4342 104.395 99.4141C104.391 99.394 104.393 99.3731 104.401 99.3542C104.409 99.3352 104.422 99.319 104.439 99.3076C104.456 99.2962 104.476 99.2902 104.497 99.2902C104.51 99.2902 104.524 99.2928 104.536 99.2981C104.549 99.3033 104.56 99.3109 104.57 99.3205C104.579 99.3302 104.587 99.3416 104.592 99.3542C104.598 99.3667 104.6 99.3802 104.6 99.3938Z"
        fill="#407BFF" />
    <path opacity="0.4" d="M101.905 99.3853H101.118V100.171H101.905V99.3853Z" fill="white" />
    <path
        d="M105.208 77.575H99.5488C98.8771 77.575 98.2329 77.3084 97.7577 76.8337C97.2825 76.359 97.0152 75.7152 97.0144 75.0435V71.9532H97.3024V75.0435C97.3032 75.6388 97.5402 76.2094 97.9614 76.6301C98.3826 77.0507 98.9535 77.287 99.5488 77.287H105.208V77.575Z"
        fill="black" />
    <path
        d="M99.5632 66.7231H95.8365C95.0793 66.7231 94.4656 67.3369 94.4656 68.094V71.8207C94.4656 72.5779 95.0793 73.1916 95.8365 73.1916H99.5632C100.32 73.1916 100.934 72.5779 100.934 71.8207V68.094C100.934 67.3369 100.32 66.7231 99.5632 66.7231Z"
        fill="#407BFF" />
    <path opacity="0.4"
        d="M99.5632 66.7231H95.8365C95.0793 66.7231 94.4656 67.3369 94.4656 68.094V71.8207C94.4656 72.5779 95.0793 73.1916 95.8365 73.1916H99.5632C100.32 73.1916 100.934 72.5779 100.934 71.8207V68.094C100.934 67.3369 100.32 66.7231 99.5632 66.7231Z"
        fill="white" />
    <path
        d="M97.6999 68.048C98.2759 68.048 98.5639 68.503 98.5639 69.0675C98.5639 69.632 98.2615 70.087 97.6999 70.087C97.1383 70.087 96.8359 69.6291 96.8359 69.0675C96.8359 68.5059 97.1441 68.048 97.6999 68.048Z"
        fill="white" />
    <path
        d="M99.9519 71.8697H95.4476C95.4119 71.869 95.3778 71.8546 95.3525 71.8294L95.6405 71.0403C95.7314 70.7926 95.8962 70.5789 96.1125 70.4279C96.3289 70.277 96.5864 70.1962 96.8501 70.1964H98.5493C98.8132 70.1958 99.0709 70.2764 99.2873 70.4274C99.5037 70.5784 99.6684 70.7924 99.7589 71.0403L100.047 71.8294C100.022 71.8546 99.9876 71.869 99.9519 71.8697Z"
        fill="white" />
    <path
        d="M92.1271 91.952H91.8391V88.8617C91.8399 88.1901 92.1072 87.5462 92.5824 87.0715C93.0576 86.5968 93.7018 86.3302 94.3735 86.3302H107.944V86.6182H94.3735C93.7782 86.6182 93.2073 86.8545 92.7861 87.2751C92.3649 87.6958 92.1279 88.2664 92.1271 88.8617V91.952Z"
        fill="black" />
    <path
        d="M93.9587 89.6681H90.232C89.4748 89.6681 88.8611 90.2819 88.8611 91.039V94.7657C88.8611 95.5228 89.4748 96.1366 90.232 96.1366H93.9587C94.7158 96.1366 95.3296 95.5228 95.3296 94.7657V91.039C95.3296 90.2819 94.7158 89.6681 93.9587 89.6681Z"
        fill="#407BFF" />
    <path opacity="0.4"
        d="M93.9587 89.6681H90.232C89.4748 89.6681 88.8611 90.2819 88.8611 91.039V94.7657C88.8611 95.5228 89.4748 96.1366 90.232 96.1366H93.9587C94.7158 96.1366 95.3296 95.5228 95.3296 94.7657V91.039C95.3296 90.2819 94.7158 89.6681 93.9587 89.6681Z"
        fill="white" />
    <path opacity="0.6" d="M90.7647 93.4928H89.9612V95.0394H90.7647V93.4928Z" fill="white" />
    <path opacity="0.6" d="M93.043 92.9714H92.2395V95.0393H93.043V92.9714Z" fill="white" />
    <path d="M91.8621 92.4502H91.0586V95.0393H91.8621V92.4502Z" fill="white" />
    <path d="M94.1863 91.929H93.3828V95.0394H94.1863V91.929Z" fill="white" />
    <path d="M109.03 81.4227H91.6575V81.7107H109.03V81.4227Z" fill="black" />
    <path
        d="M92.2135 76.4H88.4839C88.1203 76.4 87.7717 76.5445 87.5146 76.8015C87.2575 77.0586 87.113 77.4073 87.113 77.7709V81.5005C87.113 81.8641 87.2575 82.2128 87.5146 82.4699C87.7717 82.727 88.1203 82.8714 88.4839 82.8714H92.2135C92.3934 82.8714 92.5715 82.8359 92.7377 82.767C92.9039 82.698 93.0548 82.597 93.1819 82.4697C93.3089 82.3424 93.4096 82.1912 93.4782 82.0249C93.5468 81.8586 93.5819 81.6804 93.5815 81.5005V77.7795C93.583 77.5989 93.5488 77.4198 93.4807 77.2525C93.4126 77.0852 93.3121 76.933 93.1849 76.8048C93.0578 76.6765 92.9064 76.5747 92.7397 76.5052C92.573 76.4358 92.3941 76.4 92.2135 76.4Z"
        fill="#407BFF" />
    <g opacity="0.4">
        <path
            d="M92.2135 76.4H88.4839C88.1203 76.4 87.7717 76.5445 87.5146 76.8015C87.2575 77.0586 87.113 77.4073 87.113 77.7709V81.5005C87.113 81.8641 87.2575 82.2128 87.5146 82.4699C87.7717 82.727 88.1203 82.8714 88.4839 82.8714H92.2135C92.3934 82.8714 92.5715 82.8359 92.7377 82.767C92.9039 82.698 93.0548 82.597 93.1819 82.4697C93.3089 82.3424 93.4096 82.1912 93.4782 82.0249C93.5468 81.8586 93.5819 81.6804 93.5815 81.5005V77.7795C93.583 77.5989 93.5488 77.4198 93.4807 77.2525C93.4126 77.0852 93.3121 76.933 93.1849 76.8048C93.0578 76.6765 92.9064 76.5747 92.7397 76.5052C92.573 76.4358 92.3941 76.4 92.2135 76.4Z"
            fill="white" />
    </g>
    <path
        d="M90.4912 77.264V77.8631C90.8657 77.8937 91.2212 78.0407 91.5079 78.2836L91.9312 77.8602C91.5315 77.5058 91.0244 77.2959 90.4912 77.264Z"
        fill="#407BFF" />
    <path opacity="0.6"
        d="M90.4912 77.264V77.8631C90.8657 77.8937 91.2212 78.0407 91.5079 78.2836L91.9312 77.8602C91.5315 77.5058 91.0244 77.2959 90.4912 77.264Z"
        fill="white" />
    <path
        d="M90.2004 81.4314C89.7762 81.3978 89.3779 81.214 89.077 80.9132C88.7761 80.6123 88.5924 80.214 88.5588 79.7898H87.9597C87.9952 80.3724 88.2427 80.922 88.6554 81.3347C89.0682 81.7475 89.6177 81.9949 90.2004 82.0304V81.4314Z"
        fill="#407BFF" />
    <path opacity="0.8"
        d="M90.2004 81.4314C89.7762 81.3978 89.3779 81.214 89.077 80.9132C88.7761 80.6123 88.5924 80.214 88.5588 79.7898H87.9597C87.9952 80.3724 88.2427 80.922 88.6554 81.3347C89.0682 81.7475 89.6177 81.9949 90.2004 82.0304V81.4314Z"
        fill="white" />
    <path
        d="M88.5588 79.4989C88.5929 79.0749 88.7769 78.677 89.0776 78.3762C89.3784 78.0754 89.7764 77.8915 90.2004 77.8573V77.264C89.6177 77.2995 89.0682 77.547 88.6554 77.9597C88.2427 78.3725 87.9952 78.922 87.9597 79.5047L88.5588 79.4989Z"
        fill="#407BFF" />
    <path opacity="0.7"
        d="M88.5588 79.4989C88.5929 79.0749 88.7769 78.677 89.0776 78.3762C89.3784 78.0754 89.7764 77.8915 90.2004 77.8573V77.264C89.6177 77.2995 89.0682 77.547 88.6554 77.9597C88.2427 78.3725 87.9952 78.922 87.9597 79.5047L88.5588 79.4989Z"
        fill="white" />
    <path
        d="M92.1357 78.059L91.7123 78.4823C91.9258 78.7339 92.0657 79.0394 92.1168 79.3653C92.168 79.6912 92.1282 80.0248 92.002 80.3296C91.8758 80.6344 91.668 80.8985 91.4015 81.0929C91.135 81.2873 90.82 81.4044 90.4912 81.4314V82.0305C90.9386 82.0034 91.3694 81.8511 91.7344 81.5909C92.0994 81.3307 92.3838 80.9731 92.5553 80.5589C92.7268 80.1448 92.7784 79.6908 92.7042 79.2487C92.63 78.8067 92.433 78.3944 92.1357 78.059Z"
        fill="white" />
    <path
        d="M105.631 76.1494L106.441 76.1149L107.578 88.6745H106.714C106.285 88.6342 106.184 88.1504 106.066 87.2345L105.271 78.4649C105.087 76.4 105.441 76.1494 105.631 76.1494Z"
        fill="#407BFF" />
    <path opacity="0.3"
        d="M105.631 76.1494L106.441 76.1149L107.578 88.6745H106.714C106.285 88.6342 106.184 88.1504 106.066 87.2345L105.271 78.4649C105.087 76.4 105.441 76.1494 105.631 76.1494Z"
        fill="black" />
    <path
        d="M106.936 88.6745H123.96C124.007 88.6713 124.052 88.6582 124.094 88.636C124.135 88.6137 124.172 88.5829 124.2 88.5456C124.229 88.5083 124.249 88.4653 124.26 88.4195C124.27 88.3737 124.271 88.3261 124.262 88.28L123.199 76.5065C123.194 76.4068 123.153 76.3122 123.084 76.2402C123.015 76.1683 122.922 76.1238 122.822 76.1149H105.784C105.737 76.1177 105.692 76.1305 105.65 76.1524C105.608 76.1743 105.572 76.2048 105.543 76.2418C105.514 76.2789 105.494 76.3216 105.482 76.3673C105.471 76.4129 105.47 76.4604 105.479 76.5065L106.544 88.28C106.549 88.3828 106.591 88.4803 106.664 88.5533C106.736 88.6264 106.833 88.6696 106.936 88.6745Z"
        fill="#407BFF" />
    <path d="M107.575 87.1856H123.035L122.177 77.385H106.717L107.575 87.1856Z" fill="#407BFF" />
    <path
        d="M107.8 87.9546H123.032C123.133 87.9564 123.232 87.9368 123.324 87.8972C123.416 87.8575 123.499 87.7986 123.567 87.7245C123.634 87.6504 123.685 87.5627 123.716 87.4672C123.747 87.3718 123.758 87.2709 123.747 87.1712L122.897 77.431C122.876 77.2167 122.776 77.0178 122.616 76.8734C122.456 76.729 122.248 76.6496 122.033 76.6506H106.801C106.7 76.6483 106.601 76.6675 106.509 76.7068C106.417 76.7462 106.334 76.8048 106.266 76.8787C106.199 76.9526 106.148 77.0401 106.117 77.1354C106.086 77.2307 106.075 77.3315 106.086 77.431L106.936 87.1712C106.956 87.3861 107.056 87.5857 107.216 87.7307C107.376 87.8756 107.584 87.9555 107.8 87.9546Z"
        fill="#263238" />
    <path d="M107.575 87.1856H123.035L122.177 77.385H106.717L107.575 87.1856Z" fill="#407BFF" />
    <path opacity="0.4" d="M107.575 87.1856H123.035L122.177 77.385H106.717L107.575 87.1856Z"
        fill="white" />
    <path
        d="M108.837 81.895L108.946 81.6531C109.08 81.7467 109.239 81.797 109.401 81.7971C109.591 81.7971 109.669 81.7337 109.669 81.6502C109.669 81.391 108.866 81.5695 108.866 81.0569C108.866 80.8207 109.053 80.6249 109.442 80.6249C109.609 80.6219 109.775 80.6647 109.92 80.7487L109.822 80.9907C109.705 80.923 109.574 80.8863 109.439 80.8841C109.249 80.8841 109.177 80.9532 109.177 81.0396C109.177 81.2959 109.98 81.1203 109.98 81.6156C109.98 81.846 109.787 82.0419 109.404 82.0419C109.205 82.0518 109.007 82.0005 108.837 81.895Z"
        fill="white" />
    <path
        d="M110.118 81.3392C110.11 81.1877 110.147 81.0372 110.225 80.907C110.303 80.7768 110.418 80.673 110.555 80.6091C110.693 80.5452 110.847 80.524 110.996 80.5484C111.146 80.5728 111.285 80.6416 111.395 80.7459C111.506 80.8502 111.582 80.9852 111.614 81.1334C111.647 81.2816 111.634 81.4361 111.578 81.577C111.522 81.7179 111.424 81.8386 111.299 81.9236C111.173 82.0085 111.025 82.0538 110.873 82.0535C110.776 82.0589 110.679 82.0445 110.587 82.0111C110.496 81.9777 110.412 81.9259 110.342 81.8591C110.271 81.7922 110.215 81.7116 110.176 81.6222C110.138 81.5328 110.118 81.4365 110.118 81.3392ZM111.308 81.3392C111.306 81.2536 111.279 81.1704 111.23 81.1C111.182 81.0296 111.113 80.9752 111.034 80.9436C110.954 80.9121 110.867 80.9047 110.783 80.9224C110.699 80.9402 110.623 80.9822 110.563 81.0434C110.503 81.1045 110.462 81.182 110.446 81.2661C110.43 81.3503 110.439 81.4372 110.472 81.5162C110.505 81.5952 110.561 81.6626 110.632 81.71C110.704 81.7574 110.787 81.7827 110.873 81.7827C110.931 81.7844 110.989 81.774 111.043 81.7522C111.097 81.7303 111.146 81.6976 111.187 81.6559C111.228 81.6143 111.26 81.5647 111.281 81.5102C111.301 81.4557 111.311 81.3975 111.308 81.3392Z"
        fill="white" />
    <path
        d="M112.192 80.9072V81.2701H112.831V81.5293H112.192V82.0304H111.872V80.6509H112.915V80.9072H112.192Z"
        fill="white" />
    <path
        d="M113.431 80.9101H112.984V80.6509H114.188V80.9101H113.747V82.0304H113.428L113.431 80.9101Z"
        fill="white" />
    <path
        d="M116.44 80.6509L115.988 82.0304H115.645L115.34 81.0973L115.029 82.0304H114.686L114.231 80.6509H114.565L114.876 81.6214L115.202 80.6509H115.49L115.803 81.6301L116.126 80.6509H116.44Z"
        fill="white" />
    <path
        d="M117.468 81.7337H116.829L116.705 82.0217H116.379L116.993 80.6422H117.304L117.92 82.0217H117.592L117.468 81.7337ZM117.367 81.4918L117.148 80.9648L116.929 81.4918H117.367Z"
        fill="white" />
    <path
        d="M118.951 82.0304L118.686 81.6474H118.398V82.0304H118.079V80.6509H118.675C119.046 80.6509 119.277 80.841 119.277 81.152C119.28 81.2454 119.254 81.3376 119.202 81.4155C119.151 81.4935 119.076 81.5534 118.989 81.5869L119.3 82.0304H118.951ZM118.663 80.9101H118.404V81.391H118.663C118.859 81.391 118.951 81.3018 118.951 81.152C118.951 81.0022 118.848 80.9101 118.652 80.9101H118.663Z"
        fill="white" />
    <path
        d="M120.593 81.7741V82.0304H119.524V80.6509H120.567V80.9072H119.841V81.1952H120.472V81.4429H119.83V81.7626L120.593 81.7741Z"
        fill="white" />
    <path d="M108.01 83.024H108.33V84.4064H108.01V83.024Z" fill="white" />
    <path
        d="M109.926 83.024V84.4064H109.663L108.975 83.5684V84.4064H108.664V83.024H108.929L109.614 83.865V83.024H109.926Z"
        fill="white" />
    <path
        d="M110.539 83.2804H110.104V83.024H111.308V83.2861H110.864V84.4064H110.545L110.539 83.2804Z"
        fill="white" />
    <path
        d="M112.543 84.1444V84.4007H111.475V83.024H112.517V83.2832H111.792V83.5712H112.434V83.8189H111.792V84.1386L112.543 84.1444Z"
        fill="white" />
    <path
        d="M113.727 83.6892H114.015V84.2479C113.852 84.3637 113.656 84.4251 113.456 84.4236C113.265 84.4236 113.082 84.3478 112.947 84.2127C112.812 84.0777 112.736 83.8946 112.736 83.7036C112.736 83.5127 112.812 83.3295 112.947 83.1945C113.082 83.0595 113.265 82.9836 113.456 82.9836C113.564 82.9793 113.671 82.9985 113.771 83.0398C113.87 83.0811 113.959 83.1435 114.032 83.2227L113.825 83.4127C113.781 83.3627 113.726 83.3229 113.665 83.296C113.604 83.2691 113.538 83.2559 113.471 83.2572C113.41 83.2523 113.348 83.2601 113.29 83.28C113.232 83.3 113.179 83.3318 113.134 83.3733C113.089 83.4148 113.053 83.4652 113.029 83.5213C113.004 83.5775 112.991 83.638 112.991 83.6993C112.991 83.7606 113.004 83.8211 113.029 83.8772C113.053 83.9334 113.089 83.9838 113.134 84.0253C113.179 84.0668 113.232 84.0986 113.29 84.1186C113.348 84.1385 113.41 84.1463 113.471 84.1414C113.557 84.1427 113.642 84.1218 113.718 84.0809L113.727 83.6892Z"
        fill="white" />
    <path
        d="M115.199 84.4007L114.931 84.0148H114.643V84.4007H114.323V83.024H114.922C115.291 83.024 115.521 83.217 115.521 83.5252C115.525 83.6191 115.499 83.7119 115.448 83.7904C115.396 83.8689 115.321 83.9293 115.233 83.9629L115.544 84.4064L115.199 84.4007ZM114.896 83.2804H114.637V83.7613H114.896C115.092 83.7613 115.184 83.672 115.184 83.5194C115.184 83.3668 115.092 83.2804 114.896 83.2804Z"
        fill="white" />
    <path
        d="M116.679 84.104H116.037L115.916 84.392H115.576L116.192 83.0096H116.506L117.126 84.392H116.789L116.679 84.104ZM116.578 83.8621L116.36 83.3322L116.141 83.8621H116.578Z"
        fill="white" />
    <path d="M117.5 83.2804H117.056V83.024H118.26V83.2861H117.817V84.4064H117.5V83.2804Z"
        fill="white" />
    <path d="M118.433 83.024H118.744V84.4064H118.424L118.433 83.024Z" fill="white" />
    <path
        d="M118.995 83.7094C118.987 83.5587 119.024 83.4091 119.102 83.2798C119.18 83.1505 119.295 83.0476 119.432 82.9842C119.568 82.9209 119.721 82.9001 119.87 82.9245C120.019 82.9489 120.157 83.0174 120.267 83.1211C120.377 83.2249 120.452 83.3591 120.485 83.5064C120.518 83.6538 120.505 83.8075 120.449 83.9478C120.394 84.088 120.297 84.2083 120.172 84.2932C120.048 84.378 119.9 84.4235 119.749 84.4237C119.652 84.4292 119.555 84.4148 119.464 84.3813C119.372 84.3479 119.289 84.2962 119.218 84.2293C119.147 84.1624 119.091 84.0818 119.053 83.9924C119.014 83.903 118.995 83.8067 118.995 83.7094ZM120.181 83.7094C120.179 83.6245 120.152 83.5422 120.103 83.4726C120.054 83.4031 119.986 83.3496 119.907 83.3186C119.828 83.2877 119.741 83.2808 119.658 83.2987C119.575 83.3166 119.499 83.3587 119.44 83.4195C119.381 83.4804 119.341 83.5573 119.325 83.6408C119.309 83.7243 119.318 83.8106 119.351 83.8888C119.384 83.9671 119.44 84.0339 119.511 84.0809C119.581 84.1278 119.664 84.1529 119.749 84.1529C119.808 84.155 119.866 84.1449 119.92 84.1233C119.974 84.1016 120.024 84.0689 120.065 84.0271C120.105 83.9854 120.137 83.9356 120.158 83.8809C120.178 83.8262 120.187 83.7678 120.184 83.7094H120.181Z"
        fill="white" />
    <path
        d="M122.013 83.024V84.4064H121.751L121.062 83.5684V84.4064H120.76V83.024H121.025L121.713 83.865V83.024H122.013Z"
        fill="white" />
    <path opacity="0.1" d="M112.022 76.6534L109.004 87.9488H110.021L113.007 76.6534H112.022Z"
        fill="white" />
    <path opacity="0.1" d="M113.592 76.6534L110.571 87.9488H112.587L115.573 76.6534H113.592Z"
        fill="white" />
    <path d="M106.717 77.385L106.795 78.2634H122.255L122.177 77.385H106.717Z" fill="#407BFF" />
    <path
        d="M107.428 77.7766C107.431 77.799 107.429 77.8218 107.421 77.8432C107.414 77.8647 107.403 77.8844 107.388 77.901C107.372 77.9177 107.354 77.9308 107.333 77.9397C107.312 77.9485 107.29 77.9528 107.267 77.9523C107.219 77.9518 107.173 77.9337 107.137 77.9012C107.102 77.8688 107.079 77.8245 107.074 77.7766C107.072 77.754 107.074 77.7312 107.081 77.7095C107.088 77.6879 107.1 77.6681 107.115 77.6512C107.13 77.6343 107.149 77.6209 107.169 77.6117C107.19 77.6026 107.213 77.5979 107.235 77.598C107.284 77.5992 107.33 77.618 107.366 77.6508C107.401 77.6837 107.424 77.7284 107.428 77.7766Z"
        fill="white" />
    <path
        d="M107.895 77.7766C107.897 77.799 107.895 77.8218 107.888 77.8432C107.881 77.8647 107.869 77.8844 107.854 77.901C107.839 77.9177 107.82 77.9308 107.799 77.9397C107.779 77.9485 107.756 77.9528 107.734 77.9523C107.686 77.9518 107.639 77.9337 107.604 77.9012C107.568 77.8688 107.546 77.8245 107.541 77.7766C107.538 77.754 107.541 77.7312 107.548 77.7095C107.555 77.6879 107.566 77.6681 107.581 77.6512C107.597 77.6343 107.615 77.6209 107.636 77.6117C107.657 77.6026 107.679 77.5979 107.702 77.598C107.75 77.5992 107.797 77.618 107.832 77.6508C107.868 77.6837 107.89 77.7284 107.895 77.7766Z"
        fill="white" />
    <path
        d="M108.376 77.7766C108.378 77.799 108.376 77.8218 108.369 77.8432C108.362 77.8647 108.35 77.8844 108.335 77.901C108.32 77.9177 108.301 77.9308 108.28 77.9397C108.26 77.9485 108.237 77.9528 108.215 77.9523C108.167 77.9518 108.12 77.9337 108.085 77.9012C108.049 77.8688 108.027 77.8245 108.022 77.7766C108.019 77.754 108.022 77.7312 108.029 77.7095C108.036 77.6879 108.047 77.6681 108.062 77.6512C108.078 77.6343 108.096 77.6209 108.117 77.6117C108.138 77.6026 108.16 77.5979 108.183 77.598C108.231 77.5992 108.278 77.618 108.313 77.6508C108.349 77.6837 108.371 77.7284 108.376 77.7766Z"
        fill="white" />
    <path
        d="M124.481 88.7091H107.129C106.925 88.7091 106.76 88.8742 106.76 89.0777V89.2995C106.76 89.5031 106.925 89.6681 107.129 89.6681H124.481C124.684 89.6681 124.85 89.5031 124.85 89.2995V89.0777C124.85 88.8742 124.684 88.7091 124.481 88.7091Z"
        fill="#407BFF" />
    <path
        d="M113.644 88.7091H131.583V88.928C131.583 89.1243 131.505 89.3125 131.366 89.4514C131.227 89.5902 131.039 89.6681 130.843 89.6681H114.384C114.187 89.6681 113.999 89.5902 113.86 89.4514C113.722 89.3125 113.644 89.1243 113.644 88.928V88.7091Z"
        fill="#407BFF" />
    <path opacity="0.3"
        d="M113.644 88.7091H131.583V88.928C131.583 89.1243 131.505 89.3125 131.366 89.4514C131.227 89.5902 131.039 89.6681 130.843 89.6681H114.384C114.187 89.6681 113.999 89.5902 113.86 89.4514C113.722 89.3125 113.644 89.1243 113.644 88.928V88.7091Z"
        fill="white" />
    <path opacity="0.3"
        d="M121.152 88.735C121.152 88.862 121.203 88.9836 121.294 89.0732C121.384 89.1628 121.506 89.2131 121.633 89.2131H123.827C123.954 89.2131 124.076 89.1627 124.165 89.073C124.255 88.9834 124.305 88.8618 124.305 88.735H121.152Z"
        fill="black" />
    <path
        d="M98.6647 108.201L96.81 107.662C96.6299 107.602 96.4434 107.562 96.2542 107.544L95.01 107.493L93.9934 107.066C93.9381 107.034 93.8758 107.017 93.812 107.015C93.7482 107.013 93.685 107.027 93.6279 107.055C93.5708 107.084 93.5217 107.126 93.485 107.178C93.4482 107.23 93.425 107.291 93.4174 107.354L93.3511 108.04C93.3451 108.108 93.3571 108.177 93.3859 108.239C93.4147 108.301 93.4593 108.354 93.5153 108.394L95.0129 109.442L97.1066 109.091L98.9844 109.998L99.2062 108.368L98.6647 108.201Z"
        fill="#B55B52" />
    <path
        d="M131.335 108.708L133.213 108.25C133.395 108.198 133.583 108.166 133.772 108.155H135.016L136.05 107.775C136.107 107.741 136.171 107.723 136.237 107.722C136.303 107.721 136.369 107.738 136.427 107.769C136.484 107.801 136.533 107.847 136.568 107.903C136.603 107.959 136.623 108.023 136.626 108.089L136.663 108.777C136.667 108.845 136.653 108.913 136.622 108.973C136.591 109.034 136.545 109.086 136.488 109.123L134.944 110.108L132.856 109.667L130.941 110.494L130.791 108.858L131.335 108.708Z"
        fill="#B55B52" />
    <path d="M110.346 160.911L109.902 164.986L107.676 164.75L107.904 160.306L110.346 160.911Z"
        fill="#B55B52" />
    <path
        d="M106.628 164.79C106.391 164.8 106.158 164.721 105.977 164.568C105.956 164.533 105.946 164.491 105.95 164.45C105.954 164.409 105.97 164.369 105.997 164.338C106.018 164.308 106.044 164.283 106.075 164.264C106.106 164.244 106.14 164.231 106.176 164.226C106.559 164.151 107.313 164.658 107.345 164.681C107.354 164.687 107.362 164.695 107.366 164.706C107.37 164.716 107.371 164.728 107.368 164.738C107.365 164.749 107.359 164.758 107.351 164.766C107.343 164.773 107.333 164.777 107.322 164.779C107.091 164.804 106.859 164.808 106.628 164.79ZM106.299 164.326C106.266 164.321 106.232 164.321 106.199 164.326C106.176 164.328 106.154 164.335 106.135 164.347C106.115 164.358 106.099 164.374 106.086 164.393C106.043 164.456 106.055 164.488 106.069 164.508C106.161 164.663 106.729 164.71 107.155 164.689C106.895 164.515 106.605 164.392 106.299 164.326Z"
        fill="#407BFF" />
    <path
        d="M107.313 164.779C107.306 164.781 107.298 164.781 107.29 164.779C107.031 164.64 106.524 164.11 106.593 163.86C106.593 163.799 106.654 163.727 106.801 163.725C106.854 163.723 106.907 163.733 106.957 163.752C107.006 163.772 107.051 163.802 107.089 163.84C107.359 164.096 107.377 164.704 107.377 164.738C107.377 164.748 107.375 164.757 107.37 164.765C107.365 164.773 107.359 164.78 107.351 164.784L107.313 164.779ZM106.829 163.822H106.801C106.703 163.822 106.694 163.863 106.688 163.877C106.662 164.027 106.991 164.436 107.264 164.623C107.258 164.366 107.173 164.116 107.02 163.909C106.971 163.861 106.906 163.833 106.838 163.828L106.829 163.822Z"
        fill="#407BFF" />
    <path
        d="M107.575 164.479L110.035 164.666C110.08 164.668 110.123 164.686 110.157 164.717C110.191 164.747 110.213 164.788 110.219 164.833L110.507 166.869C110.513 166.913 110.511 166.958 110.499 167C110.488 167.043 110.469 167.083 110.442 167.118C110.415 167.153 110.382 167.183 110.343 167.205C110.305 167.227 110.263 167.241 110.219 167.247H110.147C109.263 167.163 108.477 167.057 107.374 166.976C106.069 166.878 106.389 167.06 104.854 166.976C103.929 166.921 103.84 165.859 104.235 165.824C106.043 165.732 106.271 165.205 107.011 164.617C107.175 164.502 107.377 164.453 107.575 164.479Z"
        fill="#263238" />
    <path opacity="0.2"
        d="M107.777 162.771L109.439 162.711L110.118 162.993L110.026 163.854L107.725 163.719L107.777 162.771Z"
        fill="black" />
    <path
        d="M115.991 119.856L111.72 145.399L110.68 163.31L107.336 163.252C106.635 156.84 106.455 150.381 106.798 143.939C107.319 134.455 109.525 123.364 109.77 120.202L111.005 118.019L113.465 118.327L115.991 119.856Z"
        fill="#407BFF" />
    <path
        d="M122.433 165.455L124.334 165.239C124.334 165.239 124.279 164.456 124.184 163.192C124.164 162.904 124.141 162.616 124.118 162.279L121.935 162.668H121.912C121.912 162.717 121.932 162.766 121.941 162.812C121.987 163.068 122.036 163.304 122.076 163.532C122.292 164.721 122.433 165.455 122.433 165.455Z"
        fill="#B55B52" />
    <path
        d="M124.694 164.563C124.683 164.562 124.672 164.558 124.663 164.551C124.654 164.545 124.646 164.536 124.642 164.525C124.639 164.515 124.639 164.504 124.642 164.494C124.645 164.484 124.651 164.474 124.659 164.468C124.691 164.442 125.397 163.866 125.788 163.909C125.861 163.916 125.927 163.95 125.976 164.004C126.005 164.033 126.025 164.071 126.033 164.113C126.04 164.154 126.034 164.196 126.016 164.234C125.944 164.37 125.665 164.468 125.388 164.522C125.158 164.554 124.926 164.568 124.694 164.563ZM124.852 164.462C125.279 164.444 125.84 164.349 125.921 164.174C125.921 164.154 125.941 164.119 125.892 164.061C125.878 164.043 125.86 164.029 125.84 164.019C125.819 164.009 125.797 164.004 125.774 164.004C125.74 164 125.705 164 125.67 164.004C125.372 164.104 125.094 164.26 124.852 164.462Z"
        fill="#407BFF" />
    <path
        d="M124.665 164.563C124.656 164.56 124.648 164.554 124.643 164.546C124.637 164.538 124.634 164.529 124.634 164.519C124.634 164.491 124.591 163.877 124.838 163.598C124.874 163.556 124.918 163.521 124.967 163.498C125.017 163.474 125.071 163.461 125.126 163.46C125.276 163.46 125.334 163.514 125.348 163.575C125.437 163.82 124.979 164.393 124.732 164.554C124.725 164.556 124.718 164.556 124.712 164.554C124.705 164.56 124.698 164.564 124.69 164.565C124.682 164.567 124.673 164.566 124.665 164.563ZM125.097 163.563C125.031 163.575 124.971 163.61 124.928 163.661C124.793 163.881 124.728 164.138 124.743 164.396C124.994 164.185 125.282 163.748 125.244 163.601C125.244 163.601 125.224 163.549 125.129 163.558H125.097V163.563Z"
        fill="#407BFF" />
    <path
        d="M124.271 164.335L122.33 164.623C122.285 164.631 122.244 164.654 122.213 164.688C122.183 164.722 122.165 164.765 122.162 164.81L122.05 166.867C122.047 166.91 122.053 166.954 122.066 166.995C122.08 167.036 122.102 167.074 122.131 167.107C122.159 167.139 122.194 167.166 122.233 167.185C122.272 167.204 122.315 167.215 122.358 167.218C122.382 167.221 122.406 167.221 122.43 167.218C123.294 167.057 123.582 166.982 124.677 166.803C125.97 166.59 125.667 166.803 127.191 166.57C128.107 166.429 128.104 165.363 127.706 165.375C125.895 165.453 124.461 164.295 124.271 164.335Z"
        fill="#263238" />
    <path opacity="0.2"
        d="M122.068 163.534L124.184 163.192C124.164 162.904 124.141 162.616 124.118 162.279L121.935 162.668V162.814C121.978 163.071 122.027 163.307 122.068 163.534Z"
        fill="black" />
    <path opacity="0.2"
        d="M114.968 125.789L113.816 132.618C113.474 127.722 113.931 121.895 113.931 121.895L114.968 125.789Z"
        fill="black" />
    <path
        d="M119.654 119.22C119.654 119.22 122.367 138.931 123.378 144.002C124.277 148.507 124.441 162.754 124.441 162.754L121.466 163.088C121.466 163.088 119.766 155.249 119.205 149.736C119.009 147.812 119.064 146.2 118.888 145.209C118.655 143.901 111.069 122.791 112.48 119.459L119.654 119.22Z"
        fill="#407BFF" />
    <path
        d="M109.655 116.576C109.754 115.723 109.778 114.864 109.727 114.007C109.044 105.857 108.799 105.367 108.863 103.927C108.867 103.799 108.909 103.676 108.985 103.573C109.06 103.47 109.165 103.393 109.286 103.351C114.925 101.433 119.311 102.343 120.584 103.063C122.281 104.019 121.604 105.042 121.584 105.333C121.419 107.749 120.089 112.227 120.06 116.147C120.06 116.723 120.118 118.105 120.155 118.871C120.162 119.022 120.115 119.17 120.023 119.289C119.931 119.407 119.799 119.489 119.651 119.519C118.387 119.781 112.84 119.851 111.8 119.807C110.807 119.773 110.153 119.712 109.735 119.658C109.649 119.646 109.566 119.616 109.492 119.571C109.418 119.525 109.354 119.465 109.305 119.393C109.255 119.322 109.221 119.241 109.204 119.155C109.188 119.07 109.189 118.982 109.208 118.897C109.37 118.209 109.606 117.086 109.655 116.576Z"
        fill="#263238" />
    <path
        d="M116.44 98.4004C116.227 99.6618 116.313 101.514 117.215 102.334C117.215 102.334 117.197 103.619 113.672 105.094C112.342 103.285 113.286 102.43 113.286 102.43C114.689 102.061 114.349 101.488 114.081 100.514L116.44 98.4004Z"
        fill="#B55B52" />
    <path opacity="0.2"
        d="M115.481 99.25L114.093 100.514C114.159 100.739 114.205 100.97 114.231 101.203C114.77 101.113 115.602 100.627 115.703 100.051C115.696 99.7695 115.62 99.4944 115.481 99.25Z"
        fill="black" />
    <path
        d="M118.03 96.2C117.517 98.2765 117.341 99.1635 116.083 100.045C114.188 101.375 111.763 100.287 111.633 98.0979C111.53 96.128 112.394 93.0522 114.603 92.6058C115.089 92.5034 115.594 92.527 116.069 92.6744C116.544 92.8219 116.974 93.0882 117.317 93.4482C117.661 93.8083 117.906 94.25 118.031 94.7316C118.156 95.2132 118.155 95.7186 118.03 96.2Z"
        fill="#B55B52" />
    <path
        d="M114.424 95.9322C114.389 96.1021 114.274 96.2202 114.165 96.2202C114.055 96.2202 113.986 96.0416 114.018 95.8717C114.05 95.7018 114.168 95.5837 114.277 95.5981C114.387 95.6125 114.45 95.768 114.424 95.9322Z"
        fill="#263238" />
    <path
        d="M112.512 95.5981C112.48 95.7709 112.362 95.8861 112.253 95.8861C112.143 95.8861 112.074 95.7076 112.106 95.5377C112.137 95.3677 112.255 95.2497 112.365 95.2669C112.474 95.2842 112.543 95.4253 112.512 95.5981Z"
        fill="#263238" />
    <path
        d="M113.189 96.2001C112.964 96.5621 112.691 96.8916 112.376 97.1793C112.452 97.2578 112.545 97.3189 112.647 97.3582C112.749 97.3975 112.858 97.4141 112.967 97.4068L113.189 96.2001Z"
        fill="#A02724" />
    <path
        d="M113.773 98.2477C113.687 98.2452 113.601 98.2356 113.517 98.2189C113.51 98.2179 113.504 98.2155 113.499 98.2121C113.493 98.2086 113.488 98.204 113.484 98.1986C113.481 98.1933 113.478 98.1872 113.477 98.1808C113.475 98.1744 113.475 98.1678 113.476 98.1613C113.477 98.1545 113.48 98.148 113.484 98.1423C113.487 98.1365 113.492 98.1315 113.498 98.1277C113.503 98.1239 113.51 98.1214 113.517 98.1202C113.523 98.119 113.53 98.1193 113.537 98.121C113.749 98.1638 113.968 98.1564 114.176 98.0994C114.385 98.0423 114.577 97.9373 114.738 97.7927C114.747 97.7827 114.761 97.777 114.774 97.7767C114.788 97.7765 114.801 97.7817 114.811 97.7912C114.821 97.8008 114.827 97.8139 114.827 97.8277C114.828 97.8414 114.822 97.8547 114.813 97.8647C114.673 97.994 114.51 98.0944 114.331 98.1602C114.153 98.2259 113.963 98.2557 113.773 98.2477Z"
        fill="#263238" />
    <path
        d="M115.337 95.6702C115.316 95.6741 115.294 95.6709 115.274 95.661C115.255 95.6511 115.24 95.6351 115.23 95.6154C115.139 95.4759 115.021 95.3568 114.881 95.2656C114.742 95.1744 114.585 95.1131 114.421 95.0855C114.394 95.0813 114.37 95.0664 114.354 95.0443C114.337 95.0222 114.331 94.9945 114.335 94.9674C114.339 94.9411 114.353 94.9175 114.375 94.9019C114.397 94.8862 114.424 94.8798 114.45 94.8839C114.647 94.9152 114.835 94.9887 115.001 95.0996C115.167 95.2105 115.307 95.356 115.412 95.5262C115.423 95.5503 115.424 95.5779 115.416 95.6031C115.407 95.6283 115.389 95.6492 115.366 95.6615C115.357 95.6666 115.347 95.6695 115.337 95.6702Z"
        fill="#263238" />
    <path
        d="M112.175 94.9329C112.157 94.9371 112.138 94.9364 112.12 94.9308C112.102 94.9253 112.086 94.915 112.074 94.9012C112.064 94.8918 112.057 94.8806 112.052 94.8682C112.046 94.8559 112.044 94.8426 112.044 94.8292C112.044 94.8158 112.046 94.8025 112.052 94.7902C112.057 94.7778 112.064 94.7666 112.074 94.7572C112.191 94.6422 112.334 94.5577 112.491 94.511C112.648 94.4643 112.815 94.4569 112.975 94.4894C112.988 94.4917 113 94.4967 113.011 94.5038C113.021 94.511 113.03 94.5202 113.037 94.531C113.044 94.5417 113.049 94.5538 113.051 94.5664C113.054 94.5791 113.053 94.5921 113.05 94.6046C113.044 94.6305 113.028 94.6529 113.005 94.667C112.983 94.681 112.955 94.6855 112.929 94.6794C112.803 94.6577 112.672 94.6664 112.55 94.705C112.427 94.7436 112.315 94.8108 112.224 94.9012C112.211 94.9165 112.194 94.9275 112.175 94.9329Z"
        fill="#263238" />
    <path
        d="M117.592 102.208L117.221 102.144L115.156 103.27L114.516 103.294L113.289 102.251L112.878 102.349C112.495 103.531 112.422 104.791 112.664 106.009L113.359 109.494L114.084 113.31L114.24 112.959L114.816 111.646L115.605 110.148L117.045 106.485L117.454 104.975C117.696 104.074 117.739 103.13 117.578 102.211L117.592 102.208Z"
        fill="#263238" />
    <path opacity="0.2"
        d="M115.366 103.296C113.151 103.317 112.906 102.502 112.906 102.502V102.32C112.906 102.32 112.238 103.579 114.159 103.8C116.08 104.022 117.362 103.112 117.635 102.565C117.422 102.841 116.849 103.285 115.366 103.296Z"
        fill="black" />
    <path
        d="M117.949 93.346C117.878 93.0102 117.718 92.6997 117.485 92.4474C117.365 92.3261 117.202 92.2561 117.032 92.2524C116.861 92.2486 116.695 92.3113 116.57 92.4272C116.382 92.2145 116.147 92.0482 115.884 91.9413C115.622 91.8343 115.338 91.7897 115.055 91.8109C114.786 91.8345 114.527 91.9235 114.301 92.0701C114.074 92.2166 113.887 92.4164 113.756 92.6519C113.5 93.1271 112.69 93.2941 112.155 93.3489C112.506 93.7031 113.376 93.9248 113.811 93.6858C113.704 93.8528 113.217 93.9421 113.019 93.9738C113.339 94.1667 113.694 94.293 114.064 94.3453C114.25 94.3683 114.438 94.335 114.604 94.2497C114.77 94.1645 114.907 94.0312 114.997 93.8672C114.917 94.0021 114.883 94.1593 114.9 94.3151C114.917 94.471 114.985 94.617 115.092 94.7312C115.202 94.8443 115.346 94.9189 115.501 94.9438C115.657 94.9687 115.816 94.9426 115.956 94.8695C115.867 94.8418 115.791 94.7849 115.738 94.708C115.686 94.6311 115.661 94.5388 115.668 94.4461C115.671 94.3467 115.705 94.2507 115.765 94.1713C115.825 94.0919 115.908 94.0329 116.002 94.0026C116.03 94.2692 116.162 94.5142 116.368 94.6852C116.558 94.8321 116.725 94.8925 116.843 95.1028C116.961 95.313 116.82 95.8228 116.443 95.7882C116.613 95.9697 117.307 95.9034 117.385 95.6672C117.324 95.9651 117.199 96.2462 117.019 96.4913C116.839 96.7364 116.608 96.9396 116.342 97.0871C116.48 97.0948 116.616 97.1239 116.745 97.1735C116.821 97.1904 116.892 97.2223 116.955 97.2673C117.018 97.3124 117.071 97.3696 117.111 97.4356C117.148 97.5368 117.165 97.6443 117.161 97.7521C117.156 97.8598 117.13 97.9656 117.085 98.0634C116.912 98.5984 116.704 99.1218 116.463 99.6301C116.807 99.5375 117.126 99.3677 117.395 99.1337C117.664 98.8997 117.876 98.6075 118.015 98.2794C118.344 98.1662 118.627 97.9476 118.819 97.6576C119.011 97.3676 119.102 97.0223 119.078 96.6752C119.419 96.3748 119.65 95.9695 119.735 95.5232C119.763 95.308 119.711 95.0898 119.589 94.9102C119.467 94.7307 119.283 94.6024 119.072 94.5498C119.142 94.379 119.165 94.1925 119.138 94.01C119.11 93.8274 119.034 93.6557 118.917 93.513C118.864 93.4385 118.798 93.375 118.72 93.3263C118.643 93.2775 118.557 93.2445 118.468 93.229C118.378 93.2134 118.286 93.2158 118.197 93.2359C118.108 93.2559 118.024 93.2934 117.949 93.346Z"
        fill="#263238" />
    <path
        d="M117.943 97.7121C117.755 98.0418 117.445 98.284 117.079 98.386C116.593 98.5156 116.354 98.0749 116.503 97.6141C116.633 97.2023 117.042 96.6378 117.531 96.7041C117.615 96.7184 117.696 96.7491 117.768 96.7945C117.84 96.8398 117.903 96.899 117.952 96.9686C118.001 97.0381 118.036 97.1167 118.055 97.1998C118.074 97.2829 118.076 97.3689 118.061 97.4529C118.043 97.5473 118.002 97.636 117.943 97.7121Z"
        fill="#B55B52" />
    <path
        d="M117.016 96.2173L115.599 95.9754C115.481 95.6125 114.968 95.5261 114.752 95.4887C114.536 95.4513 113.986 95.3591 113.767 95.7076L113.275 95.6212C113.183 95.2237 112.641 95.1287 112.411 95.0913C112.18 95.0538 111.446 94.9271 111.342 95.5261C111.328 95.7681 111.403 96.0068 111.554 96.1966C111.705 96.3864 111.92 96.5141 112.159 96.5551C112.398 96.5961 112.643 96.5476 112.849 96.4188C113.054 96.2901 113.205 96.0902 113.272 95.8573C113.275 95.8248 113.275 95.792 113.272 95.7594L113.695 95.8314C113.686 95.8626 113.678 95.8943 113.672 95.9265C113.659 96.1681 113.735 96.4062 113.886 96.5953C114.037 96.7845 114.252 96.9114 114.49 96.952C114.729 96.9926 114.974 96.944 115.179 96.8154C115.384 96.6868 115.535 96.4872 115.602 96.2548C115.606 96.2078 115.606 96.1606 115.602 96.1137L116.973 96.3498C117.16 96.3811 117.33 96.4769 117.454 96.6205L117.554 96.5341C117.416 96.3707 117.226 96.259 117.016 96.2173ZM112.189 96.4247C111.982 96.4014 111.791 96.2981 111.659 96.1367C111.527 95.9753 111.463 95.7686 111.481 95.5607C111.538 95.2324 111.809 95.1345 112.393 95.2324C112.978 95.3303 113.203 95.5204 113.145 95.8458C113.093 96.0492 112.963 96.2238 112.783 96.3321C112.603 96.4404 112.387 96.4736 112.183 96.4247H112.189ZM114.525 96.8221C114.318 96.7989 114.128 96.6954 113.996 96.534C113.864 96.3725 113.8 96.1658 113.819 95.9581C113.874 95.6298 114.147 95.5319 114.732 95.6327C115.317 95.7335 115.538 95.9207 115.484 96.2433C115.431 96.4472 115.301 96.6224 115.12 96.7307C114.94 96.8391 114.724 96.8719 114.519 96.8221H114.525Z"
        fill="#263238" />
    <path
        d="M98.2961 107.924C100.42 108.473 102.627 108.624 104.805 108.368C105.934 106.393 107.465 104.676 109.298 103.328L110.104 106.352C110.104 106.352 107.702 110.168 105.758 111.046C104.217 111.743 99.595 110.502 97.7402 109.955C97.7679 109.244 97.9581 108.55 98.2961 107.924Z"
        fill="#263238" />
    <path
        d="M131.828 108.264C129.695 108.76 127.49 108.858 125.322 108.552C124.237 106.552 122.745 104.802 120.941 103.414L120.077 106.418C120.077 106.418 122.396 110.289 124.323 111.208C125.846 111.936 130.494 110.796 132.361 110.292C132.339 109.584 132.157 108.891 131.828 108.264Z"
        fill="#263238" />
    <path
        d="M112.915 101.684V102.501C112.915 102.501 113.088 103.389 115.302 103.365C117.517 103.342 117.776 102.297 117.776 102.297V101.704C117.778 101.604 117.757 101.505 117.715 101.414C117.673 101.323 117.612 101.242 117.535 101.178C117.459 101.114 117.369 101.067 117.272 101.042C117.175 101.017 117.074 101.014 116.976 101.033C115.882 101.205 114.769 101.205 113.675 101.033C113.582 101.021 113.486 101.028 113.396 101.055C113.306 101.082 113.222 101.128 113.15 101.189C113.079 101.25 113.021 101.326 112.98 101.411C112.939 101.496 112.917 101.589 112.915 101.684Z"
        fill="#263238" />
</svg>
