<svg width="80" height="80" viewBox="0 0 80 80" fill="none" xmlns="http://www.w3.org/2000/svg">
    <path
        d="M67.7584 4.00002C66.5178 4.00002 65.3138 4.16846 64.1455 4.50565C62.9895 4.84284 61.8455 5.35487 60.7133 6.04127V9.43737C61.8816 8.63049 63.0016 8.01612 64.0733 7.59471C65.1572 7.17315 66.1748 6.96268 67.1264 6.96268C68.427 6.96268 69.4686 7.29362 70.2514 7.95596C71.0464 8.61846 71.4436 9.48565 71.4436 10.5575C71.4436 11.1474 71.287 11.7256 70.9739 12.2916C70.673 12.8577 70.1791 13.4597 69.4927 14.0978L67.867 15.706C66.7831 16.7416 66.0725 17.6508 65.7353 18.4336C65.3981 19.2164 65.2297 20.2161 65.2297 21.4324V24.2144H68.6797V21.9925C68.6797 21.366 68.6977 20.8722 68.7337 20.5113C68.77 20.1497 68.8244 19.843 68.8963 19.59C68.9928 19.2891 69.1553 18.9822 69.3842 18.6689C69.6248 18.3439 70.0283 17.898 70.5944 17.3319L72.1841 15.7783C73.2677 14.7424 74.0266 13.8155 74.4602 12.9966C74.8938 12.1656 75.1105 11.2922 75.1105 10.3769C75.1105 8.46205 74.4358 6.92065 73.087 5.75268C71.7502 4.58455 69.9739 4.00049 67.758 4.00049L67.7584 4.00002ZM28.1084 4.99455C15.5145 4.9944 5 17.8511 5 34.0803C5 41.5178 7.20969 48.246 10.8145 53.3542C11.5973 52.8985 12.513 52.6511 13.4739 52.7285C14.9108 52.8441 16.3286 53.6447 17.5747 55.046C20.4606 58.2913 23.0906 60.3522 26.8684 62.7205C36.6789 57.1486 41.4189 50.7339 48.6283 44.3822C49.0742 43.9891 49.5345 43.67 49.9997 43.4171C50.7872 40.4942 51.2158 37.3561 51.2158 34.0803C51.2158 17.8513 40.7014 4.99487 28.108 4.99487L28.1084 4.99455ZM15.4703 20.6886C17.8417 20.7027 20.1977 21.9527 22.2839 24.4017L20.1433 26.2258C18.2828 24.0419 16.7292 23.4106 15.1742 23.5094C13.6192 23.6083 11.8269 24.5844 9.90859 26.3488L8.00437 24.2788C10.1716 22.285 12.4648 20.8631 14.9955 20.7022C15.1534 20.6921 15.3117 20.6876 15.47 20.6885L15.4703 20.6886ZM39.2141 20.6886C39.3723 20.6877 39.5305 20.6923 39.6884 20.7024C42.2191 20.8633 44.5125 22.2852 46.6797 24.2789L44.7756 26.3488C42.8572 24.5842 41.065 23.6081 39.51 23.5094C37.9548 23.4106 36.4012 24.0419 34.5409 26.2258L32.4003 24.4017C34.4866 21.9527 36.8425 20.7028 39.2139 20.6888L39.2141 20.6886ZM65.1208 26.8699V31.4583H68.788V26.87L65.1208 26.8699ZM15.8511 28.1002C17.827 28.1002 19.6417 28.6864 21.0256 29.7189C22.4095 30.7517 23.3859 32.308 23.3859 34.0802C23.3859 35.8524 22.4094 37.4086 21.0256 38.4414C19.6419 39.4742 17.8272 40.0602 15.8511 40.0602C13.8752 40.0602 12.0605 39.4742 10.6766 38.4414C9.29281 37.4086 8.31641 35.8524 8.31641 34.0802C8.31641 32.308 9.29297 30.7521 10.6766 29.7192C12.0605 28.6864 13.875 28.1002 15.8511 28.1002ZM40.3652 28.1002C42.3413 28.1002 44.1561 28.6864 45.5398 29.7189C46.9237 30.7517 47.9002 32.308 47.9002 34.0802C47.9002 35.8524 46.9239 37.4086 45.54 38.4414C44.1562 39.4742 42.3416 40.0602 40.3655 40.0602C38.3895 40.0602 36.5748 39.4742 35.1909 38.4414C33.8072 37.4086 32.8308 35.8524 32.8308 34.0802C32.8308 32.308 33.8073 30.7521 35.1911 29.7192C36.575 28.6864 38.3898 28.1002 40.3658 28.1002H40.3652ZM15.3552 30.9314C14.1509 31.02 13.0936 31.4244 12.3588 31.9728C11.5244 32.5956 11.1291 33.3264 11.1291 34.0803C11.1291 34.8341 11.5244 35.5647 12.3588 36.1875C13.1931 36.8102 14.4423 37.2477 15.8509 37.2477C17.2598 37.2477 18.5092 36.8102 19.3436 36.1874C20.1777 35.5647 20.5733 34.8339 20.5733 34.0802C20.5733 34.0661 20.5723 34.0525 20.572 34.0386C20.2859 34.4071 19.9188 34.7056 19.4988 34.911C19.0789 35.1164 18.6172 35.2233 18.1492 35.2236C17.7468 35.2236 17.3484 35.1447 16.9766 34.9915C16.6049 34.8382 16.2671 34.6136 15.9825 34.3305C15.698 34.0473 15.4723 33.7111 15.3183 33.3412C15.1644 32.9712 15.0851 32.5747 15.0852 32.1742C15.0863 31.7457 15.1783 31.3221 15.355 30.9313L15.3552 30.9314ZM39.8377 30.9335C38.6466 31.0266 37.6017 31.4291 36.873 31.9725C36.0386 32.5953 35.6433 33.3261 35.6433 34.08C35.6433 34.8338 36.0386 35.5644 36.873 36.1872C37.7073 36.8099 38.9567 37.2474 40.3655 37.2474C41.7742 37.2474 43.0236 36.8099 43.8577 36.1871C44.692 35.5644 45.0878 34.8336 45.0878 34.0799C45.0878 34.0439 45.0863 34.008 45.0847 33.9724C44.7985 34.3401 44.4316 34.6378 44.012 34.8427C43.5924 35.0476 43.1313 35.1543 42.6639 35.1546C42.2615 35.1546 41.8631 35.0757 41.4913 34.9224C41.1196 34.7692 40.7818 34.5446 40.4973 34.2615C40.2128 33.9783 39.9871 33.6422 39.8331 33.2722C39.6791 32.9023 39.5998 32.5058 39.5998 32.1053C39.6007 31.7029 39.6817 31.3046 39.838 30.9335H39.8377ZM52.8475 45.3611C52.7788 45.3577 52.7099 45.3584 52.6413 45.363C52.0747 45.4005 51.3759 45.7094 50.4878 46.4919C43.9959 52.2116 39.2131 58.446 30.2478 63.9953L24.0119 68.1335L22.4567 65.7902L24.4027 64.4989C20.9495 62.2572 18.2812 60.0716 15.4737 56.9142C14.568 55.8958 13.8053 55.5763 13.2487 55.5314C12.6925 55.4867 12.2234 55.6791 11.76 56.1483C10.8412 57.078 10.2759 59.1572 11.1038 61.1936C13.0509 64.7764 16.7517 68.092 19.5472 72.3192L19.8523 72.7802L19.7614 73.3255C19.6646 73.9005 19.574 74.4766 19.4895 75.0536H52.5289C52.545 74.8635 52.557 74.6699 52.5591 74.4683C52.5419 73.8136 52.0559 72.8953 51.2687 72.1928C50.4772 71.4869 49.4344 71.0796 48.8622 71.0941L46.9191 71.1436L47.4795 69.2827C47.7833 68.2742 47.4803 66.9964 46.7588 66.341C46.0369 65.6855 44.8525 65.295 42.4911 66.4956L40.8125 64.2969C45.2009 59.4588 51.0259 53.6219 54.5083 48.2666C54.9833 47.536 54.7228 46.4606 54.0025 45.8588C53.6873 45.5955 53.3153 45.3844 52.8478 45.3611H52.8475ZM33.6745 51.0861L34.7991 53.6639C30.415 55.5764 25.8178 55.6852 21.3928 53.6527L22.5667 51.0972C26.313 52.818 29.887 52.7385 33.6745 51.0863V51.0861Z"
        fill="#181C71" fill-opacity="0.5" />
</svg>
