<svg width="80" height="80" viewBox="0 0 80 80" fill="none" xmlns="http://www.w3.org/2000/svg">
    <path
        d="M51.4169 31.5533C52.1335 34.22 51.2702 36.77 49.4935 37.2433C47.7135 37.72 45.6935 35.9433 44.9802 33.2767C44.2635 30.61 45.1269 28.0633 46.9035 27.5867C48.6835 27.11 50.7035 28.8867 51.4169 31.5533ZM32.1002 36.73C32.8135 39.3967 31.9535 41.9433 30.1735 42.42C28.3969 42.8967 26.3735 41.12 25.6602 38.4533C24.9469 35.7867 25.8069 33.24 27.5869 32.7633C29.3635 32.2867 31.3869 34.0633 32.1002 36.73Z"
        fill="#06FF1F" fill-opacity="0.5" />
    <path fill-rule="evenodd" clip-rule="evenodd"
        d="M39.8336 9C31.6561 9 23.8135 12.2485 18.0311 18.0309C12.2487 23.8132 9.00024 31.6558 9.00024 39.8333C9.00024 48.0108 12.2487 55.8534 18.0311 61.6358C23.8135 67.4182 31.6561 70.6667 39.8336 70.6667C48.0111 70.6667 55.8537 67.4182 61.636 61.6358C67.4184 55.8534 70.6669 48.0108 70.6669 39.8333C70.6669 31.6558 67.4184 23.8132 61.636 18.0309C55.8537 12.2485 48.0111 9 39.8336 9ZM4.00024 39.8333C4.00024 20.0433 20.0436 4 39.8336 4C59.6236 4 75.6669 20.0433 75.6669 39.8333C75.6669 59.6233 59.6236 75.6667 39.8336 75.6667C20.0436 75.6667 4.00024 59.6233 4.00024 39.8333ZM57.0969 44.3C57.3255 44.5359 57.5055 44.8145 57.6264 45.1199C57.7473 45.4254 57.8068 45.7516 57.8015 46.0801C57.7962 46.4085 57.7263 46.7327 57.5957 47.0341C57.4651 47.3355 57.2763 47.6082 57.0402 47.8367C56.4736 48.3867 55.8736 48.9167 55.2536 49.4233L55.9802 50.9067C56.4163 51.7912 56.6736 52.753 56.7375 53.737C56.8014 54.7211 56.6707 55.7081 56.3527 56.6415C56.0347 57.575 55.5357 58.4366 54.8843 59.177C54.233 59.9174 53.442 60.5221 52.5567 60.9564C51.6713 61.3907 50.709 61.6462 49.7248 61.7082C48.7406 61.7702 47.7539 61.6375 46.8211 61.3177C45.8882 60.9979 45.0276 60.4973 44.2885 59.8445C43.5493 59.1917 42.9462 58.3995 42.5136 57.5133L41.6036 55.66C37.4099 56.479 33.0887 56.3801 28.9369 55.37C28.6143 55.2943 28.31 55.1552 28.0416 54.9608C27.7732 54.7664 27.5462 54.5206 27.3737 54.2376C27.2012 53.9547 27.0866 53.6403 27.0367 53.3127C26.9868 52.9851 27.0025 52.6509 27.0829 52.3294C27.1634 52.0079 27.3069 51.7057 27.5052 51.4402C27.7035 51.1747 27.9526 50.9512 28.238 50.7829C28.5234 50.6145 28.8394 50.5046 29.1677 50.4594C29.496 50.4143 29.83 50.4349 30.1502 50.52C33.9169 51.4633 38.2436 51.4733 42.6369 50.2967C47.0302 49.12 50.7702 46.9467 53.5602 44.2467C54.0365 43.7859 54.6761 43.5331 55.3386 43.5437C56.0012 43.5544 56.6324 43.8276 57.0936 44.3033L57.0969 44.3ZM46.5169 54.3167L47.0036 55.31C47.2953 55.9054 47.8116 56.3605 48.4389 56.5753C49.0662 56.79 49.7532 56.7467 50.3486 56.455C50.944 56.1633 51.3991 55.6469 51.6138 55.0196C51.8286 54.3923 51.7853 53.7054 51.4936 53.11L51.0702 52.2467C49.6108 53.0584 48.0881 53.7506 46.5169 54.3167Z"
        fill="#06FF1F" fill-opacity="0.5" />
</svg>
