<svg width="172" height="153" viewBox="0 0 172 153" fill="none" xmlns="http://www.w3.org/2000/svg">
<g id="Ilustration - Home Page">
<g id="background-simple">
<path id="Vector" d="M151.696 31.8979L150.851 30.5432C143.724 19.1249 130.868 12.2397 117.32 13.0734C115.574 13.1773 113.839 13.4087 112.129 13.7656C99.8038 16.3373 89.0786 25.4183 84.6289 37.0525C82.0125 43.893 81.283 51.7682 76.3214 57.1982C69.8627 64.2694 58.9007 64.489 49.2641 64.195C39.6274 63.901 28.6387 64.1504 22.2296 71.2477C18.2038 75.6914 16.9281 82.0072 17.2642 87.9582C18.1236 103.712 29.3873 117.799 43.7143 124.803C58.0413 131.808 74.8968 132.433 90.5835 129.355C112.546 125.042 133.438 113.188 145.993 94.8881C158.548 76.5884 161.729 51.6528 151.696 31.8979Z" fill="#F5F5F5"/>
</g>
<g id="Elements">
<path id="Vector_2" d="M21.7942 25.3328C21.8101 25.3647 21.8216 25.3985 21.8286 25.4333L21.9126 25.731C21.955 25.8952 22.0073 26.0567 22.0692 26.2148C22.1379 26.4009 22.2105 26.6205 22.3213 26.855L22.4893 27.2272L22.7071 27.6291C22.7818 27.7768 22.866 27.9197 22.9591 28.0571C23.0546 28.1985 23.1387 28.3548 23.2532 28.5037C24.3262 30.0327 25.8286 31.2279 27.5807 31.9463C28.1123 32.1631 28.6634 32.3313 29.2269 32.4487C29.8263 32.5646 30.4321 32.6466 31.0412 32.6944C32.2902 32.8135 33.6423 32.8805 34.9371 33.3866C36.2449 33.9516 37.4045 34.7977 38.3288 35.8616C39.3071 36.8724 40.098 38.041 40.6664 39.3153C40.9233 39.9305 41.0805 40.5809 41.1323 41.2432C41.1768 41.8759 41.1357 42.5115 41.0101 43.1338C40.7548 44.2744 40.41 45.3942 39.9789 46.4834C39.6112 47.4283 39.3375 48.4053 39.1615 49.4012C39.0187 50.2226 39.0512 51.0638 39.257 51.8724C39.4125 52.4824 39.6946 53.0549 40.0858 53.5546C40.3329 53.8717 40.6355 54.1438 40.9796 54.3585C41.2126 54.5037 41.3615 54.5595 41.3615 54.567C41.2289 54.5158 41.1011 54.4535 40.9796 54.3809C40.6274 54.1712 40.3169 53.9014 40.0629 53.5844C39.6581 53.0847 39.3654 52.5078 39.2035 51.891C38.9874 51.073 38.9471 50.2203 39.0851 49.3863C39.2595 48.3848 39.5306 47.4016 39.8948 46.4499C40.3189 45.3596 40.6585 44.24 40.9108 43.1003C41.0295 42.4872 41.068 41.862 41.0254 41.2394C40.9743 40.5907 40.8183 39.9539 40.5632 39.3525C39.9989 38.0914 39.2159 36.9344 38.2486 35.9323C37.3365 34.883 36.1927 34.0484 34.9027 33.4908C33.6385 32.9884 32.2978 32.9214 31.045 32.7986C30.4323 32.7461 29.8228 32.6616 29.2193 32.5455C28.6447 32.433 28.082 32.2686 27.5387 32.0542C25.7718 31.3242 24.2623 30.1069 23.1959 28.5521C23.0814 28.4032 22.9935 28.2469 22.9018 28.1018C22.8112 27.961 22.7283 27.8157 22.6536 27.6663L22.4397 27.2644L22.2754 26.8922C22.1812 26.6811 22.0996 26.4649 22.031 26.2446C21.9736 26.0851 21.9264 25.9223 21.8897 25.7571C21.8591 25.6268 21.8324 25.5263 21.8171 25.4556C21.8063 25.4153 21.7986 25.3742 21.7942 25.3328Z" fill="#455A64"/>
<path id="Vector_3" d="M29.5591 21.3878L29.6431 21.4622L29.8799 21.6855C29.983 21.786 30.0976 21.92 30.2619 22.0577C30.4261 22.1954 30.5522 22.4001 30.7049 22.6234C31.0908 23.1592 31.4076 23.7392 31.6483 24.3503C31.9752 25.158 32.1698 26.0107 32.2251 26.8773C32.251 27.3804 32.2319 27.8848 32.1678 28.3846C32.0897 28.9261 31.9696 29.4611 31.8088 29.9849C31.4918 31.0717 31.0449 32.1882 30.7088 33.4127C30.5436 34.0371 30.4501 34.6774 30.4299 35.3219C30.415 35.994 30.4856 36.6653 30.64 37.3205C30.9624 38.7099 31.6079 40.0087 32.5268 41.1166C33.4484 42.2151 34.5876 43.1214 35.8765 43.7814C37.0727 44.4044 38.3614 44.8414 39.6961 45.0766C40.9718 45.3073 42.2093 45.3668 43.3551 45.538C44.4279 45.6629 45.4699 45.9702 46.4337 46.4461C47.8089 47.1971 48.8851 48.3768 49.4893 49.7957C49.6529 50.1769 49.7807 50.5718 49.8712 50.9755C49.8941 51.1132 49.9094 51.2174 49.9247 51.2956C49.9273 51.3315 49.9273 51.3676 49.9247 51.4035C49.9247 51.4035 49.9247 51.3663 49.8979 51.2956C49.8712 51.2248 49.8598 51.1169 49.833 50.9829C49.7388 50.5839 49.611 50.193 49.4511 49.8143C49.1832 49.2205 48.8323 48.6657 48.4083 48.1656C47.8466 47.5032 47.1593 46.9523 46.384 46.5429C45.4261 46.0773 44.392 45.7788 43.3284 45.6609C42.1825 45.4934 40.9488 45.4376 39.6617 45.2105C38.3146 44.9724 37.0134 44.5331 35.804 43.9079C34.4993 43.2407 33.3458 42.3243 32.4123 41.2134C31.4876 40.0934 30.8347 38.7842 30.5025 37.3837C30.3513 36.718 30.2821 36.0371 30.2962 35.3554C30.3169 34.7021 30.4117 34.0531 30.5789 33.4201C30.9035 32.1845 31.3733 31.068 31.6942 29.9887C31.8623 29.4716 31.9899 28.9428 32.0761 28.4069C32.1443 27.9137 32.166 27.4154 32.1411 26.9182C32.0533 25.4051 31.545 23.9437 30.6706 22.6904C30.5216 22.4633 30.365 22.2847 30.239 22.1172C30.1129 21.9497 29.9869 21.8269 29.8876 21.745L29.6622 21.5106C29.6241 21.4728 29.5896 21.4317 29.5591 21.3878Z" fill="#455A64"/>
<path id="Vector_4" d="M48.5382 48.0576C48.448 48.155 48.3482 48.2435 48.2403 48.3219C48.0417 48.4894 47.7476 48.7201 47.3771 48.9955C46.4161 49.7189 45.4165 50.3922 44.3826 51.0127C43.3477 51.6329 42.2806 52.2006 41.1856 52.7135C40.7655 52.9108 40.4217 53.0634 40.1849 53.1601C40.0632 53.2205 39.9351 53.2679 39.803 53.3016C39.9167 53.2314 40.0354 53.1692 40.1582 53.1155L41.1436 52.6354C41.9725 52.226 43.103 51.6305 44.31 50.9048C45.517 50.179 46.5711 49.4607 47.3198 48.9248L48.2021 48.2847C48.3078 48.2006 48.4202 48.1246 48.5382 48.0576Z" fill="#455A64"/>
<path id="Vector_5" d="M46.487 46.4945C46.3927 46.5626 46.2916 46.6212 46.1853 46.6695L45.3526 47.1086C44.6498 47.4808 43.6873 48.0093 42.6446 48.6308C41.6019 49.2523 40.6852 49.8553 40.0282 50.2981L39.2643 50.8266C39.171 50.8943 39.0727 50.9553 38.9702 51.009C39.0507 50.9266 39.1389 50.8519 39.2338 50.7857C39.4095 50.648 39.6692 50.4582 39.9977 50.2274C40.6432 49.7622 41.5598 49.1518 42.6026 48.5266C43.6453 47.9013 44.6193 47.384 45.3335 47.0379C45.6925 46.8593 45.9828 46.7216 46.1891 46.6322C46.2844 46.5786 46.384 46.5325 46.487 46.4945Z" fill="#455A64"/>
<path id="Vector_6" d="M43.546 45.8916C43.3616 46.0483 43.1635 46.189 42.954 46.3121C42.572 46.554 42.0564 46.8816 41.4682 47.2277C40.88 47.5738 40.3415 47.8678 39.9404 48.0762C39.7311 48.1977 39.5113 48.3011 39.2834 48.3851C39.4763 48.2449 39.6807 48.1205 39.8946 48.013L41.3995 47.1346L42.9043 46.2526C43.1064 46.1133 43.3212 45.9925 43.546 45.8916Z" fill="#455A64"/>
<path id="Vector_7" d="M40.8036 42.7281C40.6675 42.8498 40.5175 42.9559 40.3567 43.0444L39.2529 43.7665L38.1567 44.5108C38.0125 44.6226 37.8562 44.7186 37.6907 44.7974C37.8098 44.6553 37.9486 44.53 38.1032 44.4252C38.3705 44.2168 38.7487 43.9451 39.1803 43.6585C39.6119 43.3719 40.0129 43.13 40.3261 42.9663C40.4742 42.8673 40.6346 42.7872 40.8036 42.7281Z" fill="#455A64"/>
<path id="Vector_8" d="M40.5857 39.9071C40.5857 39.9257 40.261 40.0969 39.7377 40.3909C39.2145 40.6849 38.5002 41.1129 37.7478 41.6265C36.9953 42.1401 36.3384 42.6537 35.8762 43.0333C35.6326 43.2496 35.3776 43.4533 35.1123 43.6437C35.1644 43.5738 35.2232 43.509 35.288 43.4502C35.4064 43.3311 35.5859 43.1673 35.8113 42.9663C36.9878 41.9313 38.2897 41.0401 39.6881 40.3127C39.9554 40.175 40.177 40.0708 40.3297 40.0001C40.4105 39.9582 40.4965 39.9269 40.5857 39.9071Z" fill="#455A64"/>
<path id="Vector_9" d="M39.1539 37.7187C39.173 37.7484 37.8323 38.69 36.1594 39.8289C34.4864 40.9677 33.1038 41.861 33.1038 41.8349C33.1038 41.8089 34.4215 40.8598 36.0944 39.7247C37.7674 38.5896 39.1309 37.6889 39.1539 37.7187Z" fill="#455A64"/>
<path id="Vector_10" d="M38.0116 35.2512C37.9321 35.3221 37.845 35.3845 37.7518 35.4372C37.5609 35.5638 37.3202 35.7238 37.03 35.9099C36.4188 36.3081 35.5785 36.8664 34.6657 37.4991C33.7528 38.1318 32.9431 38.7273 32.374 39.159L31.6788 39.6726C31.5975 39.7397 31.5092 39.7983 31.4153 39.8475C31.4841 39.767 31.5623 39.6945 31.6483 39.6316C31.8011 39.5014 32.0302 39.3153 32.3167 39.0883C32.8896 38.6379 33.6917 38.0313 34.6084 37.3986C35.5251 36.7659 36.373 36.2151 36.9956 35.8355C37.3088 35.6457 37.5647 35.4968 37.7595 35.3963C37.8382 35.3396 37.9227 35.291 38.0116 35.2512Z" fill="#455A64"/>
<path id="Vector_11" d="M35.6546 33.8854C35.6775 33.9114 34.5393 34.7153 33.1184 35.6792C31.6976 36.6432 30.525 37.395 30.502 37.3689C30.4791 37.3429 31.6212 36.5352 33.042 35.575C34.4629 34.6148 35.6355 33.8556 35.6546 33.8854Z" fill="#455A64"/>
<path id="Vector_12" d="M33.1835 32.5082C32.7788 32.9075 32.3419 33.2746 31.8772 33.6061C31.4409 33.9726 30.9775 34.3072 30.4907 34.6073C30.8971 34.204 31.3337 33.8308 31.797 33.4907C32.2339 33.1307 32.6973 32.8023 33.1835 32.5082Z" fill="#455A64"/>
<path id="Vector_13" d="M31.5183 29.0508C31.3482 29.2342 31.1616 29.4024 30.9606 29.5533C30.6054 29.8473 30.1012 30.2455 29.5283 30.6698C28.9554 31.0941 28.4245 31.4439 28.0311 31.6933C27.8264 31.8379 27.6076 31.9625 27.3779 32.0654C27.567 31.9005 27.7687 31.75 27.9814 31.6151C28.3634 31.3472 28.8828 30.9787 29.4519 30.5656C30.021 30.1525 30.5328 29.7654 30.9033 29.4863C31.096 29.3254 31.3017 29.1797 31.5183 29.0508Z" fill="#455A64"/>
<path id="Vector_14" d="M32.2364 26.6987C32.1583 26.7718 32.0725 26.8367 31.9804 26.8922C31.8162 27.0113 31.5679 27.175 31.2624 27.3723C30.6474 27.7705 29.7842 28.3027 28.8103 28.861C27.8363 29.4193 26.9311 29.8733 26.2703 30.1934C25.9418 30.3534 25.6706 30.4799 25.4835 30.5655C25.3891 30.6161 25.2892 30.656 25.1855 30.6846C25.2719 30.6231 25.364 30.5695 25.4606 30.5246L26.2245 30.1189C26.8738 29.7803 27.7523 29.3039 28.7415 28.7531C29.7308 28.2022 30.5825 27.6886 31.2089 27.309L31.9499 26.8624C32.0386 26.7973 32.1347 26.7424 32.2364 26.6987Z" fill="#455A64"/>
<path id="Vector_15" d="M31.0906 24.1865C31.0037 24.2622 30.9104 24.3307 30.8118 24.3912C30.6284 24.5177 30.3611 24.6964 30.0249 24.916C29.3565 25.3477 28.4246 25.9357 27.3818 26.5647C26.3391 27.1936 25.3881 27.7445 24.7082 28.1315C24.3606 28.3251 24.078 28.4814 23.8794 28.5856C23.7792 28.6432 23.6744 28.693 23.5662 28.7344C23.6552 28.6613 23.7511 28.5965 23.8526 28.5409L24.6624 28.0534L27.336 26.4567L30.0097 24.8415L30.8194 24.3502C30.9043 24.2874 30.9951 24.2326 31.0906 24.1865Z" fill="#455A64"/>
<path id="Vector_16" d="M131.589 98.3791C131.57 98.3977 131.288 98.1223 130.738 97.6645C130.463 97.4375 130.123 97.1621 129.71 96.8681C129.245 96.535 128.755 96.2364 128.244 95.9749C127.949 95.8273 127.642 95.7029 127.327 95.6027C126.996 95.4851 126.647 95.4246 126.296 95.424C126.122 95.4239 125.951 95.4634 125.795 95.5394C125.643 95.6164 125.522 95.7409 125.452 95.893C125.378 96.0596 125.342 96.2401 125.348 96.4215C125.352 96.6172 125.377 96.8119 125.425 97.0021C125.527 97.4053 125.676 97.7961 125.868 98.167C126.069 98.5609 126.295 98.9425 126.544 99.3095C127.614 100.849 128.953 102.193 130.501 103.281C130.867 103.536 131.25 103.767 131.647 103.973C132.022 104.173 132.419 104.33 132.831 104.442C133.024 104.494 133.223 104.525 133.423 104.535C133.608 104.545 133.793 104.516 133.965 104.449C134.127 104.387 134.261 104.273 134.347 104.125C134.429 103.976 134.474 103.811 134.481 103.642C134.492 103.298 134.44 102.955 134.328 102.629C134.224 102.319 134.096 102.017 133.946 101.725C133.691 101.22 133.399 100.733 133.071 100.27C132.781 99.8603 132.514 99.5254 132.285 99.2463C131.834 98.6992 131.559 98.4126 131.578 98.394C131.597 98.3754 131.662 98.4498 131.803 98.5801C131.945 98.7103 132.139 98.9039 132.38 99.1681C132.676 99.4879 132.955 99.822 133.217 100.169C133.566 100.631 133.878 101.119 134.149 101.628C134.304 101.929 134.438 102.24 134.55 102.559C134.678 102.917 134.739 103.295 134.729 103.675C134.725 103.884 134.67 104.09 134.569 104.274C134.459 104.472 134.284 104.628 134.072 104.717C133.862 104.803 133.635 104.842 133.408 104.833C133.184 104.826 132.963 104.795 132.747 104.74C132.313 104.624 131.894 104.462 131.498 104.256C131.084 104.034 130.686 103.786 130.306 103.511C128.719 102.408 127.351 101.034 126.269 99.4547C126.012 99.0783 125.781 98.6853 125.578 98.2786C125.38 97.8857 125.227 97.4725 125.123 97.0467C125.071 96.8359 125.045 96.6197 125.047 96.4029C125.041 96.1807 125.088 95.9603 125.184 95.759C125.282 95.5547 125.448 95.3883 125.654 95.2863C125.847 95.1947 126.058 95.1476 126.273 95.1486C126.657 95.1525 127.037 95.223 127.396 95.3571C127.719 95.4741 128.033 95.6146 128.335 95.7776C128.849 96.0552 129.34 96.3725 129.802 96.7266C130.211 97.0393 130.543 97.3259 130.806 97.5715C131.07 97.8171 131.265 98.0144 131.391 98.1521C131.517 98.2898 131.597 98.3717 131.589 98.3791Z" fill="#455A64"/>
<path id="Vector_17" d="M127.927 99.2723C127.949 99.2723 127.839 99.6445 127.694 100.307C127.621 100.642 127.541 101.051 127.476 101.528C127.402 102.067 127.371 102.61 127.384 103.154C127.392 103.468 127.425 103.78 127.483 104.088C127.539 104.416 127.654 104.731 127.823 105.019C127.91 105.16 128.027 105.28 128.167 105.372C128.307 105.46 128.471 105.505 128.637 105.499C128.819 105.494 128.997 105.451 129.16 105.372C129.333 105.286 129.495 105.18 129.641 105.056C129.954 104.792 130.234 104.495 130.478 104.17C130.736 103.827 130.969 103.468 131.177 103.095C132.045 101.508 132.608 99.7797 132.838 97.9957C132.888 97.5745 132.91 97.1506 132.903 96.7266C132.897 96.324 132.845 95.9232 132.747 95.532C132.697 95.3493 132.628 95.1722 132.54 95.0035C132.46 94.8473 132.345 94.7102 132.204 94.6015C132.073 94.5014 131.913 94.4441 131.746 94.4378C131.578 94.4347 131.411 94.4677 131.257 94.5345C130.949 94.6742 130.668 94.8657 130.428 95.1002C130.198 95.3207 129.986 95.5584 129.794 95.8111C129.457 96.2447 129.155 96.7039 128.893 97.1844C128.664 97.6087 128.488 97.9883 128.35 98.3009C128.075 98.9299 127.949 99.2872 127.927 99.2797C127.93 99.1867 127.949 99.0948 127.984 99.0081C128.033 98.8331 128.114 98.5801 128.232 98.2637C128.35 97.9474 128.515 97.5529 128.732 97.1137C128.98 96.6133 129.27 96.1339 129.599 95.6808C129.792 95.4146 130.008 95.1655 130.245 94.9365C130.502 94.6727 130.806 94.457 131.143 94.3001C131.331 94.217 131.536 94.1751 131.742 94.1773C131.966 94.1827 132.182 94.2556 132.361 94.3857C132.535 94.5173 132.678 94.6835 132.781 94.8732C132.883 95.0598 132.962 95.2571 133.018 95.4613C133.127 95.8725 133.186 96.2946 133.194 96.7192C133.207 97.1579 133.188 97.5969 133.136 98.033C132.914 99.859 132.337 101.627 131.437 103.243C131.221 103.632 130.977 104.005 130.707 104.36C130.449 104.702 130.15 105.013 129.817 105.287C129.652 105.422 129.471 105.538 129.279 105.633C129.082 105.732 128.866 105.788 128.645 105.796C128.422 105.802 128.204 105.741 128.018 105.622C127.848 105.506 127.705 105.356 127.598 105.182C127.417 104.865 127.297 104.518 127.243 104.159C127.186 103.838 127.158 103.513 127.159 103.188C127.156 102.631 127.203 102.076 127.3 101.528C127.369 101.117 127.46 100.709 127.571 100.307C127.663 99.9757 127.751 99.7226 127.812 99.5626C127.832 99.4598 127.87 99.3614 127.927 99.2723Z" fill="#455A64"/>
<path id="Vector_18" d="M129.179 97.5566C129.179 97.5827 128.797 97.6794 128.152 97.9102C127.823 98.0256 127.426 98.1744 126.972 98.3717C126.463 98.5942 125.972 98.8555 125.505 99.1533C125.234 99.3225 124.978 99.5143 124.741 99.7264C124.484 99.9431 124.27 100.204 124.111 100.497C124.033 100.642 123.989 100.802 123.981 100.966C123.978 101.129 124.027 101.289 124.122 101.424C124.221 101.567 124.352 101.686 124.504 101.773C124.671 101.87 124.847 101.949 125.031 102.008C125.427 102.126 125.834 102.201 126.246 102.231C126.681 102.259 127.117 102.259 127.552 102.231C128.472 102.178 129.383 102.04 130.276 101.818C131.17 101.601 132.04 101.302 132.877 100.925C133.272 100.744 133.654 100.539 134.023 100.311C134.371 100.1 134.693 99.8502 134.981 99.5664C135.117 99.431 135.235 99.2797 135.333 99.116C135.427 98.9682 135.487 98.8017 135.508 98.6285C135.526 98.4676 135.492 98.3053 135.413 98.1633C135.327 98.0167 135.21 97.8898 135.069 97.7911C134.784 97.6137 134.468 97.4877 134.137 97.4189C133.825 97.3437 133.507 97.2927 133.186 97.2663C132.629 97.2238 132.07 97.2238 131.513 97.2663C131.02 97.3035 130.596 97.3557 130.249 97.404C129.561 97.5082 129.183 97.5938 129.176 97.5678C129.259 97.5236 129.349 97.4922 129.443 97.4747C129.619 97.4226 129.882 97.3556 130.23 97.2849C130.577 97.2142 130.994 97.1472 131.498 97.0951C132.065 97.0365 132.636 97.024 133.205 97.0579C133.538 97.0774 133.869 97.1247 134.194 97.1993C134.56 97.2714 134.909 97.4103 135.222 97.6087C135.395 97.72 135.539 97.8675 135.646 98.0404C135.759 98.2279 135.809 98.4455 135.787 98.662C135.768 98.8765 135.698 99.0839 135.585 99.2686C135.477 99.4496 135.349 99.6182 135.203 99.7711C134.9 100.079 134.562 100.351 134.194 100.582C133.818 100.822 133.425 101.038 133.018 101.226C132.159 101.616 131.264 101.924 130.344 102.146C129.432 102.372 128.5 102.511 127.56 102.559C127.111 102.583 126.66 102.576 126.212 102.536C125.777 102.503 125.347 102.419 124.932 102.287C124.726 102.222 124.529 102.133 124.344 102.023C124.156 101.91 123.995 101.761 123.87 101.584C123.749 101.402 123.688 101.189 123.695 100.973C123.704 100.77 123.76 100.572 123.859 100.393C124.039 100.075 124.277 99.7928 124.562 99.5589C124.814 99.3447 125.083 99.1505 125.368 98.9783C125.855 98.6892 126.366 98.4402 126.895 98.234C127.291 98.0751 127.696 97.936 128.106 97.8172C128.442 97.7204 128.71 97.6571 128.889 97.6199C128.982 97.5837 129.08 97.5623 129.179 97.5566Z" fill="#455A64"/>
<path id="Vector_19" d="M131.104 99.7041C131.153 99.8955 131.143 100.097 131.075 100.282C131.007 100.468 130.883 100.63 130.721 100.747C130.558 100.865 130.363 100.933 130.161 100.942C129.959 100.952 129.758 100.903 129.585 100.801C129.411 100.7 129.272 100.55 129.186 100.372C129.099 100.194 129.069 99.9943 129.099 99.7992C129.129 99.6041 129.217 99.4219 129.353 99.2758C129.489 99.1297 129.667 99.0262 129.863 98.9783C130.126 98.9152 130.405 98.9561 130.637 99.092C130.87 99.228 131.038 99.448 131.104 99.7041Z" fill="#455A64"/>
<path id="Vector_20" d="M151.97 82.6176L151.856 82.5655L151.523 82.4017L150.244 81.7541L145.542 79.3462H145.584L131.101 84.739L130.971 84.7873L131.009 84.6571L131.452 83.0977C132.464 79.5397 133.423 76.1716 134.263 73.2091V73.1867L142.284 67.3287L144.576 65.6763L145.183 65.2408L145.34 65.1329C145.373 65.1056 145.392 65.0944 145.397 65.0994L145.347 65.1404L145.195 65.2594L144.599 65.7061L142.338 67.3846L134.34 73.2835L134.362 73.25C133.522 76.2274 132.571 79.5769 131.563 83.1461C131.41 83.6783 131.261 84.2105 131.12 84.7055L131.028 84.6236L145.542 79.268H145.565L150.244 81.7132L151.508 82.3794L151.837 82.558L151.97 82.6176Z" fill="#0068AD"/>
<path id="Vector_21" d="M132.961 84.5678L132.094 84.8171L131.815 85.6545L131.303 84.9288H130.398L130.948 84.2291L130.669 83.3917L131.521 83.6857L132.25 83.1684L132.227 84.0504L132.961 84.5678Z" fill="#0068AD"/>
<path id="Vector_22" d="M135.462 72.9374L134.916 73.1309L134.767 73.6817L134.408 73.2351L133.824 73.2686L134.152 72.796L133.938 72.2675L134.5 72.4238L134.95 72.0628L134.97 72.6322L135.462 72.9374Z" fill="#0068AD"/>
<path id="Vector_23" d="M146.428 64.7384L146.031 65.3227L146.295 65.9703L145.603 65.7805L145.053 66.2271L145.023 65.5274L144.419 65.1553L145.091 64.9133L145.267 64.236L145.714 64.7831L146.428 64.7384Z" fill="#0068AD"/>
<path id="Vector_24" d="M152.849 81.8807L152.448 82.465L152.715 83.1126L152.024 82.9228L151.47 83.3694L151.443 82.6697L150.836 82.2976L151.508 82.0557L151.688 81.3783L152.131 81.9254L152.849 81.8807Z" fill="#0068AD"/>
<path id="Vector_25" d="M146.111 79.0113L145.856 79.3834L146.027 79.7965L145.584 79.6737L145.233 79.9603L145.218 79.5137L144.828 79.2755L145.26 79.1192L145.37 78.6875L145.657 79.041L146.111 79.0113Z" fill="#0068AD"/>
<path id="Vector_26" d="M108.714 19.8574C109.366 15.9625 106.655 12.2897 102.658 11.654C98.6604 11.0182 94.8911 13.6603 94.2387 17.5553C93.5863 21.4502 96.2978 25.123 100.295 25.7587C104.292 26.3945 108.062 23.7524 108.714 19.8574Z" fill="#0068AD"/>
<g id="Group" opacity="0.3">
<path id="Vector_27" opacity="0.3" d="M100.514 20.9411C100.514 21.1715 100.444 21.3967 100.313 21.5883C100.181 21.7799 99.9945 21.9292 99.7761 22.0173C99.5576 22.1055 99.3172 22.1286 99.0853 22.0836C98.8534 22.0387 98.6404 21.9277 98.4732 21.7648C98.306 21.6019 98.1921 21.3943 98.146 21.1684C98.0999 20.9424 98.1236 20.7082 98.2141 20.4953C98.3045 20.2825 98.4578 20.1005 98.6544 19.9725C98.851 19.8445 99.0821 19.7762 99.3185 19.7762C99.6356 19.7762 99.9397 19.8989 100.164 20.1174C100.388 20.3359 100.514 20.6322 100.514 20.9411Z" fill="white"/>
</g>
<g id="Group_2" opacity="0.3">
<path id="Vector_28" opacity="0.3" d="M98.8332 17.5767C98.8332 17.7106 98.7924 17.8416 98.716 17.953C98.6396 18.0644 98.5311 18.1512 98.404 18.2025C98.277 18.2537 98.1372 18.2672 98.0024 18.241C97.8676 18.2149 97.7437 18.1504 97.6465 18.0556C97.5493 17.9609 97.4831 17.8402 97.4562 17.7088C97.4294 17.5774 97.4432 17.4412 97.4958 17.3175C97.5484 17.1937 97.6375 17.0879 97.7518 17.0135C97.8661 16.939 98.0005 16.8993 98.138 16.8993C98.3224 16.8993 98.4992 16.9707 98.6296 17.0977C98.7599 17.2247 98.8332 17.397 98.8332 17.5767Z" fill="white"/>
</g>
<path id="Vector_29" d="M94.3682 20.4499C94.4026 20.5727 88.0927 26.4716 89.7198 27.7296C91.347 28.9875 98.1877 25.7608 104.02 21.1719C109.852 16.583 115.177 11.0078 113.718 9.53403C112.259 8.06023 104.975 12.4258 104.975 12.4258L105.861 12.9655C105.861 12.9655 110.265 10.2114 111.659 11.2795C113.053 12.3477 109.081 16.5272 103.474 20.5168C97.8669 24.5065 92.447 27.3053 91.6067 26.2111C90.7664 25.1169 94.7349 21.4733 94.7349 21.4733L94.3682 20.4499Z" fill="#0068AD"/>
<g id="Group_3" opacity="0.3">
<path id="Vector_30" opacity="0.3" d="M94.3684 20.4499C94.4028 20.5727 88.093 26.4716 89.7201 27.7296C91.3472 28.9875 98.1879 25.7608 104.02 21.1719C109.853 16.583 115.177 11.0078 113.718 9.53403C112.259 8.06023 104.975 12.4258 104.975 12.4258L105.861 12.9655C105.861 12.9655 110.265 10.2114 111.659 11.2795C113.053 12.3477 109.081 16.5272 103.474 20.5168C97.8671 24.5065 92.4472 27.3053 91.6069 26.2111C90.7666 25.1169 94.7351 21.4733 94.7351 21.4733L94.3684 20.4499Z" fill="black"/>
</g>
<g id="Group_4" opacity="0.3">
<path id="Vector_31" opacity="0.3" d="M97.4587 13.6763C97.516 13.747 97.0195 14.1564 96.458 14.9826C95.7118 16.0417 95.3001 17.2904 95.2736 18.5747C95.2472 19.8591 95.6071 21.1229 96.309 22.2102C96.8399 23.0551 97.3174 23.4868 97.2563 23.5538C97.1952 23.6208 96.6299 23.2709 95.9767 22.4373C95.5987 21.9413 95.2987 21.3931 95.0868 20.8109C94.545 19.3631 94.5777 17.7703 95.1785 16.3448C95.4134 15.7715 95.7353 15.2359 96.1333 14.7556C96.8056 13.9368 97.409 13.6279 97.4587 13.6763Z" fill="white"/>
</g>
<path id="Vector_32" d="M112.576 25.009C112.596 24.1884 112.865 23.392 113.35 22.7205C113.834 22.049 114.512 21.5326 115.298 21.2365C116.083 20.9405 116.941 20.8781 117.763 21.0573C118.585 21.2365 119.335 21.6492 119.916 22.2432C120.497 22.8372 120.885 23.5859 121.029 24.3945C121.174 25.2031 121.069 26.0353 120.728 26.7859C120.387 27.5366 119.826 28.1718 119.114 28.6114C118.403 29.051 117.574 29.2751 116.732 29.2554C115.603 29.2291 114.531 28.767 113.752 27.9706C112.972 27.1743 112.549 26.109 112.576 25.009Z" fill="#0068AD"/>
<g id="Group_5" opacity="0.4">
<path id="Vector_33" opacity="0.4" d="M118.221 23.5203C118.224 23.3862 118.268 23.2561 118.347 23.1463C118.426 23.0365 118.537 22.9521 118.665 22.9037C118.794 22.8553 118.934 22.8452 119.068 22.8745C119.203 22.9038 119.325 22.9714 119.42 23.0685C119.515 23.1657 119.578 23.2881 119.601 23.4202C119.625 23.5524 119.607 23.6883 119.551 23.8108C119.495 23.9334 119.403 24.0369 119.287 24.1085C119.17 24.18 119.035 24.2162 118.897 24.2125C118.806 24.2106 118.716 24.1912 118.633 24.1553C118.55 24.1194 118.474 24.0678 118.411 24.0035C118.349 23.9391 118.299 23.8633 118.267 23.7804C118.234 23.6975 118.219 23.6091 118.221 23.5203Z" fill="black"/>
</g>
<g id="Group_6" opacity="0.4">
<path id="Vector_34" opacity="0.4" d="M119.612 25.0983C119.614 25.0199 119.64 24.9439 119.687 24.8802C119.734 24.8164 119.8 24.7677 119.875 24.7404C119.951 24.713 120.033 24.7082 120.111 24.7266C120.189 24.7449 120.26 24.7856 120.315 24.8434C120.369 24.9012 120.405 24.9736 120.417 25.0511C120.429 25.1287 120.417 25.2081 120.382 25.279C120.348 25.3499 120.292 25.4092 120.223 25.4493C120.154 25.4893 120.074 25.5084 119.994 25.504C119.889 25.4973 119.79 25.4514 119.719 25.3758C119.648 25.3003 119.609 25.2009 119.612 25.0983Z" fill="black"/>
</g>
<g id="Group_7" opacity="0.4">
<path id="Vector_35" opacity="0.4" d="M119.065 26.3079C119.105 26.3088 119.143 26.3249 119.171 26.3528C119.199 26.3806 119.214 26.4179 119.214 26.4567C119.214 26.4758 119.21 26.4946 119.202 26.512C119.194 26.5294 119.182 26.5452 119.168 26.5583C119.154 26.5714 119.137 26.5817 119.119 26.5885C119.101 26.5954 119.081 26.5987 119.062 26.5982C119.042 26.5982 119.022 26.5943 119.004 26.5867C118.986 26.5792 118.97 26.5681 118.956 26.5541C118.943 26.5402 118.932 26.5237 118.925 26.5057C118.918 26.4877 118.915 26.4685 118.916 26.4493C118.917 26.4114 118.934 26.3755 118.961 26.3491C118.989 26.3226 119.027 26.3078 119.065 26.3079Z" fill="black"/>
</g>
<path id="Vector_36" d="M130.161 55.9663C130.123 55.9663 130.096 50.7113 130.096 44.2317C130.096 37.7522 130.123 32.4971 130.161 32.4971C130.199 32.4971 130.226 37.7485 130.226 44.2317C130.226 50.715 130.195 55.9663 130.161 55.9663Z" fill="#263238"/>
<path id="Vector_37" d="M130.879 32.6981C130.572 32.2646 130.299 31.8093 130.062 31.336H130.176V31.3657C129.979 31.8688 129.746 32.3576 129.477 32.8284C129.628 32.31 129.822 31.8046 130.058 31.3174V31.2876L130.111 31.1685L130.172 31.2801C130.447 31.7336 130.683 32.2078 130.879 32.6981Z" fill="#263238"/>
<path id="Vector_38" d="M130.027 29.7245C130.004 29.7506 129.806 29.624 129.645 29.3896C129.485 29.1551 129.447 28.9281 129.481 28.9206C129.515 28.9132 129.607 29.1067 129.752 29.3226C129.897 29.5384 130.05 29.6985 130.027 29.7245Z" fill="#263238"/>
<path id="Vector_39" d="M129.649 30.4017C129.722 30.1132 129.824 29.8326 129.955 29.5643C130.042 29.28 130.16 29.0056 130.306 28.7455C130.283 29.0447 130.204 29.3373 130.073 29.609C129.983 29.8964 129.839 30.1651 129.649 30.4017Z" fill="#263238"/>
<path id="Vector_40" d="M128.435 35.5862C128.522 35.3496 128.596 35.1085 128.656 34.8642C128.669 34.6162 128.669 34.3678 128.656 34.1198C128.792 34.3551 128.831 34.6315 128.767 34.8939C128.748 35.1569 128.63 35.4037 128.435 35.5862Z" fill="#263238"/>
<path id="Vector_41" d="M128.671 34.6074C128.671 34.6074 128.641 34.7079 128.488 34.7451C128.398 34.7638 128.303 34.7478 128.224 34.7004C128.178 34.6678 128.14 34.6255 128.112 34.5765C128.085 34.5274 128.069 34.473 128.066 34.4173C128.063 34.3615 128.073 34.3058 128.095 34.2544C128.117 34.2029 128.151 34.1569 128.194 34.1198C128.269 34.0676 128.362 34.0438 128.454 34.0528C128.61 34.0528 128.664 34.1645 128.648 34.1719C128.633 34.1794 128.568 34.1347 128.45 34.1422C128.414 34.1416 128.379 34.1482 128.346 34.1616C128.313 34.1751 128.284 34.1951 128.259 34.2203C128.235 34.2455 128.216 34.2754 128.204 34.3081C128.192 34.3408 128.187 34.3755 128.19 34.4101C128.191 34.4449 128.2 34.479 128.215 34.5104C128.231 34.5417 128.253 34.5698 128.279 34.5927C128.306 34.6157 128.337 34.6331 128.371 34.644C128.405 34.6548 128.441 34.6588 128.477 34.6558C128.595 34.6595 128.656 34.5925 128.671 34.6074Z" fill="#263238"/>
<path id="Vector_42" d="M148.911 54.299C148.911 54.3325 144.297 54.3623 138.598 54.3623C132.9 54.3623 128.286 54.3325 128.286 54.299C128.286 54.2655 132.896 54.2357 138.598 54.2357C144.301 54.2357 148.911 54.2655 148.911 54.299Z" fill="#263238"/>
<path id="Vector_43" d="M149.121 54.273C148.822 54.2275 148.531 54.1398 148.258 54.0125C147.974 53.9254 147.704 53.8002 147.456 53.6403C147.75 53.6869 148.036 53.776 148.304 53.9045C148.593 53.9879 148.869 54.112 149.121 54.273Z" fill="#263238"/>
<path id="Vector_44" d="M149.346 54.3474C148.911 54.5884 148.435 54.751 147.941 54.8275C148.151 54.6936 148.382 54.5931 148.625 54.5297C148.853 54.4285 149.097 54.3668 149.346 54.3474Z" fill="#263238"/>
<path id="Vector_45" d="M129.191 54.9354C129.262 54.9833 129.323 55.0451 129.369 55.1168C129.415 55.1885 129.445 55.2686 129.458 55.3522C129.504 55.5343 129.489 55.7259 129.416 55.8993C129.374 56.0064 129.303 56.1003 129.21 56.171C129.153 56.2069 129.087 56.226 129.019 56.226C128.951 56.226 128.885 56.2069 128.828 56.171C128.731 56.1009 128.653 56.0085 128.601 55.9021C128.549 55.7957 128.525 55.6784 128.53 55.5606C128.527 55.4655 128.546 55.371 128.586 55.2841C128.626 55.1971 128.685 55.1199 128.759 55.0582C128.809 55.0164 128.866 54.9847 128.929 54.9649C128.991 54.9451 129.057 54.9376 129.122 54.9428C129.214 54.9428 129.256 54.9838 129.252 54.9875C129.248 54.9912 129.202 54.9875 129.122 54.9875C129.009 54.9974 128.902 55.0447 128.82 55.1215C128.761 55.1771 128.716 55.2445 128.686 55.319C128.656 55.3935 128.644 55.4734 128.648 55.5532C128.646 55.6503 128.667 55.7465 128.709 55.8344C128.752 55.9223 128.815 55.9993 128.893 56.0594C128.931 56.0829 128.974 56.0954 129.019 56.0954C129.064 56.0954 129.107 56.0829 129.145 56.0594C129.221 56.0032 129.28 55.9288 129.317 55.8435C129.384 55.6911 129.405 55.5233 129.378 55.3597C129.338 55.2098 129.275 55.0667 129.191 54.9354Z" fill="#263238"/>
<path id="Vector_46" d="M145.966 55.1997C145.966 55.1997 146.039 55.1587 146.138 55.2406C146.167 55.2654 146.19 55.2964 146.206 55.3312C146.221 55.366 146.228 55.4038 146.226 55.4416C146.216 55.5382 146.173 55.6288 146.104 55.6984C145.958 55.8547 145.691 55.9142 145.569 56.104C145.541 56.1536 145.526 56.2093 145.526 56.2659C145.526 56.3226 145.541 56.3783 145.569 56.4278C145.601 56.4798 145.647 56.5218 145.703 56.5488C145.758 56.5758 145.82 56.5868 145.882 56.5804C145.944 56.5753 146.004 56.552 146.052 56.5135C146.1 56.4749 146.136 56.423 146.153 56.3646C146.172 56.3103 146.175 56.2523 146.164 56.1962C146.153 56.1401 146.127 56.0879 146.088 56.0445C146.011 55.9575 145.918 55.8855 145.813 55.8324C145.756 55.8117 145.705 55.7789 145.663 55.7364C145.62 55.6939 145.588 55.6428 145.569 55.5867C145.558 55.5384 145.558 55.4883 145.569 55.44C145.58 55.3917 145.602 55.3464 145.634 55.3076C145.679 55.2518 145.738 55.2083 145.806 55.1811C145.916 55.1438 145.981 55.1513 145.985 55.1587C145.989 55.1662 145.924 55.1587 145.829 55.2257C145.773 55.255 145.726 55.2972 145.691 55.3485C145.669 55.3797 145.655 55.4153 145.649 55.4527C145.643 55.49 145.646 55.5282 145.657 55.5644C145.695 55.7244 146 55.7468 146.18 55.9738C146.232 56.0322 146.267 56.1025 146.283 56.1781C146.299 56.2536 146.295 56.3319 146.272 56.4055C146.245 56.4864 146.195 56.558 146.127 56.611C146.059 56.664 145.976 56.6961 145.89 56.7032C145.804 56.7122 145.717 56.697 145.64 56.6594C145.563 56.6218 145.498 56.5634 145.454 56.4911C145.415 56.423 145.394 56.346 145.394 56.2678C145.394 56.1896 145.415 56.1126 145.454 56.0445C145.532 55.9379 145.638 55.8531 145.76 55.7989C145.854 55.7543 145.942 55.6993 146.023 55.6351C146.084 55.5828 146.124 55.5119 146.138 55.4341C146.141 55.4056 146.138 55.3767 146.13 55.3492C146.121 55.3218 146.107 55.2962 146.088 55.2741C146.042 55.1997 145.966 55.2108 145.966 55.1997Z" fill="#263238"/>
<path id="Vector_47" d="M145.913 54.7307C145.825 54.3634 145.825 53.9814 145.913 53.6142C146 53.9814 146 54.3634 145.913 54.7307Z" fill="#263238"/>
<path id="Vector_48" d="M151.424 54.3213C151.312 54.3606 151.192 54.3782 151.073 54.3734L150.691 54.3957C150.662 54.4051 150.632 54.4051 150.603 54.3957C150.584 54.384 150.57 54.367 150.562 54.347C150.554 54.327 150.552 54.305 150.557 54.2841C150.57 54.2371 150.598 54.1954 150.637 54.165L150.805 53.9938C150.92 53.907 150.995 53.7802 151.016 53.6402C151.019 53.5898 151.005 53.5398 150.976 53.498C150.947 53.4562 150.904 53.4251 150.855 53.4095C150.777 53.4003 150.699 53.4146 150.63 53.4504C150.572 53.4727 150.542 53.4876 150.534 53.4802C150.527 53.4727 150.553 53.4467 150.603 53.4095C150.677 53.3475 150.773 53.3155 150.87 53.3201C150.946 53.3351 151.015 53.3758 151.063 53.435C151.111 53.4943 151.136 53.5683 151.134 53.6439C151.12 53.8129 151.037 53.9695 150.905 54.0794L150.729 54.2469C150.698 54.2729 150.676 54.299 150.676 54.3101H150.698H151.08C151.195 54.2951 151.311 54.2988 151.424 54.3213Z" fill="#263238"/>
<path id="Vector_49" d="M132.903 54.299C132.903 54.299 132.903 54.1724 132.903 53.9528C132.903 53.7333 132.903 53.4095 132.884 53.0336C132.884 52.252 132.861 51.1727 132.858 49.9371L132.919 50.0004H131.723L131.788 49.9371V51.2285C131.788 51.6417 131.788 52.0362 131.788 52.4083C131.788 53.1527 131.788 53.7854 131.769 54.2952L131.731 54.258L132.602 54.2766C132.808 54.2766 132.923 54.2766 132.926 54.2952C132.826 54.3015 132.725 54.3015 132.625 54.2952L131.731 54.3139H131.693V54.2766C131.693 53.7668 131.693 53.1266 131.693 52.3897C131.693 52.0175 131.693 51.623 131.693 51.2099V49.9185L131.758 49.8552H132.98V49.9148C132.98 51.1764 132.98 52.2743 132.949 53.0522C132.949 53.4244 132.949 53.7295 132.949 53.9603C132.944 54.0742 132.928 54.1875 132.903 54.299Z" fill="#263238"/>
<path id="Vector_50" d="M144.305 54.299C144.3 54.2544 144.3 54.2095 144.305 54.165C144.305 54.0682 144.305 53.9491 144.305 53.7928C144.305 53.4578 144.305 53.0038 144.285 52.4418C144.285 51.303 144.263 49.725 144.259 47.9348L144.324 47.9944H143.124L143.189 47.9348V48.9173C143.189 49.2411 143.189 49.5575 143.189 49.8664C143.189 50.4879 143.189 51.0722 143.189 51.6193C143.189 52.6986 143.17 53.6142 143.166 54.2841L143.132 54.2506H144.007H144.243H144.331C144.231 54.2574 144.13 54.2574 144.03 54.2506L143.132 54.2692H143.098V54.2357C143.098 53.5658 143.098 52.6502 143.075 51.5709C143.075 51.0238 143.075 50.4544 143.075 49.818C143.075 49.5091 143.075 49.1927 143.075 48.869V47.8864L143.14 47.8232H144.4V47.8864C144.4 49.7026 144.4 51.303 144.373 52.4381C144.373 52.9926 144.373 53.443 144.354 53.7742C144.354 53.9156 144.354 54.0347 144.354 54.1464C144.354 54.258 144.305 54.3027 144.305 54.299Z" fill="#263238"/>
<path id="Vector_51" d="M135.787 54.299C135.783 54.2445 135.783 54.1897 135.787 54.1352C135.787 54.0161 135.787 53.8635 135.787 53.6737C135.787 53.2681 135.787 52.6986 135.768 51.9915C135.768 50.5661 135.768 48.5973 135.741 46.3754L135.806 46.4387H134.607C134.737 46.3121 134.641 46.4052 134.672 46.3791V47.6371C134.672 48.0502 134.672 48.4521 134.672 48.8466C134.672 49.6319 134.672 50.3725 134.672 51.0536C134.672 52.4083 134.653 53.5249 134.645 54.299L134.614 54.2692H135.497H135.73H135.814H135.741H135.512H134.614H134.584V54.2394C134.584 53.4653 134.584 52.3488 134.561 50.9941C134.561 50.313 134.561 49.5724 134.561 48.7871C134.561 48.3926 134.561 47.9906 134.561 47.5775V46.3196C134.592 46.2898 134.496 46.3791 134.626 46.2526H135.886V46.3121C135.886 48.5452 135.867 50.5363 135.86 51.9729C135.86 52.6726 135.86 53.2383 135.84 53.6402C135.84 53.8263 135.84 53.9752 135.84 54.0868C135.84 54.1985 135.787 54.3027 135.787 54.299Z" fill="#263238"/>
<path id="Vector_52" d="M138.606 54.2729C138.604 54.2519 138.604 54.2307 138.606 54.2097V54.0124C138.606 53.8412 138.606 53.603 138.606 53.3016C138.606 52.68 138.606 51.7905 138.587 50.6964C138.587 48.4856 138.568 45.4301 138.556 41.9987L138.621 42.0619H137.41L137.471 42.0024V45.9363C137.471 47.1793 137.471 48.3479 137.471 49.4124C137.471 51.5263 137.448 53.2197 137.441 54.2506L137.418 54.2283H138.3H138.613C138.613 54.2283 138.591 54.2283 138.541 54.2283H138.327H137.429H137.403V54.2022C137.403 53.1527 137.403 51.4593 137.376 49.364C137.376 48.2996 137.376 47.1309 137.376 45.8879C137.376 45.2626 137.376 44.6225 137.376 43.9637V41.954C137.403 41.9242 137.311 42.0136 137.441 41.887H138.701V41.9503C138.701 45.3966 138.701 48.4708 138.675 50.6926C138.675 51.7868 138.675 52.6726 138.655 53.2978C138.655 53.5956 138.655 53.83 138.655 53.9975V54.1762C138.61 54.258 138.61 54.2767 138.606 54.2729Z" fill="#263238"/>
<path id="Vector_53" d="M141.497 54.2729C141.497 54.2729 141.497 54.2357 141.497 54.165C141.497 54.0943 141.497 53.9826 141.497 53.8486C141.497 53.5695 141.497 53.1638 141.497 52.6465C141.497 51.6007 141.497 50.0897 141.478 48.2251C141.478 44.5034 141.478 39.319 141.451 33.5503L141.516 33.6136H140.317C140.443 33.4908 140.355 33.5838 140.382 33.5578V37.1195C140.382 38.2806 140.382 39.412 140.382 40.5025C140.382 42.6872 140.382 44.7118 140.382 46.5243C140.382 50.1343 140.355 52.8773 140.347 54.2729H141.245H141.547C141.547 54.2729 141.524 54.2729 141.474 54.2729H141.256H140.347H140.328V54.2506C140.328 52.8549 140.309 50.112 140.298 46.5019C140.298 44.6895 140.298 42.6648 140.298 40.4802C140.298 39.3897 140.298 38.2471 140.298 37.0971V33.5429C140.328 33.5131 140.233 33.5987 140.363 33.4722H141.623V33.5429C141.623 39.3302 141.623 44.5145 141.596 48.2623C141.596 50.1232 141.596 51.6119 141.577 52.6688C141.577 53.1824 141.577 53.5807 141.577 53.8598C141.577 53.99 141.577 54.0905 141.577 54.165C141.577 54.2394 141.497 54.2766 141.497 54.2729Z" fill="#263238"/>
<path id="Vector_54" d="M13.2764 55.5011L14.2962 72.9299L44.222 71.2663L13.2764 55.5011ZM18.2761 62.2635L31.1478 68.9626L18.7077 69.6437L18.2761 62.2635Z" fill="#0068AD"/>
<path id="Vector_55" d="M16.2479 57.0233C16.1525 57.4073 15.9925 57.7732 15.7743 58.1063C15.6133 58.4715 15.3898 58.8075 15.1135 59.1C15.207 58.7119 15.3672 58.3419 15.5871 58.0058C15.7503 57.645 15.9735 57.313 16.2479 57.0233Z" fill="#263238"/>
<path id="Vector_56" d="M20.8389 59.3345C20.7433 59.7138 20.5833 60.0748 20.3653 60.4026C20.2072 60.7587 19.9861 61.085 19.7122 61.3665C19.8046 60.9868 19.9635 60.6255 20.182 60.2984C20.3393 59.941 20.5619 59.6144 20.8389 59.3345Z" fill="#263238"/>
<path id="Vector_57" d="M25.4263 61.6457C25.2931 62.0116 25.0967 62.3527 24.8457 62.6543C24.6496 62.9952 24.3906 63.298 24.0818 63.5475C24.2144 63.1801 24.4108 62.8377 24.6624 62.5352C24.8605 62.1966 25.1192 61.8954 25.4263 61.6457Z" fill="#263238"/>
<path id="Vector_58" d="M29.9407 64.0611C29.8119 64.4301 29.6151 64.7731 29.3601 65.0734C29.1595 65.4113 28.9011 65.7134 28.5962 65.9666C28.725 65.5976 28.9217 65.2545 29.1768 64.9543C29.3774 64.6164 29.6357 64.3143 29.9407 64.0611Z" fill="#263238"/>
<path id="Vector_59" d="M34.6542 66.4169C34.5424 66.802 34.3642 67.1657 34.1271 67.4924C33.95 67.851 33.7124 68.1781 33.4243 68.4601C33.7079 67.7139 34.1243 67.0223 34.6542 66.4169Z" fill="#263238"/>
<path id="Vector_60" d="M39.5469 68.8993C39.4567 69.264 39.2988 69.6096 39.081 69.919C38.922 70.2605 38.7021 70.5717 38.4316 70.8383C38.5239 70.4724 38.683 70.1257 38.9014 69.8148C39.0565 69.4733 39.2754 69.1628 39.5469 68.8993Z" fill="#263238"/>
<path id="Vector_61" d="M17.6802 57.7528C17.7298 57.7825 17.6458 58.0356 17.4892 58.3259C17.3326 58.6162 17.1646 58.8209 17.1073 58.7948C17.05 58.7688 17.1416 58.512 17.2982 58.2254C17.4548 57.9388 17.6305 57.7342 17.6802 57.7528Z" fill="#263238"/>
<path id="Vector_62" d="M19.1813 58.4785C19.2348 58.5045 19.1469 58.7613 18.9903 59.0479C18.8337 59.3345 18.6695 59.5466 18.6084 59.5206C18.5473 59.4945 18.6466 59.2377 18.7993 58.9474C18.9521 58.6571 19.1316 58.4561 19.1813 58.4785Z" fill="#263238"/>
<path id="Vector_63" d="M22.5313 60.2091C22.5809 60.2389 22.4969 60.492 22.3403 60.7823C22.1837 61.0725 22.0156 61.281 21.9583 61.2512C21.901 61.2214 21.9927 60.9683 22.1493 60.6818C22.3059 60.3952 22.4816 60.1831 22.5313 60.2091Z" fill="#263238"/>
<path id="Vector_64" d="M24.0359 60.9423C24.0856 60.9683 24.0015 61.2251 23.8449 61.5117C23.6883 61.7983 23.5203 62.0104 23.463 61.9844C23.4057 61.9583 23.4974 61.7015 23.654 61.4112C23.8106 61.1209 23.9824 60.9162 24.0359 60.9423Z" fill="#263238"/>
<path id="Vector_65" d="M27.065 62.5947C27.1185 62.6208 27.0306 62.8776 26.874 63.1641C26.7174 63.4507 26.5532 63.6628 26.4921 63.6368C26.4309 63.6107 26.5264 63.3539 26.683 63.0637C26.8396 62.7734 27.0153 62.5724 27.065 62.5947Z" fill="#263238"/>
<path id="Vector_66" d="M28.501 63.3167C28.5545 63.3428 28.4666 63.5996 28.31 63.8862C28.1534 64.1727 27.9892 64.3849 27.9281 64.3588C27.867 64.3328 27.9625 64.0723 28.1191 63.7857C28.2757 63.4991 28.4514 63.3167 28.501 63.3167Z" fill="#263238"/>
<path id="Vector_67" d="M31.5984 64.8947C31.6481 64.9245 31.5641 65.1776 31.4075 65.4679C31.2509 65.7582 31.0866 65.9628 31.0255 65.9368C30.9644 65.9107 31.0599 65.6539 31.2165 65.3674C31.3731 65.0808 31.5488 64.8687 31.5984 64.8947Z" fill="#263238"/>
<path id="Vector_68" d="M33.2642 65.7545C33.3138 65.7843 33.2298 66.0373 33.0732 66.3276C32.9166 66.6179 32.7485 66.8263 32.6913 66.7966C32.634 66.7668 32.7256 66.5137 32.8822 66.2271C33.0388 65.9406 33.2145 65.7284 33.2642 65.7545Z" fill="#263238"/>
<path id="Vector_69" d="M36.2586 67.2915C36.3082 67.3176 36.2242 67.5744 36.0676 67.8609C35.911 68.1475 35.7429 68.3596 35.6856 68.3336C35.6283 68.3075 35.72 68.0507 35.8766 67.7605C36.0332 67.4702 36.2051 67.2655 36.2586 67.2915Z" fill="#263238"/>
<path id="Vector_70" d="M37.9849 68.155C38.0345 68.1848 37.9505 68.4416 37.7939 68.7281C37.6373 69.0147 37.4692 69.2269 37.412 69.1971C37.3547 69.1673 37.4463 68.9142 37.6029 68.6277C37.7595 68.3411 37.9352 68.1289 37.9849 68.155Z" fill="#263238"/>
<path id="Vector_71" d="M64.4578 31.2503C64.4578 31.2503 64.4578 31.228 64.4578 31.1871C64.4578 31.1461 64.4578 31.0791 64.4578 31.001C64.4578 30.8372 64.4578 30.599 64.4578 30.2901C64.4578 29.6649 64.4578 28.7568 64.4578 27.603C64.4578 25.2956 64.4387 22.0204 64.4272 18.0605L64.4845 18.1126H50.9482L51.0093 18.0494C51.0093 22.8876 51.0093 27.4058 51.0093 31.2392L50.9558 31.1833L60.7491 31.2131H63.5067H63.5297H60.7873L50.9558 31.2392H50.8604V31.1833C50.8604 27.35 50.8604 22.8243 50.8604 17.9935V17.9303H50.9253H64.4616H64.5151V17.9861C64.5151 21.946 64.496 25.2472 64.4883 27.5658C64.4883 28.7121 64.4883 29.6165 64.4883 30.238C64.4883 30.5432 64.4883 30.7739 64.4883 30.9377V31.1759L64.4578 31.2503Z" fill="#0068AD"/>
<path id="Vector_72" d="M64.4577 31.2503C64.4904 31.2244 64.5248 31.2008 64.5608 31.1796L64.8702 30.986L66.0695 30.2417L70.4773 27.5881L70.4543 27.629C70.4543 24.1864 70.4543 19.6273 70.4543 14.6365L70.5155 14.6998H70.4811H57.1357H57.1586L52.602 17.1673L51.3568 17.8446L51.0321 18.0158L50.9214 18.0716C50.9546 18.0476 50.989 18.0253 51.0245 18.0046L51.3454 17.8186L52.5752 17.1226L57.0975 14.5918H70.4429H70.5422V14.6551C70.5422 19.6459 70.5422 24.205 70.5422 27.6476V27.6737H70.5193L66.0886 30.3124L64.8779 31.027L64.5608 31.2093L64.4577 31.2503Z" fill="#0068AD"/>
<path id="Vector_73" d="M70.5 14.6216C70.5191 14.6514 69.1822 15.4441 67.5131 16.3931C65.844 17.3422 64.4575 18.0902 64.4575 18.0605C64.4575 18.0307 65.7752 17.238 67.4482 16.2852C69.1211 15.3324 70.4847 14.5918 70.5 14.6216Z" fill="#0068AD"/>
<path id="Vector_74" d="M51.5631 30.707C51.5631 30.7368 51.4485 30.8447 51.2728 30.9415C51.0971 31.0382 50.9367 31.0978 50.9214 31.068C50.9061 31.0382 51.0322 30.934 51.2079 30.8335C51.3836 30.7331 51.544 30.6772 51.5631 30.707Z" fill="#0068AD"/>
<path id="Vector_75" d="M52.8465 29.9887C52.8656 30.0185 52.7358 30.1264 52.5563 30.2232C52.3767 30.3199 52.2201 30.3795 52.2049 30.3497C52.1896 30.3199 52.3156 30.2157 52.4951 30.1152C52.6747 30.0147 52.8274 29.9589 52.8465 29.9887Z" fill="#0068AD"/>
<path id="Vector_76" d="M54.1299 29.2704C54.149 29.3001 54.0191 29.4081 53.8434 29.5048C53.6677 29.6016 53.5073 29.6611 53.4882 29.6314C53.4691 29.6016 53.599 29.4974 53.7785 29.3969C53.958 29.2964 54.1146 29.2406 54.1299 29.2704Z" fill="#0068AD"/>
<path id="Vector_77" d="M55.4173 28.552C55.4173 28.5818 55.3027 28.686 55.127 28.7865C54.9514 28.887 54.7909 28.9428 54.7718 28.913C54.7527 28.8832 54.8864 28.779 55.0621 28.6785C55.2378 28.5781 55.3982 28.5222 55.4173 28.552Z" fill="#0068AD"/>
<path id="Vector_78" d="M56.7003 27.8338C56.7003 27.8636 56.5895 27.9678 56.41 28.0683C56.2305 28.1688 56.0739 28.2246 56.0586 28.1948C56.0433 28.165 56.1694 28.0608 56.3451 27.9603C56.5208 27.8599 56.6812 27.804 56.7003 27.8338Z" fill="#0068AD"/>
<path id="Vector_79" d="M57.0248 26.5721C57.0592 26.5721 57.0859 26.7321 57.0859 26.9443C57.0859 27.1564 57.0554 27.3165 57.0172 27.3165C56.979 27.3165 56.9561 27.1564 56.9561 26.9443C56.9561 26.7321 56.9904 26.5684 57.0248 26.5721Z" fill="#0068AD"/>
<path id="Vector_80" d="M57.0365 25.1281C57.0709 25.1281 57.1015 25.2881 57.0976 25.5002C57.0938 25.7124 57.0671 25.8724 57.0327 25.8724C56.9983 25.8724 56.9678 25.7086 56.9678 25.5002C56.9678 25.2918 57.0021 25.1281 57.0365 25.1281Z" fill="#0068AD"/>
<path id="Vector_81" d="M57.048 23.684C57.0824 23.684 57.1129 23.8478 57.1091 24.0562C57.1053 24.2646 57.0786 24.4284 57.0442 24.4284C57.0098 24.4284 56.9792 24.2646 56.9792 24.0562C56.9792 23.8478 57.0136 23.684 57.048 23.684Z" fill="#0068AD"/>
<path id="Vector_82" d="M57.0592 22.24C57.0935 22.24 57.1241 22.4037 57.1203 22.6122C57.1164 22.8206 57.0897 22.9843 57.0553 22.9843C57.021 22.9843 56.9904 22.8243 56.9942 22.6122C56.998 22.4 57.0248 22.24 57.0592 22.24Z" fill="#0068AD"/>
<path id="Vector_83" d="M57.0706 20.7997C57.105 20.7997 57.1356 20.9597 57.1317 21.1719C57.1279 21.384 57.1012 21.544 57.0668 21.544C57.0324 21.544 57.0019 21.384 57.0057 21.1719C57.0095 20.9597 57.0363 20.7997 57.0706 20.7997Z" fill="#0068AD"/>
<path id="Vector_84" d="M57.0823 19.3557C57.1205 19.3557 57.1473 19.5157 57.1435 19.7278C57.1396 19.94 57.1129 20.1 57.0785 20.1C57.0442 20.1 57.0136 19.9362 57.0174 19.7278C57.0212 19.5194 57.048 19.3557 57.0823 19.3557Z" fill="#0068AD"/>
<path id="Vector_85" d="M57.0941 17.9116C57.1323 17.9116 57.159 18.0754 57.1552 18.2838C57.1514 18.4922 57.1246 18.656 57.0902 18.656C57.0559 18.656 57.0253 18.4922 57.0291 18.2838C57.033 18.0754 57.0597 17.9116 57.0941 17.9116Z" fill="#0068AD"/>
<path id="Vector_86" d="M57.1053 16.4677C57.1435 16.4677 57.1702 16.6314 57.1664 16.8398C57.1626 17.0482 57.1359 17.212 57.1015 17.212C57.0671 17.212 57.0365 17.052 57.0404 16.8398C57.0442 16.6277 57.0709 16.4677 57.1053 16.4677Z" fill="#0068AD"/>
<path id="Vector_87" d="M57.117 15.0273C57.1552 15.0273 57.1819 15.1873 57.1781 15.3994C57.1743 15.6116 57.1476 15.7716 57.1132 15.7716C57.0788 15.7716 57.0483 15.6116 57.0521 15.3994C57.0559 15.1873 57.0826 15.0273 57.117 15.0273Z" fill="#0068AD"/>
<path id="Vector_88" d="M69.7629 27.6179C69.7629 27.5882 69.9272 27.5621 70.1449 27.5621C70.3626 27.5621 70.5268 27.5882 70.5268 27.6179C70.5268 27.6477 70.3626 27.6775 70.1449 27.6775C69.9272 27.6775 69.7629 27.6514 69.7629 27.6179Z" fill="#0068AD"/>
<path id="Vector_89" d="M68.281 27.6179C68.281 27.5882 68.4452 27.5621 68.663 27.5621C68.8807 27.5621 69.0449 27.5882 69.0449 27.6179C69.0449 27.6477 68.8768 27.6775 68.663 27.6775C68.4491 27.6775 68.281 27.6514 68.281 27.6179Z" fill="#0068AD"/>
<path id="Vector_90" d="M66.7993 27.6179C66.7993 27.5882 66.9636 27.5621 67.1813 27.5621C67.399 27.5621 67.5632 27.5882 67.5632 27.6179C67.5632 27.6477 67.399 27.6775 67.1813 27.6775C66.9636 27.6775 66.7993 27.6514 66.7993 27.6179Z" fill="#0068AD"/>
<path id="Vector_91" d="M65.3171 27.6179C65.3171 27.5882 65.4852 27.5621 65.6991 27.5621C65.913 27.5621 66.081 27.5882 66.081 27.6179C66.081 27.6477 65.9168 27.6775 65.6991 27.6775C65.4814 27.6775 65.3171 27.6514 65.3171 27.6179Z" fill="#0068AD"/>
<path id="Vector_92" d="M63.8464 27.6179C63.8464 27.5882 64.0107 27.5621 64.2284 27.5621C64.4461 27.5621 64.6103 27.5882 64.6103 27.6179C64.6103 27.6477 64.4461 27.6775 64.2284 27.6775C64.0107 27.6775 63.8464 27.6514 63.8464 27.6179Z" fill="#0068AD"/>
<path id="Vector_93" d="M62.3572 27.6179C62.3572 27.5882 62.5214 27.5621 62.7391 27.5621C62.9568 27.5621 63.1211 27.5882 63.1211 27.6179C63.1211 27.6477 62.953 27.6775 62.7391 27.6775C62.5252 27.6775 62.3572 27.6514 62.3572 27.6179Z" fill="#0068AD"/>
<path id="Vector_94" d="M60.875 27.6179C60.875 27.5882 61.0392 27.5621 61.257 27.5621C61.4747 27.5621 61.6389 27.5882 61.6389 27.6179C61.6389 27.6477 61.4747 27.6775 61.257 27.6775C61.0392 27.6775 60.875 27.6514 60.875 27.6179Z" fill="#0068AD"/>
<path id="Vector_95" d="M59.3933 27.6179C59.3933 27.5882 59.5614 27.5621 59.7753 27.5621C59.9892 27.5621 60.1572 27.5882 60.1572 27.6179C60.1572 27.6477 59.993 27.6775 59.7753 27.6775C59.5575 27.6775 59.3933 27.6514 59.3933 27.6179Z" fill="#0068AD"/>
<path id="Vector_96" d="M57.9153 27.6179C57.9153 27.5882 58.0795 27.5621 58.2972 27.5621C58.5149 27.5621 58.6792 27.5882 58.6792 27.6179C58.6792 27.6477 58.5149 27.6775 58.2972 27.6775C58.0795 27.6775 57.9153 27.6514 57.9153 27.6179Z" fill="#0068AD"/>
<path id="Vector_97" d="M57.0178 27.6183C57.0178 27.5883 57.0524 27.5621 57.0947 27.5621C57.1369 27.5621 57.1753 27.5883 57.1753 27.6183C57.1753 27.6482 57.1408 27.6781 57.0947 27.6781C57.0856 27.6792 57.0764 27.6785 57.0676 27.676C57.0588 27.6735 57.0505 27.6694 57.0434 27.6638C57.0363 27.6583 57.0303 27.6514 57.0259 27.6435C57.0215 27.6357 57.0188 27.6271 57.0178 27.6183Z" fill="#0068AD"/>
<path id="Vector_98" d="M72.139 23.2225C72.252 23.2332 72.3659 23.2332 72.4789 23.2225C72.6273 23.1905 72.7669 23.1278 72.8882 23.0385C73.0095 22.9492 73.1096 22.8356 73.1817 22.7052C73.2771 22.508 73.3234 22.2916 73.3168 22.0736C73.3102 21.8557 73.2508 21.6423 73.1435 21.451C73.1187 21.3984 73.0815 21.3521 73.0351 21.3159C72.9887 21.2798 72.9343 21.2546 72.8761 21.2426C72.754 21.2277 72.6307 21.2597 72.5324 21.3319C72.3286 21.5246 72.1798 21.7658 72.1008 22.0316C71.9939 22.3202 71.9296 22.6222 71.9098 22.9285H71.7838C71.7838 21.972 71.7647 21.1384 71.7647 20.5429C71.7647 20.2638 71.7647 20.0293 71.7647 19.8432C71.7542 19.7591 71.7542 19.6742 71.7647 19.5901C71.7822 19.6734 71.7912 19.7582 71.7914 19.8432C71.7914 20.0293 71.7914 20.2638 71.822 20.5429C71.8449 21.1384 71.8678 21.972 71.8869 22.9285H71.7608C71.7813 22.6107 71.8482 22.2974 71.9595 21.9981C72.012 21.8581 72.0732 21.7214 72.1428 21.5887C72.212 21.4537 72.3111 21.3355 72.4331 21.2426C72.4956 21.1962 72.567 21.1625 72.6431 21.1433C72.7192 21.1242 72.7984 21.1199 72.8761 21.1309C72.9501 21.1483 73.0192 21.1814 73.0786 21.2277C73.138 21.274 73.1862 21.3324 73.2199 21.3989C73.333 21.6083 73.3921 21.8414 73.3921 22.0781C73.3921 22.3148 73.333 22.5479 73.2199 22.7573C73.141 22.8942 73.0313 23.0119 72.8989 23.1015C72.7666 23.1911 72.6152 23.2503 72.456 23.2746C72.37 23.2884 72.2823 23.2884 72.1963 23.2746C72.1743 23.2605 72.155 23.2429 72.139 23.2225Z" fill="#0068AD"/>
<path id="Vector_99" d="M34.5968 84.9884C34.5968 84.9884 34.6503 84.9884 34.7534 85.033C34.8565 85.0777 35.0093 85.1112 35.2041 85.1893C35.7746 85.4086 36.3199 85.6856 36.8312 86.0156C37.6458 86.5377 38.3681 87.185 38.9702 87.9323C39.7782 88.92 40.3263 90.0852 40.5667 91.3265C40.8396 92.8392 40.6331 94.397 39.9747 95.7925C39.6123 96.5697 39.1075 97.276 38.4851 97.8767C38.1593 98.1907 37.8023 98.4725 37.4194 98.7178C37.217 98.8295 37.0375 98.9486 36.8083 99.0528C36.5791 99.157 36.3882 99.2575 36.1628 99.3356C34.3829 100.024 32.3433 100.054 30.2961 99.8641C29.2724 99.7673 28.2412 99.6222 27.1908 99.4622C26.124 99.3134 25.0723 99.0756 24.0473 98.7513C23.0109 98.4304 22.0529 97.906 21.2324 97.2105C20.8391 96.8596 20.4926 96.462 20.2011 96.027C19.9246 95.5917 19.7028 95.1256 19.5403 94.6388C19.2326 93.6908 19.1298 92.691 19.2386 91.7024C19.3461 90.7588 19.6282 89.8421 20.0712 88.9967C20.9436 87.4517 22.2607 86.1891 23.8602 85.3643C25.2384 84.6392 26.7438 84.1721 28.2985 83.9872C29.5768 83.8395 30.8681 83.8308 32.1485 83.9612C33.1128 84.0609 34.0705 84.2137 35.017 84.4189C35.7809 84.5901 36.392 84.7464 36.7969 84.8544L37.2552 84.9846L37.4118 85.0367L37.2514 84.9995L36.7892 84.8842C36.3843 84.7837 35.7847 84.6348 35.0055 84.4748C34.0584 84.2795 33.1007 84.1366 32.1371 84.0468C30.8662 83.922 29.585 83.937 28.3176 84.0914C26.7796 84.283 25.2915 84.7512 23.9289 85.4722C22.356 86.2898 21.0618 87.5366 20.2049 89.0599C19.7722 89.8931 19.4991 90.7961 19.399 91.7247C19.2945 92.6934 19.396 93.6727 19.6969 94.6016C19.8532 95.077 20.0687 95.532 20.3386 95.9563C20.6208 96.3805 20.9571 96.7682 21.3393 97.11C22.1457 97.7902 23.0851 98.3042 24.1008 98.621C25.1198 98.9419 26.165 99.1773 27.2252 99.3245C28.2679 99.4845 29.303 99.6296 30.319 99.7264C32.3433 99.9162 34.3715 99.8902 36.1208 99.2128C37.7889 98.5851 39.1355 97.3412 39.8677 95.7516C40.52 94.3782 40.7304 92.8446 40.4712 91.3525C40.235 90.1297 39.6991 88.9805 38.909 88.003C38.3174 87.2596 37.6084 86.6127 36.8083 86.0863C36.3014 85.7539 35.7629 85.4698 35.2003 85.2377C35.0055 85.1596 34.8565 85.1112 34.7534 85.0702L34.5968 84.9884Z" fill="#263238"/>
<path id="Vector_100" d="M24.3988 94.6053C24.2977 94.6305 24.1937 94.643 24.0894 94.6425L23.2376 94.6835H22.955C22.8473 94.6978 22.738 94.6978 22.6303 94.6835C22.5622 94.6628 22.5048 94.6175 22.4699 94.5569C22.441 94.5013 22.4242 94.4405 22.4203 94.3783L22.3973 94.0396C22.3706 93.5707 22.34 93.0645 22.3095 92.5509C22.2789 92.0373 22.2446 91.5125 22.2407 91.0399C22.2343 90.808 22.2896 90.5785 22.4012 90.3737C22.5116 90.2042 22.6749 90.0738 22.8671 90.0015C23.1428 89.908 23.4365 89.8762 23.7265 89.9085C23.832 89.9111 23.9364 89.9299 24.0359 89.9643C23.9317 89.9732 23.8269 89.9732 23.7227 89.9643C23.4452 89.9527 23.1682 89.997 22.9092 90.0946C22.7456 90.1686 22.6114 90.2928 22.5272 90.4481C22.4317 90.6351 22.3857 90.8423 22.3935 91.051C22.3935 91.5051 22.4508 92.0224 22.4737 92.5397C22.4966 93.0571 22.5272 93.5781 22.5539 94.0284C22.5769 94.248 22.5272 94.5234 22.6838 94.5606C22.7788 94.5741 22.8753 94.5741 22.9703 94.5606H24.1161C24.2119 94.5637 24.3069 94.5787 24.3988 94.6053Z" fill="#263238"/>
<path id="Vector_101" d="M23.9712 92.1676C23.714 92.2438 23.4449 92.2741 23.1767 92.2569C22.9091 92.2851 22.6385 92.2649 22.3784 92.1973C22.6351 92.119 22.9046 92.0887 23.1729 92.108C23.4405 92.0794 23.7112 92.0996 23.9712 92.1676Z" fill="#263238"/>
<path id="Vector_102" d="M27.9434 91.4753C27.5424 91.5303 27.1372 91.5502 26.7326 91.5348C26.3309 91.5657 25.9273 91.5657 25.5256 91.5348C25.9144 91.4152 26.3213 91.361 26.7288 91.3748C27.1366 91.3435 27.5468 91.3775 27.9434 91.4753Z" fill="#263238"/>
<path id="Vector_103" d="M28.1799 93.2543C27.7869 93.3419 27.3823 93.3696 26.9806 93.3362C26.5797 93.3517 26.1787 93.3052 25.7927 93.1985C26.189 93.1613 26.5881 93.1613 26.9844 93.1985C27.3838 93.1819 27.784 93.2005 28.1799 93.2543Z" fill="#263238"/>
<path id="Vector_104" d="M34.6005 94.3225C34.6005 94.3225 34.6005 94.1624 34.6005 93.8684C34.5822 93.4532 34.5051 93.0424 34.3714 92.6477C34.3102 92.3709 34.1539 92.1227 33.9283 91.9443C33.8638 91.9088 33.7901 91.8924 33.7162 91.897C33.6422 91.9016 33.5713 91.9271 33.512 91.9703C33.3772 92.0678 33.2685 92.1955 33.195 92.3425C32.8894 93.0747 32.7588 93.865 32.813 94.6537H32.664C32.7077 94.0835 32.7 93.5106 32.6411 92.9417C32.6201 92.7107 32.5869 92.4809 32.5418 92.2532C32.504 92.0429 32.3902 91.8528 32.221 91.7172C32.1398 91.6603 32.0422 91.6297 31.9422 91.6297C31.8421 91.6297 31.7446 91.6603 31.6633 91.7172C31.4918 91.827 31.367 91.9936 31.3119 92.1862C31.2572 92.3797 31.2214 92.5778 31.205 92.7779C31.1821 92.9752 31.163 93.1687 31.1553 93.3585C31.1343 93.7118 31.1343 94.066 31.1553 94.4192H31.0369C31.0064 93.5818 30.9796 92.897 30.9605 92.3946C30.9605 92.1713 30.9605 91.9889 30.9605 91.8438C30.9523 91.7795 30.9523 91.7145 30.9605 91.6503C30.9758 91.7138 30.9847 91.7786 30.9873 91.8438L31.0331 92.3946C31.0637 92.8933 31.1095 93.5781 31.163 94.4118H31.0446C31.0251 94.0547 31.0251 93.697 31.0446 93.3399C31.0446 93.1501 31.0675 92.9677 31.0904 92.7519C31.106 92.5429 31.1431 92.3359 31.2012 92.1341C31.2639 91.9091 31.4076 91.7136 31.606 91.5833C31.7203 91.5131 31.853 91.4769 31.988 91.4791C32.1254 91.4796 32.2592 91.5226 32.3699 91.6019C32.5697 91.7577 32.7053 91.9783 32.7519 92.2234C32.8006 92.4571 32.8363 92.6931 32.8588 92.9305C32.9101 93.5088 32.9101 94.0903 32.8588 94.6686H32.7099C32.6594 93.8597 32.8033 93.0505 33.13 92.3053C33.2169 92.1337 33.3487 91.9873 33.512 91.881C33.5902 91.8263 33.683 91.7947 33.7792 91.7901C33.8754 91.7854 33.971 91.808 34.0543 91.855C34.3011 92.0494 34.4701 92.322 34.5318 92.6254C34.658 93.0308 34.7223 93.4521 34.7228 93.8758C34.7228 94.0247 34.7228 94.1401 34.7037 94.2145C34.6754 94.2557 34.6406 94.2921 34.6005 94.3225Z" fill="#263238"/>
<path id="Vector_105" d="M37.9467 94.088C37.9467 94.088 37.8932 94.1513 37.7633 94.2145C37.5785 94.3021 37.3767 94.3503 37.1713 94.356C36.861 94.3653 36.555 94.2836 36.2928 94.1215C35.9714 93.914 35.7424 93.5957 35.6517 93.2306C35.5611 92.8655 35.6154 92.4804 35.8039 92.1527C35.9621 91.8925 36.1961 91.6839 36.4762 91.5535C36.661 91.4667 36.863 91.4197 37.0682 91.4158C37.1434 91.4103 37.2189 91.4204 37.2897 91.4456C37.0247 91.467 36.7659 91.5351 36.5258 91.6465C36.2763 91.7798 36.0699 91.9783 35.93 92.2197C35.7699 92.52 35.7265 92.8665 35.8079 93.1955C35.8894 93.5245 36.09 93.8137 36.373 94.0098C36.6114 94.163 36.8896 94.2469 37.1751 94.2518C37.4406 94.2453 37.7024 94.1897 37.9467 94.088Z" fill="#263238"/>
<path id="Vector_106" d="M38.848 89.8712C38.2723 89.9053 37.7023 90.0014 37.1483 90.1578L36.8924 90.2397L37.0834 90.0499C37.4512 89.7227 37.77 89.3469 38.0306 88.9334C38.2342 88.5877 38.3047 88.1825 38.2292 87.7908C38.1872 87.6159 38.0803 87.4782 37.9351 87.4744C37.7841 87.477 37.636 87.5153 37.5035 87.5861C37.301 87.6877 37.1216 87.8282 36.9764 87.9992C36.8733 88.122 36.8313 88.2039 36.8198 88.1965C36.8355 88.1114 36.8736 88.0319 36.9306 87.9657C37.0623 87.7695 37.2421 87.6083 37.4539 87.4968C37.6009 87.4073 37.7695 87.3573 37.9428 87.3516C37.996 87.3532 38.0483 87.3656 38.0963 87.388C38.1443 87.4105 38.187 87.4424 38.2216 87.4819C38.2901 87.5603 38.3385 87.6534 38.3629 87.7536C38.4573 88.18 38.3866 88.6254 38.1643 89.0041C37.8983 89.4355 37.5645 89.8236 37.175 90.1541L37.1101 90.0424C37.5169 89.9233 37.9383 89.8582 38.3629 89.8489C38.5247 89.8283 38.6889 89.8359 38.848 89.8712Z" fill="#263238"/>
</g>
<g id="Character">
<path id="Vector_107" d="M64.4275 85.4684L72.5669 83.9388L88.181 87.4298L96.095 89.0376L96.2096 99.5738L78.5559 102.741L66.6428 99.3021L62.1396 92.8449L64.4275 85.4684Z" fill="#FFBE9D"/>
<path id="Vector_108" d="M58.645 86.518L66.326 84.7539C66.326 84.7539 71.7573 101.129 85.16 100.411C96.0838 99.8343 96.0952 89.0376 96.0952 89.0376L104.082 90.4109C104.082 90.4109 107.432 110.17 103.761 124.029C100.705 135.567 97.9935 151.377 97.9935 151.377H44.9368L58.645 86.518Z" fill="#0068AD"/>
<path id="Vector_109" d="M136.475 137.145C136.475 137.145 114.593 99.7897 110.655 94.9961C106.343 89.7485 102.902 90.3551 102.902 90.3551L100.587 115.518L119.192 141.239L123.626 142.798L136.475 137.145Z" fill="#0068AD"/>
<path id="Vector_110" d="M59.5614 86.3095C59.5614 86.3095 47.1251 87.2772 42.6639 107.151C40.6472 116.132 38.0805 126.657 37.3625 133.728C36.8277 138.86 40.0781 144.197 45.33 144.852L51.9224 146.043C53.6641 146.358 55.4634 146.011 56.9499 145.072C58.4364 144.133 59.4968 142.674 59.9128 140.997L62.1396 132.012L56.2079 130.07L57.5791 103.307L59.5614 86.3095Z" fill="#0068AD"/>
<path id="Vector_111" d="M105.098 104.3C105.127 104.39 105.146 104.482 105.155 104.576C105.189 104.777 105.228 105.045 105.281 105.376C105.308 105.551 105.335 105.748 105.369 105.957C105.403 106.165 105.415 106.399 105.438 106.649C105.491 107.144 105.552 107.709 105.579 108.338C105.671 109.809 105.681 111.284 105.61 112.756C105.52 114.558 105.337 116.354 105.06 118.138C104.773 120.036 104.414 121.83 104.051 123.452C103.688 125.075 103.326 126.53 103.016 127.751C102.707 128.972 102.436 129.951 102.252 130.628C102.161 130.952 102.088 131.212 102.031 131.406C102.008 131.497 101.978 131.586 101.943 131.674C101.951 131.581 101.967 131.488 101.993 131.398C102.038 131.197 102.103 130.937 102.18 130.609L102.882 127.703C103.177 126.478 103.528 125.023 103.876 123.4C104.223 121.778 104.582 119.987 104.869 118.093C105.155 116.199 105.35 114.371 105.43 112.73C105.51 111.089 105.518 109.582 105.43 108.331C105.43 107.706 105.361 107.14 105.319 106.641C105.3 106.396 105.281 106.165 105.266 105.949C105.251 105.733 105.216 105.547 105.197 105.369C105.159 105.037 105.132 104.769 105.109 104.568C105.099 104.479 105.095 104.39 105.098 104.3Z" fill="#263238"/>
<path id="Vector_112" d="M62.7201 132.973C62.6938 132.92 62.6721 132.865 62.6552 132.809C62.617 132.686 62.5635 132.53 62.4986 132.329L62.2542 131.558C62.1853 131.208 62.0336 130.878 61.8111 130.594C61.484 130.289 61.0932 130.055 60.6652 129.91C60.1621 129.724 59.6432 129.582 59.1145 129.485C57.8542 129.258 56.5766 129.133 55.295 129.113H55.1919V129.016L56.3148 121.882C57.0367 117.39 57.6937 113.322 58.1711 110.344C58.4194 108.886 58.618 107.698 58.7593 106.857C58.8281 106.459 58.8854 106.143 58.9274 105.908C58.9274 105.811 58.9617 105.73 58.977 105.663C58.9797 105.634 58.9875 105.606 58.9999 105.581C59.0058 105.609 59.0058 105.638 58.9999 105.666C58.9999 105.733 58.9999 105.815 58.9694 105.916C58.9388 106.15 58.893 106.466 58.8395 106.868C58.7135 107.713 58.534 108.904 58.3163 110.367C57.8503 113.344 57.2162 117.405 56.5134 121.904C56.1009 124.472 55.7152 126.902 55.3676 129.035L55.2797 128.934C56.5769 128.967 57.8688 129.108 59.1413 129.355C59.6773 129.459 60.2026 129.61 60.7111 129.805C61.1566 129.965 61.5599 130.219 61.8913 130.55C62.0278 130.699 62.1294 130.876 62.1892 131.067L62.3306 131.562C62.4184 131.863 62.491 132.124 62.5521 132.34C62.6132 132.556 62.6514 132.712 62.6819 132.827C62.6993 132.875 62.7121 132.923 62.7201 132.973Z" fill="#263238"/>
<path id="Vector_113" d="M45.5901 136.009C45.6023 135.84 45.6357 135.672 45.6894 135.511C45.8095 135.062 45.9706 134.625 46.1707 134.204C46.822 132.799 47.8374 131.582 49.1171 130.675C50.3968 129.767 51.8968 129.199 53.4697 129.028C53.941 128.971 54.4165 128.956 54.8906 128.983C55.0656 128.985 55.2399 129.006 55.41 129.046C54.7717 129.05 54.1341 129.088 53.5003 129.162C51.9631 129.368 50.5021 129.942 49.2474 130.831C47.9926 131.721 46.9829 132.899 46.3082 134.26C46.0369 134.83 45.7972 135.414 45.5901 136.009Z" fill="#263238"/>
<path id="Vector_114" d="M48.4658 126.117C48.5631 126.093 48.6636 126.084 48.7637 126.091C49.038 126.086 49.3123 126.098 49.5849 126.128C50.4868 126.217 51.3707 126.432 52.2089 126.768C53.047 127.106 53.8315 127.559 54.5388 128.112C54.7533 128.277 54.9561 128.456 55.1461 128.648C55.2798 128.786 55.3524 128.864 55.3409 128.875C55.3295 128.886 55.0048 128.614 54.4548 128.22C53.0125 127.19 51.3345 126.518 49.5658 126.262C48.8898 126.165 48.4658 126.151 48.4658 126.117Z" fill="#263238"/>
<path id="Vector_115" d="M61.3377 100.411C61.3128 100.235 61.3038 100.057 61.311 99.879C61.311 99.5366 61.2881 99.0453 61.2423 98.4387C61.1276 96.8559 60.8486 95.2885 60.4096 93.7605C59.9644 92.2348 59.3643 90.7562 58.6183 89.3465C58.328 88.8069 58.0835 88.3751 57.904 88.0848C57.8034 87.9363 57.7165 87.7794 57.6443 87.6159C57.7662 87.7482 57.8749 87.8915 57.9689 88.0439C58.1714 88.3268 58.4349 88.7473 58.7328 89.2832C60.3225 92.0942 61.2244 95.2249 61.3683 98.4312C61.395 99.0416 61.3912 99.5478 61.3683 99.879C61.3762 100.057 61.366 100.235 61.3377 100.411Z" fill="#263238"/>
<g id="Group_8" opacity="0.3">
<path id="Vector_116" opacity="0.3" d="M104.532 120.97C107.702 115.734 107.771 108.93 105.002 103.478C105.893 109.287 105.701 115.205 104.437 120.948" fill="black"/>
</g>
<g id="Group_9" opacity="0.3">
<path id="Vector_117" opacity="0.3" d="M76.3061 126.891C73.8998 127.58 70.5769 127.747 68.2202 126.891C70.0574 129.433 73.5981 130.353 76.669 129.526C79.7398 128.7 82.5739 125.704 82.8107 122.604C81.3249 124.561 78.7162 126.214 76.3061 126.891Z" fill="black"/>
</g>
<path id="Vector_118" d="M85.1598 118.436C85.1487 118.507 85.1294 118.577 85.1025 118.644C85.0567 118.778 85.0032 118.983 84.8962 119.228C84.6178 119.939 84.2712 120.624 83.8611 121.271C83.2565 122.238 82.526 123.123 81.6879 123.906C79.6315 125.857 76.977 127.098 74.129 127.442C72.9778 127.588 71.8121 127.588 70.6609 127.442C69.8834 127.348 69.1163 127.185 68.3692 126.955C68.1019 126.876 67.9071 126.791 67.7696 126.742C67.6998 126.719 67.6321 126.691 67.5671 126.657C67.8446 126.718 68.1187 126.792 68.3883 126.88C71.6222 127.756 75.071 127.478 78.1128 126.095C81.1241 124.652 83.5031 122.204 84.816 119.195C85.0376 118.711 85.1407 118.428 85.1598 118.436Z" fill="#263238"/>
<path id="Vector_119" d="M58.3317 144.491C58.3317 144.491 58.305 144.532 58.2362 144.592C58.1401 144.685 58.0366 144.771 57.9269 144.849C57.5273 145.139 57.0841 145.367 56.6129 145.526C55.9124 145.753 55.1814 145.878 54.4435 145.898C53.5511 145.926 52.6579 145.895 51.7698 145.805C49.8601 145.645 48.1642 145.373 46.9381 145.161C46.3232 145.053 45.8267 144.96 45.4867 144.89C45.3057 144.866 45.1277 144.823 44.9558 144.763C45.1378 144.766 45.3192 144.783 45.4982 144.815L46.9611 145.024C48.1909 145.206 49.8944 145.452 51.7889 145.612C52.677 145.701 53.5699 145.737 54.4626 145.719C55.1855 145.705 55.9028 145.592 56.5938 145.385C57.2158 145.173 57.8017 144.872 58.3317 144.491Z" fill="#263238"/>
<path id="Vector_120" d="M101.469 46.569L103.039 45.0803C105.128 45.9661 106.095 48.3294 106.45 50.5252C106.805 52.721 106.752 55.0285 107.71 57.0456C108.444 58.5976 109.777 60.023 109.62 61.7387C109.471 63.3577 107.966 64.6677 107.959 66.2941C107.959 67.861 109.295 69.0631 110.075 70.4327C111.652 73.2054 112.676 84.5492 111.851 87.6196C104.911 87.0353 92.6194 86.3133 85.6755 84.7576C87.5051 73.1012 95.209 56.6511 101.469 46.569Z" fill="#263238"/>
<path id="Vector_121" d="M104.574 56.96C105.056 49.0365 99.1507 41.7865 90.9197 40.8301C82.1845 39.8177 74.4576 45.9139 73.7319 54.2059L71.6847 87.6791C71.6473 88.3261 71.8328 88.9666 72.2117 89.4991C74.2284 92.3722 77.8799 94.6202 81.1456 95.0631C84.3043 95.4911 87.5089 94.6909 90.1978 93.232C90.6438 92.9863 91.0158 92.6308 91.2766 92.201C91.5373 91.7712 91.6777 91.2823 91.6836 90.7831L91.8249 83.2912C91.8243 83.2847 91.8252 83.2782 91.8275 83.2721C91.8298 83.2659 91.8334 83.2604 91.8382 83.2558C91.8429 83.2511 91.8486 83.2476 91.8549 83.2454C91.8612 83.2431 91.8679 83.2423 91.8746 83.2429C92.5941 83.2957 93.3173 83.2758 94.0326 83.1833C96.0646 82.6995 101.248 80.7567 102.989 73.3431C103.57 70.8867 104.15 63.9085 104.574 56.96Z" fill="#FFBE9D"/>
<path id="Vector_122" d="M93.2761 67.9056C93.2761 67.8312 94.1279 67.7493 95.5067 67.6749C95.8543 67.6749 96.1866 67.6191 96.2706 67.3958C96.3219 67.0544 96.2632 66.7059 96.1026 66.3983L95.247 63.7931C94.0629 60.1012 93.2303 57.0754 93.3831 57.0345C93.5358 56.9935 94.6244 59.9449 95.8085 63.6368C96.0911 64.5486 96.3623 65.4158 96.622 66.242C96.729 66.6142 96.9238 67.0683 96.7137 67.5558C96.6552 67.6694 96.5707 67.7685 96.4668 67.8453C96.3628 67.9221 96.2421 67.9745 96.114 67.9987C95.9192 68.0365 95.7203 68.0502 95.522 68.0396C94.1317 68.0322 93.2799 67.9801 93.2761 67.9056Z" fill="#263238"/>
<path id="Vector_123" d="M102.329 59.7625C102.18 59.9225 101.278 59.1856 99.9874 59.1484C98.6964 59.1112 97.7339 59.7699 97.5964 59.5987C97.5277 59.5206 97.6843 59.2266 98.1044 58.9214C98.6595 58.5326 99.331 58.3337 100.014 58.3557C100.697 58.3786 101.351 58.6236 101.874 59.0516C102.275 59.3866 102.424 59.6918 102.329 59.7625Z" fill="#263238"/>
<path id="Vector_124" d="M89.2123 60.0825C89.0366 60.2426 88.097 59.4126 86.6876 59.2935C85.2782 59.1744 84.182 59.8034 84.0407 59.6173C83.9719 59.5317 84.1629 59.2451 84.6404 58.94C85.2801 58.5706 86.0238 58.409 86.764 58.4785C87.5049 58.5425 88.2045 58.8389 88.7578 59.3233C89.1741 59.6843 89.2963 60.0118 89.2123 60.0825Z" fill="#263238"/>
<path id="Vector_125" d="M91.8252 83.2391C91.8252 83.2391 86.5619 83.295 80.2673 79.082C80.2673 79.082 81.8944 85.8481 91.7831 85.6359L91.8252 83.2391Z" fill="#EB996E"/>
<path id="Vector_126" d="M92.4933 70.9947C92.2535 70.6652 91.9328 70.3995 91.5605 70.222C91.1882 70.0445 90.7761 69.9609 90.362 69.9786C90.063 69.9829 89.7679 70.0457 89.4942 70.1634C89.2206 70.281 88.9741 70.4511 88.7693 70.6634C88.5737 70.8668 88.4483 71.1247 88.4106 71.401C88.373 71.6773 88.4249 71.9581 88.5592 72.2042C88.8915 72.7215 89.6477 72.889 90.3085 72.755C90.9629 72.5806 91.5755 72.2821 92.1113 71.8767C92.2704 71.7775 92.4101 71.6515 92.5238 71.5045C92.5776 71.4359 92.6092 71.3533 92.6146 71.2672C92.62 71.181 92.5991 71.0952 92.5544 71.0207" fill="#EB996E"/>
<path id="Vector_127" d="M89.2275 68.5271C89.449 68.5271 89.3612 69.9414 90.5528 71.0281C91.7445 72.1149 93.322 72.0628 93.322 72.26C93.322 72.3531 92.94 72.5131 92.2907 72.4833C91.4299 72.4367 90.6121 72.1014 89.9761 71.5343C89.3703 70.9945 89.0056 70.245 88.9601 69.4464C88.941 68.8546 89.1282 68.5271 89.2275 68.5271Z" fill="#263238"/>
<path id="Vector_128" d="M89.4378 54.8945C89.2774 55.2369 87.9368 54.9726 86.3364 55.0359C84.736 55.0992 83.4183 55.4081 83.2273 55.0917C83.1471 54.9317 83.3915 54.6191 83.9377 54.3139C84.664 53.9452 85.4661 53.7405 86.2846 53.7147C87.1031 53.6889 87.9171 53.8428 88.6663 54.165C89.2201 54.433 89.4913 54.7307 89.4378 54.8945Z" fill="#263238"/>
<path id="Vector_129" d="M102.607 55.1736C102.332 55.4713 101.244 55.1736 99.9337 55.1736C98.6236 55.1736 97.5236 55.3857 97.26 55.0768C97.1454 54.928 97.3173 54.6302 97.7986 54.3325C98.4648 53.9923 99.2087 53.822 99.9608 53.8376C100.713 53.8532 101.449 54.0542 102.099 54.4218C102.573 54.7233 102.73 55.0285 102.607 55.1736Z" fill="#263238"/>
<path id="Vector_130" d="M92.1114 39.1553C91.4009 37.9792 90.0832 37.4433 88.6089 37.2274C82.5893 36.3379 75.8746 39.8698 72.502 44.8049C69.1294 49.7399 68.9499 57.1052 71.4173 62.524L75.1719 60.2389C82.7077 57.2094 88.0283 50.1344 92.8753 42.8249C93.5513 41.8312 92.7416 40.1788 92.1114 39.1553Z" fill="#263238"/>
<path id="Vector_131" d="M101.385 42.382C98.868 39.5907 97.0385 36.7994 91.8134 38.7496C91.0495 40.175 92.5773 42.0247 93.8912 43.104C95.801 44.6895 97.4395 45.7576 98.6847 46.8928C101.198 49.1816 104.055 56.8819 104.303 61.0837C104.303 61.3479 104.781 57.4773 105.067 57.4364C105.419 57.3843 106.836 55.6946 106.641 53.3872C105.969 45.5008 103.902 45.1696 101.385 42.382Z" fill="#263238"/>
<path id="Vector_132" d="M88.6244 37.2274C89.0169 37.1528 89.4229 37.1863 89.797 37.3241C90.7216 37.6005 91.5459 38.1286 92.1727 38.8463C92.3517 39.0481 92.5103 39.2662 92.6463 39.4976C92.765 39.7212 92.8572 39.9572 92.9213 40.201C93.0576 40.5942 93.1611 40.9975 93.2307 41.4069C93.3338 42.1252 93.1581 42.5606 93.1199 42.5494C93.0817 42.5383 93.139 42.1103 92.9786 41.4515C92.8726 41.0618 92.7451 40.6779 92.5966 40.3015C92.5288 40.0815 92.4392 39.8683 92.3293 39.6651C92.2001 39.4518 92.0519 39.25 91.8862 39.0622C91.2949 38.3946 90.5466 37.8762 89.7053 37.5512C89.056 37.3241 88.6167 37.2869 88.6244 37.2274Z" fill="#455A64"/>
<path id="Vector_133" d="M101.137 62.2002C101.137 62.4857 101.025 62.7605 100.824 62.9682C100.623 63.1758 100.348 63.3006 100.056 63.3167C99.9105 63.33 99.764 63.3148 99.6248 63.2722C99.4856 63.2296 99.3566 63.1603 99.2452 63.0684C99.1339 62.9766 99.0425 62.864 98.9764 62.7373C98.9103 62.6106 98.8708 62.4723 98.8602 62.3305C98.8528 62.0405 98.9615 61.7591 99.1632 61.5459C99.365 61.3326 99.644 61.2042 99.9411 61.1879C100.089 61.1741 100.237 61.1897 100.379 61.2338C100.52 61.2778 100.65 61.3493 100.762 61.444C100.874 61.5387 100.965 61.6546 101.029 61.7846C101.093 61.9146 101.13 62.056 101.137 62.2002Z" fill="#263238"/>
<path id="Vector_134" d="M88.5555 62.2598C88.5629 62.5497 88.4542 62.8311 88.2525 63.0444C88.0507 63.2576 87.7717 63.386 87.4745 63.4023C87.3295 63.4161 87.1831 63.4015 87.0439 63.3593C86.9047 63.3171 86.7757 63.2482 86.6643 63.1566C86.5528 63.065 86.4614 62.9527 86.3952 62.8261C86.3291 62.6996 86.2895 62.5615 86.279 62.4198C86.2706 62.1292 86.3788 61.8469 86.5807 61.6328C86.7825 61.4188 87.0621 61.2899 87.3599 61.2735C87.5053 61.2597 87.652 61.2745 87.7914 61.317C87.9308 61.3594 88.06 61.4286 88.1715 61.5206C88.283 61.6125 88.3744 61.7253 88.4403 61.8523C88.5063 61.9793 88.5454 62.1178 88.5555 62.2598Z" fill="#263238"/>
<path id="Vector_135" d="M53.9357 71.5752C54.6461 70.4364 55.4635 69.3645 56.7621 68.8918C58.0607 68.4192 59.5351 68.1475 60.5549 67.2245C62.1552 65.7917 62.0827 63.4097 61.9375 61.333C61.7924 59.2563 61.7542 56.8669 63.3889 55.4713C64.7563 54.3064 66.9296 54.2022 68.1137 52.8661C68.9043 51.9766 69.0609 50.7484 69.3359 49.6133C70.0998 46.5726 71.8071 41.2617 81.0045 38.2062L72.8689 68.3299C73.4762 68.4973 74.9277 69.8446 75.0079 70.7564C75.0804 71.6087 74.7023 72.4721 74.6947 73.3281C74.6947 74.374 75.8634 74.9992 76.6044 75.7733C77.544 76.7596 77.8343 78.1813 77.6892 79.4951C77.3879 81.2906 76.8951 83.0506 76.2187 84.7464C68.6713 84.0021 57.6559 83.7639 51.9037 79.0745C50.861 78.2259 52.3544 74.1097 53.9357 71.5752Z" fill="#263238"/>
<path id="Vector_136" d="M75.1871 60.2389C75.0458 60.1644 69.4884 58.0058 69.1332 63.7187C68.778 69.4315 74.725 68.583 74.7441 68.4229C74.7632 68.2629 75.1871 60.2389 75.1871 60.2389Z" fill="#FFBE9D"/>
<path id="Vector_137" d="M73.094 66.1601C73.0672 66.1378 72.987 66.2234 72.8075 66.2867C72.5591 66.3752 72.285 66.3659 72.0436 66.2606C71.4401 66.0001 70.9779 65.0138 71.0123 63.9866C71.0317 63.4972 71.1622 63.018 71.3943 62.5836C71.4608 62.409 71.5695 62.2527 71.7111 62.1277C71.8527 62.0027 72.0231 61.9127 72.2078 61.8653C72.3269 61.8421 72.4506 61.8603 72.5574 61.9167C72.6641 61.9731 72.7472 62.0642 72.7922 62.1742C72.861 62.3379 72.8151 62.4496 72.8457 62.4607C72.8762 62.4719 72.9794 62.3714 72.945 62.1332C72.923 61.9895 72.85 61.8578 72.7387 61.7611C72.5856 61.6325 72.3865 61.5682 72.1849 61.5824C71.942 61.6139 71.7114 61.7057 71.5154 61.8491C71.3194 61.9925 71.1646 62.1826 71.0658 62.4012C70.7867 62.8812 70.6319 63.4203 70.6151 63.9718C70.5807 65.1218 71.1154 66.2309 71.9481 66.5174C72.102 66.5719 72.2666 66.5916 72.4294 66.5748C72.5922 66.558 72.7489 66.5053 72.8877 66.4207C73.0749 66.2941 73.113 66.1713 73.094 66.1601Z" fill="#EB996E"/>
<path id="Vector_138" d="M95.9844 61.7312C96.0154 61.3019 96.0779 60.8753 96.1715 60.4547C96.3482 59.7509 96.6736 59.0907 97.1269 58.5163C97.5802 57.9419 98.1515 57.466 98.8042 57.1189C99.457 56.7718 100.177 56.5612 100.918 56.5005C101.659 56.4398 102.405 56.5304 103.108 56.7665C103.592 56.9256 104.048 57.1566 104.46 57.4513C104.9 57.7475 105.287 58.1121 105.606 58.5306C106.29 59.4038 106.669 60.4678 106.687 61.5664C106.705 62.665 106.361 63.7403 105.705 64.6342C105.402 65.0615 105.031 65.4385 104.605 65.7507C104.204 66.0589 103.755 66.3038 103.276 66.4764C102.39 66.8091 101.428 66.9042 100.491 66.7518C99.6745 66.6205 98.9011 66.303 98.2341 65.8251C97.2575 65.1329 96.5485 64.1405 96.2212 63.0078C96.1158 62.589 96.0392 62.1637 95.992 61.735C95.9904 61.7635 95.9904 61.792 95.992 61.8206C95.992 61.8913 95.992 61.9731 95.992 62.0736C95.9953 62.2097 96.0094 62.3453 96.034 62.4793C96.055 62.6641 96.0907 62.847 96.141 63.0264C96.4475 64.1917 97.1554 65.2191 98.1462 65.9368C98.8799 66.4718 99.7407 66.8172 100.648 66.9408C101.556 67.0644 102.481 66.9623 103.337 66.6439C104.353 66.2696 105.232 65.6088 105.862 64.7458C106.543 63.8198 106.9 62.7049 106.882 61.5658C106.863 60.4266 106.469 59.3234 105.758 58.4189C105.428 57.9875 105.028 57.6106 104.574 57.3024C104.151 57.0062 103.683 56.7752 103.188 56.6176C102.322 56.326 101.394 56.2526 100.492 56.4042C99.5887 56.5558 98.7398 56.9275 98.024 57.4847C97.055 58.2337 96.3805 59.2852 96.1142 60.4621C96.0705 60.6434 96.0399 60.8275 96.0226 61.0129C96.0039 61.1486 95.9949 61.2854 95.9958 61.4223C95.9958 61.5228 95.9958 61.6047 95.9958 61.6717C95.9911 61.6914 95.9873 61.7112 95.9844 61.7312Z" fill="#455A64"/>
<path id="Vector_139" d="M81.2261 61.962C81.2567 61.5329 81.318 61.1063 81.4094 60.6854C81.6967 59.5438 82.3692 58.5293 83.3192 57.8048C83.9709 57.3069 84.7337 56.9652 85.5459 56.8074C86.4774 56.628 87.4411 56.6935 88.338 56.9972C88.8215 57.1579 89.2773 57.3888 89.6901 57.682C90.1292 57.9793 90.5161 58.3438 90.836 58.7613C91.5195 59.634 91.8982 60.6971 91.9168 61.7947C91.9353 62.8924 91.5927 63.967 90.9391 64.8612C90.6346 65.2884 90.262 65.6653 89.8352 65.9777C89.434 66.2861 88.9855 66.531 88.5061 66.7035C87.6199 67.0361 86.6584 67.1312 85.7216 66.9789C84.9059 66.8477 84.1337 66.5301 83.4681 66.0522C82.4908 65.3599 81.7805 64.3677 81.4514 63.2348C81.3461 62.8162 81.2708 62.3909 81.2261 61.962C81.222 61.9904 81.222 62.0192 81.2261 62.0476C81.2261 62.1146 81.2261 62.2002 81.2261 62.3007C81.2259 62.4368 81.2387 62.5726 81.2643 62.7063C81.2848 62.8915 81.3219 63.0746 81.375 63.2534C81.6784 64.4201 82.387 65.4485 83.3803 66.1638C84.0559 66.6582 84.8406 66.9921 85.672 67.1389C86.638 67.3011 87.6311 67.2086 88.5481 66.871C89.5661 66.4995 90.4457 65.8381 91.0728 64.9729C91.7538 64.0468 92.1114 62.932 92.0929 61.7928C92.0743 60.6537 91.6805 59.5505 90.9696 58.6459C90.3126 57.8023 89.4123 57.1686 88.3838 56.826C87.456 56.5171 86.4601 56.4567 85.5001 56.6511C84.4776 56.8559 83.5375 57.3437 82.7923 58.0559C82.0471 58.7682 81.5285 59.6747 81.2986 60.6668C81.2512 60.8474 81.2205 61.0317 81.207 61.2177C81.1843 61.3529 81.1754 61.4901 81.1802 61.627V61.8764C81.1889 61.9078 81.2046 61.9371 81.2261 61.962Z" fill="#455A64"/>
<path id="Vector_140" d="M91.7678 61.5713C91.7984 61.5899 91.9512 61.348 92.3064 61.0688C92.7617 60.7009 93.332 60.4949 93.9234 60.4847C94.5149 60.4746 95.0923 60.6609 95.5606 61.013C95.9425 61.2772 96.0877 61.5154 96.1144 61.4931C96.0195 61.258 95.8578 61.0541 95.6484 60.9051C95.1701 60.497 94.5528 60.2774 93.9171 60.2891C93.2815 60.3008 92.6731 60.543 92.2109 60.9683C92.0081 61.1248 91.8545 61.3338 91.7678 61.5713Z" fill="#455A64"/>
<path id="Vector_141" d="M73.8428 59.8742C74.1943 59.9828 74.5566 60.0551 74.9237 60.09C75.5997 60.1942 76.5355 60.291 77.5668 60.3803L80.2137 60.6111C80.5764 60.6655 80.9429 60.6928 81.3099 60.6929C80.9584 60.5834 80.5961 60.5098 80.229 60.4733C79.5568 60.3729 78.621 60.2761 77.5859 60.1868L74.9428 59.956C74.5791 59.8993 74.2111 59.8719 73.8428 59.8742Z" fill="#455A64"/>
<path id="Vector_142" d="M104.51 64.9505C104.986 64.4138 105.373 63.8072 105.656 63.153C105.877 62.4756 105.99 61.7686 105.988 61.0576C106.073 61.2579 106.112 61.4738 106.103 61.6903C106.116 62.2116 106.028 62.7307 105.843 63.2199C105.658 63.7093 105.378 64.1592 105.018 64.5449C104.739 64.8352 104.525 64.9692 104.51 64.9505Z" fill="white"/>
<path id="Vector_143" d="M105.433 59.0703C105.464 59.0256 105.682 59.1335 105.815 59.3866C105.949 59.6397 105.892 59.8704 105.838 59.8667C105.785 59.863 105.739 59.6732 105.636 59.4685C105.533 59.2638 105.399 59.1112 105.433 59.0703Z" fill="white"/>
<path id="Vector_144" d="M91.0265 63.8229C90.9959 63.8229 91.1029 63.5251 91.1907 63.045C91.4159 61.7857 91.1678 60.4895 90.4918 59.394C90.2359 58.9772 90.0296 58.7465 90.0525 58.7241C90.2776 58.8841 90.4672 59.0866 90.6102 59.3196C90.9937 59.8607 91.2574 60.4738 91.3843 61.1197C91.5112 61.7656 91.4986 62.4302 91.3473 63.0711C91.2935 63.3402 91.1844 63.5959 91.0265 63.8229Z" fill="white"/>
<path id="Vector_145" d="M70.7221 68.3448C70.7221 68.3448 70.6419 68.4564 70.5273 68.6611C70.363 68.9519 70.2763 69.2782 70.2752 69.6102C70.2691 69.8508 70.3141 70.0901 70.4074 70.313C70.5008 70.5359 70.6404 70.7376 70.8176 70.9053C71.0313 71.1123 71.2921 71.267 71.5789 71.3569C71.8657 71.4468 72.1702 71.4693 72.4676 71.4227C72.7631 71.3634 73.0404 71.2381 73.2777 71.0566C73.515 70.8751 73.7057 70.6424 73.835 70.3769C73.9394 70.1587 73.997 69.922 74.0042 69.6814C74.0115 69.4408 73.9682 69.2012 73.877 68.9775C73.7565 68.6678 73.5598 68.3918 73.3041 68.1736C73.1207 68.021 72.9985 67.9577 73.0062 67.9428C73.1324 67.9744 73.2498 68.0328 73.3499 68.114C73.6413 68.3205 73.8686 68.6012 74.0069 68.9254C74.1176 69.1653 74.1748 69.4253 74.1748 69.6883C74.1748 69.9514 74.1176 70.2114 74.0069 70.4513C73.8754 70.7504 73.6698 71.013 73.4085 71.2156C73.1472 71.4181 72.8384 71.5543 72.5097 71.6118C72.1811 71.6694 71.8429 71.6465 71.5256 71.5453C71.2082 71.4441 70.9216 71.2677 70.6915 71.0319C70.5012 70.8458 70.3534 70.6226 70.258 70.3769C70.1625 70.1313 70.1215 69.8687 70.1377 69.6065C70.1509 69.256 70.2633 68.916 70.4624 68.6239C70.5961 68.4192 70.7221 68.3373 70.7221 68.3448Z" fill="#E0E0E0"/>
<path id="Vector_146" d="M102.985 72.7364C103.309 72.8624 103.665 72.8833 104.001 72.796C104.361 72.6978 104.685 72.5031 104.937 72.234C105.247 71.9077 105.457 71.5026 105.541 71.0654C105.628 70.628 105.572 70.1748 105.38 69.7702C105.223 69.4385 104.989 69.1468 104.697 68.9179C104.414 68.7169 104.106 68.5529 103.78 68.4304C103.877 68.4219 103.975 68.4346 104.066 68.4676C104.325 68.5375 104.568 68.6522 104.784 68.8063C105.109 69.0386 105.371 69.3437 105.548 69.6958C105.766 70.1309 105.833 70.6234 105.739 71.0989C105.646 71.5742 105.412 72.0126 105.067 72.3605C104.787 72.6452 104.427 72.8432 104.032 72.93C103.767 72.9908 103.49 72.9766 103.234 72.889C103.054 72.8183 102.978 72.7439 102.985 72.7364Z" fill="#E0E0E0"/>
<path id="Vector_147" d="M81.7987 146.635L87.463 148.269C87.463 148.269 90.5874 149.575 92.1075 149.914C93.9944 150.334 95.2815 149.765 95.3503 148.742C95.419 147.718 93.9523 147.588 93.9523 147.588C92.7057 147.125 91.4934 146.579 90.3238 145.954C89.4745 145.379 88.7801 144.613 88.2995 143.721L90.3238 143.993C90.3238 143.993 94.5826 146.97 96.1868 147.871C97.791 148.771 98.1423 147.19 98.2798 146.713C98.4173 146.237 93.536 141.41 93.536 141.41C93.536 141.41 98.2111 144.335 99.0476 145.064C99.884 145.794 101.144 146.032 101.423 145.559C101.702 145.087 102.47 145.083 101.423 143.066C100.377 141.049 92.0006 135.622 92.0006 135.622L94.2923 135.146L96.8055 136.236C96.9805 137.077 97.3373 137.871 97.8521 138.566C98.7573 139.876 100.365 138.566 100.365 138.566L99.3684 133.542L94.403 130.512C94.403 130.512 89.2391 131.127 88.4714 131.465C87.7036 131.804 86.8633 133.229 86.8633 133.229L85.4692 133.78C83.3036 134.391 83.3761 136.501 82.6772 136.568C81.9782 136.635 61.6049 132.764 61.6049 132.764L59.7601 132.295C56.7045 134.554 55.4861 138.287 54.9475 141.6C54.9475 141.6 54.3861 143.222 54.9475 144.115L81.7987 146.635Z" fill="#FFBE9D"/>
<path id="Vector_148" d="M78.0595 143.103C78.0354 142.997 78.029 142.888 78.0404 142.779C78.039 142.654 78.0506 142.53 78.0748 142.407C78.0926 142.238 78.1258 142.071 78.1741 141.908C78.4609 140.969 78.9462 140.098 79.5988 139.352C80.2325 138.602 80.9385 137.912 81.7071 137.293C82.0117 137.023 82.3431 136.782 82.6964 136.575C82.4138 136.86 82.1141 137.129 81.7988 137.379C81.0642 138.021 80.3798 138.715 79.7516 139.456C79.1173 140.186 78.6289 141.025 78.3116 141.931C78.0863 142.642 78.1015 143.107 78.0595 143.103Z" fill="#EB996E"/>
<path id="Vector_149" d="M86.8823 133.229C86.8823 133.229 86.7143 133.315 86.4546 133.52C86.0925 133.818 85.7795 134.168 85.5264 134.558C85.3437 134.822 85.1877 135.102 85.0604 135.395C84.943 135.74 84.8686 136.098 84.8389 136.46C84.7864 136.881 84.6319 137.284 84.3882 137.636C84.1118 137.976 83.8843 138.352 83.7121 138.752C83.4506 139.429 83.4506 140.175 83.7121 140.851L83.7389 140.922L83.674 140.963C82.7884 141.52 82.1472 142.379 81.875 143.371C81.7811 143.762 81.7236 144.161 81.7031 144.562C81.6721 144.458 81.6592 144.35 81.6649 144.242C81.6608 143.94 81.6941 143.639 81.7642 143.345C82.0079 142.303 82.6568 141.393 83.5746 140.807L83.5365 140.918C83.26 140.199 83.26 139.405 83.5365 138.685C83.7127 138.273 83.9494 137.889 84.2392 137.543C84.4715 137.209 84.6183 136.827 84.667 136.426C84.7131 135.717 84.9795 135.038 85.4309 134.48C85.7005 134.084 86.0392 133.738 86.4316 133.456C86.5373 133.379 86.6529 133.315 86.7754 133.267C86.8093 133.25 86.8452 133.237 86.8823 133.229Z" fill="#EB996E"/>
<path id="Vector_150" d="M91.7869 135.455C91.2982 135.517 90.8014 135.465 90.3369 135.305C89.8724 135.145 89.4532 134.88 89.1133 134.532C89.1515 134.487 89.6633 134.871 90.4005 135.12C91.1376 135.369 91.7869 135.399 91.7869 135.455Z" fill="#EB996E"/>
<path id="Vector_151" d="M93.093 140.952C92.3554 140.75 91.6382 140.484 90.9502 140.156C90.2356 139.888 89.5456 139.562 88.8877 139.18C89.6234 139.387 90.3401 139.654 91.0304 139.977C91.7451 140.244 92.4351 140.57 93.093 140.952Z" fill="#EB996E"/>
<path id="Vector_152" d="M88.4983 143.669C87.7568 143.424 87.0322 143.133 86.3289 142.798C86.7275 142.815 87.118 142.914 87.4747 143.088C87.8553 143.207 88.2048 143.405 88.4983 143.669Z" fill="#EB996E"/>
<path id="Vector_153" d="M92.3905 141.306C92.0617 141.477 91.7725 141.713 91.5406 141.998C91.3087 142.283 91.1391 142.611 91.0422 142.962C91.0155 142.962 90.9926 142.831 91.0422 142.623C91.0963 142.35 91.2167 142.094 91.3935 141.875C91.5703 141.657 91.7982 141.483 92.0582 141.369C92.2453 141.291 92.3829 141.283 92.3905 141.306Z" fill="#EB996E"/>
<path id="Vector_154" d="M94.4378 138.287C94.4607 138.339 94.0864 138.525 93.8343 138.942C93.706 139.207 93.5987 139.48 93.5135 139.761C93.4593 139.607 93.4449 139.443 93.4715 139.283C93.4982 139.122 93.5651 138.971 93.6663 138.842C93.9565 138.365 94.4302 138.235 94.4378 138.287Z" fill="#EB996E"/>
<path id="Vector_155" d="M93.8606 132.82C93.8415 132.82 93.7651 132.734 93.7078 132.556C93.6391 132.312 93.6391 132.055 93.7078 131.811C93.7744 131.571 93.9064 131.352 94.0898 131.179C94.2273 131.048 94.3419 131.004 94.3533 131.022C94.1712 131.282 94.0236 131.564 93.9141 131.86C93.8573 132.177 93.8393 132.499 93.8606 132.82Z" fill="#EB996E"/>
<path id="Vector_156" d="M135.153 134.532C135.153 134.532 134.897 129.649 129.703 128.637C124.508 127.624 115.41 131.927 115.41 131.927L89.9189 149.237L90.6828 151.376L116.556 147.863L118.924 148.749L137.097 137.115L154.247 125.034L152.337 123.579C152.337 123.579 147.532 126.806 144.355 128.194C141.177 129.582 136.582 132.016 135.153 134.532Z" fill="#F5F5F5"/>
<path id="Vector_157" d="M89.5256 152.084L111.098 139.024L133.904 135.455C133.904 135.455 135.05 137.07 136.987 136.676L155.741 124.022L156.096 124.785L119.726 149.683C119.192 149.873 118.615 149.918 118.057 149.811C117.499 149.705 116.981 149.452 116.56 149.08L89.5256 152.084Z" fill="#455A64"/>
<path id="Vector_158" d="M133.904 135.455C133.853 135.51 133.794 135.557 133.729 135.596L133.202 135.969C132.743 136.289 132.083 136.754 131.292 137.342C129.672 138.514 127.472 140.185 125.097 142.08C122.721 143.974 120.586 145.734 119.058 147.018L117.236 148.544L116.74 148.954C116.686 149.006 116.626 149.051 116.56 149.088C116.56 149.088 116.606 149.028 116.713 148.928L117.183 148.488C117.595 148.116 118.195 147.573 118.951 146.922C120.456 145.612 122.568 143.84 124.955 141.938C127.343 140.036 129.539 138.384 131.193 137.238C132.01 136.661 132.686 136.214 133.16 135.913L133.706 135.57C133.768 135.526 133.835 135.487 133.904 135.455Z" fill="#263238"/>
<path id="Vector_159" d="M133.671 132.738C131.605 130.576 128.351 129.805 125.326 130.036C122.301 130.267 119.432 131.365 116.61 132.455L90.2207 150.055L90.4575 150.718L116.988 133.226C116.988 133.226 122.916 131.365 125.54 131.045C129.924 130.512 133.671 132.738 133.671 132.738Z" fill="#E0E0E0"/>
<path id="Vector_160" d="M137.812 135.053L150.5 126.713C150.5 126.713 140.103 131.983 137.812 135.053Z" fill="#E0E0E0"/>
<path id="Vector_161" d="M90.2207 150.055C90.2531 150.023 90.289 149.994 90.3276 149.97L90.6561 149.743L91.9204 148.876L96.5955 145.719L112.064 135.369L116.556 132.392C119.112 131.268 121.809 130.479 124.577 130.044C126.813 129.736 129.093 130.049 131.154 130.948C131.925 131.297 132.635 131.762 133.259 132.325C133.725 132.748 134.122 133.239 134.435 133.78C134.632 134.119 134.786 134.48 134.894 134.856C134.92 134.979 134.943 135.075 134.962 135.15C134.971 135.183 134.977 135.216 134.981 135.25C134.844 134.748 134.641 134.265 134.378 133.814C134.057 133.287 133.658 132.809 133.194 132.396C132.569 131.85 131.863 131.398 131.101 131.056C129.059 130.191 126.811 129.897 124.608 130.207C121.862 130.646 119.186 131.43 116.648 132.541H116.667L112.175 135.518L96.6948 145.831L91.9815 148.939L90.6981 149.772L90.3582 149.988C90.3149 150.015 90.2688 150.038 90.2207 150.055Z" fill="#263238"/>
<path id="Vector_162" d="M113.321 136.75C113.381 136.702 113.448 136.661 113.519 136.631C113.653 136.56 113.852 136.452 114.108 136.326C114.623 136.065 115.376 135.701 116.323 135.284C118.779 134.162 121.386 133.384 124.065 132.973C126.759 132.576 129.511 132.822 132.086 133.687C132.86 133.959 133.603 134.307 134.305 134.725C134.557 134.867 134.737 135.005 134.863 135.098C134.93 135.138 134.992 135.184 135.05 135.235C135.05 135.235 134.771 135.079 134.267 134.8C133.556 134.411 132.811 134.086 132.04 133.829C129.477 133.009 126.752 132.786 124.084 133.177C121.424 133.587 118.831 134.338 116.373 135.41C115.422 135.812 114.661 136.155 114.134 136.397L113.531 136.668C113.464 136.702 113.393 136.73 113.321 136.75Z" fill="#263238"/>
<path id="Vector_163" d="M153.567 124.509C153.567 124.509 153.514 124.558 153.403 124.632L152.91 124.952L151.081 126.099C149.53 127.066 147.395 128.402 145.054 129.906C142.712 131.409 140.619 132.79 139.091 133.795L137.285 134.979L136.788 135.295C136.733 135.334 136.672 135.367 136.609 135.392C136.656 135.343 136.708 135.299 136.765 135.261L137.243 134.915C137.655 134.618 138.259 134.197 139.011 133.68C140.516 132.649 142.609 131.246 144.954 129.742C147.299 128.239 149.45 126.921 151.016 125.983C151.799 125.514 152.437 125.142 152.88 124.889L153.395 124.599C153.45 124.564 153.507 124.534 153.567 124.509Z" fill="#263238"/>
<path id="Vector_164" d="M142.025 137.893C141.766 138.5 141.436 139.077 141.043 139.612C140.554 140.178 138.958 140.967 138.832 142.042C138.706 143.118 138.965 145.641 137.239 147.562C136.126 148.756 134.718 149.653 133.148 150.167L126.338 149.519L115.46 145.347C115.217 145.287 115.008 145.137 114.878 144.928C114.748 144.719 114.707 144.469 114.765 144.231C114.832 143.972 114.977 143.739 115.182 143.562C115.386 143.384 115.64 143.27 115.911 143.233L116.171 143.192C116.171 143.192 115.544 142.694 116.442 141.819C117.206 141.075 118.837 141.495 119.677 141.767C120.517 142.039 125.444 144.045 126.327 144.354C127.11 144.625 127.713 144.867 127.713 144.867C127.713 144.867 121.407 140.721 121.319 140.178C121.216 139.526 121.285 139.229 121.93 138.775C122.694 138.235 123.947 138.812 125.162 139.311C126.067 139.683 131.838 142.459 131.838 142.459C131.838 142.459 132.098 142.214 131.838 141.715C131.578 141.216 129.661 138.812 129.359 138.365C129.058 137.919 128.977 137.666 129.279 137.29C129.699 136.758 130.807 136.504 131.827 137.413C132.472 137.993 134.768 139.497 134.768 139.497L145.363 131.964C145.363 131.964 146.681 131.93 146.222 133.721C145.764 135.511 142.025 137.893 142.025 137.893Z" fill="#FFBE9D"/>
<path id="Vector_165" d="M134.126 144.171C133.702 144.08 133.307 143.89 132.975 143.617C132.642 143.345 132.382 142.999 132.216 142.608C132.266 142.578 132.575 143.04 133.102 143.468C133.629 143.896 134.153 144.115 134.126 144.171Z" fill="#EB996E"/>
<path id="Vector_166" d="M134.997 139.679C134.997 139.657 135.138 139.616 135.379 139.646C135.679 139.688 135.962 139.81 136.195 139.999C136.429 140.187 136.605 140.434 136.704 140.714C136.777 140.93 136.766 141.086 136.739 141.086C136.579 140.738 136.35 140.425 136.067 140.163C135.746 139.936 135.382 139.771 134.997 139.679Z" fill="#EB996E"/>
<path id="Vector_167" d="M135.497 141.752C135.44 141.752 135.413 141.198 135.188 140.565C134.962 139.932 134.645 139.467 134.691 139.448C135.027 139.727 135.265 140.1 135.375 140.517C135.545 140.906 135.588 141.338 135.497 141.752Z" fill="#EB996E"/>
<path id="Vector_168" d="M141.765 137.357C141.765 137.375 141.631 137.301 141.494 137.122C141.319 136.885 141.21 136.608 141.177 136.318C141.143 136.029 141.187 135.735 141.303 135.466C141.394 135.265 141.497 135.165 141.516 135.18C141.38 135.536 141.332 135.919 141.375 136.297C141.418 136.675 141.552 137.038 141.765 137.357Z" fill="#EB996E"/>
<path id="Vector_169" d="M132.189 146.769C131.944 146.824 131.69 146.824 131.445 146.769C130.851 146.667 130.282 146.46 129.764 146.159C129.249 145.864 128.764 145.521 128.316 145.135C128.117 144.993 127.941 144.822 127.793 144.629C128.013 144.737 128.218 144.87 128.404 145.027C128.87 145.377 129.357 145.699 129.863 145.991C130.365 146.281 130.906 146.497 131.471 146.635C131.907 146.724 132.189 146.739 132.189 146.769Z" fill="#EB996E"/>
<path id="Vector_170" d="M133.962 145.705C134.016 145.705 134.019 146.077 133.699 146.386C133.378 146.695 132.988 146.68 132.996 146.628C133.003 146.575 133.297 146.501 133.557 146.255C133.817 146.01 133.905 145.697 133.962 145.705Z" fill="#EB996E"/>
<path id="Vector_171" d="M136.563 143.844C136.586 143.844 136.586 143.944 136.513 144.078C136.413 144.243 136.262 144.373 136.082 144.45C135.903 144.535 135.701 144.564 135.505 144.532C135.352 144.502 135.276 144.443 135.287 144.421C135.299 144.398 135.639 144.45 135.998 144.275C136.357 144.101 136.509 143.825 136.563 143.844Z" fill="#EB996E"/>
<path id="Vector_172" d="M127.388 148.068C127.369 148.116 124.837 147.089 121.735 145.768C118.634 144.447 116.136 143.334 116.174 143.289C116.212 143.245 118.73 144.272 121.831 145.593C124.932 146.914 127.411 148.019 127.388 148.068Z" fill="#EB996E"/>
</g>
<g id="Desk">
<path id="Vector_173" d="M172 151.388C172 151.44 133.492 151.484 86.0038 151.484C38.5159 151.484 0 151.44 0 151.388C0 151.336 38.5006 151.291 86.0038 151.291C133.507 151.291 172 151.332 172 151.388Z" fill="#263238"/>
</g>
<g id="Device">
<path id="Vector_174" d="M4.91944 111.74L13.2078 151.388H85.1482C85.529 151.388 85.8943 151.24 86.1637 150.978C86.433 150.716 86.5843 150.36 86.5843 149.988C86.5848 149.804 86.548 149.622 86.4761 149.452C86.4041 149.282 86.2984 149.127 86.165 148.997C86.0316 148.866 85.8731 148.763 85.6986 148.692C85.5241 148.622 85.3371 148.585 85.1482 148.585H70.6646L62.9797 111.699C62.9086 111.355 62.7177 111.045 62.4394 110.822C62.1611 110.599 61.8123 110.477 61.4519 110.475L6.4778 109.902C6.24322 109.899 6.01106 109.948 5.79832 110.045C5.58559 110.141 5.39765 110.282 5.24826 110.459C5.09887 110.635 4.99181 110.841 4.93492 111.063C4.87802 111.285 4.87274 111.516 4.91944 111.74Z" fill="#E0E0E0"/>
<path id="Vector_175" d="M4.91959 111.74L4.89667 111.621C4.88112 111.497 4.88112 111.372 4.89667 111.249C4.9238 111.012 5.00687 110.784 5.13939 110.583C5.27191 110.382 5.45028 110.214 5.66057 110.091C5.80661 110.004 5.96672 109.941 6.13419 109.905C6.32092 109.875 6.51037 109.864 6.69948 109.872H7.99429L11.2332 109.898L32.0228 110.088L46.514 110.233L54.6343 110.311L58.8892 110.356L61.0663 110.378C61.2535 110.378 61.4254 110.378 61.624 110.378C61.818 110.399 62.0067 110.453 62.1816 110.538C62.5342 110.706 62.8134 110.991 62.9684 111.342C63.04 111.516 63.0913 111.697 63.1212 111.882L63.232 112.414C63.3046 112.786 63.3809 113.128 63.4573 113.486C63.605 114.203 63.7553 114.925 63.908 115.652C64.211 117.103 64.5179 118.573 64.8285 120.062C65.4498 123.039 66.0864 126.082 66.7383 129.191C68.0331 135.407 69.3852 141.871 70.7717 148.544L70.6762 148.47H84.9191C85.107 148.463 85.295 148.474 85.4806 148.503C85.8629 148.583 86.1992 148.803 86.4202 149.117C86.6438 149.431 86.7354 149.816 86.6761 150.193C86.6414 150.421 86.5525 150.639 86.4166 150.828C86.2807 151.018 86.1015 151.173 85.8931 151.283C85.6833 151.392 85.4508 151.453 85.2132 151.462H46.9838H13.2079H13.1468V151.403C10.6106 139.214 8.5634 129.303 7.12344 122.433C6.41301 119.001 5.863 116.329 5.48869 114.513C5.30536 113.605 5.16531 112.916 5.06855 112.447C4.97306 111.978 4.93105 111.74 4.93105 111.74C4.93105 111.74 4.98834 111.978 5.08764 112.44C5.18695 112.901 5.33973 113.601 5.53071 114.502C5.91266 116.318 6.48176 118.986 7.20747 122.418C8.65124 129.284 10.7329 139.192 13.2958 151.373L13.2194 151.313L46.9953 151.295H85.198C85.4032 151.287 85.6041 151.235 85.7862 151.142C85.9669 151.045 86.1224 150.909 86.2409 150.745C86.3594 150.58 86.4377 150.392 86.4698 150.193C86.5191 149.863 86.4401 149.527 86.2483 149.251C86.0528 148.98 85.7597 148.79 85.4271 148.719C85.2553 148.694 85.0814 148.684 84.9077 148.689H70.5845V148.615C69.198 141.949 67.8498 135.485 66.5588 129.262C65.9095 126.151 65.2729 123.106 64.649 120.129L63.7323 115.719C63.5834 114.993 63.4306 114.271 63.2816 113.556C63.2091 113.184 63.1327 112.838 63.0601 112.484L62.9493 111.949C62.9207 111.776 62.8747 111.606 62.8118 111.442C62.7068 111.207 62.5398 111.004 62.3278 110.852C62.1158 110.7 61.8664 110.606 61.6049 110.579C61.4368 110.579 61.2458 110.579 61.0663 110.579L58.8892 110.553L54.6305 110.508L46.514 110.415L32.019 110.248L11.2294 109.998L7.99429 109.957L6.69948 109.939C6.51304 109.928 6.3259 109.938 6.14183 109.969C5.97771 110.002 5.82028 110.061 5.67585 110.144C5.4698 110.261 5.29391 110.422 5.16154 110.616C5.02917 110.809 4.94381 111.03 4.91195 111.26C4.89678 111.42 4.89934 111.581 4.91959 111.74Z" fill="#263238"/>
<path id="Vector_176" d="M35.6936 132.198C37.0057 132.198 38.0693 131.162 38.0693 129.884C38.0693 128.605 37.0057 127.569 35.6936 127.569C34.3815 127.569 33.3179 128.605 33.3179 129.884C33.3179 131.162 34.3815 132.198 35.6936 132.198Z" fill="white"/>
<path id="Vector_177" d="M4.98828 112.071C4.98828 112.071 5.07231 112.071 5.23655 112.071H8.75813L19.0441 112.12L52.9804 112.35L57.8884 112.391H59.0954C59.3011 112.384 59.5071 112.396 59.7103 112.429C60.0211 112.49 60.3084 112.634 60.5403 112.845C60.7722 113.056 60.9397 113.325 61.0242 113.623C61.1159 113.995 61.1808 114.368 61.2611 114.74L63.0142 123.352C64.1257 128.841 65.1302 133.773 65.9705 137.937C66.8108 142.102 67.4983 145.444 67.949 147.77C68.1782 148.928 68.3539 149.828 68.4761 150.446C68.5334 150.747 68.5792 150.982 68.6098 151.146C68.6403 151.309 68.648 151.384 68.648 151.384C68.648 151.384 68.6251 151.306 68.5907 151.149C68.5563 150.993 68.5028 150.755 68.4379 150.453L67.8726 147.8C67.3914 145.474 66.6962 142.121 65.833 137.978C64.9698 133.836 63.9615 128.886 62.8347 123.4C62.2732 120.657 61.6888 117.777 61.0701 114.792C60.9899 114.42 60.9211 114.048 60.8371 113.675C60.7363 113.322 60.5051 113.017 60.1878 112.819C60.0305 112.721 59.8555 112.653 59.6721 112.618C59.4803 112.588 59.2858 112.577 59.0916 112.585H57.8884L52.9804 112.548L19.0441 112.257L8.75813 112.146L5.96225 112.071H5.23273H4.98828Z" fill="#263238"/>
</g>
</g>
</svg>
