<svg width="38.4" height="38.4" fill="none" xmlns="http://www.w3.org/2000/svg">
    <g transform="scale(0.8)">
        <circle cx="24" cy="24" r="24" fill="url(#paint0_linear_471_2235)" />
        <circle cx="24" cy="24" r="16" fill="#F7F4F2" />
        <defs>
            <linearGradient id="paint0_linear_471_2235" x1="-131.774" y1="-94.6705" x2="38.0315"
                y2="40.3553" gradientUnits="userSpaceOnUse">
                <stop stop-color="#ABDCFF" />
                <stop offset="1" stop-color="#0396FF" />
            </linearGradient>
            <clipPath id="clip1_471_2240">
                <rect width="48" height="48" fill="red" transform="translate(4.71045 5.01143)" />
            </clipPath>
            <clipPath id="clip0_471_2240">
                <rect width="48" height="48" fill="red" transform="translate(4.71045 5.01143)" />
            </clipPath>
        </defs>
        <g clip-path="url(#clip0_471_2240)">
            <g transform="translate(7,7)" clip-path="url(#clip1_471_2240)">
                <path
                    d="M11.7277 5.83643C11.6714 5.83643 11.6105 5.83643 11.5542 5.84111C9.96518 5.87861 8.01424 6.34268 5.5908 7.4208V24.8302C8.43611 23.4802 10.5886 23.0911 12.3464 23.2786C13.9167 23.4427 15.1449 24.0567 16.2652 24.7411H17.123C18.2433 24.0567 19.4714 23.4427 21.0417 23.2786C22.7995 23.0911 24.9558 23.4802 27.8011 24.8302V7.4208C25.3777 6.34268 23.4277 5.87861 21.8386 5.84111C21.7777 5.84111 21.7214 5.83643 21.6652 5.83643C21.4917 5.83643 21.3183 5.84111 21.1542 5.85049C19.4761 5.94424 18.2152 6.5208 17.123 7.35049H16.2652C15.1777 6.5208 13.912 5.94424 12.2339 5.85049C12.0699 5.84111 11.9011 5.83643 11.7277 5.83643ZM16.7058 8.23643C16.9167 8.23643 17.1464 8.28799 17.3058 8.37236L22.7386 11.5177C23.0855 11.7099 23.0855 12.0286 22.7386 12.2302L17.3058 15.3661C16.9683 15.5677 16.4386 15.5677 16.1011 15.3661L10.6542 12.2302C10.3121 12.0286 10.3121 11.7099 10.6542 11.5177L16.1011 8.37236C16.2605 8.28799 16.4714 8.23643 16.7058 8.23643ZM12.5339 11.1708C11.5214 11.1521 10.9824 11.8739 11.6808 12.3099C12.1308 12.5349 12.7917 12.5161 13.2136 12.2724C13.6261 12.0239 13.6589 11.6302 13.2839 11.363C13.0824 11.2458 12.8152 11.1755 12.5339 11.1708ZM20.9058 11.1755C19.9308 11.1942 19.4386 11.9021 20.1417 12.3239C20.5917 12.5536 21.2621 12.5396 21.6886 12.2911C22.1058 12.0427 22.1339 11.6396 21.7449 11.3724C21.548 11.2599 21.2808 11.1849 20.9995 11.1755H20.9058ZM16.7339 11.1755C16.4246 11.1708 16.1245 11.2458 15.9042 11.3724C15.4261 11.6349 15.4167 12.0802 15.8761 12.3521C16.3402 12.6239 17.0855 12.6146 17.5214 12.3239C18.2245 11.9021 17.7371 11.1849 16.7339 11.1755ZM10.1246 13.0974C10.1949 13.1021 10.2839 13.1208 10.3871 13.1724L15.6136 16.1958C15.9511 16.388 16.2183 16.8614 16.2183 17.2505V22.8614C16.2183 23.2505 15.9511 23.4099 15.6136 23.2177L10.3917 20.1989C10.0449 19.9974 9.77299 19.5333 9.77299 19.1396V13.5286C9.77299 13.238 9.91361 13.0974 10.1246 13.0974ZM23.3105 13.0974C23.5074 13.0974 23.648 13.238 23.648 13.5286V19.1396C23.648 19.5333 23.3667 19.9974 23.0386 20.1989L17.812 23.2177C17.4746 23.4099 17.2074 23.2505 17.2074 22.8614V17.2505C17.2074 16.8614 17.4746 16.388 17.812 16.1958L23.0386 13.1724C23.1371 13.1208 23.2355 13.1021 23.3105 13.0974ZM14.6386 16.1677H14.587C14.3386 16.1864 14.1886 16.3927 14.1886 16.7114C14.1605 17.1989 14.5261 17.8411 14.9808 18.1083C15.4402 18.3708 15.8058 18.1599 15.7871 17.6442C15.7964 16.9786 15.1636 16.1864 14.6386 16.1677ZM20.7746 17.1896C20.2496 17.1942 19.6121 17.9958 19.6167 18.6614C19.6214 19.1489 19.9777 19.3364 20.423 19.0786C20.8636 18.8208 21.2199 18.2208 21.2245 17.7286C21.2245 17.4146 21.0699 17.2083 20.8261 17.1896H20.7746ZM10.6074 18.2442C10.3542 18.2583 10.1996 18.4646 10.1996 18.788C10.1761 19.2802 10.5417 19.9177 10.9964 20.1849C11.4558 20.4427 11.8214 20.2317 11.8027 19.7114C11.8027 19.0317 11.1417 18.2208 10.6074 18.2442ZM11.4324 24.1083C9.93236 24.1224 8.06533 24.5677 5.59033 25.7958V27.788C8.43564 26.438 10.5886 26.0489 12.3464 26.2364C13.2183 26.3302 13.9824 26.5599 14.6808 26.8599C14.4605 27.1458 14.2449 27.4833 14.0292 27.8771H19.523C19.2417 27.4927 18.9699 27.1552 18.6933 26.8646C19.3964 26.5599 20.1652 26.3302 21.0417 26.2364C22.7995 26.0489 24.9558 26.438 27.8011 27.788V25.7958C25.312 24.563 23.437 24.113 21.9324 24.1083H21.7871C21.562 24.113 21.3464 24.1271 21.1355 24.1505C19.5417 24.3192 18.3417 24.9942 17.123 25.763V25.7771C16.8183 25.6833 16.5136 25.6646 16.2136 25.7302C15.0183 24.9755 13.823 24.3146 12.2574 24.1505C11.9949 24.1224 11.7183 24.1083 11.4324 24.1083Z"
                    fill="#1723FF" />
            </g>
        </g>
    </g>

</svg>
