<svg width="22" height="20" viewBox="0 0 22 20" fill="none" xmlns="http://www.w3.org/2000/svg">
    <g clip-path="url(#clip0_435_120)">
        <path
            d="M8.3727 9.16668V8.33334C8.3727 7.6703 8.64523 7.03442 9.13033 6.56558C9.61543 6.09674 10.2734 5.83334 10.9594 5.83334C11.6454 5.83334 12.3034 6.09674 12.7885 6.56558C13.2736 7.03442 13.5461 7.6703 13.5461 8.33334V9.16668H13.9772C14.2059 9.16668 14.4252 9.25447 14.5869 9.41075C14.7486 9.56703 14.8395 9.779 14.8395 10V13.3333C14.8395 13.5544 14.7486 13.7663 14.5869 13.9226C14.4252 14.0789 14.2059 14.1667 13.9772 14.1667H7.94158C7.7129 14.1667 7.49359 14.0789 7.33189 13.9226C7.17019 13.7663 7.07935 13.5544 7.07935 13.3333V10C7.07935 9.54168 7.46735 9.16668 7.94158 9.16668H8.3727ZM10.5283 11.9708V12.9167H11.3905V11.9708C11.5549 11.8791 11.6834 11.7375 11.756 11.5681C11.8286 11.3986 11.8414 11.2107 11.7923 11.0335C11.7431 10.8563 11.6349 10.6997 11.4843 10.588C11.3337 10.4764 11.1492 10.4158 10.9594 10.4158C10.7696 10.4158 10.5851 10.4764 10.4345 10.588C10.2839 10.6997 10.1757 10.8563 10.1265 11.0335C10.0774 11.2107 10.0902 11.3986 10.1628 11.5681C10.2354 11.7375 10.3639 11.8791 10.5283 11.9708ZM9.66605 8.33334V9.16668H12.2528V8.33334C12.2528 8.00182 12.1165 7.68388 11.8739 7.44946C11.6314 7.21504 11.3024 7.08334 10.9594 7.08334C10.6164 7.08334 10.2874 7.21504 10.0449 7.44946C9.80231 7.68388 9.66605 8.00182 9.66605 8.33334Z"
            fill="#F9F9F9" />
    </g>
    <path
        d="M20.3062 10C20.3062 14.9387 16.1539 19 10.9594 19C5.76485 19 1.61255 14.9387 1.61255 10C1.61255 5.0613 5.76485 1 10.9594 1C16.1539 1 20.3062 5.0613 20.3062 10Z"
        stroke="#F9F9F9" stroke-width="2" />
    <defs>
        <clipPath id="clip0_435_120">
            <rect width="8.62235" height="8.33333" fill="white"
                transform="translate(6.64819 5.83334)" />
        </clipPath>
    </defs>
</svg>
