<?xml version="1.0" encoding="utf-8"?>
<svg width="360px" height="180.732px" viewBox="0 0 360 180.732" version="1.1"
    xmlns:xlink="http://www.w3.org/1999/xlink" xmlns="http://www.w3.org/2000/svg">
    <defs>
        <path d="M205 85L197 85L201 77L205 85Z" id="path_1" />
    </defs>
    <path d="M0 16C0 7.16344 7.16344 0 16 0H360V164C360 172.837 352.837 180 344 180H0V16Z"
        fill="#0961F5" />

    <g id="OFFER">

        <path
            d="M344 0C352.838 0 360 7.16224 360 16L360 164C360 172.838 352.838 180 344 180L16 180C7.16224 180 0 172.838 0 164L0 16C0 7.16224 7.16224 0 16 0L344 0Z"
            id="BG" fill="#0961F5" stroke="none" />
        <path
            d="M241 163.5C250 159.5 245 139 255 139C265 139 290.5 159.5 306 159.5C321.5 159.5 329 113 335.5 113C342 113 346 139 352 139C358 139 360 103.5 360 103.5L360 160C360 171.046 351.046 180 340 180C292.912 180 179 180 179 180C179 180 232 167.5 241 163.5Z"
            id="Path-2" fill="#1A6EFC" fill-rule="evenodd" stroke="none" />
        <path
            d="M20 0C62.0967 0 156 0 156 0C156 0 130.5 39 117.5 32.5C104.5 26 100.914 13.0479 83 18.5C65.0858 23.9521 71.0279 46.6068 60 50C48.9721 53.3932 35 31.5 28 36C21 40.5 19.3524 68.5877 16 72C12.6476 75.4123 0 64.5 0 64.5L0 20C0 8.95431 8.95431 0 20 0Z"
            id="Path-3" fill="#1A6EFC" fill-rule="evenodd" stroke="none" />
        <path d="M177.57 0.868984L160.43 28.131" id="Line-3" fill="none" fill-rule="evenodd"
            stroke="#1A6EFC" stroke-width="2" stroke-linecap="round" stroke-linejoin="round" />
        <path d="M175.158 24.2588L161.682 44.1186" id="Line-3" fill="none" fill-rule="evenodd"
            stroke="#1A6EFC" stroke-width="2" stroke-linecap="round" stroke-linejoin="round" />
        <g id="Triangle">
            <use xlink:href="#path_1" fill="none" stroke="#1A6EFC" stroke-width="2.8"
                stroke-linejoin="round" />

        </g>

        <path
            d="M225 41C236.046 41 245 38.7614 245 36C245 33.2386 236.046 31 225 31C213.954 31 205 33.2386 205 36C205 38.7614 213.954 41 225 41Z"
            id="Oval" fill="none" fill-rule="evenodd" stroke="#1A6EFC" stroke-width="2" />

    </g>
    <path fill-rule="evenodd" clip-rule="evenodd"
        d="M0 64.5V20C0 8.95431 8.95431 0 20 0H156C156 0 130.5 39 117.5 32.5C104.5 26 100.914 13.0479 83 18.5C65.0858 23.9521 71.0279 46.6068 60 50C48.9721 53.3932 35 31.5 28 36C21 40.5 19.3524 68.5877 16 72C12.6476 75.4123 0 64.5 0 64.5Z"
        fill="#1A6EFC" />


</svg>

