<svg width="266" height="125" viewBox="0 0 266 125" fill="none" xmlns="http://www.w3.org/2000/svg">
    <defs>
        <linearGradient id="paint0_linear_471_2248" x1="-3" y1="62.5" x2="268" y2="62.5"
            gradientUnits="userSpaceOnUse">
            <stop stop-color="#000DFF" />
            <stop offset="0.0001" stop-color="#0961F5" />
            <stop offset="1" stop-color="#6B73FF" />
        </linearGradient>
    </defs>
    <path
        d="M3.33286 71.7165C-0.470614 66.1811 -0.412334 58.8596 3.47877 53.3855L36.6423 6.73015C39.6435 2.50793 44.5032 -7.62939e-06 49.6834 -7.62939e-06L219.585 -7.62939e-06C225.065 -7.62939e-06 230.165 2.80531 233.099 7.43452L262.673 54.0955C265.935 59.2415 265.991 65.7933 262.817 70.9943L234.545 117.333C231.64 122.095 226.465 125 220.887 125L48.3644 125C43.0942 125 38.1621 122.405 35.1775 118.061L3.33286 71.7165Z"
        fill="url(#paint0_linear_471_2248)" />
</svg>
