<svg width="38.4" height="38.4" fill="none" xmlns="http://www.w3.org/2000/svg">
    <g transform="scale(0.8)">
        <circle cx="24" cy="24" r="24" fill="url(#paint0_linear_471_2235)" />
        <circle cx="24" cy="24" r="16" fill="#F7F4F2" />
        <defs>
            <linearGradient id="paint0_linear_471_2235" x1="-131.774" y1="-94.6705" x2="38.0315"
                y2="40.3553" gradientUnits="userSpaceOnUse">
                <stop stop-color="#ABDCFF" />
                <stop offset="1" stop-color="#0396FF" />
            </linearGradient>
            <clipPath id="clip1_471_2240">
                <rect width="48" height="48" fill="red" transform="translate(4.71045 5.01143)" />
            </clipPath>
            <clipPath id="clip0_471_2240">
                <rect width="48" height="48" fill="red" transform="translate(4.71045 5.01143)" />
            </clipPath>
        </defs>
        <g clip-path="url(#clip0_471_2240)">
            <g transform="translate(8,8)" clip-path="url(#clip1_471_2240)">
                <path
                    d="M13.142 25.5855C11.488 25.0917 9.99009 24.178 8.794 22.9335C9.17884 22.4771 9.41874 21.9162 9.483 21.3226C9.54726 20.7291 9.43296 20.1299 9.15472 19.6016C8.87649 19.0734 8.44698 18.6402 7.92115 18.3575C7.39531 18.0747 6.79708 17.9553 6.203 18.0145C6.06766 17.3516 5.99965 16.6766 6 16C6 14.955 6.16 13.947 6.458 13H6.5C7.00988 13.0002 7.51139 12.8704 7.95717 12.6229C8.40295 12.3754 8.7783 12.0184 9.04777 11.5855C9.31724 11.1527 9.47194 10.6583 9.49726 10.149C9.52259 9.63976 9.4177 9.13246 9.1925 8.67501C10.3648 7.58342 11.7825 6.78992 13.326 6.36151C13.5772 6.85471 13.9599 7.26881 14.4319 7.55799C14.9038 7.84716 15.4465 8.00015 16 8.00001C16.5535 8.00015 17.0962 7.84716 17.5681 7.55799C18.0401 7.26881 18.4228 6.85471 18.674 6.36151C20.2175 6.78992 21.6352 7.58342 22.8075 8.67501C22.5807 9.13567 22.4759 9.64684 22.5031 10.1596C22.5304 10.6723 22.6888 11.1695 22.9632 11.6035C23.2376 12.0375 23.6188 12.3938 24.0703 12.6384C24.5219 12.8829 25.0286 13.0074 25.542 13C25.8465 13.9709 26.0009 14.9825 26 16C26 16.69 25.93 17.364 25.797 18.015C25.2029 17.9558 24.6047 18.0752 24.0789 18.358C23.553 18.6407 23.1235 19.0739 22.8453 19.6021C22.567 20.1304 22.4527 20.7296 22.517 21.3231C22.5813 21.9167 22.8212 22.4776 23.206 22.934C22.0099 24.1784 20.5119 25.0918 18.858 25.5855C18.6638 24.9802 18.2824 24.4521 17.7687 24.0775C17.2551 23.7028 16.6357 23.501 16 23.501C15.3643 23.501 14.7449 23.7028 14.2313 24.0775C13.7176 24.4521 13.3362 24.9802 13.142 25.5855Z"
                    stroke="#1723FF" stroke-width="2" stroke-linejoin="round" />
                <path
                    d="M16 19.5C16.4596 19.5 16.9148 19.4095 17.3394 19.2336C17.764 19.0577 18.1499 18.7999 18.4749 18.4749C18.7999 18.1499 19.0577 17.764 19.2336 17.3394C19.4095 16.9148 19.5 16.4596 19.5 16C19.5 15.5404 19.4095 15.0852 19.2336 14.6606C19.0577 14.236 18.7999 13.8501 18.4749 13.5251C18.1499 13.2001 17.764 12.9423 17.3394 12.7664C16.9148 12.5905 16.4596 12.5 16 12.5C15.0717 12.5 14.1815 12.8687 13.5251 13.5251C12.8687 14.1815 12.5 15.0717 12.5 16C12.5 16.9283 12.8687 17.8185 13.5251 18.4749C14.1815 19.1313 15.0717 19.5 16 19.5Z"
                    stroke="#1723FF" stroke-width="2" stroke-linejoin="round" />

            </g>
        </g>
    </g>

</svg>

